<svg width="15" height="17" viewBox="0 0 15 17" fill="none" xmlns="http://www.w3.org/2000/svg">
<path d="M15 4.0599C15 10.9999 10.77 14.8299 8.1 15.9399C7.91691 16.0192 7.71951 16.06 7.52 16.06C7.32049 16.06 7.12309 16.0192 6.94 15.9399C3.6 14.5499 0 10.2599 0 4.0599C0.0049551 3.75385 0.103417 3.45665 0.282169 3.20818C0.460921 2.95972 0.711407 2.77188 1 2.66989L7 0.169895C7.36935 0.0234465 7.78066 0.0234465 8.15 0.169895L14.15 2.66989C14.4105 2.79506 14.6294 2.99283 14.7802 3.23943C14.931 3.48603 15.0073 3.77094 15 4.0599ZM9.29 8.0599L11.41 5.9999C11.4457 5.96456 11.474 5.92251 11.4933 5.87617C11.5127 5.82982 11.5226 5.78011 11.5226 5.7299C11.5226 5.67968 11.5127 5.62997 11.4933 5.58363C11.474 5.53728 11.4457 5.49523 11.41 5.4599L10.14 4.1899C10.1047 4.15422 10.0626 4.1259 10.0163 4.10657C9.96993 4.08724 9.92021 4.07729 9.87 4.07729C9.81979 4.07729 9.77007 4.08724 9.72373 4.10657C9.67738 4.1259 9.63533 4.15422 9.6 4.1899L7.52 6.2899L5.44 4.1899C5.40467 4.15422 5.36261 4.1259 5.31627 4.10657C5.26993 4.08724 5.22021 4.07729 5.17 4.07729C5.11979 4.07729 5.07007 4.08724 5.02373 4.10657C4.97739 4.1259 4.93533 4.15422 4.9 4.1899L3.63 5.4599C3.59432 5.49523 3.566 5.53728 3.54667 5.58363C3.52734 5.62997 3.5174 5.67968 3.5174 5.7299C3.5174 5.78011 3.52734 5.82982 3.54667 5.87617C3.566 5.92251 3.59432 5.96456 3.63 5.9999L5.73 8.0799L3.63 10.1599C3.59432 10.1952 3.566 10.2373 3.54667 10.2836C3.52734 10.33 3.5174 10.3797 3.5174 10.4299C3.5174 10.4801 3.52734 10.5298 3.54667 10.5762C3.566 10.6225 3.59432 10.6646 3.63 10.6999L4.9 11.9999C4.93533 12.0356 4.97739 12.0639 5.02373 12.0832C5.07007 12.1026 5.11979 12.1125 5.17 12.1125C5.22021 12.1125 5.26993 12.1026 5.31627 12.0832C5.36261 12.0639 5.40467 12.0356 5.44 11.9999L7.52 9.8999L9.6 11.9999C9.63533 12.0356 9.67738 12.0639 9.72373 12.0832C9.77007 12.1026 9.81979 12.1125 9.87 12.1125C9.92021 12.1125 9.96993 12.1026 10.0163 12.0832C10.0626 12.0639 10.1047 12.0356 10.14 11.9999L11.41 10.7299C11.4457 10.6946 11.474 10.6525 11.4933 10.6062C11.5127 10.5598 11.5226 10.5101 11.5226 10.4599C11.5226 10.4097 11.5127 10.36 11.4933 10.3136C11.474 10.2673 11.4457 10.2252 11.41 10.1899L9.29 8.0599Z" fill="#FF0000"/>
</svg>
