<svg width="23" height="24" viewBox="0 0 23 24" fill="none" xmlns="http://www.w3.org/2000/svg">
<path d="M22.81 15.27C22.29 16.94 21.4 18.45 20.25 19.7C20.07 19.9 19.79 19.94 19.56 19.81L17.56 18.66C16.72 19.38 15.75 19.93 14.71 20.31V22.62C14.71 22.88 14.53 23.11 14.27 23.17C12.63 23.54 10.87 23.55 9.14998 23.17C8.88998 23.11 8.70998 22.88 8.70998 22.62V20.31C7.65998 19.94 6.69994 19.39 5.85994 18.66L3.85994 19.81C3.62994 19.94 3.33994 19.89 3.16994 19.7C2.00994 18.44 1.12994 16.93 0.609941 15.27C0.539941 15.02 0.63995 14.75 0.869951 14.61L2.86995 13.46C2.66995 12.37 2.66995 11.26 2.86995 10.17L0.869951 9.01997C0.63995 8.88997 0.529941 8.61998 0.609941 8.35997C1.12994 6.68997 2.01994 5.17997 3.16994 3.92997C3.34994 3.72997 3.62994 3.68997 3.85994 3.81997L5.84993 4.96998C6.68993 4.24998 7.65997 3.68997 8.69997 3.31997V1.00998C8.69997 0.749977 8.87997 0.519973 9.13997 0.459973C10.78 0.0899734 12.54 0.0799734 14.26 0.459973C14.52 0.519973 14.7 0.749977 14.7 1.00998V3.30997C15.75 3.67997 16.7099 4.22997 17.5499 4.95997L19.5499 3.80997C19.7799 3.67997 20.0699 3.72997 20.2399 3.91997C21.3999 5.17997 22.2799 6.68997 22.7999 8.34997C22.8799 8.59997 22.7699 8.87998 22.5399 9.00998L20.5399 10.16C20.7399 11.25 20.7399 12.36 20.5399 13.45L22.5399 14.6C22.7699 14.73 22.8699 15 22.7999 15.26L22.81 15.27ZM9.54994 16.16C9.54994 17.35 10.52 18.32 11.71 18.32C12.9 18.32 13.87 17.35 13.87 16.16C13.87 14.97 12.9 14 11.71 14C10.52 14 9.54994 14.97 9.54994 16.16ZM10.01 12.63C10.03 12.93 10.27 13.16 10.57 13.16H12.8499C13.1499 13.16 13.3999 12.93 13.4099 12.63L13.76 6.24997C13.78 5.92997 13.52 5.65998 13.2 5.65998H10.2299C9.90994 5.65998 9.64994 5.92997 9.66994 6.24997L10.02 12.63H10.01Z" fill="#7893B0"/>
</svg>
