<svg width="13" height="17" viewBox="0 0 13 17" fill="none" xmlns="http://www.w3.org/2000/svg">
<path d="M12.54 15.3101C12.54 15.509 12.461 15.6997 12.3203 15.8404C12.1797 15.981 11.989 16.0601 11.79 16.0601H1.29004C1.09193 16.0575 0.902668 15.9776 0.762573 15.8375C0.622478 15.6974 0.542629 15.5082 0.540039 15.3101V0.810059C0.540039 0.611146 0.618991 0.42038 0.759644 0.279728C0.900296 0.139076 1.09113 0.0600586 1.29004 0.0600586H7.54004V4.31006C7.54263 4.50817 7.62248 4.69743 7.76257 4.83752C7.90267 4.97762 8.09193 5.05747 8.29004 5.06006H12.54V15.3101ZM9.78003 8.68006C9.69617 7.94471 9.34345 7.26631 8.78967 6.77529C8.23589 6.28427 7.52013 6.01529 6.78003 6.02006C6.17738 6.00407 5.58133 6.14955 5.05383 6.44143C4.52634 6.73331 4.0866 7.16096 3.78003 7.68006C3.73525 7.74733 3.71748 7.82905 3.73047 7.90881C3.74345 7.98857 3.78617 8.06047 3.84998 8.11006L4.75 8.79006C4.80943 8.84632 4.88813 8.87768 4.96997 8.87768C5.05181 8.87768 5.13051 8.84632 5.18994 8.79006C5.64994 8.20006 5.97005 7.85006 6.68005 7.85006C7.21005 7.85006 7.87 8.20006 7.87 8.71006C7.87 9.22006 7.55002 9.30006 7.02002 9.60006C6.49002 9.90006 5.59998 10.3701 5.59998 11.4401V11.5401C5.59863 11.5816 5.60563 11.623 5.62061 11.6618C5.63558 11.7005 5.65821 11.7359 5.68713 11.7658C5.71605 11.7956 5.75078 11.8193 5.78906 11.8355C5.82734 11.8517 5.86847 11.8601 5.91003 11.8601H7.37C7.41156 11.8601 7.45269 11.8517 7.49097 11.8355C7.52924 11.8193 7.56385 11.7956 7.59277 11.7658C7.62169 11.7359 7.64432 11.7005 7.6593 11.6618C7.67428 11.623 7.68139 11.5816 7.68005 11.5401C7.61005 10.7201 9.78003 10.6901 9.78003 8.68006ZM7.78003 13.6801C7.78003 13.4427 7.70962 13.2107 7.57776 13.0134C7.4459 12.816 7.25846 12.6622 7.03918 12.5714C6.81991 12.4806 6.57872 12.4568 6.34595 12.5031C6.11317 12.5494 5.89927 12.6637 5.73145 12.8315C5.56362 12.9994 5.44938 13.2132 5.40308 13.4459C5.35677 13.6787 5.38049 13.92 5.47131 14.1393C5.56214 14.3586 5.71599 14.546 5.91333 14.6778C6.11067 14.8097 6.34262 14.8801 6.57996 14.8801C6.89648 14.8774 7.19923 14.7498 7.42212 14.5251C7.645 14.3003 7.77003 13.9966 7.77002 13.6801H7.78003ZM12.55 4.06006H8.55005V0.0600586H8.73999C8.93884 0.0602336 9.1295 0.139364 9.27002 0.280056L12.33 3.34006C12.4015 3.40823 12.4581 3.49058 12.496 3.58184C12.5339 3.6731 12.5523 3.77127 12.55 3.87006V4.06006Z" fill="#FCEE21"/>
</svg>
