<svg width="16" height="17" viewBox="0 0 16 17" fill="none" xmlns="http://www.w3.org/2000/svg">
<path d="M15.7 4.0599C15.7 10.9699 11.46 14.8299 8.77997 15.9399C8.59688 16.0192 8.39947 16.06 8.19995 16.06C8.00044 16.06 7.80303 16.0192 7.61994 15.9399C4.27994 14.5499 0.699953 10.2599 0.699953 4.0599C0.699453 3.76205 0.787625 3.4708 0.953249 3.22326C1.11887 2.97571 1.35444 2.78307 1.62995 2.66989L7.62995 0.169895C7.99929 0.0234465 8.41062 0.0234465 8.77997 0.169895L14.78 2.66989C15.0536 2.78462 15.287 2.97792 15.4508 3.22534C15.6146 3.47276 15.7013 3.76319 15.7 4.0599ZM9.98993 8.0599L12.09 5.9799C12.1256 5.94456 12.154 5.90251 12.1733 5.85617C12.1926 5.80982 12.2025 5.76011 12.2025 5.7099C12.2025 5.65968 12.1926 5.60997 12.1733 5.56362C12.154 5.51728 12.1256 5.47523 12.09 5.4399L10.8199 4.16989C10.7846 4.13422 10.7426 4.1059 10.6962 4.08657C10.6499 4.06724 10.6001 4.05729 10.5499 4.05729C10.4997 4.05729 10.45 4.06724 10.4037 4.08657C10.3573 4.1059 10.3153 4.13422 10.28 4.16989L8.19995 6.2699L6.11994 4.16989C6.0846 4.13422 6.04256 4.1059 5.99622 4.08657C5.94987 4.06724 5.90013 4.05729 5.84992 4.05729C5.7997 4.05729 5.75002 4.06724 5.70368 4.08657C5.65733 4.1059 5.61529 4.13422 5.57996 4.16989L4.30994 5.4399C4.24248 5.51363 4.20508 5.60995 4.20508 5.7099C4.20508 5.80984 4.24248 5.90616 4.30994 5.9799L6.40991 8.0599L4.30994 10.1399C4.24248 10.2136 4.20508 10.31 4.20508 10.4099C4.20508 10.5098 4.24248 10.6062 4.30994 10.6799L5.57996 11.9999C5.61529 12.0356 5.65733 12.0639 5.70368 12.0832C5.75002 12.1026 5.7997 12.1125 5.84992 12.1125C5.90013 12.1125 5.94987 12.1026 5.99622 12.0832C6.04256 12.0639 6.0846 12.0356 6.11994 11.9999L8.19995 9.8999L10.28 11.9999C10.3153 12.0356 10.3573 12.0639 10.4037 12.0832C10.45 12.1026 10.4997 12.1125 10.5499 12.1125C10.6001 12.1125 10.6499 12.1026 10.6962 12.0832C10.7426 12.0639 10.7846 12.0356 10.8199 11.9999L12.09 10.7299C12.1256 10.6946 12.154 10.6525 12.1733 10.6062C12.1926 10.5598 12.2025 10.5101 12.2025 10.4599C12.2025 10.4097 12.1926 10.36 12.1733 10.3136C12.154 10.2673 12.1256 10.2252 12.09 10.1899L9.98993 8.0599Z" fill="#22B573"/>
</svg>
