<svg width="16" height="17" viewBox="0 0 16 17" fill="none" xmlns="http://www.w3.org/2000/svg">
<path d="M15.36 4.0599C15.36 10.9699 11.11 14.8299 8.44 15.9399C8.25691 16.0192 8.0595 16.06 7.85999 16.06C7.66048 16.06 7.46309 16.0192 7.28 15.9399C3.94 14.5499 0.359987 10.2599 0.359987 4.0599C0.359487 3.76205 0.447689 3.4708 0.613314 3.22326C0.778938 2.97571 1.01451 2.78307 1.29001 2.66989L7.29001 0.169895C7.65936 0.0234465 8.07066 0.0234465 8.44 0.169895L14.44 2.66989C14.7136 2.78462 14.9471 2.97792 15.1108 3.22534C15.2746 3.47276 15.3613 3.76319 15.36 4.0599ZM9.65 8.0599L11.75 5.9799C11.7857 5.94456 11.814 5.90251 11.8333 5.85617C11.8526 5.80982 11.8626 5.76011 11.8626 5.7099C11.8626 5.65968 11.8526 5.60997 11.8333 5.56362C11.814 5.51728 11.7857 5.47523 11.75 5.4399L10.48 4.16989C10.4447 4.13422 10.4026 4.1059 10.3563 4.08657C10.3099 4.06724 10.2602 4.05729 10.21 4.05729C10.1598 4.05729 10.1101 4.06724 10.0637 4.08657C10.0174 4.1059 9.97534 4.13422 9.94 4.16989L7.85999 6.2699L5.78 4.16989C5.74467 4.13422 5.70263 4.1059 5.65628 4.08657C5.60994 4.06724 5.56022 4.05729 5.51001 4.05729C5.4598 4.05729 5.41008 4.06724 5.36374 4.08657C5.3174 4.1059 5.27533 4.13422 5.23999 4.16989L4 5.4399C3.96432 5.47523 3.93602 5.51728 3.91669 5.56362C3.89736 5.60997 3.88739 5.65968 3.88739 5.7099C3.88739 5.76011 3.89736 5.80982 3.91669 5.85617C3.93602 5.90251 3.96432 5.94456 4 5.9799L6.10001 8.0599L4 10.1399C3.96432 10.1752 3.93602 10.2173 3.91669 10.2636C3.89736 10.31 3.88739 10.3597 3.88739 10.4099C3.88739 10.4601 3.89736 10.5098 3.91669 10.5562C3.93602 10.6025 3.96432 10.6446 4 10.6799L5.23999 11.9999C5.27533 12.0356 5.3174 12.0639 5.36374 12.0832C5.41008 12.1026 5.4598 12.1125 5.51001 12.1125C5.56022 12.1125 5.60994 12.1026 5.65628 12.0832C5.70263 12.0639 5.74467 12.0356 5.78 11.9999L7.85999 9.8999L9.94 11.9999C9.97534 12.0356 10.0174 12.0639 10.0637 12.0832C10.1101 12.1026 10.1598 12.1125 10.21 12.1125C10.2602 12.1125 10.3099 12.1026 10.3563 12.0832C10.4026 12.0639 10.4447 12.0356 10.48 11.9999L11.75 10.7299C11.7857 10.6946 11.814 10.6525 11.8333 10.6062C11.8526 10.5598 11.8626 10.5101 11.8626 10.4599C11.8626 10.4097 11.8526 10.36 11.8333 10.3136C11.814 10.2673 11.7857 10.2252 11.75 10.1899L9.65 8.0599Z" fill="#F87415"/>
</svg>
