<svg width="13" height="17" viewBox="0 0 13 17" fill="none" xmlns="http://www.w3.org/2000/svg">
<path d="M12.8799 15.3101C12.8799 15.509 12.8008 15.6997 12.6602 15.8404C12.5195 15.981 12.3288 16.0601 12.1299 16.0601H1.62988C1.43178 16.0575 1.24251 15.9776 1.10242 15.8375C0.962322 15.6974 0.882473 15.5082 0.879883 15.3101V0.810059C0.879883 0.611146 0.958835 0.42038 1.09949 0.279728C1.24014 0.139076 1.43097 0.0600586 1.62988 0.0600586H7.87988V4.31006C7.88247 4.50817 7.96232 4.69743 8.10242 4.83752C8.24251 4.97762 8.43178 5.05747 8.62988 5.06006H12.8799V15.3101ZM6.87988 11.6901C6.58562 11.692 6.29852 11.7811 6.05481 11.946C5.8111 12.1109 5.62174 12.3443 5.5105 12.6168C5.39926 12.8892 5.37107 13.1885 5.42969 13.4768C5.4883 13.7652 5.63107 14.0298 5.83984 14.2371C6.04862 14.4445 6.31415 14.5854 6.60291 14.6421C6.89166 14.6988 7.19072 14.6687 7.4624 14.5557C7.73408 14.4426 7.96611 14.2516 8.12939 14.0068C8.29268 13.762 8.37988 13.4743 8.37988 13.1801C8.37989 12.9835 8.34101 12.789 8.2655 12.6075C8.19 12.4261 8.07936 12.2614 7.93994 12.1229C7.80052 11.9844 7.63506 11.8749 7.45312 11.8006C7.27119 11.7263 7.07639 11.6887 6.87988 11.6901ZM5.68982 10.6901C5.69984 10.8023 5.75175 10.9068 5.83508 10.9827C5.91841 11.0586 6.02716 11.1005 6.13989 11.1001H7.62988C7.74261 11.1005 7.85136 11.0586 7.93469 10.9827C8.01802 10.9068 8.06981 10.8023 8.07983 10.6901L8.34985 6.51006C8.35253 6.44882 8.34295 6.38766 8.32166 6.33018C8.30037 6.27271 8.26787 6.22006 8.22595 6.17535C8.18403 6.13063 8.1335 6.09474 8.07751 6.06979C8.02153 6.04484 7.96118 6.03133 7.8999 6.03006H5.8999C5.83862 6.03133 5.77816 6.04484 5.72217 6.06979C5.66618 6.09474 5.61578 6.13063 5.57385 6.17535C5.53193 6.22006 5.49932 6.27271 5.47803 6.33018C5.45674 6.38766 5.44715 6.44882 5.44983 6.51006L5.68982 10.6901ZM12.8799 4.07006H8.87988V0.0700569H9.06982C9.2717 0.0697655 9.46566 0.148771 9.60986 0.290058L12.6699 3.35006C12.7382 3.42013 12.792 3.50305 12.828 3.59402C12.864 3.685 12.8817 3.78222 12.8799 3.88006V4.07006Z" fill="#7993B0"/>
</svg>
