<?xml version="1.0" encoding="utf-8"?>
<!-- Generator: Adobe Illustrator 28.1.0, SVG Export Plug-In . SVG Version: 6.00 Build 0)  -->
<svg version="1.1" xmlns="http://www.w3.org/2000/svg" xmlns:xlink="http://www.w3.org/1999/xlink" x="0px" y="0px" width="560px"
	 height="560px" viewBox="0 0 560 560" enable-background="new 0 0 560 560" xml:space="preserve">
<g id="Layer_1">
</g>
<g id="Layer_2">
	<rect fill="none" width="560" height="560"/>
	<g>
		<g>
			<g>
				<path fill="#556677" d="M156.18,502.08c-8.84,0-16-7.16-16-16V73.92c0-8.84,7.16-16,16-16h310.35c8.84,0,16,7.16,16,16v412.16
					c0,8.84-7.16,16-16,16H156.18z"/>
			</g>
			<g>
				<path fill="#B4BDC5" d="M160.18,492.08c-5.5,0-10-4.5-10-10V76.92c0-5.5,4.5-10,10-10h302.35c5.5,0,10,4.5,10,10v405.16
					c0,5.5-4.5,10-10,10H160.18z"/>
			</g>
			<g>
				<g>
					<g>
						<rect x="172.58" y="125.08" fill="#8C98A3" width="173" height="10"/>
					</g>
					<g>
						<rect x="172.58" y="398.08" fill="#8C98A3" width="84.99" height="10"/>
					</g>
					<g>
						<rect x="172.58" y="430.08" fill="#8C98A3" width="84.99" height="10"/>
					</g>
					<g>
						<rect x="172.57" y="160.08" fill="#8C98A3" width="284.01" height="10"/>
					</g>
					<g>
						<rect x="172.51" y="194.08" fill="#8C98A3" width="284.01" height="10"/>
					</g>
					<g>
						<rect x="172.44" y="228.08" fill="#8C98A3" width="284.01" height="10"/>
					</g>
					<g>
						<rect x="172.57" y="279.08" fill="#8C98A3" width="284.01" height="10"/>
					</g>
					<g>
						<rect x="172.51" y="313.08" fill="#8C98A3" width="284.01" height="10"/>
					</g>
					<g>
						<rect x="172.44" y="347.08" fill="#8C98A3" width="284.01" height="10"/>
					</g>
				</g>
			</g>
		</g>
		<g>
			
				<rect x="350.72" y="271.85" transform="matrix(0.9893 0.1462 -0.1462 0.9893 57.8348 -60.7152)" fill="#FFFFFF" width="182.59" height="182.59"/>
			<g>
				
					<rect x="375" y="332.09" transform="matrix(0.9893 0.1462 -0.1462 0.9893 54.0821 -61.7537)" fill="#D5D9DD" width="144.41" height="10"/>
			</g>
			<g>
				
					<rect x="370" y="365.09" transform="matrix(0.9893 0.1462 -0.1462 0.9893 58.8526 -60.6683)" fill="#D5D9DD" width="144.41" height="10"/>
			</g>
			<g>
				
					<rect x="365" y="398.09" transform="matrix(0.9893 0.1462 -0.1462 0.9893 63.623 -59.5829)" fill="#D5D9DD" width="144.41" height="10"/>
			</g>
			
				<rect x="444.76" y="255.83" transform="matrix(0.9401 0.3409 -0.3409 0.9401 122.8108 -138.0528)" fill="#566777" width="18.95" height="49.2"/>
		</g>
		<g>
			<polygon fill="#23394F" points="15.7,325.21 137.09,227.23 288.37,273.65 321,446.2 48.33,497.77 			"/>
			<g>
				<g>
					<path fill="#556677" d="M77.53,469.9c-5.74,1.09-11.28-2.69-12.37-8.43L14.51,193.58c-1.09-5.74,2.69-11.28,8.43-12.37
						l201.72-38.15c5.74-1.09,11.28,2.69,12.37,8.43l50.66,267.89c1.09,5.74-2.69,11.28-8.43,12.37L77.53,469.9z"/>
				</g>
				<g>
					<path fill="#B4BDC5" d="M78.9,462.91c-3.57,0.68-7.05-1.7-7.73-5.27L21.38,194.3c-0.68-3.57,1.7-7.05,5.27-7.73l196.52-37.16
						c3.57-0.68,7.05,1.7,7.73,5.27l49.8,263.34c0.68,3.57-1.7,7.05-5.27,7.73L78.9,462.91z"/>
				</g>
				<g>
					<g>
						<g>
							
								<rect x="41.47" y="212.16" transform="matrix(0.9826 -0.1858 0.1858 0.9826 -38.3173 22.0901)" fill="#8C98A3" width="114.44" height="6.61"/>
						</g>
						<g>
							
								<rect x="75.54" y="395.01" transform="matrix(0.9826 -0.1858 0.1858 0.9826 -72.2065 26.1945)" fill="#8C98A3" width="56.22" height="6.61"/>
						</g>
						<g>
							
								<rect x="79.47" y="415.81" transform="matrix(0.9826 -0.1858 0.1858 0.9826 -76.0027 27.2875)" fill="#8C98A3" width="56.22" height="6.61"/>
						</g>
						<g>
							
								<rect x="45.13" y="228.09" transform="matrix(0.9826 -0.1858 0.1858 0.9826 -40.574 29.8687)" fill="#8C98A3" width="187.87" height="6.61"/>
						</g>
						<g>
							
								<rect x="49.26" y="250.2" transform="matrix(0.9826 -0.1858 0.1858 0.9826 -44.6096 31.0223)" fill="#8C98A3" width="187.87" height="6.61"/>
						</g>
						<g>
							
								<rect x="53.4" y="272.3" transform="matrix(0.9826 -0.1858 0.1858 0.9826 -48.6452 32.176)" fill="#8C98A3" width="187.87" height="6.61"/>
						</g>
						<g>
							
								<rect x="59.75" y="305.43" transform="matrix(0.9826 -0.1858 0.1858 0.9826 -54.691 33.9334)" fill="#8C98A3" width="187.87" height="6.61"/>
						</g>
						<g>
							
								<rect x="63.89" y="327.54" transform="matrix(0.9826 -0.1858 0.1858 0.9826 -58.7266 35.087)" fill="#8C98A3" width="187.87" height="6.61"/>
						</g>
						<g>
							
								<rect x="68.03" y="349.65" transform="matrix(0.9826 -0.1858 0.1858 0.9826 -62.7622 36.2406)" fill="#8C98A3" width="187.87" height="6.61"/>
						</g>
					</g>
				</g>
			</g>
			<polygon fill="#4B5D6F" points="167.57,388.39 15.7,325.21 48.33,497.77 321,446.2 288.37,273.65 			"/>
			<g>
				<polyline fill="#4B5D6F" points="42.79,468.47 165.42,376.99 315.46,416.9 				"/>
				<path fill="#23394F" d="M42.79,468.47c38.07-29.15,83.75-63.42,122.13-92.14c0,0,0.32-0.24,0.32-0.24s0.39,0.1,0.39,0.1
					c22.05,5.99,53.24,14.17,74.97,20.13c18.63,5.05,56.26,15.37,74.86,20.58c-18.81-4.74-56.44-14.44-75.19-19.34
					c-21.68-5.67-53.08-13.96-75.07-19.78c0,0,0.71-0.14,0.71-0.14C127.45,406.26,81.56,440.29,42.79,468.47L42.79,468.47z"/>
			</g>
		</g>
	</g>
</g>
</svg>
