<?xml version="1.0" standalone="no"?>
<!DOCTYPE svg PUBLIC "-//W3C//DTD SVG 20010904//EN"
 "http://www.w3.org/TR/2001/REC-SVG-20010904/DTD/svg10.dtd">
<svg version="1.0" xmlns="http://www.w3.org/2000/svg"
 width="512.000000pt" height="512.000000pt" viewBox="0 0 512.000000 512.000000"
 preserveAspectRatio="xMidYMid meet">

<g transform="translate(0.000000,512.000000) scale(0.100000,-0.100000)"
fill="#7894B0" stroke="none">
<path d="M3386 5058 c-120 -23 -262 -121 -322 -224 -14 -23 -65 -151 -113
-284 -49 -133 -92 -244 -94 -246 -6 -6 20 -17 -613 252 -514 218 -522 220
-617 192 -21 -6 -59 -30 -83 -52 -39 -36 -55 -67 -128 -236 l-83 -195 -230 -5
-230 -5 -49 -30 c-30 -19 -60 -49 -79 -79 l-30 -49 -5 -661 -5 -661 -244 -570
c-269 -628 -274 -643 -236 -742 32 -83 70 -110 288 -202 l197 -83 0 -221 c0
-250 5 -273 80 -341 73 -66 72 -66 772 -66 l628 0 568 -241 c312 -132 590
-246 617 -251 73 -16 150 8 207 65 36 37 56 75 123 235 l80 192 201 0 c230 0
282 10 344 66 21 19 48 54 59 78 21 41 21 57 21 684 l0 643 250 589 c236 557
250 593 250 652 0 76 -26 135 -80 180 -21 18 -121 68 -226 113 l-189 81 -5
230 -5 231 -30 49 c-19 30 -49 60 -79 79 l-49 30 -184 3 c-168 3 -184 5 -178
20 4 9 22 63 41 118 42 126 47 237 13 336 -78 233 -314 372 -553 326z m184
-164 c143 -42 234 -163 233 -309 -1 -56 -9 -93 -42 -185 -23 -63 -45 -121 -50
-128 -5 -9 -25 -12 -59 -10 l-50 3 34 90 c42 109 47 180 16 240 -23 46 -63 86
-109 109 -43 22 -137 20 -189 -3 -67 -31 -96 -77 -165 -267 l-64 -174 -52 0
c-29 0 -53 4 -53 10 0 22 165 458 185 490 76 120 226 175 365 134z m-1441
-461 l395 -168 -503 -3 c-277 -1 -506 0 -509 2 -8 9 120 301 140 319 11 9 34
17 51 17 18 0 201 -72 426 -167z m1366 112 c14 -13 25 -30 25 -37 0 -7 -20
-65 -44 -128 l-44 -115 -66 -3 c-36 -2 -66 1 -66 6 0 10 55 166 85 240 26 63
70 78 110 37z m-435 -453 c0 -4 -30 -89 -66 -188 -60 -162 -66 -186 -66 -256
-1 -65 4 -86 30 -141 37 -80 96 -141 171 -176 48 -22 69 -26 151 -26 76 0 104
5 142 22 56 26 136 98 162 146 10 19 67 167 126 329 l108 293 194 3 194 2 25
-26 24 -26 3 -1624 c2 -1772 5 -1682 -53 -1704 -36 -14 -3254 -14 -3290 0 -58
22 -55 -68 -53 1704 l3 1624 24 26 24 26 1074 0 c590 0 1073 -4 1073 -8z m289
-44 c-62 -157 -99 -263 -99 -285 0 -31 42 -73 74 -73 48 0 72 37 144 225 l69
180 58 3 c52 3 57 1 50 -15 -4 -10 -49 -132 -100 -272 -52 -140 -102 -266
-113 -280 -47 -63 -157 -90 -235 -57 -70 29 -127 130 -113 200 3 17 39 120 78
229 l73 197 67 0 68 0 -21 -52z m1195 -639 c175 -74 192 -84 204 -119 6 -17 8
-38 5 -48 -16 -48 -327 -778 -334 -787 -5 -5 -9 213 -9 498 0 279 3 507 6 507
3 0 61 -23 128 -51z m-3834 -1544 c0 -394 -3 -505 -12 -505 -23 0 -283 113
-305 133 -45 40 -42 47 128 450 180 425 181 427 186 427 1 0 3 -227 3 -505z
m2900 -1321 c0 -3 -27 -69 -60 -147 -61 -143 -92 -187 -132 -187 -17 0 -794
323 -807 336 -2 2 221 4 497 4 276 0 502 -3 502 -6z"/>
</g>
</svg>
