<?xml version="1.0" encoding="utf-8"?>
<svg version="1.1" xmlns="http://www.w3.org/2000/svg" xmlns:xlink="http://www.w3.org/1999/xlink" x="0px" y="0px" width="130px"
	 height="130px" viewBox="0 0 130 130" enable-background="new 0 0 130 130" xml:space="preserve">
	  <style><![CDATA[
#Arrow {animation: animation_uno_forward 2000ms linear infinite normal forwards}

@keyframes animation_uno_forward { 
0% {  
	transform-box: fill-box; transform-origin: center; transform: rotate(0deg)
	} 
		100% {  transform-box: fill-box; transform-origin: center; transform: rotate(360deg)
		}
} 

]]></style>
<g id="Cog">
	<g>
		<path fill="#B4BDC5" d="M46.2,62.33C46.07,63.2,46,64.09,46,65c0,0.91,0.07,1.8,0.2,2.67l2.67,0.31c0.16,0.86,0.38,1.7,0.67,2.51
			l-2.16,1.6c0.32,0.82,0.71,1.63,1.16,2.41c0.45,0.79,0.96,1.52,1.51,2.21l2.47-1.07c0.56,0.66,1.18,1.27,1.84,1.84l-1.07,2.47
			c0.69,0.55,1.43,1.06,2.21,1.51c0.79,0.45,1.59,0.84,2.41,1.16l1.6-2.16c0.81,0.29,1.65,0.51,2.51,0.67l0.31,2.67
			C63.2,83.93,64.09,84,65,84s1.8-0.07,2.67-0.2l0.31-2.67c0.86-0.16,1.7-0.38,2.51-0.67l1.6,2.16c0.82-0.32,1.63-0.71,2.41-1.16
			c0.79-0.45,1.52-0.96,2.21-1.51l-1.07-2.47c0.66-0.56,1.27-1.18,1.84-1.84l2.47,1.07c0.55-0.69,1.06-1.43,1.51-2.21
			c0.45-0.79,0.84-1.59,1.16-2.41l-2.16-1.6c0.29-0.81,0.51-1.65,0.67-2.51l2.67-0.31C83.93,66.8,84,65.91,84,65
			c0-0.91-0.07-1.8-0.2-2.67l-2.67-0.31c-0.16-0.86-0.38-1.7-0.67-2.51l2.16-1.6c-0.32-0.82-0.71-1.63-1.16-2.41
			c-0.45-0.79-0.96-1.52-1.51-2.21l-2.47,1.07c-0.56-0.66-1.18-1.27-1.84-1.84l1.07-2.47c-0.69-0.55-1.43-1.06-2.21-1.51
			c-0.79-0.45-1.59-0.84-2.41-1.16l-1.6,2.16c-0.81-0.29-1.65-0.51-2.51-0.67l-0.31-2.67C66.8,46.07,65.91,46,65,46
			s-1.8,0.07-2.67,0.2l-0.31,2.67c-0.86,0.16-1.7,0.38-2.51,0.67l-1.6-2.16c-0.82,0.32-1.63,0.71-2.41,1.16
			c-0.79,0.45-1.52,0.96-2.21,1.51l1.07,2.47c-0.66,0.56-1.27,1.18-1.84,1.84l-2.47-1.07c-0.55,0.69-1.06,1.43-1.51,2.21
			c-0.45,0.79-0.84,1.59-1.16,2.41l2.16,1.6c-0.29,0.81-0.51,1.65-0.67,2.51L46.2,62.33z M65,56.31c4.8,0,8.69,3.89,8.69,8.69
			c0,4.8-3.89,8.69-8.69,8.69S56.31,69.8,56.31,65C56.31,60.2,60.2,56.31,65,56.31z"/>
	</g>
</g>
<g id="Arrow">
	<g>
		<g>
			<path fill="#6B7A89" d="M119.38,61.68c-0.89-14.52-7.37-27.83-18.27-37.48c-10.9-9.64-24.9-14.47-39.42-13.58
				C47.16,11.51,33.85,18,24.21,28.89l15.65,13.85c5.94-6.72,14.15-10.71,23.1-11.26c8.95-0.55,17.58,2.43,24.3,8.37
				c13.86,12.27,15.16,33.53,2.89,47.39c-7.84,8.85-19.58,12.84-30.97,10.82l3.49-9.44l-48.1,4.15l33.84,34.43l3.45-9.34
				c19.61,4.89,40.38-1.45,53.94-16.77C115.44,90.21,120.26,76.21,119.38,61.68z"/>
			<g>
				<g>
					<path fill="none" d="M82.38,13.36l-6.66,19.81c-12.82-4.31-26.9-0.55-35.86,9.58c-12.27,13.86-10.97,35.12,2.89,47.39
						c6.72,5.94,15.34,8.92,24.3,8.37c8.95-0.55,17.15-4.54,23.1-11.26l15.65,13.85c-9.64,10.9-22.95,17.39-37.48,18.27
						c-14.52,0.89-28.52-3.94-39.42-13.58C18,96.15,11.51,82.84,10.62,68.32C9.74,53.79,14.56,39.79,24.21,28.9
						C38.75,12.46,61.58,6.37,82.38,13.36z"/>
				</g>
				<g>
					<polygon fill="none" points="115.44,37.22 81.6,2.79 67.34,41.37 					"/>
				</g>
			</g>
		</g>
	</g>
</g>
</svg>
