<?xml version="1.0" standalone="no"?>
<!DOCTYPE svg PUBLIC "-//W3C//DTD SVG 20010904//EN"
 "http://www.w3.org/TR/2001/REC-SVG-20010904/DTD/svg10.dtd">
<svg version="1.0" xmlns="http://www.w3.org/2000/svg"
 width="512.000000pt" height="512.000000pt" viewBox="0 0 512.000000 512.000000"
 preserveAspectRatio="xMidYMid meet">

<g transform="translate(0.000000,512.000000) scale(0.100000,-0.100000)"
fill="#7894B0" stroke="none">
<path d="M1327 5086 c-94 -34 -159 -104 -184 -198 -17 -68 -19 -1047 -2 -1097
11 -31 52 -61 84 -61 32 0 73 30 84 61 7 22 11 197 11 550 l0 518 24 28 24 28
1772 0 1772 0 29 -33 29 -32 0 -1885 0 -1885 -347 0 c-345 0 -348 0 -399 -24
-60 -28 -113 -78 -140 -132 -18 -36 -19 -66 -22 -396 l-3 -358 -520 0 -521 0
-29 -29 c-35 -35 -38 -77 -8 -115 l20 -26 642 0 642 0 417 417 418 418 0 2063
0 2063 -53 53 c-94 94 90 86 -1926 86 -1468 -1 -1783 -3 -1814 -14z m3263
-4531 l-345 -345 -3 311 c-2 337 -1 348 51 369 12 5 161 9 332 9 l310 1 -345
-345z"/>
<path d="M3425 4626 c-318 -73 -563 -310 -646 -622 -29 -112 -30 -298 0 -409
81 -306 310 -535 616 -616 112 -30 298 -30 410 0 309 82 543 321 616 626 18
76 20 112 17 225 -4 119 -8 146 -37 230 -44 131 -110 237 -207 334 -96 97
-202 162 -335 207 -85 29 -108 33 -234 35 -94 3 -160 -1 -200 -10z m320 -181
c181 -38 360 -177 443 -346 98 -198 96 -419 -5 -612 -57 -108 -174 -222 -283
-276 -125 -60 -191 -74 -330 -69 -97 4 -128 10 -197 36 -105 39 -176 86 -255
171 -115 121 -168 245 -176 412 -6 134 13 227 70 342 80 161 254 297 433 341
78 19 212 19 300 1z"/>
<path d="M3934 4087 c-12 -7 -97 -102 -188 -212 -92 -110 -170 -201 -174 -203
-5 -1 -57 47 -116 108 -59 61 -119 113 -133 116 -62 16 -127 -58 -104 -117 5
-13 78 -95 163 -182 144 -148 155 -158 190 -157 27 0 46 8 67 28 49 44 412
485 422 511 30 76 -56 149 -127 108z"/>
<path d="M1251 3515 c-179 -39 -347 -171 -423 -331 -79 -168 -73 -370 22 -694
100 -341 120 -418 143 -530 29 -138 57 -364 57 -451 l0 -56 -83 -5 c-180 -12
-274 -108 -286 -293 l-6 -90 -205 -5 c-193 -5 -208 -6 -254 -30 -65 -33 -139
-117 -167 -188 -19 -49 -23 -82 -27 -230 -6 -234 7 -262 120 -262 l58 0 0
-117 c0 -105 3 -122 23 -156 13 -21 36 -47 53 -57 28 -19 57 -20 1123 -20
l1094 0 33 25 c52 40 59 59 64 195 l5 125 63 5 c55 4 67 9 89 34 l25 29 -4
191 c-3 190 -3 191 -35 258 -37 78 -91 135 -159 169 -46 22 -61 24 -240 27
l-191 3 -5 82 c-7 106 -35 172 -98 231 -58 54 -123 76 -228 76 l-74 0 7 88
c19 264 58 467 142 757 116 395 140 526 130 684 -23 362 -388 617 -766 536z
m257 -180 c154 -37 269 -142 313 -287 36 -118 18 -263 -68 -558 -118 -401
-153 -590 -179 -947 l-7 -93 -173 0 -174 0 0 63 c0 77 -25 310 -46 437 -22
136 -65 309 -123 505 -132 445 -125 628 32 772 113 104 271 144 425 108z m417
-2101 c17 -19 25 -42 30 -89 4 -35 4 -68 0 -74 -4 -8 -99 -11 -296 -11 l-290
0 -24 -25 c-38 -37 -35 -95 6 -129 l31 -26 547 0 548 0 33 -22 c57 -39 74 -87
78 -215 l4 -113 -1191 0 -1191 0 0 117 c0 106 2 120 25 158 43 75 44 75 465
75 l372 0 29 29 c38 38 40 91 4 126 -23 24 -31 25 -136 25 l-111 0 4 74 c3 62
7 79 27 100 l24 26 494 0 494 0 24 -26z m485 -974 l0 -90 -1015 0 -1015 0 0
90 0 90 1015 0 1015 0 0 -90z"/>
<path d="M2840 2633 c-38 -14 -60 -47 -60 -89 0 -35 5 -47 31 -68 41 -35 83
-34 120 3 47 48 38 116 -21 146 -30 16 -45 17 -70 8z"/>
<path d="M3166 2599 c-14 -17 -26 -39 -26 -50 0 -33 28 -76 57 -88 21 -8 205
-11 691 -9 l664 3 24 28 c32 38 32 90 -1 122 l-24 25 -680 0 -679 0 -26 -31z"/>
<path d="M2259 2151 c-52 -52 -34 -128 35 -151 93 -30 160 91 85 154 -41 35
-83 34 -120 -3z"/>
<path d="M2631 2154 c-41 -34 -44 -92 -6 -129 l24 -25 951 0 951 0 24 25 c38
37 35 95 -6 129 l-31 26 -938 0 -938 0 -31 -26z"/>
<path d="M2805 1695 c-35 -34 -35 -96 0 -130 37 -38 95 -35 129 6 35 41 35 88
0 123 -36 35 -95 36 -129 1z"/>
<path d="M3173 1696 c-22 -19 -28 -32 -28 -66 0 -34 6 -47 28 -66 l28 -24 665
0 c684 0 691 0 721 39 22 28 16 89 -12 116 l-24 25 -675 0 -675 0 -28 -24z"/>
</g>
</svg>
