<?xml version="1.0" encoding="utf-8"?>
<!-- Generator: Adobe Illustrator 28.1.0, SVG Export Plug-In . SVG Version: 6.00 Build 0)  -->
<svg version="1.1" xmlns="http://www.w3.org/2000/svg" xmlns:xlink="http://www.w3.org/1999/xlink" x="0px" y="0px" width="560px"
	 height="560px" viewBox="0 0 560 560" enable-background="new 0 0 560 560" xml:space="preserve">
<g id="Layer_1">
</g>
<g id="Layer_2">
	<rect fill="none" width="560" height="560"/>
	<g>
		<path fill="#23394F" d="M484.8,532.05H144.45c-8.84,0-16-7.16-16-16V72.89c0-8.84,7.16-16,16-16H484.8c8.84,0,16,7.16,16,16
			v443.16C500.8,524.88,493.64,532.05,484.8,532.05z"/>
		<g>
			<path fill="#556677" d="M159.45,509.05c-8.84,0-16-7.16-16-16V80.89c0-8.84,7.16-16,16-16H469.8c8.84,0,16,7.16,16,16v412.16
				c0,8.84-7.16,16-16,16H159.45z"/>
		</g>
		<g>
			<path fill="#B4BDC5" d="M163.45,499.05c-5.5,0-10-4.5-10-10V83.89c0-5.5,4.5-10,10-10H465.8c5.5,0,10,4.5,10,10v405.16
				c0,5.5-4.5,10-10,10H163.45z"/>
		</g>
		<path fill="#23394F" d="M365.03,54.99v25.14c0,3.11-2.52,5.63-5.63,5.63H258.95c-3.11,0-5.63-2.52-5.63-5.63V54.99
			c0-3.11,2.52-5.63,5.63-5.63h29.02c-0.1-5.83-0.14-13.45-0.14-14.31c0-12.15,9.85-22,22-22s22,9.85,22,22
			c0,1.16-0.09,8.32-0.26,14.31h27.82C362.5,49.36,365.03,51.88,365.03,54.99z M309.83,24.05c-5.52,0-10,4.48-10,10s4.48,10,10,10
			c5.52,0,10-4.48,10-10S315.36,24.05,309.83,24.05z"/>
		<g>
			<g>
				<rect x="178.84" y="113.2" fill="#FFFFFF" width="87.6" height="87.6"/>
			</g>
			<g>
				<g>
					<rect x="324.83" y="285.7" fill="#95A0AB" width="33.61" height="33.61"/>
				</g>
			</g>
			<g>
				<rect x="286.84" y="113.2" fill="#FFFFFF" width="173" height="10"/>
			</g>
			<g>
				<rect x="286.85" y="138.05" fill="#FFFFFF" width="173" height="10"/>
			</g>
			<g>
				<rect x="286.86" y="162.89" fill="#FFFFFF" width="173" height="10"/>
			</g>
			<g>
				<rect x="175.83" y="227.05" fill="#FFFFFF" width="284.01" height="10"/>
			</g>
			<g>
				<rect x="175.77" y="253.05" fill="#FFFFFF" width="284.01" height="10"/>
			</g>
			<g>
				<rect x="175.77" y="343.05" fill="#FFFFFF" width="284.01" height="10"/>
			</g>
			<g>
				<rect x="175.77" y="379.05" fill="#FFFFFF" width="284.01" height="10"/>
			</g>
			<g>
				<rect x="175.77" y="415.05" fill="#FFFFFF" width="284.01" height="10"/>
			</g>
			<g>
				<rect x="175.77" y="451.05" fill="#FFFFFF" width="284.01" height="10"/>
			</g>
			<g>
				<rect x="378.83" y="298.05" fill="#FFFFFF" width="80.95" height="10"/>
			</g>
			<g>
				<g>
					<rect x="175.77" y="285.7" fill="#95A0AB" width="33.61" height="33.61"/>
				</g>
			</g>
			<g>
				<rect x="229.77" y="298.05" fill="#FFFFFF" width="80.95" height="10"/>
			</g>
		</g>
		<g>
			<path fill="#556677" d="M531.65,509.42c-5.53-2.75-11.94-2.08-17.19,1.19l-94.15-46.8l-10.12,20.36l94.25,46.85
				c0.62,6.07,3.93,11.5,9.4,14.22c8.9,4.42,20.1-0.01,25.02-9.9C543.78,525.45,540.55,513.84,531.65,509.42z"/>
			<path fill="#6B7A89" d="M503.05,517.53c-5.87,11.81-16.49,22.03-72.49-5.81c-10.63-5.29-287.99-158.64-282.11-170.46
				c5.87-11.81,295.46,116.93,306.1,122.21C510.54,491.32,508.92,505.72,503.05,517.53z"/>
			
				<rect x="131.49" y="335.35" transform="matrix(0.8955 0.4451 -0.4451 0.8955 181.6853 -47.9746)" fill="#23394F" width="123" height="55"/>
			<path fill="#6B7A89" d="M194.81,472.64c-2.45,4.93-8.7,7.48-13.9,5.67c0,0-19.56-6.8-39.5-16.71
				c-19.94-9.91-39.39-22.61-39.39-22.61c-4.61-3.01-6.37-9.5-3.92-14.42l82.35-165.66c2.45-4.93,8.69-7.45,13.88-5.62
				c0,0,20.77,7.34,41.46,17.63c20.69,10.28,37.52,21.55,37.52,21.55c4.57,3.06,6.31,9.59,3.86,14.52L194.81,472.64z"/>
			<g>
				
					<rect x="163.01" y="293.11" transform="matrix(0.8955 0.4451 -0.4451 0.8955 156.0199 -67.1635)" fill="#23394F" width="116" height="11"/>
				
					<rect x="213.57" y="241.48" transform="matrix(0.4451 -0.8955 0.8955 0.4451 -141.092 363.2622)" fill="#23394F" width="18" height="108"/>
				
					<rect x="163.01" y="295.11" transform="matrix(0.8955 0.4451 -0.4451 0.8955 156.0199 -67.1635)" fill="#4B5D6F" width="116" height="7"/>
			</g>
			<g>
				
					<rect x="143.24" y="382.96" transform="matrix(0.4451 -0.8955 0.8955 0.4451 -306.8116 378.7922)" fill="#23394F" width="18" height="108"/>
				
					<rect x="95.8" y="428.33" transform="matrix(0.8955 0.4451 -0.4451 0.8955 209.1814 -23.1121)" fill="#23394F" width="116" height="11"/>
				
					<rect x="95.8" y="430.33" transform="matrix(0.8955 0.4451 -0.4451 0.8955 209.1814 -23.1121)" fill="#4B5D6F" width="116" height="7"/>
			</g>
		</g>
		<rect x="24.22" y="507.05" fill="#23394F" width="262.24" height="31"/>
		<path fill="#6B7A89" d="M290.83,533.05h-270c-1.1,0-2-0.9-2-2v-19c0-1.1,0.9-2,2-2h269c1.1,0,2,0.9,2,2v20
			C291.83,532.6,291.39,533.05,290.83,533.05z"/>
		<rect x="18.83" y="475.05" fill="#23394F" width="273" height="32"/>
		<path fill="#6B7A89" d="M290.83,507.05h-270c-1.1,0-2-0.9-2-2v-19c0-1.1,0.9-2,2-2h269c1.1,0,2,0.9,2,2v20
			C291.83,506.6,291.39,507.05,290.83,507.05z"/>
	</g>
</g>
</svg>
