<?xml version="1.0" encoding="UTF-8"?>
<svg id="Layer_1" data-name="Layer 1" xmlns="http://www.w3.org/2000/svg" width="560" height="560" version="1.1" viewBox="0 0 560 560">
  <defs>
    <style>
      .cls-1, .cls-2, .cls-3, .cls-4, .cls-5, .cls-6, .cls-7 {
        stroke-width: 0px;
      }

      .cls-1, .cls-8 {
        fill: none;
      }

      .cls-2 {
        fill: #23394f;
      }

      .cls-3 {
        fill: #b4bdc5;
      }

      .cls-4 {
        fill: #d5d9dd;
      }

      .cls-5 {
        fill: #00142b;
      }

      .cls-8 {
        stroke: #566777;
        stroke-miterlimit: 10;
        stroke-width: 14px;
      }

      .cls-6 {
        fill: #fff;
      }

      .cls-7 {
        fill: #567;
      }
    </style>
  </defs>
  <g>
    <rect class="cls-2" x="93.8" y="42.4" width="372.4" height="475.2" rx="16" ry="16"/>
    <rect class="cls-7" x="108.8" y="50.4" width="342.4" height="444.2" rx="16" ry="16"/>
    <rect class="cls-3" x="118.8" y="59.4" width="322.4" height="425.2" rx="10" ry="10"/>
    <rect class="cls-4" x="226.2" y="324.7" width="199" height="10"/>
    <rect class="cls-4" x="226.2" y="349.6" width="199" height="10"/>
    <rect class="cls-6" x="144.5" y="328.3" width="57" height="57"/>
    <polyline class="cls-8" points="159.9 347.6 181.7 369.4 233 318.1"/>
    <g>
      <path class="cls-5" d="M152.8,89.2v24.9h-6v-24.9h6Z"/>
      <path class="cls-5" d="M179,114.1h-6l-10.1-15.3v15.3h-6v-24.9h6l10.1,15.4v-15.4h6v24.9Z"/>
      <path class="cls-5" d="M201.1,89.2v4.8h-6.8v20.1h-6.1v-20.1h-6.7v-4.8h19.5Z"/>
      <path class="cls-5" d="M209.6,94v5.2h8.4v4.5h-8.4v5.5h9.5v4.8h-15.5v-24.9h15.5v4.8h-9.5Z"/>
      <path class="cls-5" d="M235.3,114.1l-5.4-9.4h-1.4v9.4h-6v-24.9h10.3c2,0,3.6.3,5,1,1.4.7,2.4,1.6,3.1,2.8.7,1.2,1,2.5,1,4.1s-.5,3.3-1.5,4.6c-1,1.3-2.4,2.1-4.3,2.6l5.9,9.8h-6.7ZM228.6,100.6h3.7c1.2,0,2.1-.3,2.6-.8s.8-1.3.8-2.3-.3-1.8-.9-2.3c-.6-.6-1.5-.8-2.6-.8h-3.7v6.3Z"/>
      <path class="cls-5" d="M267.1,114.1h-6l-10.1-15.3v15.3h-6v-24.9h6l10.1,15.4v-15.4h6v24.9Z"/>
      <path class="cls-5" d="M286.6,109.5h-9.3l-1.5,4.5h-6.3l9.1-24.7h6.9l9.1,24.7h-6.4l-1.5-4.5ZM285.1,105l-3.1-9.2-3.1,9.2h6.2Z"/>
      <path class="cls-5" d="M302.9,109.5h8v4.6h-14.1v-24.9h6v20.3Z"/>
      <path class="cls-5" d="M336.2,109.5h-9.3l-1.5,4.5h-6.3l9.1-24.7h6.9l9.1,24.7h-6.4l-1.5-4.5ZM334.7,105l-3.1-9.2-3.1,9.2h6.2Z"/>
      <path class="cls-5" d="M352.4,89.2v14.4c0,1.6.4,2.9,1.1,3.8.7.9,1.8,1.3,3.2,1.3s2.5-.4,3.2-1.3c.7-.9,1.1-2.1,1.1-3.8v-14.4h6v14.4c0,2.3-.5,4.3-1.4,5.9-.9,1.6-2.2,2.8-3.8,3.6-1.6.8-3.4,1.2-5.4,1.2s-3.8-.4-5.3-1.2c-1.5-.8-2.7-2-3.6-3.6-.9-1.6-1.3-3.6-1.3-6v-14.4h6Z"/>
      <path class="cls-5" d="M391.9,108.1c-1,1.9-2.5,3.4-4.5,4.4-2,1.1-4.3,1.6-6.9,1.6h-9.4v-24.9h9.4c2.7,0,5,.5,6.9,1.5,1.9,1,3.4,2.5,4.5,4.4,1,1.9,1.6,4,1.6,6.5s-.5,4.6-1.6,6.5ZM385.4,106.8c1.3-1.2,2-3,2-5.2s-.7-4-2-5.2c-1.3-1.2-3.1-1.9-5.5-1.9h-2.9v14.2h2.9c2.3,0,4.2-.6,5.5-1.9Z"/>
      <path class="cls-5" d="M402.9,89.2v24.9h-6v-24.9h6Z"/>
      <path class="cls-5" d="M424.9,89.2v4.8h-6.8v20.1h-6.1v-20.1h-6.7v-4.8h19.5Z"/>
    </g>
    <rect class="cls-6" x="141.3" y="417.5" width="284" height="10"/>
    <rect class="cls-6" x="141.3" y="439.5" width="284" height="10"/>
    <rect class="cls-6" x="144.2" y="154.7" width="57" height="57"/>
    <rect class="cls-4" x="226.2" y="154.7" width="199" height="10"/>
    <rect class="cls-4" x="226.2" y="179.6" width="199" height="10"/>
    <polyline class="cls-8" points="159.7 174 181.4 195.8 232.7 144.6"/>
    <rect class="cls-6" x="144.2" y="239.7" width="57" height="57"/>
    <rect class="cls-4" x="226.2" y="239.7" width="199" height="10"/>
    <rect class="cls-4" x="226.2" y="264.6" width="199" height="10"/>
    <polyline class="cls-8" points="159.7 259 181.4 280.8 232.7 229.6"/>
  </g>
  <rect class="cls-1" width="560" height="560"/>
</svg>