<svg width="40" height="40" viewBox="0 0 40 40" fill="none" xmlns="http://www.w3.org/2000/svg">
<g clip-path="url(#clip0_11726_26494)">
<path d="M15.5482 15.8454C15.4664 15.8925 14.8875 16.5407 14.2677 17.2863C13.6416 18.0351 13.1099 18.6549 13.0848 18.6675C13.0501 18.6738 12.6978 18.3466 12.2951 17.9313C11.8923 17.516 11.4865 17.1636 11.3889 17.1416C10.9674 17.0315 10.5237 17.5349 10.6811 17.9376C10.7157 18.0257 11.2128 18.5825 11.7885 19.1772C12.767 20.184 12.8425 20.2532 13.0816 20.2437C13.2641 20.2437 13.3931 20.1903 13.5378 20.0518C13.8713 19.7529 16.3411 16.7515 16.4071 16.5753C16.6116 16.0593 16.0264 15.5622 15.5419 15.8391L15.5482 15.8454Z" fill="#7894B0"/>
<path d="M15.5482 21.4205C15.4664 21.4677 14.8875 22.1159 14.2677 22.8615C13.6416 23.6103 13.1099 24.2301 13.0848 24.2427C13.0501 24.249 12.6978 23.9218 12.2951 23.5065C11.8923 23.0912 11.4865 22.7388 11.3889 22.7168C10.9674 22.6067 10.5237 23.1101 10.6811 23.5128C10.7157 23.6009 11.2128 24.1577 11.7885 24.7524C12.767 25.7592 12.8425 25.8284 13.0816 25.8189C13.2641 25.8189 13.3931 25.7654 13.5378 25.627C13.8713 25.3281 16.3411 22.3267 16.4071 22.1505C16.6116 21.6345 16.0264 21.1374 15.5419 21.4143L15.5482 21.4205Z" fill="#7894B0"/>
<path d="M15.5482 26.9923C15.4664 27.0395 14.8875 27.6876 14.2677 28.4333C13.6416 29.1821 13.1099 29.8019 13.0848 29.8145C13.0501 29.8208 12.6978 29.4936 12.2951 29.0783C11.8923 28.663 11.4865 28.3106 11.3889 28.2886C10.9674 28.1784 10.5237 28.6818 10.6811 29.0845C10.7157 29.1726 11.2128 29.7295 11.7885 30.3241C12.767 31.3309 12.8425 31.4001 13.0816 31.3907C13.2641 31.3907 13.3931 31.3372 13.5378 31.1988C13.8713 30.8999 16.3411 27.8984 16.4071 27.7222C16.6116 27.2063 16.0264 26.7092 15.5419 26.986L15.5482 26.9923Z" fill="#7894B0"/>
<path d="M12.94 11.6296H11.2631L11.002 12.4162H9.62078L11.3512 7.70947H12.8677L14.5918 12.4162H13.2012L12.94 11.6296ZM12.6128 10.6417L12.1063 9.10639L11.5935 10.6417H12.616H12.6128Z" fill="#7894B0"/>
<path d="M16.2593 7.69043V10.3899C16.2593 10.6573 16.319 10.8618 16.4355 11.0065C16.5519 11.1513 16.7312 11.2236 16.9735 11.2236C17.2157 11.2236 17.395 11.1513 17.5177 11.0034C17.6404 10.8555 17.7002 10.651 17.7002 10.3899V7.69043H19.009V10.3899C19.009 10.8366 18.9178 11.2142 18.7385 11.5256C18.5591 11.8371 18.3106 12.0731 17.9991 12.2304C17.6876 12.3877 17.3353 12.4664 16.9451 12.4664C16.555 12.4664 16.2058 12.3877 15.9069 12.2335C15.6049 12.0762 15.372 11.8434 15.2021 11.5319C15.0322 11.2205 14.9473 10.8398 14.9473 10.3899V7.69043H16.2561H16.2593Z" fill="#7894B0"/>
<path d="M23.7472 11.2677C23.5459 11.6263 23.2627 11.9063 22.8915 12.1108C22.5234 12.3153 22.0892 12.4192 21.5889 12.4192H19.7044V7.69043H21.5889C22.086 7.69043 22.5234 7.79111 22.8946 7.98617C23.2659 8.18438 23.5522 8.46125 23.7504 8.81677C23.9486 9.17229 24.0461 9.5813 24.0461 10.0375C24.0461 10.4937 23.9454 10.9058 23.7441 11.2645L23.7472 11.2677ZM22.3849 10.9279C22.6083 10.7171 22.7184 10.4213 22.7184 10.0406C22.7184 9.65995 22.6083 9.36735 22.3849 9.15656C22.1615 8.94576 21.8564 8.83879 21.4694 8.83879H21.0226V11.2425H21.4694C21.8564 11.2425 22.1615 11.1387 22.3849 10.9279Z" fill="#7894B0"/>
<path d="M25.9496 7.69043V12.4192H24.6345V7.69043H25.9496Z" fill="#7894B0"/>
<path d="M30.2378 7.69043V8.73811H28.9636V12.4192H27.6548V8.73811H26.3932V7.69043H30.241H30.2378Z" fill="#7894B0"/>
<path d="M18.1533 15.8329C17.9928 16.0123 18.0086 16.3961 18.1784 16.5503C18.3106 16.6698 18.5025 16.6761 24.0461 16.6761C29.5897 16.6761 29.7816 16.6698 29.9138 16.5503C30.0931 16.3835 30.1057 15.9808 29.9327 15.8266C29.8194 15.7197 29.316 15.7134 24.0335 15.7134C18.7511 15.7134 18.254 15.7197 18.1533 15.8329Z" fill="#7894B0"/>
<path d="M18.1533 18.1547C17.9928 18.334 18.0086 18.7179 18.1784 18.872C18.3106 18.9916 18.5025 18.9979 24.0461 18.9979C29.5897 18.9979 29.7816 18.9916 29.9138 18.872C30.0931 18.7053 30.1057 18.3026 29.9327 18.1484C29.8194 18.0414 29.316 18.0352 24.0335 18.0352C18.7511 18.0352 18.254 18.0414 18.1533 18.1547Z" fill="#7894B0"/>
<path d="M18.1533 21.4584C17.9928 21.6378 18.0086 22.0216 18.1784 22.1758C18.3106 22.2953 18.5025 22.3016 24.0461 22.3016C29.5897 22.3016 29.7816 22.2953 29.9138 22.1758C30.0931 22.009 30.1057 21.6063 29.9327 21.4521C29.8194 21.3452 29.316 21.3389 24.0335 21.3389C18.7511 21.3389 18.254 21.3452 18.1533 21.4584Z" fill="#7894B0"/>
<path d="M18.1533 23.7831C17.9928 23.9625 18.0086 24.3463 18.1784 24.5005C18.3106 24.62 18.5025 24.6263 24.0461 24.6263C29.5897 24.6263 29.7816 24.62 29.9138 24.5005C30.0931 24.3337 30.1057 23.931 29.9327 23.7768C29.8194 23.6699 29.316 23.6636 24.0335 23.6636C18.7511 23.6636 18.254 23.6699 18.1533 23.7831Z" fill="#7894B0"/>
<path d="M18.1533 27.0834C17.9928 27.2628 18.0086 27.6466 18.1784 27.8008C18.3106 27.9203 18.5025 27.9266 24.0461 27.9266C29.5897 27.9266 29.7816 27.9203 29.9138 27.8008C30.0931 27.634 30.1057 27.2313 29.9327 27.0771C29.8194 26.9702 29.316 26.9639 24.0335 26.9639C18.7511 26.9639 18.254 26.9702 18.1533 27.0834Z" fill="#7894B0"/>
<path d="M18.1533 29.4086C17.9928 29.588 18.0086 29.9718 18.1784 30.126C18.3106 30.2455 18.5025 30.2518 24.0461 30.2518C29.5897 30.2518 29.7816 30.2455 29.9138 30.126C30.0931 29.9592 30.1057 29.5565 29.9327 29.4023C29.8194 29.2954 29.316 29.2891 24.0335 29.2891C18.7511 29.2891 18.254 29.2954 18.1533 29.4086Z" fill="#7894B0"/>
<path d="M31.1188 36H8.75558C7.78655 36 7 35.2134 7 34.2444V5.75558C7 4.78655 7.78655 4 8.75558 4H31.1188C32.0878 4 32.8743 4.78655 32.8743 5.75558V34.2413C32.8743 35.2103 32.0878 35.9969 31.1188 35.9969V36ZM8.75558 5.25848C8.48186 5.25848 8.25848 5.48186 8.25848 5.75558V34.2413C8.25848 34.515 8.48186 34.7384 8.75558 34.7384H31.1188C31.3925 34.7384 31.6159 34.515 31.6159 34.2413V5.75558C31.6159 5.48186 31.3925 5.25848 31.1188 5.25848H8.75558Z" fill="#7993B0"/>
</g>
<defs>
<clipPath id="clip0_11726_26494">
<rect width="25.8743" height="32" fill="white" transform="translate(7 4)"/>
</clipPath>
</defs>
</svg>
