<?xml version="1.0" standalone="no"?>
<!DOCTYPE svg PUBLIC "-//W3C//DTD SVG 20010904//EN"
 "http://www.w3.org/TR/2001/REC-SVG-20010904/DTD/svg10.dtd">
<svg version="1.0" xmlns="http://www.w3.org/2000/svg"
 width="512.000000pt" height="512.000000pt" viewBox="0 0 512.000000 512.000000"
 preserveAspectRatio="xMidYMid meet">

<g transform="translate(0.000000,512.000000) scale(0.100000,-0.100000)"
fill="#7894B0" stroke="none">
<path d="M1245 5108 c-49 -27 -55 -45 -55 -190 l0 -138 -125 0 c-209 0 -225
-16 -225 -225 l0 -125 -137 0 c-147 0 -166 -6 -192 -57 -8 -16 -11 -552 -11
-1960 0 -1903 0 -1939 20 -1970 30 -51 61 -55 381 -51 266 3 288 4 308 22 14
13 21 31 21 57 0 67 -7 69 -312 69 l-268 0 0 1870 0 1870 1355 0 1355 0 0
-688 0 -689 -217 -134 c-119 -74 -220 -135 -225 -137 -4 -2 -8 12 -8 31 0 72
63 67 -907 67 -830 0 -871 -1 -886 -18 -24 -27 -22 -85 4 -108 20 -18 53 -19
865 -24 l844 -5 -158 -97 -159 -98 -285 0 c-263 0 -286 -1 -301 -18 -24 -27
-22 -85 4 -108 19 -17 41 -19 211 -22 164 -3 189 -6 184 -19 -3 -8 -6 -53 -6
-99 l0 -84 -593 0 c-563 0 -595 -1 -610 -18 -24 -27 -22 -85 4 -108 20 -18 47
-19 610 -22 l589 -3 0 -99 0 -100 -593 0 c-563 0 -595 -1 -610 -18 -24 -27
-22 -85 4 -108 20 -18 47 -19 610 -22 l589 -3 0 -99 0 -100 -593 0 c-563 0
-595 -1 -610 -18 -24 -27 -22 -85 4 -108 20 -18 47 -19 619 -22 l597 -3 21
-73 c31 -104 101 -240 167 -318 30 -38 101 -107 156 -155 l101 -88 -655 -5
c-534 -4 -657 -8 -670 -19 -25 -20 -22 -83 4 -107 20 -18 49 -19 763 -22 l741
-2 223 -190 c239 -203 260 -215 327 -189 36 14 679 556 819 689 193 185 286
415 286 709 0 104 -2 120 -20 139 -28 30 -82 30 -110 0 -18 -19 -20 -35 -20
-140 0 -244 -63 -414 -210 -569 -72 -76 -780 -681 -792 -677 -22 8 -777 660
-813 702 -58 69 -100 139 -131 222 -49 128 -53 184 -54 655 l0 436 123 75
c125 77 244 151 640 396 126 78 233 142 238 142 6 0 232 -138 504 -306 l495
-307 0 -176 c0 -165 1 -179 20 -199 28 -30 82 -30 110 0 19 20 20 34 20 216 0
158 -3 200 -16 228 -13 28 -53 57 -210 155 l-194 121 0 1249 c0 1057 -2 1255
-14 1284 -30 70 80 65 -1498 65 -1015 -1 -1429 -4 -1443 -12z m2805 -1313 c0
-646 -3 -1175 -7 -1174 -5 0 -48 26 -98 58 l-90 57 -5 526 c-4 425 -8 528 -19
541 -20 25 -83 22 -107 -4 -18 -20 -19 -45 -22 -494 l-3 -473 -94 57 -94 56
-1 703 c0 757 1 742 -52 770 -18 9 -302 13 -1243 15 l-1220 2 0 95 0 95 1352
3 1352 2 3 -279 c3 -258 4 -281 22 -300 13 -14 31 -21 57 -21 69 0 69 2 69
362 l0 318 -29 32 -29 33 -1226 3 -1226 2 0 95 0 95 1355 0 1355 0 0 -1175z"/>
<path d="M1457 3922 c-24 -27 -22 -85 4 -108 20 -18 44 -19 544 -19 500 0 524
1 544 19 27 25 29 86 3 109 -17 15 -69 17 -549 17 -501 0 -531 -1 -546 -18z"/>
<path d="M1117 3412 c-24 -27 -22 -85 4 -108 20 -18 49 -19 884 -19 835 0 864
1 884 19 27 25 29 86 3 109 -17 16 -93 17 -889 17 -830 0 -871 -1 -886 -18z"/>
<path d="M1117 3062 c-24 -27 -22 -85 4 -108 20 -18 49 -19 884 -19 835 0 864
1 884 19 27 25 29 86 3 109 -17 16 -93 17 -889 17 -830 0 -871 -1 -886 -18z"/>
<path d="M1117 2362 c-24 -27 -22 -85 4 -108 20 -18 40 -19 334 -19 294 0 314
1 334 19 27 25 29 86 3 109 -17 15 -55 17 -339 17 -297 0 -321 -1 -336 -18z"/>
<path d="M3335 2285 c-354 -78 -588 -401 -545 -751 21 -166 79 -283 200 -404
137 -138 285 -200 481 -200 194 0 340 60 480 200 64 64 95 105 126 165 119
232 105 486 -38 700 -152 227 -444 348 -704 290z m312 -168 c189 -65 326 -233
355 -434 22 -149 -30 -314 -133 -427 -214 -234 -573 -237 -789 -7 -95 101
-142 222 -142 362 0 150 50 274 154 378 67 66 166 123 254 146 85 21 211 14
301 -18z"/>
<path d="M3571 1685 l-126 -124 -76 74 c-85 84 -112 92 -154 50 -47 -46 -37
-69 88 -193 93 -93 117 -112 143 -112 25 0 54 24 192 163 177 178 186 194 137
242 -46 47 -66 37 -204 -100z"/>
</g>
</svg>
