<?xml version="1.0" encoding="utf-8"?>
<!-- Generator: Adobe Illustrator 28.1.0, SVG Export Plug-In . SVG Version: 6.00 Build 0)  -->
<svg version="1.1" xmlns="http://www.w3.org/2000/svg" xmlns:xlink="http://www.w3.org/1999/xlink" x="0px" y="0px" width="560px"
	 height="560px" viewBox="0 0 560 560" enable-background="new 0 0 560 560" xml:space="preserve">
<g id="Layer_1">
</g>
<g id="Layer_2">
	<rect fill="none" width="560" height="560"/>
	<g>
		<g>
			<rect x="46.55" y="44.34" fill="#556677" width="306.53" height="391.16"/>
			<rect x="65.57" y="76.63" fill="#1B3349" width="78.72" height="47.29"/>
			<rect x="155.6" y="76.63" fill="#1B3349" width="177.49" height="3.61"/>
			<rect x="155.6" y="91.19" fill="#1B3349" width="177.49" height="3.61"/>
			<rect x="155.6" y="105.75" fill="#1B3349" width="177.49" height="3.61"/>
			<rect x="155.6" y="120.31" fill="#1B3349" width="132.21" height="3.61"/>
			<rect x="155.6" y="142.88" fill="#B4BDC5" width="177.49" height="3.61"/>
			<rect x="155.6" y="157.44" fill="#B4BDC5" width="177.49" height="3.61"/>
			<rect x="155.6" y="172" fill="#B4BDC5" width="177.49" height="3.61"/>
			<rect x="155.6" y="186.56" fill="#B4BDC5" width="132.21" height="3.61"/>
			<rect x="65.57" y="142.88" fill="#B4BDC5" width="78.72" height="47.29"/>
			<g>
				<path fill="#A0ABB6" d="M58.96,60.25c0-3.3,2.67-5.97,5.97-5.97c3.3,0,5.97,2.67,5.97,5.97c0,3.3-2.67,5.97-5.97,5.97
					C61.64,66.22,58.96,63.55,58.96,60.25z"/>
				<path fill="#1B3349" d="M80.21,60.25c0-3.3,2.67-5.97,5.97-5.97c3.3,0,5.97,2.67,5.97,5.97c0,3.3-2.67,5.97-5.97,5.97
					C82.88,66.22,80.21,63.55,80.21,60.25z"/>
				<circle fill="#76C9EC" cx="107.42" cy="60.25" r="5.97"/>
			</g>
		</g>
		<rect x="418.94" y="29.5" fill="#556677" width="75" height="75"/>
		<rect x="194.94" y="13.5" fill="#556677" width="87" height="12"/>
		<rect x="484.69" y="168.25" fill="#556677" width="43.5" height="6"/>
		<rect x="1.94" y="269" fill="none" stroke="#556677" stroke-miterlimit="10" width="37.5" height="37.5"/>
		<g>
			<path fill="#0A233B" d="M460.55,104.98c0.26-1.68,0.39-3.4,0.39-5.16s-0.13-3.47-0.39-5.16l-5.15-0.59
				c-0.31-1.67-0.74-3.29-1.3-4.85l4.16-3.08c-0.62-1.58-1.37-3.14-2.24-4.66c-0.88-1.52-1.85-2.94-2.91-4.27l-4.76,2.07
				c-1.09-1.27-2.27-2.46-3.55-3.55l2.07-4.76c-1.33-1.06-2.75-2.04-4.27-2.91c-1.52-0.88-3.07-1.62-4.66-2.24l-3.08,4.16
				c-1.56-0.56-3.18-0.99-4.85-1.3l-0.59-5.15c-1.68-0.26-3.4-0.39-5.16-0.39s-3.47,0.13-5.16,0.39l-0.59,5.15
				c-1.67,0.31-3.29,0.74-4.85,1.3l-3.08-4.16c-1.58,0.62-3.14,1.37-4.66,2.24c-1.52,0.88-2.94,1.85-4.27,2.91l2.07,4.76
				c-1.27,1.09-2.46,2.27-3.55,3.55l-4.76-2.07c-1.06,1.33-2.04,2.75-2.91,4.27c-0.88,1.52-1.62,3.07-2.24,4.66l4.16,3.08
				c-0.56,1.56-0.99,3.18-1.3,4.85l-5.15,0.59c-0.26,1.68-0.39,3.4-0.39,5.16s0.13,3.47,0.39,5.16l5.15,0.59
				c0.31,1.67,0.74,3.29,1.3,4.85l-4.16,3.08c0.62,1.58,1.37,3.14,2.24,4.66c0.88,1.52,1.85,2.94,2.91,4.27l4.76-2.07
				c1.09,1.27,2.27,2.46,3.55,3.55l-2.07,4.76c1.33,1.06,2.75,2.04,4.27,2.91c1.52,0.88,3.07,1.62,4.66,2.24l3.08-4.16
				c1.56,0.56,3.18,0.99,4.85,1.3l0.59,5.15c1.68,0.26,3.4,0.39,5.16,0.39s3.47-0.13,5.16-0.39l0.59-5.15
				c1.67-0.31,3.29-0.74,4.85-1.3l3.08,4.16c1.58-0.62,3.14-1.37,4.66-2.24c1.52-0.88,2.94-1.85,4.27-2.91l-2.07-4.76
				c1.27-1.09,2.46-2.27,3.55-3.55l4.76,2.07c1.06-1.33,2.04-2.75,2.91-4.27c0.88-1.52,1.62-3.07,2.24-4.66l-4.16-3.08
				c0.56-1.56,0.99-3.18,1.3-4.85L460.55,104.98z M424.26,116.6c-9.27,0-16.78-7.51-16.78-16.78c0-9.27,7.51-16.78,16.78-16.78
				s16.78,7.51,16.78,16.78C441.04,109.09,433.53,116.6,424.26,116.6z"/>
		</g>
		<path fill="#23394F" d="M453.43,256.1c-2.78,6.06-8.46,9.88-14.63,10.57c-0.86,5.11-1.04,10.26-0.58,15.31
			c6.11,1.16,11.47,5.39,13.79,11.65c2.32,6.25,1,12.96-2.87,17.82c2.94,4.13,6.43,7.91,10.41,11.23c5.14-3.5,11.93-4.3,17.99-1.52
			c6.06,2.78,9.88,8.46,10.57,14.63c5.11,0.86,10.26,1.04,15.31,0.58c1.16-6.11,5.39-11.47,11.65-13.79
			c6.25-2.32,12.96-1,17.82,2.87c4.13-2.94,7.91-6.43,11.23-10.41c-3.5-5.14-4.3-11.93-1.52-17.99c2.78-6.06,8.46-9.88,14.63-10.57
			c0.86-5.11,1.04-10.26,0.58-15.31c-6.11-1.16-11.47-5.39-13.79-11.65c-2.32-6.25-1-12.96,2.87-17.82
			c-2.94-4.13-6.43-7.91-10.41-11.23c-5.14,3.5-11.93,4.3-17.99,1.52c-6.06-2.78-9.88-8.46-10.57-14.63
			c-5.11-0.86-10.26-1.04-15.31-0.58c-1.16,6.11-5.39,11.47-11.65,13.79c-6.25,2.32-12.96,1-17.82-2.87
			c-4.13,2.94-7.91,6.43-11.23,10.41C455.42,243.25,456.22,250.04,453.43,256.1z M511.55,247.12c16.27,7.47,23.4,26.72,15.93,42.99
			c-7.47,16.27-26.72,23.4-42.99,15.93c-16.27-7.47-23.4-26.72-15.93-42.99C476.03,246.78,495.28,239.64,511.55,247.12z"/>
		<g>
			<g>
				<rect x="179.17" y="210.16" fill="#FFFFFF" width="87.6" height="87.6"/>
			</g>
			<g>
				
					<rect x="220.89" y="214.95" transform="matrix(0.7071 -0.7071 0.7071 0.7071 -114.2742 232.0524)" fill="#BDC4CC" width="4.17" height="78.04"/>
				
					<rect x="220.89" y="214.95" transform="matrix(0.7071 0.7071 -0.7071 0.7071 244.8899 -83.2818)" fill="#BDC4CC" width="4.17" height="78.04"/>
			</g>
		</g>
		<g>
			<g>
				<rect x="65.57" y="210.16" fill="#FFFFFF" width="87.6" height="87.6"/>
			</g>
			<g>
				
					<rect x="107.29" y="214.95" transform="matrix(0.7071 -0.7071 0.7071 0.7071 -147.5466 151.7258)" fill="#BDC4CC" width="4.17" height="78.04"/>
				
					<rect x="107.29" y="214.95" transform="matrix(0.7071 0.7071 -0.7071 0.7071 211.6175 -2.9552)" fill="#BDC4CC" width="4.17" height="78.04"/>
			</g>
		</g>
		<g>
			<g>
				<rect x="179.17" y="315.16" fill="#FFFFFF" width="87.6" height="87.6"/>
			</g>
			<g>
				
					<rect x="220.89" y="319.95" transform="matrix(0.7071 -0.7071 0.7071 0.7071 -188.5204 262.8062)" fill="#BDC4CC" width="4.17" height="78.04"/>
				
					<rect x="220.89" y="319.95" transform="matrix(0.7071 0.7071 -0.7071 0.7071 319.1361 -52.528)" fill="#BDC4CC" width="4.17" height="78.04"/>
			</g>
		</g>
		<g>
			<g>
				<rect x="65.57" y="315.16" fill="#FFFFFF" width="87.6" height="87.6"/>
			</g>
			<g>
				
					<rect x="107.29" y="319.95" transform="matrix(0.7071 -0.7071 0.7071 0.7071 -221.7928 182.4796)" fill="#BDC4CC" width="4.17" height="78.04"/>
				
					<rect x="107.29" y="319.95" transform="matrix(0.7071 0.7071 -0.7071 0.7071 285.8637 27.7986)" fill="#BDC4CC" width="4.17" height="78.04"/>
			</g>
		</g>
		<g>
			<rect x="23.94" y="185.62" fill="#2E4358" width="53.4" height="49.66"/>
			<path fill="none" stroke="#2E4358" stroke-width="3.699" stroke-miterlimit="10" d="M32.77,196.67v-21.14
				c0-9.87,8-17.87,17.87-17.87h0c9.87,0,17.87,8,17.87,17.87v21.14"/>
			<g>
				<circle fill="#A0ABB6" cx="50.64" cy="207.88" r="3.75"/>
				<path fill="#A0ABB6" d="M50.64,220.88L50.64,220.88c-1.02,0-1.85-0.83-1.85-1.85v-10.12c0-1.02,0.83-1.85,1.85-1.85l0,0
					c1.02,0,1.85,0.83,1.85,1.85v10.12C52.49,220.05,51.66,220.88,50.64,220.88z"/>
			</g>
		</g>
		<g>
			<path fill="#6B7A89" d="M345.94,546.5c0,0,73.4-72.54,101.04-172.48c6.41-23.19,10.37-47.85,10.37-73.42
				c0-9.69-0.25-19.24-0.75-28.63c-35.83,0.59-72.83,0.9-110.66,0.9V546.5z"/>
			<path fill="#23394F" d="M345.94,272.87c-37.83,0-74.84-0.31-110.67-0.9c-0.5,9.39-0.75,18.94-0.75,28.63
				c0,60.18,21.88,115.3,46.24,158.04c30.62,53.71,65.17,87.86,65.17,87.86V272.87z"/>
		</g>
	</g>
</g>
</svg>
