<svg width="40" height="40" viewBox="0 0 40 40" fill="none" xmlns="http://www.w3.org/2000/svg">
<g clip-path="url(#clip0_11724_26494)">
<path d="M14.5437 29.4219C16.5098 29.4219 18.1101 31.0222 18.1101 32.9883V34.3874C18.1101 34.7532 17.8144 35.0488 17.4487 35.0488H5.6125C5.24672 35.0488 4.95104 34.7532 4.95104 34.3874V32.9883C4.95104 31.0222 6.55135 29.4219 8.51744 29.4219H8.88017C9.72757 29.7785 10.6176 29.9583 11.5321 29.9583C12.4466 29.9583 13.3397 29.7785 14.184 29.4219H14.5468M14.5437 28.4678H13.9829C13.236 28.8122 12.4069 29.0043 11.5321 29.0043C10.6573 29.0043 9.83121 28.8092 9.08135 28.4678H8.52048C6.02706 28.4678 4.00305 30.4918 4.00305 32.9852V34.3843C4.00305 35.2744 4.72548 35.9968 5.61555 35.9968H17.4487C18.3387 35.9968 19.0612 35.2744 19.0612 34.3843V32.9852C19.0612 30.4918 17.0372 28.4678 14.5437 28.4678Z" fill="#7993B0"/>
<path d="M11.5291 19.7381C13.3763 19.7381 14.879 21.2409 14.879 23.0881C14.879 24.9353 13.3763 26.4381 11.5291 26.4381C9.68186 26.4381 8.17909 24.9353 8.17909 23.0881C8.17909 21.2409 9.68186 19.7381 11.5291 19.7381ZM11.5291 18.7871C9.15147 18.7871 7.22501 20.7136 7.22501 23.0912C7.22501 25.4688 9.15147 27.3952 11.5291 27.3952C13.9067 27.3952 15.8331 25.4688 15.8331 23.0912C15.8331 20.7136 13.9067 18.7871 11.5291 18.7871Z" fill="#7993B0"/>
<path d="M30.5559 29.4219C32.522 29.4219 34.1223 31.0222 34.1223 32.9883V34.3874C34.1223 34.7532 33.8267 35.0488 33.4609 35.0488H21.6278C21.262 35.0488 20.9663 34.7532 20.9663 34.3874V32.9883C20.9663 31.0222 22.5666 29.4219 24.5327 29.4219H24.8954C25.7428 29.7785 26.6329 29.9583 27.5474 29.9583C28.4618 29.9583 29.3549 29.7785 30.1993 29.4219H30.562M30.5559 28.4678H29.9951C29.2483 28.8122 28.4191 29.0043 27.5443 29.0043C26.6695 29.0043 25.8434 28.8092 25.0936 28.4678H24.5327C22.0393 28.4678 20.0153 30.4918 20.0153 32.9852V34.3843C20.0153 35.2744 20.7377 35.9968 21.6278 35.9968H33.4609C34.3509 35.9968 35.0734 35.2744 35.0734 34.3843V32.9852C35.0734 30.4918 33.0494 28.4678 30.5559 28.4678Z" fill="#7993B0"/>
<path d="M27.5412 19.7381C29.3885 19.7381 30.8912 21.2409 30.8912 23.0881C30.8912 24.9353 29.3885 26.4381 27.5412 26.4381C25.694 26.4381 24.1913 24.9353 24.1913 23.0881C24.1913 21.2409 25.694 19.7381 27.5412 19.7381ZM27.5412 18.7871C25.1636 18.7871 23.2372 20.7136 23.2372 23.0912C23.2372 25.4688 25.1636 27.3952 27.5412 27.3952C29.9188 27.3952 31.8453 25.4688 31.8453 23.0912C31.8453 20.7136 29.9188 18.7871 27.5412 18.7871Z" fill="#7993B0"/>
<path d="M26.9926 16.9854C24.5083 17.208 22.4477 18.915 21.707 21.2133H17.3664C16.6439 18.9729 14.6657 17.2964 12.2667 17.0068C12.791 15.0925 14.5407 13.6812 16.6196 13.6812H17.1804L17.0402 11.7334C16.0008 10.947 15.3271 9.70635 15.3271 8.30113C15.3271 5.92353 17.2536 3.99707 19.6312 3.99707C22.0088 3.99707 23.9352 5.92353 23.9352 8.30113C23.9352 9.7033 23.2616 10.947 22.2221 11.7334L22.0819 13.6812H22.6428C24.7156 13.6812 26.4591 15.0803 26.9895 16.9854H26.9926ZM18.9819 15.9521H20.3384L20.5243 12.0809H18.796L18.9819 15.9521ZM20.5883 17.3421C20.5883 16.8788 20.2225 16.513 19.6617 16.513C19.1008 16.513 18.7289 16.8788 18.7289 17.3421C18.7289 17.8054 19.0947 18.1621 19.6617 18.1621C20.2286 18.1621 20.5883 17.8054 20.5883 17.3421Z" fill="#7993B0"/>
</g>
<defs>
<clipPath id="clip0_11724_26494">
<rect width="31.0733" height="32" fill="white" transform="translate(4 4)"/>
</clipPath>
</defs>
</svg>
