<?xml version="1.0" encoding="UTF-8"?>
<svg id="Layer_1" data-name="Layer 1" xmlns="http://www.w3.org/2000/svg" width="560" height="560" version="1.1" viewBox="0 0 560 560">
  <defs>
    <style>
      .cls-1 {
        fill: none;
      }

      .cls-1, .cls-2, .cls-3, .cls-4, .cls-5, .cls-6, .cls-7, .cls-8, .cls-9, .cls-10, .cls-11, .cls-12, .cls-13, .cls-14, .cls-15, .cls-16 {
        stroke-width: 0px;
      }

      .cls-2 {
        fill: #30455a;
      }

      .cls-3 {
        opacity: .2;
      }

      .cls-3, .cls-8 {
        fill: #76c9ec;
      }

      .cls-4 {
        fill: #a0abb6;
      }

      .cls-5 {
        fill: #23394f;
      }

      .cls-6 {
        fill: #4b5e6f;
      }

      .cls-7 {
        fill: #637383;
      }

      .cls-9 {
        fill: #000;
      }

      .cls-10 {
        fill: #eff2f5;
      }

      .cls-11 {
        fill: #0c253d;
      }

      .cls-12 {
        fill: #8ca4bc;
      }

      .cls-13 {
        fill: #32475b;
      }

      .cls-14 {
        fill: #bbc3ca;
      }

      .cls-15 {
        fill: #fff;
      }

      .cls-16 {
        fill: #8f9ba6;
      }
    </style>
  </defs>
  <g>
    <g>
      <g>
        <path class="cls-2" d="M367.8,311.1c0-4.7-3.8-8.4-8.4-8.4H39.8c-4.7,0-8.4,3.8-8.4,8.4v12.2h336.4v-12.2Z"/>
        <g>
          <path class="cls-16" d="M31.4,323.3v172.3c0,4.7,3.8,8.4,8.4,8.4h89.4l180.7-180.7H31.4Z"/>
          <path class="cls-7" d="M309.9,323.3l-180.7,180.7h230.2c4.7,0,8.4-3.8,8.4-8.4v-172.3h-57.9Z"/>
        </g>
      </g>
      <circle class="cls-8" cx="43.1" cy="313" r="4.6"/>
      <circle class="cls-4" cx="58.2" cy="313" r="4.6"/>
      <circle class="cls-12" cx="73.4" cy="313" r="4.6"/>
      <path class="cls-13" d="M257.3,316.8h-115.4c-2.1,0-3.8-1.7-3.8-3.8h0c0-2.1,1.7-3.8,3.8-3.8h115.4c2.1,0,3.8,1.7,3.8,3.8h0c0,2.1-1.7,3.8-3.8,3.8Z"/>
    </g>
    <g>
      <path class="cls-10" d="M159.7,398.5l-37.9,13,37.9,13v21.3l-63.9-23.2v-22.3l63.9-23.2v21.3Z"/>
      <path class="cls-10" d="M202.9,349.9h25l-41.3,118h-25l41.3-118Z"/>
      <path class="cls-10" d="M292.4,400.3v22.3l-63.9,23.2v-21.3l37.9-13-37.9-13v-21.3l63.9,23.2Z"/>
    </g>
  </g>
  <g>
    <path class="cls-11" d="M328.6,132.5h-66.8c-2.2,0-4-1.8-4-4h0c0-2.2,1.8-4,4-4h66.8c2.2,0,4,1.8,4,4h0c0,2.2-1.8,4-4,4Z"/>
    <path class="cls-10" d="M347.2,148.8h-80.9c-2.2,0-4-1.8-4-4h0c0-2.2,1.8-4,4-4h80.9c2.2,0,4,1.8,4,4h0c0,2.2-1.8,4-4,4Z"/>
    <path class="cls-6" d="M328.6,165.1h-88.5c-2.2,0-4-1.8-4-4h0c0-2.2,1.8-4,4-4h88.5c2.2,0,4,1.8,4,4h0c0,2.2-1.8,4-4,4Z"/>
    <path class="cls-10" d="M281.7,181.4h-100.7c-2.2,0-4-1.8-4-4h0c0-2.2,1.8-4,4-4h100.7c2.2,0,4,1.8,4,4h0c0,2.2-1.8,4-4,4Z"/>
    <path class="cls-10" d="M313.5,197.7h-117.5c-2.2,0-4-1.8-4-4h0c0-2.2,1.8-4,4-4h117.5c2.2,0,4,1.8,4,4h0c0,2.2-1.8,4-4,4Z"/>
    <path class="cls-10" d="M356.6,197.7h-16.9c-2.2,0-4-1.8-4-4h0c0-2.2,1.8-4,4-4h16.9c2.2,0,4,1.8,4,4h0c0,2.2-1.8,4-4,4Z"/>
    <path class="cls-10" d="M328.6,213.9h-107.6c-2.2,0-4-1.8-4-4h0c0-2.2,1.8-4,4-4h107.6c2.2,0,4,1.8,4,4h0c0,2.2-1.8,4-4,4Z"/>
    <path class="cls-10" d="M229.2,230.2h-52.3c-2.2,0-4-1.8-4-4h0c0-2.2,1.8-4,4-4h52.3c2.2,0,4,1.8,4,4h0c0,2.2-1.8,4-4,4Z"/>
    <path class="cls-10" d="M305.9,230.2h-40.3c-2.2,0-4-1.8-4-4h0c0-2.2,1.8-4,4-4h40.3c2.2,0,4,1.8,4,4h0c0,2.2-1.8,4-4,4Z"/>
    <path class="cls-11" d="M328.6,246.5h-132.5c-2.2,0-4-1.8-4-4h0c0-2.2,1.8-4,4-4h132.5c2.2,0,4,1.8,4,4h0c0,2.2-1.8,4-4,4Z"/>
    <path class="cls-10" d="M328.6,262.8h-132.5c-2.2,0-4-1.8-4-4h0c0-2.2,1.8-4,4-4h132.5c2.2,0,4,1.8,4,4h0c0,2.2-1.8,4-4,4Z"/>
  </g>
  <rect class="cls-1" x="-.5" y="-.5" width="560" height="560"/>
  <g>
    <g>
      <rect class="cls-5" x="429.8" y="273.4" width="22.4" height="242.6" transform="translate(1032.8 387.9) rotate(137.5)"/>
      <path class="cls-14" d="M531.5,493.5h0c7.3-6.7,7.8-18.1,1.1-25.4l-106.9-116.7-26.5,24.3,106.9,116.7c6.7,7.3,18.1,7.8,25.4,1.1Z"/>
      <g>
        <path class="cls-5" d="M164.5,302.1c52.7,57.6,142.2,61.5,199.8,8.8,57.6-52.7,61.5-142.2,8.8-199.8-52.7-57.6-142.2-61.5-199.8-8.8-57.6,52.7-61.5,142.2-8.8,199.8ZM173.9,293.5c-48-52.4-44.4-133.8,8-181.8,52.4-48,133.8-44.4,181.8,8,48,52.4,44.4,133.8-8,181.8-52.4,48-133.8,44.4-181.8-8Z"/>
        <circle class="cls-3" cx="268.8" cy="206.6" r="128.7"/>
        <path class="cls-3" d="M355.6,111.8c-.1-.1-.2-.2-.3-.3,38.7,48.7,37.4,119.5-6,166.8-47.9,52.3-129,55.9-181.4,8.3,4.2,5.3,8.8,10.3,13.9,14.9,52.4,48,133.8,44.4,181.8-8,48-52.4,44.4-133.8-8-181.8Z"/>
      </g>
    </g>
    <path class="cls-15" d="M236.6,286.7c-4.4,0-7.9-3.5-7.9-7.9,0,4.4-3.5,7.9-7.9,7.9,4.4,0,7.9,3.5,7.9,7.9,0-4.4,3.5-7.9,7.9-7.9Z"/>
    <path class="cls-15" d="M343,127.4c-7.8,0-14.1-6.3-14.1-14.1,0,7.8-6.3,14.1-14.1,14.1,7.8,0,14.1,6.3,14.1,14.1,0-7.8,6.3-14.1,14.1-14.1Z"/>
  </g>
  <g>
    <path class="cls-10" d="M125.1,44.3l-41.2,71.3c-6.8,11.8,1.7,26.6,15.3,26.6h82.4c13.6,0,22.2-14.8,15.3-26.6l-41.2-71.3c-6.8-11.8-23.9-11.8-30.7,0Z"/>
    <path class="cls-9" d="M140.5,130.5c-6,0-9.9-3.8-9.9-8.7s3.9-8.8,9.9-8.8,9.8,3.9,9.8,8.8-3.9,8.7-9.8,8.7ZM131.2,65.8h18.4l-2,41.2h-14.4l-2-41.2Z"/>
  </g>
</svg>