<svg width="39" height="34" viewBox="0 0 39 34" fill="none" xmlns="http://www.w3.org/2000/svg">
<g clipPath="url(#clip0_919_2092)">
<path d="M38.7799 29.91L31.6399 22.76C32.1056 21.6903 32.3472 20.5366 32.3499 19.37C32.3495 17.552 31.7578 15.7834 30.6643 14.3311C29.5707 12.8787 28.0344 11.8214 26.2873 11.3186C24.5402 10.8159 22.677 10.8949 20.9787 11.5438C19.2805 12.1927 17.8393 13.3763 16.8726 14.9161C15.906 16.4558 15.4662 18.2681 15.6198 20.0797C15.7734 21.8912 16.5119 23.6036 17.7239 24.9587C18.936 26.3137 20.5558 27.2378 22.3391 27.5916C24.1223 27.9454 25.9723 27.7097 27.6099 26.92L34.6899 34L38.7799 29.91ZM17.2199 19.37C17.2179 18.0358 17.6113 16.731 18.3505 15.6203C19.0897 14.5096 20.1414 13.6429 21.3729 13.1296C22.6044 12.6163 23.9604 12.4795 25.2696 12.7364C26.5788 12.9933 27.7825 13.6324 28.7287 14.573C29.6749 15.5136 30.3211 16.7135 30.5857 18.0212C30.8504 19.3288 30.7215 20.6856 30.2156 21.9201C29.7096 23.1546 28.8491 24.2114 27.7428 24.9572C26.6365 25.7029 25.334 26.1041 23.9999 26.11C23.1117 26.1139 22.2316 25.9426 21.4098 25.6058C20.5881 25.2689 19.8409 24.7733 19.211 24.1471C18.5812 23.521 18.0811 22.7767 17.7394 21.957C17.3977 21.1372 17.2212 20.2581 17.2199 19.37Z" fill="#41576D"/>
<path d="M26.2302 15.63L23.3202 21.51L21.4902 18.82L19.7002 20.04L22.2502 23.64H24.7202L28.1802 16.58L26.2302 15.63Z" fill="#41576D"/>
<path d="M29.86 0H0V34H29.86V33.32L26.86 30.32C24.1127 31.0536 21.1893 30.7177 18.68 29.38H4.36V27.12H15.73C14.7945 26.1253 14.0459 24.9701 13.52 23.71H4.36V21.46H12.84C12.7158 20.7702 12.6522 20.0709 12.65 19.37C12.6511 18.9288 12.6778 18.4881 12.73 18.05H4.36V15.8H13.23C13.6379 14.5659 14.2571 13.4121 15.06 12.39H4.36V10.14H17.43C19.2316 8.85785 21.3704 8.13352 23.5804 8.05707C25.7904 7.98061 27.9741 8.55541 29.86 9.71V0ZM24.86 6.73H4.36V4.48H24.82L24.86 6.73Z" fill="#41576D"/>
</g>
<defs>
<clip-path id="clip0_919_2092">
<rect width="38.78" height="34" fill="white"/>
</clip-path>
</defs>
</svg>
