<svg width="34" height="35" viewBox="0 0 34 35" fill="none" xmlns="http://www.w3.org/2000/svg">
<path d="M16.5028 11.0705C9.3593 11.0705 3.20871 9.73313 0.444336 7.80667L5.09517 31.7255C5.09517 33.5353 10.2006 35 16.5028 35C22.8049 35 27.9104 33.5353 27.9104 31.7255L32.556 7.81198C29.7916 9.73844 23.6462 11.0758 16.4975 11.0758L16.5028 11.0705Z" fill="#41576D"/>
<path d="M16.5026 9.47839C25.6168 9.47839 33.0052 7.35658 33.0052 4.7392C33.0052 2.12181 25.6168 0 16.5026 0C7.38847 0 0 2.12181 0 4.7392C0 7.35658 7.38847 9.47839 16.5026 9.47839Z" fill="#41576D"/>
</svg>
