<svg width="32" height="34" viewBox="0 0 32 34" fill="none" xmlns="http://www.w3.org/2000/svg">
<g clipPath="url(#clip0_761_1777)">
<path d="M0 5.2593C0 2.35271 7.16516 0 16.0025 0C24.8399 0 32.0051 2.35271 32.0051 5.2593V8.98401C32.0051 11.8906 24.8399 14.2433 16.0025 14.2433C7.16516 14.2433 0 11.8906 0 8.98401V5.2593Z" fill="#41576D"/>
<path d="M31.1436 13.4404C28.9951 15.5137 23.0309 17.0025 16.0025 17.0025C8.97419 17.0025 3.00491 15.5086 0.856374 13.4404C0.304038 13.974 0 14.5431 0 15.1376V18.8623C0 21.7689 7.16516 24.1216 16.0025 24.1216C24.8399 24.1216 32.0051 21.7689 32.0051 18.8623V15.1376C32.0051 14.5431 31.701 13.974 31.1487 13.4404H31.1436Z" fill="#41576D"/>
<path d="M31.1436 23.3188C28.9951 25.392 23.0309 26.8809 16.0025 26.8809C8.97419 26.8809 3.00998 25.392 0.861441 23.3188C0.304038 23.8523 0 24.4215 0 25.016V28.7407C0 31.6473 7.16516 34 16.0025 34C24.8399 34 32.0051 31.6473 32.0051 28.7407V25.016C32.0051 24.4215 31.701 23.8523 31.1487 23.3188H31.1436Z" fill="#41576D"/>
</g>
<defs>
<clip-path id="clip0_761_1777">
<rect width="32" height="34" fill="white"/>
</clip-path>
</defs>
</svg>
