<svg width="24" height="34" viewBox="0 0 24 34" fill="none" xmlns="http://www.w3.org/2000/svg">
<g clipPath="url(#clip0_919_1932)">
<path d="M19.2823 2.5887C19.2823 4.0332 15.2588 5.1774 10.315 5.1774C5.37113 5.1774 1.34766 4.05391 1.34766 2.5887C1.34766 1.1235 5.37113 0 10.315 0C15.2588 0 19.2823 1.17009 19.2823 2.5887ZM10.2898 0.761078C7.04087 0.761078 4.40046 1.55322 4.40046 2.4748C4.40046 3.39638 7.04087 4.18852 10.2898 4.18852C13.5388 4.18852 16.1792 3.42226 16.1792 2.4748C16.1792 1.52733 13.5438 0.761078 10.2898 0.761078Z" fill="#41576D"/>
<path d="M21.7519 10.2202V17.1475H20.5599C20.3753 15.37 19.7539 13.6702 18.7544 12.2083L19.0411 4.81497C17.5323 5.85045 14.1978 6.61153 10.3152 6.61153C6.43252 6.61153 3.08801 5.87634 1.58927 4.81497L1.87594 12.2083C0.685497 13.9434 0.0301142 16.0073 -0.00487022 18.1312C-0.0398547 20.2551 0.54718 22.3407 1.6798 24.1163L1.87594 31.4268C1.87594 32.8506 5.65297 34.0155 10.3152 34.0155C14.9774 34.0155 18.7494 32.8661 18.7494 31.4268L18.9505 24.0956C19.8377 22.6954 20.3892 21.0984 20.5599 19.436H21.7519V26.4047H24V10.2202H21.7519ZM17.0997 20.7407H3.55574V15.8635H17.0997V20.7407Z" fill="#41576D"/>
<path d="M5.663 16.8939C6.46769 16.8939 6.74933 17.5151 6.74933 18.3694C6.74933 19.2237 6.46769 19.8502 5.663 19.8502C4.8583 19.8502 4.57666 19.2289 4.57666 18.3694C4.57666 17.51 4.8583 16.8939 5.663 16.8939ZM5.663 17.5307C5.27071 17.5307 5.22544 17.9242 5.22544 18.3694C5.22544 18.8147 5.27071 19.2133 5.663 19.2133C6.05529 19.2133 6.10055 18.8302 6.10055 18.3694C6.10055 17.9086 6.03517 17.5307 5.663 17.5307Z" fill="#41576D"/>
<path d="M8.18253 16.8939C8.98722 16.8939 9.26887 17.5151 9.26887 18.3694C9.26887 19.2237 8.98722 19.8502 8.18253 19.8502C7.37783 19.8502 7.09619 19.2289 7.09619 18.3694C7.09619 17.51 7.37783 16.8939 8.18253 16.8939ZM8.18253 17.5307C7.79024 17.5307 7.74498 17.9242 7.74498 18.3694C7.74498 18.8147 7.79024 19.2133 8.18253 19.2133C8.57482 19.2133 8.62008 18.8302 8.62008 18.3694C8.62008 17.9086 8.57482 17.5307 8.18253 17.5307Z" fill="#41576D"/>
<path d="M9.92784 17.6032H9.55566V16.956H10.6269V19.8605H9.92784V17.6032Z" fill="#41576D"/>
<path d="M13.0763 16.9508V17.5462H11.8692V18.1209C12.0058 17.9908 12.1861 17.9203 12.3722 17.9242C12.4915 17.9205 12.6103 17.9432 12.7204 17.9908C12.8305 18.0383 12.9294 18.1097 13.0105 18.2C13.0915 18.2903 13.1528 18.3974 13.1902 18.5142C13.2276 18.6309 13.2402 18.7546 13.2272 18.8768C13.2435 19.0141 13.2297 19.1535 13.1869 19.2846C13.1441 19.4157 13.0733 19.5353 12.9798 19.6346C12.8862 19.7339 12.7722 19.8104 12.6462 19.8585C12.5202 19.9065 12.3853 19.9249 12.2515 19.9123C12.1297 19.9266 12.0065 19.9153 11.8891 19.8791C11.7717 19.8429 11.6627 19.7825 11.5687 19.7017C11.4747 19.6208 11.3975 19.5212 11.342 19.4088C11.2865 19.2964 11.2537 19.1735 11.2456 19.0477H11.8894C11.904 19.1326 11.9485 19.2091 12.0143 19.2626C12.0801 19.316 12.1627 19.3427 12.2464 19.3376C12.4979 19.3376 12.6086 19.146 12.6086 18.8975C12.6163 18.8449 12.6124 18.7911 12.5971 18.7402C12.5818 18.6894 12.5555 18.6428 12.5202 18.6039C12.4848 18.565 12.4414 18.5349 12.3931 18.5158C12.3448 18.4967 12.2929 18.4891 12.2414 18.4937C12.1684 18.4875 12.0957 18.508 12.0359 18.5516C11.9761 18.5951 11.9332 18.6589 11.9145 18.7318H11.2506V16.9508H13.0763Z" fill="#41576D"/>
<path d="M13.6846 17.6756C13.6846 17.2615 13.9965 16.8939 14.6603 16.8939C15.3242 16.8939 15.636 17.2615 15.636 17.6756C15.6393 17.8046 15.607 17.9319 15.5429 18.0427C15.4788 18.1536 15.3856 18.2435 15.2739 18.3021C15.4063 18.3627 15.5181 18.4626 15.5952 18.5889C15.6722 18.7152 15.7109 18.8623 15.7064 19.0114C15.7064 19.5913 15.2387 19.9175 14.6603 19.9175C14.5328 19.9348 14.4032 19.9247 14.2797 19.8876C14.1562 19.8505 14.0416 19.7873 13.9431 19.702C13.8447 19.6168 13.7646 19.5113 13.708 19.3924C13.6513 19.2735 13.6194 19.1437 13.6142 19.0114C13.609 18.8622 13.6475 18.7148 13.7246 18.5883C13.8017 18.4619 13.914 18.3622 14.0468 18.3021C13.9343 18.2445 13.8404 18.1548 13.7762 18.0437C13.712 17.9326 13.6802 17.8048 13.6846 17.6756ZM14.253 18.9752C14.253 19.085 14.2953 19.1904 14.3708 19.2681C14.4463 19.3457 14.5486 19.3894 14.6553 19.3894C14.762 19.3894 14.8644 19.3457 14.9398 19.2681C15.0153 19.1904 15.0577 19.085 15.0577 18.9752C15.0594 18.9223 15.0501 18.8697 15.0304 18.821C15.0106 18.7722 14.9808 18.7284 14.9431 18.6925C14.9054 18.6566 14.8606 18.6295 14.8118 18.6131C14.763 18.5966 14.7114 18.5912 14.6603 18.5972C14.6087 18.5905 14.5563 18.5953 14.5066 18.6114C14.4569 18.6274 14.4112 18.6543 14.3726 18.6902C14.3339 18.726 14.3032 18.7701 14.2826 18.8192C14.2619 18.8684 14.2518 18.9216 14.253 18.9752ZM14.9923 17.7792C14.9933 17.7114 14.9747 17.6448 14.9388 17.588C14.9029 17.5311 14.8514 17.4865 14.7909 17.4598C14.7303 17.4332 14.6634 17.4257 14.5987 17.4383C14.534 17.4508 14.4744 17.483 14.4275 17.5306C14.3805 17.5781 14.3484 17.639 14.3352 17.7054C14.322 17.7718 14.3282 17.8408 14.3532 17.9036C14.3782 17.9663 14.4207 18.02 14.4754 18.0578C14.5301 18.0955 14.5945 18.1157 14.6603 18.1157C14.7044 18.1196 14.7488 18.1135 14.7904 18.0981C14.8321 18.0826 14.87 18.058 14.9015 18.026C14.933 17.9941 14.9575 17.9555 14.9731 17.9129C14.9888 17.8702 14.9953 17.8246 14.9923 17.7792Z" fill="#41576D"/>
</g>
<defs>
<clip-path id="clip0_919_1932">
<rect width="24" height="34" fill="white"/>
</clip-path>
</defs>
</svg>
