<svg width="33" height="34" viewBox="0 0 33 34" fill="none" xmlns="http://www.w3.org/2000/svg">
<g clipPath="url(#clip0_761_1849)">
<path d="M32.3112 17.0732C30.5832 18.7801 25.7862 20.0059 20.1334 20.0059C18.1323 20.0059 16.2453 19.8511 14.558 19.575C12.9278 20.4954 11.0571 21.0183 9.0641 21.0183C8.45277 21.0183 7.84958 20.9681 7.2627 20.8719V21.5371C7.2627 23.9301 13.0256 25.8671 20.1334 25.8671C27.2412 25.8671 33.0041 23.9301 33.0041 21.5371V18.4705C33.0041 17.981 32.7595 17.5125 32.3153 17.0732H32.3112Z" fill="#41576D"/>
<path d="M32.3111 25.2061C30.583 26.913 25.7861 28.1388 20.1332 28.1388C14.4804 28.1388 9.68342 26.913 7.95538 25.2061C7.51114 25.6454 7.2666 26.114 7.2666 26.6034V29.67C7.2666 32.063 13.0295 34 20.1373 34C27.2451 34 33.008 32.063 33.008 29.67V26.6034C33.008 26.114 32.7635 25.6454 32.3192 25.2061H32.3111Z" fill="#41576D"/>
<path d="M20.1294 6.00763C20.0927 6.00763 20.056 6.00763 20.0193 6.00763C20.3169 7.05353 20.4799 8.15381 20.4799 9.29593C20.4799 12.5466 19.192 15.4876 17.1094 17.6087C18.0794 17.6882 19.0901 17.73 20.1335 17.73C27.2413 17.73 33.0042 15.793 33.0042 13.4V10.3335C33.0042 7.94045 27.2413 6.00345 20.1335 6.00345L20.1294 6.00763Z" fill="#41576D"/>
<path d="M16.1841 15.2324C15.7847 15.7387 15.3323 16.1988 14.8433 16.6088C14.4153 15.9729 13.5839 15.7638 12.9196 16.157C12.2553 16.5503 12.0148 17.3954 12.3409 18.0898C11.754 18.3199 11.1426 18.4915 10.5069 18.596C10.4457 17.8263 9.82623 17.2196 9.06002 17.2196C8.29381 17.2196 7.67432 17.8263 7.61319 18.596C6.9774 18.4915 6.36606 18.3199 5.77918 18.0898C6.10115 17.3912 5.86069 16.5461 5.20044 16.157C4.53612 15.7638 3.7047 15.9729 3.27677 16.6088C2.78362 16.1988 2.33531 15.7345 1.9359 15.2324C2.55539 14.7932 2.75509 13.9397 2.37607 13.2578C1.99296 12.5759 1.16969 12.329 0.493146 12.6637C0.268988 12.0655 0.10189 11.4379 0 10.7853C0.749907 10.7225 1.34087 10.0866 1.34087 9.30011C1.34087 8.5136 0.749907 7.87769 0 7.81494C0.10189 7.1623 0.268988 6.53476 0.493146 5.93233C1.17377 6.26283 1.99704 6.016 2.37607 5.33826C2.75917 4.65633 2.55539 3.80288 1.9359 3.3636C2.33531 2.85739 2.7877 2.3972 3.27677 1.9872C3.7047 2.62311 4.53612 2.83229 5.20044 2.43903C5.86476 2.04577 6.10522 1.20069 5.77918 0.506214C6.36606 0.276117 6.9774 0.10459 7.61319 0C7.67432 0.76978 8.29381 1.3764 9.06002 1.3764C9.82623 1.3764 10.4457 0.76978 10.5069 0C11.1426 0.10459 11.754 0.276117 12.3409 0.506214C12.0189 1.20487 12.2594 2.04996 12.9196 2.43903C13.5839 2.83229 14.4153 2.62311 14.8433 1.9872C15.3364 2.3972 15.7847 2.86157 16.1841 3.3636C15.5647 3.80288 15.3649 4.65633 15.744 5.33826C16.1271 6.02018 16.9503 6.26701 17.6269 5.93233C17.8511 6.53476 18.0182 7.1623 18.12 7.81494C17.3701 7.87769 16.7792 8.5136 16.7792 9.30011C16.7792 10.0866 17.3701 10.7225 18.12 10.7853C18.0182 11.4379 17.8511 12.0655 17.6269 12.6679C16.9463 12.3374 16.123 12.5842 15.744 13.262C15.3609 13.9439 15.5647 14.7973 16.1841 15.2366V15.2324ZM9.06002 7.22087C7.94331 7.22087 7.03446 8.14963 7.03446 9.30011C7.03446 10.4506 7.93924 11.3794 9.06002 11.3794C10.1808 11.3794 11.0856 10.4506 11.0856 9.30011C11.0856 8.14963 10.1808 7.22087 9.06002 7.22087Z" fill="#41576D"/>
</g>
<defs>
<clip-path id="clip0_761_1849">
<rect width="33" height="34" fill="white"/>
</clip-path>
</defs>
</svg>
