<?xml version="1.0" encoding="utf-8"?>
<!-- Generator: Adobe Illustrator 27.1.1, SVG Export Plug-In . SVG Version: 6.00 Build 0)  -->
<svg version="1.1" id="Layer_1" xmlns="http://www.w3.org/2000/svg" xmlns:xlink="http://www.w3.org/1999/xlink" x="0px" y="0px"
	 width="800px" height="480px" viewBox="0 0 800 480" style="enable-background:new 0 0 800 480;" xml:space="preserve">
<style type="text/css">
	.st0{fill:#B051EE;}
	.st1{fill:url(#SVGID_1_);}
	.st2{fill:url(#SVGID_00000145017504838995539440000008448873846064593076_);}
	.st3{fill:url(#SVGID_00000085941816728261020190000004702822823852715143_);}
	.st4{fill:url(#SVGID_00000100385119202745114560000006690645426075110843_);}
	.st5{fill:url(#SVGID_00000009574009171237153980000001178878851070835618_);}
	.st6{fill:url(#SVGID_00000145757364305750304250000005999517517521781645_);}
	.st7{fill:url(#SVGID_00000109722505704304605480000015268547577774028467_);}
	.st8{fill:url(#SVGID_00000134932486922239785570000014243570875616715927_);}
	.st9{fill:url(#SVGID_00000065063021073213443360000004784585416822397878_);}
	.st10{fill:url(#SVGID_00000018953250212703270750000007732573170152343448_);}
	.st11{fill:url(#SVGID_00000120552164494385987740000018221806286853894841_);}
	.st12{fill:#CC8DFC;}
	.st13{fill:url(#SVGID_00000026132275461174708760000010253983295184187581_);}
	.st14{fill:url(#SVGID_00000040551247774012561090000007308094924900480943_);}
	.st15{fill:url(#SVGID_00000098191552947139454860000013373875294105423011_);}
	.st16{fill:url(#SVGID_00000021087108122746837380000005908603544680478894_);}
	.st17{fill:url(#SVGID_00000063601399109960273740000012478841706256956599_);}
	.st18{fill:url(#SVGID_00000100376036639276258630000016047795878693224123_);}
	.st19{fill:url(#SVGID_00000150784122461237971970000017835246550797711031_);}
	.st20{fill:url(#SVGID_00000057123167339353947170000000645102262141313717_);}
	.st21{fill:url(#SVGID_00000054229469240413768690000014851281850099931289_);}
	.st22{fill:url(#SVGID_00000067217245190354470800000004575455672752600742_);}
	.st23{fill:#FFFFFF;}
	.st24{fill:url(#SVGID_00000071554014364531938140000011873738606827024565_);}
	.st25{fill:url(#SVGID_00000093170821672761556080000012470465562092878512_);}
	.st26{fill:url(#SVGID_00000057868326373211321120000012203549243658345146_);}
</style>
<g>
	<path class="st0" d="M109.2,57.6l-41.7,8.1L33.3,77.1L5.7,85.5v6.9l3.3,18.4l66.6-2.7L27.3,295c0,0-6,5.4,3.8,14.1
		c9.8,8.7,69.4,62.3,69.4,62.3h18.4c0,0,8.7,80.2,11.4,94.3c2.7,14.1,17.3,16.8,18.4,4.3s16.3-90.5,16.3-90.5l93.2,7l5.4,7.6l7.4-7
		l90.1-1.6l4.9,10.3l8.7-2.7l34.7,59.1c0,0,14.1,15.2,18.4,13.5s0-19.5-2.7-32c-2.7-12.5-10.3-59.1-10.3-59.1l113.3,4.9l34.7-16.2
		l26.8-12.3l43.1-36.4l64.4-39.2l50-18.5l50-7.8l-47.7-7.3l-54.7,8.4L631.4,272l-46.2,22.4l-33.3,10.9l-20.6-0.5l-49.2-19.9
		l-69.5-17l95.9-82.3l26.6-13.5l-191.8,56.9l139.3-226L195.3,205.6l11.9,24.4l-4.7,4.7l-39.7,0.4L148,266.4l-43,6.1l10.5-168.7
		L85.1,72.8L109.2,57.6z"/>
	<linearGradient id="SVGID_1_" gradientUnits="userSpaceOnUse" x1="287.1839" y1="324.4152" x2="251.9624" y2="120.9433">
		<stop  offset="0" style="stop-color:#B051EE"/>
		<stop  offset="0.2659" style="stop-color:#B154EE"/>
		<stop  offset="0.4257" style="stop-color:#B55CEF"/>
		<stop  offset="0.5576" style="stop-color:#BB6AF0"/>
		<stop  offset="0.6742" style="stop-color:#C57FF2"/>
		<stop  offset="0.7808" style="stop-color:#D199F5"/>
		<stop  offset="0.88" style="stop-color:#DFB9F8"/>
		<stop  offset="0.9719" style="stop-color:#F0DFFC"/>
		<stop  offset="1" style="stop-color:#F6ECFD"/>
	</linearGradient>
	<polygon class="st1" points="200.8,234.7 201.3,236.2 271,191.2 335.1,234.3 342.5,232.2 271,185.8 195.4,205.7 207.3,229.9 
		202.6,234.6 	"/>
	
		<linearGradient id="SVGID_00000110449725728405672690000006444254746869823366_" gradientUnits="userSpaceOnUse" x1="162.7227" y1="215.6686" x2="597.8436" y2="185.5948">
		<stop  offset="2.844168e-02" style="stop-color:#B051EE"/>
		<stop  offset="0.2364" style="stop-color:#9239D0"/>
		<stop  offset="0.5286" style="stop-color:#6D1BAC"/>
		<stop  offset="0.6836" style="stop-color:#5F109E"/>
	</linearGradient>
	<polygon style="fill:url(#SVGID_00000110449725728405672690000006444254746869823366_);" points="197.6,210.3 207.3,229.9 
		265.5,191.2 	"/>
	
		<linearGradient id="SVGID_00000085222298520530102080000017064149841715635336_" gradientUnits="userSpaceOnUse" x1="97.7861" y1="262.0579" x2="238.1104" y2="432.7226">
		<stop  offset="0" style="stop-color:#B051EE"/>
		<stop  offset="0.1112" style="stop-color:#B153EE"/>
		<stop  offset="0.1578" style="stop-color:#B45AEF"/>
		<stop  offset="0.1923" style="stop-color:#BA67F0"/>
		<stop  offset="0.2208" style="stop-color:#C278F1"/>
		<stop  offset="0.2454" style="stop-color:#CC8FF3"/>
		<stop  offset="0.2574" style="stop-color:#D29DF4"/>
		<stop  offset="0.2902" style="stop-color:#D098F4"/>
		<stop  offset="0.33" style="stop-color:#C989F2"/>
		<stop  offset="0.3733" style="stop-color:#BE71F0"/>
		<stop  offset="0.4162" style="stop-color:#B051EE"/>
		<stop  offset="0.574" style="stop-color:#AD4FEB"/>
		<stop  offset="0.6762" style="stop-color:#A548E3"/>
		<stop  offset="0.7627" style="stop-color:#963CD4"/>
		<stop  offset="0.8404" style="stop-color:#812BBF"/>
		<stop  offset="0.9115" style="stop-color:#6615A5"/>
		<stop  offset="0.9267" style="stop-color:#5F109E"/>
	</linearGradient>
	<path style="fill:url(#SVGID_00000085222298520530102080000017064149841715635336_);" d="M165,379.5c0,0-15.2,78-16.3,90.5
		s-15.7,9.8-18.4-4.3c-2.7-14.1-11.4-94.3-11.4-94.3l-0.8-15.7l30.1-73.2l3.4-4.5c0,0,11.7-17.7,15.3-23.9c3.5-6.2,26.3-7,26.3-7
		l30.6,0.5l-43.3,27.6L165,379.5z"/>
	
		<radialGradient id="SVGID_00000028311074837690351470000008864279451272036273_" cx="276.1881" cy="256.8131" r="168.1002" fx="390.0067" fy="235.696" gradientTransform="matrix(-0.1507 0.9886 -0.7422 -0.1132 508.433 12.8414)" gradientUnits="userSpaceOnUse">
		<stop  offset="0.3011" style="stop-color:#B051EE"/>
		<stop  offset="0.4425" style="stop-color:#AB4DE9"/>
		<stop  offset="0.6083" style="stop-color:#9D42DB"/>
		<stop  offset="0.7865" style="stop-color:#852FC4"/>
		<stop  offset="0.9723" style="stop-color:#6514A3"/>
		<stop  offset="1" style="stop-color:#5F109E"/>
	</radialGradient>
	<path style="fill:url(#SVGID_00000028311074837690351470000008864279451272036273_);" d="M276.2,219.1l-52.5,28.4l-43.3,27.6
		L165,379.5l93.2,7l12.8,0.5l90.1-1.6c0,0-4-3.4-2.5-11.4c1.4-7.9,31.4-96.8,31.4-96.8L276.2,219.1z"/>
	
		<linearGradient id="SVGID_00000042697967888789197440000016071174797941463220_" gradientUnits="userSpaceOnUse" x1="341.9352" y1="180.8288" x2="405.8758" y2="311.5999">
		<stop  offset="0" style="stop-color:#D29DF4"/>
		<stop  offset="4.931635e-02" style="stop-color:#CA8CF3"/>
		<stop  offset="0.1334" style="stop-color:#C176F1"/>
		<stop  offset="0.2327" style="stop-color:#B966F0"/>
		<stop  offset="0.3554" style="stop-color:#B45AEF"/>
		<stop  offset="0.5272" style="stop-color:#B153EE"/>
		<stop  offset="1" style="stop-color:#B051EE"/>
	</linearGradient>
	<path style="fill:url(#SVGID_00000042697967888789197440000016071174797941463220_);" d="M343.3,228.9c0,0-15.1,4.6-35.2,10.8
		l-31.8-16.9c0,0-34.3,19.4-56.7,33.2c-22.4,13.7-28.9,20.2-26.4,24.4c2.5,4.2,65,106.1,65,106.1l5.4,7.6l7.4-7l141.6-119.3
		l95.9-82.3l26.6-13.5L343.3,228.9z M211.6,270.1c-0.3,0.1-0.5,0.2-0.8,0.3C211.1,270.3,211.4,270.2,211.6,270.1z"/>
	
		<linearGradient id="SVGID_00000124848228562598556790000009340378748874560129_" gradientUnits="userSpaceOnUse" x1="287.3535" y1="211.6676" x2="165.7039" y2="382.3564">
		<stop  offset="2.844168e-02" style="stop-color:#B051EE"/>
		<stop  offset="0.2364" style="stop-color:#9239D0"/>
		<stop  offset="0.5286" style="stop-color:#6D1BAC"/>
		<stop  offset="0.6836" style="stop-color:#5F109E"/>
	</linearGradient>
	<path style="fill:url(#SVGID_00000124848228562598556790000009340378748874560129_);" d="M276.1,224.4l-56.5,35.6
		c0,0-27.8,17.3-8.7,10.5c11.5-4.1,62.7-20,97.2-30.7L276.1,224.4z"/>
	
		<linearGradient id="SVGID_00000093165213734148700490000002193090501566525879_" gradientUnits="userSpaceOnUse" x1="197.6208" y1="287.3709" x2="498.2184" y2="287.3709">
		<stop  offset="0" style="stop-color:#B051EE"/>
		<stop  offset="1" style="stop-color:#9A40D9"/>
	</linearGradient>
	<path style="fill:url(#SVGID_00000093165213734148700490000002193090501566525879_);" d="M262.2,383.9c-2.6-4.3-59.5-97-64.6-105.5
		c0.3-0.6,1.1-1.7,2.9-3.4c0.9,1,2.3,1.8,4.3,1.9h0c1.2,0,3-0.2,7.6-1.9c18.8-6.7,131-41.1,132.2-41.5L498.2,188l-88.8,76.1
		L267.8,383.5l-3.5,3.3L262.2,383.9z"/>
	
		<linearGradient id="SVGID_00000098921574396777449850000002395521772940022147_" gradientUnits="userSpaceOnUse" x1="33.014" y1="302.0803" x2="135.5794" y2="329.5627">
		<stop  offset="0" style="stop-color:#B051EE"/>
		<stop  offset="8.462930e-02" style="stop-color:#A549E4"/>
		<stop  offset="0.2146" style="stop-color:#9D42DC"/>
		<stop  offset="0.4169" style="stop-color:#9A40D9"/>
		<stop  offset="0.7044" style="stop-color:#983FD7"/>
		<stop  offset="0.8127" style="stop-color:#913CD1"/>
		<stop  offset="0.8906" style="stop-color:#8537C7"/>
		<stop  offset="0.9537" style="stop-color:#7431B8"/>
		<stop  offset="1" style="stop-color:#6229A8"/>
	</linearGradient>
	<path style="fill:url(#SVGID_00000098921574396777449850000002395521772940022147_);" d="M118.9,371.4h-18.4
		c0,0-59.6-53.6-69.4-62.3L84,295.8c0,0,59.9-14.1,62-14.4c2.2-0.3,2.2,1.1,2.2,1.1c-1.6,3.8-30.1,73.2-30.1,73.2L118.9,371.4z"/>
	
		<linearGradient id="SVGID_00000134933656776643080250000001988929993039151254_" gradientUnits="userSpaceOnUse" x1="117.2646" y1="173.2935" x2="138.216" y2="283.0023">
		<stop  offset="0" style="stop-color:#B051EE"/>
		<stop  offset="0.4692" style="stop-color:#AE4FEC"/>
		<stop  offset="0.6382" style="stop-color:#A74AE5"/>
		<stop  offset="0.7587" style="stop-color:#9C41DA"/>
		<stop  offset="0.8561" style="stop-color:#8B33C9"/>
		<stop  offset="0.9385" style="stop-color:#7522B4"/>
		<stop  offset="1" style="stop-color:#5F109E"/>
	</linearGradient>
	<path style="fill:url(#SVGID_00000134933656776643080250000001988929993039151254_);" d="M75.6,108L27.3,295c0,0-4.5,4.1,0.7,10.9
		l0,0L84,291.2c0,0,50.1-9.3,57-10.8c4.5-0.9,10.7-2.4,10.7-2.4s11.7-17.7,15.3-23.9c3.5-6.2,26.3-7,26.3-7l30.6,0.5l21.4-11.7
		l-42.6-1.3l-39.7,0.4L148,266.4l-43,6.1l10.5-168.7"/>
	<g>
		
			<linearGradient id="SVGID_00000029003593761977380670000009813107490388819600_" gradientUnits="userSpaceOnUse" x1="94.7675" y1="107.641" x2="94.7675" y2="83.3548">
			<stop  offset="0" style="stop-color:#B051EE"/>
			<stop  offset="0.2659" style="stop-color:#B154EE"/>
			<stop  offset="0.4257" style="stop-color:#B55CEF"/>
			<stop  offset="0.5576" style="stop-color:#BB6AF0"/>
			<stop  offset="0.6742" style="stop-color:#C57FF2"/>
			<stop  offset="0.7808" style="stop-color:#D199F5"/>
			<stop  offset="0.88" style="stop-color:#DFB9F8"/>
			<stop  offset="0.9719" style="stop-color:#F0DFFC"/>
			<stop  offset="1" style="stop-color:#F6ECFD"/>
		</linearGradient>
		<path style="fill:url(#SVGID_00000029003593761977380670000009813107490388819600_);" d="M112.6,105.7l-28-20.1
			c-1.3-1-2.7-0.4-3,1.2l-4.7,24"/>
	</g>
	
		<linearGradient id="SVGID_00000173128846697735044290000005056864778185482134_" gradientUnits="userSpaceOnUse" x1="60.5846" y1="94.8775" x2="80.8144" y2="94.8775">
		<stop  offset="0" style="stop-color:#B051EE"/>
		<stop  offset="0.3275" style="stop-color:#AD4FEC"/>
		<stop  offset="0.5244" style="stop-color:#A548E3"/>
		<stop  offset="0.6869" style="stop-color:#973DD5"/>
		<stop  offset="0.8304" style="stop-color:#832DC1"/>
		<stop  offset="0.9604" style="stop-color:#6918A7"/>
		<stop  offset="1" style="stop-color:#5F109E"/>
	</linearGradient>
	<polyline style="fill:url(#SVGID_00000173128846697735044290000005056864778185482134_);" points="60.6,85 80.8,81.1 75.6,108 
		60.6,108.6 60.6,85 	"/>
	<polygon class="st12" points="8.2,95.2 80.8,81.1 115.5,103.9 82.3,76.8 51.7,82.2 7.7,93.8 8.9,110.7 	"/>
	
		<linearGradient id="SVGID_00000166650017019552445550000009843274110316648078_" gradientUnits="userSpaceOnUse" x1="56.4477" y1="70.0949" x2="62.5888" y2="100.8008">
		<stop  offset="0" style="stop-color:#B051EE"/>
		<stop  offset="0.3142" style="stop-color:#AE4FEC"/>
		<stop  offset="1" style="stop-color:#5F109E"/>
	</linearGradient>
	<polyline style="fill:url(#SVGID_00000166650017019552445550000009843274110316648078_);" points="82.3,76.8 51.7,82.2 5.7,92.3 
		5.7,85.5 33.3,77.1 67.4,65.8 109.2,57.6 85.1,72.8 115.5,103.9 	"/>
	
		<linearGradient id="SVGID_00000049913686663875136490000009323917043802826139_" gradientUnits="userSpaceOnUse" x1="222.9697" y1="246.214" x2="107.7322" y2="291.731">
		<stop  offset="2.844168e-02" style="stop-color:#B051EE"/>
		<stop  offset="0.2364" style="stop-color:#9239D0"/>
		<stop  offset="0.5286" style="stop-color:#6D1BAC"/>
		<stop  offset="0.6836" style="stop-color:#5F109E"/>
	</linearGradient>
	<path style="fill:url(#SVGID_00000049913686663875136490000009323917043802826139_);" d="M170.9,254.3c-5.8,5.6-0.6,11.8,9.4,21.1
		l0-0.3l38.3-24.4L170.9,254.3z"/>
	
		<linearGradient id="SVGID_00000116216982499307086400000006157318802918825379_" gradientUnits="userSpaceOnUse" x1="138.6392" y1="365.0105" x2="144.4191" y2="365.3717">
		<stop  offset="0.3164" style="stop-color:#5F109E"/>
		<stop  offset="0.4714" style="stop-color:#6D1BAC"/>
		<stop  offset="0.7636" style="stop-color:#9239D0"/>
		<stop  offset="0.9716" style="stop-color:#B051EE"/>
	</linearGradient>
	<path style="fill:url(#SVGID_00000116216982499307086400000006157318802918825379_);" d="M152.8,287.4c4.5-10.8,9.1-22.3,11.9-29.6
		c-0.9,1.5-1.9,3.1-3,4.8c-2.7,5.5-5.9,12.3-9.1,18.8c-7.3,14.9-13.3,24.7-13.5,55.3c-0.3,30.6-4.3,100.8-3.5,117.3
		c0.8,16.5-2.4,19.8,2.2,19.8c3.6,0,3.5-7.9,3.3-26c-0.3-18.2,3.3-75.6,3.5-104.3C144.7,314.8,145.5,304.7,152.8,287.4z"/>
	
		<linearGradient id="SVGID_00000095316326926666026110000012729864086972041876_" gradientUnits="userSpaceOnUse" x1="446.2578" y1="369.1796" x2="385.795" y2="389.9354">
		<stop  offset="0.4945" style="stop-color:#5F109E"/>
		<stop  offset="0.5481" style="stop-color:#6515A4"/>
		<stop  offset="0.6214" style="stop-color:#7723B5"/>
		<stop  offset="0.7057" style="stop-color:#933AD2"/>
		<stop  offset="0.7738" style="stop-color:#B051EE"/>
		<stop  offset="1" style="stop-color:#E7C9FA"/>
	</linearGradient>
	<path style="fill:url(#SVGID_00000095316326926666026110000012729864086972041876_);" d="M410.7,403.6c-15.2-43-30-76-30-98.5
		c-1.1,3.3-2.3,6.8-3.5,10.4c-1.2,10.6-1.3,15.7,5,34.2c8.4,24.4,38.7,113,44.2,112.7C431.9,462.1,427.5,451,410.7,403.6z"/>
	
		<radialGradient id="SVGID_00000119078588592812443460000016619987651927861380_" cx="368.9082" cy="390.1624" r="14.0898" gradientUnits="userSpaceOnUse">
		<stop  offset="0.2424" style="stop-color:#B051EE"/>
		<stop  offset="0.4469" style="stop-color:#BE71F0"/>
		<stop  offset="0.6534" style="stop-color:#C989F2"/>
		<stop  offset="0.8435" style="stop-color:#D098F4"/>
		<stop  offset="1" style="stop-color:#D29DF4"/>
	</radialGradient>
	<path style="fill:url(#SVGID_00000119078588592812443460000016619987651927861380_);" d="M374.7,393.1l-8.7,2.7l-4.9-10.3
		c-6.2-12.5,5.4-7.6,9.5,0C374.7,393.1,374.7,393.1,374.7,393.1z"/>
	
		<linearGradient id="SVGID_00000065064519775119406690000013202124240494408084_" gradientUnits="userSpaceOnUse" x1="489.989" y1="289.4083" x2="378.6344" y2="734.014">
		<stop  offset="0" style="stop-color:#B966F0"/>
		<stop  offset="0.1906" style="stop-color:#B55CEF"/>
		<stop  offset="0.4943" style="stop-color:#B154EE"/>
		<stop  offset="1" style="stop-color:#B051EE"/>
	</linearGradient>
	<path style="fill:url(#SVGID_00000065064519775119406690000013202124240494408084_);" d="M514.3,325.1L479.1,304l-72.3-18.9
		l-1-11.6l-2.3,1.9l9,98.3l9.9,58.7c0,0,8.6,23.4,5.3,33.1c4.3-1.6,0-19.5-2.7-32c-2.7-12.5-10.3-59.1-10.3-59.1l-7.7-86.1
		c34.2,5.9,70.9,17.9,70.9,17.9l34.7,20.8l46.8,37.7l1.8-0.9L514.3,325.1z"/>
	<g>
		
			<linearGradient id="SVGID_00000039852534807108432610000014496597283879320449_" gradientUnits="userSpaceOnUse" x1="524.7261" y1="384.0402" x2="501.2496" y2="477.7747">
			<stop  offset="0" style="stop-color:#B966F0"/>
			<stop  offset="0.1906" style="stop-color:#B55CEF"/>
			<stop  offset="0.4943" style="stop-color:#B154EE"/>
			<stop  offset="1" style="stop-color:#B051EE"/>
		</linearGradient>
		<path style="fill:url(#SVGID_00000039852534807108432610000014496597283879320449_);" d="M523.5,386.1l1.2,0.6l0-0.4
			C524.3,386.3,523.9,386.2,523.5,386.1z"/>
		
			<linearGradient id="SVGID_00000005955789463383993980000017995106755138719916_" gradientUnits="userSpaceOnUse" x1="407.1119" y1="333.9998" x2="559.4434" y2="333.9998">
			<stop  offset="0" style="stop-color:#9A40D9"/>
			<stop  offset="1" style="stop-color:#B051EE"/>
		</linearGradient>
		<path style="fill:url(#SVGID_00000005955789463383993980000017995106755138719916_);" d="M544.9,353.1l-32.2-26L478,306.4
			c0,0-12.8-4.2-30.3-8.8c-12.2-3.2-26.6-6.6-40.6-9.1l0,0.4l7.6,85.7l0,0l113.3,4.9l31.4-14.7L544.9,353.1z"/>
	</g>
	
		<linearGradient id="SVGID_00000092432996614154438590000016645499275882435260_" gradientUnits="userSpaceOnUse" x1="195.3294" y1="116.5054" x2="482.5201" y2="116.5054">
		<stop  offset="0" style="stop-color:#9A40D9"/>
		<stop  offset="1" style="stop-color:#B051EE"/>
	</linearGradient>
	<polygon style="fill:url(#SVGID_00000092432996614154438590000016645499275882435260_);" points="195.3,205.6 482.5,2.9 
		343.3,228.9 339.2,230.1 271,185.8 	"/>
	
		<linearGradient id="SVGID_00000031208523796877436730000008901377906559440540_" gradientUnits="userSpaceOnUse" x1="554.3178" y1="301.3785" x2="758.4082" y2="301.3785">
		<stop  offset="0" style="stop-color:#B051EE"/>
		<stop  offset="1" style="stop-color:#9A40D9"/>
	</linearGradient>
	<path style="fill:url(#SVGID_00000031208523796877436730000008901377906559440540_);" d="M554.3,355.9l31.7-31.9l31-31.3l43.2-21.3
		l53.5-17.9l44.6-6.7l-44.6,8.1l-53.3,18.8l-42.7,21.8L587,327.4C587,327.4,563.3,353.8,554.3,355.9z"/>
</g>
<g>
	<g>
		<path class="st23" d="M261.2,219.6c29.3,0,40.6,21.5,40.6,51.6c0,30.6-11.3,51.9-40.6,51.9c-29.3,0-40.5-21.4-40.5-51.9
			C220.7,241.1,231.9,219.6,261.2,219.6z M261.2,245.5c-12.1,0-13.5,11.7-13.5,25.8c0,14.5,1.4,26.1,13.5,26.1s13.5-11.6,13.5-26.1
			C274.7,257.2,273.4,245.5,261.2,245.5z"/>
	</g>
	<g>
		<path class="st23" d="M356.6,219.6c29.3,0,40.6,21.5,40.6,51.6c0,30.6-11.3,51.9-40.6,51.9c-29.3,0-40.5-21.4-40.5-51.9
			C316.1,241.1,327.3,219.6,356.6,219.6z M356.6,245.5c-12.1,0-13.5,11.7-13.5,25.8c0,14.5,1.4,26.1,13.5,26.1
			c12.1,0,13.5-11.6,13.5-26.1C370.1,257.2,368.7,245.5,356.6,245.5z"/>
	</g>
	<g>
		<path class="st23" d="M170.5,283.3h-19.3l-28.1,1.1V307h45.2H196h10.8v-23.7H196H170.5z"/>
		
			<linearGradient id="SVGID_00000181772431217394134650000013897484996295598001_" gradientUnits="userSpaceOnUse" x1="163.4945" y1="252.2799" x2="181.5527" y2="248.6682">
			<stop  offset="0" style="stop-color:#FFFFFF"/>
			<stop  offset="1" style="stop-color:#BDBBBC"/>
		</linearGradient>
		<polygon style="fill:url(#SVGID_00000181772431217394134650000013897484996295598001_);" points="170.5,254.1 151.2,283.3 
			123.1,284.4 166,223.2 170.5,223.2 		"/>
		
			<linearGradient id="SVGID_00000176034485954563151630000002399178576957611146_" gradientUnits="userSpaceOnUse" x1="182.198" y1="321.8926" x2="182.198" y2="308.8051">
			<stop  offset="0" style="stop-color:#FFFFFF"/>
			<stop  offset="1" style="stop-color:#BDBBBC"/>
		</linearGradient>
		
			<rect x="168.4" y="307" style="fill:url(#SVGID_00000176034485954563151630000002399178576957611146_);" width="27.6" height="16.8"/>
		
			<linearGradient id="SVGID_00000013883438494642182000000009067416618104871080_" gradientUnits="userSpaceOnUse" x1="183.2454" y1="265.3785" x2="183.2454" y2="282.0845">
			<stop  offset="0" style="stop-color:#FFFFFF"/>
			<stop  offset="1" style="stop-color:#BDBBBC"/>
		</linearGradient>
		<polygon style="fill:url(#SVGID_00000013883438494642182000000009067416618104871080_);" points="196,283.3 196,223.2 
			170.5,223.2 170.5,254.1 170.5,283.3 		"/>
	</g>
</g>
</svg>
