<svg xmlns="http://www.w3.org/2000/svg" xml:space="preserve" viewBox="0 0 800 480"><linearGradient id="a" x1="729.872" x2="796.411" y1="396.358" y2="396.358" gradientUnits="userSpaceOnUse"><stop offset="0" stop-color="#906c48"/><stop offset=".483" stop-color="#6d5237"/></linearGradient><path fill="url(#a)" d="m729.87 412.12 66.54-29.67v-1.85l-66.54 1.65z"/><linearGradient id="b" x1="653.585" x2="643.388" y1="398.929" y2="396.766" gradientUnits="userSpaceOnUse"><stop offset="0" stop-color="#906c48"/><stop offset="1" stop-color="#483624"/></linearGradient><path fill="url(#b)" d="M729.87 405.63v-21.12l-80.75 6.8-8.65 35.43 14-2.26z"/><linearGradient id="c" x1="561.503" x2="547.907" y1="390.871" y2="384.69" gradientUnits="userSpaceOnUse"><stop offset="0" stop-color="#906c48"/><stop offset="1" stop-color="#483624"/></linearGradient><path fill="url(#c)" d="m649.97 387.84-10 40.94-103.74-5.74 29.25-55.83 78.08 17.3z"/><linearGradient id="d" x1="503.513" x2="470.758" y1="364.449" y2="337.874" gradientUnits="userSpaceOnUse"><stop offset="0" stop-color="#906c48"/><stop offset="1" stop-color="#483624"/></linearGradient><path fill="url(#d)" d="m536.23 423.04 30.82-58.83-55.13-42.32-52.33 58.71z"/><linearGradient id="e" x1="414.89" x2="511.918" y1="375.861" y2="375.861" gradientUnits="userSpaceOnUse"><stop offset="0" stop-color="#906c48"/><stop offset="1" stop-color="#483624"/></linearGradient><path fill="url(#e)" d="m511.92 321.89-52.33 58.71-44.7 49.23 13.8-80.96z"/><linearGradient id="f" x1="375.032" x2="384.92" y1="408.881" y2="389.516" gradientUnits="userSpaceOnUse"><stop offset="0" stop-color="#906c48"/><stop offset="1" stop-color="#483624"/></linearGradient><path fill="url(#f)" d="m414.89 429.83 13.8-80.96-94.35 29.26 50.62 43.05 28.01 23.84z"/><path fill="#392518" d="M533.75 175.42c.62.62 59.74-14.83 59.74-14.83l53.97-3.5-113.71 18.33z"/><path fill="#906C48" d="m412.97 445.02-28.02-23.83-9.83 22.04 4.33 14.01-10.09-3.91-8.24 5.36s2.27 5.36 2.27 5.97 18.13 7.62 18.13 7.62l8.45-1.24 23-26.02z"/><linearGradient id="g" x1="399.425" x2="394.069" y1="425.317" y2="444.063" gradientUnits="userSpaceOnUse"><stop offset="0" stop-color="#906c48"/><stop offset="1" stop-color="#483624"/></linearGradient><path fill="url(#g)" d="m375.13 443.22 9.83-22.04 28.01 23.84h-5.7l-18.85-9.93-2.78 7.41-4.12-1.39-4.24 9.09z"/><linearGradient id="h" x1="363.079" x2="379.148" y1="460.735" y2="460.735" gradientUnits="userSpaceOnUse"><stop offset="0" stop-color="#906c48"/><stop offset="1" stop-color="#483624"/></linearGradient><path fill="url(#h)" d="m379.15 463.98-.62 1.39h-8.81l-6.64-4.94 3.55-4.33h6.65l-1.24 1.39-5.25-.15-2.63 3.39 5.72 3.56z"/><linearGradient id="i" x1="155.117" x2="316.007" y1="81.196" y2="81.196" gradientUnits="userSpaceOnUse"><stop offset=".627" stop-color="#ad8550"/><stop offset=".888" stop-color="#ae8652"/><stop offset=".982" stop-color="#b18b59"/><stop offset="1" stop-color="#b28c5b"/></linearGradient><path fill="url(#i)" d="m312.92 143.69 3.09-14.01-8.86-20.6-25.55-32.96-8.65-3.5 35.23-29.25v-7.01l-9.68-.41-11.95 7.83-3.5 3.3-27.81 14.62-2.27.21-.41-10.51 17.3-26.78 3.71-8.65 2.68-6.59-2.27-1.65-8.24 6.59-14.62 16.69.41-7.83-3.92-2.06-4.73 19.36-15.04 13.19-8.56 1.58-1.13 5.63-29.25 8.65-22.45 2.68h-7.21l-4.12 13.18 3.91 9.07 16.69 7.83L158 109.5l8.24 4.12 37.91 3.91 7.41 13.8 38.11 8.24 45.12 9.99 4.79 1.86 12.2 3.24-1.39-2.93 3.56.31z"/><linearGradient id="j" x1="220.756" x2="277.304" y1="18.314" y2="52.614" gradientUnits="userSpaceOnUse"><stop offset="0" stop-color="#ad8550"/><stop offset="1" stop-color="#564228"/></linearGradient><path fill="url(#j)" d="M272.95 11.23 265.12 17l-25.95 34.96-7.21 1.71-5.33 2.39-.44 4.2 1.54 1.03.93-3.81 3.3-2.63 7.98-1.85 25.65-34.92z"/><linearGradient id="k" x1="117.497" x2="193.307" y1="106.459" y2="108.107" gradientUnits="userSpaceOnUse"><stop offset="0" stop-color="#ad8550"/><stop offset="1" stop-color="#564228"/></linearGradient><path fill="url(#k)" d="m158 109.5 17.72-7.21L206 113.82l-42.44-2.68z"/><linearGradient id="l" x1="246.377" x2="313.947" y1="139.366" y2="139.366" gradientUnits="userSpaceOnUse"><stop offset="0" stop-color="#ad8550"/><stop offset="1" stop-color="#564228"/></linearGradient><path fill="url(#l)" d="m310.39 151.73 3.56.31-3.56-5.88-12.72-4.53-51.29-14.93 37.9 15.04 22.87 4.84z"/><path fill="#392518" d="m230.21 57.79-.93 3.5 7.57 1.91 2.63-7.27z"/><linearGradient id="m" x1="245.377" x2="241.668" y1="12.871" y2="91.977" gradientUnits="userSpaceOnUse"><stop offset="0" stop-color="#ad8550"/><stop offset=".665" stop-color="#564228"/><stop offset="1" stop-color="#ad8550"/></linearGradient><path fill="url(#m)" d="m251.12 31.01.41-7.83-3.92-2.06-4.73 19.36-10.92 33.79h17.3l3.92-2.89z"/><linearGradient id="n" x1="313.046" x2="200.258" y1="251.026" y2="248.245" gradientUnits="userSpaceOnUse"><stop offset="0" stop-color="#ad8550"/><stop offset="1" stop-color="#564228"/></linearGradient><path fill="url(#n)" d="m249.67 139.57-15.65 32.35 69.01 179.12 6.18 9.78 5.66-171.7-20.08-39.56z"/><linearGradient id="o" x1="400.953" x2="393.382" y1="325.594" y2="316.788" gradientUnits="userSpaceOnUse"><stop offset=".627" stop-color="#ad8550"/><stop offset=".831" stop-color="#ab844f"/><stop offset=".904" stop-color="#a47e4c"/><stop offset=".956" stop-color="#997547"/><stop offset=".998" stop-color="#88693f"/><stop offset="1" stop-color="#87683f"/></linearGradient><path fill="url(#o)" d="m323.68 375.86 3.66 4.33 7-2.06 94.35-29.26 83.23-26.98 3.91-2.89-66.23-53.42z"/><linearGradient id="p" x1="458.351" x2="459.741" y1="272.445" y2="270.746" gradientUnits="userSpaceOnUse"><stop offset="0" stop-color="#ad8550"/><stop offset="1" stop-color="#564228"/></linearGradient><path fill="url(#p)" d="m397.41 217.87-2.18 3.85L515.83 319l11.54-1.85z"/><path fill="#AD8550" d="m408.74 202.2 2.65-2.89 16.48-12.36 161.51 15.25 59.53 7.21-81.86 77.66-6.51-3.71-110.32-61.64z"/><linearGradient id="q" x1="481.258" x2="484.502" y1="248.256" y2="243.003" gradientUnits="userSpaceOnUse"><stop offset="0" stop-color="#ad8550"/><stop offset="1" stop-color="#564228"/></linearGradient><path fill="url(#q)" d="m550.48 295.21 10.06-11.85-110.32-61.64-41.48-19.52.84 7.62 36.16 17.46z"/><path fill="#907450" d="m427.87 186.95 105.88-11.53 113.72-18.34-58.09 45.12z"/><path fill="#AD8550" d="m550.48 295.21-104.74-67.93-36.16-17.46-.84-7.62-6.42 7-4.91 8.67 129.96 99.28 6.59-2.47 16.52-19.47"/><linearGradient id="r" x1="374.03" x2="356.313" y1="306.587" y2="297.111" gradientUnits="userSpaceOnUse"><stop offset=".627" stop-color="#ad8550"/><stop offset=".888" stop-color="#ae8652"/><stop offset=".982" stop-color="#b18b59"/><stop offset="1" stop-color="#b28c5b"/></linearGradient><path fill="url(#r)" d="m387.49 235.36 7.74-13.64 54.37 43.86-125.92 110.28-4.17-4.94z"/><linearGradient id="s" x1="327.082" x2="319.048" y1="257.964" y2="257.655" gradientUnits="userSpaceOnUse"><stop offset="0" stop-color="#ad8550"/><stop offset="1" stop-color="#564228"/></linearGradient><path fill="url(#s)" d="m312.92 143.69 14.01 56.65v7.42l60.56 27.6-67.98 135.56-1.85.41-3.46-4.3 2.84-68.24 2.47-99.48-4.64-10.19v-6.03l-15.29-31.67 12.2 3.24-1.39-2.93 3.56.31z"/><linearGradient id="t" x1="326.53" x2="312.934" y1="259.298" y2="258.679" gradientUnits="userSpaceOnUse"><stop offset=".627" stop-color="#ad8550"/><stop offset=".831" stop-color="#ab844f"/><stop offset=".904" stop-color="#a47e4c"/><stop offset=".956" stop-color="#997547"/><stop offset=".998" stop-color="#88693f"/><stop offset="1" stop-color="#87683f"/></linearGradient><path fill="url(#t)" d="m314.2 367.03 2.84-68.24 2.47-99.48-4.64-10.19v-6.03l-15.29-31.67-4.79-1.86 20.08 39.56-5.66 171.7z"/><path fill="#AD8550" d="M326.93 207.76v-7.42l-14.01-56.65 1.03 8.35-3.56-.31 1.39 2.93-4.63-1.23z"/><linearGradient id="u" x1="155.117" x2="163.563" y1="84.878" y2="84.878" gradientUnits="userSpaceOnUse"><stop offset="0" stop-color="#ad8550"/><stop offset="1" stop-color="#564228"/></linearGradient><path fill="url(#u)" d="m155.12 85.39 3.91 9.07 4.53-16.69-2.06-2.47z"/><linearGradient id="v" x1="138.087" x2="231.408" y1="119.228" y2="50.319" gradientUnits="userSpaceOnUse"><stop offset="0" stop-color="#ad8550"/><stop offset="1" stop-color="#564228"/></linearGradient><path fill="url(#v)" d="M166.55 75.3v7.21l54.23-4.48V75.3l10.2-1.75 3.04-9.27h-6.75l-3.09-3.4 1.55-4.95-3.87.78-.15 3.55 2.01 8.19-3.25-7.11-30.44 9.27z"/><path fill="#B89567" d="m166.55 85.75 54.08-4.55-1.24 34.53-57.32-21.27z"/><linearGradient id="w" x1="255.942" x2="253.79" y1="115.618" y2="153.316" gradientUnits="userSpaceOnUse"><stop offset="0" stop-color="#ad8550"/><stop offset="1" stop-color="#564228"/></linearGradient><path fill="url(#w)" d="m249.67 139.57 45.12 9.99-32.76-14.13-2.15 4.14-45.51-10.2.32 2.07z"/><linearGradient id="x" x1="279.289" x2="212.543" y1="63.229" y2="156.756" gradientUnits="userSpaceOnUse"><stop offset="0" stop-color="#ad8550"/><stop offset="1" stop-color="#564228"/></linearGradient><path fill="url(#x)" d="m214.37 118.35 38.81 17.31-38.81-7.73z"/><linearGradient id="y" x1="243.361" x2="126.088" y1="87.278" y2="170.974" gradientUnits="userSpaceOnUse"><stop offset="0" stop-color="#ad8550"/><stop offset="1" stop-color="#564228"/></linearGradient><path fill="url(#y)" d="m182 112.31 28.71 3.59 2.19 11.88-4.37-10.33z"/><linearGradient id="z" x1="272.952" x2="305.913" y1="55.934" y2="55.934" gradientUnits="userSpaceOnUse"><stop offset="0" stop-color="#ad8550"/><stop offset="1" stop-color="#564228"/></linearGradient><path fill="url(#z)" d="M305.91 39.25v2.47s-7.73 4.79-7.88 5.25-21.49 22.66-21.49 22.66l-3.59 2.98 6.39-11.28 16.84-15.3 9.73-6.78z"/><linearGradient id="A" x1="267.356" x2="238.309" y1="128.049" y2="108.118" gradientUnits="userSpaceOnUse"><stop offset="0" stop-color="#ad8550"/><stop offset="1" stop-color="#564228"/></linearGradient><path fill="url(#A)" d="m249.06 95.8-21.33 22.55.62 2.63 69.99 9.89-57.78-17.54 23.17-4.4z"/><path fill="#B89567" d="M263.73 108.93 249.06 95.8h4.12l28.32 27.19 16.84 7.88-57.78-17.54z"/><linearGradient id="B" x1="257.647" x2="281.192" y1="79.085" y2="79.085" gradientUnits="userSpaceOnUse"><stop offset="0" stop-color="#ad8550"/><stop offset="1" stop-color="#564228"/></linearGradient><path fill="url(#B)" d="M263.04 79.11h15.58l1.55-1.13-13.6-3.71.62-1.65 14.01 5.56-1.03 3.01-4.74 1.31-5.97-2.47-11.8 5.51 5.38-6.43z"/><radialGradient id="C" cx="230.309" cy="101.049" r="39.767" gradientUnits="userSpaceOnUse"><stop offset="0" stop-color="#564228"/><stop offset="1" stop-color="#ad8550"/></radialGradient><path fill="url(#C)" d="m276.4 63.2-7.72 11.07-43.11 44.08-6.18-2.62 1.24-34.53h2.47l2.16 10.42 17.92-6.74L255.85 72z"/><linearGradient id="D" x1="223.007" x2="331.039" y1="20.699" y2="86.227" gradientUnits="userSpaceOnUse"><stop offset="0" stop-color="#ad8550"/><stop offset="1" stop-color="#564228"/></linearGradient><path fill="url(#D)" d="m304.26 37.6-5.92 1.03-11.17 8.03-2.48 2.68-22.86 13.86-8.86-1.29.03 1.29.18 8.18 2.67.62 20.55-8.8-18.69 6.02-4.74-1.87 1.61-2.97 8.46-.21 21.65-14.83 2.48-2.68 11.56-7.41z"/><linearGradient id="E" x1="281.192" x2="314.874" y1="109.457" y2="109.457" gradientUnits="userSpaceOnUse"><stop offset="0" stop-color="#ad8550"/><stop offset="1" stop-color="#564228"/></linearGradient><path fill="url(#E)" d="m281.19 81.2 30.28 46.58 1.45 9.94 1.95-8.35-7.72-18.02z"/><path fill="#FFF" d="M145.8 257.11c30.19 0 41.84 22.14 41.84 53.2 0 31.49-11.65 53.49-41.84 53.49-30.19 0-41.7-22-41.7-53.49.01-31.05 11.51-53.2 41.7-53.2zm0 26.6c-12.51 0-13.95 12.08-13.95 26.6 0 14.95 1.44 26.89 13.95 26.89s13.95-11.93 13.95-26.89c0-14.52-1.44-26.6-13.95-26.6zm100.8 5.61c0-6.04-3.31-8.91-8.05-8.91-6.18 0-8.05 5.32-8.34 10.21h-27.46c.72-21.71 14.09-33.65 36.52-33.65 22.72 0 34.8 12.8 34.8 28.9l-27.47 3.45zm29.33 45.29c0 18.12-12.94 30.63-35.08 30.63-22.72 0-38.68-10.35-39.25-35.37h27.46c-.29 7.48 3.16 12.08 10.64 12.08 5.61 0 8.91-3.88 8.91-9.49l27.32 2.15zM52.34 322.67H32.5l-28.91 1.15v23.3h86.15v-24.45h-37.4z"/><linearGradient id="F" x1="45.157" x2="63.758" y1="290.741" y2="287.021" gradientUnits="userSpaceOnUse"><stop offset="0" stop-color="#fff"/><stop offset="1" stop-color="#bdbbbc"/></linearGradient><path fill="url(#F)" d="M52.34 292.61 32.5 322.67l-28.91 1.15 44.15-62.99h4.6z"/><linearGradient id="G" x1="64.422" x2="64.422" y1="362.444" y2="348.964" gradientUnits="userSpaceOnUse"><stop offset="0" stop-color="#fff"/><stop offset="1" stop-color="#bdbbbc"/></linearGradient><path fill="url(#G)" d="M50.18 347.12h28.48v17.26H50.18z"/><linearGradient id="H" x1="65.501" x2="65.501" y1="304.233" y2="321.441" gradientUnits="userSpaceOnUse"><stop offset="0" stop-color="#fff"/><stop offset="1" stop-color="#bdbbbc"/></linearGradient><path fill="url(#H)" d="M78.66 322.67v-61.84H52.34v61.84z"/><linearGradient id="I" x1="231.904" x2="253.672" y1="310.241" y2="310.241" gradientUnits="userSpaceOnUse"><stop offset="0" stop-color="#bdbbbc"/><stop offset=".077" stop-color="#c8c6c7"/><stop offset=".285" stop-color="#e0dfe0"/><stop offset=".503" stop-color="#f1f1f1"/><stop offset=".734" stop-color="#fcfcfc"/><stop offset="1" stop-color="#fff"/></linearGradient><path fill="url(#I)" d="M274.06 285.87c0 14.38-8.91 21.28-15.53 23.44v.58c10.06 3.74 17.4 11.22 17.4 24.73l-27.32-2.16c0-7.19-4.31-10.64-14.95-10.64h-5.03v-22.86h4.89c5.46.14 13.08-.72 13.08-9.63l27.46-3.46z"/></svg>