<?xml version="1.0" encoding="utf-8"?>
<!-- Generator: Adobe Illustrator 27.1.1, SVG Export Plug-In . SVG Version: 6.00 Build 0)  -->
<svg version="1.1" id="Layer_1" xmlns="http://www.w3.org/2000/svg" xmlns:xlink="http://www.w3.org/1999/xlink" x="0px" y="0px"
	 width="800px" height="480px" viewBox="0 0 800 480" style="enable-background:new 0 0 800 480;" xml:space="preserve">
<style type="text/css">
	.st0{fill:#00C8F0;}
	.st1{fill:url(#SVGID_1_);}
	.st2{fill:url(#SVGID_00000145053598737107402170000002322688054307019650_);}
	.st3{fill:url(#SVGID_00000064338442058385507920000001148007125334771365_);}
	.st4{fill:url(#SVGID_00000004517116290515815630000014390175394556388501_);}
	.st5{opacity:0.8;fill:#0289C4;enable-background:new    ;}
	.st6{fill:#0289C4;}
	.st7{fill:url(#SVGID_00000018218179648074909090000006924508422561597334_);}
	.st8{fill:url(#SVGID_00000067956210502781890820000010352035275647770761_);}
	.st9{fill:url(#SVGID_00000062160015457152569760000016240305984409614246_);}
	.st10{fill:url(#SVGID_00000088837874542647969510000014278922886831947199_);}
	.st11{fill:url(#SVGID_00000078729849136109315840000009676274091356239772_);}
	.st12{fill:url(#SVGID_00000078041495230198353730000012270880217306315423_);}
	.st13{fill:url(#SVGID_00000108273285289223019600000005356298851160451228_);}
	.st14{fill:url(#SVGID_00000060012714345881024770000010824532114412935575_);}
	.st15{fill:url(#SVGID_00000013165866605653251550000003293516128052371859_);}
	.st16{fill:url(#SVGID_00000098214917530054069100000012968729974533635250_);}
	.st17{fill:url(#SVGID_00000152986550043813337230000009966216907966299027_);}
	.st18{fill:url(#SVGID_00000141417828987397757160000009454416935665892780_);}
	.st19{fill:url(#SVGID_00000034077391993476876070000015314584597905466277_);}
	.st20{fill:url(#SVGID_00000113329713340923094080000004441660222122053295_);}
	.st21{fill:url(#SVGID_00000109024432400195300530000015854991635345113259_);}
	.st22{fill:url(#SVGID_00000007429529989348172320000016422874743065460610_);}
	.st23{fill:url(#SVGID_00000120528699583582942810000004129293989069332144_);}
	.st24{fill:#006F96;}
	.st25{fill:#FFFFFF;}
	.st26{fill:url(#SVGID_00000003802306154388132370000009595759416067558576_);}
	.st27{fill:url(#SVGID_00000121999393523396837260000004840204206218365076_);}
	.st28{fill:url(#SVGID_00000036209027448296683690000006062079307899395474_);}
</style>
<g>
	<path class="st0" d="M789.2,133.5l-63.7,8.6l55,165.5l-85.7,89.2l7.1,32.2c0,0,21.2-6,35,6.3c-6.3,9-20.8,11.8-20.8,11.8
		s20.2,5.9,18,11c-2.3,5.1-5.8,8.6-32.5,6.7c-26.7-2-61.6-28-61.6-28l-10.8-14.1l-1.6-12.2l-84.1-1.6V401l-102.2,0.4V423l19.7,7.5
		l-28.3,13.8l-18.5-6.3l-4.3,13.4l12.6,7.1L406.3,469h-13.8l-15.7-12.4L359.9,400v-8.3c0,0-107.7,0-121.5-2s-14.5-18.9-14.5-18.9
		s-63.7-9.4-83.7-13.4s-20.8-21.2-20.8-21.2s-22.8-3.1-33.8-5.1s-17.7-23-17.7-23L21,303.7L8.4,293.5l71.6,0.4
		c0,0,4.4-1.2,13.3,11.7c0,0,33.3-3.6,42-4.3c8.6-0.8,10.9,12.4,10.9,12.4l93.1-12.4l10.2,1.7l162.4-35.4l-137.2-127l2-7.1
		l-43.2-84.9L301.9,62l3.9-13.4l137.6,19.7l185.6,151l-8.6,22.4L664,270l5.1,10.2l-11-138L701.2,93l-47.6-20.1l-37.3-20.1
		l-14.9-18.5l40.1,16.9l44,17.3L784.2,85c0,0,12.2,1.6,11.4,6.7C794.7,96.9,789.2,133.5,789.2,133.5z"/>
	
		<linearGradient id="SVGID_1_" gradientUnits="userSpaceOnUse" x1="346.9249" y1="71.0766" x2="371.3005" y2="90.7344" gradientTransform="matrix(1 0 0 -1 0 482)">
		<stop  offset="0" style="stop-color:#0289C4"/>
		<stop  offset="4.478818e-02" style="stop-color:#028FC8"/>
		<stop  offset="0.2606" style="stop-color:#01A8DA"/>
		<stop  offset="0.4858" style="stop-color:#00BAE6"/>
		<stop  offset="0.7247" style="stop-color:#00C5EE"/>
		<stop  offset="1" style="stop-color:#00C8F0"/>
	</linearGradient>
	<path class="st1" d="M238.4,389.8c13.8,2,121.5,2,121.5,2v8.3l16.9,56.6l15.7,12.4h13.8l16.1-10.4l-12.6-7.1l4.3-13.4l4.6-8.8
		l18.8-137.9l-25.8-23.9l-51.9,124.2L238.4,389.8z"/>
	
		<linearGradient id="SVGID_00000124125564285250557510000012759679239284459660_" gradientUnits="userSpaceOnUse" x1="425.8241" y1="201.7562" x2="399.8759" y2="28.6699" gradientTransform="matrix(1 0 0 -1 0 482)">
		<stop  offset="0" style="stop-color:#0289C4"/>
		<stop  offset="0.227" style="stop-color:#01A9DA"/>
		<stop  offset="0.4033" style="stop-color:#00BDE8"/>
		<stop  offset="1" style="stop-color:#0289C4"/>
	</linearGradient>
	<polygon style="fill:url(#SVGID_00000124125564285250557510000012759679239284459660_);" points="421.4,269.9 406.1,409.4 
		400.2,440.6 394.6,455.6 398.1,455.6 399.6,451.2 404.3,446.2 404.3,439.4 408,410.6 432.6,274.9 	"/>
	<g>
		
			<linearGradient id="SVGID_00000093881737684790472810000011548726322922056868_" gradientUnits="userSpaceOnUse" x1="398.75" y1="22.222" x2="398.75" y2="375.6491" gradientTransform="matrix(1 0 0 -1 0 482)">
			<stop  offset="0.1598" style="stop-color:#0289C4"/>
			<stop  offset="0.9752" style="stop-color:#00095C"/>
		</linearGradient>
		<path style="fill:url(#SVGID_00000093881737684790472810000011548726322922056868_);" d="M411.8,267.5l-51.9,124.2v8.3l1.2,3.9
			c1.2-5.8,5.5-14.8,19.1-25.5c23.6-18.6,31.6-10.4,31.6-10.4l-3,15.5c0,0,0,0,5.4-3.2c4.4-2.6,6.6-3.5,11.1,1.4l12.3-90.1
			L411.8,267.5z"/>
		
			<linearGradient id="SVGID_00000067938689148934947890000001279990456546786953_" gradientUnits="userSpaceOnUse" x1="408.9688" y1="152.35" x2="430.7794" y2="152.35" gradientTransform="matrix(1 0 0 -1 0 482)">
			<stop  offset="0.1598" style="stop-color:#0289C4"/>
			<stop  offset="0.9752" style="stop-color:#00095C"/>
		</linearGradient>
		<path style="fill:url(#SVGID_00000067938689148934947890000001279990456546786953_);" d="M430.8,285.2l-10-9.3l-10,91.4
			c0.7,0.4,1.1,0.7,1.1,0.7l-2.6,13.2l-0.2,2.2c0.4-0.2,1.5-0.9,4.5-2.7L430.8,285.2z"/>
		<path class="st5" d="M352.5,391.8c4.7,0,7.4,0,7.4,0l-7.5-0.1L352.5,391.8z"/>
	</g>
	<polygon class="st6" points="464.6,316.6 493.1,343.9 439.3,391.8 445.3,298.7 	"/>
	
		<linearGradient id="SVGID_00000090260453724643316960000015408092465662914438_" gradientUnits="userSpaceOnUse" x1="8.4" y1="181.15" x2="67.8" y2="181.15" gradientTransform="matrix(1 0 0 -1 0 482)">
		<stop  offset="0" style="stop-color:#00BDE8"/>
		<stop  offset="0.4371" style="stop-color:#01A9DA"/>
		<stop  offset="1" style="stop-color:#0289C4"/>
	</linearGradient>
	<polyline style="fill:url(#SVGID_00000090260453724643316960000015408092465662914438_);" points="67.8,308.2 21,303.7 8.4,293.5 	
		"/>
	
		<linearGradient id="SVGID_00000171680592369655782570000002456532564370489766_" gradientUnits="userSpaceOnUse" x1="114.4" y1="145.95" x2="249.5" y2="145.95" gradientTransform="matrix(1 0 0 -1 0 482)">
		<stop  offset="0" style="stop-color:#00BDE8"/>
		<stop  offset="0.4371" style="stop-color:#01A9DA"/>
		<stop  offset="1" style="stop-color:#0289C4"/>
	</linearGradient>
	<path style="fill:url(#SVGID_00000171680592369655782570000002456532564370489766_);" d="M223.9,370.9c0,0-63.7-9.4-83.7-13.4
		s-20.8-21.2-20.8-21.2l-5-18.5l124.9-16.6l10.2,1.7l-41.9,9.1L223.9,370.9z"/>
	
		<linearGradient id="SVGID_00000147198055262031571050000006071029989383274925_" gradientUnits="userSpaceOnUse" x1="649.8711" y1="39.4651" x2="670.3152" y2="72.0969" gradientTransform="matrix(1 0 0 -1 0 482)">
		<stop  offset="0" style="stop-color:#0289C4"/>
		<stop  offset="4.478818e-02" style="stop-color:#028FC8"/>
		<stop  offset="0.2606" style="stop-color:#01A8DA"/>
		<stop  offset="0.4858" style="stop-color:#00BAE6"/>
		<stop  offset="0.7247" style="stop-color:#00C5EE"/>
		<stop  offset="1" style="stop-color:#00C8F0"/>
	</linearGradient>
	<path style="fill:url(#SVGID_00000147198055262031571050000006071029989383274925_);" d="M716.1,447.2c0,0,20.2,5.9,18,11
		c-2.3,5.1-5.8,8.6-32.5,6.7c-26.7-2-61.6-28-61.6-28l-10.8-14.1l-1.6-12.2l36.2-140.7l34.6,165.4L716.1,447.2z"/>
	
		<linearGradient id="SVGID_00000152256802761041897590000010092804346835282584_" gradientUnits="userSpaceOnUse" x1="735.4132" y1="128.807" x2="700.8157" y2="166.943" gradientTransform="matrix(1 0 0 -1 0 482)">
		<stop  offset="0" style="stop-color:#0289C4"/>
		<stop  offset="0.5629" style="stop-color:#01A9DA"/>
		<stop  offset="1" style="stop-color:#00BDE8"/>
	</linearGradient>
	<polygon style="fill:url(#SVGID_00000152256802761041897590000010092804346835282584_);" points="694.9,396.9 777.3,311 
		679.9,286.4 	"/>
	
		<linearGradient id="SVGID_00000047766061055884271620000010027946928997922735_" gradientUnits="userSpaceOnUse" x1="750.3469" y1="346.0643" x2="753.4921" y2="463.2243" gradientTransform="matrix(1 0 0 -1 0 482)">
		<stop  offset="0" style="stop-color:#0289C4"/>
		<stop  offset="4.478818e-02" style="stop-color:#028FC8"/>
		<stop  offset="0.2606" style="stop-color:#01A8DA"/>
		<stop  offset="0.4858" style="stop-color:#00BAE6"/>
		<stop  offset="0.7247" style="stop-color:#00C5EE"/>
		<stop  offset="1" style="stop-color:#00C8F0"/>
	</linearGradient>
	<path style="fill:url(#SVGID_00000047766061055884271620000010027946928997922735_);" d="M789.2,133.5c0,0,5.5-36.6,6.3-41.7
		c-6.7,1.2-26.7-2.6-54.8-3.9c-28.1-1.4-35.2-2.9-32.6,5.1c2.6,8.1,17.5,49.1,17.5,49.1L789.2,133.5z"/>
	<path class="st6" d="M601.3,34.4l14.9,18.5L653.5,73l47.7,20c5.9-7.5,4.1-10.4,13.2-10.4s26.5,0.8,42.7,3.1
		c16.1,2.4,27.5,4.1,29.5,3.5s1.8-2.4-9.8-3.9s-92.2-14.5-92.2-14.5s-32.2-0.8-46-8.6s-17.3-14.7-17.3-14.7l47,18.5l7,1l-54.5-22.4
		L601.3,34.4z"/>
	
		<linearGradient id="SVGID_00000137839422642819828220000008122324142814930095_" gradientUnits="userSpaceOnUse" x1="681.0119" y1="156.1035" x2="679.4395" y2="380.2017" gradientTransform="matrix(1 0 0 -1 0 482)">
		<stop  offset="0" style="stop-color:#0289C4"/>
		<stop  offset="4.478818e-02" style="stop-color:#028FC8"/>
		<stop  offset="0.2606" style="stop-color:#01A8DA"/>
		<stop  offset="0.4858" style="stop-color:#00BAE6"/>
		<stop  offset="0.7247" style="stop-color:#00C5EE"/>
		<stop  offset="1" style="stop-color:#00C8F0"/>
	</linearGradient>
	<polygon style="fill:url(#SVGID_00000137839422642819828220000008122324142814930095_);" points="668.9,280.1 657.9,142.1 
		701.2,93 661.5,144.5 673.1,275.4 677.6,290.3 677.2,321 	"/>
	<path class="st6" d="M694.9,396.9l7.1,32.2c0,0,21.2-6,35,6.3c-6.3,9-20.8,11.8-20.8,11.8l-21.2-3.6L694.9,396.9L694.9,396.9z"/>
	
		<linearGradient id="SVGID_00000164481752006005319980000004722785554452099497_" gradientUnits="userSpaceOnUse" x1="-1742.6493" y1="-2158.9846" x2="-1743.9087" y2="-2167.3806" gradientTransform="matrix(0.8728 -0.4882 -0.4882 -0.8728 1184.6967 -2297.4897)">
		<stop  offset="0.1598" style="stop-color:#0289C4"/>
		<stop  offset="0.6257" style="stop-color:#04769E"/>
		<stop  offset="1" style="stop-color:#0289C4"/>
	</linearGradient>
	<path style="fill:url(#SVGID_00000164481752006005319980000004722785554452099497_);" d="M706.9,444.6c0,0,26.1-1.9,24.2-7.2
		C729.1,432.1,706.9,444.6,706.9,444.6z"/>
	
		<linearGradient id="SVGID_00000044150422023532745130000012927145426974221996_" gradientUnits="userSpaceOnUse" x1="708.8784" y1="29.606" x2="707.6584" y2="21.4719" gradientTransform="matrix(1 0 0 -1 0 482)">
		<stop  offset="0" style="stop-color:#0289C4"/>
		<stop  offset="0.5035" style="stop-color:#00BDE8"/>
		<stop  offset="1" style="stop-color:#028DC7"/>
	</linearGradient>
	<path style="fill:url(#SVGID_00000044150422023532745130000012927145426974221996_);" d="M690.6,453.3c0,0,34.5,11.5,35.4,5.9
		S690.6,453.3,690.6,453.3z"/>
	
		<linearGradient id="SVGID_00000120548629658313708290000014074341434680442552_" gradientUnits="userSpaceOnUse" x1="685.2035" y1="21.6663" x2="684.1583" y2="170.6234" gradientTransform="matrix(1 0 0 -1 0 482)">
		<stop  offset="0" style="stop-color:#0289C4"/>
		<stop  offset="4.478818e-02" style="stop-color:#028FC8"/>
		<stop  offset="0.2606" style="stop-color:#01A8DA"/>
		<stop  offset="0.4858" style="stop-color:#00BAE6"/>
		<stop  offset="0.7247" style="stop-color:#00C5EE"/>
		<stop  offset="1" style="stop-color:#00C8F0"/>
	</linearGradient>
	<polygon style="fill:url(#SVGID_00000120548629658313708290000014074341434680442552_);" points="692.1,457 677.2,321 677.4,305.7 
		692.1,441.9 	"/>
	
		<linearGradient id="SVGID_00000147924843845273275810000000305317614111127727_" gradientUnits="userSpaceOnUse" x1="543.5" y1="155.9" x2="663.8" y2="155.9" gradientTransform="matrix(1 0 0 -1 0 482)">
		<stop  offset="0" style="stop-color:#0289C4"/>
		<stop  offset="0.5629" style="stop-color:#01A9DA"/>
		<stop  offset="1" style="stop-color:#00BDE8"/>
	</linearGradient>
	<polygon style="fill:url(#SVGID_00000147924843845273275810000000305317614111127727_);" points="620.2,241.6 663.8,269.9 
		627.6,410.6 543.5,409.1 543.5,401.2 553.3,404.3 	"/>
	<path class="st6" d="M576.7,384.3c10.6-13.4,45.6-94.4,47.6-105c1.4-7.3-6.8-14.6-12-18.5l-58.9,143.5l11-2.2
		C564.3,402.2,566.1,397.7,576.7,384.3z"/>
	
		<linearGradient id="SVGID_00000031173425990229962160000016909827527429822121_" gradientUnits="userSpaceOnUse" x1="131.7088" y1="240.7322" x2="410.0623" y2="114.5296" gradientTransform="matrix(1 0 0 -1 0 482)">
		<stop  offset="0" style="stop-color:#00BDE8"/>
		<stop  offset="0.2829" style="stop-color:#01A9DA"/>
		<stop  offset="0.6472" style="stop-color:#0289C4"/>
		<stop  offset="0.6495" style="stop-color:#0288C3"/>
		<stop  offset="0.705" style="stop-color:#0775B4"/>
		<stop  offset="0.7692" style="stop-color:#0B67A8"/>
		<stop  offset="0.8501" style="stop-color:#0D5FA2"/>
		<stop  offset="1" style="stop-color:#0E5DA0"/>
	</linearGradient>
	<path style="fill:url(#SVGID_00000031173425990229962160000016909827527429822121_);" d="M207.5,312l204.3-44.5l-51.9,124.2
		c0,0-107.7,0-121.5-2s-14.5-18.9-14.5-18.9L207.5,312z"/>
	
		<linearGradient id="SVGID_00000136400590276721343580000001740923545584652204_" gradientUnits="userSpaceOnUse" x1="67.8" y1="163.2175" x2="146.2" y2="163.2175" gradientTransform="matrix(1 0 0 -1 0 482)">
		<stop  offset="0" style="stop-color:#00BDE8"/>
		<stop  offset="0.4371" style="stop-color:#01A9DA"/>
		<stop  offset="1" style="stop-color:#0289C4"/>
	</linearGradient>
	<path style="fill:url(#SVGID_00000136400590276721343580000001740923545584652204_);" d="M119.3,336.3c0,0-22.8-3.1-33.8-5.1
		s-17.7-23-17.7-23l25.5-2.6c0,0,33.3-3.6,42-4.3c8.6-0.8,10.9,12.4,10.9,12.4l-31.8,4.2L119.3,336.3z"/>
	
		<linearGradient id="SVGID_00000106111904561257081330000014813548462224533381_" gradientUnits="userSpaceOnUse" x1="455.4245" y1="226.5475" x2="427.5107" y2="-52.9854" gradientTransform="matrix(1 0 0 -1 0 482)">
		<stop  offset="0.1598" style="stop-color:#0289C4"/>
		<stop  offset="0.9752" style="stop-color:#00095C"/>
	</linearGradient>
	<polygon style="fill:url(#SVGID_00000106111904561257081330000014813548462224533381_);" points="441.3,401.6 441.3,423.2 
		460.9,430.7 432.6,444.4 414.2,438.2 418.7,429.7 437.6,291.4 445.3,298.7 439.3,391.8 432.6,397.7 	"/>
	
		<linearGradient id="SVGID_00000129922674729766603890000012152557992419464087_" gradientUnits="userSpaceOnUse" x1="345.7742" y1="154.2225" x2="558.0778" y2="75.5916" gradientTransform="matrix(1 0 0 -1 0 482)">
		<stop  offset="0.1598" style="stop-color:#0289C4"/>
		<stop  offset="0.5913" style="stop-color:#00518F"/>
		<stop  offset="1" style="stop-color:#0289C4"/>
	</linearGradient>
	<polygon style="fill:url(#SVGID_00000129922674729766603890000012152557992419464087_);" points="543.5,401.2 441.3,401.6 
		432.6,397.7 493.1,343.9 543.5,392.1 553.3,404.3 	"/>
	
		<linearGradient id="SVGID_00000159449751553899538080000005112123871528857017_" gradientUnits="userSpaceOnUse" x1="588.6649" y1="98.8226" x2="581.883" y2="46.0416" gradientTransform="matrix(1 0 0 -1 0 482)">
		<stop  offset="0.1598" style="stop-color:#0289C4"/>
		<stop  offset="0.9752" style="stop-color:#00095C"/>
	</linearGradient>
	<polygon style="fill:url(#SVGID_00000159449751553899538080000005112123871528857017_);" points="543.5,401.2 543.5,409.1 
		627.6,410.6 628.8,404.3 	"/>
	
		<linearGradient id="SVGID_00000043432963827557423490000016412529481315096759_" gradientUnits="userSpaceOnUse" x1="431.05" y1="377.8304" x2="431.05" y2="90.7454" gradientTransform="matrix(1 0 0 -1 0 482)">
		<stop  offset="0" style="stop-color:#0289C4"/>
		<stop  offset="0.5629" style="stop-color:#01A9DA"/>
		<stop  offset="1" style="stop-color:#00BDE8"/>
	</linearGradient>
	<polygon style="fill:url(#SVGID_00000043432963827557423490000016412529481315096759_);" points="628.8,219.2 443.3,68.2 
		305.7,48.5 301.7,61.9 233.3,48.5 276.6,133.5 274.6,140.5 411.8,267.5 464.6,316.6 543.5,392.1 553.3,404.3 612.3,260.8 
		620.2,241.6 	"/>
	
		<linearGradient id="SVGID_00000042724301253037558430000014445281720283544470_" gradientUnits="userSpaceOnUse" x1="451.7" y1="356.3941" x2="451.7" y2="173.7474" gradientTransform="matrix(1 0 0 -1 0 482)">
		<stop  offset="0" style="stop-color:#0289C4"/>
		<stop  offset="0.5629" style="stop-color:#01A9DA"/>
		<stop  offset="1" style="stop-color:#00BDE8"/>
	</linearGradient>
	<polygon style="fill:url(#SVGID_00000042724301253037558430000014445281720283544470_);" points="411.8,267.5 274.6,140.5 
		276.6,133.5 293.9,90.2 628.8,219.2 464.6,316.6 	"/>
	<polyline class="st6" points="301.7,61.9 233.3,48.5 292.8,93 301.7,61.9 	"/>
	<polygon class="st24" points="233.3,48.5 276.6,133.5 292.8,93 	"/>
	<polygon class="st0" points="628.8,219.2 443.3,68.2 305.7,48.5 293.9,90.2 	"/>
	<polyline class="st6" points="406.3,469 392.5,469 376.8,456.6 	"/>
</g>
<g>
	<g>
		<g>
			<path class="st25" d="M478,217.8c30.2,0,41.8,22.1,41.8,53.2c0,31.5-11.6,53.5-41.8,53.5c-30.2,0-41.7-22-41.7-53.5
				C436.3,239.9,447.8,217.8,478,217.8z M478,244.4c-12.5,0-13.9,12.1-13.9,26.6c0,15,1.4,26.9,13.9,26.9s13.9-11.9,13.9-26.9
				C491.9,256.5,490.5,244.4,478,244.4z"/>
		</g>
		
			<linearGradient id="SVGID_00000139998675402201868350000009316197800629465512_" gradientUnits="userSpaceOnUse" x1="373.7873" y1="232.3972" x2="390.9681" y2="232.3972">
			<stop  offset="0" style="stop-color:#BDBBBC"/>
			<stop  offset="7.664478e-02" style="stop-color:#C8C6C7"/>
			<stop  offset="0.2852" style="stop-color:#E0DFE0"/>
			<stop  offset="0.5029" style="stop-color:#F1F1F1"/>
			<stop  offset="0.7338" style="stop-color:#FCFCFC"/>
			<stop  offset="1" style="stop-color:#FFFFFF"/>
		</linearGradient>
		
			<rect x="372.9" y="220" style="fill:url(#SVGID_00000139998675402201868350000009316197800629465512_);" width="42.8" height="24.9"/>
		<path class="st25" d="M372.9,283.5H347V220h25.9v24.9v16V283.5z"/>
		<path class="st25" d="M421.4,288.7c0,22.6-13.4,36.4-36.4,36.4c-24.4,0-38.5-13.5-38.7-32.4h26.5c0.4,3.9,4.1,8.2,11,8.2
			c7,0,10.2-5.3,10.2-12.7"/>
		
			<linearGradient id="SVGID_00000170996501435848489150000015522931585340549556_" gradientUnits="userSpaceOnUse" x1="373.7873" y1="271.5784" x2="390.9681" y2="271.5784">
			<stop  offset="0" style="stop-color:#BDBBBC"/>
			<stop  offset="7.664478e-02" style="stop-color:#C8C6C7"/>
			<stop  offset="0.2852" style="stop-color:#E0DFE0"/>
			<stop  offset="0.5029" style="stop-color:#F1F1F1"/>
			<stop  offset="0.7338" style="stop-color:#FCFCFC"/>
			<stop  offset="1" style="stop-color:#FFFFFF"/>
		</linearGradient>
		<path style="fill:url(#SVGID_00000170996501435848489150000015522931585340549556_);" d="M394.1,288.3c0-7.6-3.9-11.5-10.6-11.5
			c-5.5,0-10,3.2-10.6,6.8v-22.7c3.6-3.7,9.9-6.3,17.6-6.3c21.7,0,30.9,16.7,30.9,34.2L394.1,288.3z"/>
	</g>
	<g>
		<g>
			
				<linearGradient id="SVGID_00000127751165246893712130000005784098747065250487_" gradientUnits="userSpaceOnUse" x1="537.5539" y1="313.4146" x2="612.3" y2="313.4146">
				<stop  offset="0" style="stop-color:#BDBBBC"/>
				<stop  offset="7.664478e-02" style="stop-color:#C8C6C7"/>
				<stop  offset="0.2852" style="stop-color:#E0DFE0"/>
				<stop  offset="0.5029" style="stop-color:#F1F1F1"/>
				<stop  offset="0.7338" style="stop-color:#FCFCFC"/>
				<stop  offset="1" style="stop-color:#FFFFFF"/>
			</linearGradient>
			<polygon style="fill:url(#SVGID_00000127751165246893712130000005784098747065250487_);" points="575.7,301.8 612.3,301.8 
				612.3,325.1 537.6,325.1 537.6,303.5 			"/>
			<g>
				<path class="st25" d="M537.6,325.1v-21.5c21.8-17.1,44.7-35.5,44.7-52.2c0-6.2-2.8-10-8.4-10c-5.4,0-9.1,4.5-8.8,14.1h-27.8
					c0.9-27.3,18.6-38.3,38.4-38.3c25.5,0,35.6,14.5,35.6,32.1c0,21.1-16.6,38.7-33,50.6c-0.9,0.6-33.2,25.2-33.2,25.2H537.6z"/>
			</g>
		</g>
	</g>
</g>
</svg>
