<?xml version="1.0" encoding="utf-8"?>
<!-- Generator: Adobe Illustrator 27.1.1, SVG Export Plug-In . SVG Version: 6.00 Build 0)  -->
<svg version="1.1" id="Layer_1" xmlns="http://www.w3.org/2000/svg" xmlns:xlink="http://www.w3.org/1999/xlink" x="0px" y="0px"
	 width="800px" height="480px" viewBox="0 0 800 480" enable-background="new 0 0 800 480" xml:space="preserve">
<g>
	<linearGradient id="SVGID_1_" gradientUnits="userSpaceOnUse" x1="435.5165" y1="203.3229" x2="464.8377" y2="165.2054">
		<stop  offset="0" style="stop-color:#A3D260"/>
		<stop  offset="0.3719" style="stop-color:#699A3A"/>
		<stop  offset="0.4085" style="stop-color:#6FA03E"/>
		<stop  offset="0.6165" style="stop-color:#8BBB51"/>
		<stop  offset="0.7975" style="stop-color:#9DCC5C"/>
		<stop  offset="0.9302" style="stop-color:#A3D260"/>
	</linearGradient>
	<polygon fill="url(#SVGID_1_)" points="777.04,126.76 777.04,157.39 781.61,199.74 794.64,255.12 785.84,260.99 736,274.02 
		707.33,252.52 678,381.53 690.38,394.56 681.26,416.72 661.06,464.28 537.91,404.99 393.91,394.56 59.65,397.17 25.77,403.03 
		2.97,406.29 32.29,382.84 62.26,367.85 120.9,302.69 158.69,311.24 171.74,311.16 161.95,270.76 137.41,229.5 109.82,223.2 
		70.73,126.76 74.64,118.29 136.97,195.61 144.36,177.8 215.16,203 216.47,196.92 243.83,206.91 244.7,199.52 252,203.88 
		271.2,160.86 278.47,166.2 286.84,139.14 277.13,133.2 282.06,93.53 282.93,72.25 259.47,55.31 263.82,4.48 411.94,147.4 
		429.75,134.8 533.57,236.88 594.38,162.17 732.09,143.92 753.37,181.71 764.23,153.48 	"/>
	
		<linearGradient id="SVGID_00000104677415951822927470000015850156103899494591_" gradientUnits="userSpaceOnUse" x1="802.7569" y1="385.4443" x2="656.1509" y2="401.7338">
		<stop  offset="0" style="stop-color:#76A541"/>
		<stop  offset="0.274" style="stop-color:#73A340"/>
		<stop  offset="0.4453" style="stop-color:#6B9B3B"/>
		<stop  offset="0.5884" style="stop-color:#5C8E33"/>
		<stop  offset="0.7159" style="stop-color:#487C28"/>
		<stop  offset="0.8321" style="stop-color:#2D651A"/>
		<stop  offset="0.8477" style="stop-color:#296118"/>
		<stop  offset="0.9487" style="stop-color:#213310"/>
	</linearGradient>
	<polygon fill="url(#SVGID_00000104677415951822927470000015850156103899494591_)" points="678,381.53 690.38,394.56 681.26,416.72 
		673.88,408.9 	"/>
	
		<linearGradient id="SVGID_00000008846670112949556100000016716873660778831232_" gradientUnits="userSpaceOnUse" x1="673.8777" y1="141.7496" x2="673.8777" y2="222.4466">
		<stop  offset="0" style="stop-color:#A3DA6A"/>
		<stop  offset="0.4632" style="stop-color:#6CA345"/>
		<stop  offset="0.8122" style="stop-color:#49802D"/>
		<stop  offset="1" style="stop-color:#3C7324"/>
	</linearGradient>
	<polyline fill="url(#SVGID_00000008846670112949556100000016716873660778831232_)" points="753.37,181.71 732.09,143.92 
		594.38,162.17 720.79,187.23 749.03,220.81 749.03,199.52 753.37,181.71 	"/>
	
		<linearGradient id="SVGID_00000150092885179550564480000007907582546985617324_" gradientUnits="userSpaceOnUse" x1="789.5018" y1="190.5606" x2="766.6964" y2="192.9497">
		<stop  offset="0" style="stop-color:#76A541"/>
		<stop  offset="0.2437" style="stop-color:#73A340"/>
		<stop  offset="0.3961" style="stop-color:#6B9B3B"/>
		<stop  offset="0.5234" style="stop-color:#5C8E33"/>
		<stop  offset="0.6368" style="stop-color:#487C28"/>
		<stop  offset="0.7402" style="stop-color:#2D651A"/>
		<stop  offset="0.754" style="stop-color:#296118"/>
		<stop  offset="1" style="stop-color:#213310"/>
	</linearGradient>
	<polygon fill="url(#SVGID_00000150092885179550564480000007907582546985617324_)" points="777.04,126.76 777.04,157.39 
		781.61,199.74 794.64,255.12 781.17,240.36 775.09,213.42 766.4,160.86 772.92,146.53 	"/>
	
		<linearGradient id="SVGID_00000094595608466466867310000009735050863002119826_" gradientUnits="userSpaceOnUse" x1="757.1033" y1="257.0498" x2="784.4698" y2="194.4979">
		<stop  offset="0" style="stop-color:#3C7324"/>
		<stop  offset="0.2033" style="stop-color:#61983D"/>
		<stop  offset="0.4067" style="stop-color:#7EB551"/>
		<stop  offset="0.6092" style="stop-color:#92C95F"/>
		<stop  offset="0.8083" style="stop-color:#9FD667"/>
		<stop  offset="1" style="stop-color:#A3DA6A"/>
	</linearGradient>
	<polygon fill="url(#SVGID_00000094595608466466867310000009735050863002119826_)" points="766.4,160.86 775.09,213.42 
		781.17,240.36 794.64,255.12 785.84,260.99 768.57,244.27 749.03,220.81 749.03,199.52 753.37,181.71 	"/>
	
		<linearGradient id="SVGID_00000058563923548807333480000016250626241620268711_" gradientUnits="userSpaceOnUse" x1="699.3969" y1="230.6248" x2="785.8414" y2="230.6248">
		<stop  offset="0" style="stop-color:#3C7324"/>
		<stop  offset="0.0357" style="stop-color:#4D8430"/>
		<stop  offset="0.1048" style="stop-color:#689F42"/>
		<stop  offset="0.1843" style="stop-color:#7EB551"/>
		<stop  offset="0.2771" style="stop-color:#8FC65C"/>
		<stop  offset="0.3919" style="stop-color:#9AD164"/>
		<stop  offset="0.5529" style="stop-color:#A1D869"/>
		<stop  offset="1" style="stop-color:#A3DA6A"/>
	</linearGradient>
	<path fill="url(#SVGID_00000058563923548807333480000016250626241620268711_)" d="M785.84,260.99L736,274.02l-28.67-21.5
		l-7.93-6.26l6.63-55.86c0,0,0.87-4.78,7.82-2.61c6.95,2.17,35.19,33.01,35.19,33.01l19.55,23.46L785.84,260.99z"/>
	
		<linearGradient id="SVGID_00000113317963669107889480000015631995403734318228_" gradientUnits="userSpaceOnUse" x1="688.4396" y1="313.8358" x2="759.4291" y2="329.8517">
		<stop  offset="0" style="stop-color:#3C7324"/>
		<stop  offset="0.0357" style="stop-color:#4D8430"/>
		<stop  offset="0.1048" style="stop-color:#689F42"/>
		<stop  offset="0.1843" style="stop-color:#7EB551"/>
		<stop  offset="0.2771" style="stop-color:#8FC65C"/>
		<stop  offset="0.3919" style="stop-color:#9AD164"/>
		<stop  offset="0.5529" style="stop-color:#A1D869"/>
		<stop  offset="1" style="stop-color:#A3DA6A"/>
	</linearGradient>
	<polygon fill="url(#SVGID_00000113317963669107889480000015631995403734318228_)" points="678,381.53 707.33,252.52 699.4,246.26 	
		"/>
	
		<linearGradient id="SVGID_00000127014437877126311710000005107727462505540247_" gradientUnits="userSpaceOnUse" x1="720.4957" y1="206.7435" x2="596.3364" y2="320.0117">
		<stop  offset="0" style="stop-color:#A3D16F"/>
		<stop  offset="0.4174" style="stop-color:#A1CF6E"/>
		<stop  offset="0.5678" style="stop-color:#9AC969"/>
		<stop  offset="0.675" style="stop-color:#8FBE60"/>
		<stop  offset="0.7617" style="stop-color:#7EAF54"/>
		<stop  offset="0.8359" style="stop-color:#689A45"/>
		<stop  offset="0.9009" style="stop-color:#4D8232"/>
		<stop  offset="0.959" style="stop-color:#2D651B"/>
		<stop  offset="0.966" style="stop-color:#296118"/>
	</linearGradient>
	<polygon fill="url(#SVGID_00000127014437877126311710000005107727462505540247_)" points="699.4,246.26 706.02,190.4 
		593.52,167.38 594.38,162.17 539.08,232.17 526.19,247.74 525.32,246 673.88,408.9 	"/>
	<polygon fill="#296118" points="533.57,236.88 429.75,134.8 525.32,246 	"/>
	
		<linearGradient id="SVGID_00000047048988472516183920000001898914534037643935_" gradientUnits="userSpaceOnUse" x1="558.4247" y1="223.8609" x2="482.8412" y2="346.3584">
		<stop  offset="0" style="stop-color:#76A541"/>
		<stop  offset="0.274" style="stop-color:#73A340"/>
		<stop  offset="0.4453" style="stop-color:#6B9B3B"/>
		<stop  offset="0.5884" style="stop-color:#5C8E33"/>
		<stop  offset="0.7159" style="stop-color:#487C28"/>
		<stop  offset="0.8321" style="stop-color:#2D651A"/>
		<stop  offset="0.8477" style="stop-color:#296118"/>
		<stop  offset="0.9487" style="stop-color:#213310"/>
	</linearGradient>
	<polygon fill="url(#SVGID_00000047048988472516183920000001898914534037643935_)" points="429.75,134.8 525.32,246 673.88,408.9 
		681.26,416.72 679.31,421.6 607.96,394.56 310.51,231.99 430.1,140.14 	"/>
	
		<linearGradient id="SVGID_00000068656372008452299120000013136192230741647765_" gradientUnits="userSpaceOnUse" x1="367.0967" y1="181.7178" x2="370.3851" y2="186.0817">
		<stop  offset="0" style="stop-color:#A3D16F"/>
		<stop  offset="0.0405" style="stop-color:#96C566"/>
		<stop  offset="0.2411" style="stop-color:#5C8F3C"/>
		<stop  offset="0.3893" style="stop-color:#376E22"/>
		<stop  offset="0.4678" style="stop-color:#296118"/>
		<stop  offset="1" style="stop-color:#A3D16F"/>
	</linearGradient>
	<path fill="url(#SVGID_00000068656372008452299120000013136192230741647765_)" d="M310.51,231.99l119.59-91.85
		c0,0,0.99-0.94,0.99-2.58c0-1.65-1.33-2.76-1.33-2.76l-17.81,12.6l-107.29,81.64L310.51,231.99z"/>
	
		<linearGradient id="SVGID_00000148650401308894365800000017353358736894804920_" gradientUnits="userSpaceOnUse" x1="463.6659" y1="211.8858" x2="376.6796" y2="410.2926">
		<stop  offset="0.3719" style="stop-color:#699A3A"/>
		<stop  offset="0.4085" style="stop-color:#6FA03E"/>
		<stop  offset="0.6165" style="stop-color:#8BBB51"/>
		<stop  offset="0.7975" style="stop-color:#9DCC5C"/>
		<stop  offset="0.9302" style="stop-color:#A3D260"/>
	</linearGradient>
	<polygon fill="url(#SVGID_00000148650401308894365800000017353358736894804920_)" points="607.96,394.56 310.51,231.99 252,203.88 
		244.7,199.52 243.83,206.91 233.63,228.41 231.02,235.58 229.39,239.49 218.64,265.12 	"/>
	<polygon fill="#A3D16F" points="218.64,265.12 607.96,394.56 191.27,265.12 194.31,260.77 198.22,257.73 	"/>
	
		<linearGradient id="SVGID_00000046299357143448866590000009532180500818469537_" gradientUnits="userSpaceOnUse" x1="210.0054" y1="186.7088" x2="210.0054" y2="317.2369">
		<stop  offset="0" style="stop-color:#76A541"/>
		<stop  offset="0.274" style="stop-color:#73A340"/>
		<stop  offset="0.4453" style="stop-color:#6B9B3B"/>
		<stop  offset="0.5884" style="stop-color:#5C8E33"/>
		<stop  offset="0.7159" style="stop-color:#487C28"/>
		<stop  offset="0.8321" style="stop-color:#2D651A"/>
		<stop  offset="0.8477" style="stop-color:#296118"/>
		<stop  offset="0.9487" style="stop-color:#213310"/>
	</linearGradient>
	<polygon fill="url(#SVGID_00000046299357143448866590000009532180500818469537_)" points="198.22,257.73 218.64,265.12 
		229.39,239.49 190.62,231.99 	"/>
	
		<linearGradient id="SVGID_00000019677700741277975550000009428270094190333840_" gradientUnits="userSpaceOnUse" x1="433.6293" y1="335.9779" x2="421.9008" y2="379.9597">
		<stop  offset="0.3719" style="stop-color:#699A3A"/>
		<stop  offset="0.4085" style="stop-color:#6FA03E"/>
		<stop  offset="0.6165" style="stop-color:#8BBB51"/>
		<stop  offset="0.7975" style="stop-color:#9DCC5C"/>
		<stop  offset="0.9302" style="stop-color:#A3D260"/>
	</linearGradient>
	<polygon fill="url(#SVGID_00000019677700741277975550000009428270094190333840_)" points="607.96,394.56 191.27,265.12 
		171.74,311.16 609.59,415.85 643.47,414.55 679.31,421.6 	"/>
	
		<linearGradient id="SVGID_00000004528064263381185220000014070848511377946803_" gradientUnits="userSpaceOnUse" x1="624.3141" y1="384.9853" x2="594.9929" y2="443.6277">
		<stop  offset="0" style="stop-color:#76A541"/>
		<stop  offset="0.274" style="stop-color:#73A340"/>
		<stop  offset="0.4453" style="stop-color:#6B9B3B"/>
		<stop  offset="0.5884" style="stop-color:#5C8E33"/>
		<stop  offset="0.7159" style="stop-color:#487C28"/>
		<stop  offset="0.8321" style="stop-color:#2D651A"/>
		<stop  offset="0.8477" style="stop-color:#296118"/>
		<stop  offset="0.9487" style="stop-color:#213310"/>
	</linearGradient>
	<polygon fill="url(#SVGID_00000004528064263381185220000014070848511377946803_)" points="643.47,414.55 606.55,419.32 
		537.91,404.99 661.06,464.28 679.31,421.6 	"/>
	
		<linearGradient id="SVGID_00000067196487635052981370000009131746399658259100_" gradientUnits="userSpaceOnUse" x1="364.138" y1="298.7572" x2="349.4774" y2="418.9742">
		<stop  offset="0" style="stop-color:#76A541"/>
		<stop  offset="0.274" style="stop-color:#73A340"/>
		<stop  offset="0.4453" style="stop-color:#6B9B3B"/>
		<stop  offset="0.5884" style="stop-color:#5C8E33"/>
		<stop  offset="0.7159" style="stop-color:#487C28"/>
		<stop  offset="0.8321" style="stop-color:#2D651A"/>
		<stop  offset="0.8477" style="stop-color:#296118"/>
		<stop  offset="0.9487" style="stop-color:#213310"/>
	</linearGradient>
	<polygon fill="url(#SVGID_00000067196487635052981370000009131746399658259100_)" points="118.26,305.62 62.26,367.85 
		398.48,388.92 481.44,393.69 537.91,404.99 606.55,419.32 643.47,414.55 609.59,415.85 	"/>
	
		<linearGradient id="SVGID_00000047744845315078217300000014850067417512275897_" gradientUnits="userSpaceOnUse" x1="349.345" y1="108.7448" x2="278.9741" y2="224.2921">
		<stop  offset="0" style="stop-color:#A3D16F"/>
		<stop  offset="0.235" style="stop-color:#A0CF6D"/>
		<stop  offset="0.382" style="stop-color:#98C767"/>
		<stop  offset="0.5047" style="stop-color:#89B95D"/>
		<stop  offset="0.6142" style="stop-color:#75A64E"/>
		<stop  offset="0.7148" style="stop-color:#5A8E3B"/>
		<stop  offset="0.8077" style="stop-color:#397024"/>
		<stop  offset="0.8477" style="stop-color:#296118"/>
		<stop  offset="0.9487" style="stop-color:#213310"/>
	</linearGradient>
	<polygon fill="url(#SVGID_00000047744845315078217300000014850067417512275897_)" points="269.95,163.65 252,203.88 304.65,229.04 
		336.9,204.63 	"/>
	
		<linearGradient id="SVGID_00000001656169757795237030000006890917497400524691_" gradientUnits="userSpaceOnUse" x1="284.5207" y1="217.2299" x2="365.6427" y2="97.9904">
		<stop  offset="0.3719" style="stop-color:#699A3A"/>
		<stop  offset="0.4085" style="stop-color:#6FA03E"/>
		<stop  offset="0.6165" style="stop-color:#8BBB51"/>
		<stop  offset="0.7975" style="stop-color:#9DCC5C"/>
		<stop  offset="0.9302" style="stop-color:#A3D260"/>
	</linearGradient>
	<polygon fill="url(#SVGID_00000001656169757795237030000006890917497400524691_)" points="278.47,166.2 286.84,139.14 
		292.48,113.51 377.19,173.03 336.9,204.63 	"/>
	
		<linearGradient id="SVGID_00000062155205830749888330000015859246756825570183_" gradientUnits="userSpaceOnUse" x1="334.924" y1="63.8912" x2="280.8427" y2="150.5516">
		<stop  offset="0" style="stop-color:#A3D16F"/>
		<stop  offset="0.235" style="stop-color:#A0CF6D"/>
		<stop  offset="0.382" style="stop-color:#98C767"/>
		<stop  offset="0.5047" style="stop-color:#89B95D"/>
		<stop  offset="0.6142" style="stop-color:#75A64E"/>
		<stop  offset="0.7148" style="stop-color:#5A8E3B"/>
		<stop  offset="0.8077" style="stop-color:#397024"/>
		<stop  offset="0.8477" style="stop-color:#296118"/>
		<stop  offset="0.9487" style="stop-color:#213310"/>
	</linearGradient>
	<polygon fill="url(#SVGID_00000062155205830749888330000015859246756825570183_)" points="292.48,113.51 286.84,139.14 
		277.06,135.45 282.06,93.53 326.8,131.98 292.92,109.17 	"/>
	
		<linearGradient id="SVGID_00000176746163446652084560000004402262630649411231_" gradientUnits="userSpaceOnUse" x1="286.5124" y1="23.855" x2="259.1459" y2="95.2032">
		<stop  offset="0.3719" style="stop-color:#699A3A"/>
		<stop  offset="0.4085" style="stop-color:#6FA03E"/>
		<stop  offset="0.6165" style="stop-color:#8BBB51"/>
		<stop  offset="0.7975" style="stop-color:#9DCC5C"/>
		<stop  offset="0.9302" style="stop-color:#A3D260"/>
	</linearGradient>
	<polygon fill="url(#SVGID_00000176746163446652084560000004402262630649411231_)" points="282.93,72.25 259.47,55.31 289.44,48.79 
			"/>
	
		<linearGradient id="SVGID_00000048474880782202854280000000101040777940487339_" gradientUnits="userSpaceOnUse" x1="165.2091" y1="271.5774" x2="206.65" y2="271.5774">
		<stop  offset="0" style="stop-color:#76A541"/>
		<stop  offset="0.274" style="stop-color:#73A340"/>
		<stop  offset="0.4453" style="stop-color:#6B9B3B"/>
		<stop  offset="0.5884" style="stop-color:#5C8E33"/>
		<stop  offset="0.7159" style="stop-color:#487C28"/>
		<stop  offset="0.8321" style="stop-color:#2D651A"/>
		<stop  offset="0.8477" style="stop-color:#296118"/>
		<stop  offset="0.9487" style="stop-color:#213310"/>
	</linearGradient>
	<polygon fill="url(#SVGID_00000048474880782202854280000000101040777940487339_)" points="198.22,257.73 194.31,260.77 
		191.27,265.12 171.74,311.16 190.62,231.99 	"/>
	
		<linearGradient id="SVGID_00000005233899431775511280000011349321666278391716_" gradientUnits="userSpaceOnUse" x1="109.8246" y1="255.4507" x2="288.4475" y2="255.4507">
		<stop  offset="0" style="stop-color:#76A541"/>
		<stop  offset="0.274" style="stop-color:#73A340"/>
		<stop  offset="0.4453" style="stop-color:#6B9B3B"/>
		<stop  offset="0.5884" style="stop-color:#5C8E33"/>
		<stop  offset="0.7159" style="stop-color:#487C28"/>
		<stop  offset="0.8321" style="stop-color:#2D651A"/>
		<stop  offset="0.8477" style="stop-color:#296118"/>
		<stop  offset="0.9487" style="stop-color:#213310"/>
	</linearGradient>
	<polygon fill="url(#SVGID_00000005233899431775511280000011349321666278391716_)" points="109.82,223.2 137.41,229.5 
		161.95,270.76 171.74,311.16 189.62,230.99 192.25,227.76 231.02,235.58 233.63,228.41 212.12,206.26 118.62,199.74 	"/>
	<polygon fill="#A3D16F" points="233.63,228.41 212.12,206.26 118.62,199.74 119.27,195.18 217.99,203.65 	"/>
	
		<linearGradient id="SVGID_00000000937459808820354870000005262627237216861580_" gradientUnits="userSpaceOnUse" x1="174.6635" y1="94.9586" x2="138.5007" y2="244.4968">
		<stop  offset="0.3279" style="stop-color:#76A541"/>
		<stop  offset="0.4959" style="stop-color:#73A340"/>
		<stop  offset="0.6009" style="stop-color:#6B9B3B"/>
		<stop  offset="0.6887" style="stop-color:#5C8E33"/>
		<stop  offset="0.7669" style="stop-color:#487C28"/>
		<stop  offset="0.8381" style="stop-color:#2D651A"/>
		<stop  offset="0.8477" style="stop-color:#296118"/>
		<stop  offset="0.9487" style="stop-color:#213310"/>
	</linearGradient>
	<polygon fill="url(#SVGID_00000000937459808820354870000005262627237216861580_)" points="243.83,206.91 216.47,196.92 215.16,203 
		144.36,177.8 136.97,195.61 74.64,118.29 70.73,126.76 109.82,223.2 118.62,199.74 119.27,195.18 217.99,203.65 233.63,228.41 	"/>
</g>
<g>
	<g>
		<g>
			<g>
				<path fill="#FFFFFF" d="M462.34,387.44c0-6.04-3.31-8.91-8.05-8.91c-6.18,0-8.05,5.32-8.34,10.21h-27.46
					c0.72-21.71,14.09-33.65,36.52-33.65c22.72,0,34.8,12.8,34.8,28.9L462.34,387.44z M491.67,432.74
					c0,18.12-12.94,30.63-35.08,30.63c-22.72,0-38.68-10.35-39.25-35.37h27.46c-0.29,7.48,3.16,12.08,10.64,12.08
					c5.61,0,8.91-3.88,8.91-9.49L491.67,432.74z"/>
			</g>
			
				<linearGradient id="SVGID_00000122689293956293682860000002892870960410200751_" gradientUnits="userSpaceOnUse" x1="447.6445" y1="408.364" x2="469.4119" y2="408.364">
				<stop  offset="0" style="stop-color:#BDBBBC"/>
				<stop  offset="0.0766" style="stop-color:#C8C6C7"/>
				<stop  offset="0.2852" style="stop-color:#E0DFE0"/>
				<stop  offset="0.5029" style="stop-color:#F1F1F1"/>
				<stop  offset="0.7338" style="stop-color:#FCFCFC"/>
				<stop  offset="1" style="stop-color:#FFFFFF"/>
			</linearGradient>
			<path fill="url(#SVGID_00000122689293956293682860000002892870960410200751_)" d="M489.8,383.99c0,14.38-8.91,21.28-15.53,23.44
				V408c10.06,3.74,17.4,11.22,17.4,24.73l-27.32-2.16c0-7.19-4.31-10.64-14.95-10.64h-5.03v-22.86h4.89
				c5.46,0.14,13.08-0.72,13.08-9.63L489.8,383.99z"/>
		</g>
	</g>
	<g>
		<g>
			<g>
				<path fill="#FFFFFF" d="M360.3,355.7c30.19,0,41.84,22.14,41.84,53.2c0,31.49-11.65,53.49-41.84,53.49
					c-30.19,0-41.7-22-41.7-53.49C318.6,377.84,330.1,355.7,360.3,355.7z M360.3,382.3c-12.51,0-13.95,12.08-13.95,26.6
					c0,14.95,1.44,26.89,13.95,26.89s13.95-11.93,13.95-26.89C374.24,394.38,372.81,382.3,360.3,382.3z"/>
			</g>
			
				<linearGradient id="SVGID_00000066504570371993416190000016386608343552760456_" gradientUnits="userSpaceOnUse" x1="256.13" y1="370.2922" x2="273.3109" y2="370.2922">
				<stop  offset="0" style="stop-color:#BDBBBC"/>
				<stop  offset="0.0766" style="stop-color:#C8C6C7"/>
				<stop  offset="0.2852" style="stop-color:#E0DFE0"/>
				<stop  offset="0.5029" style="stop-color:#F1F1F1"/>
				<stop  offset="0.7338" style="stop-color:#FCFCFC"/>
				<stop  offset="1" style="stop-color:#FFFFFF"/>
			</linearGradient>
			
				<rect x="255.23" y="357.85" fill="url(#SVGID_00000066504570371993416190000016386608343552760456_)" width="42.81" height="24.87"/>
			<path fill="#FFFFFF" d="M255.23,421.41h-25.92v-63.55h25.92v24.87v15.96V421.41z"/>
			<path fill="#FFFFFF" d="M303.79,426.58c0,22.57-13.37,36.38-36.38,36.38c-24.44,0-38.53-13.52-38.68-32.35h26.49
				c0.43,3.88,4.13,8.2,11.04,8.2c7.05,0,10.21-5.32,10.21-12.65"/>
			
				<linearGradient id="SVGID_00000158003740775099072250000000564810210350641302_" gradientUnits="userSpaceOnUse" x1="256.13" y1="409.4733" x2="273.3109" y2="409.4733">
				<stop  offset="0" style="stop-color:#BDBBBC"/>
				<stop  offset="0.0766" style="stop-color:#C8C6C7"/>
				<stop  offset="0.2852" style="stop-color:#E0DFE0"/>
				<stop  offset="0.5029" style="stop-color:#F1F1F1"/>
				<stop  offset="0.7338" style="stop-color:#FCFCFC"/>
				<stop  offset="1" style="stop-color:#FFFFFF"/>
			</linearGradient>
			<path fill="url(#SVGID_00000158003740775099072250000000564810210350641302_)" d="M276.47,426.15c0-7.62-3.88-11.5-10.64-11.5
				c-5.46,0-10.03,3.16-10.6,6.76v-22.72c3.59-3.74,9.88-6.33,17.65-6.33c21.71,0,30.91,16.68,30.91,34.22L276.47,426.15z"/>
		</g>
	</g>
</g>
</svg>
