<svg width="100" height="100" viewBox="0 0 100 100" fill="none" xmlns="http://www.w3.org/2000/svg">
<g clip-path="url(#clip0_4922_13427)">
<path d="M90 28.8158V70.2609C90 71.7274 89.2169 73.0799 87.9498 73.806L52.0573 94.5499C51.4309 94.9201 50.719 95.1052 50.0071 95.1052V87.6733L83.0379 68.6094V30.4958L49.9929 11.4319V4C50.7048 4 51.4166 4.18509 52.0431 4.51255L87.9356 25.2565C89.2027 25.9968 89.9858 27.3494 89.9858 28.8016L90 28.8158Z" fill="#687E91"/>
<path d="M10 28.8158V70.2609C10 71.7274 10.7831 73.0799 12.0502 73.806L47.9427 94.5499C48.5691 94.9201 49.281 95.1052 49.9929 95.1052V87.6733L16.9621 68.6236V30.4958L49.9929 11.4319V4C49.281 4 48.5691 4.18509 47.9427 4.51255L12.0502 25.2565C10.7973 25.9968 10 27.3494 10 28.8158Z" fill="#7993B0"/>
<path d="M68.473 44.0208C71.0207 44.0208 73.086 41.9555 73.086 39.4078C73.086 36.8602 71.0207 34.7949 68.473 34.7949C65.9254 34.7949 63.8601 36.8602 63.8601 39.4078C63.8601 41.9555 65.9254 44.0208 68.473 44.0208Z" fill="#687E91"/>
<path d="M31.1283 44.0208C33.676 44.0208 35.7412 41.9555 35.7412 39.4078C35.7412 36.8602 33.676 34.7949 31.1283 34.7949C28.5807 34.7949 26.5154 36.8602 26.5154 39.4078C26.5154 41.9555 28.5807 44.0208 31.1283 44.0208Z" fill="#687E91"/>
<path d="M49.8078 76.3547C52.3555 76.3547 54.4207 74.2895 54.4207 71.7418C54.4207 69.1942 52.3555 67.1289 49.8078 67.1289C47.2602 67.1289 45.1949 69.1942 45.1949 71.7418C45.1949 74.2895 47.2602 76.3547 49.8078 76.3547Z" fill="#687E91"/>
<path d="M50.9861 48.168L48.8576 51.8711L67.5952 62.6413L69.7237 58.9383L50.9861 48.168Z" fill="#576D7F"/>
<path d="M48.7259 48.3583L30.0707 59.1289L32.1992 62.8156L50.8544 52.045L48.7259 48.3583Z" fill="#576D7F"/>
<path d="M51.9149 28.6309H47.658V50.1721H51.9149V28.6309Z" fill="#576D7F"/>
<path d="M49.8078 57.6179C53.9202 57.6179 57.254 54.2842 57.254 50.1718C57.254 46.0593 53.9202 42.7256 49.8078 42.7256C45.6954 42.7256 42.3616 46.0593 42.3616 50.1718C42.3616 54.2842 45.6954 57.6179 49.8078 57.6179Z" fill="#7993B0"/>
<path d="M31.1283 66.8156C34.3679 66.8156 36.9941 64.1894 36.9941 60.9498C36.9941 57.7102 34.3679 55.084 31.1283 55.084C27.8887 55.084 25.2625 57.7102 25.2625 60.9498C25.2625 64.1894 27.8887 66.8156 31.1283 66.8156Z" fill="#7993B0"/>
<path d="M68.4731 66.8156C71.7126 66.8156 74.3389 64.1894 74.3389 60.9498C74.3389 57.7102 71.7126 55.084 68.4731 55.084C65.2335 55.084 62.6072 57.7102 62.6072 60.9498C62.6072 64.1894 65.2335 66.8156 68.4731 66.8156Z" fill="#7993B0"/>
<path d="M49.8078 34.4963C53.0474 34.4963 55.6736 31.8701 55.6736 28.6305C55.6736 25.3909 53.0474 22.7646 49.8078 22.7646C46.5682 22.7646 43.942 25.3909 43.942 28.6305C43.942 31.8701 46.5682 34.4963 49.8078 34.4963Z" fill="#7993B0"/>
</g>
<defs>
<clipPath id="clip0_4922_13427">
<rect width="100" height="100" fill="white"/>
</clipPath>
</defs>
</svg>
