<svg width="100" height="100" viewBox="0 0 100 100" fill="none" xmlns="http://www.w3.org/2000/svg">
<g clip-path="url(#clip0_4922_13472)">
<path d="M74.0254 60.3233V35.6231L52.2151 23.1377V10.4815L49.98 9.2002L47.5171 10.6238V23.1377L25.7211 35.6231V60.3233L15.3 66.388V69.2496L17.4924 70.5166L28.0558 64.3522H28.2694L50.0796 76.7806L71.8899 64.3522L82.5245 70.4881L84.66 69.2496V66.3738L74.0111 60.3091L74.0254 60.3233ZM64.672 57.6041V60.3802C64.672 62.1456 63.2341 63.5834 61.4688 63.5834H37.9787C36.2133 63.5834 34.7755 62.1456 34.7755 60.3802V57.6041C34.7755 52.6498 38.7901 48.6352 43.7444 48.6352H44.8549C46.3355 49.3185 47.9869 49.7029 49.7237 49.7029C51.4606 49.7029 53.112 49.3185 54.5926 48.6352H55.703C60.6573 48.6352 64.672 52.6498 64.672 57.6041ZM41.1819 37.9578C41.1819 33.2456 45.0115 29.416 49.7237 29.416C54.436 29.416 58.2656 33.2456 58.2656 37.9578C58.2656 42.6701 54.436 46.4997 49.7237 46.4997C45.0115 46.4997 41.1819 42.6701 41.1819 37.9578Z" fill="#576D7F"/>
<path d="M90 28.8158V70.2609C90 71.7273 89.2169 73.0799 87.9498 73.806L52.0573 94.5499C51.4309 94.9201 50.719 95.1051 50.0071 95.1051V87.6732L83.0379 68.6093V30.4958L49.9929 11.4319V4C50.7048 4 51.4166 4.18509 52.0431 4.51255L87.9356 25.2564C89.2027 25.9968 89.9858 27.3493 89.9858 28.8016L90 28.8158Z" fill="#687E91"/>
<path d="M10 28.8158V70.2609C10 71.7273 10.7831 73.0799 12.0502 73.806L47.9427 94.5499C48.5691 94.9201 49.281 95.1051 49.9929 95.1051V87.6732L16.9621 68.6236V30.4958L49.9929 11.4319V4C49.281 4 48.5691 4.18509 47.9427 4.51255L12.0502 25.2564C10.7973 25.9968 10 27.3493 10 28.8158Z" fill="#7993B0"/>
</g>
<defs>
<clipPath id="clip0_4922_13472">
<rect width="100" height="100" fill="white"/>
</clipPath>
</defs>
</svg>
