<svg width="100" height="100" viewBox="0 0 100 100" fill="none" xmlns="http://www.w3.org/2000/svg">
<g clip-path="url(#clip0_4921_13318)">
<path d="M70.5089 58.8987V37.7277L51.8152 27.0212V11.1465H47.8003V27.0354L29.1065 37.742V58.913L15.0827 67.0853L17.0902 70.5449L31.114 62.3727H31.2991L49.9928 73.0223L68.6865 62.3727L82.3829 70.2744L84.3904 66.8147L70.5089 58.913V58.8987ZM59.6173 63.0134C58.3075 62.9849 57.083 62.3015 56.3997 61.191H36.5812V57.2187H56.3997C57.0973 56.1082 58.3075 55.4248 59.6173 55.3963C61.7244 55.6241 63.2336 57.5177 63.0058 59.6249C62.8065 61.4045 61.397 62.814 59.6173 63.0134ZM63.4045 51.3814H53.2674C52.2139 53.1895 49.8932 53.8018 48.085 52.7482C47.5155 52.4207 47.0457 51.9509 46.7182 51.3814H36.5812V47.3664H46.8179C47.9569 45.6152 50.2918 45.1027 52.0572 46.2417C52.5128 46.5264 52.883 46.9108 53.182 47.3664H63.4187V51.3814H63.4045ZM63.4045 41.5149H43.586C42.8884 42.6254 41.6782 43.3088 40.3683 43.3373C38.2612 43.1095 36.752 41.2159 36.9798 39.1087C37.1792 37.3291 38.5887 35.9196 40.3683 35.7202C41.6782 35.7487 42.9026 36.4321 43.586 37.5426H63.4045V41.5149V41.5149Z" fill="#576D7F"/>
<path d="M90 28.8158V70.2609C90 71.7273 89.217 73.0799 87.9498 73.806L52.0573 94.5499C51.4309 94.9201 50.719 95.1052 50.0072 95.1052V87.6732L83.0379 68.6094V30.4958L49.9929 11.4319V4C50.7048 4 51.4167 4.18509 52.0431 4.51255L87.9356 25.2564C89.2027 25.9968 89.9858 27.3493 89.9858 28.8016L90 28.8158Z" fill="#687E91"/>
<path d="M10 28.8158V70.2609C10 71.7273 10.7831 73.0799 12.0502 73.806L47.9427 94.5499C48.5691 94.9201 49.281 95.1052 49.9929 95.1052V87.6732L16.9621 68.6236V30.4958L49.9929 11.4319V4C49.281 4 48.5691 4.18509 47.9427 4.51255L12.0502 25.2564C10.7973 25.9968 10 27.3493 10 28.8158Z" fill="#7993B0"/>
</g>
<defs>
<clipPath id="clip0_4921_13318">
<rect width="100" height="100" fill="white"/>
</clipPath>
</defs>
</svg>
