<svg width="100" height="100" viewBox="0 0 100 100" fill="none" xmlns="http://www.w3.org/2000/svg">
<g clip-path="url(#clip0_4921_13381)">
<path d="M59.125 71.325L63.9 76.1C64.325 76.025 64.7625 75.975 65.2 75.975C69.075 75.975 72.2125 79.1125 72.2125 82.9875C72.2125 86.8625 69.075 90 65.2 90C61.325 90 58.1875 86.8625 58.1875 82.9875C58.1875 82.55 58.225 82.1125 58.3125 81.6875L53.525 76.9L59.1125 71.3125L59.125 71.325ZM65.2125 10.0125C69.0875 10.0125 72.225 13.15 72.225 17.025C72.225 20.9 69.0875 24.0375 65.2125 24.0375C64.7625 24.0375 64.3375 24 63.9125 23.9125L37.825 50L49.8 61.975L58.05 53.725L63.6375 59.3125L41.625 81.325C41.75 81.85 41.8125 82.4 41.8125 82.9625C41.8125 86.8375 38.675 89.975 34.8 89.975C30.925 89.975 27.7875 86.8375 27.7875 82.9625C27.7875 79.0875 30.925 75.95 34.8 75.95C35.125 75.95 35.4375 75.975 35.75 76.0125L44.2125 67.55L18.3125 41.7C17.8875 41.775 17.45 41.825 17.0125 41.825C13.1375 41.825 10 38.6875 10 34.8125C10 30.9375 13.1375 27.8 17.0125 27.8C20.8875 27.8 24.025 30.9375 24.025 34.8125C24.025 35.2625 23.9875 35.6875 23.9 36.1125L32.2125 44.425L44.2 32.45L35.7375 23.9875C35.425 24.025 35.1125 24.05 34.7875 24.05C30.9125 24.05 27.775 20.9125 27.775 17.0375C27.775 13.1625 30.925 10.0125 34.8 10.0125C38.675 10.0125 41.8125 13.15 41.8125 17.025C41.8125 17.5875 41.75 18.1375 41.625 18.6625L49.8 26.8375L58.325 18.3125C58.25 17.8875 58.2 17.4625 58.2 17.0125C58.2 13.1375 61.3375 10 65.2125 10V10.0125ZM82.9875 27.7875C86.8625 27.7875 90 30.925 90 34.8C90 38.675 86.8625 41.8125 82.9875 41.8125C82.425 41.8125 81.875 41.75 81.35 41.625L72.9625 50.0125L81.35 58.4C81.875 58.275 82.425 58.2125 82.9875 58.2125C86.8625 58.2125 90 61.35 90 65.225C90 69.1 86.8625 72.2375 82.9875 72.2375C79.1125 72.2375 75.975 69.1 75.975 65.225C75.975 64.9 76 64.5875 76.0375 64.2875L53.5375 41.775L59.125 36.1875L67.375 44.4375L76.0375 35.7625C76 35.45 75.975 35.1375 75.975 34.825C75.975 30.95 79.1125 27.8125 82.9875 27.8125V27.7875ZM22.8875 53.75L28.475 59.3375L23.9 63.9125C23.975 64.3375 24.025 64.775 24.025 65.2125C24.025 69.0875 20.8875 72.225 17.0125 72.225C13.1375 72.225 10 69.0875 10 65.2125C10 61.3375 13.1375 58.2 17.0125 58.2C17.45 58.2 17.8875 58.2375 18.3125 58.325L22.8875 53.75V53.75Z" fill="#687E91"/>
</g>
<defs>
<clipPath id="clip0_4921_13381">
<rect width="100" height="100" fill="white"/>
</clipPath>
</defs>
</svg>
