<svg width="100" height="100" viewBox="0 0 100 100" fill="none" xmlns="http://www.w3.org/2000/svg">
<g clip-path="url(#clip0_4922_13400)">
<path d="M83.5442 28.9678L51.529 10.4574C50.9573 10.1652 50.3348 10.0127 49.6995 10V16.6317L79.1739 33.643V67.6656L55.8358 81.1323V88.3103L83.5569 72.29C84.7003 71.642 85.3991 70.4351 85.3864 69.1266V32.1439C85.3864 30.8353 84.6749 29.6284 83.5569 28.9805L83.5442 28.9678Z" fill="#687E91"/>
<path d="M43.6903 81.2212L20.2125 67.6656V33.643L49.6868 16.6317V10C49.0516 10 48.4164 10.1652 47.8574 10.4574L15.8294 28.9678C14.7114 29.6284 14 30.8353 14 32.1439V69.1266C14 70.4351 14.6987 71.6421 15.8294 72.29L43.6903 88.3992V81.2212Z" fill="#7993B0"/>
<path d="M45.6722 28.9678H37.5287V45.2422H45.6722V28.9678Z" fill="#7993B0"/>
<path d="M61.9466 28.9678H53.8031V45.2422H61.9466V28.9678Z" fill="#7993B0"/>
<path d="M53.8158 69.6602H45.6722V90.0127H53.8158V69.6602Z" fill="#576D7F"/>
<path d="M70.0521 41.1768H29.3978V53.1317C29.3978 64.3751 38.5196 73.4969 49.763 73.4969C61.0065 73.4969 70.1283 64.3751 70.1283 53.1317L70.0521 41.1768V41.1768Z" fill="#576D7F"/>
<path d="M49.7376 73.7256C38.4434 73.6367 29.3343 64.4259 29.3851 53.1317V41.1768H49.7376" fill="#687E91"/>
</g>
<defs>
<clipPath id="clip0_4922_13400">
<rect width="100" height="100" fill="white"/>
</clipPath>
</defs>
</svg>
