<svg width="100" height="100" viewBox="0 0 100 100" fill="none" xmlns="http://www.w3.org/2000/svg">
<g clip-path="url(#clip0_4921_13306)">
<path d="M30 62.3375L50 27.3375L70 62.3375L86.6625 79L87.3375 79.6625L50 15L12.6625 79.6625L13.3375 79L30 62.3375Z" fill="#7993B0"/>
<path d="M49.9999 41.999L13.3374 78.999L28.6624 71.999L49.9999 50.6615L71.3374 71.999L86.6624 78.999L49.9999 41.999Z" fill="#687E91"/>
<path d="M30.0001 78.3379L16.0001 84.3379H84.0001L70.0001 78.3379H30.0001Z" fill="#576D7F"/>
<path d="M86.6625 78.9994L50 62.3369L13.3375 78.9994L10 84.3369H16L50 68.9994L84 84.3369H90L86.6625 78.9994Z" fill="#687E91"/>
</g>
<defs>
<clipPath id="clip0_4921_13306">
<rect width="100" height="100" fill="white"/>
</clipPath>
</defs>
</svg>
