<svg width="100" height="100" viewBox="0 0 100 100" fill="none" xmlns="http://www.w3.org/2000/svg">
<g clip-path="url(#clip0_4921_13332)">
<path d="M46.0633 52.6927C45.9351 52.1516 45.3941 51.8099 44.8531 51.9381C44.8388 51.9381 44.8104 51.9381 44.7961 51.9523C44.7961 51.9523 44.7961 51.9523 44.7961 51.9381L39.3717 52.9489C40.2402 55.2554 41.849 57.2059 43.8992 58.5158L46.0063 53.433C46.0063 53.433 45.9778 53.4045 45.9636 53.4045C46.0775 53.191 46.1202 52.9489 46.0633 52.7069V52.6927Z" fill="#576D7F"/>
<path d="M43.9989 48.592C44.2267 48.5493 44.4545 48.4354 44.6111 48.2361C44.9528 47.7947 44.8816 47.1683 44.4545 46.8123C44.4403 46.8123 44.426 46.7839 44.3976 46.7839C44.3976 46.7839 44.3976 46.7839 44.3976 46.7696L40.2402 43.1533C39.2151 44.8476 38.6314 46.8408 38.6314 48.9622C38.6314 49.3751 38.6599 49.7737 38.7026 50.1724L43.9989 48.6632C43.9989 48.6632 43.9989 48.6347 43.9989 48.6062V48.592Z" fill="#576D7F"/>
<path d="M51.5589 43.2955C51.5589 43.8508 52.0145 44.3063 52.5698 44.3063C52.8545 44.3063 53.1108 44.1782 53.2959 43.9931L57.7237 40.7185C56.001 39.0955 53.78 37.9992 51.3169 37.7002L51.5874 43.0535C51.5732 43.1246 51.5589 43.2101 51.5589 43.2955V43.2955Z" fill="#576D7F"/>
<path d="M48.1705 50.1574L49.7081 50.9262L51.26 50.2001L51.6586 48.5201L50.6051 47.1676L48.8823 47.1533L47.8003 48.4916L48.1705 50.1574Z" fill="#576D7F"/>
<path d="M50.9609 54.8416C50.8613 54.6281 50.7047 54.443 50.4769 54.3291C49.9786 54.087 49.3664 54.3006 49.1243 54.8132C49.1243 54.8274 49.1243 54.8559 49.1101 54.8701H49.0958L46.5046 59.7393C47.6009 60.0952 48.7684 60.2803 49.9786 60.2803C51.2742 60.2803 52.5271 60.0525 53.6803 59.6539L51.0179 54.8416C51.0179 54.8416 50.9894 54.8416 50.9609 54.8416V54.8416Z" fill="#576D7F"/>
<path d="M55.46 46.5986C55.46 46.5986 55.46 46.6271 55.4742 46.6413C55.2891 46.7837 55.1325 46.983 55.0756 47.2393C54.9617 47.7803 55.3034 48.3213 55.8444 48.4495C55.8586 48.4495 55.8871 48.4495 55.9013 48.4495C55.9013 48.4495 55.9013 48.4495 55.9013 48.4637L61.2261 49.8875C61.2546 49.5742 61.2688 49.2468 61.2688 48.9336C61.2688 46.7268 60.6282 44.6623 59.5319 42.9111L55.4457 46.5844L55.46 46.5986Z" fill="#576D7F"/>
<path d="M47.1881 44.3052C47.7433 44.3052 48.1989 43.8496 48.1989 43.2944C48.1989 43.2801 48.1989 43.2516 48.1989 43.2374C48.1989 43.2374 48.1989 43.2374 48.2132 43.2374L48.4552 37.7275C45.9636 38.055 43.7141 39.2082 42.0056 40.8882L46.4762 44.0917C46.4762 44.0917 46.5047 44.0774 46.5189 44.0632C46.6898 44.2198 46.9318 44.3195 47.1881 44.3195V44.3052Z" fill="#576D7F"/>
<path d="M74.0398 60.6367V35.949L52.2281 23.4628V10.8058L49.9928 9.52441L47.5297 10.9482V23.4486L25.718 35.9348V60.6367L15.2963 66.7161V69.5778L17.4888 70.8449L28.053 64.6801H28.2665L50.0782 77.1094L71.8899 64.6801L82.5253 70.8164L84.6609 69.5778V66.7018L74.0113 60.6367H74.0398ZM69.4696 53.1763C69.313 53.8597 68.6438 54.2868 67.9604 54.1302C67.7041 54.0732 66.0811 53.5037 64.3441 53.1193C64.3014 53.1193 64.2445 53.0909 64.2017 53.0909C64.0878 53.2048 63.9312 53.2617 63.7746 53.2332H63.6465C62.6072 56.5506 60.3719 59.3696 57.4532 61.1635L57.5102 61.2916C57.5814 61.434 57.5529 61.6048 57.4675 61.7472C57.4959 61.8042 57.5244 61.8469 57.5386 61.9038C58.3217 63.4984 59.2471 64.9364 59.361 65.1784C59.66 65.8049 59.4037 66.5594 58.7773 66.8584C58.1508 67.1574 57.3963 66.9011 57.0973 66.2747C56.9834 66.0469 56.4139 64.4096 55.6451 62.815C55.6166 62.7723 55.6024 62.7296 55.5739 62.6726C55.4173 62.6584 55.2749 62.573 55.1895 62.4306L55.1325 62.3167C53.5237 62.9431 51.7867 63.2848 49.9501 63.2848C48.2274 63.2848 46.5758 62.9859 45.0524 62.4164L44.9812 62.5445C44.9101 62.6869 44.7677 62.7723 44.6111 62.8008C44.5826 62.8577 44.5684 62.9004 44.5399 62.9574C43.7711 64.552 43.2301 66.1893 43.1162 66.4171C42.8172 67.0435 42.0626 67.314 41.4361 67.015C40.8097 66.7161 40.5392 65.9615 40.8382 65.335C40.9521 65.1072 41.8775 63.6408 42.6463 62.032C42.6748 61.9892 42.689 61.9465 42.7175 61.8896C42.6321 61.7614 42.6036 61.5906 42.6748 61.434L42.7317 61.3058C39.7704 59.5689 37.4781 56.7926 36.3676 53.4895L36.2252 53.518C36.0686 53.5465 35.912 53.4895 35.7981 53.3756C35.7412 53.3756 35.6842 53.4041 35.6273 53.4183C33.9045 53.817 32.2815 54.4007 32.0252 54.4577C31.3418 54.6143 30.6727 54.1871 30.516 53.518C30.3594 52.8346 30.7866 52.1654 31.4557 52.0088C31.712 51.9519 33.4205 51.7668 35.1574 51.3681C35.2002 51.3681 35.2571 51.3397 35.2998 51.3397C35.3568 51.1973 35.4707 51.0692 35.6273 51.0264L35.7554 50.998C35.6558 50.3288 35.613 49.6454 35.613 48.962C35.613 46.0861 36.4673 43.4094 37.9337 41.1599L37.8198 41.0603C37.6917 40.9464 37.649 40.7897 37.6632 40.6331C37.6205 40.6047 37.5778 40.562 37.5351 40.5335C36.1541 39.4372 34.6734 38.526 34.474 38.3694C33.933 37.9423 33.8334 37.145 34.2747 36.604C34.7018 36.0629 35.4991 35.9633 36.0402 36.4046C36.2395 36.5612 37.4497 37.7999 38.8449 38.9104C38.8876 38.9389 38.9304 38.9674 38.9588 39.0101C39.1012 38.9531 39.2721 38.9674 39.4144 39.067L39.5283 39.1525C41.849 36.6894 45.024 35.0521 48.5833 34.7104V34.568C48.5833 34.4114 48.683 34.269 48.8253 34.1836C48.8253 34.1266 48.8253 34.0697 48.8253 34.0127C48.8253 32.2331 48.6118 30.5246 48.6118 30.2683C48.6118 29.5707 49.1813 29.0012 49.8789 29.0012C50.5765 29.0012 51.146 29.5707 51.146 30.2683C51.146 30.5246 50.9325 32.2473 50.9325 34.027C50.9325 34.0839 50.9325 34.1266 50.9325 34.1836C51.0606 34.269 51.1603 34.4114 51.1603 34.568V34.6961C54.6769 34.9951 57.8376 36.5612 60.1868 38.9389L60.3007 38.8535C60.4288 38.7538 60.5997 38.7396 60.7421 38.7823C60.7848 38.7538 60.8275 38.7111 60.8702 38.6684C62.2512 37.5579 63.4472 36.3192 63.6465 36.1484C64.1875 35.707 64.9848 35.7924 65.4119 36.3334C65.8533 36.8745 65.7679 37.6718 65.2268 38.1131C65.0275 38.2697 63.5611 39.1952 62.18 40.3057C62.1373 40.3342 62.0946 40.3626 62.0661 40.4053C62.0804 40.5619 62.0377 40.7186 61.9095 40.8325L61.8099 40.9179C63.376 43.2101 64.2872 45.9864 64.2872 48.962C64.2872 49.56 64.2445 50.1295 64.1733 50.7132L64.3156 50.7559C64.4723 50.7986 64.5862 50.9125 64.6431 51.0692C64.7001 51.0692 64.757 51.0976 64.8139 51.0976C66.5509 51.482 68.2594 51.6529 68.5157 51.7098C69.1991 51.8664 69.6262 52.5356 69.4696 53.219V53.1763Z" fill="#576D7F"/>
<path d="M55.1894 51.8376C54.9616 51.7807 54.7054 51.7807 54.4776 51.8946C53.9793 52.1366 53.7657 52.7488 54.0077 53.2471C54.0077 53.2614 54.0362 53.2756 54.0362 53.3041C54.0362 53.3041 54.0362 53.3041 54.022 53.3183L56.2145 58.3726C58.2362 57.02 59.8024 55.041 60.6281 52.7061L55.2037 51.7949C55.2037 51.7949 55.1894 51.8234 55.1752 51.8376H55.1894Z" fill="#576D7F"/>
<path d="M90 28.8158V70.2609C90 71.7273 89.2169 73.0799 87.9498 73.806L52.0573 94.5499C51.4309 94.9201 50.719 95.1051 50.0071 95.1051V87.6732L83.0379 68.6093V30.4958L49.9929 11.4319V4C50.7048 4 51.4166 4.18509 52.0431 4.51255L87.9356 25.2564C89.2027 25.9968 89.9858 27.3493 89.9858 28.8016L90 28.8158Z" fill="#687E91"/>
<path d="M10 28.8158V70.2609C10 71.7273 10.7831 73.0799 12.0502 73.806L47.9427 94.5499C48.5691 94.9201 49.281 95.1051 49.9929 95.1051V87.6732L16.9621 68.6236V30.4958L49.9929 11.4319V4C49.281 4 48.5691 4.18509 47.9427 4.51255L12.0502 25.2564C10.7973 25.9968 10 27.3493 10 28.8158Z" fill="#7993B0"/>
</g>
<defs>
<clipPath id="clip0_4921_13332">
<rect width="100" height="100" fill="white"/>
</clipPath>
</defs>
</svg>
