<svg width="100" height="100" viewBox="0 0 100 100" fill="none" xmlns="http://www.w3.org/2000/svg">
<g clip-path="url(#clip0_4921_13293)">
<path d="M75.86 12.5204C74.7 10.5104 71.85 8.86035 69.53 8.86035H30.47C28.15 8.86035 25.3 10.5104 24.14 12.5204L4.60999 46.3404C3.44999 48.3504 3.44999 51.6404 4.60999 53.6504L24.14 87.4704C25.3 89.4804 28.15 91.1303 30.47 91.1303H69.52C71.84 91.1303 74.69 89.4804 75.85 87.4704L95.38 53.6504C96.54 51.6404 96.54 48.3504 95.38 46.3404L75.86 12.5204Z" stroke="#7993B0" stroke-width="1.5" stroke-linecap="round" stroke-linejoin="round"/>
<path fill-rule="evenodd" clip-rule="evenodd" d="M50.7631 28C52.3238 28 53.6437 28.8663 54.7231 30.3238C55.6031 31.5131 56.3594 33.1563 56.9919 35.1706C58.2294 39.1306 58.9306 44.4244 58.9306 50.0481C58.9306 55.6719 58.2294 60.9656 56.9919 64.9256C56.3594 66.94 55.6031 68.5831 54.7231 69.7725C53.6437 71.23 52.3238 72.0962 50.7631 72.0962C47.195 72.0962 44.9812 68.975 43.8056 63.6538C43.7712 63.4888 43.7575 63.3306 43.7781 63.1725H47.3669C47.8481 65.3244 48.46 67.4419 49.1337 68.1431C49.5806 68.6106 50.0412 68.7756 50.77 68.7756C50.7837 68.7756 50.7975 68.7756 50.825 68.7619C50.8731 68.7481 50.9419 68.7138 51.0175 68.6656C51.2375 68.5213 51.4987 68.2669 51.7669 67.8956C52.3994 67.0362 53.0181 65.7025 53.5475 64.0044C54.6819 60.3675 55.3419 55.3831 55.3419 50.0481C55.3419 44.7131 54.6819 39.7288 53.5475 36.0919C53.0181 34.3869 52.3994 33.06 51.7669 32.2006C51.4919 31.8294 51.2375 31.575 51.0175 31.4306C50.9419 31.3825 50.88 31.3481 50.825 31.3344C50.7975 31.3275 50.7837 31.3206 50.77 31.3206C50.1856 31.3206 49.67 31.5956 49.1063 32.3381C48.3913 33.2869 47.7656 34.8406 47.2775 37.0269H43.6269C44.2112 34.0913 45.05 31.9188 46.1706 30.4406C47.3738 28.8456 48.9619 28.0069 50.7769 28.0069L50.7631 28ZM51.2444 55.5V58.8206H33.8094C32.895 58.8206 32.1456 58.0781 32.1456 57.1569C32.1456 56.2356 32.8881 55.4931 33.8094 55.4931H51.2444V55.5ZM70.3363 51.9731C71.2506 51.9731 72 52.7156 72 53.6369C72 54.5581 71.2575 55.3006 70.3363 55.3006H62.1C62.2375 54.2212 62.3338 53.1144 62.3888 51.98H70.3363V51.9731ZM51.2444 48.4462V51.7669H29.6638C28.7494 51.7669 28 51.0244 28 50.1031C28 49.1819 28.7425 48.4394 29.6638 48.4394H51.2512L51.2444 48.4462ZM62.21 44.9125H70.3363C71.2506 44.9125 72 45.655 72 46.5763C72 47.415 71.3744 48.1094 70.5631 48.2194L70.3363 48.2331H62.43C62.3956 47.1056 62.32 45.9919 62.21 44.9125V44.9125ZM51.2444 41.3856V44.7062H33.8094C32.895 44.7062 32.1456 43.9637 32.1456 43.0425C32.1456 42.2037 32.7712 41.5094 33.5825 41.3994L33.8094 41.3856H51.2444V41.3856Z" fill="#687E91"/>
</g>
<defs>
<clipPath id="clip0_4921_13293">
<rect width="100" height="100" fill="white"/>
</clipPath>
</defs>
</svg>
