<svg width="100" height="100" viewBox="0 0 100 100" fill="none" xmlns="http://www.w3.org/2000/svg">
<g clip-path="url(#clip0_4921_13270)">
<path d="M75.86 12.5204C74.7 10.5104 71.85 8.86035 69.53 8.86035H30.47C28.15 8.86035 25.3 10.5104 24.14 12.5204L4.60999 46.3404C3.44999 48.3504 3.44999 51.6404 4.60999 53.6504L24.14 87.4704C25.3 89.4804 28.15 91.1303 30.47 91.1303H69.52C71.84 91.1303 74.69 89.4804 75.85 87.4704L95.38 53.6504C96.54 51.6404 96.54 48.3504 95.38 46.3404L75.86 12.5204Z" stroke="#7993B0" stroke-width="1.5" stroke-linecap="round" stroke-linejoin="round"/>
<path fill-rule="evenodd" clip-rule="evenodd" d="M63.2051 60.6443C63.2051 60.6443 69.471 63.2556 70.5141 63.8446L64.0211 60.1191C63.7302 60.2611 63.4534 60.4314 63.2051 60.6443Z" fill="#687E91"/>
<path fill-rule="evenodd" clip-rule="evenodd" d="M35.1753 50.0117L38.0559 47.1311L34.1509 43.2261C31.669 40.703 31.7034 36.6398 34.2334 34.158C35.4228 32.9892 37.0178 32.3292 38.6884 32.3223C40.3797 32.3223 42.009 32.9961 43.2053 34.1992L47.1309 38.1042L50.0115 35.1823L46.1065 31.2773C42.1122 27.0767 35.4778 26.9048 31.2772 30.8923C27.0765 34.8798 26.8978 41.5142 30.8853 45.7217C31.009 45.8523 31.1397 45.983 31.2772 46.1136L35.1822 50.0186L35.1753 50.0117Z" fill="#7993B0"/>
<path fill-rule="evenodd" clip-rule="evenodd" d="M64.8341 50.0117L61.9534 52.8923L65.8584 56.818C68.2647 59.4167 68.1134 63.473 65.5147 65.8792C63.0534 68.1617 59.2447 68.1548 56.7834 65.8655L52.8784 61.9605L49.9978 64.8411L53.9028 68.7461C57.8903 72.9467 64.5247 73.1255 68.7322 69.138C72.9328 65.1505 73.1116 58.5161 69.1241 54.3086C69.0003 54.178 68.8697 54.0473 68.7322 53.9167L64.8272 50.0117H64.8341Z" fill="#7993B0"/>
<path fill-rule="evenodd" clip-rule="evenodd" d="M43.2258 65.8652C40.7233 68.3677 36.6602 68.3677 34.1577 65.8652C31.6552 63.3627 31.6552 59.2996 34.1577 56.7971L38.0627 52.8921L47.1308 61.9602L43.2258 65.8652ZM56.8108 34.1577C59.3065 31.6621 63.3558 31.669 65.8446 34.1646C67.0408 35.3677 67.7146 36.9971 67.7146 38.6952C67.7008 40.3933 67.0271 42.0227 65.8377 43.2327L61.9327 47.1377L52.8852 38.0696L56.8108 34.1646V34.1577ZM50.0046 56.9621C46.1683 56.9483 43.0608 53.8408 43.0471 50.0046C43.0677 46.1752 46.1683 43.0746 50.0046 43.0471C53.834 43.0677 56.9346 46.1683 56.9621 50.0046C56.9483 53.8408 53.8408 56.9483 50.0046 56.9621ZM64.834 50.0046L68.739 46.0996C72.9396 42.1121 73.1183 35.4777 69.1308 31.2702C65.1433 27.0696 58.509 26.8908 54.3015 30.8783C54.1708 31.0021 54.0402 31.1327 53.9096 31.2702L50.0046 35.1752L35.1752 50.0115L31.2702 53.9165C27.0696 57.904 26.8908 64.5383 30.8783 68.7458C34.8658 72.9465 41.5002 73.1252 45.7077 69.1377C45.8383 69.014 45.969 68.8833 46.0996 68.7458L50.0046 64.8408L64.834 50.0115V50.0046Z" fill="#687E91"/>
</g>
<defs>
<clipPath id="clip0_4921_13270">
<rect width="100" height="100" fill="white"/>
</clipPath>
</defs>
</svg>
