<svg width="100" height="100" viewBox="0 0 100 100" fill="none" xmlns="http://www.w3.org/2000/svg">
<g clip-path="url(#clip0_4916_12804)">
<path d="M75.86 12.5204C74.7 10.5104 71.85 8.86035 69.53 8.86035H30.47C28.15 8.86035 25.3 10.5104 24.14 12.5204L4.60999 46.3404C3.44999 48.3504 3.44999 51.6404 4.60999 53.6504L24.14 87.4704C25.3 89.4804 28.15 91.1303 30.47 91.1303H69.52C71.84 91.1303 74.69 89.4804 75.85 87.4704L95.38 53.6504C96.54 51.6404 96.54 48.3504 95.38 46.3404L75.86 12.5204Z" stroke="#7993B0" stroke-width="1.5" stroke-linecap="round" stroke-linejoin="round"/>
<path fill-rule="evenodd" clip-rule="evenodd" d="M56.7734 44.5244L53.3244 47.9735C55.3528 49.7051 55.5931 52.7583 53.8615 54.7868C52.9639 55.8398 51.6564 56.4547 50.2711 56.483C48.8081 56.4689 47.4369 55.8045 46.5111 54.6737L43.062 58.1227C46.4687 62.2573 52.5752 62.851 56.7098 59.4444C60.8444 56.0377 61.4381 49.9312 58.0315 45.7966C57.6498 45.3372 57.2328 44.9061 56.7734 44.5244V44.5244Z" fill="#576D7F"/>
<path fill-rule="evenodd" clip-rule="evenodd" d="M50.2709 33.9512C40.5103 33.9512 32.6016 41.86 32.6016 51.6205C32.6016 61.381 40.5103 69.2898 50.2709 69.2898C60.0314 69.2898 67.9402 61.381 67.9402 51.6205C67.9402 41.86 60.0314 33.9512 50.2709 33.9512M50.2709 64.3141C43.3233 64.3283 37.6762 58.7094 37.6621 51.7618C37.6479 44.8143 43.2668 39.1672 50.2143 39.153C57.1619 39.1389 62.809 44.7577 62.8232 51.7053C62.8232 51.7265 62.8232 51.7406 62.8232 51.7618C62.8232 58.6953 57.2043 64.3141 50.2709 64.3141Z" fill="#7993B0"/>
<path fill-rule="evenodd" clip-rule="evenodd" d="M77.4676 49.8964L70.2302 47.6064C70.5483 49.0271 70.7108 50.4759 70.7108 51.9319C70.7108 52.9567 70.6331 53.9745 70.4847 54.9852H77.4676C78.0683 54.9003 78.5207 54.4056 78.5419 53.7978V50.9707C78.5207 50.3629 78.0683 49.8681 77.4676 49.7833" fill="#687E91"/>
<path fill-rule="evenodd" clip-rule="evenodd" d="M50.271 31.8593C51.6986 31.8593 53.1193 32.0007 54.5116 32.2834L51.9107 25.0743C51.7128 24.4523 51.317 24 50.7233 24H49.649C49.0482 24.0353 48.5535 24.4806 48.4616 25.0743L46.2 32.2551C47.5428 31.9936 48.9069 31.8593 50.271 31.8593" fill="#687E91"/>
<path fill-rule="evenodd" clip-rule="evenodd" d="M29.831 51.9319C29.831 50.4759 29.9936 49.0271 30.3116 47.6064L23.0743 49.8964C22.4735 49.9812 22.0212 50.4759 22 51.0838V53.9109C22.0212 54.5187 22.4735 55.0134 23.0743 55.0982H30.0572C29.9088 54.0876 29.831 53.0698 29.831 52.045" fill="#687E91"/>
<path fill-rule="evenodd" clip-rule="evenodd" d="M50.2709 44.5244C46.3695 44.5244 43.2031 47.6908 43.2031 51.5921C43.2031 55.4935 46.3695 58.6599 50.2709 58.6599C54.1722 58.6599 57.3386 55.4935 57.3386 51.5921C57.3386 47.6908 54.1722 44.5244 50.2709 44.5244ZM50.2709 55.126C48.3202 55.126 46.737 53.5428 46.737 51.5921C46.737 49.6414 48.3202 48.0583 50.2709 48.0583C52.2215 48.0583 53.8047 49.6414 53.8047 51.5921C53.8189 53.5428 52.2498 55.1401 50.2991 55.1543C50.2921 55.1543 50.2779 55.1543 50.2709 55.1543V55.126Z" fill="#7993B0"/>
</g>
<defs>
<clipPath id="clip0_4916_12804">
<rect width="100" height="100" fill="white"/>
</clipPath>
</defs>
</svg>
