<svg width="100" height="100" viewBox="0 0 100 100" fill="none" xmlns="http://www.w3.org/2000/svg">
<path d="M23.7 11C17.25 11 12 16.25 12 22.7C12 29.15 17.25 34.4 23.7 34.4C30.15 34.4 35.4 29.15 35.4 22.7C35.4 16.25 30.15 11 23.7 11ZM30.02 16.69H27.91C27.59 15.91 27.24 15.21 26.89 14.58C28.08 15.05 29.15 15.78 30.02 16.69ZM22.74 28.71H24.65C24.33 29.35 24 29.92 23.7 30.4C23.4 29.93 23.07 29.35 22.75 28.71H22.74ZM21.6 25.75C21.46 25.24 21.36 24.72 21.28 24.18H26.09C26.02 24.72 25.91 25.24 25.77 25.75H21.59H21.6ZM24.64 16.69H22.73C23.05 16.05 23.38 15.48 23.68 15C23.98 15.47 24.31 16.05 24.63 16.69H24.64ZM25.78 19.65C25.92 20.16 26.02 20.68 26.1 21.22H21.29C21.36 20.68 21.47 20.16 21.61 19.65H25.79H25.78ZM18.3 21.22H15.09C15.18 20.68 15.33 20.16 15.51 19.65H18.54C18.43 20.16 18.35 20.68 18.29 21.22H18.3ZM18.3 24.18C18.36 24.72 18.44 25.24 18.55 25.75H15.52C15.33 25.25 15.19 24.73 15.1 24.18H18.31H18.3ZM29.08 24.18H32.29C32.2 24.72 32.05 25.24 31.87 25.75H28.83C28.94 25.24 29.02 24.72 29.08 24.18ZM29.08 21.22C29.02 20.68 28.94 20.16 28.83 19.65H31.87C32.06 20.15 32.2 20.68 32.29 21.22H29.08ZM20.5 14.58C20.15 15.21 19.8 15.92 19.48 16.69H17.37C18.24 15.77 19.3 15.05 20.5 14.58ZM17.37 28.71H19.48C19.8 29.49 20.15 30.19 20.5 30.82C19.31 30.35 18.24 29.62 17.37 28.71ZM26.89 30.82C27.24 30.19 27.59 29.48 27.91 28.71H30.02C29.15 29.63 28.09 30.35 26.89 30.82Z" fill="#7993B0"/>
<path d="M19.9301 52.6602C19.9301 54.8702 21.7301 56.6602 23.9301 56.6602C26.1301 56.6602 27.9301 54.8602 27.9301 52.6602C27.9301 50.4602 26.1301 48.6602 23.9301 48.6602C21.7301 48.6602 19.9301 50.4602 19.9301 52.6602ZM24.9701 52.6602C24.9701 53.2302 24.5001 53.7002 23.9301 53.7002C23.3601 53.7002 22.8901 53.2302 22.8901 52.6602C22.8901 52.0902 23.3601 51.6202 23.9301 51.6202C24.5001 51.6202 24.9701 52.0902 24.9701 52.6602Z" fill="#7993B0"/>
<path d="M23.9301 73.5703C21.7201 73.5703 19.9301 75.3703 19.9301 77.5703C19.9301 79.2503 20.9801 80.6903 22.4501 81.2803V83.6503H25.4101V81.2803C26.8801 80.6903 27.9301 79.2503 27.9301 77.5703C27.9301 75.3603 26.1301 73.5703 23.9301 73.5703ZM23.9301 76.5303C24.5001 76.5303 24.9701 77.0003 24.9701 77.5703C24.9701 78.1403 24.5001 78.6103 23.9301 78.6103C23.3601 78.6103 22.8901 78.1403 22.8901 77.5703C22.8901 77.0003 23.3601 76.5303 23.9301 76.5303Z" fill="#7993B0"/>
<path d="M33.76 43.1497C31.27 40.5697 27.79 38.9697 23.93 38.9697C20.07 38.9697 16.59 40.5797 14.1 43.1497L15.9 44.9497C17.93 42.8397 20.78 41.5097 23.93 41.5097C27.08 41.5097 29.93 42.8297 31.96 44.9497L33.76 43.1497Z" fill="#7993B0"/>
<path d="M30.35 46.56C28.73 44.86 26.45 43.79 23.93 43.79C21.41 43.79 19.12 44.86 17.51 46.56L19.31 48.36C20.47 47.12 22.11 46.34 23.94 46.34C25.77 46.34 27.41 47.12 28.57 48.36L30.37 46.56H30.35Z" fill="#7993B0"/>
<path d="M32.54 69.2302V67.0602C32.54 62.3102 28.68 58.4502 23.93 58.4502C19.18 58.4502 15.32 62.3102 15.32 67.0602V69.1802C13.69 69.6202 12.47 71.1102 12.47 72.8802V85.1402C12.47 87.2602 14.2 88.9902 16.32 88.9902H31.4C33.52 88.9902 35.25 87.2602 35.25 85.1402V72.8802C35.25 71.1602 34.11 69.7202 32.55 69.2302H32.54ZM18.27 67.0602C18.27 63.9402 20.81 61.4102 23.92 61.4102C27.03 61.4102 29.57 63.9502 29.57 67.0602V68.6602H18.28V67.0602H18.27ZM32.27 85.1502C32.27 85.6402 31.87 86.0402 31.38 86.0402H16.32C15.83 86.0402 15.43 85.6402 15.43 85.1502V72.8902C15.43 72.4002 15.83 72.0002 16.32 72.0002H31.4C31.89 72.0002 32.29 72.4002 32.29 72.8902V85.1502H32.27Z" fill="#7993B0"/>
<path d="M74.0299 38.6201C66.5299 38.6201 60.45 44.7001 60.45 52.2001C60.45 59.7001 66.5299 65.7801 74.0299 65.7801C81.5299 65.7801 87.61 59.7001 87.61 52.2001C87.61 44.7001 81.5299 38.6201 74.0299 38.6201ZM69.72 60.3201L64.7999 55.4001L66.5999 53.6001L69.72 56.7201L81.4599 44.9801L83.26 46.7801L69.7299 60.3101L69.72 60.3201Z" fill="#7993B0"/>
<path d="M49.06 30.03C49.06 24.59 45.83 21.21 40.62 21.21H37.67V24.17H40.62C42.67 24.17 46.1 24.93 46.1 30.02V50.96H37.66V53.92H46.1V70.8C46.1 74.26 43.45 76.08 40.82 76.08H37.65V79.04H40.82C45.52 79.04 49.06 75.5 49.06 70.8V53.92H57.49V50.96H49.06V30.02V30.03Z" fill="#7993B0"/>
</svg>
