<svg width="100" height="100" viewBox="0 0 100 100" fill="none" xmlns="http://www.w3.org/2000/svg">
<g clip-path="url(#clip0_4916_12835)">
<path d="M75.86 12.5204C74.7 10.5104 71.85 8.86035 69.53 8.86035H30.47C28.15 8.86035 25.3 10.5104 24.14 12.5204L4.60999 46.3404C3.44999 48.3504 3.44999 51.6404 4.60999 53.6504L24.14 87.4704C25.3 89.4804 28.15 91.1303 30.47 91.1303H69.52C71.84 91.1303 74.69 89.4804 75.85 87.4704L95.38 53.6504C96.54 51.6404 96.54 48.3504 95.38 46.3404L75.86 12.5204Z" stroke="#7993B0" stroke-width="1.5" stroke-linecap="round" stroke-linejoin="round"/>
<path d="M61.2176 31L78.54 49.8844L61.2176 68.7687L55.4293 62.4574L49.5986 68.8182L44.4322 63.1854L39.3154 68.7687L22 49.8844L39.3224 31L44.4817 36.6257L42.6724 38.5976L39.3224 34.9507L25.6256 49.8844L39.3224 64.818L42.63 61.2065L32.2832 49.9268L49.6057 31.0424L55.3939 37.3537L61.2176 31ZM49.5986 34.9931L35.9088 49.9268L49.6057 64.8604L53.62 60.4785L43.9022 49.8844L53.5776 39.3255L49.6057 34.9931H49.5986Z" fill="#7993B0"/>
</g>
<defs>
<clipPath id="clip0_4916_12835">
<rect width="100" height="100" fill="white"/>
</clipPath>
</defs>
</svg>
