<svg width="102" height="102" viewBox="0 0 102 102" fill="none" xmlns="http://www.w3.org/2000/svg">
<g clip-path="url(#clip0_0_1)">
<path d="M72.6879 21.0159C71.7599 19.4079 69.4799 18.0879 67.6239 18.0879H36.3759C34.5199 18.0879 32.2399 19.4079 31.3119 21.0159L15.6879 48.0719C14.7599 49.6799 14.7599 52.3119 15.6879 53.9199L31.3119 80.9759C32.2399 82.5839 34.5199 83.9039 36.3759 83.9039H67.6159C69.4719 83.9039 71.7519 82.5839 72.6799 80.9759L88.3039 53.9199C89.2319 52.3119 89.2319 49.6799 88.3039 48.0719L72.6879 21.0159Z" stroke="#7993B0" stroke-width="1.5" stroke-linecap="round" stroke-linejoin="round"/>
<path d="M42 41H58.496V57.496H42V41ZM44.0345 51.2825H46.7838V48.5332H44.0345V51.2825ZM44.0345 55.6814H46.7838V52.9321H44.0345V55.6814ZM48.9833 51.2825H51.7326V48.5332H48.9833V51.2825ZM48.9833 55.6814H51.7326V52.9321H48.9833V55.6814ZM53.9321 51.2825H56.6814V48.5332H53.9321V51.2825ZM53.9321 55.6814H56.6814V52.9321H53.9321V55.6814ZM43.9245 46.1028H56.5715V43.3534H43.9245V46.1028V46.1028Z" fill="#7993B0"/>
<path fill-rule="evenodd" clip-rule="evenodd" d="M62.1035 58.6016L59.6065 61.0986C59.315 61.3846 59.3095 61.8521 59.5955 62.1436C59.5955 62.1436 59.601 62.1491 59.6065 62.1546L65.838 68.3861C66.124 68.6721 66.586 68.6721 66.8775 68.3861L69.3965 65.8671C69.6825 65.5811 69.6825 65.1191 69.3965 64.8276L63.165 58.5961C62.879 58.3046 62.4115 58.2991 62.12 58.5851C62.12 58.5851 62.1145 58.5906 62.109 58.5961" fill="#576D7F"/>
<path fill-rule="evenodd" clip-rule="evenodd" d="M50.24 33.4004C41.495 33.4004 34.4 40.4899 34.4 49.2404C34.4 57.9909 41.4895 65.0804 50.24 65.0804C58.9905 65.0804 66.08 57.9909 66.08 49.2404C66.08 40.4899 58.9905 33.4004 50.24 33.4004M50.24 61.0159C43.7445 61.0049 38.492 55.7359 38.503 49.2404C38.514 42.7449 43.783 37.4924 50.2785 37.5034C56.7575 37.5144 62.01 42.7614 62.0155 49.2404C62.0265 55.7359 56.7685 61.0049 50.2785 61.0159C50.2675 61.0159 50.2565 61.0159 50.2455 61.0159" fill="#687E91"/>
</g>
<path d="M51 101C78.6142 101 101 78.6142 101 51C101 23.3858 78.6142 1 51 1C23.3858 1 1 23.3858 1 51C1 78.6142 23.3858 101 51 101Z" stroke="#7893B0" stroke-width="1.5" stroke-linecap="round" stroke-linejoin="round"/>
<defs>
<clipPath id="clip0_0_1">
<rect width="80" height="80" fill="white" transform="translate(12 11)"/>
</clipPath>
</defs>
</svg>
