<svg width="100" height="100" viewBox="0 0 100 100" fill="none" xmlns="http://www.w3.org/2000/svg">
<g clip-path="url(#clip0_5640_18876)">
<path d="M75.86 12.5204C74.7 10.5104 71.85 8.86035 69.53 8.86035H30.47C28.15 8.86035 25.3 10.5104 24.14 12.5204L4.60999 46.3404C3.44999 48.3504 3.44999 51.6404 4.60999 53.6504L24.14 87.4704C25.3 89.4804 28.15 91.1303 30.47 91.1303H69.52C71.84 91.1303 74.69 89.4804 75.85 87.4704L95.38 53.6504C96.54 51.6404 96.54 48.3504 95.38 46.3404L75.86 12.5204Z" stroke="#7993B0" stroke-width="1.5" stroke-linecap="round" stroke-linejoin="round"/>
<path fill-rule="evenodd" clip-rule="evenodd" d="M62.6294 59.5013L59.5081 62.6226C59.1437 62.9801 59.1369 63.5644 59.4944 63.9288C59.4944 63.9288 59.5012 63.9357 59.5081 63.9426L67.2975 71.7319C67.655 72.0894 68.2325 72.0894 68.5969 71.7319L71.7456 68.5832C72.1031 68.2257 72.1031 67.6482 71.7456 67.2838L63.9562 59.4944C63.5987 59.1301 63.0144 59.1232 62.65 59.4807C62.65 59.4807 62.6431 59.4876 62.6362 59.4944" fill="#576D7F"/>
<path fill-rule="evenodd" clip-rule="evenodd" d="M47.8 28C36.8687 28 28 36.8619 28 47.8C28 58.7381 36.8619 67.6 47.8 67.6C58.7381 67.6 67.6 58.7381 67.6 47.8C67.6 36.8619 58.7381 28 47.8 28ZM47.8 62.5194C39.6806 62.5056 33.115 55.9194 33.1287 47.8C33.1425 39.6806 39.7287 33.115 47.8481 33.1287C55.9469 33.1425 62.5125 39.7013 62.5194 47.8C62.5331 55.9194 55.9606 62.5056 47.8481 62.5194C47.8344 62.5194 47.8206 62.5194 47.8069 62.5194" fill="#687E91"/>
<path d="M58.0833 48L59.3392 38.9433L55.8925 40.3458C53.83 38.21 51.0158 37 48 37C41.9317 37 37 41.9317 37 48C37 54.0683 41.9317 59 48 59C51.8958 59 55.4158 57.0108 57.4325 53.665C57.6983 53.2342 57.5517 52.6658 57.1208 52.4092C56.69 52.1433 56.1217 52.29 55.865 52.7208C54.1875 55.5075 51.2542 57.1667 48.0092 57.1667C42.9583 57.1667 38.8425 53.0508 38.8425 48C38.8425 42.9492 42.9492 38.8333 48 38.8333C50.255 38.8333 52.3633 39.6492 54.0225 41.1067L50.8692 42.39L58.0833 48Z" fill="#7993B0"/>
<path d="M47.0833 41.2721V47.7988L44.2325 50.6496C43.875 51.0071 43.875 51.5846 44.2325 51.9421C44.4158 52.1255 44.645 52.208 44.8833 52.208C45.1216 52.208 45.3508 52.1163 45.5341 51.9421L48.6508 48.8255C48.825 48.6513 48.9166 48.4221 48.9166 48.1746V41.2721C48.9166 40.768 48.5041 40.3555 48 40.3555C47.4958 40.3555 47.0833 40.768 47.0833 41.2721Z" fill="#7993B0"/>
</g>
<defs>
<clipPath id="clip0_5640_18876">
<rect width="100" height="100" fill="white"/>
</clipPath>
</defs>
</svg>
