<svg width="100" height="100" viewBox="0 0 100 100" fill="none" xmlns="http://www.w3.org/2000/svg">
<g clip-path="url(#clip0_4916_12878)">
<path d="M75.86 12.5204C74.7 10.5104 71.85 8.86035 69.53 8.86035H30.47C28.15 8.86035 25.3 10.5104 24.14 12.5204L4.60999 46.3404C3.44999 48.3504 3.44999 51.6404 4.60999 53.6504L24.14 87.4704C25.3 89.4804 28.15 91.1303 30.47 91.1303H69.52C71.84 91.1303 74.69 89.4804 75.85 87.4704L95.38 53.6504C96.54 51.6404 96.54 48.3504 95.38 46.3404L75.86 12.5204Z" stroke="#7993B0" stroke-width="1.5" stroke-linecap="round" stroke-linejoin="round"/>
<path fill-rule="evenodd" clip-rule="evenodd" d="M60.3345 35.8906L49.9916 29.7461C48.4746 28.7961 47.379 27.2945 46.927 25.5553C46.927 25.5553 47.3177 24.7738 47.8617 25.065C48.4057 25.3561 56.4349 30.1139 60.7253 32.6651C62.2729 33.5692 61.3152 37.5685 61.3152 37.5685C61.3152 36.8713 60.9398 36.2354 60.3345 35.9059V35.8906Z" fill="#687E91"/>
<path fill-rule="evenodd" clip-rule="evenodd" d="M63.445 51.1826C63.4756 51.5044 63.3224 51.8185 63.0543 51.9947L60.6026 53.6572V34.1742C60.6026 33.5153 61.0163 32.8028 60.457 32.458L62.7095 34.1205C63.2611 34.4576 63.5906 35.0629 63.5676 35.7141L63.445 51.1749V51.1826Z" fill="#7993B0"/>
<path fill-rule="evenodd" clip-rule="evenodd" d="M49.9916 53.4122C49.8154 53.4122 49.6468 53.3586 49.5012 53.2667L41.02 48.2178V50.4243L49.9916 55.7643L50.7041 54.3699C50.7041 54.3699 50.1678 53.4122 49.9916 53.4122Z" fill="#687E91"/>
<path fill-rule="evenodd" clip-rule="evenodd" d="M50.4819 57.8253C50.1831 58.0245 49.8 58.0245 49.5012 57.8253L41.02 52.7764V54.3929C41.02 54.7377 41.1962 55.0595 41.4874 55.251L49.5242 60.1543C49.8077 60.3229 50.1678 60.3229 50.4589 60.1543C50.6811 59.7559 50.8497 59.3269 50.9493 58.8825L50.4819 57.9249V57.8253Z" fill="#687E91"/>
<path fill-rule="evenodd" clip-rule="evenodd" d="M49.9916 51.2817L58.9631 45.9417V44.8844C58.9631 44.5473 58.7869 44.2255 58.4958 44.0493L50.4589 39.1459C50.1755 38.9774 49.8154 38.9774 49.5242 39.1459L41.4874 44.0493C41.2039 44.2331 41.0277 44.5473 41.02 44.8844V45.9417L49.9916 51.2817Z" fill="#7993B0"/>
<path fill-rule="evenodd" clip-rule="evenodd" d="M49.9916 49.0757L41.4874 44.0498C41.2039 44.2337 41.0277 44.5478 41.02 44.8849V45.9422L49.9916 51.2822L50.6811 49.9108L49.9916 49.0757V49.0757Z" fill="#687E91"/>
<path fill-rule="evenodd" clip-rule="evenodd" d="M49.9917 53.4122V55.8639L58.9633 50.5239V48.3174L50.482 53.2667C50.3288 53.3433 50.1603 53.3893 49.9917 53.4122Z" fill="#576D7F"/>
<path fill-rule="evenodd" clip-rule="evenodd" d="M50.482 57.8253C50.3365 57.9248 50.1679 57.9708 49.9917 57.9708V60.1773C50.1679 60.1773 50.3441 60.1313 50.505 60.0547L58.5419 55.1514C58.8407 54.9752 59.0245 54.6458 59.0092 54.2933V52.6768L50.482 57.8253V57.8253Z" fill="#576D7F"/>
<path fill-rule="evenodd" clip-rule="evenodd" d="M58.4959 44.0498L49.9917 49.0757V51.2822L58.9633 45.9422V44.8849C58.9633 44.5478 58.787 44.226 58.4959 44.0498V44.0498Z" fill="#576D7F"/>
<path fill-rule="evenodd" clip-rule="evenodd" d="M39.6487 63.0425L49.8154 69.095C51.4396 70.0527 52.5812 71.6616 52.9489 73.508C52.9949 73.7455 52.834 73.9754 52.5965 74.0214C52.4816 74.0443 52.359 74.0214 52.2671 73.9524L38.9132 66.0381C37.6107 65.2567 38.7446 61.4336 38.7446 61.4336C38.7446 62.0925 39.0894 62.7054 39.6487 63.0502V63.0425Z" fill="#687E91"/>
<path fill-rule="evenodd" clip-rule="evenodd" d="M36.5381 63.5331V47.4593C36.5534 47.1299 36.722 46.8311 37.0054 46.6472L39.4571 45.1992V64.5827C39.4571 65.2416 39.4571 66.2759 39.9704 66.613L37.3732 64.9964C36.8752 64.667 36.5611 64.123 36.5381 63.5254V63.5331Z" fill="#7993B0"/>
<path fill-rule="evenodd" clip-rule="evenodd" d="M45.4867 33.4693C44.9274 33.1475 44.2378 33.1475 43.6709 33.4693L33.3816 39.6904C31.8416 40.6021 29.9952 40.8319 28.2867 40.3263C28.0186 40.1731 27.919 39.8283 28.0722 39.5601C28.1258 39.4682 28.1948 39.3993 28.2867 39.3456C28.7311 39.1234 43.7705 30.1825 43.7705 30.1825C44.3374 29.8378 45.5863 33.5919 45.5863 33.5919L45.4867 33.4693V33.4693Z" fill="#687E91"/>
<path fill-rule="evenodd" clip-rule="evenodd" d="M45.4561 30.0835L58.4959 37.8063C58.7794 37.9519 58.9709 38.243 58.9863 38.5648V41.4531L42.6444 31.7537C42.0851 31.432 41.3956 31.432 40.8286 31.7537L43.717 30.0606C44.2686 29.7311 44.9581 29.7311 45.5021 30.0606L45.4561 30.0835V30.0835Z" fill="#7993B0"/>
<path fill-rule="evenodd" clip-rule="evenodd" d="M54.4506 65.3949C55.0099 65.7244 55.7071 65.7244 56.2664 65.3949L66.5557 59.2964C68.111 58.3847 69.9727 58.1625 71.7042 58.6835C71.9647 58.8061 72.072 59.1125 71.9494 59.3654C71.8958 59.4726 71.8115 59.5646 71.7042 59.6105L56.1898 68.7966C55.6535 69.1414 54.374 65.3643 54.374 65.3643L54.4506 65.3873V65.3949Z" fill="#687E91"/>
<path fill-rule="evenodd" clip-rule="evenodd" d="M41.4415 61.136C41.2117 60.9214 41.0661 60.638 41.0278 60.3238V57.4814L57.3467 67.1119C57.8907 67.4567 58.5879 67.4567 59.1318 67.1119L56.2435 68.8281C55.6918 69.1728 54.987 69.1728 54.4277 68.8281L41.4415 61.136Z" fill="#7993B0"/>
<path fill-rule="evenodd" clip-rule="evenodd" d="M35.9252 44.1268C35.3659 44.4639 35.0211 45.0691 35.0211 45.7203V57.971C35.0211 59.8251 34.2473 61.6025 32.8913 62.8743C32.7074 63.0352 32.4316 63.0199 32.2707 62.836C32.2017 62.7594 32.1634 62.6598 32.1558 62.5525V44.0272C32.1558 43.3376 35.9329 44.0272 35.9329 44.0272V44.1268H35.9252Z" fill="#687E91"/>
<path fill-rule="evenodd" clip-rule="evenodd" d="M44.5291 36.0668C44.7973 35.8983 45.142 35.8983 45.4102 36.0668L47.8618 37.5149L32.9603 46.2336C32.3934 46.5784 32.0486 47.1913 32.0563 47.8502V44.4408C32.0563 43.7819 32.4087 43.1843 32.991 42.8702L44.5368 36.0592L44.5291 36.0668Z" fill="#7993B0"/>
<path fill-rule="evenodd" clip-rule="evenodd" d="M65.1155 53.0216V40.771C65.1155 38.9246 65.8587 37.1624 67.1764 35.8677C67.1764 35.8677 67.9885 35.5995 67.9349 36.381C67.8813 37.1624 67.9349 54.439 67.9349 54.439C67.1764 55.3431 63.9893 54.439 63.9893 54.439C64.5715 54.1785 64.9929 53.6422 65.1155 53.014V53.0216Z" fill="#687E91"/>
<path fill-rule="evenodd" clip-rule="evenodd" d="M67.1458 55.8864L55.531 62.8737C55.2552 63.0499 54.9028 63.0499 54.627 62.8737L52.1753 61.4793L67.1458 52.4847C67.7127 52.14 68.0575 51.527 68.0498 50.8682V54.4001C68.0038 54.967 67.1458 55.8941 67.1458 55.8941V55.8864Z" fill="#7993B0"/>
</g>
<defs>
<clipPath id="clip0_4916_12878">
<rect width="100" height="100" fill="white"/>
</clipPath>
</defs>
</svg>
