<svg width="100" height="100" viewBox="0 0 100 100" fill="none" xmlns="http://www.w3.org/2000/svg">
<g clip-path="url(#clip0_4922_13490)">
<path d="M75.86 12.5204C74.7 10.5104 71.85 8.86035 69.53 8.86035H30.47C28.15 8.86035 25.3 10.5104 24.14 12.5204L4.60999 46.3404C3.44999 48.3504 3.44999 51.6404 4.60999 53.6504L24.14 87.4704C25.3 89.4804 28.15 91.1303 30.47 91.1303H69.52C71.84 91.1303 74.69 89.4804 75.85 87.4704L95.38 53.6504C96.54 51.6404 96.54 48.3504 95.38 46.3404L75.86 12.5204Z" stroke="#7993B0" stroke-width="1.5" stroke-linecap="round" stroke-linejoin="round"/>
<path d="M56.5529 49.1378H61.0622V49.2752C61.0622 62.6106 53.3016 67.3261 50.7307 68.5428V71.9935L51.2944 71.8148C51.8099 71.636 64.3135 67.1199 64.3135 49.2546V45.9414H54.9032L56.5529 49.1446V49.1378Z" fill="#7993B0"/>
<path d="M54.9031 45.934L56.4841 43.0676V28L53.9545 29.9659C48.4485 34.0009 42.6745 41.4247 43.0319 50.134C43.1419 55.8874 45.9946 61.2422 50.7032 64.5485L50.93 64.7066L52.621 61.9571L52.3942 61.8196C51.7343 61.3384 51.1156 60.8022 50.5451 60.218L56.546 56.7673V49.1441L54.8963 45.9409L54.9031 45.934ZM53.3221 49.1372V54.9113L48.5173 57.6884C47.06 55.3787 46.2764 52.7048 46.2626 49.9759C45.9671 42.4627 51.0675 36.778 53.2809 34.6814V42.174L49.4934 49.1441H53.3771" fill="#576D7F"/>
<path d="M50.6414 68.5425C43.2657 64.7893 38.7908 57.0424 39.2239 48.78V45.8242H36V48.78C36 65.7448 48.6342 71.3401 50.0777 71.7938L50.6208 72" fill="#7893B0"/>
</g>
<defs>
<clipPath id="clip0_4922_13490">
<rect width="100" height="100" fill="white"/>
</clipPath>
</defs>
</svg>
