<svg width="102" height="102" viewBox="0 0 102 102" fill="none" xmlns="http://www.w3.org/2000/svg">
<path d="M51 101C78.6142 101 101 78.6142 101 51C101 23.3858 78.6142 1 51 1C23.3858 1 1 23.3858 1 51C1 78.6142 23.3858 101 51 101Z" stroke="#7893B0" stroke-width="1.5" stroke-linecap="round" stroke-linejoin="round"/>
<g clip-path="url(#clip0_6024_21511)">
<path d="M87.3199 47.98C88.2499 49.59 88.2499 52.22 87.3199 53.83L71.6999 80.89C70.7699 82.5 68.4899 83.82 66.6299 83.82H35.3899C33.5299 83.82 31.2499 82.5 30.3199 80.89L14.6999 53.83C13.7699 52.22 13.7699 49.59 14.6999 47.98L30.3199 20.93C31.2499 19.32 33.5299 18 35.3899 18H66.6299C68.4899 18 70.7699 19.32 71.6999 20.93L87.3199 47.99V47.98ZM41.2999 53.6C42.0599 54.92 43.1499 56.02 44.4499 56.81V48.76H41.2999V53.61V53.6ZM47.1199 58.17C47.7999 58.26 48.4799 58.29 49.1699 58.28C49.7799 58.32 50.3999 58.32 51.0099 58.28V44.29H47.1199V58.17ZM54.0299 56.71C55.3399 55.87 56.4199 54.72 57.1599 53.36V50.65H54.0299V56.71ZM69.2199 65.39L62.6999 58.87C62.6999 58.87 62.6299 58.83 62.5999 58.8C64.5899 56.07 65.7599 52.7 65.7599 49.06C65.7599 39.9 58.3299 32.47 49.1699 32.47C40.0099 32.47 32.5799 39.9 32.5799 49.06C32.5799 58.22 40.0099 65.65 49.1699 65.65C52.8099 65.65 56.1699 64.48 58.9099 62.49C58.9299 62.52 58.9399 62.55 58.9699 62.58C58.9699 62.58 58.9699 62.58 58.9799 62.59L65.4999 69.11C65.7999 69.41 66.2899 69.41 66.5899 69.11L69.2299 66.47C69.5299 66.17 69.5299 65.68 69.2299 65.38L69.2199 65.39ZM49.1999 61.39H49.1599C42.3599 61.39 36.8599 55.86 36.8699 49.06C36.8799 42.26 42.3999 36.76 49.1999 36.77C55.9899 36.78 61.4799 42.28 61.4899 49.06C61.4999 55.86 55.9999 61.38 49.1999 61.39Z" fill="#7993B0"/>
</g>
<defs>
<clipPath id="clip0_6024_21511">
<rect width="74.02" height="65.82" fill="white" transform="translate(14 18)"/>
</clipPath>
</defs>
</svg>
