<svg width="102" height="102" viewBox="0 0 102 102" fill="none" xmlns="http://www.w3.org/2000/svg">
<path d="M51 101C78.6142 101 101 78.6142 101 51C101 23.3858 78.6142 1 51 1C23.3858 1 1 23.3858 1 51C1 78.6142 23.3858 101 51 101Z" stroke="#7893B0" stroke-width="1.5" stroke-linecap="round" stroke-linejoin="round"/>
<g clip-path="url(#clip0_6024_21531)">
<path d="M71.6999 20.93C70.7699 19.32 68.4899 18 66.6399 18H35.3799C33.5199 18 31.2399 19.32 30.3199 20.93L14.6999 47.98C13.7699 49.59 13.7699 52.22 14.6999 53.83L30.3199 80.89C31.2499 82.5 33.5299 83.82 35.3799 83.82H66.6199C68.4799 83.82 70.7599 82.5 71.6799 80.89L87.2999 53.83C88.2299 52.22 88.2299 49.59 87.2999 47.98L71.6999 20.93ZM40.9999 57.4H57.4999V40.91H40.9999V57.41V57.4ZM45.7799 52.84H43.0299V55.59H45.7799V52.84ZM45.7799 48.44H43.0299V51.19H45.7799V48.44ZM50.7299 52.84H47.9799V55.59H50.7299V52.84ZM50.7299 48.44H47.9799V51.19H50.7299V48.44ZM55.6799 52.84H52.9299V55.59H55.6799V52.84ZM55.6799 48.44H52.9299V51.19H55.6799V48.44ZM42.9199 46.01H55.5699V43.26H42.9199V46.01ZM68.3899 65.77L65.8699 68.29C65.5799 68.58 65.1199 68.58 64.8299 68.29L58.5999 62.06L58.5899 62.05C58.5599 62.02 58.5499 61.99 58.5299 61.96C55.9199 63.86 52.7099 64.99 49.2399 64.99C40.4899 64.99 33.3999 57.9 33.3999 49.15C33.3999 40.4 40.4899 33.31 49.2399 33.31C57.9899 33.31 65.0799 40.4 65.0799 49.15C65.0799 52.62 63.9499 55.82 62.0599 58.43C62.0999 58.46 62.1399 58.47 62.1699 58.5L68.3999 64.73C68.6899 65.02 68.6899 65.48 68.3999 65.77H68.3899ZM49.2699 60.92H49.2299C42.7299 60.91 37.4799 55.64 37.4899 49.14C37.4999 42.64 42.7699 37.39 49.2699 37.4C55.7499 37.41 60.9999 42.66 61.0099 49.14C61.0199 55.64 55.7599 60.9 49.2699 60.92Z" fill="#7993B0"/>
</g>
<defs>
<clipPath id="clip0_6024_21531">
<rect width="74.01" height="65.82" fill="white" transform="translate(14 18)"/>
</clipPath>
</defs>
</svg>
