<svg width="103" height="102" viewBox="0 0 103 102" fill="none" xmlns="http://www.w3.org/2000/svg">
<path d="M51.5 101C79.1142 101 101.5 78.6142 101.5 51C101.5 23.3858 79.1142 1 51.5 1C23.8858 1 1.5 23.3858 1.5 51C1.5 78.6142 23.8858 101 51.5 101Z" stroke="#7893B0" stroke-width="1.5" stroke-linecap="round" stroke-linejoin="round"/>
<path d="M90.0339 49.0898C90.9984 50.7594 90.9984 53.4867 90.0339 55.1563L73.8357 83.218C72.8713 84.8876 70.5069 86.2565 68.5781 86.2565H36.1816C34.2528 86.2565 31.8884 84.8876 30.924 83.218L14.7258 55.1563C13.7613 53.4867 13.7613 50.7594 14.7258 49.0898L30.924 21.0385C31.8884 19.3689 34.2528 18 36.1816 18H68.5781C70.5069 18 72.8713 19.3689 73.8357 21.0385L90.0339 49.1001V49.0898ZM34.1283 63.4525H70.6314V40.804H34.1283V63.4525ZM38.8468 61.0155C38.5046 61.0155 38.2246 60.7355 38.2246 60.3933V43.8528C38.2246 43.5106 38.5046 43.2306 38.8468 43.2306C39.189 43.2306 39.469 43.5106 39.469 43.8528V60.3933C39.469 60.7355 39.189 61.0155 38.8468 61.0155ZM43.3578 61.0155C43.0156 61.0155 42.7356 60.7355 42.7356 60.3933V43.8528C42.7356 43.5106 43.0156 43.2306 43.3578 43.2306C43.7 43.2306 43.98 43.5106 43.98 43.8528V60.3933C43.98 60.7355 43.7 61.0155 43.3578 61.0155ZM47.8688 61.0155C47.5266 61.0155 47.2466 60.7355 47.2466 60.3933V43.8528C47.2466 43.5106 47.5266 43.2306 47.8688 43.2306C48.211 43.2306 48.491 43.5106 48.491 43.8528V60.3933C48.491 60.7355 48.211 61.0155 47.8688 61.0155ZM52.3799 61.0155C52.0376 61.0155 51.7576 60.7355 51.7576 60.3933V43.8528C51.7576 43.5106 52.0376 43.2306 52.3799 43.2306C52.7221 43.2306 53.0021 43.5106 53.0021 43.8528V60.3933C53.0021 60.7355 52.7221 61.0155 52.3799 61.0155ZM56.8909 61.0155C56.5487 61.0155 56.2687 60.7355 56.2687 60.3933V43.8528C56.2687 43.5106 56.5487 43.2306 56.8909 43.2306C57.2331 43.2306 57.5131 43.5106 57.5131 43.8528V60.3933C57.5131 60.7355 57.2331 61.0155 56.8909 61.0155ZM61.4019 61.0155C61.0597 61.0155 60.7797 60.7355 60.7797 60.3933V43.8528C60.7797 43.5106 61.0597 43.2306 61.4019 43.2306C61.7441 43.2306 62.0241 43.5106 62.0241 43.8528V60.3933C62.0241 60.7355 61.7441 61.0155 61.4019 61.0155ZM65.9129 61.0155C65.5707 61.0155 65.2907 60.7355 65.2907 60.3933V43.8528C65.2907 43.5106 65.5707 43.2306 65.9129 43.2306C66.2551 43.2306 66.5351 43.5106 66.5351 43.8528V60.3933C66.5351 60.7355 66.2551 61.0155 65.9129 61.0155Z" fill="#7993B0"/>
</svg>
