 <svg
          width="100"
          height="100"
          viewBox="0 0 100 100"
          fill="none"
          xmlns="http://www.w3.org/2000/svg"
        >
          <path
            d="M73.8602 4.51986C72.7002 2.50986 69.8502 0.859863 67.5302 0.859863H28.4702C26.1502 0.859863 23.3002 2.50986 22.1402 4.51986L2.61023 38.3399C1.45023 40.3499 1.45023 43.6399 2.61023 45.6499L22.1402 79.4699C23.3002 81.4799 26.1502 83.1299 28.4702 83.1299H67.5202C69.8402 83.1299 72.6902 81.4799 73.8502 79.4699L93.3802 45.6499C94.5402 43.6399 94.5402 40.3499 93.3802 38.3399L73.8602 4.51986Z"
            stroke='#7894B0'
            strokeWidth="1.5"
            strokeMiterlimit="10"
            strokeLinecap="round"
            strokeLinejoin="round"
          />
          <path
            d="M24.2998 28.3501H68.2998V55.6501H24.2998V28.3501ZM30.7398 51.9601V32.0301C30.7398 31.6201 30.3998 31.2801 29.9898 31.2801C29.5798 31.2801 29.2398 31.6201 29.2398 32.0301V51.9601C29.2398 52.3701 29.5798 52.7101 29.9898 52.7101C30.3998 52.7101 30.7398 52.3801 30.7398 51.9601ZM36.1798 51.9601V32.0301C36.1798 31.6201 35.8398 31.2801 35.4298 31.2801C35.0198 31.2801 34.6798 31.6201 34.6798 32.0301V51.9601C34.6798 52.3701 35.0198 52.7101 35.4298 52.7101C35.8398 52.7101 36.1798 52.3801 36.1798 51.9601ZM41.6198 51.9601V32.0301C41.6198 31.6201 41.2798 31.2801 40.8698 31.2801C40.4598 31.2801 40.1198 31.6201 40.1198 32.0301V51.9601C40.1198 52.3701 40.4598 52.7101 40.8698 52.7101C41.2798 52.7101 41.6198 52.3801 41.6198 51.9601ZM47.0498 51.9601V32.0301C47.0498 31.6201 46.7098 31.2801 46.2998 31.2801C45.8898 31.2801 45.5498 31.6201 45.5498 32.0301V51.9601C45.5498 52.3701 45.8898 52.7101 46.2998 52.7101C46.7098 52.7101 47.0498 52.3801 47.0498 51.9601ZM52.4898 51.9601V32.0301C52.4898 31.6201 52.1498 31.2801 51.7398 31.2801C51.3298 31.2801 50.9898 31.6201 50.9898 32.0301V51.9601C50.9898 52.3701 51.3298 52.7101 51.7398 52.7101C52.1498 52.7101 52.4898 52.3801 52.4898 51.9601ZM57.9298 51.9601V32.0301C57.9298 31.6201 57.5898 31.2801 57.1798 31.2801C56.7698 31.2801 56.4298 31.6201 56.4298 32.0301V51.9601C56.4298 52.3701 56.7698 52.7101 57.1798 52.7101C57.5898 52.7101 57.9298 52.3801 57.9298 51.9601ZM63.3598 51.9601V32.0301C63.3598 31.6201 63.0198 31.2801 62.6098 31.2801C62.1998 31.2801 61.8598 31.6201 61.8598 32.0301V51.9601C61.8598 52.3701 62.1998 52.7101 62.6098 52.7101C63.0198 52.7101 63.3598 52.3801 63.3598 51.9601Z"
            fill="#7894B0"
          />
        </svg>