<svg width="100" height="100" viewBox="0 0 100 100" fill="none" xmlns="http://www.w3.org/2000/svg">
<path d="M75.8602 12.5204C74.7002 10.5104 71.8502 8.86035 69.5302 8.86035H30.4702C28.1502 8.86035 25.3002 10.5104 24.1402 12.5204L4.61023 46.3404C3.45023 48.3504 3.45023 51.6404 4.61023 53.6504L24.1402 87.4704C25.3002 89.4804 28.1502 91.1304 30.4702 91.1304H69.5202C71.8402 91.1304 74.6902 89.4804 75.8502 87.4704L95.3802 53.6504C96.5402 51.6404 96.5402 48.3504 95.3802 46.3404L75.8502 12.5204H75.8602Z" stroke="#7893B0" stroke-width="1.5" stroke-linecap="round" stroke-linejoin="round"/>
<path d="M56.04 50C56.04 46.96 53.58 44.5 50.54 44.5V55.5C53.58 55.5 56.04 53.04 56.04 50Z" fill="#7893B0"/>
<path d="M34.04 50.0003C34.04 40.8903 41.43 33.5003 50.54 33.5003V32.4403C49.42 31.5203 48.93 29.9803 49.37 28.5803C49.43 28.3903 49.51 28.2103 49.58 28.0303C37.88 28.5303 28.54 38.1803 28.54 50.0103C28.54 61.8403 38.39 72.0103 50.54 72.0103V66.5103C41.43 66.5103 34.04 59.1203 34.04 50.0103V50.0003Z" fill="#7893B0"/>
<path d="M64.18 48.6804C63.25 48.6804 62.32 48.5804 61.41 48.4104C61.49 48.9304 61.54 49.4504 61.54 49.9904C61.54 56.0704 56.62 60.9904 50.54 60.9904V66.4904C59.65 66.4904 67.04 59.1004 67.04 49.9904C67.04 49.4504 67.01 48.9304 66.96 48.4004C66.04 48.5704 65.11 48.6704 64.18 48.6704V48.6804Z" fill="#7893B0"/>
<path d="M45.04 50C45.04 46.96 47.5 44.5 50.54 44.5V40.51C50.28 40.03 50.05 39.54 49.84 39.04C44.09 39.4 39.54 44.17 39.54 50C39.54 55.83 44.46 61 50.54 61V55.5C47.5 55.5 45.04 53.04 45.04 50Z" fill="#7893B0"/>
<path d="M64.1804 20.6797C65.0904 20.6797 66.0204 20.7797 66.9304 20.9797C67.2104 21.0397 67.4004 21.2897 67.4004 21.5697V24.0497C68.5204 24.4397 69.5604 25.0397 70.4704 25.8197L72.6204 24.5797C72.7104 24.5297 72.8204 24.4997 72.9204 24.4997C73.0904 24.4997 73.2504 24.5697 73.3704 24.6997C74.6204 26.0497 75.5704 27.6697 76.1304 29.4697C76.2104 29.7397 76.1004 30.0297 75.8504 30.1797L73.7004 31.4197C73.9204 32.5897 73.9204 33.7897 73.7004 34.9597L75.8504 36.1997C76.1004 36.3397 76.2104 36.6297 76.1304 36.9097C75.5704 38.7097 74.6204 40.3297 73.3704 41.6797C73.2504 41.8097 73.0904 41.8797 72.9304 41.8797C72.8304 41.8797 72.7204 41.8497 72.6304 41.7997L70.4804 40.5597C69.5704 41.3297 68.5304 41.9297 67.4104 42.3297V44.8097C67.4104 45.0897 67.2104 45.3397 66.9404 45.3997C66.0504 45.5997 65.1204 45.6997 64.1904 45.6997C63.2604 45.6997 62.3504 45.5997 61.4404 45.3997C61.1604 45.3397 60.9704 45.0897 60.9704 44.8097V42.3297C59.8504 41.9397 58.8104 41.3397 57.9104 40.5597L55.7604 41.7997C55.6704 41.8497 55.5604 41.8797 55.4604 41.8797C55.2904 41.8797 55.1304 41.8097 55.0104 41.6797C53.7604 40.3297 52.8104 38.7097 52.2504 36.9097C52.1704 36.6397 52.2804 36.3497 52.5304 36.1997L54.6804 34.9597C54.4604 33.7897 54.4604 32.5897 54.6804 31.4197L52.5304 30.1797C52.2804 30.0397 52.1704 29.7497 52.2504 29.4697C52.8104 27.6697 53.7604 26.0497 55.0104 24.6997C55.1304 24.5697 55.2904 24.4997 55.4504 24.4997C55.5504 24.4997 55.6604 24.5297 55.7504 24.5797L57.8904 25.8197C58.8004 25.0497 59.8404 24.4497 60.9604 24.0497V21.5697C60.9604 21.2897 61.1604 21.0397 61.4304 20.9797C62.3204 20.7797 63.2504 20.6797 64.1804 20.6797ZM64.1804 37.2097C66.4004 37.2097 68.2104 35.3997 68.2104 33.1797C68.2104 30.9597 66.4004 29.1497 64.1804 29.1497C61.9604 29.1497 60.1504 30.9597 60.1504 33.1797C60.1504 35.3997 61.9604 37.2097 64.1804 37.2097Z" fill="#29ABE2"/>
</svg>
