<svg width="102" height="102" viewBox="0 0 102 102" fill="none" xmlns="http://www.w3.org/2000/svg">
<path d="M51 101C78.6142 101 101 78.6142 101 51C101 23.3858 78.6142 1 51 1C23.3858 1 1 23.3858 1 51C1 78.6142 23.3858 101 51 101Z" stroke="#7893B0" stroke-width="1.5" stroke-linecap="round" stroke-linejoin="round"/>
<g clip-path="url(#clip0_3525_26784)">
<path d="M42.25 51.3301C42.25 45.4901 46.8 40.7301 52.55 40.3701C52.57 40.4101 52.59 40.4601 52.61 40.5001C52.47 40.1401 52.32 39.7901 52.21 39.4201C51.66 37.5701 52.26 35.6801 53.65 34.5101C53.51 34.3901 53.38 34.2601 53.25 34.1201V34.8301C44.14 34.8301 36.75 42.2201 36.75 51.3301C36.75 60.4401 44.14 67.8301 53.25 67.8301V62.3301C47.17 62.3301 42.25 57.4101 42.25 51.3301Z" fill="#7893B0"/>
<path d="M47.75 51.3301C47.75 54.3701 50.21 56.8301 53.25 56.8301V45.8301C50.21 45.8301 47.75 48.2901 47.75 51.3301Z" fill="#7893B0"/>
<path d="M64.2498 51.3299C64.2498 51.0799 64.2398 50.8199 64.2198 50.5799C62.4698 50.1399 61.1298 48.6799 60.8198 46.9199C60.3198 47.0999 59.7798 47.1999 59.2398 47.1999C57.9598 47.1999 56.7298 46.6599 55.8598 45.7199C54.8098 44.5799 53.9498 43.2899 53.2598 41.9199V45.8399C56.2998 45.8399 58.7598 48.2999 58.7598 51.3399C58.7598 54.3799 56.2998 56.8399 53.2598 56.8399V62.3399C59.3398 62.3399 64.2598 57.4199 64.2598 51.3399L64.2498 51.3299Z" fill="#7893B0"/>
<path d="M87.2899 48.3802L83.0899 41.1102C82.3499 42.7902 81.3299 44.3602 80.0899 45.7102C79.2499 46.6402 78.0099 47.1902 76.7099 47.1902C76.1699 47.1902 75.6299 47.0902 75.1199 46.9102C74.7999 48.7202 73.4099 50.2202 71.5699 50.6202C70.9699 50.7502 70.3499 50.8502 69.7199 50.9202C69.7199 51.0602 69.7399 51.1902 69.7399 51.3302C69.7399 60.4402 62.3499 67.8302 53.2399 67.8302V73.3302C41.0899 73.3302 31.2399 63.4802 31.2399 51.3302C31.2399 39.1802 40.5799 29.8602 52.2899 29.3502C52.2199 29.5302 52.1399 29.7102 52.0799 29.9002C51.7999 30.8002 51.8999 31.7602 52.2999 32.5702C51.9499 31.6402 51.8899 30.5902 52.2099 29.5902C52.9299 27.2702 54.1899 25.0902 55.8499 23.3002C56.6999 22.3702 57.9399 21.8202 59.2299 21.8202C59.7699 21.8202 60.3099 21.9202 60.8099 22.1002C61.1299 20.2902 62.5299 18.7902 64.3599 18.3902C65.2199 18.2002 66.1199 18.1002 67.0299 18.0502C66.7899 18.0102 66.5599 17.9902 66.3299 17.9902H34.6699C32.7899 17.9902 30.4799 19.3202 29.5299 20.9502L13.7099 48.3802C12.7699 50.0102 12.7699 52.6802 13.7099 54.3102L29.5399 81.7302C30.4799 83.3602 32.7899 84.6902 34.6799 84.6902H66.3399C68.2199 84.6902 70.5299 83.3602 71.4799 81.7302L87.3099 54.3102C88.2499 52.6802 88.2499 50.0102 87.3099 48.3802H87.2899Z" fill="#7893B0"/>
<path d="M67.9699 22.0098C68.8799 22.0098 69.8099 22.1098 70.7199 22.3098C70.9999 22.3698 71.1899 22.6198 71.1899 22.8998V25.3798C72.3099 25.7698 73.3499 26.3698 74.2599 27.1498L76.4099 25.9098C76.4999 25.8598 76.6099 25.8298 76.7099 25.8298C76.8799 25.8298 77.0399 25.8998 77.1599 26.0298C78.4099 27.3798 79.3599 28.9998 79.9199 30.7998C79.9999 31.0698 79.8899 31.3598 79.6399 31.5098L77.4899 32.7498C77.7099 33.9198 77.7099 35.1198 77.4899 36.2898L79.6399 37.5298C79.8899 37.6698 79.9999 37.9598 79.9199 38.2398C79.3599 40.0398 78.4099 41.6598 77.1599 43.0098C77.0399 43.1398 76.8799 43.2098 76.7199 43.2098C76.6199 43.2098 76.5099 43.1798 76.4199 43.1298L74.2699 41.8898C73.3599 42.6598 72.3199 43.2598 71.1999 43.6598V46.1398C71.1999 46.4198 70.9999 46.6698 70.7299 46.7298C69.8399 46.9298 68.9099 47.0298 67.9799 47.0298C67.0499 47.0298 66.1399 46.9298 65.2299 46.7298C64.9499 46.6698 64.7599 46.4198 64.7599 46.1398V43.6598C63.6399 43.2698 62.5999 42.6698 61.6999 41.8898L59.5499 43.1298C59.4599 43.1798 59.3499 43.2098 59.2499 43.2098C59.0799 43.2098 58.9199 43.1398 58.7999 43.0098C57.5499 41.6598 56.5999 40.0398 56.0399 38.2398C55.9599 37.9698 56.0699 37.6798 56.3199 37.5298L58.4699 36.2898C58.2499 35.1198 58.2499 33.9198 58.4699 32.7498L56.3199 31.5098C56.0699 31.3698 55.9599 31.0798 56.0399 30.7998C56.5999 28.9998 57.5499 27.3798 58.7999 26.0298C58.9199 25.8998 59.0799 25.8298 59.2399 25.8298C59.3399 25.8298 59.4499 25.8598 59.5399 25.9098L61.6799 27.1498C62.5899 26.3798 63.6299 25.7798 64.7499 25.3798V22.8998C64.7499 22.6198 64.9499 22.3698 65.2199 22.3098C66.1099 22.1098 67.0399 22.0098 67.9699 22.0098ZM67.9699 38.5398C70.1899 38.5398 71.9999 36.7298 71.9999 34.5098C71.9999 32.2898 70.1899 30.4798 67.9699 30.4798C65.7499 30.4798 63.9399 32.2898 63.9399 34.5098C63.9399 36.7298 65.7499 38.5398 67.9699 38.5398Z" fill="#29ABE2"/>
</g>
<defs>
<clipPath id="clip0_3525_26784">
<rect width="75" height="66.69" fill="white" transform="translate(13 18)"/>
</clipPath>
</defs>
</svg>
