<svg width="100" height="100" viewBox="0 0 100 100" fill="none" xmlns="http://www.w3.org/2000/svg">
<g clip-path="url(#clip0_4916_12909)">
<path d="M75.86 12.5204C74.7 10.5104 71.85 8.86035 69.53 8.86035H30.47C28.15 8.86035 25.3 10.5104 24.14 12.5204L4.60999 46.3404C3.44999 48.3504 3.44999 51.6404 4.60999 53.6504L24.14 87.4704C25.3 89.4804 28.15 91.1303 30.47 91.1303H69.52C71.84 91.1303 74.69 89.4804 75.85 87.4704L95.38 53.6504C96.54 51.6404 96.54 48.3504 95.38 46.3404L75.86 12.5204Z" stroke="#7993B0" stroke-width="1.5" stroke-linecap="round" stroke-linejoin="round"/>
<path d="M39 37.2L41.2 35H28L30.2 37.2H39Z" fill="#7993B0"/>
<path d="M39 37.2V46L41.2 48.2V35L39 37.2Z" fill="#687E91"/>
<path d="M30.2 37.2L28 35V48.2L30.2 46V37.2Z" fill="#7993B0"/>
<path d="M30.2 46L28 48.2H41.2L39 46H30.2Z" fill="#576D7F"/>
<path d="M38.9999 37.2002H30.2V46.0002H38.9999V37.2002Z" fill="#7993B0"/>
<path d="M54.3999 37.2L56.5999 35H43.3999L45.5999 37.2H54.3999Z" fill="#576D7F"/>
<path d="M54.3999 37.2V46L56.5999 48.2V35L54.3999 37.2Z" fill="#7993B0"/>
<path d="M45.5999 37.2L43.3999 35V48.2L45.5999 46V37.2Z" fill="#576D7F"/>
<path d="M45.5999 46L43.3999 48.2H56.5999L54.3999 46H45.5999Z" fill="#7993B0"/>
<path d="M69.8 37.2L72 35H58.8L61 37.2H69.8Z" fill="#576D7F"/>
<path d="M69.8 37.2V46L72 48.2V35L69.8 37.2Z" fill="#7993B0"/>
<path d="M61 37.2L58.8 35V48.2L61 46V37.2Z" fill="#576D7F"/>
<path d="M61 46L58.8 48.2H72L69.8 46H61Z" fill="#7993B0"/>
<path d="M39 54.7996L41.2 52.5996H28L30.2 54.7996H39Z" fill="#576D7F"/>
<path d="M39 54.7996V63.5996L41.2 65.7996V52.5996L39 54.7996Z" fill="#7993B0"/>
<path d="M30.2 54.7996L28 52.5996V65.7996L30.2 63.5996V54.7996Z" fill="#576D7F"/>
<path d="M30.2 63.5996L28 65.7996H41.2L39 63.5996H30.2Z" fill="#7993B0"/>
<path d="M54.3999 54.7996L56.5999 52.5996H43.3999L45.5999 54.7996H54.3999Z" fill="#7993B0"/>
<path d="M54.3999 54.7996V63.5996L56.5999 65.7996V52.5996L54.3999 54.7996Z" fill="#687E91"/>
<path d="M45.5999 54.7996L43.3999 52.5996V65.7996L45.5999 63.5996V54.7996Z" fill="#7993B0"/>
<path d="M45.5999 63.5996L43.3999 65.7996H56.5999L54.3999 63.5996H45.5999Z" fill="#576D7F"/>
<path d="M54.4001 54.7998H45.6001V63.5998H54.4001V54.7998Z" fill="#7993B0"/>
<path d="M69.8 54.7996L72 52.5996H58.8L61 54.7996H69.8Z" fill="#7993B0"/>
<path d="M69.8 54.7996V63.5996L72 65.7996V52.5996L69.8 54.7996Z" fill="#687E91"/>
<path d="M61 54.7996L58.8 52.5996V65.7996L61 63.5996V54.7996Z" fill="#7993B0"/>
<path d="M61 63.5996L58.8 65.7996H72L69.8 63.5996H61Z" fill="#576D7F"/>
<path d="M69.8 54.7998H61V63.5998H69.8V54.7998Z" fill="#7993B0"/>
</g>
<defs>
<clipPath id="clip0_4916_12909">
<rect width="100" height="100" fill="white"/>
</clipPath>
</defs>
</svg>
