<svg width="100" height="100" viewBox="0 0 100 100" fill="none" xmlns="http://www.w3.org/2000/svg">
<g clip-path="url(#clip0_4921_13211)">
<path d="M75.86 12.5204C74.7 10.5104 71.85 8.86035 69.53 8.86035H30.47C28.15 8.86035 25.3 10.5104 24.14 12.5204L4.60999 46.3404C3.44999 48.3504 3.44999 51.6404 4.60999 53.6504L24.14 87.4704C25.3 89.4804 28.15 91.1303 30.47 91.1303H69.52C71.84 91.1303 74.69 89.4804 75.85 87.4704L95.38 53.6504C96.54 51.6404 96.54 48.3504 95.38 46.3404L75.86 12.5204Z" stroke="#7993B0" stroke-width="1.5" stroke-linecap="round" stroke-linejoin="round"/>
<path fill-rule="evenodd" clip-rule="evenodd" d="M53.9101 34.6894L53.3188 32.62L50.2113 32.4688L46.4301 34.5794L49.7713 37.8794L49.7301 41.6812L51.9713 41.7088L52.0194 37.9L61.3488 43.5306L61.3213 45.8888L65.2194 45.9506V41.4406L53.9101 34.6894Z" fill="#687E91"/>
<path fill-rule="evenodd" clip-rule="evenodd" d="M50.2113 32.4688H50.1906L47.0694 33.2387L46.43 34.5794L34.8594 41.0213L34.7906 45.5312L38.7094 45.6L38.7506 43.2488L48.2313 37.8588L48.19 41.6606L50.0806 41.6812L50.2113 32.4688Z" fill="#7993B0"/>
<path fill-rule="evenodd" clip-rule="evenodd" d="M50.2112 32.4688H50.1906L42.69 28L38.8606 30.09L46.43 34.5794L50.2112 32.4688Z" fill="#687E91"/>
<path fill-rule="evenodd" clip-rule="evenodd" d="M61.17 56.7305L51.71 62.1205L51.7512 58.3393L47.97 58.2912L47.9287 62.0793L49.73 67.5312L52.8512 67.2699L53.4906 65.3999L65.0887 58.9512L65.1506 54.3587L61.2112 54.3105L61.17 56.7305Z" fill="#687E91"/>
<path fill-rule="evenodd" clip-rule="evenodd" d="M49.73 67.5312L42.1194 71.8005H42.0094L38.3588 69.6212L46.0313 65.3105L49.73 67.5312Z" fill="#687E91"/>
<path fill-rule="evenodd" clip-rule="evenodd" d="M53.9101 34.6892L61.5894 30.3786L57.9388 28.1992H57.8288L50.2113 32.4686L53.9101 34.6892Z" fill="#576D7F"/>
<path fill-rule="evenodd" clip-rule="evenodd" d="M53.5112 65.4209L61.0806 69.9103L57.3612 72.0003H57.2512L49.73 67.5315L53.5112 65.4209Z" fill="#576D7F"/>
<path fill-rule="evenodd" clip-rule="evenodd" d="M49.73 67.5104L46.0313 65.3104L34.7288 58.5592V54.1592H38.5994L38.5788 56.4486L47.9288 62.0792L47.97 58.2911L49.8606 58.3186L49.73 67.5104Z" fill="#7993B0"/>
<path d="M63.4387 52.5988C64.8246 52.5988 65.9481 51.4753 65.9481 50.0895C65.9481 48.7036 64.8246 47.5801 63.4387 47.5801C62.0528 47.5801 60.9293 48.7036 60.9293 50.0895C60.9293 51.4753 62.0528 52.5988 63.4387 52.5988Z" fill="#7993B0"/>
<path d="M36.5094 52.2482C37.8953 52.2482 39.0188 51.1248 39.0188 49.7389C39.0188 48.353 37.8953 47.2295 36.5094 47.2295C35.1235 47.2295 34 48.353 34 49.7389C34 51.1248 35.1235 52.2482 36.5094 52.2482Z" fill="#7993B0"/>
<path d="M50.1013 48.0891C51.4872 48.0891 52.6107 46.9656 52.6107 45.5797C52.6107 44.1938 51.4872 43.0703 50.1013 43.0703C48.7154 43.0703 47.5919 44.1938 47.5919 45.5797C47.5919 46.9656 48.7154 48.0891 50.1013 48.0891Z" fill="#7993B0"/>
<path d="M49.9088 56.9094C51.2947 56.9094 52.4182 55.7859 52.4182 54.4C52.4182 53.0141 51.2947 51.8906 49.9088 51.8906C48.5229 51.8906 47.3994 53.0141 47.3994 54.4C47.3994 55.7859 48.5229 56.9094 49.9088 56.9094Z" fill="#7993B0"/>
</g>
<defs>
<clipPath id="clip0_4921_13211">
<rect width="100" height="100" fill="white"/>
</clipPath>
</defs>
</svg>
