<svg width="100" height="100" viewBox="0 0 100 100" fill="none" xmlns="http://www.w3.org/2000/svg">
<g clip-path="url(#clip0_4921_13236)">
<path d="M75.86 12.5204C74.7 10.5104 71.85 8.86035 69.53 8.86035H30.47C28.15 8.86035 25.3 10.5104 24.14 12.5204L4.60999 46.3404C3.44999 48.3504 3.44999 51.6404 4.60999 53.6504L24.14 87.4704C25.3 89.4804 28.15 91.1303 30.47 91.1303H69.52C71.84 91.1303 74.69 89.4804 75.85 87.4704L95.38 53.6504C96.54 51.6404 96.54 48.3504 95.38 46.3404L75.86 12.5204Z" stroke="#7993B0" stroke-width="1.5" stroke-linecap="round" stroke-linejoin="round"/>
<path fill-rule="evenodd" clip-rule="evenodd" d="M63.9909 56.2931L40.8717 69.648L38.6506 65.8303L61.7911 52.4541L63.9909 56.2931Z" fill="#7993B0"/>
<path fill-rule="evenodd" clip-rule="evenodd" d="M40.7866 65.2838V38.5811H45.0301V62.0835L40.7866 65.2838Z" fill="#7993B0"/>
<path fill-rule="evenodd" clip-rule="evenodd" d="M45.1649 46.0539L44.5759 40.6963L67.7164 54.0228L65.5095 57.8406L45.1649 46.0539Z" fill="#7993B0"/>
<path fill-rule="evenodd" clip-rule="evenodd" d="M56.1355 47.3447L44.5759 40.6885L45.1649 46.0461L48.5923 47.9975C51.0831 48.8845 53.8364 48.6432 56.1284 47.3376L56.1355 47.3447Z" fill="#576D7F"/>
<path fill-rule="evenodd" clip-rule="evenodd" d="M41.922 42.8744C39.5519 38.7657 40.9569 33.5217 45.0656 31.1516C49.1742 28.7815 54.4183 30.1865 56.7884 34.2952C59.1585 38.4038 57.7534 43.6479 53.6448 46.018C52.3391 46.7702 50.856 47.1676 49.3445 47.1676C46.2861 47.1534 43.4547 45.5213 41.922 42.8744ZM52.9777 36.5163C52.2327 35.2248 50.856 34.43 49.3658 34.43C47.0738 34.4158 45.2004 36.2679 45.1862 38.5599C45.1862 38.567 45.1862 38.5741 45.1862 38.5812C45.0159 40.8804 46.7473 42.8886 49.0465 43.0589C51.3456 43.2292 53.3538 41.4977 53.5242 39.1986C53.5383 38.9928 53.5383 38.787 53.5242 38.5812C53.5242 37.8574 53.3397 37.1407 52.9777 36.5163V36.5163Z" fill="#7993B0"/>
<path fill-rule="evenodd" clip-rule="evenodd" d="M40.7866 53.4329V65.2834L45.0301 62.0831V58.3789C44.4482 56.1649 42.88 54.3412 40.7866 53.4258V53.4329Z" fill="#576D7F"/>
<path fill-rule="evenodd" clip-rule="evenodd" d="M53.7299 62.2185L63.991 56.2932L58.974 54.0225L56.1355 55.8391C54.5531 57.6273 53.6945 59.9477 53.7299 62.332V62.2185Z" fill="#576D7F"/>
<path fill-rule="evenodd" clip-rule="evenodd" d="M29.156 66.5112C26.7859 62.4238 28.1767 57.1798 32.2641 54.8096C32.2712 54.8096 32.2854 54.8026 32.2925 54.7955C34.251 53.6459 36.5927 53.3337 38.7854 53.9297C43.3695 55.1361 46.1086 59.8337 44.8952 64.4178C43.6889 69.0019 38.9912 71.741 34.4071 70.5276C32.1931 69.9457 30.2984 68.4981 29.156 66.5112V66.5112ZM40.1692 60.1318C39.6441 59.1383 38.7287 58.4074 37.65 58.1094C35.436 57.5062 33.1511 58.8119 32.5479 61.0259C32.257 62.1045 32.406 63.2541 32.9737 64.2191C34.1304 66.206 36.6708 66.8802 38.6648 65.7306C40.6517 64.5739 41.3258 62.0335 40.1763 60.0395V60.1318H40.1692Z" fill="#7993B0"/>
<path fill-rule="evenodd" clip-rule="evenodd" d="M56.0006 65.7379C54.4821 63.0839 54.4821 59.8268 56.0006 57.1799C58.3707 53.0855 63.6077 51.6733 67.7163 54.0222C71.8108 56.3923 73.2159 61.6363 70.8528 65.7379C68.4756 69.8395 63.2245 71.2374 59.1229 68.8602C57.8314 68.108 56.7528 67.0365 56.0006 65.7379V65.7379ZM67.0351 59.3585C66.659 58.734 66.1339 58.216 65.5165 57.8399C63.5154 56.7045 60.975 57.3928 59.8183 59.3868C59.0874 60.6783 59.0874 62.2537 59.8183 63.5452C60.7621 65.1844 62.6923 65.9792 64.516 65.4753C65.5804 65.1915 66.4887 64.4961 67.0351 63.5452C67.766 62.2466 67.766 60.6642 67.0351 59.3656V59.3585Z" fill="#7993B0"/>
<path fill-rule="evenodd" clip-rule="evenodd" d="M45.0088 60.7217C45.0088 60.7217 39.6938 65.2632 38.6506 65.8309L45.1436 62.0841C45.1294 61.63 45.0868 61.1687 45.0088 60.7217V60.7217Z" fill="#687E91"/>
<path fill-rule="evenodd" clip-rule="evenodd" d="M46.506 46.7558C46.506 46.7558 45.1648 39.3049 45.1648 38.5811V46.0533C45.5906 46.3017 46.0376 46.5074 46.506 46.6636V46.7558V46.7558Z" fill="#687E91"/>
<path fill-rule="evenodd" clip-rule="evenodd" d="M58.2004 54.6325C58.2004 54.6325 64.4663 57.2439 65.5095 57.8329L59.0165 54.1074C58.7256 54.2493 58.4488 54.4197 58.2004 54.6325Z" fill="#687E91"/>
</g>
<defs>
<clipPath id="clip0_4921_13236">
<rect width="100" height="100" fill="white"/>
</clipPath>
</defs>
</svg>
