<svg width="100" height="100" viewBox="0 0 100 100" fill="none" xmlns="http://www.w3.org/2000/svg">
<path d="M16 0.75H84C92.4258 0.75 99.25 7.57421 99.25 16V84C99.25 92.4258 92.4258 99.25 84 99.25H16C7.57421 99.25 0.75 92.4258 0.75 84V16C0.75 7.57421 7.57421 0.75 16 0.75Z" stroke="#7993B0" stroke-width="1.5"/>
<path d="M88.0538 47.102C89.0164 48.7699 89.0164 51.5001 88.0538 53.168L71.8472 81.2328C70.8846 82.9008 68.5196 84.27 66.5944 84.27H34.1813C32.2561 84.27 29.8911 82.9008 28.9285 81.2328L12.722 53.168C11.7593 51.5001 11.7593 48.7699 12.722 47.102L28.9285 19.0372C29.8911 17.3692 32.2561 16 34.1813 16H66.5861C68.5113 16 70.8763 17.3692 71.8389 19.0372L88.0455 47.102H88.0538ZM58.2463 45.0025C58.2463 45.0025 56.4954 46.9194 57.8148 49.3259C57.1593 49.9815 55.0764 49.7906 54.1553 49.7906H41.0025C40.2723 49.7906 39.791 49.9898 39.791 50.9441C39.791 51.8984 39.8408 58.703 47.4918 58.703C55.1428 58.703 58.1136 54.7696 59.7566 50.6785C59.7566 50.6785 62.9764 50.4462 63.4245 48.3384C62.0636 47.3841 60.2794 47.7078 60.2794 47.7078C60.0139 45.766 58.2381 45.0025 58.2381 45.0025H58.2463ZM53.4997 49.1268H55.8067V47.0522H53.4997V49.1268ZM50.4626 49.1268H52.7695V47.0522H50.4626V49.1268ZM47.4254 49.1268H49.7323V47.0522H47.4254V49.1268ZM44.3882 49.1268H46.6951V47.0522H44.3882V49.1268ZM50.4626 46.3883H52.7695V44.3138H50.4626V46.3883ZM50.4626 43.6499H52.7695V41.5753H50.4626V43.6499ZM47.4254 46.3883H49.7323V44.3138H47.4254V46.3883ZM44.3882 46.3883H46.6951V44.3138H44.3882V46.3883ZM41.351 49.1268H43.658V47.0522H41.351V49.1268ZM60.1716 61.9559V66.1963L68.6441 61.3086V57.0682L65.0592 59.1843L60.1716 61.9559ZM65.0592 58.0474L68.6441 57.0682V43.2101L65.0592 42.3968V58.0474ZM60.1716 34.082V38.3224L65.0592 41.094L68.6441 43.2101V38.9697L60.1716 34.082ZM35.7248 58.0474V42.3968L32.1399 43.2101V57.0682L35.7248 58.0474ZM40.6125 38.3224V34.082L32.1399 38.9697V43.2101L35.7248 41.094L40.6125 38.3224ZM40.6125 66.1963V61.9559L35.7248 59.1843L32.1399 57.0682V61.3086L40.6125 66.1963Z" fill="#7993B0"/>
</svg>
