<svg width="100" height="100" viewBox="0 0 100 100" fill="none" xmlns="http://www.w3.org/2000/svg">
<g clip-path="url(#clip0_3525_26682)">
<path d="M75.8602 12.5204C74.7002 10.5104 71.8502 8.86035 69.5302 8.86035H30.4702C28.1502 8.86035 25.3002 10.5104 24.1402 12.5204L4.61023 46.3404C3.45023 48.3504 3.45023 51.6404 4.61023 53.6504L24.1402 87.4704C25.3002 89.4804 28.1502 91.1303 30.4702 91.1303H69.5202C71.8402 91.1303 74.6902 89.4804 75.8502 87.4704L95.3802 53.6504C96.5402 51.6404 96.5402 48.3504 95.3802 46.3404L75.8602 12.5204Z" stroke="#7993B0" stroke-width="1.5" stroke-linecap="round" stroke-linejoin="round"/>
<path d="M59.47 43.8105C59.47 43.8105 57.36 46.1205 58.95 49.0205C58.16 49.8105 55.65 49.5805 54.54 49.5805H38.69C37.81 49.5805 37.23 49.8205 37.23 50.9705C37.23 52.1205 37.29 60.3205 46.51 60.3205C55.73 60.3205 59.31 55.5805 61.29 50.6505C61.29 50.6505 65.17 50.3705 65.71 47.8305C64.07 46.6805 61.92 47.0705 61.92 47.0705C61.6 44.7305 59.46 43.8105 59.46 43.8105H59.47Z" fill="#7993B0"/>
<path d="M56.53 46.2803H53.75V48.7803H56.53V46.2803Z" fill="#7993B0"/>
<path d="M52.8698 46.2803H50.0898V48.7803H52.8698V46.2803Z" fill="#7993B0"/>
<path d="M49.2102 46.2803H46.4302V48.7803H49.2102V46.2803Z" fill="#7993B0"/>
<path d="M45.55 46.2803H42.77V48.7803H45.55V46.2803Z" fill="#7993B0"/>
<path d="M52.8698 42.9805H50.0898V45.4805H52.8698V42.9805Z" fill="#7993B0"/>
<path d="M52.8698 39.6807H50.0898V42.1807H52.8698V39.6807Z" fill="#7993B0"/>
<path d="M49.2102 42.9805H46.4302V45.4805H49.2102V42.9805Z" fill="#7993B0"/>
<path d="M45.55 42.9805H42.77V45.4805H45.55V42.9805Z" fill="#7993B0"/>
<path d="M41.8899 46.2803H39.1099V48.7803H41.8899V46.2803Z" fill="#7993B0"/>
<path fill-rule="evenodd" clip-rule="evenodd" d="M61.79 64.2406V69.3506L72 63.4606V58.3506L67.68 60.9006L61.79 64.2406Z" fill="#7993B0"/>
<path fill-rule="evenodd" clip-rule="evenodd" d="M67.6802 59.5299L72.0002 58.3499V41.6499L67.6802 40.6699V59.5299Z" fill="#7993B0"/>
<path fill-rule="evenodd" clip-rule="evenodd" d="M61.79 30.6504V35.7604L67.68 39.1004L72 41.6504V36.5404L61.79 30.6504Z" fill="#7993B0"/>
<path fill-rule="evenodd" clip-rule="evenodd" d="M32.32 59.5299V40.6699L28 41.6499V58.3499L32.32 59.5299Z" fill="#7993B0"/>
<path fill-rule="evenodd" clip-rule="evenodd" d="M38.21 35.7604V30.6504L28 36.5404V41.6504L32.32 39.1004L38.21 35.7604Z" fill="#7993B0"/>
<path fill-rule="evenodd" clip-rule="evenodd" d="M38.21 69.3506V64.2406L32.32 60.9006L28 58.3506V63.4606L38.21 69.3506Z" fill="#7993B0"/>
</g>
<defs>
<clipPath id="clip0_3525_26682">
<rect width="100" height="100" fill="white"/>
</clipPath>
</defs>
</svg>
