<svg width="102" height="102" viewBox="0 0 102 102" fill="none" xmlns="http://www.w3.org/2000/svg">
<path d="M51 101C78.6142 101 101 78.6142 101 51C101 23.3858 78.6142 1 51 1C23.3858 1 1 23.3858 1 51C1 78.6142 23.3858 101 51 101Z" stroke="#7893B0" stroke-width="1.5" stroke-linecap="round" stroke-linejoin="round"/>
<path d="M89.0538 48.102C90.0164 49.7699 90.0164 52.5001 89.0538 54.168L72.8472 82.2328C71.8846 83.9008 69.5196 85.27 67.5944 85.27H35.1813C33.2561 85.27 30.8911 83.9008 29.9285 82.2328L13.722 54.168C12.7593 52.5001 12.7593 49.7699 13.722 48.102L29.9285 20.0372C30.8911 18.3692 33.2561 17 35.1813 17H67.5861C69.5113 17 71.8763 18.3692 72.8389 20.0372L89.0455 48.102H89.0538ZM59.2463 46.0025C59.2463 46.0025 57.4954 47.9194 58.8148 50.3259C58.1593 50.9815 56.0764 50.7906 55.1553 50.7906H42.0025C41.2723 50.7906 40.791 50.9898 40.791 51.9441C40.791 52.8984 40.8408 59.703 48.4918 59.703C56.1428 59.703 59.1136 55.7696 60.7566 51.6785C60.7566 51.6785 63.9764 51.4462 64.4245 49.3384C63.0636 48.3841 61.2794 48.7078 61.2794 48.7078C61.0139 46.766 59.2381 46.0025 59.2381 46.0025H59.2463ZM54.4997 50.1268H56.8067V48.0522H54.4997V50.1268ZM51.4626 50.1268H53.7695V48.0522H51.4626V50.1268ZM48.4254 50.1268H50.7323V48.0522H48.4254V50.1268ZM45.3882 50.1268H47.6951V48.0522H45.3882V50.1268ZM51.4626 47.3883H53.7695V45.3138H51.4626V47.3883ZM51.4626 44.6499H53.7695V42.5753H51.4626V44.6499ZM48.4254 47.3883H50.7323V45.3138H48.4254V47.3883ZM45.3882 47.3883H47.6951V45.3138H45.3882V47.3883ZM42.351 50.1268H44.658V48.0522H42.351V50.1268ZM61.1716 62.9559V67.1963L69.6441 62.3086V58.0682L66.0592 60.1843L61.1716 62.9559ZM66.0592 59.0474L69.6441 58.0682V44.2101L66.0592 43.3968V59.0474ZM61.1716 35.082V39.3224L66.0592 42.094L69.6441 44.2101V39.9697L61.1716 35.082ZM36.7248 59.0474V43.3968L33.1399 44.2101V58.0682L36.7248 59.0474ZM41.6125 39.3224V35.082L33.1399 39.9697V44.2101L36.7248 42.094L41.6125 39.3224ZM41.6125 67.1963V62.9559L36.7248 60.1843L33.1399 58.0682V62.3086L41.6125 67.1963Z" fill="#7993B0"/>
</svg>
