<svg width="100" height="100" viewBox="0 0 100 100" fill="none" xmlns="http://www.w3.org/2000/svg">
<g clip-path="url(#clip0_4916_13047)">
<path d="M75.86 12.5204C74.7 10.5104 71.85 8.86035 69.53 8.86035H30.47C28.15 8.86035 25.3 10.5104 24.14 12.5204L4.60999 46.3404C3.44999 48.3504 3.44999 51.6404 4.60999 53.6504L24.14 87.4704C25.3 89.4804 28.15 91.1303 30.47 91.1303H69.52C71.84 91.1303 74.69 89.4804 75.85 87.4704L95.38 53.6504C96.54 51.6404 96.54 48.3504 95.38 46.3404L75.86 12.5204Z" stroke="#7993B0" stroke-width="1.5" stroke-linecap="round" stroke-linejoin="round"/>
<path d="M52.2 63.2002H47.8V41.2002H52.2V63.2002Z" fill="#576D7F"/>
<path d="M28 28H72V41.2H28V28ZM32.4 36.8H36.8V32.4H32.4V36.8Z" fill="#7993B0"/>
<path d="M28 45.5996H72V58.7996H28V45.5996ZM32.4 54.3996H36.8V49.9996H32.4V54.3996Z" fill="#7993B0"/>
<path d="M28 69.8004H72V65.4004H28V69.8004Z" fill="#687E91"/>
<path d="M45.6001 72.0002H54.4001V63.2002H45.6001V72.0002Z" fill="#7993B0"/>
<path d="M72 28H50V41.2H72V28Z" fill="#687E91"/>
<path d="M72 45.5996H50V58.7996H72V45.5996Z" fill="#687E91"/>
</g>
<defs>
<clipPath id="clip0_4916_13047">
<rect width="100" height="100" fill="white"/>
</clipPath>
</defs>
</svg>
