<svg width="13" height="10" viewBox="0 0 13 10" fill="none" xmlns="http://www.w3.org/2000/svg">
<path d="M11.6265 9.309V6.34191H0.909104V9.309H11.6265ZM12.2148 9.89731H0.320801V5.72803H12.2148V9.89731Z" fill="#7893B0"/>
<path d="M7.04792 3.83492H4.05525L4.15756 2.70947L1.80435 4.11628L3.8762 5.5231L3.97851 4.39765H7.04792L6.99677 3.83492H7.04792ZM5.43648 2.53042H8.19895L8.35242 3.65587L10.1173 2.24906L7.94317 0.842247L8.09664 1.9677H5.43648V2.53042ZM12.2148 5.7533H0.320801L1.95782 0.0493164H10.322L12.2148 5.7533Z" fill="#7893B0"/>
<path d="M2.85273 6.92969H1.49707V7.51799H2.85273V6.92969Z" fill="#7893B0"/>
<path d="M2.85273 8.10645H1.49707V8.69475H2.85273V8.10645Z" fill="#7893B0"/>
<path d="M3.74835 7.51867C3.90182 7.51867 4.05529 7.39077 4.05529 7.21173C4.05529 7.03268 3.9274 6.90479 3.74835 6.90479C3.5693 6.90479 3.44141 7.03268 3.44141 7.21173C3.44141 7.39077 3.5693 7.51867 3.74835 7.51867Z" fill="#7893B0"/>
<path d="M4.89874 7.51867C5.05221 7.51867 5.20568 7.39077 5.20568 7.21173C5.20568 7.03268 5.07779 6.90479 4.89874 6.90479C4.71969 6.90479 4.5918 7.03268 4.5918 7.21173C4.5918 7.39077 4.71969 7.51867 4.89874 7.51867Z" fill="#7893B0"/>
<path d="M6.0755 7.54357C6.24501 7.54357 6.38244 7.40615 6.38244 7.23663C6.38244 7.06711 6.24501 6.92969 6.0755 6.92969C5.90598 6.92969 5.76855 7.06711 5.76855 7.23663C5.76855 7.40615 5.90598 7.54357 6.0755 7.54357Z" fill="#7893B0"/>
<path d="M7.22686 7.54357C7.39638 7.54357 7.5338 7.40615 7.5338 7.23663C7.5338 7.06711 7.39638 6.92969 7.22686 6.92969C7.05734 6.92969 6.91992 7.06711 6.91992 7.23663C6.91992 7.40615 7.05734 7.54357 7.22686 7.54357Z" fill="#7893B0"/>
<path d="M8.37676 7.51867C8.53024 7.51867 8.68371 7.39077 8.68371 7.21173C8.68371 7.03268 8.55581 6.90479 8.37676 6.90479C8.19772 6.90479 8.06982 7.03268 8.06982 7.21173C8.06982 7.39077 8.19772 7.51867 8.37676 7.51867Z" fill="#7893B0"/>
<path d="M9.5545 7.51867C9.70797 7.51867 9.86144 7.39077 9.86144 7.21173C9.86144 7.03268 9.73355 6.90479 9.5545 6.90479C9.37545 6.90479 9.24756 7.03268 9.24756 7.21173C9.24756 7.39077 9.37545 7.51867 9.5545 7.51867Z" fill="#7893B0"/>
<path d="M10.7054 7.51867C10.8588 7.51867 11.0123 7.39077 11.0123 7.21173C11.0123 7.03268 10.8844 6.90479 10.7054 6.90479C10.5263 6.90479 10.3984 7.03268 10.3984 7.21173C10.3984 7.39077 10.5263 7.51867 10.7054 7.51867Z" fill="#7893B0"/>
<path d="M3.74835 8.72033C3.90182 8.72033 4.05529 8.59243 4.05529 8.41339C4.05529 8.23434 3.9274 8.10645 3.74835 8.10645C3.5693 8.10645 3.44141 8.23434 3.44141 8.41339C3.44141 8.59243 3.5693 8.72033 3.74835 8.72033Z" fill="#7893B0"/>
<path d="M4.89874 8.72033C5.05221 8.72033 5.20568 8.59243 5.20568 8.41339C5.20568 8.23434 5.07779 8.10645 4.89874 8.10645C4.71969 8.10645 4.5918 8.23434 4.5918 8.41339C4.5918 8.59243 4.71969 8.72033 4.89874 8.72033Z" fill="#7893B0"/>
<path d="M6.0755 8.72033C6.22897 8.72033 6.38244 8.59243 6.38244 8.41339C6.38244 8.23434 6.25454 8.10645 6.0755 8.10645C5.89645 8.10645 5.76855 8.23434 5.76855 8.41339C5.76855 8.59243 5.89645 8.72033 6.0755 8.72033Z" fill="#7893B0"/>
<path d="M7.22686 8.72033C7.38033 8.72033 7.5338 8.59243 7.5338 8.41339C7.5338 8.23434 7.40591 8.10645 7.22686 8.10645C7.04781 8.10645 6.91992 8.23434 6.91992 8.41339C6.91992 8.59243 7.04781 8.72033 7.22686 8.72033Z" fill="#7893B0"/>
<path d="M8.37676 8.72033C8.53024 8.72033 8.68371 8.59243 8.68371 8.41339C8.68371 8.23434 8.55581 8.10645 8.37676 8.10645C8.19772 8.10645 8.06982 8.23434 8.06982 8.41339C8.06982 8.59243 8.19772 8.72033 8.37676 8.72033Z" fill="#7893B0"/>
<path d="M9.5545 8.72033C9.70797 8.72033 9.86144 8.59243 9.86144 8.41339C9.86144 8.23434 9.73355 8.10645 9.5545 8.10645C9.37545 8.10645 9.24756 8.23434 9.24756 8.41339C9.24756 8.59243 9.37545 8.72033 9.5545 8.72033Z" fill="#7893B0"/>
<path d="M10.7054 8.72033C10.8588 8.72033 11.0123 8.59243 11.0123 8.41339C11.0123 8.23434 10.8844 8.10645 10.7054 8.10645C10.5263 8.10645 10.3984 8.23434 10.3984 8.41339C10.3984 8.59243 10.5263 8.72033 10.7054 8.72033Z" fill="#7893B0"/>
<path d="M11.6265 9.309V6.34191H0.909104V9.309H11.6265ZM12.2148 9.89731H0.320801V5.72803H12.2148V9.89731Z" fill="#7893B0"/>
<path d="M7.04792 3.83492H4.05525L4.15756 2.70947L1.80435 4.11628L3.8762 5.5231L3.97851 4.39765H7.04792L6.99677 3.83492H7.04792ZM5.43648 2.53042H8.19895L8.35242 3.65587L10.1173 2.24906L7.94317 0.842247L8.09664 1.9677H5.43648V2.53042ZM12.2148 5.7533H0.320801L1.95782 0.0493164H10.322L12.2148 5.7533Z" fill="#7893B0"/>
<path d="M2.85273 6.92969H1.49707V7.51799H2.85273V6.92969Z" fill="#7893B0"/>
<path d="M2.85273 8.10645H1.49707V8.69475H2.85273V8.10645Z" fill="#7893B0"/>
<path d="M3.74835 7.51867C3.90182 7.51867 4.05529 7.39077 4.05529 7.21173C4.05529 7.03268 3.9274 6.90479 3.74835 6.90479C3.5693 6.90479 3.44141 7.03268 3.44141 7.21173C3.44141 7.39077 3.5693 7.51867 3.74835 7.51867Z" fill="#7893B0"/>
<path d="M4.89874 7.51867C5.05221 7.51867 5.20568 7.39077 5.20568 7.21173C5.20568 7.03268 5.07779 6.90479 4.89874 6.90479C4.71969 6.90479 4.5918 7.03268 4.5918 7.21173C4.5918 7.39077 4.71969 7.51867 4.89874 7.51867Z" fill="#7893B0"/>
<path d="M6.0755 7.54357C6.24501 7.54357 6.38244 7.40615 6.38244 7.23663C6.38244 7.06711 6.24501 6.92969 6.0755 6.92969C5.90598 6.92969 5.76855 7.06711 5.76855 7.23663C5.76855 7.40615 5.90598 7.54357 6.0755 7.54357Z" fill="#7893B0"/>
<path d="M7.22686 7.54357C7.39638 7.54357 7.5338 7.40615 7.5338 7.23663C7.5338 7.06711 7.39638 6.92969 7.22686 6.92969C7.05734 6.92969 6.91992 7.06711 6.91992 7.23663C6.91992 7.40615 7.05734 7.54357 7.22686 7.54357Z" fill="#7893B0"/>
<path d="M8.37676 7.51867C8.53024 7.51867 8.68371 7.39077 8.68371 7.21173C8.68371 7.03268 8.55581 6.90479 8.37676 6.90479C8.19772 6.90479 8.06982 7.03268 8.06982 7.21173C8.06982 7.39077 8.19772 7.51867 8.37676 7.51867Z" fill="#7893B0"/>
<path d="M9.5545 7.51867C9.70797 7.51867 9.86144 7.39077 9.86144 7.21173C9.86144 7.03268 9.73355 6.90479 9.5545 6.90479C9.37545 6.90479 9.24756 7.03268 9.24756 7.21173C9.24756 7.39077 9.37545 7.51867 9.5545 7.51867Z" fill="#7893B0"/>
<path d="M10.7054 7.51867C10.8588 7.51867 11.0123 7.39077 11.0123 7.21173C11.0123 7.03268 10.8844 6.90479 10.7054 6.90479C10.5263 6.90479 10.3984 7.03268 10.3984 7.21173C10.3984 7.39077 10.5263 7.51867 10.7054 7.51867Z" fill="#7893B0"/>
<path d="M3.74835 8.72033C3.90182 8.72033 4.05529 8.59243 4.05529 8.41339C4.05529 8.23434 3.9274 8.10645 3.74835 8.10645C3.5693 8.10645 3.44141 8.23434 3.44141 8.41339C3.44141 8.59243 3.5693 8.72033 3.74835 8.72033Z" fill="#7893B0"/>
<path d="M4.89874 8.72033C5.05221 8.72033 5.20568 8.59243 5.20568 8.41339C5.20568 8.23434 5.07779 8.10645 4.89874 8.10645C4.71969 8.10645 4.5918 8.23434 4.5918 8.41339C4.5918 8.59243 4.71969 8.72033 4.89874 8.72033Z" fill="#7893B0"/>
<path d="M6.0755 8.72033C6.22897 8.72033 6.38244 8.59243 6.38244 8.41339C6.38244 8.23434 6.25454 8.10645 6.0755 8.10645C5.89645 8.10645 5.76855 8.23434 5.76855 8.41339C5.76855 8.59243 5.89645 8.72033 6.0755 8.72033Z" fill="#7893B0"/>
<path d="M7.22686 8.72033C7.38033 8.72033 7.5338 8.59243 7.5338 8.41339C7.5338 8.23434 7.40591 8.10645 7.22686 8.10645C7.04781 8.10645 6.91992 8.23434 6.91992 8.41339C6.91992 8.59243 7.04781 8.72033 7.22686 8.72033Z" fill="#7893B0"/>
<path d="M8.37676 8.72033C8.53024 8.72033 8.68371 8.59243 8.68371 8.41339C8.68371 8.23434 8.55581 8.10645 8.37676 8.10645C8.19772 8.10645 8.06982 8.23434 8.06982 8.41339C8.06982 8.59243 8.19772 8.72033 8.37676 8.72033Z" fill="#7893B0"/>
<path d="M9.5545 8.72033C9.70797 8.72033 9.86144 8.59243 9.86144 8.41339C9.86144 8.23434 9.73355 8.10645 9.5545 8.10645C9.37545 8.10645 9.24756 8.23434 9.24756 8.41339C9.24756 8.59243 9.37545 8.72033 9.5545 8.72033Z" fill="#7893B0"/>
<path d="M10.7054 8.72033C10.8588 8.72033 11.0123 8.59243 11.0123 8.41339C11.0123 8.23434 10.8844 8.10645 10.7054 8.10645C10.5263 8.10645 10.3984 8.23434 10.3984 8.41339C10.3984 8.59243 10.5263 8.72033 10.7054 8.72033Z" fill="#7893B0"/>
</svg>
