<svg width="100" height="100" viewBox="0 0 100 100" fill="none" xmlns="http://www.w3.org/2000/svg">
<g clip-path="url(#clip0_6024_21539)">
<path d="M75.86 12.5204C74.7 10.5104 71.85 8.86035 69.53 8.86035H30.47C28.15 8.86035 25.3 10.5104 24.14 12.5204L4.60999 46.3404C3.44999 48.3504 3.44999 51.6404 4.60999 53.6504L24.14 87.4704C25.3 89.4804 28.15 91.1303 30.47 91.1303H69.52C71.84 91.1303 74.69 89.4804 75.85 87.4704L95.38 53.6504C96.54 51.6404 96.54 48.3504 95.38 46.3404L75.86 12.5204Z" stroke="#7993B0" stroke-width="1.5" stroke-linecap="round" stroke-linejoin="round"/>
<circle cx="50" cy="50" r="20" stroke="#7993B0" stroke-width="4"/>
<circle cx="50" cy="50" r="20" stroke="#7993B0" stroke-width="4"/>
<path d="M64 36C64 38.7614 57.732 41 50 41C42.268 41 36 38.7614 36 36" stroke="#7993B0" stroke-width="3"/>
<path d="M64 36C64 38.7614 57.732 41 50 41C42.268 41 36 38.7614 36 36" stroke="#7993B0" stroke-width="3"/>
<path d="M36 65C36 62.2386 42.268 60 50 60C57.732 60 64 62.2386 64 65" stroke="#7993B0" stroke-width="3"/>
<path d="M36 65C36 62.2386 42.268 60 50 60C57.732 60 64 62.2386 64 65" stroke="#7993B0" stroke-width="3"/>
<path d="M50 28V71.5" stroke="#7894B0" stroke-width="3"/>
<path d="M28.25 49.75H71.75" stroke="#7894B0" stroke-width="3"/>
<path d="M60.5 50C60.5 55.5994 57.7212 60.7797 54.802 64.6536C53.3554 66.5734 51.9064 68.1297 50.8199 69.2049C50.5145 69.5071 50.2385 69.7706 50 69.9928C49.7615 69.7706 49.4855 69.5071 49.1801 69.2049C48.0936 68.1297 46.6446 66.5734 45.198 64.6536C42.2788 60.7797 39.5 55.5994 39.5 50C39.5 44.4006 42.2788 39.2203 45.198 35.3464C46.6446 33.4266 48.0936 31.8703 49.1801 30.7951C49.4855 30.4929 49.7615 30.2294 50 30.0072C50.2385 30.2294 50.5145 30.4929 50.8199 30.7951C51.9064 31.8703 53.3554 33.4266 54.802 35.3464C57.7212 39.2203 60.5 44.4006 60.5 50Z" stroke="#7993B0" stroke-width="3"/>
<path d="M60.5 50C60.5 55.5994 57.7212 60.7797 54.802 64.6536C53.3554 66.5734 51.9064 68.1297 50.8199 69.2049C50.5145 69.5071 50.2385 69.7706 50 69.9928C49.7615 69.7706 49.4855 69.5071 49.1801 69.2049C48.0936 68.1297 46.6446 66.5734 45.198 64.6536C42.2788 60.7797 39.5 55.5994 39.5 50C39.5 44.4006 42.2788 39.2203 45.198 35.3464C46.6446 33.4266 48.0936 31.8703 49.1801 30.7951C49.4855 30.4929 49.7615 30.2294 50 30.0072C50.2385 30.2294 50.5145 30.4929 50.8199 30.7951C51.9064 31.8703 53.3554 33.4266 54.802 35.3464C57.7212 39.2203 60.5 44.4006 60.5 50Z" stroke="#7993B0" stroke-width="3"/>
</g>
<defs>
<clipPath id="clip0_6024_21539">
<rect width="100" height="100" fill="white"/>
</clipPath>
</defs>
</svg>
