<svg width="100" height="100" viewBox="0 0 100 100" fill="none" xmlns="http://www.w3.org/2000/svg">
<g clip-path="url(#clip0_4916_12862)">
<path d="M75.86 12.5204C74.7 10.5104 71.85 8.86035 69.53 8.86035H30.47C28.15 8.86035 25.3 10.5104 24.14 12.5204L4.60999 46.3404C3.44999 48.3504 3.44999 51.6404 4.60999 53.6504L24.14 87.4704C25.3 89.4804 28.15 91.1303 30.47 91.1303H69.52C71.84 91.1303 74.69 89.4804 75.85 87.4704L95.38 53.6504C96.54 51.6404 96.54 48.3504 95.38 46.3404L75.86 12.5204Z" stroke="#7993B0" stroke-width="1.5" stroke-linecap="round" stroke-linejoin="round"/>
<path d="M41.2 49.5996H58.8L54.4 53.9996H45.6L41.2 49.5996Z" fill="#576D7F"/>
<path d="M39 32H61L63.2 36.4H36.8L39 32Z" fill="#7993B0"/>
<path d="M32.4 38.5996H67.5999L69.8 42.9996H30.2L32.4 38.5996Z" fill="#7993B0"/>
<path d="M72 67.2004V47.4004H58.8L54.4 54.0004H45.6L41.2 47.4004H28V67.2004H72Z" fill="#687E91"/>
</g>
<defs>
<clipPath id="clip0_4916_12862">
<rect width="100" height="100" fill="white"/>
</clipPath>
</defs>
</svg>
