<svg width="100" height="100" viewBox="0 0 100 100" fill="none" xmlns="http://www.w3.org/2000/svg">
<g clip-path="url(#clip0_5640_18909)">
<path d="M75.86 12.5204C74.7 10.5104 71.85 8.86035 69.53 8.86035H30.47C28.15 8.86035 25.3 10.5104 24.14 12.5204L4.60999 46.3404C3.44999 48.3504 3.44999 51.6404 4.60999 53.6504L24.14 87.4704C25.3 89.4804 28.15 91.1303 30.47 91.1303H69.52C71.84 91.1303 74.69 89.4804 75.85 87.4704L95.38 53.6504C96.54 51.6404 96.54 48.3504 95.38 46.3404L75.86 12.5204Z" stroke="#7993B0" stroke-width="1.5" stroke-linecap="round" stroke-linejoin="round"/>
<path d="M68.46 56.7202C67.08 56.7202 65.86 57.3802 65.07 58.4002L53.88 58.3602L53.92 47.2802L48.42 47.2202V47.2602L26.06 47.2002L26 52.7002L48.4 52.7602L48.36 63.8502L53.86 63.9102V63.8602L65.27 63.9002C66.06 64.7802 67.19 65.3402 68.46 65.3402C70.84 65.3402 72.77 63.4102 72.77 61.0302C72.77 58.6502 70.84 56.7202 68.46 56.7202Z" fill="#7993B0"/>
<path d="M45.36 28H39.25V44.24H45.36V28Z" fill="#7993B0"/>
<path d="M45.36 55.7695H39.25V72.3495H45.36V55.7695Z" fill="#7993B0"/>
<path d="M63.0402 28H56.9302V55.34H63.0402V28Z" fill="#7993B0"/>
<path d="M63.0402 66.9102H56.9302V72.3502H63.0402V66.9102Z" fill="#7993B0"/>
</g>
<defs>
<clipPath id="clip0_5640_18909">
<rect width="100" height="100" fill="white"/>
</clipPath>
</defs>
</svg>
