<svg width="102" height="102" viewBox="0 0 102 102" fill="none" xmlns="http://www.w3.org/2000/svg">
<path d="M51 101C78.6142 101 101 78.6142 101 51C101 23.3858 78.6142 1 51 1C23.3858 1 1 23.3858 1 51C1 78.6142 23.3858 101 51 101Z" stroke="#7893B0" stroke-width="1.5" stroke-linecap="round" stroke-linejoin="round"/>
<path d="M89.058 48.1037L72.8506 20.0373C71.8879 18.3693 69.5228 17 67.5975 17H35.1825C33.2572 17 30.8921 18.3693 29.9294 20.0373L13.722 48.1037C12.7593 49.7718 12.7593 52.502 13.722 54.1784L29.9294 82.2448C30.8921 83.9128 33.2572 85.2821 35.1825 85.2821H67.5892C69.5145 85.2821 71.8796 83.9128 72.8423 82.2448L89.0497 54.1784C90.0124 52.5103 90.0124 49.78 89.0497 48.1037H89.058ZM41.6141 67.1991L33.1411 62.3112V39.9709L41.6141 35.083V39.3236L36.7261 42.0954L33.1411 44.2116L36.7261 43.3983V59.0497L33.1411 58.0705L36.7261 60.1867L41.6141 62.9585V67.1991ZM45.2987 60.9668L40.5684 58.361V53.141L45.2987 55.7468V60.9668ZM41.0581 52.3278L45.7883 49.722L50.3527 52.3278L45.7883 54.9336L41.0581 52.3278ZM50.8423 58.361L46.112 60.9668V55.7468L50.8423 53.141V58.361ZM50.9087 51.39L46.0207 48.7842V43.7303L50.9087 46.3361V51.39ZM46.5103 42.751L51.3983 40.1452L56.2863 42.751L51.3983 45.3568L46.5103 42.751ZM56.7842 43.7303V48.7842L52.0539 51.39V46.3361L56.7842 43.7303ZM56.6514 60.9668L51.9211 58.361V53.141L56.6514 55.7468V60.9668ZM52.4107 52.3278L57.141 49.722L61.8713 52.3278L57.141 54.9336L52.4107 52.3278ZM57.6307 55.7468L62.3609 53.141V58.361L57.6307 60.9668V55.7468ZM69.6638 44.2116V62.3029L61.1908 67.1908V62.9502L66.0788 60.1784L69.6638 58.0622L66.0788 59.0415V43.3983L69.6638 44.2116L66.0788 42.0954L61.1908 39.3236V35.083L69.6638 39.9709V44.2116Z" fill="#7893B0"/>
</svg>
