<svg width="102" height="102" viewBox="0 0 102 102" fill="none" xmlns="http://www.w3.org/2000/svg">
<g clip-path="url(#clip0_0_1)">
<path d="M72.7224 19.5168C71.748 17.8284 69.354 16.4424 67.4052 16.4424H34.5948C32.646 16.4424 30.252 17.8284 29.2776 19.5168L12.8724 47.9256C11.898 49.614 11.898 52.3776 12.8724 54.066L29.2776 82.4748C30.252 84.1632 32.646 85.5492 34.5948 85.5492H67.3968C69.3456 85.5492 71.7396 84.1632 72.714 82.4748L89.1192 54.066C90.0936 52.3776 90.0936 49.614 89.1192 47.9256L72.7224 19.5168Z" stroke="#7993B0" stroke-width="1.5" stroke-linecap="round" stroke-linejoin="round"/>
<path d="M52.8395 43.3389H50.7563V45.2121H52.8395V43.3389Z" fill="#7993B0"/>
<path d="M50.1013 43.3389H48.0181V45.2121H50.1013V43.3389Z" fill="#7993B0"/>
<path d="M47.3625 43.3389H45.2793V45.2121H47.3625V43.3389Z" fill="#7993B0"/>
<path d="M44.6242 43.3389H42.541V45.2121H44.6242V43.3389Z" fill="#7993B0"/>
<path d="M50.1013 40.8691H48.0181V42.7423H50.1013V40.8691Z" fill="#7993B0"/>
<path d="M50.1013 38.3994H48.0181V40.2726H50.1013V38.3994Z" fill="#7993B0"/>
<path d="M47.3625 40.8691H45.2793V42.7423H47.3625V40.8691Z" fill="#7993B0"/>
<path d="M44.6242 40.8691H42.541V42.7423H44.6242V40.8691Z" fill="#7993B0"/>
<path d="M41.8859 43.3389H39.8027V45.2121H41.8859V43.3389Z" fill="#7993B0"/>
<path d="M41.1131 49.9658H52.9739C53.1167 49.9658 53.2847 49.9658 53.4779 49.9742C53.6963 49.9742 53.9483 49.991 54.2003 49.991C54.3179 49.991 54.4187 49.991 54.5195 49.991C54.7295 49.7222 54.9311 49.445 55.1075 49.1594C54.8555 47.303 56.0399 45.9674 56.1071 45.9002L56.4683 45.5054L56.9555 45.7154C56.9555 45.7154 57.3923 45.9086 57.8459 46.2866C58.6355 46.001 59.5007 45.4718 59.7107 44.4974C58.4843 43.6406 56.8715 43.9262 56.8715 43.9262C56.6363 42.1958 55.0655 41.4986 55.0319 41.4902C55.0067 41.5154 53.4611 43.2374 54.6455 45.3878C54.0575 45.9758 52.1759 45.8078 51.3443 45.8078H39.4919C38.8367 45.8078 38.3999 45.9842 38.3999 46.8494C38.3999 47.303 38.4251 49.193 39.4247 50.9066C39.6347 50.3942 40.1135 49.9742 41.1131 49.9742V49.9658Z" fill="#7993B0"/>
<path d="M42.7263 55.1833H54.5871C54.7299 55.1833 54.8979 55.1833 55.0911 55.1917C55.3095 55.1917 55.5615 55.2085 55.8135 55.2085C55.8387 55.2085 55.8555 55.2085 55.8723 55.2085C56.1747 54.8557 56.4519 54.4861 56.7039 54.0997C56.5947 52.3861 57.6699 51.1765 57.7287 51.1093L58.0899 50.7145L58.5771 50.9245C58.5771 50.9245 58.8627 51.0505 59.1903 51.2857C60.0471 51.0253 61.1055 50.4961 61.3323 49.4041C60.6015 48.8917 59.7363 48.7909 59.1567 48.7909C58.7619 48.7909 58.5015 48.8413 58.5015 48.8413C58.2579 47.0941 56.6703 46.4053 56.6703 46.4053C56.6703 46.4053 55.0911 48.1357 56.2839 50.3029C55.9143 50.6725 55.0239 50.7481 54.2091 50.7481C53.7387 50.7481 53.2851 50.7229 52.9827 50.7229H41.1135C40.4583 50.7229 40.0215 50.8993 40.0215 51.7645C40.0215 52.2265 40.0467 54.2173 41.1303 55.9561C41.3739 55.5193 41.8443 55.1917 42.7263 55.1917V55.1833Z" fill="#7993B0"/>
<path d="M58.2826 51.6133C58.2826 51.6133 59.8786 52.3021 60.1138 54.0493C60.1138 54.0493 60.3742 53.9989 60.769 53.9989C61.3486 53.9989 62.2138 54.0997 62.9446 54.6121C62.5414 56.5105 59.635 56.7205 59.635 56.7205C58.1566 60.4081 55.477 63.9529 48.5722 63.9529C41.6674 63.9529 41.6338 57.8293 41.6338 56.9725C41.6338 56.1157 42.0706 55.9309 42.7258 55.9309H54.5866C54.889 55.9309 55.3426 55.9561 55.813 55.9561C56.6278 55.9561 57.5098 55.8889 57.8878 55.5109C56.695 53.3437 58.2742 51.6133 58.2742 51.6133" fill="#7993B0"/>
<path fill-rule="evenodd" clip-rule="evenodd" d="M60.9038 62.9613V67.2537L69.4802 62.3061V58.0137L65.8514 60.1557L60.9038 62.9613Z" fill="#7993B0"/>
<path fill-rule="evenodd" clip-rule="evenodd" d="M65.8511 59.0055L69.4799 58.0143V43.9863L65.8511 43.1631V59.0055Z" fill="#7993B0"/>
<path fill-rule="evenodd" clip-rule="evenodd" d="M60.9038 34.7461V39.0385L65.8514 41.8441L69.4802 43.9861V39.6937L60.9038 34.7461Z" fill="#7993B0"/>
<path fill-rule="evenodd" clip-rule="evenodd" d="M36.1488 59.0055V43.1631L32.52 43.9863V58.0143L36.1488 59.0055Z" fill="#7993B0"/>
<path fill-rule="evenodd" clip-rule="evenodd" d="M41.0964 39.0385V34.7461L32.52 39.6937V43.9861L36.1488 41.8441L41.0964 39.0385Z" fill="#7993B0"/>
<path fill-rule="evenodd" clip-rule="evenodd" d="M41.0964 67.2537V62.9613L36.1488 60.1557L32.52 58.0137V62.3061L41.0964 67.2537Z" fill="#7993B0"/>
</g>
<path d="M51 101C78.6142 101 101 78.6142 101 51C101 23.3858 78.6142 1 51 1C23.3858 1 1 23.3858 1 51C1 78.6142 23.3858 101 51 101Z" stroke="#7993B0" stroke-width="1.5" stroke-linecap="round" stroke-linejoin="round"/>
<defs>
<clipPath id="clip0_0_1">
<rect width="84" height="84" fill="white" transform="translate(9 9)"/>
</clipPath>
</defs>
</svg>
