  <svg
          width="95"
          height="84"
          viewBox="0 0 95 84"
          fill="none"
          xmlns="http://www.w3.org/2000/svg"
        >
          <path
            d="M73.8602 4.51999C72.7002 2.50999 69.8502 0.859985 67.5302 0.859985H28.4702C26.1502 0.859985 23.3002 2.50999 22.1402 4.51999L2.61023 38.34C1.45023 40.35 1.45023 43.64 2.61023 45.65L22.1402 79.47C23.3002 81.48 26.1502 83.13 28.4702 83.13H67.5202C69.8402 83.13 72.6902 81.48 73.8502 79.47L93.3802 45.65C94.5402 43.64 94.5402 40.35 93.3802 38.34L73.8602 4.51999Z"
            stroke='#7894B0'
            strokeWidth="1.5"
            strokeMiterlimit="10"
            strokeLinecap="round"
            strokeLinejoin="round"
          />
          <path
            d="M34.3 33.2V33.7H34.8H48H48.5V33.2V31V30.5H48H34.8H34.3V31V33.2ZM34.8 50.3H34.3V50.8V53V53.5H34.8H48H48.5V53V50.8V50.3H48H34.8ZM69.5 24.9V39.3H65.6H30.4H26.5V24.9H30.4H65.6H69.5ZM65.6 44.7H69.5V59.1H65.6H30.4H26.5V44.7H30.4H65.6ZM54.1 32.1C54.1 34.1962 55.8039 35.9 57.9 35.9C59.9961 35.9 61.7 34.1962 61.7 32.1C61.7 30.0039 59.9961 28.3 57.9 28.3C55.8039 28.3 54.1 30.0039 54.1 32.1ZM61.7 51.9C61.7 49.8039 59.9961 48.1 57.9 48.1C55.8039 48.1 54.1 49.8039 54.1 51.9C54.1 53.9962 55.8039 55.7 57.9 55.7C59.9961 55.7 61.7 53.9962 61.7 51.9Z"
            fill="#7894B0"
            stroke='#7894B0'
          />
        </svg>