<svg width="102" height="102" viewBox="0 0 102 102" fill="none" xmlns="http://www.w3.org/2000/svg">
<path d="M51 101C78.6142 101 101 78.6142 101 51C101 23.3858 78.6142 1 51 1C23.3858 1 1 23.3858 1 51C1 78.6142 23.3858 101 51 101Z" stroke="#7893B0" stroke-width="1.5" stroke-linecap="round" stroke-linejoin="round"/>
<path d="M89.0366 48.0919C90.0011 49.7616 90.0011 52.4891 89.0366 54.1588L72.8373 82.2224C71.8728 83.8921 69.5083 85.2611 67.5793 85.2611H35.1807C33.2517 85.2611 30.8872 83.8921 29.9227 82.2224L13.7234 54.1588C12.7589 52.4891 12.7589 49.7616 13.7234 48.0919L29.9227 20.0387C30.8872 18.369 33.2517 17 35.1807 17H67.5793C69.5083 17 71.8728 18.369 72.8373 20.0387L89.0366 48.1022V48.0919ZM65.9822 36.5283H33.1273V49.3053H69.6327V36.5283H65.9822ZM36.7778 52.9558H33.1273V65.7327H69.6327V52.9558H36.7778ZM40.4284 42.0042H51.38V43.8294H40.4284V42.0042ZM59.5937 40.1789C61.1079 40.1789 62.3316 41.4027 62.3316 42.9168C62.3316 44.431 61.1079 45.6547 59.5937 45.6547C58.0796 45.6547 56.8558 44.431 56.8558 42.9168C56.8558 41.4027 58.0796 40.1789 59.5937 40.1789ZM40.4284 60.2569H51.38V58.4316H40.4284V60.2569ZM56.8558 59.3443C56.8558 60.8584 58.0796 62.0822 59.5937 62.0822C61.1079 62.0822 62.3316 60.8584 62.3316 59.3443C62.3316 57.8301 61.1079 56.6064 59.5937 56.6064C58.0796 56.6064 56.8558 57.8301 56.8558 59.3443Z" fill="#7993B0"/>
</svg>
