  <svg
          width="95"
          height="84"
          viewBox="0 0 95 84"
          fill="none"
          xmlns="http://www.w3.org/2000/svg"
        >
          <path
            d="M73.8602 4.51986C72.7002 2.50986 69.8502 0.859863 67.5302 0.859863H28.4702C26.1502 0.859863 23.3002 2.50986 22.1402 4.51986L2.61023 38.3399C1.45023 40.3499 1.45023 43.6399 2.61023 45.6499L22.1402 79.4699C23.3002 81.4799 26.1502 83.1299 28.4702 83.1299H67.5202C69.8402 83.1299 72.6902 81.4799 73.8502 79.4699L93.3802 45.6499C94.5402 43.6399 94.5402 40.3499 93.3802 38.3399L73.8602 4.51986Z"
            stroke='#7894B0'
            strokeWidth="1.5"
            strokeMiterlimit="10"
            strokeLinecap="round"
            strokeLinejoin="round"
          />
          <path
            d="M70 35.4V31H63.4V26.6H59V20H54.6V26.6H50.2V20H45.8V26.6H41.4V20H37V26.6H32.6V31H26V35.4H32.6V39.8H26V44.2H32.6V48.6H26V53H32.6V57.4H37V64H41.4V57.4H45.8V64H50.2V57.4H54.6V64H59V57.4H63.4V53H70V48.6H63.4V44.2H70V39.8H63.4V35.4H70ZM59 53H37V31H59V53Z"
            fill="#7894B0"
          />
          <path
            d="M41.3999 35.3999H54.5999V48.5999H41.3999V35.3999Z"
            fill="#7894B0"
          />
        </svg>