<svg width="102" height="102" viewBox="0 0 102 102" fill="none" xmlns="http://www.w3.org/2000/svg">
<path d="M51 101C78.6142 101 101 78.6142 101 51C101 23.3858 78.6142 1 51 1C23.3858 1 1 23.3858 1 51C1 78.6142 23.3858 101 51 101Z" stroke="#7893B0" stroke-width="1.5" stroke-linecap="round" stroke-linejoin="round"/>
<path d="M72.857 20.0397C71.8922 18.3694 69.5268 17 67.6076 17H35.1776C33.248 17 30.8827 18.3694 29.9282 20.0397L13.7236 48.1021C12.7588 49.7723 12.7588 52.5008 13.7236 54.171L29.9282 82.2438C30.893 83.9141 33.2584 85.2835 35.1776 85.2835H67.5868C69.5164 85.2835 71.8818 83.9141 72.8362 82.2438L89.0408 54.171C90.0056 52.5008 90.0056 49.7723 89.0408 48.1021L72.857 20.0397ZM64.1737 45.1454V48.8801H69.6513V52.6149H64.1737V56.3496H69.6513V60.0844H64.1737V63.8191H60.522V69.4316H56.8702V63.8191H53.2185V69.4316H49.5667V63.8191H45.915V69.4316H42.2632V63.8191H38.6115V60.0844H33.1339V56.3496H38.6115V52.6149H33.1339V48.8801H38.6115V45.1454H33.1339V41.4107H38.6115V37.6759H42.2632V32.0634H45.915V37.6759H49.5667V32.0634H53.2185V37.6759H56.8702V32.0634H60.522V37.6759H64.1737V41.4107H69.6513V45.1454H64.1737ZM60.522 60.1051H42.2632V41.4003H60.522V60.0947V60.1051ZM45.915 56.3704H56.8702V45.1558H45.915V56.3704Z" fill="#7993B0"/>
</svg>
