 <svg
          width="150"
          height="91"
          viewBox="0 0 150 91"
          fill="none"
          xmlns="http://www.w3.org/2000/svg"
        >
          <path
            d="M119.19 89.9001C122.037 89.9617 124.868 89.454 127.517 88.407C130.165 87.36 132.578 85.7946 134.613 83.8027C136.649 81.8109 138.266 79.4326 139.37 76.8074C140.474 74.1822 141.043 71.363 141.043 68.5151C141.043 65.6672 140.474 62.848 139.37 60.2228C138.266 57.5976 136.649 55.2193 134.613 53.2275C132.578 51.2356 130.165 49.6702 127.517 48.6232C124.868 47.5761 122.037 47.0685 119.19 47.1301H119.1C118.593 41.8359 116.13 36.9209 112.193 33.3448C108.257 29.7687 103.129 27.7882 97.81 27.7901C95.4587 27.7855 93.1232 28.1742 90.9 28.9401C87.4545 21.47 81.5616 15.4003 74.1965 11.7355C66.8315 8.07075 58.4359 7.03062 50.3992 8.78726C42.3625 10.5439 35.1665 14.992 30.0022 21.3954C24.8378 27.7988 22.0147 35.7737 22 44.0001C22 45.0701 22 46.1301 22.14 47.1801H22C16.4085 47.301 11.0867 49.6072 7.17487 53.6045C3.26308 57.6018 1.07251 62.9722 1.07251 68.5651C1.07251 74.158 3.26308 79.5284 7.17487 83.5257C11.0867 87.523 16.4085 89.8292 22 89.9501L119.19 89.9001Z"
            stroke='#7894B0'
            strokeWidth='3'
            strokeLinecap="round"
            strokeLinejoin="round"
          />
          <path
            d="M127.43 14.9401L133.24 9.12011L133.63 6.68011C123.03 -2.94989 106.2 -1.85989 96.63 8.96011C93.9717 12.027 92.0464 15.6587 91 19.5801L93.08 19.2801L104.71 17.3701L105.6 16.4501C108.088 13.7015 111.531 12.0047 115.226 11.7056C118.922 11.4065 122.592 12.5274 125.49 14.8401L127.43 14.9401Z"
            fill="#EA4335"
          />
          <path
            d="M141.52 19.3999C140.187 14.4813 137.444 10.0598 133.63 6.67993L125.47 14.8299C127.17 16.2207 128.532 17.9792 129.454 19.973C130.375 21.9669 130.832 24.1439 130.79 26.3399V27.7799C132.708 27.7825 134.547 28.5428 135.907 29.8951C137.266 31.2474 138.037 33.0822 138.05 34.9999C138.049 35.9492 137.859 36.8888 137.493 37.7646C137.127 38.6404 136.591 39.4349 135.916 40.1025C135.241 40.77 134.44 41.2972 133.561 41.6538C132.681 42.0104 131.739 42.1892 130.79 42.1799H116.25L114.83 43.7299V52.4499L116.25 53.8099H130.79C134.831 53.8434 138.776 52.5757 142.041 50.1944C145.307 47.813 147.719 44.4443 148.922 40.5861C150.125 36.7279 150.055 32.585 148.722 28.7698C147.389 24.9546 144.864 21.6694 141.52 19.3999"
            fill="#4285F4"
          />
          <path
            d="M101.73 53.8501H116.25V42.2301H101.73C100.695 42.2285 99.6726 42.0069 98.73 41.5801L96.67 42.2101L90.84 48.0001L90.33 50.0001C93.6063 52.4963 97.611 53.8488 101.73 53.8501"
            fill="#34A853"
          />
          <path
            d="M101.73 16.1399C97.7927 16.1589 93.9599 17.4084 90.7679 19.7135C87.5759 22.0186 85.1844 25.2639 83.9281 28.9954C82.6718 32.7269 82.6135 36.7578 83.7614 40.5241C84.9093 44.2903 87.2059 47.6035 90.33 49.9999L98.75 41.5799C97.6775 41.097 96.7384 40.3607 96.0135 39.4344C95.2886 38.5081 94.7997 37.4196 94.5887 36.2625C94.3777 35.1053 94.451 33.9143 94.8022 32.7917C95.1535 31.6692 95.7723 30.6489 96.6053 29.8185C97.4383 28.9881 98.4606 28.3725 99.5842 28.0247C100.708 27.6769 101.899 27.6074 103.056 27.822C104.212 28.0366 105.299 28.529 106.223 29.2567C107.147 29.9845 107.88 30.9259 108.36 31.9999L116.78 23.5699C115.017 21.2665 112.746 19.4006 110.145 18.1172C107.543 16.8338 104.681 16.1674 101.78 16.1699"
            fill="#FBBC05"
          />
        </svg>