<svg width="100" height="100" viewBox="0 0 100 100" fill="none" xmlns="http://www.w3.org/2000/svg">
<g clip-path="url(#clip0_4916_13150)">
<path d="M75.86 12.5204C74.7 10.5104 71.85 8.86035 69.53 8.86035H30.47C28.15 8.86035 25.3 10.5104 24.14 12.5204L4.60999 46.3404C3.44999 48.3504 3.44999 51.6404 4.60999 53.6504L24.14 87.4704C25.3 89.4804 28.15 91.1303 30.47 91.1303H69.52C71.84 91.1303 74.69 89.4804 75.85 87.4704L95.38 53.6504C96.54 51.6404 96.54 48.3504 95.38 46.3404L75.86 12.5204Z" stroke="#7993B0" stroke-width="1.5" stroke-linecap="round" stroke-linejoin="round"/>
<path fill-rule="evenodd" clip-rule="evenodd" d="M38.2712 30L28 36.0706V63.5294L38.2712 69.6V64.32L32.4 60.8413V38.7587L38.2712 35.28V30Z" fill="#7993B0"/>
<path fill-rule="evenodd" clip-rule="evenodd" d="M44.1288 43.5093L50 46.9606L55.8713 43.5093V36.5587L50 33.1006L44.1288 36.5587V43.5093Z" fill="#7993B0"/>
<path fill-rule="evenodd" clip-rule="evenodd" d="M44.1288 36.5586V43.5092L50 46.9605L55.8713 43.5092V36.5586L50 40.0305L44.1288 36.5586Z" fill="#687E91"/>
<path fill-rule="evenodd" clip-rule="evenodd" d="M50 46.9605L55.8713 43.5092V36.5586L50 40.0305V46.9605Z" fill="#576D7F"/>
<path fill-rule="evenodd" clip-rule="evenodd" d="M51.4712 57.7887L57.3287 61.24L63.1999 57.7887V50.8312L57.3287 47.3594L51.4712 50.8312V57.7887Z" fill="#7993B0"/>
<path fill-rule="evenodd" clip-rule="evenodd" d="M51.4712 50.8311V57.7886L57.3287 61.2398L63.1999 57.7886V50.8311L57.3287 54.3098L51.4712 50.8311Z" fill="#687E91"/>
<path fill-rule="evenodd" clip-rule="evenodd" d="M57.3287 61.2398L63.2 57.7886V50.8311L57.3287 54.3098V61.2398Z" fill="#576D7F"/>
<path fill-rule="evenodd" clip-rule="evenodd" d="M36.8 57.7887L42.6713 61.24L48.5288 57.7887V50.8312L42.6713 47.3594L36.8 50.8312V57.7887Z" fill="#7993B0"/>
<path fill-rule="evenodd" clip-rule="evenodd" d="M36.8 50.8311V57.7886L42.6713 61.2398L48.5288 57.7886V50.8311L42.6713 54.3098L36.8 50.8311Z" fill="#687E91"/>
<path fill-rule="evenodd" clip-rule="evenodd" d="M42.6713 61.2398L48.5288 57.7886V50.8311L42.6713 54.3098V61.2398Z" fill="#576D7F"/>
<path fill-rule="evenodd" clip-rule="evenodd" d="M28 41.3713V58.2494L32.4 60.8413V38.7588L28 41.3713Z" fill="#687E91"/>
<path fill-rule="evenodd" clip-rule="evenodd" d="M28 41.3713L32.4 40.3607V38.7588L28 41.3713Z" fill="#576D7F"/>
<path fill-rule="evenodd" clip-rule="evenodd" d="M32.4 60.8409V59.569L28 58.249L32.4 60.8409Z" fill="#576D7F"/>
<path fill-rule="evenodd" clip-rule="evenodd" d="M61.7288 30V35.28L67.6 38.7587V60.8413L61.7288 64.32V69.6L72 63.5294V36.0706L61.7288 30Z" fill="#7993B0"/>
<path fill-rule="evenodd" clip-rule="evenodd" d="M67.6 60.8413L72 58.2494V41.3713L67.6 38.7588V60.8413Z" fill="#687E91"/>
<path fill-rule="evenodd" clip-rule="evenodd" d="M67.6 40.3607L72 41.3713L67.6 38.7588V40.3607Z" fill="#576D7F"/>
<path fill-rule="evenodd" clip-rule="evenodd" d="M67.6 59.569V60.8409L72 58.249L67.6 59.569Z" fill="#576D7F"/>
</g>
<defs>
<clipPath id="clip0_4916_13150">
<rect width="100" height="100" fill="white"/>
</clipPath>
</defs>
</svg>
