<svg width="102" height="102" viewBox="0 0 102 102" fill="none" xmlns="http://www.w3.org/2000/svg">
<path d="M51 101C78.6142 101 101 78.6142 101 51C101 23.3858 78.6142 1 51 1C23.3858 1 1 23.3858 1 51C1 78.6142 23.3858 101 51 101Z" stroke="#7893B0" stroke-width="1.5" stroke-linecap="round" stroke-linejoin="round"/>
<path d="M89.0216 48.0857C89.9859 49.7551 89.9859 52.4821 89.0216 54.1515L72.8255 82.2095C71.8612 83.8789 69.4971 85.2476 67.5685 85.2476H35.1763C33.2477 85.2476 30.8836 83.8789 29.9193 82.2095L13.7232 54.1515C12.7589 52.4821 12.7589 49.7551 13.7232 48.0857L29.9193 20.0381C30.8836 18.3687 33.2477 17 35.1763 17H67.5685C69.4971 17 71.8612 18.3687 72.8255 20.0381L89.0216 48.0961V48.0857ZM56.2458 40.1328L51.3724 37.271L46.4991 40.1328V45.8979L51.3724 48.7597L56.2458 45.8979V40.1328ZM62.3219 51.974L57.4485 49.0915L52.5959 51.974V57.7391L57.4485 60.6009L62.3219 57.7391V51.974ZM40.4229 51.974V57.7391L45.2963 60.6009L50.1489 57.7391V51.974L45.2963 49.0915L40.4229 51.974ZM36.7731 59.2218V41.9578L41.6465 39.0752V34.6996L33.1233 39.7388V62.5088L41.6465 67.548V63.1724L36.7731 60.2898V59.2322V59.2218ZM61.0984 34.6996V39.0752L65.9717 41.9578V60.2795L61.0984 63.162V67.5376L69.6215 62.4984V39.7388L61.0984 34.6996Z" fill="#7993B0"/>
</svg>
