<svg width="102" height="102" viewBox="0 0 102 102" fill="none" xmlns="http://www.w3.org/2000/svg">
<path d="M51 101C78.6142 101 101 78.6142 101 51C101 23.3858 78.6142 1 51 1C23.3858 1 1 23.3858 1 51C1 78.6142 23.3858 101 51 101Z" stroke="#7893B0" stroke-width="1.5" stroke-linecap="round" stroke-linejoin="round"/>
<path d="M89.0184 48.0875C89.9805 49.7547 89.9805 52.4835 89.0184 54.1507L72.8194 82.2025C71.8572 83.8696 69.4933 85.2382 67.569 85.2382H35.171C33.2467 85.2382 30.8828 83.8696 29.9206 82.2025L13.7216 54.1507C12.7595 52.4835 12.7595 49.7547 13.7216 48.0875L29.9206 20.0358C30.8828 18.3686 33.2467 17 35.171 17H67.5607C69.485 17 71.8489 18.3686 72.8111 20.0358L89.0101 48.0875H89.0184ZM61.6136 43.1938C61.6136 43.1938 58.9179 46.1466 60.9501 49.8625C59.9298 50.8827 56.7199 50.5758 55.3016 50.5758H34.9885C33.8605 50.5758 33.1223 50.8827 33.1223 52.3591C33.1223 53.8355 33.1969 64.3446 45.0082 64.3446C56.8194 64.3446 61.4062 58.2648 63.9526 51.9527C63.9526 51.9527 68.921 51.596 69.6177 48.3363C67.5192 46.8599 64.7655 47.3659 64.7655 47.3659C64.3591 44.3633 61.6053 43.1938 61.6053 43.1938H61.6136ZM54.2813 49.5556H57.8479V46.3457H54.2813V49.5556ZM49.595 49.5556H53.1616V46.3457H49.595V49.5556ZM44.9086 49.5556H48.4752V46.3457H44.9086V49.5556ZM40.2223 49.5556H43.7889V46.3457H40.2223V49.5556ZM49.6033 45.3255H53.1699V42.1155H49.6033V45.3255ZM49.6033 41.0953H53.1699V37.8854H49.6033V41.0953ZM44.9169 45.3255H48.4835V42.1155H44.9169V45.3255ZM40.2306 45.3255H43.7972V42.1155H40.2306V45.3255ZM35.5442 49.5556H39.1108V46.3457H35.5442V49.5556Z" fill="#7993B0"/>
</svg>
