<svg width="102" height="102" viewBox="0 0 102 102" fill="none" xmlns="http://www.w3.org/2000/svg">
<path d="M71.9636 20.3923C71.0008 18.724 68.6353 17.3545 66.7097 17.3545H34.2899C32.3643 17.3545 29.9988 18.724 29.036 20.3923L12.8261 48.4629C11.8633 50.1312 11.8633 52.8619 12.8261 54.5302L29.036 82.6008C29.9988 84.2691 32.3643 85.6386 34.2899 85.6386H66.7014C68.627 85.6386 70.9925 84.2691 71.9553 82.6008L88.1652 54.5302C89.128 52.8619 89.128 50.1312 88.1652 48.4629L71.9636 20.3923Z" stroke="#7993B0" stroke-width="1.5" stroke-linecap="round" stroke-linejoin="round"/>
<path d="M52.3172 43.9297H50.2588V45.7806H52.3172V43.9297Z" fill="#7993B0"/>
<path d="M49.6121 43.9297H47.5537V45.7806H49.6121V43.9297Z" fill="#7993B0"/>
<path d="M46.9061 43.9297H44.8477V45.7806H46.9061V43.9297Z" fill="#7993B0"/>
<path d="M44.2 43.9297H42.1416V45.7806H44.2V43.9297Z" fill="#7993B0"/>
<path d="M49.6121 41.4893H47.5537V43.3402H49.6121V41.4893Z" fill="#7993B0"/>
<path d="M49.6121 39.0488H47.5537V40.8997H49.6121V39.0488Z" fill="#7993B0"/>
<path d="M46.9061 41.4893H44.8477V43.3402H46.9061V41.4893Z" fill="#7993B0"/>
<path d="M44.2 41.4893H42.1416V43.3402H44.2V41.4893Z" fill="#7993B0"/>
<path d="M41.4944 43.9297H39.436V45.7806H41.4944V43.9297Z" fill="#7993B0"/>
<path d="M40.7307 50.4782H52.4503C52.5914 50.4782 52.7574 50.4782 52.9483 50.4865C53.1641 50.4865 53.4131 50.5031 53.6621 50.5031C53.7783 50.5031 53.8779 50.5031 53.9775 50.5031C54.185 50.2375 54.3842 49.9636 54.5585 49.6814C54.3095 47.8471 55.4798 46.5274 55.5462 46.461L55.9031 46.0709L56.3845 46.2784C56.3845 46.2784 56.8161 46.4693 57.2643 46.8428C58.0445 46.5606 58.8994 46.0377 59.1069 45.0749C57.8951 44.2283 56.3015 44.5105 56.3015 44.5105C56.0691 42.8007 54.517 42.1118 54.4838 42.1035C54.4589 42.1284 52.9317 43.8299 54.102 45.9547C53.521 46.5357 51.6618 46.3697 50.8401 46.3697H39.1288C38.4814 46.3697 38.0498 46.544 38.0498 47.3989C38.0498 47.8471 38.0747 49.7146 39.0624 51.4078C39.2699 50.9015 39.743 50.4865 40.7307 50.4865V50.4782Z" fill="#7993B0"/>
<path d="M42.3245 55.6325H54.0441C54.1852 55.6325 54.3512 55.6325 54.5421 55.6408C54.7579 55.6408 55.0069 55.6574 55.2559 55.6574C55.2808 55.6574 55.2974 55.6574 55.314 55.6574C55.6128 55.3088 55.8867 54.9436 56.1357 54.5618C56.0278 52.8686 57.0902 51.6734 57.1483 51.607L57.5052 51.2169L57.9866 51.4244C57.9866 51.4244 58.2688 51.5489 58.5925 51.7813C59.4391 51.524 60.4849 51.0011 60.709 49.9221C59.9869 49.4158 59.132 49.3162 58.5593 49.3162C58.1692 49.3162 57.9119 49.366 57.9119 49.366C57.6712 47.6396 56.1025 46.959 56.1025 46.959C56.1025 46.959 54.5421 48.6688 55.7207 50.8102C55.3555 51.1754 54.4757 51.2501 53.6706 51.2501C53.2058 51.2501 52.7576 51.2252 52.4588 51.2252H40.7309C40.0835 51.2252 39.6519 51.3995 39.6519 52.2544C39.6519 52.7109 39.6768 54.678 40.7475 56.3961C40.9882 55.9645 41.453 55.6408 42.3245 55.6408V55.6325Z" fill="#7993B0"/>
<path d="M57.6962 52.1055C57.6962 52.1055 59.2732 52.7861 59.5056 54.5125C59.5056 54.5125 59.7629 54.4627 60.153 54.4627C60.7257 54.4627 61.5806 54.5623 62.3027 55.0686C61.9043 56.9444 59.0325 57.1519 59.0325 57.1519C57.5717 60.7956 54.924 64.2982 48.1014 64.2982C41.2788 64.2982 41.2456 58.2475 41.2456 57.4009C41.2456 56.5543 41.6772 56.3717 42.3246 56.3717H54.0442C54.343 56.3717 54.7912 56.3966 55.256 56.3966C56.0611 56.3966 56.9326 56.3302 57.3061 55.9567C56.1275 53.8153 57.6879 52.1055 57.6879 52.1055" fill="#7993B0"/>
<path d="M51 101C78.6142 101 101 78.6142 101 51C101 23.3858 78.6142 1 51 1C23.3858 1 1 23.3858 1 51C1 78.6142 23.3858 101 51 101Z" stroke="#7993B0" stroke-width="1.5" stroke-linecap="round" stroke-linejoin="round"/>
</svg>
