<svg width="100" height="100" viewBox="0 0 100 100" fill="none" xmlns="http://www.w3.org/2000/svg">
<g clip-path="url(#clip0_6024_21463)">
<path d="M75.86 12.5204C74.7 10.5104 71.85 8.86035 69.53 8.86035H30.47C28.15 8.86035 25.3 10.5104 24.14 12.5204L4.60999 46.3404C3.44999 48.3504 3.44999 51.6404 4.60999 53.6504L24.14 87.4704C25.3 89.4804 28.15 91.1303 30.47 91.1303H69.52C71.84 91.1303 74.69 89.4804 75.85 87.4704L95.38 53.6504C96.54 51.6404 96.54 48.3504 95.38 46.3404L75.86 12.5204Z" stroke="#7993B0" stroke-width="1.5" stroke-linecap="round" stroke-linejoin="round"/>
<path d="M62.35 40.3896C62.35 40.3896 59.1 43.9496 61.55 48.4296C60.32 49.6596 56.45 49.2896 54.74 49.2896H30.25C28.89 49.2896 28 49.6596 28 51.4396C28 53.2196 28.09 65.8896 42.33 65.8896C56.57 65.8896 62.1 58.5596 65.17 50.9496C65.17 50.9496 71.16 50.5196 72 46.5896C69.47 44.8096 66.15 45.4196 66.15 45.4196C65.66 41.7996 62.34 40.3896 62.34 40.3896H62.35Z" fill="#7993B0"/>
<path d="M57.8 44.1904H53.5V48.0604H57.8V44.1904Z" fill="#7993B0"/>
<path d="M52.1501 44.1904H47.8501V48.0604H52.1501V44.1904Z" fill="#7993B0"/>
<path d="M46.5002 44.1904H42.2002V48.0604H46.5002V44.1904Z" fill="#7993B0"/>
<path d="M40.84 44.1904H36.54V48.0604H40.84V44.1904Z" fill="#7993B0"/>
<path d="M52.1501 39.0996H47.8501V42.9696H52.1501V39.0996Z" fill="#7993B0"/>
<path d="M52.1501 34H47.8501V37.87H52.1501V34Z" fill="#7993B0"/>
<path d="M46.5002 39.0996H42.2002V42.9696H46.5002V39.0996Z" fill="#7993B0"/>
<path d="M40.84 39.0996H36.54V42.9696H40.84V39.0996Z" fill="#7993B0"/>
<path d="M35.1901 44.1904H30.8901V48.0604H35.1901V44.1904Z" fill="#7993B0"/>
</g>
<defs>
<clipPath id="clip0_6024_21463">
<rect width="100" height="100" fill="white"/>
</clipPath>
</defs>
</svg>
