<svg width="100" height="100" viewBox="0 0 100 100" fill="none" xmlns="http://www.w3.org/2000/svg">
<g clip-path="url(#clip0_7292_23748)">
<path d="M75.8602 12.5204C74.7002 10.5104 71.8502 8.86035 69.5302 8.86035H30.4702C28.1502 8.86035 25.3002 10.5104 24.1402 12.5204L4.61023 46.3404C3.45023 48.3504 3.45023 51.6404 4.61023 53.6504L24.1402 87.4704C25.3002 89.4804 28.1502 91.1303 30.4702 91.1303H69.5202C71.8402 91.1303 74.6902 89.4804 75.8502 87.4704L95.3802 53.6504C96.5402 51.6404 96.5402 48.3504 95.3802 46.3404L75.8602 12.5204Z" stroke="#7993B0" stroke-width="1.5" stroke-linecap="round" stroke-linejoin="round"/>
<path d="M52.19 40.8799H49.71V43.1099H52.19V40.8799Z" fill="#7993B0"/>
<path d="M48.9302 40.8799H46.4502V43.1099H48.9302V40.8799Z" fill="#7993B0"/>
<path d="M45.6699 40.8799H43.1899V43.1099H45.6699V40.8799Z" fill="#7993B0"/>
<path d="M42.4102 40.8799H39.9302V43.1099H42.4102V40.8799Z" fill="#7993B0"/>
<path d="M48.9302 37.9404H46.4502V40.1704H48.9302V37.9404Z" fill="#7993B0"/>
<path d="M48.9302 35H46.4502V37.23H48.9302V35Z" fill="#7993B0"/>
<path d="M45.6699 37.9404H43.1899V40.1704H45.6699V37.9404Z" fill="#7993B0"/>
<path d="M42.4102 37.9404H39.9302V40.1704H42.4102V37.9404Z" fill="#7993B0"/>
<path d="M39.1499 40.8799H36.6699V43.1099H39.1499V40.8799Z" fill="#7993B0"/>
<path d="M38.23 48.7697H52.35C52.52 48.7697 52.72 48.7697 52.95 48.7797C53.21 48.7797 53.51 48.7997 53.81 48.7997C53.95 48.7997 54.07 48.7997 54.19 48.7997C54.44 48.4797 54.68 48.1497 54.89 47.8097C54.59 45.5997 56 44.0097 56.08 43.9297L56.51 43.4597L57.09 43.7097C57.09 43.7097 57.61 43.9397 58.15 44.3897C59.09 44.0497 60.12 43.4197 60.37 42.2597C58.91 41.2397 56.99 41.5797 56.99 41.5797C56.71 39.5197 54.84 38.6897 54.8 38.6797C54.77 38.7097 52.93 40.7597 54.34 43.3197C53.64 44.0197 51.4 43.8197 50.41 43.8197H36.3C35.52 43.8197 35 44.0297 35 45.0597C35 45.5997 35.03 47.8497 36.22 49.8897C36.47 49.2797 37.04 48.7797 38.23 48.7797V48.7697Z" fill="#7993B0"/>
<path d="M40.1502 54.9803H54.2702C54.4402 54.9803 54.6402 54.9803 54.8702 54.9903C55.1302 54.9903 55.4302 55.0103 55.7302 55.0103C55.7602 55.0103 55.7802 55.0103 55.8002 55.0103C56.1602 54.5903 56.4902 54.1503 56.7902 53.6903C56.6602 51.6503 57.9402 50.2103 58.0102 50.1303L58.4402 49.6603L59.0202 49.9103C59.0202 49.9103 59.3602 50.0603 59.7502 50.3403C60.7702 50.0303 62.0302 49.4003 62.3002 48.1003C61.4302 47.4903 60.4002 47.3703 59.7102 47.3703C59.2402 47.3703 58.9302 47.4303 58.9302 47.4303C58.6402 45.3503 56.7502 44.5303 56.7502 44.5303C56.7502 44.5303 54.8702 46.5903 56.2902 49.1703C55.8502 49.6103 54.7902 49.7003 53.8202 49.7003C53.2602 49.7003 52.7202 49.6703 52.3602 49.6703H38.2302C37.4502 49.6703 36.9302 49.8803 36.9302 50.9103C36.9302 51.4603 36.9602 53.8303 38.2502 55.9003C38.5402 55.3803 39.1002 54.9903 40.1502 54.9903V54.9803Z" fill="#7993B0"/>
<path d="M58.6701 50.7305C58.6701 50.7305 60.5701 51.5505 60.8501 53.6305C60.8501 53.6305 61.1601 53.5705 61.6301 53.5705C62.3201 53.5705 63.3501 53.6905 64.2201 54.3005C63.7401 56.5605 60.2801 56.8105 60.2801 56.8105C58.5201 61.2005 55.3301 65.4205 47.1101 65.4205C38.8901 65.4205 38.8501 58.1305 38.8501 57.1105C38.8501 56.0905 39.3701 55.8705 40.1501 55.8705H54.2701C54.6301 55.8705 55.1701 55.9005 55.7301 55.9005C56.7001 55.9005 57.7501 55.8205 58.2001 55.3705C56.7801 52.7905 58.6601 50.7305 58.6601 50.7305" fill="#7993B0"/>
</g>
<defs>
<clipPath id="clip0_7292_23748">
<rect width="100" height="100" fill="white"/>
</clipPath>
</defs>
</svg>
