<svg width="100" height="100" viewBox="0 0 100 100" fill="none" xmlns="http://www.w3.org/2000/svg">
<path d="M16 0.75H84C92.4258 0.75 99.25 7.57421 99.25 16V84C99.25 92.4258 92.4258 99.25 84 99.25H16C7.57421 99.25 0.75 92.4258 0.75 84V16C0.75 7.57421 7.57421 0.75 16 0.75Z" stroke="#7993B0" stroke-width="1.5"/>
<path d="M88.0184 47.0875C88.9805 48.7547 88.9805 51.4835 88.0184 53.1507L71.8194 81.2025C70.8572 82.8696 68.4933 84.2382 66.569 84.2382H34.171C32.2467 84.2382 29.8828 82.8696 28.9206 81.2025L12.7216 53.1507C11.7595 51.4835 11.7595 48.7547 12.7216 47.0875L28.9206 19.0358C29.8828 17.3686 32.2467 16 34.171 16H66.5607C68.485 16 70.8489 17.3686 71.8111 19.0358L88.0101 47.0875H88.0184ZM60.6136 42.1938C60.6136 42.1938 57.9179 45.1466 59.9501 48.8625C58.9298 49.8827 55.7199 49.5758 54.3016 49.5758H33.9885C32.8605 49.5758 32.1223 49.8827 32.1223 51.3591C32.1223 52.8355 32.1969 63.3446 44.0082 63.3446C55.8194 63.3446 60.4062 57.2648 62.9526 50.9527C62.9526 50.9527 67.921 50.596 68.6177 47.3363C66.5192 45.8599 63.7655 46.3659 63.7655 46.3659C63.3591 43.3633 60.6053 42.1938 60.6053 42.1938H60.6136ZM53.2813 48.5556H56.8479V45.3457H53.2813V48.5556ZM48.595 48.5556H52.1616V45.3457H48.595V48.5556ZM43.9086 48.5556H47.4752V45.3457H43.9086V48.5556ZM39.2223 48.5556H42.7889V45.3457H39.2223V48.5556ZM48.6033 44.3255H52.1699V41.1155H48.6033V44.3255ZM48.6033 40.0953H52.1699V36.8854H48.6033V40.0953ZM43.9169 44.3255H47.4835V41.1155H43.9169V44.3255ZM39.2306 44.3255H42.7972V41.1155H39.2306V44.3255ZM34.5442 48.5556H38.1108V45.3457H34.5442V48.5556Z" fill="#7993B0"/>
</svg>
