<svg width="100" height="100" viewBox="0 0 100 100" fill="none" xmlns="http://www.w3.org/2000/svg">
<g clip-path="url(#clip0_3555_8928)">
<path d="M75.8602 12.5204C74.7002 10.5104 71.8502 8.86035 69.5302 8.86035H30.4702C28.1502 8.86035 25.3002 10.5104 24.1402 12.5204L4.61023 46.3404C3.45023 48.3504 3.45023 51.6404 4.61023 53.6504L24.1402 87.4704C25.3002 89.4804 28.1502 91.1303 30.4702 91.1303H69.5202C71.8402 91.1303 74.6902 89.4804 75.8502 87.4704L95.3802 53.6504C96.5402 51.6404 96.5402 48.3504 95.3802 46.3404L75.8602 12.5204Z" stroke="#7993B0" stroke-width="1.5" stroke-linecap="round" stroke-linejoin="round"/>
<path d="M59.4683 57.9468V63H46.5702C43.6948 63 41.3637 60.6298 41.3637 57.7062V42.2938C41.3637 39.3702 43.6948 37 46.5702 37H51.8407C54.7161 37 57.0472 39.3702 57.0472 42.2938V57.7062C57.0472 57.788 57.0449 57.8674 57.0401 57.9468H59.4683V57.9468ZM51.8407 57.9468V42.2938H46.5702V57.9468H51.8407ZM37.2907 52.5254L37.286 52.5206C37.2458 51.599 36.9712 50.7375 36.5239 49.9988C35.6412 48.5406 34.084 47.5492 32.2948 47.477C32.2262 47.4746 27.048 47.4746 26.9699 47.477V42.0532H36.0814L37.2647 37H27.2066C24.4092 37 22.1302 39.2403 22.0071 42.0532H22V47.234C22 48.2494 22.2816 49.1951 22.7668 50.0012C23.6424 51.4522 25.1878 52.4388 26.9628 52.5206L26.9675 52.5278V52.5206C27.0456 52.523 32.2238 52.523 32.2924 52.5206V57.9468H23.1833L22 63C22 63 32.2262 62.9976 32.2948 62.9952C34.9927 62.8869 37.1629 60.69 37.286 57.9516L37.2907 57.9468V57.7904C37.2907 57.7615 37.2907 52.5254 37.2907 52.5254V52.5254ZM68.6531 57.9468V37H63.6832V63H79V57.9468H68.6531Z" fill="#7993B0"/>
</g>
<defs>
<clipPath id="clip0_3555_8928">
<rect width="100" height="100" fill="white"/>
</clipPath>
</defs>
</svg>
