<svg width="102" height="102" viewBox="0 0 102 102" fill="none" xmlns="http://www.w3.org/2000/svg">
<path d="M51 101C78.6142 101 101 78.6142 101 51C101 23.3858 78.6142 1 51 1C23.3858 1 1 23.3858 1 51C1 78.6142 23.3858 101 51 101Z" stroke="#7893B0" stroke-width="1.5" stroke-linecap="round" stroke-linejoin="round"/>
<path d="M71.6975 20.93C70.7675 19.32 68.4875 18 66.6375 18H35.3775C33.5175 18 31.2375 19.32 30.3175 20.93L14.6975 47.98C13.7675 49.59 13.7675 52.22 14.6975 53.83L30.3175 80.89C31.2475 82.5 33.5275 83.82 35.3775 83.82H66.6175C68.4775 83.82 70.7575 82.5 71.6775 80.89L87.2975 53.83C88.2275 52.22 88.2275 49.59 87.2975 47.98L71.6975 20.93ZM58.5875 57.27V61.31H48.2675C45.9675 61.31 44.0975 59.41 44.0975 57.07V44.74C44.0975 42.4 45.9575 40.5 48.2675 40.5H52.4875C54.7875 40.5 56.6575 42.4 56.6575 44.74V57.07C56.6575 57.14 56.6575 57.2 56.6575 57.26H58.5975L58.5875 57.27ZM52.4875 57.27V44.75H48.2675V57.27H52.4875ZM40.8475 52.93V57.27C40.7475 59.46 39.0175 61.22 36.8575 61.31C36.8075 61.31 28.6175 61.31 28.6175 61.31L29.5675 57.27H36.8575V52.93C36.8075 52.93 32.6575 52.93 32.5975 52.93C31.1775 52.86 29.9375 52.08 29.2375 50.91C28.8475 50.27 28.6275 49.51 28.6275 48.7V44.56C28.7275 42.31 30.5475 40.52 32.7875 40.52H40.8375L39.8875 44.56H32.5975V48.9C32.6575 48.9 36.8075 48.9 36.8575 48.9C38.2875 48.96 39.5375 49.75 40.2375 50.92C40.5975 51.51 40.8175 52.2 40.8475 52.94V52.93ZM74.2175 57.27V61.31H61.9675V40.51H65.9475V57.27H74.2275H74.2175Z" fill="#7993B0"/>
</svg>
