<svg width="102" height="102" viewBox="0 0 102 102" fill="none" xmlns="http://www.w3.org/2000/svg">
<path d="M51 101C78.6142 101 101 78.6142 101 51C101 23.3858 78.6142 1 51 1C23.3858 1 1 23.3858 1 51C1 78.6142 23.3858 101 51 101Z" stroke="#7893B0" stroke-width="1.5" stroke-linecap="round" stroke-linejoin="round"/>
<path d="M89.0366 48.0919C90.0011 49.7616 90.0011 52.4891 89.0366 54.1588L72.8373 82.2224C71.8728 83.8921 69.5083 85.2611 67.5793 85.2611H35.1807C33.2517 85.2611 30.8872 83.8921 29.9227 82.2224L13.7234 54.1588C12.7589 52.4891 12.7589 49.7616 13.7234 48.0919L29.9227 20.0387C30.8872 18.369 33.2517 17 35.1807 17H67.5793C69.5083 17 71.8728 18.369 72.8373 20.0387L89.0366 48.1022V48.0919ZM38.0016 48.2785V53.7751L51.38 60.8895L64.7584 53.7751V48.2785L51.38 55.393L38.0016 48.2785V48.2785ZM38.0016 56.7619V62.2585L51.38 69.3729L64.7584 62.2585V56.7619L51.38 63.8763L38.0016 56.7619ZM64.7066 39.9611L51.38 32.8674L38.0534 39.9611L38.0016 39.93V45.4784L38.0327 45.4577L51.38 52.5617L64.7273 45.4577L64.7584 45.4784V39.93L64.7066 39.9611V39.9611ZM59.5419 42.7094L51.38 38.364L43.2181 42.7094L51.38 47.0548L59.5419 42.7094Z" fill="#7993B0"/>
</svg>
