 <svg
          width="95"
          height="84"
          viewBox="0 0 95 84"
          fill="none"
          xmlns="http://www.w3.org/2000/svg"
        >
          <path
            d="M73.8602 4.51986C72.7002 2.50986 69.8502 0.859863 67.5302 0.859863H28.4702C26.1502 0.859863 23.3002 2.50986 22.1402 4.51986L2.61023 38.3399C1.45023 40.3499 1.45023 43.6399 2.61023 45.6499L22.1402 79.4699C23.3002 81.4799 26.1502 83.1299 28.4702 83.1299H67.5202C69.8402 83.1299 72.6902 81.4799 73.8502 79.4699L93.3802 45.6499C94.5402 43.6399 94.5402 40.3499 93.3802 38.3399L73.8602 4.51986Z"
            stroke='#7894B0'
            strokeWidth="1.5"
            strokeMiterlimit="10"
            strokeLinecap="round"
            strokeLinejoin="round"
          />
          <path d="M28 22H45.78V26.44H28V22Z" fill="#7894B0" />
          <path d="M28 57.5601H45.78V62.0001H28V57.5601Z" fill="#7894B0" />
          <path d="M28 39.7798H45.78V44.2198H28V39.7798Z" fill="#7894B0" />
          <path d="M50.2202 22H68.0002V26.44H50.2202V22Z" fill="#7894B0" />
          <path
            d="M50.2202 57.5601H68.0002V62.0001H50.2202V57.5601Z"
            fill="#7894B0"
          />
          <path
            d="M50.2202 39.7798H68.0002V44.2198H50.2202V39.7798Z"
            fill="#7894B0"
          />
          <path
            d="M39.1001 30.8799H56.8801V35.3199H39.1001V30.8799Z"
            fill="#7894B0"
          />
          <path
            d="M39.1001 48.6602H56.8801V53.1002H39.1001V48.6602Z"
            fill="#7894B0"
          />
          <path d="M28 30.8799H34.66V35.3199H28V30.8799Z" fill="#7894B0" />
          <path d="M28 48.6602H34.66V53.1002H28V48.6602Z" fill="#7894B0" />
          <path
            d="M61.3398 30.8799H67.9998V35.3199H61.3398V30.8799Z"
            fill="#7894B0"
          />
          <path
            d="M61.3398 48.6602H67.9998V53.1002H61.3398V48.6602Z"
            fill="#7894B0"
          />
        </svg>