<svg width="102" height="102" viewBox="0 0 102 102" fill="none" xmlns="http://www.w3.org/2000/svg">
<path d="M51 101C78.6142 101 101 78.6142 101 51C101 23.3858 78.6142 1 51 1C23.3858 1 1 23.3858 1 51C1 78.6142 23.3858 101 51 101Z" stroke="#7893B0" stroke-width="1.5" stroke-linecap="round" stroke-linejoin="round"/>
<path d="M89.0366 48.0919C90.0011 49.7616 90.0011 52.4891 89.0366 54.1588L72.8373 82.2224C71.8728 83.8921 69.5083 85.2611 67.5793 85.2611H35.1807C33.2517 85.2611 30.8872 83.8921 29.9227 82.2224L13.7234 54.1588C12.7589 52.4891 12.7589 49.7616 13.7234 48.0919L29.9227 20.0387C30.8872 18.369 33.2517 17 35.1807 17H67.5793C69.5083 17 71.8728 18.369 72.8373 20.0387L89.0366 48.1022V48.0919ZM34.7866 38.2188H49.534V34.5371H34.7866V38.2188ZM34.7866 67.7239H49.534V64.0423H34.7866V67.7239ZM34.7866 52.9766H49.534V49.2949H34.7866V52.9766ZM53.226 38.2292H67.9734V34.5475H53.226V38.2292ZM53.226 67.7343H67.9734V64.0526H53.226V67.7343ZM53.226 52.9869H67.9734V49.3053H53.226V52.9869ZM43.9959 45.6029H58.7433V41.9212H43.9959V45.6029ZM43.9959 60.3502H58.7433V56.6686H43.9959V60.3502ZM34.7866 45.6029H40.3143V41.9212H34.7866V45.6029ZM34.7866 60.3502H40.3143V56.6686H34.7866V60.3502ZM62.4457 45.6029H67.9734V41.9212H62.4457V45.6029ZM62.4457 60.3502H67.9734V56.6686H62.4457V60.3502Z" fill="#7993B0"/>
</svg>
