<svg width="100" height="100" viewBox="0 0 100 100" fill="none" xmlns="http://www.w3.org/2000/svg">
<g clip-path="url(#clip0_5640_18928)">
<path d="M75.86 12.5204C74.7 10.5104 71.85 8.86035 69.53 8.86035H30.47C28.15 8.86035 25.3 10.5104 24.14 12.5204L4.60999 46.3404C3.44999 48.3504 3.44999 51.6404 4.60999 53.6504L24.14 87.4704C25.3 89.4804 28.15 91.1303 30.47 91.1303H69.52C71.84 91.1303 74.69 89.4804 75.85 87.4704L95.38 53.6504C96.54 51.6404 96.54 48.3504 95.38 46.3404L75.86 12.5204Z" stroke="#7993B0" stroke-width="1.5" stroke-linecap="round" stroke-linejoin="round"/>
<g clip-path="url(#clip1_5640_18928)">
<path d="M28 57.8237L34.6031 63.1956V36.7832L28 42.1276V57.8237Z" fill="#687E91"/>
<path d="M28 45.5873L34.6031 41.1853V36.7832L28 45.5873Z" fill="#576D7F"/>
<path d="M34.6031 63.1957V58.7937L28 54.3916L34.6031 63.1957Z" fill="#576D7F"/>
<path d="M41.2062 67.5978L28 54.3916V63.1957L36.8041 71.9999L41.2062 67.5978Z" fill="#7993B0"/>
<path d="M36.7835 28L28 36.7835L28.0206 45.5876L41.1856 32.4021L36.7835 28Z" fill="#7993B0"/>
<path d="M72.0207 42.1756L65.4176 36.8037V63.2161L72.0207 57.8923V42.1756Z" fill="#687E91"/>
<path d="M72.0207 54.4121L65.4176 58.8142V63.2162L72.0207 54.4121Z" fill="#576D7F"/>
<path d="M65.4176 36.8037V41.2058L72.0207 45.6078L65.4176 36.8037Z" fill="#576D7F"/>
<path d="M58.8145 32.4021L72.0206 45.6083V36.8041L63.2165 28L58.8145 32.4021Z" fill="#7993B0"/>
<path d="M63.2371 71.9997L72.0206 63.2162L72 54.4121L58.8351 67.5977L63.2371 71.9997Z" fill="#7993B0"/>
<path d="M41.2062 52.1911C42.4218 52.1911 43.4072 51.2057 43.4072 49.9901C43.4072 48.7745 42.4218 47.7891 41.2062 47.7891C39.9906 47.7891 39.0051 48.7745 39.0051 49.9901C39.0051 51.2057 39.9906 52.1911 41.2062 52.1911Z" fill="#7993B0"/>
<path d="M50.0104 52.1911C51.226 52.1911 52.2114 51.2057 52.2114 49.9901C52.2114 48.7745 51.226 47.7891 50.0104 47.7891C48.7948 47.7891 47.8093 48.7745 47.8093 49.9901C47.8093 51.2057 48.7948 52.1911 50.0104 52.1911Z" fill="#7993B0"/>
<path d="M58.7938 52.1911C60.0094 52.1911 60.9948 51.2057 60.9948 49.9901C60.9948 48.7745 60.0094 47.7891 58.7938 47.7891C57.5782 47.7891 56.5928 48.7745 56.5928 49.9901C56.5928 51.2057 57.5782 52.1911 58.7938 52.1911Z" fill="#7993B0"/>
</g>
</g>
<defs>
<clipPath id="clip0_5640_18928">
<rect width="100" height="100" fill="white"/>
</clipPath>
<clipPath id="clip1_5640_18928">
<rect width="44.0206" height="44" fill="white" transform="translate(28 28)"/>
</clipPath>
</defs>
</svg>
