<svg width="102" height="102" viewBox="0 0 102 102" fill="none" xmlns="http://www.w3.org/2000/svg">
<g clip-path="url(#clip0_0_1)">
<path d="M70.8951 23.3895C70.0251 21.882 67.8876 20.6445 66.1476 20.6445H36.8526C35.1126 20.6445 32.9751 21.882 32.1051 23.3895L17.4576 48.7545C16.5876 50.262 16.5876 52.7295 17.4576 54.237L32.1051 79.602C32.9751 81.1095 35.1126 82.347 36.8526 82.347H66.1401C67.8801 82.347 70.0176 81.1095 70.8876 79.602L85.5351 54.237C86.4051 52.7295 86.4051 50.262 85.5351 48.7545L70.8951 23.3895Z" stroke="#7993B0" stroke-width="1.5" stroke-linecap="round" stroke-linejoin="round"/>
<g clip-path="url(#clip1_0_1)">
<path d="M35 57.3683L39.9523 61.3972V41.5879L35 45.5962V57.3683Z" fill="#687E91"/>
<path d="M35 48.191L39.9523 44.8894V41.5879L35 48.191Z" fill="#576D7F"/>
<path d="M39.9523 61.397V58.0955L35 54.7939L39.9523 61.397Z" fill="#576D7F"/>
<path d="M44.9046 64.6986L35 54.7939V61.397L41.6031 68.0001L44.9046 64.6986Z" fill="#7993B0"/>
<path d="M41.5876 35L35 41.5876L35.0155 48.1907L44.8892 38.3015L41.5876 35Z" fill="#7993B0"/>
<path d="M68.0154 45.6324L63.0631 41.6035V61.4128L68.0154 57.42V45.6324Z" fill="#687E91"/>
<path d="M68.0154 54.8096L63.0631 58.1111V61.4127L68.0154 54.8096Z" fill="#576D7F"/>
<path d="M63.0631 41.6035V44.9051L68.0154 48.2066L63.0631 41.6035Z" fill="#576D7F"/>
<path d="M58.1108 38.3015L68.0155 48.2062V41.6031L61.4124 35L58.1108 38.3015Z" fill="#7993B0"/>
<path d="M61.4279 68.0003L68.0155 61.4127L68 54.8096L58.1263 64.6987L61.4279 68.0003Z" fill="#7993B0"/>
<path d="M44.9047 53.1433C45.8164 53.1433 46.5555 52.4043 46.5555 51.4926C46.5555 50.5809 45.8164 49.8418 44.9047 49.8418C43.993 49.8418 43.2539 50.5809 43.2539 51.4926C43.2539 52.4043 43.993 53.1433 44.9047 53.1433Z" fill="#7993B0"/>
<path d="M51.5077 53.1433C52.4194 53.1433 53.1585 52.4043 53.1585 51.4926C53.1585 50.5809 52.4194 49.8418 51.5077 49.8418C50.596 49.8418 49.8569 50.5809 49.8569 51.4926C49.8569 52.4043 50.596 53.1433 51.5077 53.1433Z" fill="#7993B0"/>
<path d="M58.0954 53.1433C59.0071 53.1433 59.7461 52.4043 59.7461 51.4926C59.7461 50.5809 59.0071 49.8418 58.0954 49.8418C57.1837 49.8418 56.4446 50.5809 56.4446 51.4926C56.4446 52.4043 57.1837 53.1433 58.0954 53.1433Z" fill="#7993B0"/>
</g>
</g>
<path d="M51 101C78.6142 101 101 78.6142 101 51C101 23.3858 78.6142 1 51 1C23.3858 1 1 23.3858 1 51C1 78.6142 23.3858 101 51 101Z" stroke="#7893B0" stroke-width="1.5" stroke-linecap="round" stroke-linejoin="round"/>
<defs>
<clipPath id="clip0_0_1">
<rect width="75" height="75" fill="white" transform="translate(14 14)"/>
</clipPath>
<clipPath id="clip1_0_1">
<rect width="33.0155" height="33" fill="white" transform="translate(35 35)"/>
</clipPath>
</defs>
</svg>
