<svg width="102" height="102" viewBox="0 0 102 102" fill="none" xmlns="http://www.w3.org/2000/svg">
<path d="M51 101C78.6142 101 101 78.6142 101 51C101 23.3858 78.6142 1 51 1C23.3858 1 1 23.3858 1 51C1 78.6142 23.3858 101 51 101Z" stroke="#7893B0" stroke-width="1.5" stroke-linecap="round" stroke-linejoin="round"/>
<path d="M89.0366 48.0919C90.0011 49.7616 90.0011 52.4891 89.0366 54.1588L72.8373 82.2224C71.8728 83.8921 69.5083 85.2611 67.5793 85.2611H35.1807C33.2517 85.2611 30.8872 83.8921 29.9227 82.2224L13.7234 54.1588C12.7589 52.4891 12.7589 49.7616 13.7234 48.0919L29.9227 20.0387C30.8872 18.369 33.2517 17 35.1807 17H67.5793C69.5083 17 71.8728 18.369 72.8373 20.0387L89.0366 48.1022V48.0919ZM51.3904 30.254L33.1273 40.6871V61.5636L51.3904 71.9967L69.6327 61.5636V40.6974L51.3904 30.2643V30.254ZM51.3904 67.361L64.6755 59.8524L59.7078 56.9901L52.386 61.3355V51.7528L60.4441 46.9718V55.3411L65.7229 58.3901V42.9998L52.2408 35.3668V41.0189L59.6456 45.3021L51.3385 50.0831L43.0522 45.3021L50.4363 41.0189V35.4187L37.0163 43.0101V58.3798L42.3159 55.31V46.9822L50.374 51.7632V61.3458L43.0107 56.9797L38.0534 59.8421L51.38 67.3713L51.3904 67.361Z" fill="#7993B0"/>
</svg>
