 <svg
          width="81"
          height="70"
          viewBox="0 0 81 70"
          fill="none"
          xmlns="http://www.w3.org/2000/svg"
        >
          <path
            d="M62.5877 4.02516C61.5971 2.3638 59.1633 1 57.1821 1H23.8264C21.8452 1 19.4114 2.3638 18.4208 4.02516L1.74295 31.979C0.752351 33.6403 0.752351 36.3597 1.74295 38.021L18.4208 65.9748C19.4114 67.6362 21.8452 69 23.8264 69H57.1736C59.1548 69 61.5886 67.6362 62.5792 65.9748L79.2571 38.021C80.2477 36.3597 80.2477 33.6403 79.2571 31.979L62.5877 4.02516Z"
            stroke='#7894B0'
            strokeWidth="1.5"
            strokeMiterlimit="10"
            strokeLinecap="round"
            strokeLinejoin="round"
          />
          <path
            d="M50.9382 30.6984L41.2227 35.856V23.0628L50.9382 19.5684V30.6984Z"
            fill="#7894B0"
          />
          <path
            d="M29.9602 30.6984L39.6757 35.856V23.0628L29.9602 19.5684V30.6984Z"
            fill="#7894B0"
          />
          <path
            d="M51.2356 17.864L40.5001 14L29.7646 17.864L40.5001 21.7196L51.2356 17.864Z"
            fill="#7894B0"
          />
          <path
            d="M39.1313 50.8423L29.4158 55.9999V43.2067L39.1313 39.7207V50.8423Z"
            fill="#7894B0"
          />
          <path
            d="M18.1533 50.8423L27.8688 55.9999V43.2067L18.1533 39.7207V50.8423Z"
            fill="#7894B0"
          />
          <path
            d="M39.429 38.0066L28.6935 34.1426L17.958 38.0066L28.6935 41.8622L39.429 38.0066Z"
            fill="#7894B0"
          />
          <path
            d="M62.7358 50.8423L53.0288 55.9999V43.2067L62.7358 39.7207V50.8423Z"
            fill="#7894B0"
          />
          <path
            d="M41.7664 50.8423L51.4734 55.9999V43.2067L41.7664 39.7207V50.8423Z"
            fill="#7894B0"
          />
          <path
            d="M63.042 38.0066L52.3065 34.1426L41.571 38.0066L52.3065 41.8622L63.042 38.0066Z"
            fill="#7894B0"
          />
          <path
            d="M62.5877 4.02516C61.5971 2.3638 59.1633 1 57.1821 1H23.8264C21.8452 1 19.4114 2.3638 18.4208 4.02516L1.74295 31.979C0.752351 33.6403 0.752351 36.3597 1.74295 38.021L18.4208 65.9748C19.4114 67.6362 21.8452 69 23.8264 69H57.1736C59.1548 69 61.5886 67.6362 62.5792 65.9748L79.2571 38.021C80.2477 36.3597 80.2477 33.6403 79.2571 31.979L62.5877 4.02516Z"
            stroke='#7894B0'
            strokeWidth="1.5"
            strokeMiterlimit="10"
            strokeLinecap="round"
            strokeLinejoin="round"
          />
        </svg>