<svg width="102" height="102" viewBox="0 0 102 102" fill="none" xmlns="http://www.w3.org/2000/svg">
<path d="M51 101C78.6142 101 101 78.6142 101 51C101 23.3858 78.6142 1 51 1C23.3858 1 1 23.3858 1 51C1 78.6142 23.3858 101 51 101Z" stroke="#7893B0" stroke-width="1.5" stroke-linecap="round" stroke-linejoin="round"/>
<path d="M89.0366 48.0919C90.0011 49.7616 90.0011 52.4891 89.0366 54.1588L72.8373 82.2224C71.8728 83.8921 69.5083 85.2611 67.5793 85.2611H35.1807C33.2517 85.2611 30.8872 83.8921 29.9227 82.2224L13.7234 54.1588C12.7589 52.4891 12.7589 49.7616 13.7234 48.0919L29.9227 20.0387C30.8872 18.369 33.2517 17 35.1807 17H67.5793C69.5083 17 71.8728 18.369 72.8373 20.0387L89.0366 48.1022V48.0919ZM56.4825 35.5742L51.4837 37.3891V44.0472L56.4825 41.3612V35.5742ZM45.6968 41.3612L50.6955 44.0472V37.3891L45.6968 35.5742V41.3612ZM56.638 34.6823L51.1207 32.6704L45.6034 34.6823L51.1207 36.6943L56.638 34.6823ZM56.4825 48.0608L51.4837 49.8757V56.5338L56.4825 53.8477V48.0608ZM45.6968 53.8477L50.6955 56.5338V49.8757L45.6968 48.0608V53.8477ZM56.638 47.1689L51.1207 45.1569L45.6034 47.1689L51.1207 49.1808L56.638 47.1689ZM56.4825 61.0969L51.4837 62.9118V69.5699L56.4825 66.8839V61.0969ZM45.6968 66.8839L50.6955 69.5699V62.9118L45.6968 61.0969V66.8839ZM56.638 60.205L51.1207 58.1931L45.6034 60.205L51.1207 62.217L56.638 60.205ZM44.0167 42.3775L39.0179 44.1924V50.8505L44.0167 48.1645V42.3775ZM33.231 48.1645L38.2297 50.8505V44.1924L33.231 42.3775V48.1645ZM44.1722 41.4856L38.6549 39.4737L33.1376 41.4856L38.6549 43.4976L44.1722 41.4856ZM69.4772 42.3775L64.4784 44.1924V50.8505L69.4772 48.1645V42.3775ZM58.6915 48.1645L63.6902 50.8505V44.1924L58.6915 42.3775V48.1645ZM69.6327 41.4856L64.1154 39.4737L58.5981 41.4856L64.1154 43.4976L69.6327 41.4856ZM44.0167 55.6522L39.0179 57.4671V64.1252L44.0167 61.4392V55.6522ZM33.231 61.4392L38.2297 64.1252V57.4671L33.231 55.6522V61.4392ZM44.1722 54.7603L38.6549 52.7484L33.1376 54.7603L38.6549 56.7723L44.1722 54.7603ZM69.4772 55.6522L64.4784 57.4671V64.1252L69.4772 61.4392V55.6522ZM58.6915 61.4392L63.6902 64.1252V57.4671L58.6915 55.6522V61.4392ZM69.6327 54.7603L64.1154 52.7484L58.5981 54.7603L64.1154 56.7723L69.6327 54.7603Z" fill="#7993B0"/>
</svg>
