<svg width="100" height="100" viewBox="0 0 100 100" fill="none" xmlns="http://www.w3.org/2000/svg">
<g clip-path="url(#clip0_6024_21551)">
<path d="M75.86 12.5204C74.7 10.5104 71.85 8.86035 69.53 8.86035H30.47C28.15 8.86035 25.3 10.5104 24.14 12.5204L4.60999 46.3404C3.44999 48.3504 3.44999 51.6404 4.60999 53.6504L24.14 87.4704C25.3 89.4804 28.15 91.1303 30.47 91.1303H69.52C71.84 91.1303 74.69 89.4804 75.85 87.4704L95.38 53.6504C96.54 51.6404 96.54 48.3504 95.38 46.3404L75.86 12.5204Z" stroke="#7993B0" stroke-width="1.5" stroke-linecap="round" stroke-linejoin="round"/>
<path fill-rule="evenodd" clip-rule="evenodd" d="M43.52 33.7196L43.62 28.0596H37.06L27.23 44.4996L24 49.8796V49.9096L27.07 55.3796L36.45 72.2196L43.01 72.3096L43.1 66.6196L39.68 66.5496L31.84 52.7596L37.38 52.8196L37.4 50.5796H37.41L37.44 47.3196L31.9 47.2596L40.1 33.6896L43.52 33.7196Z" fill="#7993B0"/>
<path fill-rule="evenodd" clip-rule="evenodd" d="M75.01 50.5804L71.9001 45.1104L62.53 28.2504L55.84 28.1504L55.7801 33.8804L59.3 33.9404L67.14 47.7004L61.6301 47.6404L61.57 53.1404L67.07 53.2104L58.8801 66.8104L55.55 66.7804V72.4104H61.9501L71.78 55.9604L74.9701 50.6004L75.01 50.5804Z" fill="#7993B0"/>
<path d="M49.63 34.3C51.6458 34.3 53.28 32.6658 53.28 30.65C53.28 28.6342 51.6458 27 49.63 27C47.6141 27 45.98 28.6342 45.98 30.65C45.98 32.6658 47.6141 34.3 49.63 34.3Z" fill="#7993B0"/>
<path d="M49.12 73.4699C51.1358 73.4699 52.77 71.8358 52.77 69.8199C52.77 67.8041 51.1358 66.1699 49.12 66.1699C47.1041 66.1699 45.47 67.8041 45.47 69.8199C45.47 71.8358 47.1041 73.4699 49.12 73.4699Z" fill="#7993B0"/>
<path d="M43.0699 53.6896C45.0858 53.6896 46.7199 52.0555 46.7199 50.0396C46.7199 48.0238 45.0858 46.3896 43.0699 46.3896C41.0541 46.3896 39.4199 48.0238 39.4199 50.0396C39.4199 52.0555 41.0541 53.6896 43.0699 53.6896Z" fill="#7993B0"/>
<path d="M55.9 53.9797C57.9158 53.9797 59.55 52.3455 59.55 50.3297C59.55 48.3138 57.9158 46.6797 55.9 46.6797C53.8842 46.6797 52.25 48.3138 52.25 50.3297C52.25 52.3455 53.8842 53.9797 55.9 53.9797Z" fill="#7993B0"/>
</g>
<defs>
<clipPath id="clip0_6024_21551">
<rect width="100" height="100" fill="white"/>
</clipPath>
</defs>
</svg>
