<svg width="102" height="102" viewBox="0 0 102 102" fill="none" xmlns="http://www.w3.org/2000/svg">
<path d="M51 101C78.6142 101 101 78.6142 101 51C101 23.3858 78.6142 1 51 1C23.3858 1 1 23.3858 1 51C1 78.6142 23.3858 101 51 101Z" stroke="#7893B0" stroke-width="1.5" stroke-linecap="round" stroke-linejoin="round"/>
<g clip-path="url(#clip0_6024_21603)">
<path d="M71.6999 20.93C70.7699 19.32 68.4899 18 66.6399 18H35.3799C33.5199 18 31.2399 19.32 30.3199 20.93L14.6999 47.98C13.7699 49.59 13.7699 52.22 14.6999 53.83L30.3199 80.89C31.2499 82.5 33.5299 83.82 35.3799 83.82H66.6199C68.4799 83.82 70.7599 82.5 71.6799 80.89L87.2999 53.83C88.2299 52.22 88.2299 49.59 87.2999 47.98L71.6999 20.93ZM43.0899 37.86L36.5299 48.72L40.9599 48.77L40.9399 51.38L40.9199 53.17L36.4899 53.12L42.7599 64.15L45.4999 64.21L45.4299 68.76L40.1799 68.69L32.6799 55.22L30.2199 50.84V50.82L32.7999 46.52L40.6599 33.37H45.9099L45.8299 37.9L43.0899 37.88V37.86ZM70.9899 51.39L68.4399 55.68L60.5799 68.84H55.4599V64.34L58.1199 64.36L64.6699 53.48L60.2699 53.42L60.3199 49.02L64.7299 49.07L58.4599 38.06L55.6399 38.01L55.6899 33.43L61.0399 33.51L68.5399 47L71.0299 51.38L70.9999 51.4L70.9899 51.39ZM47.7999 35.43C47.7999 33.82 49.1099 32.51 50.7199 32.51C52.3299 32.51 53.6399 33.82 53.6399 35.43C53.6399 37.04 52.3299 38.35 50.7199 38.35C49.1099 38.35 47.7999 37.04 47.7999 35.43ZM47.3899 66.77C47.3899 65.16 48.6999 63.85 50.3099 63.85C51.9199 63.85 53.2299 65.16 53.2299 66.77C53.2299 68.38 51.9199 69.69 50.3099 69.69C48.6999 69.69 47.3899 68.38 47.3899 66.77ZM42.5499 50.95C42.5499 49.34 43.8599 48.03 45.4699 48.03C47.0799 48.03 48.3899 49.34 48.3899 50.95C48.3899 52.56 47.0799 53.87 45.4699 53.87C43.8599 53.87 42.5499 52.56 42.5499 50.95ZM52.8099 51.18C52.8099 49.57 54.1199 48.26 55.7299 48.26C57.3399 48.26 58.6499 49.57 58.6499 51.18C58.6499 52.79 57.3399 54.1 55.7299 54.1C54.1199 54.1 52.8099 52.79 52.8099 51.18Z" fill="#7993B0"/>
</g>
<defs>
<clipPath id="clip0_6024_21603">
<rect width="74.01" height="65.82" fill="white" transform="translate(14 18)"/>
</clipPath>
</defs>
</svg>
