<svg width="100" height="100" viewBox="0 0 100 100" fill="none" xmlns="http://www.w3.org/2000/svg">
<g clip-path="url(#clip0_4916_13074)">
<path d="M75.86 12.5204C74.7 10.5104 71.85 8.86035 69.53 8.86035H30.47C28.15 8.86035 25.3 10.5104 24.14 12.5204L4.60999 46.3404C3.44999 48.3504 3.44999 51.6404 4.60999 53.6504L24.14 87.4704C25.3 89.4804 28.15 91.1303 30.47 91.1303H69.52C71.84 91.1303 74.69 89.4804 75.85 87.4704L95.38 53.6504C96.54 51.6404 96.54 48.3504 95.38 46.3404L75.86 12.5204Z" stroke="#7993B0" stroke-width="1.5" stroke-linecap="round" stroke-linejoin="round"/>
<path d="M67.6024 50.0039H63.2048V58.8072H67.6024V50.0039Z" fill="#687E91"/>
<path d="M52.1988 50.0039H47.8013V58.8072H52.1988V50.0039Z" fill="#687E91"/>
<path d="M36.795 50.0039H32.3975V58.8072H36.795V50.0039Z" fill="#687E91"/>
<path d="M52.1988 47.8013H47.8013V38.998H52.1988V47.8013Z" fill="#576D7F"/>
<path d="M67.6024 47.8008H32.3975V52.1983H67.6024V47.8008Z" fill="#687E91"/>
<path d="M63.2048 28H36.8032V38.9979H63.2048V28Z" fill="#7993B0"/>
<path d="M63.2047 28H50.0039V38.9979H63.2047V28Z" fill="#687E91"/>
<path d="M72.0001 58.7988H58.7993V71.9996H72.0001V58.7988Z" fill="#7993B0"/>
<path d="M41.2008 58.7988H28V71.9996H41.2008V58.7988Z" fill="#7993B0"/>
<path d="M41.2007 58.7988H34.6003V71.9996H41.2007V58.7988Z" fill="#687E91"/>
<path d="M56.6044 58.7988H43.4036V71.9996H56.6044V58.7988Z" fill="#7993B0"/>
<path d="M56.6043 58.7988H50.0039V71.9996H56.6043V58.7988Z" fill="#687E91"/>
<path d="M72.0001 58.7988H65.3997V71.9996H72.0001V58.7988Z" fill="#687E91"/>
</g>
<defs>
<clipPath id="clip0_4916_13074">
<rect width="100" height="100" fill="white"/>
</clipPath>
</defs>
</svg>
