<svg width="100" height="100" viewBox="0 0 100 100" fill="none" xmlns="http://www.w3.org/2000/svg">
<g clip-path="url(#clip0_4916_12963)">
<path d="M75.86 12.5204C74.7 10.5104 71.85 8.86035 69.53 8.86035H30.47C28.15 8.86035 25.3 10.5104 24.14 12.5204L4.60999 46.3404C3.44999 48.3504 3.44999 51.6404 4.60999 53.6504L24.14 87.4704C25.3 89.4804 28.15 91.1303 30.47 91.1303H69.52C71.84 91.1303 74.69 89.4804 75.85 87.4704L95.38 53.6504C96.54 51.6404 96.54 48.3504 95.38 46.3404L75.86 12.5204Z" stroke="#7993B0" stroke-width="1.5" stroke-linecap="round" stroke-linejoin="round"/>
<path d="M35.3287 32.2695H28V37.9483H35.3287V32.2695Z" fill="#687E91"/>
<path d="M35.3287 42.1895H28V47.8682H35.3287V42.1895Z" fill="#687E91"/>
<path d="M35.3287 52.1309H28V57.8096H35.3287V52.1309Z" fill="#687E91"/>
<path d="M35.3287 62.0586H28V67.7373H35.3287V62.0586Z" fill="#687E91"/>
<path d="M72.0001 32.2695H64.6714V37.9483H72.0001V32.2695Z" fill="#687E91"/>
<path d="M72.0001 42.1895H64.6714V47.8682H72.0001V42.1895Z" fill="#687E91"/>
<path d="M72.0001 52.1309H64.6714V57.8096H72.0001V52.1309Z" fill="#687E91"/>
<path d="M72.0001 62.0586H64.6714V67.7373H72.0001V62.0586Z" fill="#687E91"/>
<path fill-rule="evenodd" clip-rule="evenodd" d="M70.5289 37.9414H64.6714V32.2695L70.5289 37.9414Z" fill="#576D7F"/>
<path fill-rule="evenodd" clip-rule="evenodd" d="M70.5289 47.8682H64.6714V42.1895L70.5289 47.8682Z" fill="#576D7F"/>
<path fill-rule="evenodd" clip-rule="evenodd" d="M70.5289 57.8096H64.6714V52.1309L70.5289 57.8096Z" fill="#576D7F"/>
<path fill-rule="evenodd" clip-rule="evenodd" d="M70.5289 67.7511H64.6714V62.0586L70.5289 67.7511Z" fill="#576D7F"/>
<path fill-rule="evenodd" clip-rule="evenodd" d="M35.3286 72H64.6711V28H35.3286V72ZM48.5286 52.2H41.1999L51.4711 35.1706V47.8H58.7999L48.5286 64.8294V52.2Z" fill="#7993B0"/>
<path fill-rule="evenodd" clip-rule="evenodd" d="M48.5288 72V64.8912L58.8001 47.8687H51.4713V28H64.6713V72H48.5288Z" fill="#687E91"/>
</g>
<defs>
<clipPath id="clip0_4916_12963">
<rect width="100" height="100" fill="white"/>
</clipPath>
</defs>
</svg>
