<svg width="95" height="84" viewBox="0 0 95 84" fill="none" xmlns="http://www.w3.org/2000/svg">
<path d="M73.86 4.52035C72.7 2.51035 69.85 0.860352 67.53 0.860352H28.47C26.15 0.860352 23.3 2.51035 22.14 4.52035L2.60999 38.3404C1.44999 40.3504 1.44999 43.6404 2.60999 45.6504L22.14 79.4704C23.3 81.4804 26.15 83.1303 28.47 83.1303H67.52C69.84 83.1303 72.69 81.4804 73.85 79.4704L93.38 45.6504C94.54 43.6404 94.54 40.3504 93.38 38.3404L73.86 4.52035Z" stroke="#7993B0" stroke-width="1.5" stroke-linecap="round" stroke-linejoin="round"/>
<path d="M30.4 42.0004C30.4 34.7104 36.31 28.8004 43.6 28.8004V24.4004C33.88 24.4004 26 32.2804 26 42.0004C26 51.7204 33.88 59.6004 43.6 59.6004V55.2004C36.31 55.2004 30.4 49.2904 30.4 42.0004Z" fill="#7993B0"/>
<path d="M39.2001 42.0002C39.2001 39.5702 41.17 37.6002 43.6 37.6002V33.2002C38.74 33.2002 34.8 37.1402 34.8 42.0002C34.8 46.8602 38.74 50.8002 43.6 50.8002V46.4002C41.17 46.4002 39.2001 44.4302 39.2001 42.0002Z" fill="#7993B0"/>
<path d="M48.0001 42.0006C48.0001 39.5706 46.0301 37.6006 43.6001 37.6006V46.4006C46.0301 46.4006 48.0001 44.4306 48.0001 42.0006Z" fill="#7993B0"/>
<path d="M67.5001 36.5805C65.2101 36.5805 63.2601 38.0005 62.4701 40.0005H56.6301C56.2501 37.5005 55.1701 35.2305 53.6001 33.4005L56.9201 29.5205C57.4701 29.7105 58.0601 29.8205 58.6801 29.8205C61.6701 29.8205 64.1001 27.3905 64.1001 24.4005C64.1001 21.4105 61.6701 18.9805 58.6801 18.9805C55.6901 18.9805 53.2601 21.4105 53.2601 24.4005C53.2601 25.3105 53.4901 26.1705 53.8801 26.9205L50.5601 30.8005C48.5401 29.5405 46.1601 28.8005 43.6001 28.8005V33.2005C48.4601 33.2005 52.4001 37.1405 52.4001 42.0005C52.4001 46.8605 48.4601 50.8005 43.6001 50.8005V55.2005C46.1601 55.2005 48.5401 54.4605 50.5601 53.2005L53.6601 56.8105C53.4001 57.4405 53.2601 58.1305 53.2601 58.8505C53.2601 61.8405 55.6901 64.2705 58.6801 64.2705C61.6701 64.2705 64.1001 61.8405 64.1001 58.8505C64.1001 55.8605 61.6701 53.4305 58.6801 53.4305C57.8801 53.4305 57.1301 53.6105 56.4501 53.9205L53.6101 50.6005C55.1901 48.7705 56.2601 46.5005 56.6401 44.0005H62.4801C63.2801 46.0005 65.2301 47.4205 67.5101 47.4205C70.5001 47.4205 72.9301 44.9905 72.9301 42.0005C72.9301 39.0105 70.5001 36.5805 67.5101 36.5805H67.5001Z" fill="#7993B0"/>
</svg>
