<svg width="102" height="102" viewBox="0 0 102 102" fill="none" xmlns="http://www.w3.org/2000/svg">
<path d="M51 101C78.6142 101 101 78.6142 101 51C101 23.3858 78.6142 1 51 1C23.3858 1 1 23.3858 1 51C1 78.6142 23.3858 101 51 101Z" stroke="#7893B0" stroke-width="1.5" stroke-linecap="round" stroke-linejoin="round"/>
<path d="M87.3199 47.98C88.2499 49.59 88.2499 52.22 87.3199 53.83L71.6999 80.89C70.7699 82.5 68.4899 83.82 66.6299 83.82H35.3899C33.5299 83.82 31.2499 82.5 30.3199 80.89L14.6999 53.83C13.7699 52.22 13.7699 49.59 14.6999 47.98L30.3199 20.93C31.2499 19.32 33.5299 18 35.3899 18H66.6299C68.4899 18 70.7699 19.32 71.6999 20.93L87.3199 47.99V47.98ZM36.9299 50.91C36.9299 45.08 41.6599 40.35 47.4899 40.35V36.83C39.7099 36.83 33.4099 43.13 33.4099 50.91C33.4099 58.69 39.7099 64.99 47.4899 64.99V61.47C41.6599 61.47 36.9299 56.74 36.9299 50.91ZM43.9699 50.91C43.9699 48.97 45.5499 47.39 47.4899 47.39V43.87C43.5999 43.87 40.4499 47.02 40.4499 50.91C40.4499 54.8 43.5999 57.95 47.4899 57.95V54.43C45.5499 54.43 43.9699 52.85 43.9699 50.91ZM51.0099 50.91C51.0099 48.97 49.4299 47.39 47.4899 47.39V54.43C49.4299 54.43 51.0099 52.85 51.0099 50.91ZM66.6099 46.57C64.7799 46.57 63.2199 47.7 62.5799 49.31H57.9099C57.6099 47.31 56.7499 45.5 55.4799 44.03L58.1399 40.93C58.5799 41.08 59.0499 41.17 59.5399 41.17C61.9299 41.17 63.8799 39.23 63.8799 36.83C63.8799 34.43 61.9399 32.49 59.5399 32.49C57.1399 32.49 55.1999 34.43 55.1999 36.83C55.1999 37.56 55.3799 38.25 55.6999 38.85L53.0399 41.95C51.4199 40.94 49.5199 40.35 47.4699 40.35V43.87C51.3599 43.87 54.5099 47.02 54.5099 50.91C54.5099 54.8 51.3599 57.95 47.4699 57.95V61.47C49.5199 61.47 51.4199 60.88 53.0399 59.87L55.5199 62.76C55.3099 63.26 55.1999 63.81 55.1999 64.39C55.1999 66.78 57.1399 68.73 59.5399 68.73C61.9399 68.73 63.8799 66.79 63.8799 64.39C63.8799 61.99 61.9399 60.05 59.5399 60.05C58.8999 60.05 58.2999 60.19 57.7499 60.44L55.4699 57.78C56.7299 56.31 57.5899 54.5 57.8999 52.5H62.5699C63.2099 54.1 64.7699 55.24 66.5999 55.24C68.9899 55.24 70.9399 53.3 70.9399 50.9C70.9399 48.5 68.9999 46.56 66.5999 46.56L66.6099 46.57Z" fill="#7993B0"/>
</svg>
