<svg width="100" height="100" viewBox="0 0 100 100" fill="none" xmlns="http://www.w3.org/2000/svg">
<g clip-path="url(#clip0_4916_13103)">
<path d="M75.86 12.5204C74.7 10.5104 71.85 8.86035 69.53 8.86035H30.47C28.15 8.86035 25.3 10.5104 24.14 12.5204L4.60999 46.3404C3.44999 48.3504 3.44999 51.6404 4.60999 53.6504L24.14 87.4704C25.3 89.4804 28.15 91.1303 30.47 91.1303H69.52C71.84 91.1303 74.69 89.4804 75.85 87.4704L95.38 53.6504C96.54 51.6404 96.54 48.3504 95.38 46.3404L75.86 12.5204Z" stroke="#7993B0" stroke-width="1.5" stroke-linecap="round" stroke-linejoin="round"/>
<path d="M57.2805 48.1738V51.8262H67.1783V48.1738H57.2805V48.1738Z" fill="#687E91"/>
<path d="M45.3124 36.5566H39.0188V40.2296H47.6647C47.0044 38.9296 46.2134 37.6984 45.3124 36.5566V36.5566Z" fill="#687E91"/>
<path d="M47.8231 59.7637H40.3464V63.4366H45.3813C46.3099 62.288 47.1284 61.0637 47.8231 59.7637V59.7637Z" fill="#687E91"/>
<path d="M50.0241 49.9966C50.0584 49.3913 50.0584 48.7791 50.0241 48.1738H33.5232V51.8262H50.0241C50.0584 51.2209 50.0584 50.6087 50.0241 50.0034V49.9966Z" fill="#687E91"/>
<path d="M31.6937 51.0555C31.109 51.0692 30.6276 50.6015 30.6138 50.0237C30.6001 49.4391 31.0678 48.9576 31.6455 48.9439C32.2302 48.9301 32.7117 49.3978 32.7254 49.9756C32.7254 49.9825 32.7254 49.9894 32.7254 49.9962C32.7254 50.574 32.2646 51.0417 31.6937 51.0555ZM31.6937 46.3233C29.6646 46.3164 28.0138 47.9465 28.0001 49.9756C27.9863 52.0047 29.6233 53.6623 31.6524 53.6692C33.6815 53.683 35.3392 52.0459 35.346 50.0169C35.346 50.01 35.346 50.0031 35.346 49.9962C35.346 47.974 33.7159 46.337 31.6937 46.3233V46.3233Z" fill="#7993B0"/>
<path d="M37.1961 62.6452C36.6115 62.659 36.13 62.1913 36.1163 61.6135C36.1025 61.0288 36.5702 60.5474 37.148 60.5336C37.7326 60.5199 38.2141 60.9876 38.2279 61.5653C38.2279 61.5722 38.2279 61.5791 38.2279 61.586C38.2416 62.1569 37.7877 62.6315 37.2168 62.6383C37.2099 62.6383 37.203 62.6383 37.1961 62.6383V62.6452ZM37.1961 57.9405C35.1671 57.9268 33.5094 59.5638 33.5025 61.5929C33.4888 63.6219 35.1258 65.2796 37.1549 65.2865C39.1839 65.3002 40.8416 63.6632 40.8485 61.6341C40.8485 61.6204 40.8485 61.6066 40.8485 61.5929C40.8347 59.5775 39.2115 57.9543 37.1961 57.9405V57.9405Z" fill="#7993B0"/>
<path d="M37.1963 39.4387C36.6116 39.4525 36.1301 38.9848 36.1164 38.407C36.1026 37.8292 36.5704 37.3409 37.1481 37.3271C37.7259 37.3133 38.2143 37.7811 38.228 38.3588C38.228 38.3726 38.228 38.3863 38.228 38.4001C38.228 38.971 37.7672 39.4318 37.1963 39.4318V39.4387ZM37.1963 34.734C35.1741 34.5758 33.4064 36.089 33.2482 38.1112C33.09 40.1334 34.6032 41.9011 36.6254 42.0593C36.8111 42.0731 37.0037 42.0731 37.1963 42.0593C39.2185 41.9011 40.7317 40.1334 40.5735 38.1112C40.4359 36.3091 38.9984 34.8716 37.1963 34.734V34.734Z" fill="#7993B0"/>
<path d="M64.6953 55.4993V44.501L72.0206 49.9967L64.6953 55.4993Z" fill="#687E91"/>
<path d="M44.5215 72L42.63 68.6985C48.4352 64.2345 51.84 57.3219 51.8468 49.9966C51.7849 42.6781 48.3802 35.793 42.6094 31.2947L44.5215 28C51.441 33.1999 55.5129 41.3438 55.5198 49.9966C55.5336 58.6562 51.4548 66.8138 44.5215 71.9931V72Z" fill="#687E91"/>
</g>
<defs>
<clipPath id="clip0_4916_13103">
<rect width="100" height="100" fill="white"/>
</clipPath>
</defs>
</svg>
