<svg width="100" height="100" viewBox="0 0 100 100" fill="none" xmlns="http://www.w3.org/2000/svg">
<g clip-path="url(#clip0_4916_12852)">
<path d="M75.86 12.5204C74.7 10.5104 71.85 8.86035 69.53 8.86035H30.47C28.15 8.86035 25.3 10.5104 24.14 12.5204L4.60999 46.3404C3.44999 48.3504 3.44999 51.6404 4.60999 53.6504L24.14 87.4704C25.3 89.4804 28.15 91.1303 30.47 91.1303H69.52C71.84 91.1303 74.69 89.4804 75.85 87.4704L95.38 53.6504C96.54 51.6404 96.54 48.3504 95.38 46.3404L75.86 12.5204Z" stroke="#7993B0" stroke-width="1.5" stroke-linecap="round" stroke-linejoin="round"/>
<g clip-path="url(#clip1_4916_12852)">
<path d="M58.1813 53.3379V62.5004H34V70.0004H65.6813V53.3379H58.1813Z" fill="#576D7F"/>
<path d="M41.5 46.6625V37.5H65.6813V30H34V46.6625H41.5Z" fill="#7993B0"/>
<path d="M45.6813 41.6621V50.8371H34V58.3371H54V49.1621H65.6813V41.6621H45.6813Z" fill="#687E91"/>
</g>
</g>
<defs>
<clipPath id="clip0_4916_12852">
<rect width="100" height="100" fill="white"/>
</clipPath>
<clipPath id="clip1_4916_12852">
<rect width="31.6813" height="40" fill="white" transform="translate(34 30)"/>
</clipPath>
</defs>
</svg>
