 <svg
          width="100"
          height="100"
          viewBox="0 0 100 100"
          fill="none"
          xmlns="http://www.w3.org/2000/svg"
        >
          <path
            d="M75.8602 12.5199C74.7002 10.5099 71.8502 8.85986 69.5302 8.85986H30.4702C28.1502 8.85986 25.3002 10.5099 24.1402 12.5199L4.61023 46.3399C3.45023 48.3499 3.45023 51.6399 4.61023 53.6499L24.1402 87.4699C25.3002 89.4799 28.1502 91.1299 30.4702 91.1299H69.5202C71.8402 91.1299 74.6902 89.4799 75.8502 87.4699L95.3802 53.6499C96.5402 51.6399 96.5402 48.3499 95.3802 46.3399L75.8602 12.5199Z"
            stroke='#7894B0'
            strokeWidth="1.5"
            strokeMiterlimit="10"
            strokeLinecap="round"
            strokeLinejoin="round"
          />
          <path
            d="M33.5 50C33.5 40.89 40.89 33.5 50 33.5V28C37.85 28 28 37.85 28 50C28 62.15 37.85 72 50 72V66.5C40.89 66.5 33.5 59.11 33.5 50Z"
            fill="#7894B0"
          />
          <path
            d="M44.5 50C44.5 46.96 46.96 44.5 50 44.5V39C43.92 39 39 43.92 39 50C39 56.08 43.92 61 50 61V55.5C46.96 55.5 44.5 53.04 44.5 50Z"
            fill="#7894B0"
          />
          <path
            d="M61 50C61 56.08 56.08 61 50 61V66.5C59.11 66.5 66.5 59.11 66.5 50C66.5 40.89 59.11 33.5 50 33.5V39C56.08 39 61 43.92 61 50Z"
            fill="#7894B0"
          />
          <path
            d="M55.5 50C55.5 46.96 53.04 44.5 50 44.5V55.5C53.04 55.5 55.5 53.04 55.5 50Z"
            fill="#7894B0"
          />
        </svg>