<svg width="102" height="102" viewBox="0 0 102 102" fill="none" xmlns="http://www.w3.org/2000/svg">
<path d="M51 101C78.6142 101 101 78.6142 101 51C101 23.3858 78.6142 1 51 1C23.3858 1 1 23.3858 1 51C1 78.6142 23.3858 101 51 101Z" stroke="#7893B0" stroke-width="1.5" stroke-linecap="round" stroke-linejoin="round"/>
<g clip-path="url(#clip0_3525_26809)">
<path d="M71.4799 20.97C70.5399 19.34 68.2299 18 66.3499 18H34.6699C32.7899 18 30.4799 19.34 29.5399 20.97L13.7099 48.39C12.7699 50.02 12.7699 52.69 13.7099 54.32L29.5499 81.74C30.4899 83.37 32.7999 84.71 34.6799 84.71H66.3399C68.2199 84.71 70.5299 83.37 71.4699 81.74L87.3099 54.32C88.2499 52.69 88.2499 50.02 87.3099 48.39L71.4799 20.97ZM50.5099 64.74V69.2C40.6599 69.2 32.6699 61.21 32.6699 51.36C32.6699 41.51 40.6599 33.52 50.5099 33.52V37.98C43.1199 37.98 37.1299 43.97 37.1299 51.36C37.1299 58.75 43.1199 64.74 50.5099 64.74ZM50.5099 55.82V60.28C45.5799 60.28 41.5899 56.29 41.5899 51.36C41.5899 46.43 45.5799 42.44 50.5099 42.44V46.9C48.0499 46.9 46.0499 48.89 46.0499 51.36C46.0499 53.83 48.0399 55.82 50.5099 55.82ZM50.5099 42.44V37.98C57.8999 37.98 63.8899 43.97 63.8899 51.36C63.8899 58.75 57.8999 64.74 50.5099 64.74V60.28C55.4399 60.28 59.4299 56.29 59.4299 51.36C59.4299 46.43 55.4399 42.44 50.5099 42.44ZM50.5099 55.82V46.9C52.9699 46.9 54.9699 48.89 54.9699 51.36C54.9699 53.83 52.9799 55.82 50.5099 55.82Z" fill="#7993B0"/>
</g>
<defs>
<clipPath id="clip0_3525_26809">
<rect width="75.01" height="66.71" fill="white" transform="translate(13 18)"/>
</clipPath>
</defs>
</svg>
