<svg width="100" height="100" viewBox="0 0 100 100" fill="none" xmlns="http://www.w3.org/2000/svg">
<g clip-path="url(#clip0_4916_13133)">
<path d="M75.86 12.5204C74.7 10.5104 71.85 8.86035 69.53 8.86035H30.47C28.15 8.86035 25.3 10.5104 24.14 12.5204L4.60999 46.3404C3.44999 48.3504 3.44999 51.6404 4.60999 53.6504L24.14 87.4704C25.3 89.4804 28.15 91.1303 30.47 91.1303H69.52C71.84 91.1303 74.69 89.4804 75.85 87.4704L95.38 53.6504C96.54 51.6404 96.54 48.3504 95.38 46.3404L75.86 12.5204Z" stroke="#7993B0" stroke-width="1.5" stroke-linecap="round" stroke-linejoin="round"/>
<path d="M65.4 54.4V61L54.4 50L65.4 39V45.6H72V54.4H65.4V54.4ZM34.6 45.6H28V54.4H34.6V61L45.6 50L34.6 39V45.6ZM54.4 61V54.4H45.6V61H39L50 72L61 61H54.4ZM54.4 39V45.6H45.6V39H39L50 28L61 39H54.4Z" fill="#7993B0"/>
</g>
<defs>
<clipPath id="clip0_4916_13133">
<rect width="100" height="100" fill="white"/>
</clipPath>
</defs>
</svg>
