<svg width="100" height="100" viewBox="0 0 100 100" fill="none" xmlns="http://www.w3.org/2000/svg">
<g clip-path="url(#clip0_4922_13510)">
<path d="M75.86 12.5204C74.7 10.5104 71.85 8.86035 69.53 8.86035H30.47C28.15 8.86035 25.3 10.5104 24.14 12.5204L4.60999 46.3404C3.44999 48.3504 3.44999 51.6404 4.60999 53.6504L24.14 87.4704C25.3 89.4804 28.15 91.1303 30.47 91.1303H69.52C71.84 91.1303 74.69 89.4804 75.85 87.4704L95.38 53.6504C96.54 51.6404 96.54 48.3504 95.38 46.3404L75.86 12.5204Z" stroke="#7993B0" stroke-width="1.5" stroke-linecap="round" stroke-linejoin="round"/>
<path d="M72 37V63.1525H63.2825C63.0556 63.1525 62.87 62.9669 62.87 62.74V60.2512C62.87 60.0244 63.0556 59.8388 63.2825 59.8388H68.6794V40.3206H63.2825C63.0556 40.3206 62.87 40.135 62.87 39.9081V37.4125C62.87 37.1856 63.0556 37 63.2825 37H72ZM37.4806 37C37.7075 37 37.8931 37.1856 37.8931 37.4125V39.9012C37.8931 40.1281 37.7075 40.3138 37.4806 40.3138H31.3206V59.825H37.4462C37.6731 59.825 37.8588 60.0106 37.8588 60.2375V62.7262C37.8588 62.9531 37.6731 63.1388 37.4462 63.1388H28V37H37.4806ZM61.9419 45.5113V48.715L62.0725 48.77L65.0425 47.7181L65.6612 49.5194L62.6637 50.5438L62.5812 50.7569L64.6437 53.5275L63.09 54.655L61.0825 51.8844H60.8969L58.8894 54.655L57.3356 53.5275L59.3706 50.7569L59.3156 50.5438L56.3181 49.5194L56.9369 47.7181L59.8794 48.77L60.0375 48.715V45.5113H61.935H61.9419ZM39.4331 45.5113V48.6806L39.5637 48.7356L42.5337 47.6975L43.1525 49.485L40.155 50.4956L40.0725 50.7088L42.135 53.4519L40.5812 54.5725L38.5738 51.8294H38.3881L36.3806 54.5725L34.8269 53.4519L36.8619 50.7088L36.8069 50.4956L33.8094 49.485L34.4281 47.6975L37.3706 48.7356L37.5287 48.6806V45.5113H39.4263H39.4331ZM50.6394 45.5113V48.6806L50.77 48.7356L53.74 47.6975L54.3588 49.485L51.3612 50.4956L51.2788 50.7088L53.3413 53.4519L51.7875 54.5725L49.78 51.8294H49.5944L47.5869 54.5725L46.0331 53.4519L48.0681 50.7088L48.0131 50.4956L45.0156 49.485L45.6344 47.6975L48.5769 48.7356L48.735 48.6806V45.5113H50.6325H50.6394Z" fill="#687E91"/>
</g>
<defs>
<clipPath id="clip0_4922_13510">
<rect width="100" height="100" fill="white"/>
</clipPath>
</defs>
</svg>
