<svg width="95" height="84" viewBox="0 0 95 84" fill="none" xmlns="http://www.w3.org/2000/svg">
<path d="M73.86 4.52035C72.7 2.51035 69.85 0.860352 67.53 0.860352H28.47C26.15 0.860352 23.3 2.51035 22.14 4.52035L2.60999 38.3404C1.44999 40.3504 1.44999 43.6404 2.60999 45.6504L22.14 79.4704C23.3 81.4804 26.15 83.1303 28.47 83.1303H67.52C69.84 83.1303 72.69 81.4804 73.85 79.4704L93.38 45.6504C94.54 43.6404 94.54 40.3504 93.38 38.3404L73.86 4.52035Z" stroke="#7993B0" stroke-width="1.5" stroke-linecap="round" stroke-linejoin="round"/>
<path d="M40.2 37.6201C37.77 37.6201 35.8 39.5901 35.8 42.0201C35.8 44.4501 37.77 46.4201 40.2 46.4201C42.63 46.4201 44.6 44.4501 44.6 42.0201C44.6 39.5901 42.63 37.6201 40.2 37.6201V37.6201Z" fill="#7993B0"/>
<path d="M64.1 36.6C61.81 36.6 59.86 38.02 59.07 40.02H53.23C52.85 37.52 51.77 35.25 50.2 33.42L53.52 29.54C54.07 29.73 54.66 29.84 55.28 29.84C58.27 29.84 60.7 27.41 60.7 24.42C60.7 21.43 58.27 19 55.28 19C52.29 19 49.86 21.43 49.86 24.42C49.86 25.33 50.09 26.19 50.48 26.94L47.16 30.82C45.14 29.56 42.76 28.82 40.2 28.82C32.91 28.82 27 34.73 27 42.02C27 49.31 32.91 55.22 40.2 55.22C42.76 55.22 45.14 54.48 47.16 53.22L50.26 56.83C50 57.46 49.86 58.15 49.86 58.87C49.86 61.86 52.29 64.29 55.28 64.29C58.27 64.29 60.7 61.86 60.7 58.87C60.7 55.88 58.27 53.45 55.28 53.45C54.48 53.45 53.73 53.63 53.05 53.94L50.21 50.62C51.79 48.79 52.86 46.52 53.24 44.02H59.08C59.88 46.02 61.83 47.44 64.11 47.44C67.1 47.44 69.53 45.01 69.53 42.02C69.53 39.03 67.1 36.6 64.11 36.6H64.1ZM40.2 50.82C35.34 50.82 31.4 46.88 31.4 42.02C31.4 37.16 35.34 33.22 40.2 33.22C45.06 33.22 49 37.16 49 42.02C49 46.88 45.06 50.82 40.2 50.82Z" fill="#7993B0"/>
</svg>
