<svg width="100" height="100" viewBox="0 0 100 100" fill="none" xmlns="http://www.w3.org/2000/svg">
<g clip-path="url(#clip0_6024_21573)">
<path d="M75.86 12.5204C74.7 10.5104 71.85 8.86035 69.53 8.86035H30.47C28.15 8.86035 25.3 10.5104 24.14 12.5204L4.60999 46.3404C3.44999 48.3504 3.44999 51.6404 4.60999 53.6504L24.14 87.4704C25.3 89.4804 28.15 91.1303 30.47 91.1303H69.52C71.84 91.1303 74.69 89.4804 75.85 87.4704L95.38 53.6504C96.54 51.6404 96.54 48.3504 95.38 46.3404L75.86 12.5204Z" stroke="#7993B0" stroke-width="1.5" stroke-linecap="round" stroke-linejoin="round"/>
<g clip-path="url(#clip1_6024_21573)">
<path d="M58.382 68.8545H38.2227L54.9867 35.3338H41.618V31.1465H61.7773L45.0133 64.6672H58.382V68.8545Z" fill="#687E91"/>
<path d="M58.382 72.0003C61.2738 72.0003 63.618 69.6561 63.618 66.7643C63.618 63.8726 61.2738 61.5283 58.382 61.5283C55.4902 61.5283 53.146 63.8726 53.146 66.7643C53.146 69.6561 55.4902 72.0003 58.382 72.0003Z" fill="#7993B0"/>
<path d="M41.618 72.0003C44.5098 72.0003 46.854 69.6561 46.854 66.7643C46.854 63.8726 44.5098 61.5283 41.618 61.5283C38.7263 61.5283 36.382 63.8726 36.382 66.7643C36.382 69.6561 38.7263 72.0003 41.618 72.0003Z" fill="#7993B0"/>
<path d="M66.7567 47.9023H33.236V52.0897H66.7567V47.9023Z" fill="#687E91"/>
<path d="M50 55.2357C52.8917 55.2357 55.236 52.8914 55.236 49.9997C55.236 47.1079 52.8917 44.7637 50 44.7637C47.1082 44.7637 44.764 47.1079 44.764 49.9997C44.764 52.8914 47.1082 55.2357 50 55.2357Z" fill="#7993B0"/>
<path d="M33.236 55.2357C36.1278 55.2357 38.472 52.8914 38.472 49.9997C38.472 47.1079 36.1278 44.7637 33.236 44.7637C30.3442 44.7637 28 47.1079 28 49.9997C28 52.8914 30.3442 55.2357 33.236 55.2357Z" fill="#7993B0"/>
<path d="M66.764 55.2357C69.6558 55.2357 72 52.8914 72 49.9997C72 47.1079 69.6558 44.7637 66.764 44.7637C63.8723 44.7637 61.528 47.1079 61.528 49.9997C61.528 52.8914 63.8723 55.2357 66.764 55.2357Z" fill="#7993B0"/>
<path d="M58.382 38.472C61.2738 38.472 63.618 36.1278 63.618 33.236C63.618 30.3442 61.2738 28 58.382 28C55.4902 28 53.146 30.3442 53.146 33.236C53.146 36.1278 55.4902 38.472 58.382 38.472Z" fill="#7993B0"/>
<path d="M41.618 38.472C44.5098 38.472 46.854 36.1278 46.854 33.236C46.854 30.3442 44.5098 28 41.618 28C38.7263 28 36.382 30.3442 36.382 33.236C36.382 36.1278 38.7263 38.472 41.618 38.472Z" fill="#7993B0"/>
</g>
</g>
<defs>
<clipPath id="clip0_6024_21573">
<rect width="100" height="100" fill="white"/>
</clipPath>
<clipPath id="clip1_6024_21573">
<rect width="44" height="44" fill="white" transform="translate(28 28)"/>
</clipPath>
</defs>
</svg>
