<svg width="102" height="102" viewBox="0 0 102 102" fill="none" xmlns="http://www.w3.org/2000/svg">
<path d="M51 101C78.6142 101 101 78.6142 101 51C101 23.3858 78.6142 1 51 1C23.3858 1 1 23.3858 1 51C1 78.6142 23.3858 101 51 101Z" stroke="#7893B0" stroke-width="1.5" stroke-linecap="round" stroke-linejoin="round"/>
<g clip-path="url(#clip0_6024_21595)">
<path d="M71.7 20.93C70.77 19.32 68.49 18 66.64 18H35.38C33.52 18 31.24 19.32 30.32 20.93L14.7 47.98C13.77 49.59 13.77 52.22 14.7 53.83L30.32 80.89C31.25 82.5 33.53 83.82 35.38 83.82H66.62C68.48 83.82 70.76 82.5 71.68 80.89L87.3 53.83C88.23 52.22 88.23 49.59 87.3 47.98L71.7 20.93ZM68.61 50.91C68.61 53.22 66.73 55.1 64.42 55.1C62.7 55.1 61.23 54.06 60.58 52.58H54.84C54.19 54.06 52.72 55.1 51 55.1C50.93 55.1 50.86 55.08 50.79 55.08L47.5 61.66C47.75 61.96 47.97 62.28 48.13 62.65H53.87C54.52 61.17 55.99 60.14 57.7 60.14C60.01 60.14 61.89 62.02 61.89 64.33C61.89 66.64 60.01 68.52 57.7 68.52C55.98 68.52 54.51 67.48 53.86 66H48.12C47.47 67.48 46 68.52 44.28 68.52C41.97 68.52 40.09 66.64 40.09 64.33C40.09 62.02 41.97 60.14 44.28 60.14C44.35 60.14 44.42 60.16 44.48 60.16L47.77 53.58C47.52 53.28 47.3 52.95 47.14 52.59H41.4C40.75 54.07 39.28 55.11 37.56 55.11C35.25 55.11 33.37 53.23 33.37 50.92C33.37 48.61 35.25 46.73 37.56 46.73C39.28 46.73 40.75 47.76 41.39 49.24H47.13C47.78 47.76 49.25 46.73 50.96 46.73C51.03 46.73 51.1 46.75 51.17 46.75L54.46 40.17C54.21 39.87 53.99 39.55 53.83 39.19H48.09C47.44 40.67 45.97 41.7 44.26 41.7C41.95 41.7 40.07 39.82 40.07 37.51C40.07 35.2 41.95 33.32 44.26 33.32C45.98 33.32 47.45 34.36 48.1 35.84H53.84C54.49 34.36 55.96 33.32 57.68 33.32C59.99 33.32 61.87 35.2 61.87 37.51C61.87 39.82 59.99 41.7 57.68 41.7C57.61 41.7 57.54 41.68 57.48 41.68L54.19 48.26C54.44 48.56 54.66 48.88 54.81 49.24H60.55C61.2 47.76 62.67 46.73 64.38 46.73C66.69 46.73 68.57 48.61 68.57 50.92L68.61 50.91Z" fill="#7993B0"/>
</g>
<defs>
<clipPath id="clip0_6024_21595">
<rect width="74.01" height="65.82" fill="white" transform="translate(14 18)"/>
</clipPath>
</defs>
</svg>
