<svg width="100" height="100" viewBox="0 0 100 100" fill="none" xmlns="http://www.w3.org/2000/svg">
<g clip-path="url(#clip0_7131_23524)">
<path d="M75.86 12.5204C74.7 10.5104 71.85 8.86035 69.53 8.86035H30.47C28.15 8.86035 25.3 10.5104 24.14 12.5204L4.60999 46.3404C3.44999 48.3504 3.44999 51.6404 4.60999 53.6504L24.14 87.4704C25.3 89.4804 28.15 91.1303 30.47 91.1303H69.52C71.84 91.1303 74.69 89.4804 75.85 87.4704L95.38 53.6504C96.54 51.6404 96.54 48.3504 95.38 46.3404L75.86 12.5204Z" stroke="#7993B0" stroke-width="1.5" stroke-linecap="round" stroke-linejoin="round"/>
<rect x="50.0512" y="19.4142" width="28.0172" height="28.0172" transform="rotate(44.4989 50.0512 19.4142)" fill="#0C253D" stroke="#7993B0" stroke-width="2"/>
<rect x="50.0512" y="40.4142" width="28.0172" height="28.0172" transform="rotate(44.4989 50.0512 40.4142)" fill="#0C253D" stroke="#7993B0" stroke-width="2"/>
<line x1="50.5" y1="41" x2="50.5" y2="20" stroke="#7993B0"/>
<line x1="50.5" y1="79" x2="50.5" y2="61" stroke="#7993B0"/>
<path d="M50.5 58L53.5311 64H47.4689L50.5 58Z" fill="#7993B0"/>
</g>
<defs>
<clipPath id="clip0_7131_23524">
<rect width="100" height="100" fill="white"/>
</clipPath>
</defs>
</svg>
