<svg width="100" height="100" viewBox="0 0 100 100" fill="none" xmlns="http://www.w3.org/2000/svg">
<g clip-path="url(#clip0_5640_18950)">
<path d="M75.86 12.5204C74.7 10.5104 71.85 8.86035 69.53 8.86035H30.47C28.15 8.86035 25.3 10.5104 24.14 12.5204L4.60999 46.3404C3.44999 48.3504 3.44999 51.6404 4.60999 53.6504L24.14 87.4704C25.3 89.4804 28.15 91.1303 30.47 91.1303H69.52C71.84 91.1303 74.69 89.4804 75.85 87.4704L95.38 53.6504C96.54 51.6404 96.54 48.3504 95.38 46.3404L75.86 12.5204Z" stroke="#7993B0" stroke-width="1.5" stroke-linecap="round" stroke-linejoin="round"/>
<g clip-path="url(#clip1_5640_18950)">
<path d="M46.4049 56.9277V60.3649L40.7316 54.6916L46.4049 49.0184V52.4556H48.2159V46.653H40.7409V42.1809H48.2251V30.3447L32 36.4245V48.695C32 58.9512 38.9114 68.5698 48.2251 70.9999V56.9277H46.4141H46.4049Z" fill="#7993B0"/>
<path d="M64.0991 46.0894C58.3981 46.0894 53.7875 41.4695 53.7875 35.7777C53.7875 34.6782 53.963 33.6156 54.2864 32.6177L48.2251 30.3447V42.1809H50.0823V38.7437L55.7555 44.417L50.0823 50.0902V46.653H48.2251V52.4556H55.7463V56.9277H48.2251V70.8983C57.5296 68.5698 64.4502 58.9512 64.4502 48.695V46.0709C64.3393 46.0709 64.2192 46.0894 64.1083 46.0894H64.0991Z" fill="#576D7F"/>
<path d="M72.8769 35.7778C72.8769 40.6287 68.95 44.5556 64.0991 44.5556C59.2482 44.5556 55.3213 40.6287 55.3213 35.7778C55.3213 30.9269 59.2482 27 64.0991 27C68.95 27 72.8769 30.9269 72.8769 35.7778ZM64.0991 30.0307C60.9299 30.0307 58.3519 32.5993 58.3519 35.7778C58.3519 38.9563 60.9206 41.525 64.0991 41.525C67.2776 41.525 69.8463 38.9563 69.8463 35.7778C69.8463 32.5993 67.2776 30.0307 64.0991 30.0307Z" fill="#576D7F"/>
<path d="M64.0991 39.5388C66.176 39.5388 67.8597 37.8551 67.8597 35.7782C67.8597 33.7013 66.176 32.0176 64.0991 32.0176C62.0222 32.0176 60.3385 33.7013 60.3385 35.7782C60.3385 37.8551 62.0222 39.5388 64.0991 39.5388Z" fill="#576D7F"/>
</g>
</g>
<defs>
<clipPath id="clip0_5640_18950">
<rect width="100" height="100" fill="white"/>
</clipPath>
<clipPath id="clip1_5640_18950">
<rect width="40.8769" height="44" fill="white" transform="translate(32 27)"/>
</clipPath>
</defs>
</svg>
