<svg width="102" height="102" viewBox="0 0 102 102" fill="none" xmlns="http://www.w3.org/2000/svg">
<g clip-path="url(#clip0_7124_23515)">
<path d="M51 101C78.6142 101 101 78.6142 101 51C101 23.3858 78.6142 1 51 1C23.3858 1 1 23.3858 1 51C1 78.6142 23.3858 101 51 101Z" stroke="#7893B0" stroke-width="1.5" stroke-linecap="round" stroke-linejoin="round"/>
<path d="M46.9249 62.0499H57.6249V58.4799H61.1949V47.2699C60.7449 47.4199 60.2649 47.4999 59.7749 47.4999C58.4949 47.4999 57.2649 46.9599 56.3949 46.0199C54.9549 44.4599 53.8449 42.6099 53.0949 40.6299H43.3649V44.1999H39.7949V58.4699H43.3649V62.0399H46.9349L46.9249 62.0499Z" fill="#7893B0"/>
<path d="M87.285 48.38L83.465 41.77C82.745 43.32 81.795 44.77 80.635 46.03C79.795 46.96 78.555 47.51 77.255 47.51C76.715 47.51 76.175 47.41 75.665 47.23C75.345 49.04 73.955 50.54 72.115 50.94C70.955 51.2 69.735 51.33 68.505 51.33C67.275 51.33 66.055 51.2 64.875 50.93C64.835 50.93 64.795 50.9 64.755 50.89V58.48H68.325V69.18H57.625V65.61H43.355V69.18H32.655V58.48H36.225V44.21H32.655V33.51H43.355V37.08H52.725C52.975 36.21 53.475 35.42 54.185 34.83C52.785 33.66 52.185 31.71 52.745 29.92C53.465 27.6 54.725 25.42 56.385 23.63C57.235 22.7 58.475 22.15 59.765 22.15C60.305 22.15 60.845 22.25 61.345 22.43C61.665 20.62 63.065 19.12 64.895 18.72C65.925 18.49 67.005 18.38 68.085 18.35C67.485 18.14 66.885 18 66.315 18H34.665C32.785 18 30.475 19.33 29.525 20.96L13.705 48.38C12.765 50.01 12.765 52.68 13.705 54.31L29.535 81.73C30.475 83.36 32.785 84.69 34.675 84.69H66.335C68.215 84.69 70.525 83.36 71.475 81.73L87.305 54.31C88.245 52.68 88.245 50.01 87.305 48.38H87.285Z" fill="#7893B0"/>
<path d="M68.5051 22.3203C69.4151 22.3203 70.3451 22.4203 71.2551 22.6203C71.5351 22.6803 71.7251 22.9303 71.7251 23.2103V25.6903C72.8451 26.0803 73.8851 26.6803 74.7951 27.4603L76.9451 26.2203C77.0351 26.1703 77.1451 26.1403 77.2451 26.1403C77.4151 26.1403 77.5751 26.2103 77.6951 26.3403C78.9451 27.6903 79.8951 29.3103 80.4551 31.1103C80.5351 31.3803 80.4251 31.6703 80.1751 31.8203L78.0251 33.0603C78.2451 34.2303 78.2451 35.4303 78.0251 36.6003L80.1751 37.8403C80.4251 37.9803 80.5351 38.2703 80.4551 38.5503C79.8951 40.3503 78.9451 41.9703 77.6951 43.3203C77.5751 43.4503 77.4151 43.5203 77.2551 43.5203C77.1551 43.5203 77.0451 43.4903 76.9551 43.4403L74.8051 42.2003C73.8951 42.9703 72.8551 43.5703 71.7351 43.9703V46.4503C71.7351 46.7303 71.5351 46.9803 71.2651 47.0403C70.3751 47.2403 69.4451 47.3403 68.5151 47.3403C67.5851 47.3403 66.6751 47.2403 65.7651 47.0403C65.4851 46.9803 65.2951 46.7303 65.2951 46.4503V43.9703C64.1751 43.5803 63.1351 42.9803 62.2351 42.2003L60.0851 43.4403C59.9951 43.4903 59.8851 43.5203 59.7851 43.5203C59.6151 43.5203 59.4551 43.4503 59.3351 43.3203C58.0851 41.9703 57.1351 40.3503 56.5751 38.5503C56.4951 38.2803 56.6051 37.9903 56.8551 37.8403L59.0051 36.6003C58.7851 35.4303 58.7851 34.2303 59.0051 33.0603L56.8551 31.8203C56.6051 31.6803 56.4951 31.3903 56.5751 31.1103C57.1351 29.3103 58.0851 27.6903 59.3351 26.3403C59.4551 26.2103 59.6151 26.1403 59.7751 26.1403C59.8751 26.1403 59.9851 26.1703 60.0751 26.2203L62.2151 27.4603C63.1251 26.6903 64.1651 26.0903 65.2851 25.6903V23.2103C65.2851 22.9303 65.4851 22.6803 65.7551 22.6203C66.6451 22.4203 67.5751 22.3203 68.5051 22.3203ZM68.5051 38.8503C70.7251 38.8503 72.5351 37.0403 72.5351 34.8203C72.5351 32.6003 70.7251 30.7903 68.5051 30.7903C66.2851 30.7903 64.4751 32.6003 64.4751 34.8203C64.4751 37.0403 66.2851 38.8503 68.5051 38.8503Z" fill="#29ABE2"/>
</g>
<defs>
<clipPath id="clip0_7124_23515">
<rect width="102" height="102" fill="white"/>
</clipPath>
</defs>
</svg>
