<svg width="102" height="102" viewBox="0 0 102 102" fill="none" xmlns="http://www.w3.org/2000/svg">
<path d="M51 101C78.6142 101 101 78.6142 101 51C101 23.3858 78.6142 1 51 1C23.3858 1 1 23.3858 1 51C1 78.6142 23.3858 101 51 101Z" stroke="#7893B0" stroke-width="1.5" stroke-linecap="round" stroke-linejoin="round"/>
<path d="M89.0366 48.0919C90.0011 49.7616 90.0011 52.4891 89.0366 54.1588L72.8373 82.2224C71.8728 83.8921 69.5083 85.2611 67.5793 85.2611H35.1807C33.2517 85.2611 30.8872 83.8921 29.9227 82.2224L13.7234 54.1588C12.7589 52.4891 12.7589 49.7616 13.7234 48.0919L29.9227 20.0387C30.8872 18.369 33.2517 17 35.1807 17H67.5793C69.5083 17 71.8728 18.369 72.8373 20.0387L89.0366 48.1022V48.0919ZM69.1246 41.9108L52.6141 47.9156V69.9226L69.1246 61.0555V41.9212V41.9108ZM33.4591 61.0658L49.9696 69.9329V47.9259L33.4591 41.9212V61.0658ZM69.6327 38.9759L51.38 32.3385L33.1273 38.9759L51.38 45.6132L69.6327 38.9759Z" fill="#7993B0"/>
</svg>
