 <svg
          width="95"
          height="84"
          viewBox="0 0 95 84"
          fill="none"
          xmlns="http://www.w3.org/2000/svg"
        >
          <path
            d="M73.8602 4.51986C72.7002 2.50986 69.8502 0.859863 67.5302 0.859863H28.4702C26.1502 0.859863 23.3002 2.50986 22.1402 4.51986L2.61023 38.3399C1.45023 40.3499 1.45023 43.6399 2.61023 45.6499L22.1402 79.4699C23.3002 81.4799 26.1502 83.1299 28.4702 83.1299H67.5202C69.8402 83.1299 72.6902 81.4799 73.8502 79.4699L93.3802 45.6499C94.5402 43.6399 94.5402 40.3499 93.3802 38.3399L73.8602 4.51986Z"
            stroke='#7894B0'
            strokeWidth="1.5"
            strokeMiterlimit="10"
            strokeLinecap="round"
            strokeLinejoin="round"
          />
          <path
            d="M69.38 53.9699L49.48 64.6599V38.1399L69.38 30.8999V53.9699Z"
            fill="#7894B0"
          />
          <path
            d="M26.3999 53.9699L46.2999 64.6599V38.1399L26.3999 30.8999V53.9699Z"
            fill="#7894B0"
          />
          <path
            d="M70 27.3498L48 19.3398L26 27.3498L48 35.3498L70 27.3498Z"
            fill="#7894B0"
          />
        </svg>