<svg width="95" height="84" viewBox="0 0 95 84" fill="none" xmlns="http://www.w3.org/2000/svg">
<path d="M73.86 4.52035C72.7 2.51035 69.85 0.860352 67.53 0.860352H28.47C26.15 0.860352 23.3 2.51035 22.14 4.52035L2.60999 38.3404C1.44999 40.3504 1.44999 43.6404 2.60999 45.6504L22.14 79.4704C23.3 81.4804 26.15 83.1303 28.47 83.1303H67.52C69.84 83.1303 72.69 81.4804 73.85 79.4704L93.38 45.6504C94.54 43.6404 94.54 40.3504 93.38 38.3404L73.86 4.52035Z" stroke="#7993B0" stroke-width="1.5" stroke-linecap="round" stroke-linejoin="round"/>
<path fill-rule="evenodd" clip-rule="evenodd" d="M48.0001 30.8604C45.0101 30.8604 42.5801 33.2903 42.5801 36.2803C42.5801 39.2703 45.0101 41.7004 48.0001 41.7004C50.9901 41.7004 53.4201 39.2703 53.4201 36.2803C53.4201 33.2903 50.9901 30.8604 48.0001 30.8604Z" fill="#7993B0"/>
<path fill-rule="evenodd" clip-rule="evenodd" d="M64.4201 36.42C64.4201 45.49 48.0001 64 48.0001 64C48.0001 64 31.5801 45.49 31.5801 36.42C31.5801 27.35 38.9301 20 48.0001 20C57.0701 20 64.4201 27.35 64.4201 36.42ZM59.8601 36.64C59.8601 30.1 54.5401 24.78 48.0001 24.78C41.4601 24.78 36.1401 30.1 36.1401 36.64C36.1401 40.87 42.3901 50.16 48.0001 57.05C53.6201 50.15 59.8601 40.86 59.8601 36.64Z" fill="#7993B0"/>
</svg>
