<svg width="102" height="102" viewBox="0 0 102 102" fill="none" xmlns="http://www.w3.org/2000/svg">
<path d="M51 101C78.6142 101 101 78.6142 101 51C101 23.3858 78.6142 1 51 1C23.3858 1 1 23.3858 1 51C1 78.6142 23.3858 101 51 101Z" stroke="#7893B0" stroke-width="1.5" stroke-linecap="round" stroke-linejoin="round"/>
<g clip-path="url(#clip0_3624_9104)">
<path d="M87.3199 47.98C88.2499 49.59 88.2499 52.22 87.3199 53.83L71.6999 80.89C70.7699 82.5 68.4899 83.82 66.6299 83.82H35.3899C33.5299 83.82 31.2499 82.5 30.3199 80.89L14.6999 53.83C13.7699 52.22 13.7699 49.59 14.6999 47.98L30.3199 20.93C31.2499 19.32 33.5299 18 35.3899 18H66.6299C68.4899 18 70.7699 19.32 71.6999 20.93L87.3199 47.99V47.98ZM51.0099 42C48.6199 42 46.6699 43.94 46.6699 46.34C46.6699 48.74 48.6099 50.68 51.0099 50.68C53.4099 50.68 55.3499 48.74 55.3499 46.34C55.3499 43.94 53.4099 42 51.0099 42ZM51.0099 33.31C43.7499 33.31 37.8699 39.19 37.8699 46.45C37.8699 53.71 51.0099 68.51 51.0099 68.51C51.0099 68.51 64.1499 53.71 64.1499 46.45C64.1499 39.19 58.2699 33.31 51.0099 33.31V33.31ZM51.0099 62.96C46.5199 57.44 41.5199 50.01 41.5199 46.63C41.5199 41.4 45.7799 37.14 51.0099 37.14C56.2399 37.14 60.4999 41.4 60.4999 46.63C60.4999 50.01 55.4999 57.44 51.0099 62.96Z" fill="#7993B0"/>
</g>
<defs>
<clipPath id="clip0_3624_9104">
<rect width="74.02" height="65.82" fill="white" transform="translate(14 18)"/>
</clipPath>
</defs>
</svg>
