<svg width="102" height="102" viewBox="0 0 102 102" fill="none" xmlns="http://www.w3.org/2000/svg">
<path d="M51 101C78.6142 101 101 78.6142 101 51C101 23.3858 78.6142 1 51 1C23.3858 1 1 23.3858 1 51C1 78.6142 23.3858 101 51 101Z" stroke="#7893B0" stroke-width="1.5" stroke-linecap="round" stroke-linejoin="round"/>
<path d="M30.6626 61.917L41.4241 57.0381V61.4233L35.7225 63.9245L41.4241 66.3516V70.7368L30.6626 65.9155V61.917V61.917Z" fill="#7993B0"/>
<path d="M43.3083 71.7245L48.2366 52.8096H52.3668L47.4385 71.7245H43.3083V71.7245Z" fill="#7993B0"/>
<path d="M65.004 65.8667L54.2424 70.7456V66.3604L59.9441 63.8592L54.2424 61.4321V57.0469L65.004 61.8682V65.8667Z" fill="#7993B0"/>
<path d="M72.4501 38.7167L67.7851 43.612V76.9991H26.8288V33.9694H56.6616L62.2974 28.564L60.874 27.1406H25.463C22.4518 27.1406 20 29.5842 20 32.6037V78.3566C20 81.3678 22.4436 83.8196 25.463 83.8196H69.1509C72.1621 83.8196 74.6139 81.3761 74.6139 78.3566V40.8723L72.4501 38.7084V38.7167Z" fill="#7993B0"/>
<path d="M82.2818 18L60.4296 21.8751L67.1762 28.6217L50.3428 44.7475L56.2995 50.7042L72.3924 33.8296L79.8876 41.3249L82.2818 18Z" fill="#7993B0"/>
</svg>
