<svg enable-background="new 0 0 700 350" height="350" viewBox="0 0 700 350" width="700" xmlns="http://www.w3.org/2000/svg"><path d="m184.4 51.8h419.6v38.9h-419.6z" fill="#2e4358"/><path d="m184.4 84.8v229.1h54 365.6v-184.1-45z" fill="#1b3349"/><ellipse cx="246.6" cy="67.6" fill="#243b50" rx="6" ry="6" transform="matrix(.2662 -.9639 .9639 .2662 115.8082 287.2356)"/><ellipse cx="225.9" cy="67.6" fill="#76c9ec" rx="6" ry="6" transform="matrix(.2306 -.973 .973 .2306 108.0621 271.778)"/><ellipse cx="205.2" cy="67.6" fill="#a9b3bd" rx="6" ry="6" transform="matrix(.7071 -.7071 .7071 .7071 12.3408 164.9024)"/><g fill="#58697a"><path d="m211.8 290.8h155.9v3.6h-155.9z"/><path d="m211.8 279.2h155.9v3.6h-155.9z"/><path d="m211.8 267.7h155.9v3.6h-155.9z"/><path d="m211.8 256.2h155.9v3.6h-155.9z"/><path d="m211.8 244.7h155.9v3.6h-155.9z"/></g><path d="m211.8 103.6h155.9v51.4h-155.9z" fill="#6b7a89"/><path d="m420.8 149.7h155.9v3.6h-155.9z" fill="#58697a"/><path d="m420.8 194.7h155.9v99.6h-155.9z" fill="#6b7a89"/><path d="m420.8 138.2h155.9v3.6h-155.9z" fill="#58697a"/><path d="m420.8 126.7h155.9v3.6h-155.9z" fill="#58697a"/><path d="m420.8 115.2h155.9v3.6h-155.9z" fill="#58697a"/><path d="m420.8 103.6h155.9v3.6h-155.9z" fill="#58697a"/><path d="m510.7.7c-37.7.6-76.6 1-116.5 1-39.8 0-78.8-.3-116.5-1-.5 9.9-.8 19.9-.8 30.1 0 63.3 23 121.3 48.7 166.3 4.7-2 9.7-3.2 14.7-3.6 14.7-1.1 29.9 4.3 43.9-.1 15.4-4.8 24.9-20.1 30.9-35.1 2.9-7.3 5.7-15.3 12.3-19.6 9.6-6.2 22.5-1.6 33.6-4.3 15.5-3.8 24.5-20.8 39.4-26.3 6.7-24.4 10.9-50.4 10.9-77.3.2-10.2-.1-20.2-.6-30.1z" fill="#112941"/><path d="m427.5 138.7c-6.6 4.3-9.4 12.3-12.3 19.6-6 15-15.5 30.3-30.9 35.1-14 4.4-29.2-1-43.9.1-5.1.4-10.1 1.6-14.7 3.6 32.2 56.5 68.6 92.5 68.6 92.5s77.2-76.3 106.3-181.5c-14.8 5.5-23.9 22.5-39.4 26.3-11.1 2.7-24.1-2-33.7 4.3z" fill="#76c9ec"/><circle cx="394.2" cy="117.8" fill="#5c6c7d" r="12.7"/><path d="m394.2 114.2-15 49.9h30z" fill="#5c6c7d"/><path d="m35.8 143.6h204.8v99h-204.8z" fill="#2e4358"/><path d="m203.2 237.1 13.4 35.1v-35.1z" fill="#2e4358"/><path d="m70.4 167.7h135.6v18.6h-135.6z" fill="#fff"/><path d="m70.4 199.9h135.6v18.6h-135.6z" fill="#fff"/><path d="m627.4 151.4c24.6-4.7 40.7-28.4 36-52.9-4.7-24.6-28.4-40.7-52.9-36-24.6 4.7-40.7 28.4-36 52.9 4.6 24.6 28.3 40.7 52.9 36zm15-58.2c4.9-.9 9.7 2.3 10.6 7.2s-2.3 9.7-7.2 10.6-9.7-2.3-10.6-7.2c-1-4.9 2.3-9.6 7.2-10.6z" fill="#a0abb6"/><path d="m562.3 100.9 16.9-3.2c1.2-.2 2.3.5 2.5 1.7l5.4 28.3c.2 1.2-.5 2.3-1.7 2.5l-16.9 3.2c-1.2.2-2.3-.5-2.5-1.7l-5.4-28.3c-.2-1.2.6-2.3 1.7-2.5z" fill="#a0abb6"/><path d="m450.6 150 14.7-2.8-.4-2.3c-.4-2.4 1.1-4.6 3.5-5.1s4.6 1.1 5.1 3.5l.4 2.3 20.6-3.9-.4-2.3c-.4-2.4 1.1-4.6 3.5-5.1 2.4-.4 4.6 1.1 5.1 3.5l.4 2.3 7.1-1.3-.4-2.3c-.4-2.4 1.1-4.6 3.5-5.1 2.4-.4 4.6 1.1 5.1 3.5l.4 2.3 15.6-3-.4-2.3c-.4-2.4 1.1-4.6 3.5-5.1 2.4-.4 4.6 1.1 5.1 3.5l.4 2.3 43.7-8.3-4-21.3-135.9 25.8-16.1 7.7z" fill="#a0abb6"/><path d="m432 137.5 122.7-23.3c1.7-.3 3.3.8 3.6 2.5.2.8 0 1.7-.5 2.3-.4.7-1.1 1.1-2 1.3l-116.6 22.2z" fill="#b3bcc5"/><path d="m561 193.1c3.6 2.6 5.4-.7 5.5-.8 1-.8.8-3.4-.3-4.6l-25.9-25.3c-.4-.4-2.7-.2-3.2.1-.2.1-.3.3-.3.4-.7 1.2.9 3.4 1.7 4.6 3.9 5.7 17.8 22.2 22.5 25.6z" fill="#a9bbcc"/><path d="m532.2 138.9c-1.3.1-2.5-.4-3.4-1.3-2.2-2.4-6.2-7.1-5.9-9.1.3-2.7 8.5 3.9 10 10.4z" fill="#f5ded1"/><path d="m529.1 137.8c.9 7.5 5.4 23.5 7.7 27.7 1.9 3.5 4 2.3 4.1 2.2 1.2-.3 2.3-2.3 1.8-3.7l-10.1-27.2z" fill="#a9bbcc"/><path d="m552.7 293.1c-.5-2-1.4-3.1-3.1-3.5-1.9-.4-3.7.9-4 2.7l-8.8 52.3c-.1.8.4 1.6 1.2 1.8s1.6-.3 1.8-1.2l.5-2.2c10.3-34.9 13.8-42.8 12.4-49.9z" fill="#f5ded1"/><path d="m561.9 245.7c-.8-6.3-4.1-7.6-6.3-7.7-.2 0-.3-.1-.5-.1-1.9-.3-3.6 1.1-3.8 2.9l-6 52.7c-.1.8.5 1.6 1.3 1.7.3 0 .5 0 .8-.1 1.9-.4 3.5-1.8 4.1-3.7 3.1-9.9 11.5-37.5 10.4-45.7z" fill="#ebc0a7"/><path d="m574 292.4c-1.4-1.5-2.7-2-4.4-1.5-1.8.6-2.8 2.5-2.1 4.3l17.9 50c.3.8 1.1 1.2 1.9 1 .8-.3 1.2-1.1 1-1.9l-.6-2.2c-8.3-35.6-9-44.2-13.7-49.7z" fill="#f5ded1"/><path d="m570.5 244.2c-2.5-5.8-6-6.2-8.2-5.7-.2 0-.3 0-.5 0-1.9.2-3.2 2-2.9 3.9l8.5 52.4c.1.8.9 1.4 1.7 1.3.3 0 .5-.1.7-.3 1.8-.9 2.9-2.7 3-4.7.4-10.5.9-39.3-2.3-46.9z" fill="#ebc0a7"/><path d="m586.3 344.9c-1.1 0-2.1-.2-2.7-.4-4 .6-12.1 2.4-11.8 4.4.1.7 15.9.3 17 .1.8-.1.5-2.4.2-3.7-.1-.4-.4-.6-.8-.5-.6.1-1.2.1-1.9.1z" fill="#30455a"/><path d="m538.2 344.9c-1.1 0-2.1-.2-2.7-.4-4 .6-12.1 2.4-11.8 4.4.1.7 15.9.3 17 .1.8-.1.5-2.4.2-3.7-.1-.4-.4-.6-.8-.5-.6.1-1.2.1-1.9.1z" fill="#30455a"/><path d="m565.8 235.9s-3.5 26.1-12.9 54.7c0 0 4.7 11-10.4 46.8h-5.7s7.9-45.6 8.2-49.3c.3-3.8 5.3-51.5 6.3-54z" fill="#3b4f62"/><path d="m571.2 235.3s3.5 17.3 2.8 55.3c0 0 8.5 9.1 13.5 46.5l-6 .3s-15.4-42.1-15.7-44-10.4-59.4-10.4-59.4z" fill="#3b4f62"/><path d="m573 229.8c.1-1.3.2-2.7.3-4 .1-.9.1-1.8.1-2.6.1-2 .2-3.9.3-5.9 0-.9.1-1.9.1-2.7.1-2.1.1-4.4.2-6.4 0-.9.1-1.8.1-2.4-.1-3.8 0-7.5-.3-11.1-.2-2.1 0-3.1-.7-5.2-2.1-6.3-7.4-8.7-13.4-4.8-.3.2-.8.6-1.1.8-2.3 2.6-4.1 4-3.8 8.1.4 4.4-.7 10.6-1.5 15.4 0 .3-.2 1.4-.2 2.1-.1.9-.3 2.1-.4 3.2-.2 1.5-.4 3.3-.6 4.9-.1 1-.2 2.1-.4 3.2-.2 1.9-.4 3.8-.7 5.7-.1.5-.1 1.1-.2 1.6-.1.4-.1.8-.2 1.2-.1 1-.3 2-.4 2.9-.1.8-.3 1.6-.4 2.4-.2 1.1-.4 2.1-.7 3.2 2.4.5 4.7.5 7.1 0 4-.7 7.7-1.9 11.8-1.7 1.3.1 2.6.4 3.9.7.3-2 .5-4.1.7-6.1.3-.9.4-1.7.4-2.5z" fill="#a9bbcc"/><path d="m555.6 167.7c.2-.5.7-.9 1-1.4s.3-1.2.6-1.6 1-.6 1.4-1 .6-1 1.1-1.3 1.1-.3 1.6-.5.9-.8 1.5-.9c.5-.2 1.2.1 1.7 0 .6-.1 1.1-.4 1.7-.4s1.1.4 1.6.5 1.2-.1 1.7.1.9.7 1.4 1 1.2.3 1.6.6.6 1 1 1.4 1 .6 1.3 1.1.3 1.1.5 1.6.8.9.9 1.5c.2.5-.1 1.2 0 1.7.1.6.4 1.1.4 1.7s-.4 1.1-.5 1.6.1 1.2-.1 1.7-.7.9-1 1.4-.3 1.2-.6 1.6-1 .6-1.4 1-.6 1-1.1 1.3-1.1.3-1.6.5-.9.8-1.5.9c-.5.2-1.2-.1-1.7 0-.6.1-1.1.4-1.7.4s-1.1-.4-1.6-.5-1.2.1-1.7-.1-.9-.7-1.4-1-1.2-.3-1.6-.6-.6-1-1-1.4-1-.6-1.3-1.1-.3-1.1-.5-1.6-.8-.9-.9-1.5c-.2-.5.1-1.2 0-1.7-.1-.6-.4-1.1-.4-1.7s.4-1.1.5-1.6-.1-1.1.1-1.7z" fill="#23394f"/><path d="m554.2 179.3s-.2-2.5 1.5-4.2c1.6-1.7 1.6.8 1.6.8z" fill="#23394f"/><path d="m569.7 178.7c-.2.2-3 3.8-3.7 3.6-1-.2.3-3.3.3-3.3z" fill="#23394f"/><path d="m558.7 169.5s-.3-2.3.9-3.6c1.2-1.1 3-2.2 8 .5.7.4 1 1.2.8 2l-.7 2.2z" fill="#23394f"/><path d="m567.5 176.7c-1.5 3-2.9 5.4-5.4 6.1-.9.2-1.9.4-2.9.2-.7-.1-1.4-.4-2.1-.8-1.9-1.1-2.5-2.4-2.4-4.1.1-1.9 1.1-4.1 2.4-6.6 2.3-4.7 5.9-6 8.8-4.6 2.8 1.4 4 5 1.6 9.8z" fill="#f5ded1"/><path d="m568.4 175.9-5.5-.9c-.1.8-1.1 7.9-1 10.6.2.8 1.5 1.3 3 1 1.4-.2 2.4-1 2.5-1.8-.1-1.5.6-6.3 1-8.9z" fill="#f5ded1"/><path d="m569.4 179s-1.5 0-2.2-1.6c-.9-2-1.2-5.7-1-7.3.3-2.8 1.3-3.3 1.3-3.3s4.9 2.1 5.5 4.1c.7 3-3.6 8.1-3.6 8.1z" fill="#23394f"/><path d="m567 173.5-3.4 6.9c-.4.7-1.1 1.2-1.9 1.1h-.9c-.6 0-1-.6-.8-1.1l.4-1.5c.1-.3-.1-.7-.4-.9l-3-1.8c-.3-.2-.7-.1-1 .1l-1 1.1c-1 1.1-.8 2.9.4 3.8l1.8 1.2c.4.3.8.4 1.3.5h.1.1.7l2.4.1c1.4.1 2.8-.7 3.4-2l3.4-6.9z" fill="#23394f"/><path d="m569.6 177.8c-.5 1-2.2 1.9-2.9 1.5s-.5-1.3 0-2.3 1.6-1.7 2.3-1.3c.7.3 1.1 1.1.6 2.1z" fill="#f5ded1"/><path d="m567 169.1-3.1-1.5c-1-.5-2.2-.6-3.3-.3l-1.5.4 2.8-2.2 2.9.3 3 1.7z" fill="#23394f"/><path d="m569.6 193.6c-4.4.2-4.1-3.6-4.1-3.7-.4-1.3 1.2-3.3 2.8-3.7l35.6-6.8c.6-.2.8.8 1 1.3.1.2.1.4 0 .6 0 1.4-1.1 2.8-2.4 3.4-6.4 3.4-27.1 8.7-32.9 8.9z" fill="#a9bbcc"/><path d="m563.7 189.6c-1.7 11.2 3 20.9 0 32.5-1.4 1.2-3 2.4-4.5 3.5-1-1.8-1.9-3.5-2.7-5.3 4.5-11 2-20.4 5-30.9.7 0 1.4.1 2.2.2z" fill="#72818e"/><path d="m612.6 155.8c1.1.6 2.5.6 3.6 0 2.9-1.5 8.3-4.4 8.8-6.3.7-2.7-9.3.6-13.1 6z" fill="#f5ded1"/><path d="m615.2 156.3c-1.8 7.3-8 22.7-10.8 26.6-2.3 3.2-4.2 1.8-4.3 1.8-1.2-.4-2-2.5-1.4-3.9l13.2-25.9z" fill="#a9bbcc"/><path d="m317.7 54.3c-1.5 3.2-4.5 5.3-7.8 5.6-.5 2.7-.6 5.5-.3 8.1 3.2.6 6.1 2.9 7.3 6.2s.5 6.9-1.5 9.5c1.6 2.2 3.4 4.2 5.5 6 2.7-1.9 6.3-2.3 9.6-.8 3.2 1.5 5.3 4.5 5.6 7.8 2.7.5 5.5.6 8.1.3.6-3.2 2.9-6.1 6.2-7.3s6.9-.5 9.5 1.5c2.2-1.6 4.2-3.4 6-5.5-1.9-2.7-2.3-6.3-.8-9.6 1.5-3.2 4.5-5.3 7.8-5.6.5-2.7.6-5.5.3-8.1-3.2-.6-6.1-2.9-7.3-6.2s-.5-6.9 1.5-9.5c-1.6-2.2-3.4-4.2-5.5-6-2.7 1.9-6.3 2.3-9.6.8-3.2-1.5-5.3-4.5-5.6-7.8-2.7-.5-5.5-.6-8.1-.3-.6 3.2-2.9 6.1-6.2 7.3s-6.9.5-9.5-1.5c-2.2 1.6-4.2 3.4-6 5.5 1.9 2.8 2.3 6.4.8 9.6zm31-4.7c8.7 4 12.4 14.2 8.5 22.9-4 8.7-14.2 12.4-22.9 8.5-8.7-4-12.4-14.2-8.5-22.9 4-8.7 14.2-12.5 22.9-8.5z" fill="#506273"/><path d="m371 211.7c4.6 0 8.3-3.7 8.3-8.3 0 4.6 3.7 8.3 8.3 8.3-4.6 0-8.3 3.7-8.3 8.3.1-4.5-3.7-8.3-8.3-8.3z" fill="#fff"/><path d="m417 62.5c8.2 0 14.9-6.7 14.9-14.9 0 8.2 6.7 14.9 14.9 14.9-8.2 0-14.9 6.7-14.9 14.9 0-8.3-6.7-14.9-14.9-14.9z" fill="#fff"/></svg>