<svg enableBackground="new 0 0 700 350" height="350" viewBox="0 0 700 350" width="700" xmlns="http://www.w3.org/2000/svg"><g opacity=".37"><path d="m411.72 108.37-16.09 68.09h113.97l16.1-68.09z" fill="#567"/><path d="m527.66 100.09h-113.98l-1.96 8.28h113.98z" fill="#76c9ec"/><path d="m416.39 104.23c0-.89.72-1.61 1.61-1.61s1.61.72 1.61 1.61-.72 1.61-1.61 1.61-1.61-.72-1.61-1.61z" fill="#a0abb6"/><circle cx="423.71" cy="104.23" fill="#021c35" r="1.61"/><circle cx="429.42" cy="104.23" fill="#6b7a89" r="1.61"/><g fill="none" strokeLinecap="round" strokeLinejoin="round" strokeMiterlimit="10" strokeWidth="2.1035"><path d="m478.01 117.72h13.63" stroke="#c0c8cf"/><path d="m460.53 117.72h13.01" stroke="#76c9ec"/><path d="m442.93 117.72h10.95" stroke="#fff"/><path d="m435.84 117.72h2.98" stroke="#44576a"/><path d="m421.02 117.72h11.58" stroke="#fff"/><path d="m482.12 123.22h21.62" stroke="#fff"/><path d="m468.43 123.22h4.11" stroke="#44576a"/><path d="m433.12 123.22h27.44" stroke="#fff"/><path d="m498.64 128.72h3.81" stroke="#c0c8cf"/><path d="m482.12 128.72h7.87" stroke="#fff"/><path d="m474.34 128.72h3.93" stroke="#c0c8cf"/><path d="m461.84 128.72h8.65" stroke="#fff"/><path d="m449.03 128.72h5.71" stroke="#c0c8cf"/><path d="m440.62 128.72h4.05" stroke="#44576a"/><path d="m431.83 128.72h3" stroke="#fff"/><path d="m489.56 134.22h11.18" stroke="#fff"/><path d="m466.92 134.22h16.15" stroke="#fff"/><path d="m458.84 134.22h4.61" stroke="#c0c8cf"/><path d="m450.72 134.22h5.1" stroke="#fff"/><path d="m430.12 134.22h12.11" stroke="#fff"/><path d="m459.72 139.72h26.34" stroke="#fff"/><path d="m447.99 139.72h7.3" stroke="#9eb2c6"/><path d="m415.44 139.72h23.38" stroke="#76c9ec"/><path d="m476.17 145.22h8.46" stroke="#76c9ec"/><path d="m456.67 145.22h14.87" stroke="#fff"/><path d="m428.83 145.22h21.22" stroke="#44576a"/><path d="m414.01 145.22h8.14" stroke="#c0c8cf"/><path d="m478.64 150.72h4.7" stroke="#76c9ec"/><path d="m441.43 150.72h22.32" stroke="#fff"/><path d="m412.72 150.72h20.89" stroke="#fff"/><path d="m453.53 156.22h28.52" stroke="#fff"/><path d="m444.16 156.22h2.58" stroke="#c0c8cf"/><path d="m430.86 156.22h7.96" stroke="#9eb2c6"/><path d="m411.43 156.22h3.06" stroke="#fff"/><path d="m486.73 161.72h17.01" stroke="#44576a"/><path d="m447.99 161.72h28.87" stroke="#fff"/><path d="m433.12 161.72h9.41" stroke="#9eb2c6"/><path d="m473.54 167.22h5.93" stroke="#fff"/><path d="m463.11 167.22h5.2" stroke="#c0c8cf"/><path d="m440.93 167.22h16.8" stroke="#76c9ec"/><path d="m419.55 167.22h15.29" stroke="#44576a"/><path d="m408.85 167.22h3.87" stroke="#fff"/></g></g><g opacity=".48"><path d="m132.64 30.81-10.84 45.82h76.7l10.83-45.82z" fill="#567"/><path d="m210.65 25.23h-76.7l-1.31 5.58h76.69z" fill="#76c9ec"/><circle cx="136.85" cy="28.02" fill="#a0abb6" r="1.08"/><circle cx="140.7" cy="28.02" fill="#021c35" r="1.08"/><circle cx="144.55" cy="28.02" fill="#6b7a89" r="1.08"/><g fill="none" strokeLinecap="round" strokeLinejoin="round" strokeMiterlimit="10" strokeWidth="1.4155"><path d="m177.25 37.1h9.16" stroke="#c0c8cf"/><path d="m165.48 37.1h8.75" stroke="#76c9ec"/><path d="m153.63 37.1h7.37" stroke="#fff"/><path d="m148.86 37.1h2.01" stroke="#44576a"/><path d="m138.89 37.1h7.79" stroke="#fff"/><path d="m180.01 40.8h14.55" stroke="#fff"/><path d="m170.8 40.8h2.76" stroke="#44576a"/><path d="m147.04 40.8h18.46" stroke="#fff"/><path d="m191.13 44.5h2.56" stroke="#c0c8cf"/><path d="m180.01 44.5h5.29" stroke="#fff"/><path d="m174.77 44.5h2.65" stroke="#c0c8cf"/><path d="m166.36 44.5h5.82" stroke="#fff"/><path d="m157.74 44.5h3.85" stroke="#c0c8cf"/><path d="m152.08 44.5h2.73" stroke="#44576a"/><path d="m146.17 44.5h2.02" stroke="#fff"/><path d="m185.02 48.2h7.52" stroke="#fff"/><path d="m169.78 48.2h10.87" stroke="#fff"/><path d="m164.35 48.2h3.09" stroke="#c0c8cf"/><path d="m158.88 48.2h3.43" stroke="#fff"/><path d="m145.02 48.2h8.14" stroke="#fff"/><path d="m164.94 51.9h17.72" stroke="#fff"/><path d="m157.04 51.9h4.91" stroke="#9eb2c6"/><path d="m135.14 51.9h15.73" stroke="#76c9ec"/><path d="m176.01 55.61h5.69" stroke="#76c9ec"/><path d="m162.88 55.61h10.01" stroke="#fff"/><path d="m144.15 55.61h14.28" stroke="#44576a"/><path d="m134.17 55.61h5.48" stroke="#c0c8cf"/><path d="m177.66 59.31h3.17" stroke="#76c9ec"/><path d="m152.63 59.31h15.02" stroke="#fff"/><path d="m133.31 59.31h14.05" stroke="#fff"/><path d="m160.77 63.01h19.19" stroke="#fff"/><path d="m154.46 63.01h1.74" stroke="#c0c8cf"/><path d="m145.51 63.01h5.36" stroke="#9eb2c6"/><path d="m132.44 63.01h2.06" stroke="#fff"/><path d="m183.11 66.71h11.45" stroke="#44576a"/><path d="m157.04 66.71h19.43" stroke="#fff"/><path d="m147.04 66.71h6.32" stroke="#9eb2c6"/><path d="m174.23 70.41h4" stroke="#fff"/><path d="m167.22 70.41h3.49" stroke="#c0c8cf"/><path d="m152.29 70.41h11.31" stroke="#76c9ec"/><path d="m137.9 70.41h10.29" stroke="#44576a"/><path d="m130.7 70.41h2.61" stroke="#fff"/></g></g><path d="m583.53 54.22c8.75 0 16.13 5.87 18.41 13.88h-36.83c2.3-8.01 9.67-13.88 18.42-13.88z" fill="#c7f1fe"/><path d="m605.08 58.52c6.04 0 11.13 4.05 12.71 9.58h-25.41c1.57-5.53 6.66-9.58 12.7-9.58z" fill="#c7f1fe"/><path d="m577.69 68.1c-2.47-8.56-12.27-14.95-23.99-14.95s-21.52 6.39-23.99 14.95z" fill="#c7f1fe"/><path d="m201.93 170.98h17.84v193.17h-17.84z" fill="#23394f" transform="matrix(.7374 .6754 -.6754 .7374 236.0872 -72.1568)"/><path d="m138.79 346.25c-5.82-5.33-6.22-14.38-.89-20.2l85.11-92.92 21.09 19.32-85.11 92.92c-5.34 5.81-14.38 6.21-20.2.88z" fill="#bbc3ca"/><path d="m424.02 34.83c-45.84-41.99-117.05-38.87-159.04 6.98s-38.87 117.05 6.98 159.04 117.05 38.87 159.04-6.98 38.87-117.05-6.98-159.04zm-145.21 158.54c-41.71-38.21-44.56-103-6.35-144.71 38.21-41.71 103-44.56 144.71-6.35s44.56 103 6.35 144.71-102.99 44.56-144.71 6.35z" fill="#23394f"/><circle cx="347.99" cy="117.84" fill="#76c9ec" opacity=".19" r="102.42"/><path d="m417.17 42.31c-.09-.08-.19-.16-.28-.25 30.78 38.73 29.74 95.17-4.74 132.81-38.12 41.62-102.71 44.54-144.43 6.6 3.33 4.19 7.02 8.17 11.09 11.9 41.71 38.21 106.5 35.36 144.71-6.35 38.21-41.72 35.37-106.5-6.35-144.71z" fill="#76c9ec" opacity=".19"/><path d="m60.06 240.42c7.71 0 8.8-4.24 8.8-8.04 0-3.04-.43-6.08-.87-9.12-.43-3.04-.87-5.97-.87-9.01 0-9.99 6.52-14.23 15.75-14.23h2.28v5.97h-1.96c-6.41 0-8.58 3.48-8.58 9.34 0 2.5.33 5.11.76 7.71.43 2.72.76 5.32.76 8.25.11 6.95-2.93 10.43-7.82 11.73v.22c4.89 1.19 7.93 4.89 7.82 11.84 0 2.93-.33 5.65-.76 8.25-.43 2.71-.76 5.21-.76 7.82 0 6.08 2.5 9.45 8.58 9.45h1.96v5.97h-2.28c-9.01 0-15.75-3.91-15.75-14.88 0-2.93.43-5.97.87-8.91.43-2.93.87-5.86.87-8.8 0-3.37-1.09-8.04-8.8-8.04z" fill="#aabccd"/><path d="m138.69 245.95c-7.71 0-8.8 4.67-8.8 8.04 0 2.93.43 5.86.87 8.8.43 2.93.87 5.97.87 8.91 0 10.97-6.84 14.88-15.75 14.88h-2.28v-5.97h1.85c6.08-.11 8.69-3.37 8.69-9.45 0-2.61-.43-5.1-.76-7.82-.43-2.61-.87-5.32-.87-8.25 0-6.95 3.04-10.64 7.82-11.84v-.22c-4.78-1.3-7.82-4.78-7.82-11.73 0-2.93.43-5.54.87-8.25.33-2.61.76-5.21.76-7.71 0-5.86-2.28-9.23-8.58-9.34h-1.95v-5.97h2.17c9.23 0 15.86 4.24 15.86 14.23 0 3.04-.43 5.97-.87 9.01-.43 3.04-.87 6.08-.87 9.12 0 3.8 1.09 8.04 8.8 8.04v5.52z" fill="#aabccd"/><path d="m269.1 164.97c.01-.02.02-.05.03-.07.02-.05.04-.09.06-.14.08-.19.17-.38.25-.57.02-.05.04-.09.06-.14.08-.19.16-.39.24-.58.02-.05.04-.09.06-.14v-.01c.02-.05.04-.1.06-.15.05-.12.09-.24.14-.36.01-.02.02-.04.02-.07.01-.02.02-.04.02-.07.04-.12.09-.24.13-.36.02-.05.04-.11.06-.16v-.01c.02-.05.03-.09.05-.14.07-.2.14-.4.2-.6.02-.05.03-.09.05-.14.06-.2.12-.4.18-.6.01-.05.03-.1.04-.14.01-.03.02-.05.02-.08l3.84-.07 2.87-.05c.38-1.43.52-1.76.75-3.25s.2-1.85.26-3.33l-2.73-.91-3.64-1.22c0-.01 0-.03 0-.04 0-.05 0-.1 0-.15 0-.21 0-.42 0-.63 0-.05 0-.1 0-.15 0-.21 0-.42-.01-.63 0-.04 0-.09 0-.13 0-.09-.01-.19-.01-.28s-.01-.19-.01-.28c0-.04 0-.09-.01-.13-.01-.21-.02-.42-.04-.63 0-.05-.01-.1-.01-.15-.02-.21-.03-.42-.05-.63 0-.05-.01-.1-.01-.15 0-.01 0-.03 0-.04l3.53-1.49 2.66-1.12c-.17-1.47-.18-1.83-.51-3.3-.34-1.47-.5-1.79-.99-3.19l-2.88.16-3.82.22c-.01-.03-.02-.05-.03-.08-.02-.05-.04-.09-.05-.14-.07-.19-.15-.39-.23-.58-.02-.05-.04-.09-.06-.14-.08-.19-.16-.38-.24-.58-.02-.05-.04-.09-.06-.14 0 0 0-.01-.01-.01-.02-.05-.04-.1-.07-.15-.05-.12-.11-.23-.16-.35-.01-.02-.02-.04-.03-.06s-.02-.04-.03-.06c-.02-.05-.05-.1-.07-.15-.03-.07-.06-.13-.09-.2-.02-.05-.05-.1-.07-.15 0 0 0 0-.01-.01-.02-.04-.04-.09-.06-.13-.09-.19-.18-.38-.28-.56-.02-.05-.04-.09-.07-.13-.1-.18-.19-.37-.29-.55-.02-.05-.05-.09-.07-.13-.01-.02-.02-.05-.04-.07l2.66-2.76 1.99-2.07c-.74-1.28-.88-1.61-1.77-2.83s-1.17-1.45-2.16-2.54l-2.57 1.28-3.44 1.71c-.01-.01-.02-.02-.03-.03-.04-.04-.07-.07-.11-.11-.14-.15-.29-.3-.44-.44-.04-.04-.07-.07-.11-.1-.15-.15-.3-.29-.45-.44-.03-.03-.06-.06-.1-.09-.07-.06-.13-.13-.2-.19s-.14-.13-.21-.19c-.03-.03-.06-.06-.09-.09-.16-.14-.32-.28-.47-.42-.04-.03-.07-.06-.11-.1-.16-.14-.32-.27-.48-.41-.04-.03-.08-.06-.12-.1-.01-.01-.02-.02-.03-.03l1.44-3.55 1.09-2.67c-1.16-.91-1.41-1.17-2.69-1.97s-1.62-.91-2.95-1.55l-1.92 2.15-2.55 2.86c-.02-.01-.05-.02-.07-.03-.04-.02-.09-.04-.14-.06-.19-.09-.38-.17-.57-.25-.05-.02-.09-.04-.14-.06-.19-.08-.39-.16-.58-.24-.04-.02-.09-.04-.14-.05 0 0-.01 0-.01-.01-.05-.02-.1-.04-.15-.06-.12-.05-.24-.09-.36-.14-.02-.01-.04-.02-.07-.02-.02-.01-.04-.01-.06-.02-.12-.04-.24-.09-.36-.13-.05-.02-.11-.04-.16-.05h-.01c-.05-.02-.09-.03-.14-.05-.2-.07-.4-.14-.6-.2-.05-.02-.1-.03-.14-.05-.2-.06-.4-.13-.59-.18-.05-.01-.1-.03-.15-.04-.03-.01-.05-.01-.08-.02l-.07-3.84-.05-2.87c-1.43-.38-1.76-.52-3.25-.75s-1.85-.2-3.33-.26l-.91 2.73-1.22 3.64c-.02 0-.03 0-.04 0-.05 0-.1 0-.15 0-.21-.01-.42-.01-.63 0-.05 0-.1 0-.15 0-.21 0-.42.01-.63.01-.04 0-.08 0-.13 0-.09 0-.19.01-.28.01s-.19.01-.28.01c-.04 0-.08 0-.13.01-.21.01-.42.02-.63.04-.05 0-.1.01-.14.01-.21.02-.42.03-.63.05-.05 0-.09.01-.14.01-.01 0-.03 0-.04 0l-1.49-3.53-1.12-2.66c-1.47.17-1.83.17-3.3.51s-1.79.5-3.19.99l.16 2.88.22 3.82c-.03.01-.05.02-.08.03-.05.02-.09.04-.14.05-.19.07-.39.15-.58.23-.05.02-.09.04-.14.06-.19.08-.39.16-.58.25-.04.02-.09.04-.13.06-.01 0-.01 0-.02.01-.05.02-.1.04-.15.07-.12.05-.23.11-.35.16-.02.01-.04.02-.06.03-.02.01-.04.02-.07.03-.12.05-.23.11-.35.16-.05.02-.1.05-.15.07h-.01c-.04.02-.09.04-.13.06-.19.09-.38.19-.56.28-.05.02-.09.05-.13.07-.19.09-.37.19-.55.29-.04.02-.09.05-.13.07-.02.01-.05.02-.07.04l-2.76-2.66-2.07-1.99c-1.28.74-1.61.88-2.83 1.77s-1.45 1.17-2.54 2.16l1.28 2.57 1.71 3.44c-.01.01-.02.02-.03.03-.03.03-.07.07-.1.1-.15.15-.3.29-.45.44-.03.03-.07.07-.1.1-.15.15-.3.3-.44.46-.03.03-.06.06-.09.09-.06.07-.13.14-.19.2-.06.07-.13.14-.19.21-.03.03-.06.06-.08.09-.14.16-.28.32-.42.47-.03.04-.06.07-.09.11-.14.16-.28.32-.41.48-.03.04-.06.08-.09.11-.01.01-.02.02-.03.03l-3.55-1.44-2.67-1.09c-.91 1.16-1.17 1.41-1.97 2.69s-.91 1.62-1.55 2.95l2.15 1.92 2.86 2.55c-.01.02-.02.05-.03.07-.02.05-.04.09-.06.14-.08.19-.17.38-.25.57-.02.05-.04.09-.06.14-.08.19-.16.38-.24.58-.02.05-.04.09-.06.14v.01c-.02.05-.04.11-.06.16-.05.12-.09.24-.13.36-.01.02-.02.04-.02.06-.01.02-.02.05-.03.07-.04.12-.09.24-.13.36-.02.05-.04.11-.05.16v.01c-.01.04-.03.09-.05.14-.07.2-.14.4-.2.6l-.05.14c-.06.2-.13.4-.19.6l-.04.14c-.01.03-.02.05-.02.08l-3.84.07-2.87.05c-.38 1.43-.52 1.76-.75 3.25s-.2 1.85-.27 3.33l2.73.91 3.64 1.22v.04.15c0 .21-.01.42 0 .63v.15c0 .21 0 .42.01.63v.13c0 .09.01.19.01.28s.01.19.01.28c0 .04 0 .08.01.13.01.21.02.42.04.63 0 .05.01.1.01.14.01.21.03.42.05.63 0 .05.01.09.01.14v.04l-3.53 1.49-2.66 1.12c.17 1.47.17 1.83.51 3.3s.5 1.79.99 3.19l2.88-.17 3.82-.22c.01.02.02.05.03.08.02.05.04.09.05.14.07.19.15.39.23.58.02.05.04.09.06.14.08.19.16.39.24.58.02.04.04.09.06.14 0 0 0 .01.01.01.02.05.04.1.07.15.05.12.11.23.16.35.01.02.02.04.03.06s.02.04.03.06c.02.05.05.1.07.15.03.07.06.13.09.2.02.05.05.1.07.15 0 0 .01.01.01.01.02.04.04.09.06.13.09.19.19.38.28.57.02.04.04.09.07.13.1.19.19.37.29.56.02.04.05.09.07.13.01.02.03.05.04.07l-2.66 2.76-1.99 2.07c.74 1.28.88 1.61 1.77 2.83s1.17 1.45 2.16 2.54l2.57-1.28 3.44-1.71.03.03c.03.04.07.07.1.11.15.15.29.3.44.45l.1.1c.15.15.3.29.46.44l.09.09c.07.06.14.13.2.19.07.06.14.13.21.19.03.03.06.06.09.08l.48.42c.03.03.07.06.11.09.16.14.32.28.48.41.04.03.08.06.11.09l.03.03-1.44 3.55-1.09 2.67c1.16.91 1.41 1.17 2.69 1.97s1.62.91 2.95 1.55l1.92-2.15 2.55-2.86c.02.01.05.02.07.03.05.02.09.04.14.06.19.08.38.17.57.25.05.02.1.04.14.06.19.08.38.16.58.24.05.02.09.04.14.06h.01c.05.02.11.04.16.06.12.05.24.09.36.14.02.01.04.02.06.02.02.01.05.02.07.03.12.04.24.09.36.13.05.02.11.04.16.06h.01c.05.02.09.03.13.05.2.07.4.14.6.2.04.01.09.03.14.04.2.06.4.13.6.19l.14.04c.03.01.05.02.08.03l.07 3.84.05 2.87c1.43.38 1.76.52 3.25.75s1.85.2 3.32.27l.91-2.73 1.22-3.64h.04.16.62.15c.21 0 .42 0 .63-.01h.13c.09 0 .19-.01.28-.01s.18-.01.28-.01c.04 0 .09 0 .13-.01.21-.01.42-.02.63-.04.05 0 .1-.01.15-.01.21-.02.42-.03.63-.05.05 0 .1-.01.15-.01h.04l1.49 3.53 1.12 2.66c1.47-.17 1.83-.18 3.3-.51 1.47-.34 1.79-.5 3.19-.99l-.17-2.88-.22-3.82c.03-.01.05-.02.07-.03.05-.02.1-.04.15-.06.19-.08.38-.15.58-.23.05-.02.1-.04.14-.06.19-.08.38-.16.57-.24.05-.02.1-.04.14-.06h.01c.05-.02.11-.05.16-.07.12-.05.23-.1.35-.16.02-.01.04-.02.07-.03.02-.01.04-.02.06-.03.12-.05.23-.11.35-.16.05-.02.1-.05.15-.07 0 0 .01 0 .01-.01.04-.02.09-.04.13-.06.19-.09.38-.19.56-.28.04-.02.09-.04.13-.07.19-.1.37-.19.55-.29.04-.02.09-.05.13-.07.02-.01.05-.03.07-.04l2.76 2.66 2.07 2c1.28-.74 1.61-.88 2.83-1.77s1.45-1.17 2.54-2.16l-1.28-2.57-1.71-3.44c.01-.01.02-.02.03-.03.04-.03.07-.07.11-.11.15-.14.3-.29.44-.44l.11-.11c.15-.15.29-.3.44-.45.03-.03.06-.06.09-.1.06-.07.13-.13.19-.2s.13-.14.19-.21c.03-.03.06-.06.09-.09.14-.16.28-.32.42-.47.03-.04.07-.07.1-.11.14-.16.27-.32.41-.48.03-.04.06-.08.1-.12.01-.01.02-.02.03-.03l3.55 1.44 2.67 1.09c.91-1.16 1.17-1.41 1.97-2.69s.91-1.62 1.55-2.95l-2.15-1.92zm-15.35-4.31c-5.4 8.67-16.8 11.31-25.47 5.91-3.15-1.97-5.51-4.73-6.97-7.86-2.55-5.48-2.38-12.1 1.06-17.61 5.4-8.66 16.8-11.31 25.47-5.91 3.15 1.97 5.51 4.73 6.97 7.86 2.55 5.48 2.37 12.1-1.06 17.61z" fill="#556778"/><path d="m464.03 39.52c.01-.02.01-.03.02-.05.02-.03.03-.07.05-.1.06-.14.12-.28.18-.41.01-.03.03-.07.04-.1.06-.14.12-.28.17-.42.01-.03.03-.07.04-.1 0 0 0 0 0-.01.01-.04.03-.08.04-.11.03-.09.07-.17.1-.26.01-.02.01-.03.02-.05s.01-.03.02-.05c.03-.09.06-.17.09-.26.01-.04.03-.08.04-.11v-.01c.01-.03.02-.07.03-.1.05-.14.1-.29.14-.43.01-.03.02-.07.03-.1.05-.14.09-.29.13-.43.01-.03.02-.07.03-.1.01-.02.01-.04.02-.06l2.78-.05 2.08-.04c.28-1.03.37-1.28.54-2.36s.15-1.34.19-2.41l-1.98-.66-2.64-.88c0-.01 0-.02 0-.03 0-.04 0-.07 0-.11 0-.15 0-.3 0-.45 0-.04 0-.07 0-.11 0-.15 0-.3-.01-.46 0-.03 0-.06 0-.09 0-.07 0-.13-.01-.2 0-.07 0-.14-.01-.2 0-.03 0-.06 0-.09-.01-.15-.02-.3-.03-.46 0-.04 0-.07-.01-.11-.01-.15-.02-.3-.04-.45 0-.04-.01-.07-.01-.11 0-.01 0-.02 0-.03l2.56-1.08 1.92-.81c-.13-1.06-.13-1.32-.37-2.39-.25-1.07-.36-1.3-.72-2.31l-2.09.12-2.77.16c-.01-.02-.01-.04-.02-.06-.01-.03-.03-.07-.04-.1-.05-.14-.11-.28-.17-.42-.01-.03-.03-.07-.04-.1-.06-.14-.12-.28-.18-.42-.01-.03-.03-.07-.04-.1 0 0 0 0 0-.01-.02-.04-.03-.07-.05-.11-.04-.09-.08-.17-.12-.26-.01-.01-.01-.03-.02-.05s-.01-.03-.02-.05c-.02-.04-.03-.07-.05-.11-.02-.05-.04-.09-.07-.14-.02-.04-.04-.07-.05-.11 0 0 0 0 0-.01-.02-.03-.03-.06-.05-.1-.07-.14-.13-.27-.2-.41-.02-.03-.03-.07-.05-.1-.07-.13-.14-.27-.21-.4-.02-.03-.03-.07-.05-.1-.01-.02-.02-.03-.03-.05l1.93-2 1.45-1.5c-.53-.93-.64-1.17-1.28-2.05-.65-.88-.84-1.05-1.57-1.84l-1.86.93-2.49 1.24c-.01-.01-.01-.01-.02-.02-.03-.03-.05-.05-.08-.08-.1-.11-.21-.22-.32-.32-.03-.03-.05-.05-.08-.08-.11-.11-.22-.21-.33-.32-.02-.02-.04-.04-.07-.06-.05-.05-.1-.09-.15-.14s-.1-.09-.15-.14c-.02-.02-.05-.04-.07-.06-.11-.1-.23-.2-.34-.3-.03-.02-.05-.05-.08-.07-.12-.1-.23-.2-.35-.29-.03-.02-.06-.05-.08-.07-.01-.01-.02-.01-.02-.02l1.05-2.57.79-1.93c-.84-.66-1.02-.85-1.95-1.43s-1.18-.66-2.14-1.13l-1.39 1.56-1.85 2.07c-.02-.01-.04-.02-.05-.02-.03-.02-.07-.03-.1-.04-.14-.06-.28-.12-.42-.18-.03-.01-.07-.03-.1-.04-.14-.06-.28-.12-.42-.17-.03-.01-.07-.03-.1-.04h-.01c-.04-.01-.08-.03-.11-.04-.09-.03-.17-.07-.26-.1-.02-.01-.03-.01-.05-.02-.02 0-.03-.01-.05-.02-.09-.03-.17-.06-.26-.1-.04-.01-.08-.03-.12-.04 0 0 0 0-.01 0-.03-.01-.07-.02-.1-.04-.14-.05-.29-.1-.43-.14-.03-.01-.07-.02-.1-.03-.14-.05-.29-.09-.43-.13-.04-.01-.07-.02-.11-.03-.02 0-.04-.01-.05-.02l-.05-2.78-.04-2.08c-1.03-.28-1.28-.37-2.36-.54s-1.34-.15-2.41-.19l-.66 1.98-.88 2.64c-.01 0-.02 0-.03 0-.04 0-.07 0-.11 0-.15 0-.3 0-.46 0-.04 0-.07 0-.11 0-.15 0-.31 0-.46.01-.03 0-.06 0-.09 0-.07 0-.14 0-.2.01-.07 0-.13.01-.2.01-.03 0-.06 0-.09.01-.15.01-.31.02-.46.03-.04 0-.07 0-.1.01-.15.01-.3.02-.46.04-.03 0-.07.01-.1.01-.01 0-.02 0-.03 0l-1.08-2.56-.81-1.92c-1.06.13-1.32.13-2.39.37-1.07.25-1.3.36-2.31.72l.12 2.09.16 2.77c-.02.01-.04.01-.06.02-.03.01-.07.03-.1.04-.14.05-.28.11-.42.17-.03.01-.07.03-.1.04-.14.06-.28.12-.42.18-.03.01-.06.03-.1.04h-.01c-.04.02-.07.03-.11.05-.08.04-.17.08-.25.11-.01.01-.03.01-.04.02-.02.01-.03.01-.05.02-.08.04-.17.08-.25.12-.04.02-.07.04-.11.05h-.01c-.03.02-.06.03-.1.05-.14.07-.27.14-.41.2-.03.02-.06.03-.1.05-.14.07-.27.14-.4.21-.03.02-.06.03-.1.05-.02.01-.04.02-.05.03l-2-1.93-1.5-1.45c-.93.53-1.17.64-2.05 1.28-.88.65-1.05.85-1.84 1.57l.93 1.86 1.24 2.49c-.01.01-.02.01-.02.02-.02.02-.05.05-.08.07-.11.11-.22.21-.33.32-.03.02-.05.05-.07.08-.11.11-.21.22-.32.33-.02.02-.04.04-.06.07-.05.05-.09.1-.14.15s-.09.1-.14.15c-.02.02-.04.05-.06.07-.1.11-.2.23-.31.34-.02.03-.05.05-.07.08-.1.12-.2.23-.3.35-.02.03-.05.05-.07.08-.01.01-.02.02-.02.02l-2.57-1.05-1.93-.79c-.66.84-.85 1.02-1.43 1.95s-.66 1.18-1.13 2.14l1.56 1.39 2.07 1.85c-.01.02-.02.03-.02.05-.02.03-.03.07-.05.1-.06.14-.12.27-.18.41-.01.03-.03.07-.04.1-.06.14-.12.28-.17.42-.01.03-.03.07-.04.1v.01c-.02.04-.03.08-.05.11-.03.09-.07.17-.1.26-.01.01-.01.03-.02.04-.01.02-.01.03-.02.05-.03.09-.06.17-.1.26-.01.04-.03.08-.04.11v.01c-.01.03-.02.07-.03.1-.05.14-.1.29-.15.43l-.03.1c-.05.14-.09.29-.13.43l-.03.1c-.01.02-.01.04-.02.06l-2.78.05-2.08.04c-.28 1.03-.37 1.28-.54 2.36s-.15 1.34-.19 2.41l1.98.66 2.64.88v.03.11.45.11c0 .15 0 .3.01.46v.09c0 .07 0 .14.01.2 0 .07.01.13.01.2 0 .03 0 .06.01.09.01.15.02.31.03.46 0 .04 0 .07.01.1.01.15.02.31.04.46 0 .03.01.07.01.1v.03l-2.56 1.08-1.92.81c.13 1.06.13 1.32.37 2.39.25 1.07.36 1.3.72 2.31l2.09-.12 2.79-.15c.01.02.01.04.02.06.01.03.03.07.04.1.05.14.11.28.17.42.01.03.03.07.04.1.06.14.12.28.18.42.01.03.03.06.04.1v.01c.02.04.03.08.05.11.04.09.08.17.11.25.01.01.01.03.02.04.01.02.01.03.02.05.02.04.04.07.05.11.02.05.04.09.07.14.02.04.03.07.05.11 0 0 0 .01.01.01.02.03.03.06.04.09.07.14.13.28.2.41.02.03.03.06.05.09.07.14.14.27.21.4.02.03.03.06.05.09.01.02.02.04.03.05l-1.93 2-1.45 1.5c.53.93.64 1.17 1.28 2.05.65.88.85 1.05 1.57 1.84l1.86-.93 2.49-1.24c.01.01.01.02.02.02.02.03.05.05.08.08.11.11.21.22.32.32.02.03.05.05.08.07.11.11.22.21.33.32.02.02.04.04.07.06.05.05.1.09.15.14s.1.09.15.14c.02.02.04.04.07.06.11.1.23.2.35.31.03.02.05.05.08.07.12.1.23.2.35.3.03.02.05.05.08.07.01.01.02.02.02.02l-1.05 2.57-.79 1.93c.84.66 1.02.85 1.95 1.43s1.18.66 2.14 1.13l1.39-1.56 1.85-2.07c.02.01.04.02.05.02.03.02.07.03.1.05.14.06.27.12.41.18.03.02.07.03.1.04.14.06.28.12.42.17.03.01.07.03.1.04.04.01.08.03.12.04.09.03.17.07.26.1.01.01.03.01.04.02.02.01.03.01.05.02.09.03.17.06.26.09.04.01.08.03.11.04h.01c.03.01.07.02.1.03.14.05.29.1.44.15.03.01.07.02.1.03.14.05.29.09.44.14l.1.03c.02.01.04.01.06.02l.05 2.78.04 2.08c1.03.28 1.28.37 2.36.54s1.34.15 2.41.19l.66-1.98.88-2.64h.03.11.45.11c.15 0 .3 0 .45-.01h.09c.07 0 .13 0 .2-.01.07 0 .13-.01.2-.01.03 0 .06 0 .09-.01.15-.01.31-.02.46-.03.04 0 .07 0 .11-.01.15-.01.3-.02.45-.04.04 0 .07-.01.11-.01h.03l1.08 2.56.81 1.92c1.06-.13 1.32-.13 2.39-.37 1.07-.25 1.3-.36 2.31-.72l-.12-2.09-.16-2.77c.02-.01.04-.01.05-.02.04-.01.07-.03.11-.04.14-.05.28-.11.42-.16.03-.01.07-.03.1-.04.14-.06.28-.12.41-.18.03-.01.07-.03.1-.04.04-.02.08-.03.11-.05.08-.04.17-.08.25-.11.02-.01.03-.01.05-.02s.03-.02.05-.02c.08-.04.17-.08.25-.12.04-.02.07-.03.11-.05 0 0 .01 0 .01-.01.03-.01.06-.03.1-.05.14-.07.27-.13.41-.2.03-.02.06-.03.09-.05.13-.07.27-.14.4-.21.03-.02.06-.03.1-.05.02-.01.03-.02.05-.03l2 1.93 1.5 1.45c.93-.53 1.17-.64 2.05-1.28.88-.65 1.05-.84 1.84-1.57l-.93-1.86-1.24-2.49c.01-.01.01-.01.02-.02.03-.03.05-.05.08-.08.11-.11.22-.21.32-.32l.08-.08c.11-.11.21-.22.32-.33.02-.02.04-.05.06-.07.05-.05.09-.1.14-.15.04-.05.09-.1.14-.15.02-.02.04-.05.06-.07.1-.11.2-.23.3-.34.02-.03.05-.05.07-.08.1-.12.2-.23.29-.35.02-.03.05-.06.07-.08.01-.01.01-.02.02-.02l2.57 1.05 1.93.79c.66-.84.85-1.02 1.43-1.95s.66-1.18 1.13-2.14l-1.56-1.39zm-11.13-3.12c-3.92 6.28-12.18 8.2-18.46 4.28-2.29-1.42-3.99-3.43-5.05-5.7-1.85-3.97-1.72-8.77.77-12.77 3.92-6.28 12.18-8.2 18.46-4.28 2.29 1.42 3.99 3.43 5.05 5.7 1.85 3.98 1.72 8.78-.77 12.77z" fill="#76c9ec"/><path d="m195.28 131.12c.01-.01.01-.02.02-.04s.02-.05.03-.07c.04-.09.08-.19.12-.28.01-.02.02-.05.03-.07.04-.1.08-.19.12-.29.01-.02.02-.05.03-.07.01-.03.02-.05.03-.08.02-.06.05-.12.07-.18 0-.01.01-.02.01-.03s.01-.02.01-.03c.02-.06.04-.12.06-.18.01-.03.02-.05.03-.08 0 0 0 0 0-.01.01-.02.02-.05.02-.07.03-.1.07-.2.1-.29.01-.02.02-.05.02-.07.03-.1.06-.2.09-.29.01-.02.01-.05.02-.07 0-.01.01-.03.01-.04l1.89-.03 1.42-.03c.19-.7.25-.87.37-1.6.11-.74.1-.91.13-1.64l-1.35-.45-1.8-.6c0-.01 0-.01 0-.02 0-.03 0-.05 0-.08 0-.1 0-.21 0-.31 0-.03 0-.05 0-.07 0-.1 0-.21-.01-.31 0-.02 0-.04 0-.06 0-.05 0-.09 0-.14s0-.09-.01-.14c0-.02 0-.04 0-.06-.01-.1-.01-.21-.02-.31 0-.03 0-.05 0-.07-.01-.1-.02-.21-.03-.31 0-.02 0-.05-.01-.07 0-.01 0-.01 0-.02l1.74-.73 1.31-.55c-.09-.72-.09-.9-.25-1.63-.17-.73-.25-.89-.49-1.57l-1.42.08-1.89.11c0-.01-.01-.02-.01-.04-.01-.02-.02-.05-.03-.07-.04-.1-.07-.19-.11-.29-.01-.02-.02-.05-.03-.07-.04-.1-.08-.19-.12-.28-.01-.02-.02-.05-.03-.07-.01-.02-.02-.05-.03-.07-.03-.06-.05-.12-.08-.17-.01-.01-.01-.02-.01-.03-.01-.01-.01-.02-.02-.03-.01-.02-.02-.05-.03-.07-.01-.03-.03-.06-.04-.1-.01-.03-.02-.05-.04-.08-.01-.02-.02-.04-.03-.07-.04-.09-.09-.19-.14-.28-.01-.02-.02-.04-.03-.07-.05-.09-.09-.18-.14-.27-.01-.02-.02-.04-.04-.07-.01-.01-.01-.02-.02-.04l1.32-1.36.98-1.02c-.36-.63-.43-.79-.87-1.4s-.58-.72-1.07-1.25l-1.27.63-1.7.84c0-.01-.01-.01-.01-.02-.02-.02-.04-.04-.05-.05-.07-.07-.14-.15-.22-.22-.02-.02-.03-.03-.05-.05-.07-.07-.15-.15-.22-.22-.02-.01-.03-.03-.05-.04-.03-.03-.07-.06-.1-.09s-.07-.06-.1-.09c-.02-.01-.03-.03-.05-.04-.08-.07-.16-.14-.23-.21-.02-.02-.04-.03-.05-.05-.08-.07-.16-.13-.24-.2-.02-.02-.04-.03-.06-.05-.01 0-.01-.01-.02-.01l.71-1.75.54-1.32c-.57-.45-.7-.58-1.33-.97s-.8-.45-1.46-.77l-.95 1.06-1.26 1.41c-.01-.01-.02-.01-.04-.02s-.04-.02-.07-.03c-.09-.04-.19-.08-.28-.12-.02-.01-.04-.02-.07-.03-.1-.04-.19-.08-.29-.12-.02-.01-.05-.02-.07-.03 0 0 0 0-.01 0-.03-.01-.05-.02-.08-.03-.06-.02-.12-.05-.18-.07-.01 0-.02-.01-.03-.01s-.02-.01-.03-.01c-.06-.02-.12-.04-.18-.06-.03-.01-.05-.02-.08-.03 0 0 0 0-.01 0-.02-.01-.05-.02-.07-.02-.1-.03-.2-.07-.29-.1-.02-.01-.05-.02-.07-.02-.1-.03-.2-.06-.29-.09-.02-.01-.05-.01-.07-.02-.01 0-.02-.01-.04-.01l-.03-1.89-.03-1.42c-.7-.19-.87-.25-1.6-.37-.74-.11-.91-.1-1.64-.13l-.45 1.35-.6 1.8c-.01 0-.02 0-.02 0-.02 0-.05 0-.07 0-.1 0-.21 0-.31 0-.02 0-.05 0-.07 0-.1 0-.21 0-.31.01-.02 0-.04 0-.06 0-.05 0-.09 0-.14 0s-.09 0-.14.01c-.02 0-.04 0-.06 0-.1 0-.21.01-.31.02-.02 0-.05 0-.07 0-.1.01-.21.02-.31.03-.02 0-.05 0-.07.01-.01 0-.01 0-.02 0l-.73-1.74-.55-1.31c-.72.09-.9.09-1.63.25-.73.17-.89.25-1.57.49l.08 1.42.11 1.89c-.01.01-.02.01-.04.01-.02.01-.05.02-.07.03-.1.04-.19.07-.29.11-.02.01-.05.02-.07.03-.1.04-.19.08-.29.12-.02.01-.04.02-.07.03 0 0 0 0-.01 0-.02.01-.05.02-.07.03-.06.02-.12.05-.17.08-.01 0-.02.01-.03.01-.01 0-.02.01-.03.01-.06.03-.11.05-.17.08-.03.01-.05.02-.07.04 0 0 0 0-.01 0-.02.01-.04.02-.06.03-.09.05-.19.09-.28.14-.02.01-.04.02-.07.03-.09.05-.18.09-.27.14-.02.01-.04.02-.07.04-.01.01-.02.01-.04.02l-1.36-1.32-1.02-.98c-.63.36-.8.43-1.4.87s-.72.58-1.25 1.07l.63 1.27.84 1.7c-.01 0-.01.01-.02.02-.02.02-.03.03-.05.05-.08.07-.15.14-.22.22-.02.02-.03.03-.05.05-.07.07-.15.15-.22.22-.01.02-.03.03-.04.05-.03.03-.06.07-.09.1s-.06.07-.09.1c-.01.02-.03.03-.04.05-.07.08-.14.16-.21.23-.02.02-.03.04-.05.05-.07.08-.14.16-.2.24-.01.02-.03.04-.05.06 0 .01-.01.01-.01.02l-1.75-.71-1.32-.54c-.45.57-.58.7-.97 1.33s-.45.8-.77 1.46l1.06.95 1.41 1.26c0 .01-.01.02-.02.04s-.02.05-.03.07c-.04.09-.08.19-.12.28-.01.02-.02.05-.03.07-.04.09-.08.19-.12.29-.01.02-.02.05-.03.07-.01.03-.02.05-.03.08-.02.06-.04.12-.07.18 0 .01-.01.02-.01.03s-.01.02-.01.03c-.02.06-.04.12-.06.18-.01.03-.02.05-.03.08v.01c-.01.02-.02.04-.02.07-.03.1-.07.2-.1.3l-.02.07c-.03.1-.06.2-.09.3l-.02.07c0 .01-.01.03-.01.04l-1.89.03-1.42.03c-.19.7-.26.87-.37 1.6-.11.74-.1.91-.13 1.64l1.35.45 1.8.6v.02.07.31.07.31.06.14c0 .05 0 .09.01.14v.06c0 .1.01.21.02.31v.07c.01.1.02.21.03.31 0 .02 0 .05.01.07v.02l-1.74.73-1.31.55c.09.72.09.9.25 1.63.17.73.25.89.49 1.57l1.42-.08 1.89-.11c.01.01.01.02.01.04.01.02.02.05.03.07.04.1.07.19.11.29.01.02.02.05.03.07.04.1.08.19.12.29.01.02.02.04.03.07.01.03.02.05.03.08.03.06.05.12.08.17 0 .01.01.02.01.03s.01.02.01.03c.01.03.02.05.04.08s.03.06.05.1c.01.02.02.05.03.07v.01c.01.02.02.04.03.06.05.09.09.19.14.28.01.02.02.04.03.06.05.09.1.18.14.28.01.02.02.04.03.06.01.01.01.02.02.04l-1.31 1.36-.98 1.02c.36.63.43.8.87 1.4s.58.72 1.07 1.25l1.27-.63 1.7-.84c0 .01.01.01.01.01.02.02.03.04.05.05.07.07.14.15.22.22l.05.05.22.22c.02.01.03.03.05.04.03.03.07.06.1.1.03.03.07.06.1.09.01.01.03.03.05.04l.24.21c.02.02.04.03.05.05.08.07.16.14.24.2.02.01.04.03.06.05.01 0 .01.01.02.01l-.71 1.75-.54 1.32c.57.45.7.58 1.33.97s.8.45 1.46.77l.95-1.06 1.26-1.41c.01.01.02.01.04.02s.05.02.07.03c.09.04.19.08.28.12.02.01.05.02.07.03.09.04.19.08.29.12.02.01.05.02.07.03.03.01.05.02.08.03.06.02.12.05.18.07.01 0 .02.01.03.01s.02.01.03.01c.06.02.12.04.18.06.03.01.05.02.08.03h.01c.02.01.04.02.07.02.1.04.2.07.3.1.02.01.04.01.07.02l.3.09.07.02c.01 0 .03.01.04.01l.03 1.89.03 1.42c.7.19.87.26 1.61.37s.91.1 1.64.13l.45-1.35.6-1.8h.02.08.31.08c.1 0 .21 0 .31-.01h.06.14c.05 0 .09 0 .14-.01h.06c.1 0 .21-.01.31-.02h.07c.1-.01.21-.02.31-.03.02 0 .05 0 .07-.01h.02l.73 1.74.55 1.31c.72-.09.9-.09 1.63-.25.73-.17.88-.25 1.57-.49l-.08-1.42-.11-1.89c.01 0 .02-.01.04-.01.02-.01.05-.02.07-.03.1-.04.19-.07.28-.11.02-.01.05-.02.07-.03.09-.04.19-.08.28-.12.02-.01.05-.02.07-.03.03-.01.05-.02.08-.03.06-.03.11-.05.17-.08.01-.01.02-.01.03-.01.01-.01.02-.01.03-.01.06-.03.12-.05.17-.08.02-.01.05-.02.07-.03h.01c.02-.01.04-.02.06-.03.09-.04.19-.09.28-.14.02-.01.04-.02.06-.03.09-.05.18-.1.27-.14.02-.01.04-.02.06-.03.01-.01.02-.01.04-.02l1.36 1.31 1.02.99c.63-.36.79-.43 1.4-.87.6-.44.72-.58 1.25-1.07l-.63-1.27-.84-1.7c.01 0 .01-.01.01-.01.02-.02.04-.03.05-.05.07-.07.15-.14.22-.22l.05-.05c.07-.07.14-.15.21-.22.01-.02.03-.03.04-.05.03-.03.06-.07.09-.1s.06-.07.09-.1c.01-.02.03-.03.04-.05.07-.08.14-.16.21-.23.02-.02.03-.04.05-.05.07-.08.13-.16.2-.24.02-.02.03-.04.05-.06 0-.01.01-.01.01-.02l1.75.71 1.32.54c.45-.57.58-.7.97-1.33s.45-.8.77-1.46l-1.06-.95zm-7.58-2.12c-2.67 4.28-8.3 5.58-12.57 2.92-1.56-.97-2.72-2.33-3.44-3.88-1.26-2.7-1.17-5.97.52-8.69 2.67-4.28 8.3-5.58 12.57-2.92 1.56.97 2.72 2.33 3.44 3.88 1.27 2.7 1.18 5.97-.52 8.69z" fill="#76c9ec"/><path d="m612.65 178.68h-56.8c-1.89 0-3.42-1.53-3.42-3.42 0-1.89 1.53-3.42 3.42-3.42h56.8c1.89 0 3.42 1.53 3.42 3.42 0 1.89-1.53 3.42-3.42 3.42z" fill="#0c253d"/><path d="m628.51 192.53h-68.78c-1.89 0-3.42-1.53-3.42-3.42 0-1.89 1.53-3.42 3.42-3.42h68.78c1.89 0 3.42 1.53 3.42 3.42 0 1.88-1.54 3.42-3.42 3.42z" fill="#76c9ec"/><path d="m612.65 206.37h-75.23c-1.89 0-3.42-1.53-3.42-3.42 0-1.89 1.53-3.42 3.42-3.42h75.23c1.89 0 3.42 1.53 3.42 3.42 0 1.89-1.53 3.42-3.42 3.42z" fill="#4b5e6f"/><g fill="#76c9ec"><path d="m572.81 220.21h-85.6c-1.89 0-3.42-1.53-3.42-3.42 0-1.89 1.53-3.42 3.42-3.42h85.6c1.89 0 3.42 1.53 3.42 3.42 0 1.89-1.53 3.42-3.42 3.42z"/><path d="m599.85 234.06h-99.88c-1.89 0-3.42-1.53-3.42-3.42 0-1.89 1.53-3.42 3.42-3.42h99.88c1.89 0 3.42 1.53 3.42 3.42 0 1.89-1.53 3.42-3.42 3.42z"/><path d="m636.52 234.06h-14.35c-1.89 0-3.42-1.53-3.42-3.42 0-1.89 1.53-3.42 3.42-3.42h14.35c1.89 0 3.42 1.53 3.42 3.42 0 1.89-1.53 3.42-3.42 3.42z"/><path d="m612.65 247.9h-91.47c-1.89 0-3.42-1.53-3.42-3.42 0-1.89 1.53-3.42 3.42-3.42h91.47c1.89 0 3.42 1.53 3.42 3.42 0 1.89-1.53 3.42-3.42 3.42z"/><path d="m528.21 261.75h-44.49c-1.89 0-3.42-1.53-3.42-3.42 0-1.89 1.53-3.42 3.42-3.42h44.49c1.89 0 3.42 1.53 3.42 3.42 0 1.89-1.53 3.42-3.42 3.42z"/><path d="m593.38 261.75h-34.29c-1.89 0-3.42-1.53-3.42-3.42 0-1.89 1.53-3.42 3.42-3.42h34.29c1.89 0 3.42 1.53 3.42 3.42 0 1.89-1.53 3.42-3.42 3.42z"/></g><path d="m612.65 275.59h-112.68c-1.89 0-3.42-1.53-3.42-3.42 0-1.89 1.53-3.42 3.42-3.42h112.69c1.89 0 3.42 1.53 3.42 3.42-.01 1.89-1.54 3.42-3.43 3.42z" fill="#0c253d"/><path d="m612.65 289.44h-112.68c-1.89 0-3.42-1.53-3.42-3.42 0-1.89 1.53-3.42 3.42-3.42h112.69c1.89 0 3.42 1.53 3.42 3.42-.01 1.88-1.54 3.42-3.43 3.42z" fill="#76c9ec"/><path d="m373.59 181.59c3.47 0 6.27-2.81 6.27-6.27 0 3.47 2.81 6.27 6.27 6.27-3.47 0-6.27 2.81-6.27 6.27 0-3.46-2.81-6.27-6.27-6.27z" fill="#fff"/><path d="m288.9 54.77c6.21 0 11.24-5.03 11.24-11.24 0 6.21 5.03 11.24 11.24 11.24-6.21 0-11.24 5.03-11.24 11.24 0-6.2-5.03-11.24-11.24-11.24z" fill="#fff"/></svg>