<svg enable-background="new 0 0 700 350" height="350" viewBox="0 0 700 350" width="700" xmlns="http://www.w3.org/2000/svg"><path d="m627.4 287.6c-.9-2.1-2-3.2-3.9-3.3-2.1-.1-3.9 1.5-3.9 3.6l-1.1 58.6c0 .9.7 1.7 1.6 1.7s1.7-.6 1.8-1.6l.2-2.5c5.4-39.8 8-48.9 5.3-56.5z" fill="#7894b0"/><path d="m629.8 234.3c-1.9-6.7-5.7-7.7-8.2-7.4-.2 0-.3 0-.5 0-2.1 0-3.8 1.7-3.7 3.8l2 58.6c0 .9.8 1.7 1.7 1.7.3 0 .6-.1.9-.2 2.1-.7 3.6-2.5 3.9-4.7 1.7-11.5 6.4-43.1 3.9-51.8z" fill="#ebc0a7"/><path d="m604.3 285.5c-2.1-.9-3.6-1-5.1.2-1.6 1.3-1.8 3.8-.4 5.3l38.9 43.9c.6.7 1.7.8 2.4.2s.8-1.6.3-2.4l-1.5-2c-23.2-32.9-27.5-41.4-34.6-45.2z" fill="#7894b0"/><path d="m622.8 236.4c.3-7-3-9-5.5-9.6-.2-.1-.3-.1-.5-.2-2-.7-4.1.5-4.7 2.5l-16.4 56.3c-.3.9.2 1.8 1.1 2.1.3.1.6.1.9 0 2.2 0 4.2-1.3 5.2-3.2 5.3-10.3 19.5-38.8 19.9-47.9z" fill="#7894b0"/><path d="m620.5 344.5c-1.3 0-2.4-.2-3-.5-4.4.6-13.4 2.7-13.1 4.9.1.8 17.6.3 18.8.1.9-.1.5-2.6.2-4.1-.1-.4-.5-.7-.9-.6-.6.1-1.2.2-2 .2z" fill="#30455a"/><path d="m638.5 332.5c0 1.3-.2 2.4-.5 3 .5 4.4 2.4 13.4 4.7 13.2.8-.1.6-17.6.5-18.8-.1-.9-2.6-.6-4.1-.3-.4.1-.7.5-.6.9 0 .5.1 1.2 0 2z" fill="#30455a"/><path d="m632.5 223s.5 29.1-5.2 61.8c0 0 6.9 11.3-3.7 52.8l-6.2.9s1.2-51.1.9-55.2c-.3-4.2-2.5-57.2-1.9-60.1z" fill="#5e6e7f"/><path d="m611 224.6s-18.8 58.5-17.1 62.3 38.4 43.9 38.4 43.9l3.8-6.1s-20.2-31.8-31.3-41.3c0 0 22.9-44.9 25.4-59.9z" fill="#5e6e7f"/><path d="m622.3 147.3c.7-1.2 2-2 3.4-2.1 3.6-.3 10.4-.8 12 .8 2.2 2.1-9.1 4.9-15.8 2z" fill="#ebc0a7"/><path d="m616.1 177.1c3.9 3 6-.7 6.1-.7 1.2-.9 1-3.7-.2-5.1l-28-28.6c-.4-.5-3-.3-3.5.1-.2.1-.3.3-.4.5-.8 1.3.9 3.8 1.7 5.1 4.2 6.2 19.2 24.8 24.3 28.7z" fill="#76c9ec"/><path d="m624.7 144.8c-7.9-2.6-26-5.6-31.3-5.3-4.4.3-4.2 2.9-4.2 3-.3 1.3 1.2 3.3 2.8 3.6l32 2.6z" fill="#76c9ec"/><path d="m635.6 218c.2-1.5.3-3 .5-4.4.1-1 .2-2 .3-2.9.2-2.2.4-4.3.6-6.5.1-1 .2-2.1.2-3 .2-2.3.4-4.9.5-7.1.1-.9.2-2 .2-2.6.1-4.2.4-8.3.2-12.3-.1-2.3.2-3.4-.5-5.7-2-7.1-7.8-9.9-14.5-6-.4.2-.9.6-1.2.9-2.6 2.7-4.7 4.3-4.6 8.7.2 4.9-1.3 11.7-2.4 17-.1.3-.2 1.6-.4 2.3-.2 1-.4 2.3-.6 3.5-.3 1.7-.6 3.6-.9 5.4-.2 1.1-.4 2.3-.5 3.5-.3 2.1-.7 4.2-1 6.3-.1.6-.2 1.2-.3 1.8-.1.4-.2.9-.2 1.3-.2 1-.4 2.2-.6 3.2-.2.9-.4 1.7-.6 2.6-.3 1.2-.6 2.3-.9 3.5 2.6.6 5.2.7 7.8.4 4.4-.6 8.6-1.7 13.1-1.3 1.5.1 2.8.6 4.3 1 .4-2.2.8-4.5 1.1-6.7.2-1.1.3-2 .4-2.9z" fill="#76c9ec"/><path d="m634.4 161.3c-.2.2-3.5 4-4.3 3.8-1.1-.3.5-3.6.5-3.6z" fill="#23394f"/><path d="m622.8 150.7s-.3-2.6 1.2-3.9c1.4-1.2 3.4-2.3 8.8 1 .8.5 1.1 1.4.8 2.3l-.9 2.4z" fill="#23394f"/><path d="m632.2 159c-1.8 3.3-3.5 5.8-6.2 6.5-1 .2-2.1.3-3.3.1-.7-.2-1.5-.5-2.3-.9-2-1.3-2.7-2.8-2.5-4.6.2-2.1 1.4-4.5 2.9-7.2 2.8-5.1 6.8-6.3 9.9-4.6 3.1 1.6 4.3 5.6 1.5 10.7z" fill="#ebc0a7"/><path d="m633.1 158.2-6-1.2c-.2.8-1.6 8.7-1.6 11.7.1.9 1.6 1.5 3.3 1.3 1.5-.2 2.7-1 2.8-1.8 0-1.9.9-7.1 1.5-10z" fill="#ebc0a7"/><path d="m634.1 161.7s-1.6-.1-2.3-1.8c-.9-2.2-1-6.4-.8-8.2.4-3.1 1.6-3.6 1.6-3.6s5.3 2.5 5.8 4.8c.7 3.4-4.3 8.8-4.3 8.8z" fill="#23394f"/><path d="m634.4 160.4c-.6 1.1-2.5 1.9-3.3 1.5s-.5-1.4.1-2.6c.6-1.1 1.8-1.8 2.6-1.4.8.5 1.2 1.4.6 2.5z" fill="#ebc0a7"/><path d="m632 150.7-3.3-1.8c-1.1-.6-2.4-.8-3.6-.5l-1.7.4 3.2-2.3 3.2.4 3.2 2.1z" fill="#23394f"/><path d="m631.2 177.5c-2.7-4.1 1.1-5.9 1.2-6 1-1.1 3.8-.7 5.1.6l26.5 30c.5.4-.2 1.2-.7 1.7-.1.2-.3.3-.5.3-1.3.8-3.3.5-4.6-.3-6.9-4.3-23.5-21-27-26.3z" fill="#76c9ec"/><path d="m627.3 173.1c-2.4 12.3 2.3 23.3-1.6 35.9-1.7 1.3-3.4 2.5-5.1 3.7-1-2-1.9-3.9-2.7-6 5.5-11.9 3.2-22.4 7-33.9.8 0 1.6.2 2.4.3z" fill="#516374"/><path d="m638.8 225.8c-.9-1.1-2.2-1.8-3.6-1.7-3.6 0-10.4.3-11.8 2-2 2.3 9.5 4 15.9.4z" fill="#ebc0a7"/><path d="m636.5 224c5.3-6.4 19-18.6 23.6-21.2 3.9-2.1 5.1.3 5.2.3 1 1 .8 3.5-.5 4.5l-25.7 19.4z" fill="#76c9ec"/><g fill="none"><path d="m319.6 47.5c0 28.6-203.3 8.4-203.3 44.3" stroke="#44576a" stroke-miterlimit="10" stroke-width="2.4642"/><path d="m319.6 47.5c0 28.6 203.3 8.4 203.3 44.3" stroke="#44576a" stroke-miterlimit="10" stroke-width="2.4642"/><path d="m517.4 204c0 28.6 62.3 8.4 62.3 44.3" stroke="#44576a" stroke-miterlimit="10" stroke-width="2.4642"/><path d="m517.4 204c0 28.6-62.3 8.4-62.3 44.3" stroke="#44576a" stroke-miterlimit="10" stroke-width="2.4642"/><path d="m319.6 47.5c0 28.6.5 67.8.5 103.7" stroke="#44576a" stroke-miterlimit="10" stroke-width="2.4642"/></g><path d="m138.7 137.2c6.1 0 11.3-4.5 11.9-10.6.6-6.9-4.8-12.7-11.6-12.7 0 0 0 0-.1 0-.6-5.9-5.5-10.5-11.6-10.5-1.3 0-2.6.2-3.8.6-3.1-6.8-9.9-11.5-17.9-11.5-10.9 0-19.7 8.8-19.7 19.7 0 .6 0 1.2.1 1.7h-.1c-6.8 0-12.2 5.8-11.6 12.7.5 6.1 5.8 10.6 11.9 10.6z" fill="#2e4358"/><path d="m143.5 96.4 3.2-3.2.2-1.3c-5.8-5.3-14.9-4.7-20.2 1.2-1.4 1.6-2.5 3.7-3.1 5.8l1.1-.2 6.3-1 .5-.5c2.8-3.1 7.6-3.5 10.8-.9z" fill="#ea4335"/><path d="m151.2 98.8c-.7-2.7-2.2-5.1-4.3-6.9l-4.4 4.4c1.9 1.5 2.9 3.8 2.9 6.3v.8c2.3 0 4.2 2 3.9 4.4-.2 2-2 3.4-4 3.4h-7.8l-.8.8v4.7l.8.7h7.9c5.7 0 10.3-4.5 10.4-10.2-.1-3.2-1.8-6.5-4.6-8.4" fill="#4285f4"/><path d="m129.5 117.6h7.9v-6.3h-7.9c-.6 0-1.1-.1-1.6-.4l-1.1.3-3.2 3.2-.3 1.1c1.7 1.3 3.9 2.1 6.2 2.1" fill="#34a853"/><path d="m129.5 97c-5.7 0-10.3 4.7-10.2 10.4 0 3.2 1.5 6.2 4 8.1l4.6-4.6c-2.2-1-3-3.6-1.7-5.7.7-1.2 2-1.9 3.4-1.9 1.6 0 3 1 3.6 2.3l4.6-4.6c-2.1-2.5-5.1-4-8.3-4" fill="#fbbc05"/><path d="m73.9 88.3h81.8v54.5h-81.8z" fill="none"/><path d="m343.7 194.4c6.4 0 11.7-5.2 11.7-11.7 0-6.4-5.2-11.7-11.7-11.7 0 0 0 0-.1 0-.6-5.9-5.5-10.5-11.6-10.5-1.3 0-2.6.2-3.8.6-3.1-6.8-9.9-11.5-17.9-11.5-10.9 0-19.7 8.8-19.7 19.7 0 .6 0 1.2.1 1.7h-.1c-6.4 0-11.7 5.2-11.7 11.7 0 6.4 5.2 11.7 11.7 11.7z" fill="#2e4358"/><path d="m332.7 159.1c0 .5.1.9.1 1.1.1.3.2.6.4.9.1.1.1.2.1.3s-.1.3-.2.4l-.8.5c-.1.1-.2.1-.3.1s-.3-.1-.4-.2c-.2-.2-.3-.4-.5-.6-.1-.2-.3-.5-.4-.8-1 1.2-2.3 1.8-3.8 1.8-1.1 0-1.9-.3-2.6-.9-.6-.6-1-1.4-1-2.5s.4-2 1.2-2.6 1.8-1 3.1-1c.4 0 .9 0 1.4.1s1 .2 1.5.3v-.9c0-1-.2-1.7-.6-2.1s-1.1-.6-2.1-.6c-.4 0-.9.1-1.4.2s-.9.3-1.4.4c-.2.1-.4.1-.4.2-.1 0-.2 0-.2 0-.2 0-.3-.1-.3-.4v-.6c0-.2 0-.4.1-.4.1-.1.2-.2.4-.3.4-.2 1-.4 1.6-.6s1.3-.2 2-.2c1.5 0 2.6.3 3.4 1 .7.7 1.1 1.7 1.1 3.2zm-5.2 2c.4 0 .9-.1 1.3-.2.5-.2.9-.4 1.2-.8.2-.2.4-.5.4-.8s.1-.7.1-1.1v-.5c-.4-.1-.8-.2-1.2-.2s-.8-.1-1.2-.1c-.9 0-1.5.2-1.9.5s-.6.8-.6 1.5c0 .6.2 1.1.5 1.4.3.1.8.3 1.4.3zm10.3 1.4c-.2 0-.4 0-.5-.1s-.2-.3-.3-.5l-3-9.9c-.1-.3-.1-.4-.1-.5 0-.2.1-.3.3-.3h1.3c.2 0 .4 0 .5.1s.2.3.3.5l2.2 8.5 2-8.5c.1-.3.1-.4.2-.5s.3-.1.5-.1h1c.2 0 .4 0 .5.1s.2.3.2.5l2 8.6 2.2-8.6c.1-.3.2-.4.3-.5s.3-.1.5-.1h1.2c.2 0 .3.1.3.3v.2c0 .1 0 .2-.1.3l-3.1 9.9c-.1.3-.2.4-.3.5s-.3.1-.5.1h-1.1c-.2 0-.4 0-.5-.1s-.2-.3-.2-.5l-2-8.3-2 8.3c-.1.3-.1.4-.2.5s-.3.1-.5.1zm16.5.3c-.7 0-1.3-.1-2-.2-.6-.2-1.1-.3-1.5-.5-.2-.1-.3-.2-.4-.4-.1-.1-.1-.2-.1-.4v-.7c0-.3.1-.4.3-.4h.2c.1 0 .2.1.3.1.4.2.9.3 1.4.4s1 .2 1.5.2c.8 0 1.4-.1 1.9-.4s.7-.7.7-1.2c0-.4-.1-.7-.3-.9s-.7-.5-1.3-.7l-1.9-.6c-.9-.3-1.6-.7-2.1-1.3-.4-.6-.6-1.2-.6-1.9 0-.5.1-1 .3-1.4s.5-.8.9-1.1.8-.5 1.3-.7 1.1-.2 1.6-.2c.3 0 .6 0 .9.1.3 0 .6.1.8.1.3.1.5.1.7.2s.4.2.5.2c.2.1.3.2.4.3s.1.2.1.4v.6c0 .3-.1.4-.3.4-.1 0-.3-.1-.5-.2-.7-.3-1.6-.5-2.5-.5-.7 0-1.3.1-1.7.4-.4.2-.6.6-.6 1.1 0 .4.1.7.4.9s.7.5 1.4.7l1.8.6c.9.3 1.6.7 2 1.2s.6 1.1.6 1.8c0 .6-.1 1.1-.3 1.5s-.5.8-.9 1.1-.9.6-1.4.7c-.4.6-1 .7-1.6.7z" fill="#fff"/><path clip-rule="evenodd" d="m356.7 169c-4.2 3.1-10.4 4.8-15.6 4.8-7.4 0-14.1-2.7-19.1-7.3-.4-.4 0-.8.4-.6 5.4 3.2 12.2 5.1 19.1 5.1 4.7 0 9.8-1 14.6-3 .7-.3 1.3.5.6 1z" fill="#f90" fill-rule="evenodd"/><path clip-rule="evenodd" d="m358.5 167c-.5-.7-3.6-.3-4.9-.2-.4.1-.5-.3-.1-.6 2.4-1.7 6.4-1.2 6.8-.6.5.6-.1 4.5-2.4 6.4-.3.3-.7.1-.5-.2.5-1.2 1.6-4.1 1.1-4.8z" fill="#f90" fill-rule="evenodd"/><path d="m278.7 145.5h81.8v54.5h-81.8z" fill="none"/><path d="m349 49.3c6.4 0 11.7-5.2 11.7-11.7 0-6.4-5.2-11.7-11.7-11.7 0 0 0 0-.1 0-.6-5.9-5.5-10.5-11.6-10.5-1.3 0-2.6.2-3.8.6-3.1-6.8-9.9-11.5-17.9-11.5-10.9 0-19.7 8.8-19.7 19.7 0 .6 0 1.2.1 1.7h-.1c-6.4 0-11.7 5.2-11.7 11.7 0 6.4 5.2 11.7 11.7 11.7z" fill="#6b7a89"/><path d="m546.7 135c6.4 0 11.7-5.2 11.7-11.7 0-6.4-5.2-11.7-11.7-11.7 0 0 0 0-.1 0-.6-5.9-5.5-10.5-11.6-10.5-1.3 0-2.6.2-3.8.6-3.1-6.8-9.9-11.5-17.9-11.5-10.9 0-19.7 8.8-19.7 19.7 0 .6 0 1.2.1 1.7h-.1c-6.4 0-11.7 5.2-11.7 11.7 0 6.4 5.2 11.7 11.7 11.7z" fill="#2e4358"/><path d="m481.6 86.1h81.8v54.5h-81.8z" fill="none"/><path d="m517 143.9v19.9" fill="none" stroke="#44576a" stroke-miterlimit="10" stroke-width="2.4642"/><path d="m517 218v19.9" fill="none" stroke="#44576a" stroke-miterlimit="10" stroke-width="2.4642"/><path d="m355 30.6v-20.9h-3.9v-1.5h-7.1v1.5 3.7h2.6v3.5h-2.6v1.5h2.6v3.5h-2.6v1.5h2.6v3.5h-2.6v3.4.4h-1.2v-29h-3.6v-1h-10.5v1.1h-3.7v28.8h-2.4v2.2h36.6v-2.2zm-22.2-4.1h-5.1v-5.1h5.1zm0-7.3h-5.1v-5.2h5.1zm0-7.4h-5.1v-5.1h5.1zm7.4 14.7h-5.1v-5.1h5.1zm0-7.3h-5.1v-5.2h5.1zm0-7.4h-5.1v-5.1h5.1zm11.5 15h-3.5v-3.5h3.5zm0-5h-3.5v-3.5h3.5zm0-4.9h-3.5v-3.5h3.5z" fill="#29abe2"/><path d="m549.3 85.6-11.2 9.7-9.6 17.2h8.6zm1.5 2.3-4.8 13.5 9.2 11.6-17.8 3.1h29.3z" fill="#0072c6"/><path d="m497.7 164.6h38.7v38.7h-38.7z" fill="#23394f"/><path d="m454.1 276.8c10.7 0 19.3-8.7 19.3-19.3 0-10.7-8.7-19.3-19.3-19.3-10.7 0-19.3 8.7-19.3 19.3-.1 10.7 8.6 19.3 19.3 19.3z" fill="#23394f"/><path d="m516.8 276.8c10.7 0 19.3-8.7 19.3-19.3 0-10.7-8.7-19.3-19.3-19.3-10.7 0-19.3 8.7-19.3 19.3-.1 10.7 8.6 19.3 19.3 19.3z" fill="#23394f"/><path d="m560.1 238.1h38.7v38.7h-38.7z" fill="#23394f"/><path d="m320.7 266.1c0 28.6 62.3 8.4 62.3 44.3" fill="none" stroke="#44576a" stroke-miterlimit="10" stroke-width="2.4642"/><path d="m320.7 266.1c0 28.6-62.3 8.4-62.3 44.3" fill="none" stroke="#44576a" stroke-miterlimit="10" stroke-width="2.4642"/><path d="m320.3 206v19.9" fill="none" stroke="#44576a" stroke-miterlimit="10" stroke-width="2.4642"/><path d="m320.3 280.2v19.8" fill="none" stroke="#44576a" stroke-miterlimit="10" stroke-width="2.4642"/><path d="m300.9 226.7h38.7v38.7h-38.7z" fill="#23394f"/><path d="m238 300.3h38.7v38.7h-38.7z" fill="#23394f"/><path d="m320 339c10.7 0 19.3-8.7 19.3-19.3 0-10.7-8.7-19.3-19.3-19.3-10.7 0-19.3 8.7-19.3 19.3 0 10.6 8.6 19.3 19.3 19.3z" fill="#23394f"/><path d="m363.4 300.3h38.7v38.7h-38.7z" fill="#23394f"/><path d="m116.9 205.6c0 28.6 62.3 8.4 62.3 44.3" fill="none" stroke="#44576a" stroke-miterlimit="10" stroke-width="2.4642"/><path d="m116.9 205.6c0 28.6-62.3 8.4-62.3 44.3" fill="none" stroke="#44576a" stroke-miterlimit="10" stroke-width="2.4642"/><path d="m116.4 145.5v19.9" fill="none" stroke="#44576a" stroke-miterlimit="10" stroke-width="2.4642"/><path d="m97.1 166.2h38.7v38.7h-38.7z" fill="#23394f"/><path d="m34.2 239.8h38.7v38.7h-38.7z" fill="#23394f"/><path d="m159.5 239.8h38.7v38.7h-38.7z" fill="#23394f"/></svg>