<svg enableBackground="new 0 0 700 350" height="350" viewBox="0 0 700 350" width="700" xmlns="http://www.w3.org/2000/svg"><g fill="#44576a"><path d="m395.37 190.62 7.43-16.56h-14.86z"/><path d="m327.67 88.92-7.43 16.57h14.86z"/><path d="m327.67 55.19-7.43 16.57h14.86z"/><path d="m395.37 235.43 7.43-16.56h-14.86z"/><path d="m395.37 212.16 7.43-16.57h-14.86z"/><path d="m395.37 256.97 7.43-16.57h-14.86z"/><path d="m395.37 280.24 7.43-16.57h-14.86z"/></g><path d="m640.76 144.45v5.27c0 44.83-36.34 81.17-81.17 81.17h-60.34v67.2c0 28.67-23.24 51.91-51.91 51.91-28.67 0-51.91-23.24-51.91-51.91v-264.22c.01-18.7-15.16-33.87-33.86-33.87-18.71 0-33.87 15.17-33.87 33.87v237.25c0 43.56-35.31 78.87-78.87 78.87-43.56 0-78.87-35.31-78.87-78.87v-141.83h-9.54c-57.21 0-103.59 46.38-103.59 103.59" fill="none" stroke="#44576a" strokeMiterlimit="10" strokeWidth="2.3816"/><path d="m147.86 91.56h161.46v88.07h-161.46z" fill="#23394f"/><path d="m160.87 107.36h64.69v38.13h-64.69z" fill="#1b3349"/><path d="m231.61 107.36h64.69v1.89h-64.69z" fill="#1b3349"/><path d="m231.61 116.42h64.69v1.89h-64.69z" fill="#1b3349"/><path d="m231.61 125.48h64.69v1.89h-64.69z" fill="#1b3349"/><path d="m231.61 134.54h64.69v1.89h-64.69z" fill="#1b3349"/><path d="m231.61 143.6h64.69v1.89h-64.69z" fill="#1b3349"/><path d="m231.61 152.66h64.69v1.89h-64.69z" fill="#b4bdc5"/><path d="m231.61 161.72h64.69v1.89h-64.69z" fill="#b4bdc5"/><path d="m160.87 152.66h80.02v1.89h-80.02z" fill="#b4bdc5"/><path d="m160.87 161.72h80.02v1.89h-80.02z" fill="#b4bdc5"/><path d="m154.39 99.94c0-1.74 1.41-3.15 3.15-3.15s3.15 1.41 3.15 3.15-1.41 3.15-3.15 3.15-3.15-1.41-3.15-3.15z" fill="#a0abb6"/><path d="m165.58 99.94c0-1.74 1.41-3.15 3.15-3.15s3.15 1.41 3.15 3.15-1.41 3.15-3.15 3.15-3.15-1.41-3.15-3.15z" fill="#1b3349"/><path d="m176.77 99.94c0-1.74 1.41-3.15 3.15-3.15s3.15 1.41 3.15 3.15-1.41 3.15-3.15 3.15-3.15-1.41-3.15-3.15z" fill="#76c9ec"/><path d="m213.02 205.58h161.46v88.07h-161.46z" fill="#23394f"/><ellipse cx="293.75" cy="248.48" fill="#fff" rx="14.16" ry="14.16" transform="matrix(.1602 -.9871 .9871 .1602 1.428 498.6405)"/><path d="m362.37 282.84h-137.23c-.93 0-1.68-.75-1.68-1.68 0-.93.75-1.68 1.68-1.68h137.23c.93 0 1.68.75 1.68 1.68 0 .93-.75 1.68-1.68 1.68z" fill="#fff"/><path d="m301.8 248.48-12.95-7.43v14.86z" fill="#a0abb6"/><path d="m219.56 213.96c0-1.74 1.41-3.15 3.15-3.15s3.15 1.41 3.15 3.15-1.41 3.15-3.15 3.15c-1.74-.01-3.15-1.41-3.15-3.15z" fill="#a0abb6"/><circle cx="233.9" cy="213.96" fill="#1b3349" r="3.15"/><circle cx="245.09" cy="213.96" fill="#76c9ec" r="3.15"/><path d="m256.46 284.11h-10.07c-.72 0-1.3-.58-1.3-1.3v-3.19c0-.72.58-1.3 1.3-1.3h10.07c.72 0 1.3.58 1.3 1.3v3.19c0 .72-.58 1.3-1.3 1.3z" fill="#a0abb6"/><path d="m418.52 179.34h161.46v88.07h-161.46z" fill="#23394f"/><path d="m428.54 196.34h41.46v24.91h-41.46z" fill="#1b3349"/><path d="m475.96 196.34h93.49v1.9h-93.49z" fill="#1b3349"/><path d="m475.96 204.01h93.49v1.9h-93.49z" fill="#1b3349"/><path d="m475.96 211.68h93.49v1.9h-93.49z" fill="#1b3349"/><path d="m475.96 219.35h69.64v1.9h-69.64z" fill="#1b3349"/><path d="m475.96 231.24h93.49v1.9h-93.49z" fill="#b4bdc5"/><path d="m475.96 238.91h93.49v1.9h-93.49z" fill="#b4bdc5"/><path d="m475.96 246.58h93.49v1.9h-93.49z" fill="#b4bdc5"/><path d="m475.96 254.25h69.64v1.9h-69.64z" fill="#b4bdc5"/><path d="m428.54 231.24h41.46v24.91h-41.46z" fill="#b4bdc5"/><path d="m425.06 187.72c0-1.74 1.41-3.15 3.15-3.15s3.15 1.41 3.15 3.15-1.41 3.15-3.15 3.15-3.15-1.41-3.15-3.15z" fill="#a0abb6"/><path d="m436.25 187.72c0-1.74 1.41-3.15 3.15-3.15s3.15 1.41 3.15 3.15-1.41 3.15-3.15 3.15-3.15-1.41-3.15-3.15z" fill="#1b3349"/><circle cx="450.58" cy="187.72" fill="#76c9ec" r="3.15"/><path d="m345.68 47.04h193.71v105.66h-193.71z" fill="#23394f"/><path d="m359.42 94.29h46.15v46.15h-46.15z" fill="#fff"/><path d="m419.25 94.29h46.15v46.15h-46.15z" fill="#fff"/><path d="m478.77 94.29h46.15v46.15h-46.15z" fill="#fff"/><path d="m352.22 55.42c0-1.74 1.41-3.15 3.15-3.15s3.15 1.41 3.15 3.15-1.41 3.15-3.15 3.15c-1.74-.01-3.15-1.41-3.15-3.15z" fill="#a0abb6"/><path d="m363.41 55.42c0-1.74 1.41-3.15 3.15-3.15s3.15 1.41 3.15 3.15-1.41 3.15-3.15 3.15c-1.74-.01-3.15-1.41-3.15-3.15z" fill="#1b3349"/><path d="m374.6 55.42c0-1.74 1.41-3.15 3.15-3.15s3.15 1.41 3.15 3.15-1.41 3.15-3.15 3.15c-1.74-.01-3.15-1.41-3.15-3.15z" fill="#76c9ec"/><path d="m441.23 96.81h2.2v41.1h-2.2z" fill="#bdc4cc" transform="matrix(.7071 -.7071 .7071 .7071 46.5633 347.1479)"/><path d="m441.23 96.81h2.2v41.1h-2.2z" fill="#bdc4cc" transform="matrix(.7071 .7071 -.7071 .7071 212.5454 -278.3959)"/><path d="m500.74 96.81h2.2v41.1h-2.2z" fill="#bdc4cc" transform="matrix(.7071 -.7071 .7071 .7071 63.9939 389.229)"/><path d="m500.74 96.81h2.2v41.1h-2.2z" fill="#bdc4cc" transform="matrix(.7071 .7071 -.7071 .7071 229.976 -320.477)"/><path d="m381.39 96.81h2.2v41.1h-2.2z" fill="#bdc4cc" transform="matrix(.7071 -.7071 .7071 .7071 29.0373 304.8364)"/><path d="m381.39 96.81h2.2v41.1h-2.2z" fill="#bdc4cc" transform="matrix(.7071 .7071 -.7071 .7071 195.0194 -236.0844)"/><circle cx="327.52" cy="168.61" fill="#405366" r="4.52"/><circle cx="327.52" cy="147.48" fill="#405366" r="4.52"/><ellipse cx="327.52" cy="126.35" fill="#405366" rx="4.52" ry="4.52" transform="matrix(.2298 -.9732 .9732 .2298 129.3007 416.0735)"/><path d="m640.74 129.3-9.05 20.17h18.1z" fill="#405366"/><circle cx="56.81" cy="232.88" fill="#405366" r="6.6"/><path d="m115.09 289.01c.89-2.03 1.96-3.08 3.8-3.18 2.03-.11 3.74 1.49 3.78 3.52l1.05 56.66c.02.89-.68 1.64-1.57 1.69s-1.66-.62-1.74-1.51l-.21-2.44c-5.21-38.54-7.7-47.4-5.11-54.74z" fill="#7894b0"/><path d="m112.81 237.49c1.86-6.52 5.47-7.4 7.91-7.15.17-.02.34-.04.51-.04 2.03 0 3.66 1.68 3.59 3.71l-1.91 56.64c-.03.89-.76 1.6-1.66 1.6-.3 0-.58-.08-.82-.22-1.98-.68-3.46-2.41-3.8-4.53-1.74-11.01-6.24-41.53-3.82-50.01z" fill="#ebc0a7"/><path d="m137.43 287c2.03-.9 3.52-.95 4.95.23 1.57 1.29 1.75 3.63.4 5.15l-37.55 42.45c-.59.67-1.61.75-2.3.18s-.8-1.58-.26-2.29l1.49-1.94c22.24-31.92 26.4-40.13 33.27-43.78z" fill="#7894b0"/><path d="m119.57 239.52c-.27-6.78 2.89-8.74 5.29-9.26.15-.07.31-.14.47-.2 1.93-.64 4 .46 4.57 2.41l15.86 54.41c.25.86-.22 1.76-1.07 2.04-.28.09-.58.1-.85.05-2.1-.03-4.04-1.21-5.02-3.12-5.1-9.93-18.9-37.52-19.25-46.33z" fill="#7894b0"/><path d="m121.77 344.02c1.22 0 2.29-.18 2.93-.46 4.25.59 12.9 2.59 12.63 4.71-.1.78-16.98.27-18.16.14-.83-.1-.49-2.54-.22-3.98.08-.41.47-.66.88-.59.56.12 1.23.18 1.94.18z" fill="#30455a"/><path d="m104.35 332.39c.02 1.22.22 2.28.51 2.92-.52 4.26-2.37 12.95-4.5 12.71-.78-.09-.56-16.98-.45-18.15.08-.83 2.53-.53 3.97-.28.41.07.67.46.6.87-.09.55-.14 1.21-.13 1.93z" fill="#30455a"/><path d="m110.22 226.59s-.44 28.08 5.04 59.76c0 0-6.7 10.88 3.61 51.07l5.97.89s-1.16-49.35-.9-53.38 2.43-55.26 1.83-58.06z" fill="#5e6e7f"/><path d="m131.01 228.17s18.13 56.55 16.5 60.19c-1.62 3.64-37.08 42.44-37.08 42.44l-3.69-5.87s19.57-30.7 30.27-39.9c0 0-22.15-43.38-24.52-57.9z" fill="#5e6e7f"/><path d="m120.02 153.44c-.71-1.16-1.93-1.91-3.28-2.04-3.47-.33-10.03-.74-11.58.74-2.13 2.04 8.76 4.76 15.27 1.96z" fill="#ebc0a7"/><path d="m126.09 182.2c-3.77 2.86-5.8-.65-5.89-.72-1.14-.85-.93-3.62.21-4.91l27.04-27.62c.39-.49 2.92-.32 3.42.05.17.13.29.29.37.47.82 1.21-.86 3.69-1.68 4.94-4.08 6.11-18.57 24.06-23.47 27.79z" fill="#76c9ec"/><path d="m117.73 151.07c7.67-2.51 25.11-5.46 30.21-5.14 4.23.27 4.01 2.83 4.04 2.94.29 1.27-1.18 3.23-2.71 3.45l-30.92 2.56z" fill="#76c9ec"/><path d="m107.16 221.74c-.17-1.41-.32-2.85-.47-4.27-.09-.93-.18-1.9-.27-2.82-.2-2.08-.4-4.2-.59-6.25-.09-.97-.17-1.99-.24-2.9-.18-2.25-.36-4.7-.48-6.82-.05-.91-.15-1.9-.17-2.52-.09-4.05-.34-8.03-.18-11.87.09-2.24-.18-3.26.47-5.55 1.94-6.85 7.52-9.59 14.02-5.79.35.2.92.59 1.17.85 2.56 2.63 4.57 4.11 4.41 8.41-.18 4.73 1.29 11.29 2.28 16.41.06.31.23 1.52.35 2.21.16.97.37 2.2.56 3.37.26 1.64.58 3.48.84 5.23.16 1.06.35 2.25.53 3.37.32 1.98.64 4.06.97 6.06.09.56.19 1.14.29 1.7.08.43.15.85.23 1.28.18 1.01.38 2.08.58 3.07.18.87.37 1.65.58 2.49.28 1.13.57 2.25.87 3.38-2.49.61-5.04.71-7.57.37-4.25-.58-8.34-1.64-12.63-1.27-1.44.12-2.74.6-4.12.94-.41-2.15-.77-4.31-1.08-6.49-.14-.85-.25-1.72-.35-2.59z" fill="#76c9ec"/><path d="m108.34 167.01c.2.18 3.39 3.87 4.15 3.68 1.03-.26-.48-3.46-.48-3.46z" fill="#23394f"/><path d="m119.6 156.72s.25-2.52-1.14-3.75c-1.31-1.17-3.27-2.21-8.48.93-.74.45-1.06 1.37-.76 2.18l.86 2.31z" fill="#23394f"/><path d="m110.52 164.78c1.73 3.15 3.39 5.64 6.02 6.28.92.22 2.01.31 3.15.06.72-.16 1.46-.44 2.2-.91 1.94-1.21 2.57-2.7 2.41-4.44-.18-2-1.39-4.33-2.83-6.97-2.71-4.95-6.54-6.13-9.57-4.48-3.01 1.65-4.09 5.51-1.38 10.46z" fill="#ebc0a7"/><path d="m109.59 163.99 5.81-1.18c.16.8 1.56 8.38 1.56 11.3-.12.91-1.55 1.47-3.17 1.25-1.46-.2-2.59-.96-2.71-1.78h-.01c-.01-1.75-.92-6.81-1.48-9.59z" fill="#ebc0a7"/><path d="m108.62 167.32s1.55-.12 2.24-1.77c.91-2.17 1.01-6.17.77-7.89-.41-3.02-1.5-3.46-1.5-3.46s-5.16 2.43-5.63 4.63c-.69 3.3 4.12 8.49 4.12 8.49z" fill="#23394f"/><path d="m108.37 166.12c.58 1.08 2.39 1.87 3.17 1.45s.5-1.4-.08-2.47-1.76-1.74-2.54-1.32c-.77.42-1.13 1.27-.55 2.34z" fill="#ebc0a7"/><path d="m110.71 156.71 3.21-1.72c1.07-.58 2.32-.74 3.51-.48l1.62.36-3.1-2.19-3.1.42-3.14 2z" fill="#23394f"/><path d="m111.43 182.6c2.58-3.97-1.07-5.73-1.15-5.83-.93-1.07-3.67-.67-4.89.56l-25.6 28.97c-.46.43.23 1.2.64 1.67.14.16.31.27.49.33 1.27.73 3.19.5 4.46-.3 6.62-4.13 22.69-20.24 26.05-25.4z" fill="#76c9ec"/><path d="m115.25 178.4c2.36 11.91-2.19 22.48 1.53 34.66 1.6 1.25 3.29 2.39 4.96 3.55.94-1.91 1.86-3.8 2.6-5.8-5.35-11.53-3.1-21.63-6.79-32.78-.77.1-1.53.24-2.3.37z" fill="#516374"/><path d="m104.1 229.29c.83-1.07 2.12-1.7 3.48-1.69 3.49.03 10.06.31 11.44 1.95 1.91 2.26-9.21 3.82-15.39.35z" fill="#ebc0a7"/><path d="m106.35 227.59c-5.15-6.21-18.33-18.01-22.82-20.46-3.72-2.03-4.9.26-4.98.33-.92.92-.73 3.36.45 4.36l24.79 18.65z" fill="#76c9ec"/><path d="m277.3 234.09h33.58v31.23h-33.58z" fill="#2e4358"/><path d="m282.85 241.04v-13.29c0-6.21 5.03-11.24 11.24-11.24 6.21 0 11.24 5.03 11.24 11.24v13.29" fill="none" stroke="#2e4358" strokeMiterlimit="10" strokeWidth="2.3263"/><circle cx="294.09" cy="248.09" fill="#a0abb6" r="2.36"/><path d="m294.09 256.26c-.64 0-1.16-.52-1.16-1.16v-6.36c0-.64.52-1.16 1.16-1.16.64 0 1.16.52 1.16 1.16v6.36c0 .64-.52 1.16-1.16 1.16z" fill="#a0abb6"/></svg>