<svg enableBackground="new 0 0 700 350" height="350" viewBox="0 0 700 350" width="700" xmlns="http://www.w3.org/2000/svg"><g fill="none" stroke="#3b4f62" strokeMiterlimit="10" strokeWidth=".805"><path d="m397.88 206.49h64.63v25.34h-64.63z" stroke-dasharray="3.2199" strokeLinecap="round" strokeLinejoin="round"/><path d="m432.09 206.28v-30.41" stroke-dasharray="3.2199" strokeLinecap="round" strokeLinejoin="round"/><path d="m401.07 262.9h65.92v25.34h-65.92z" stroke-dasharray="3.2199" strokeLinecap="round" strokeLinejoin="round"/><path d="m432.95 262.7v-30.41" stroke-dasharray="3.2199" strokeLinecap="round" strokeLinejoin="round"/><path d="m340.86 12.67v72.49"/><path d="m218.47 84.28v-24.04h254.69v80.8"/><path d="m432.09 165.08v-24.04h73.15v33.42"/></g><path d="m273.74 0h134.25v25.34h-134.25z" fill="#fff"/><path d="m304.73 9.96h72.27v5.42h-72.27z" fill="#b7bfc8" transform="matrix(.9964 -.0848 .0848 .9964 .153 28.944)"/><path d="m273.74 81.13h134.25v25.34h-134.25z" fill="#a0abb6"/><path d="m418.43 84.32h111.13v25.34h-111.13z" fill="#fff" transform="matrix(.9918 -.1279 .1279 .9918 -8.513 61.4239)"/><path d="m152.41 81.13h111.13v25.34h-111.13z" fill="#76c9ec"/><path d="m397.88 163.2h65.82v25.34h-65.82z" fill="#76c9ec"/><path d="m473.16 163.2h65.92v25.34h-65.92z" fill="#a0abb6"/><path d="m504.96 185.34c-.86 0-1.55.69-1.55 1.55v15.21h-22.28v-15.21c0-.86-.69-1.55-1.55-1.55s-1.55.69-1.55 1.55v161.43c0 .86.69 1.55 1.55 1.55s1.55-.69 1.55-1.55v-13.4h22.28v13.4c0 .86.69 1.55 1.55 1.55s1.55-.69 1.55-1.55v-161.43c0-.86-.69-1.55-1.55-1.55zm-23.83 81.47v-12.79h22.28v12.79zm22.28 3.39v12.79h-22.28v-12.79zm-22.28-19.57v-12.79h22.28v12.79zm0 35.74h22.28v12.79h-22.28zm22.28-51.92h-22.28v-12.79h22.28zm-22.28 68.1h22.28v12.79h-22.28zm22.28-97.07v12.79h-22.28v-12.79zm-22.28 126.05v-12.79h22.28v12.79z" fill="#6dd9fd"/><path d="m288.69 60.16c-2.06-3.89-2.17-8.52-.32-12.51 4.75-10.25 14.36-29.27 21.05-31.16 9.21-2.61-1.04 32.3-19.56 45.89z" fill="#f0d0be"/><path d="m194.17 158.85c-14.56 4.85-8.86 16.69-8.85 17.08.2 4.59 7.96 9.12 13.53 8.43l123.34-21.76c2.02-.16 1.82-3.5 1.73-5.52-.03-.68-.24-1.3-.58-1.84-1.74-4.41-7.09-7.7-11.91-8.25-25.07-2.87-98.33 5.55-117.26 11.86z" fill="#30455a"/><path d="m286.49 57.87c2.48 26.02 16.33 81.64 23.9 96.39 6.27 12.23 13.61 8.24 13.96 8.17 4.14-.79 8.08-7.68 6.74-12.52l-32.47-95.11z" fill="#30455a"/><path d="m236.84 196.8c.37-20.88-6.62-32.52-14.66-38.85-.56-.44-1.13-.86-1.7-1.24-1.44-.98-2.88-1.8-4.26-2.49-11.95-6.46-24.14-8.47-34.62-6.06-1.66.39-3.28.88-4.85 1.48-9.38 3.54-16.97 11.02-21.21 22.41-3.16 8.45-3.02 15.36-2.9 26.97.32 40.01-3.9 94.85-11.34 146.02h106.68c-5.96-51.31-11.77-111.29-11.14-148.24z" fill="#30455a"/><path d="m231.46 129.3s2.41-9.85-2.88-17.69-7.12 2.09-7.12 2.09z" fill="#23394f"/><path d="m171.87 128.68c.7.66 11.96 13.81 14.74 13.17 3.81-.88-1.34-12.25-1.34-12.25z" fill="#23394f"/><path d="m215.25 93.7s1.6-8.82-3.11-13.45c-4.47-4.4-11.32-8.47-31.26 1.5-2.85 1.42-4.26 4.59-3.37 7.52l2.51 8.3z" fill="#23394f"/><path d="m180.1 120.91c5.93 11.22 11.72 20.07 21.28 22.45 3.35.84 7.3 1.18 11.54.35 2.64-.52 5.4-1.5 8.18-3.11 7.26-4.19 9.74-9.41 9.38-15.57-.41-7.06-4.56-15.36-9.53-24.76-9.31-17.61-23.19-21.95-34.47-16.25-11.29 5.69-15.69 19.28-6.38 36.89z" fill="#f0d0be"/><path d="m180.68 119.58 21.63-2.26c.33 2.84 2.95 29.91 1.98 40.13-.75 3.15-6.14 4.65-12.02 3.35-5.29-1.17-9.15-4.21-9.34-7.1h-.03c.59-6.13-1.09-24.19-2.22-34.12z" fill="#f0d0be"/><path d="m172.85 129.77s5.68-.35 8.41-6.13c3.6-7.62 4.43-21.75 3.78-27.82-1.15-10.69-5.08-12.28-5.08-12.28s-19.18 8.34-21.16 16.1c-2.95 11.6 14.05 30.13 14.05 30.13z" fill="#23394f"/><path d="m172.07 125.55c2 3.83 8.53 6.73 11.44 5.28 2.9-1.45 2.01-4.91.01-8.74s-6.22-6.23-9.12-4.78c-2.91 1.45-4.33 4.41-2.33 8.24z" fill="#f0d0be"/><path d="m182.77 91.81 12.19-5.37c4.09-1.8 8.69-2.14 12.96-.94l5.8 1.62-10.74-8.38-11.44.82-12.03 6.38z" fill="#23394f"/><path d="m180.38 112.32 17.72 24.31c1.87 2.57 5.08 3.76 8.18 3.05l3.55-.82c2.19-.51 3.37-2.89 2.44-4.93l-2.53-5.59c-.57-1.25-.24-2.72.81-3.62l10.38-8.86c1.11-.95 2.73-.99 3.89-.1l4.81 3.7c4.74 3.66 5.15 10.67.85 14.84l-5.96 5.8c-1.27 1.24-2.83 2.14-4.53 2.64-.13.04-.25.08-.39.11l-.23.05h-.01l-2.74.63-8.97 2.07c-5.47 1.27-11.17-.86-14.48-5.4l-17.72-24.31z" fill="#23394f"/><path d="m180.58 179.01c8.91-13.63-3.25-18.95-3.51-19.24-3.06-3.43-12.31-1.67-16.45 2.64l-87.7 100.48c-1.56 1.49.72 3.95 2.07 5.45.45.5 1.02.85 1.63 1.03 4.22 2.24 10.7 1.16 15.01-1.67 22.44-14.78 77.36-70.97 88.95-88.69z" fill="#30455a"/><path d="m121.92 239.1h165.08v25.34h-165.08z" fill="#fff" transform="matrix(-.6475 .7621 -.7621 -.6475 528.7204 258.9885)"/><path d="m98.14 239.1h165.08v25.34h-165.08z" fill="#fff" transform="matrix(-.5 .866 -.866 -.5 489.0563 221.1921)"/><path d="m89.33 249.41h165.08v25.34h-165.08z" fill="#76c9ec" transform="matrix(-.1332 .9911 -.9911 -.1332 454.497 126.6406)"/><path d="m178.09 284.28c-.01-4.4 2.05-8.55 5.54-11.22 8.98-6.85 26.34-19.2 33.15-17.76 9.36 1.98-15.98 28.1-38.69 31.49z" fill="#f0d0be"/><path d="m181.93 275.19c-24.81-8.23-81.29-18.01-97.83-17.04-13.72.8-13.03 9.12-13.11 9.47-.95 4.11 3.77 10.5 8.73 11.22l100.13 8.69z" fill="#30455a"/><path d="m292.98 345.89s-.77 2.81-.29 2.97 11.73.53 12.52.03c.8-.5-1.62-1.3-1.62-1.3s-5.31-1.42-8.37-1.72c0 0-2.25-.14-2.24.02z" fill="#f0d0be"/><path d="m305.11 309.02c1.08-1 2-1.36 3.16-.93 1.26.47 1.89 1.89 1.38 3.14l-14.3 34.81c-.23.55-.85.82-1.4.61-.56-.21-.85-.82-.66-1.38l.51-1.54c6.97-24.87 7.79-30.92 11.31-34.71z" fill="#f0d0be"/><path d="m285.9 282.44c-1.15-4.35.62-6.08 2.1-6.76.09-.07.18-.14.28-.2 1.16-.69 2.66-.28 3.31.9l18.1 32.99c.29.52.11 1.17-.4 1.48-.17.1-.36.15-.54.15-1.36.28-2.79-.2-3.7-1.3-4.75-5.69-17.66-21.59-19.15-27.26z" fill="#f0d0be"/><path d="m296.85 345.92c-.42.28-1.29.49-2.3.52-.55.01-1.06-.03-1.49-.11-.31-.06-.62.14-.66.45-.16 1.06-.32 2.69.25 2.74.86.08 13.15.14 13.2-.43.16-1.52-5.82-2.78-9-3.17z" fill="#30455a"/><path d="m267.82 345.89s-.77 2.81-.29 2.97 11.73.53 12.52.03c.8-.5-1.62-1.3-1.62-1.3s-5.31-1.42-8.37-1.72c.01 0-2.24-.14-2.24.02z" fill="#f0d0be"/><path d="m284.57 311.6c1.2-.85 2.17-1.07 3.25-.49 1.19.64 1.61 2.14.93 3.3l-18.94 32.51c-.3.51-.95.7-1.47.42s-.73-.93-.47-1.46l.72-1.46c10.34-23.66 11.98-29.55 15.98-32.82z" fill="#f0d0be"/><path d="m275.31 279.09c.24-4.5 2.44-5.6 4.06-5.8.1-.04.21-.08.32-.1 1.32-.3 2.62.55 2.88 1.87l7.17 36.94c.11.58-.26 1.15-.83 1.28-.19.04-.39.03-.56-.02-1.38-.15-2.6-1.05-3.13-2.37-2.78-6.87-10.22-25.95-9.91-31.8z" fill="#f0d0be"/><path d="m271.69 345.92c-.42.28-1.29.49-2.3.52-.55.01-1.06-.03-1.49-.11-.31-.06-.62.14-.66.45-.16 1.06-.32 2.69.25 2.74.86.08 13.15.14 13.2-.43.17-1.52-5.82-2.78-9-3.17z" fill="#30455a"/><path d="m275.31 279.09s-2.9 2.55 8.87 31.7c0 0-4.81 3.16-14.53 29.26l4.76.71s16.55-24.76 16.31-28.33-5.18-27.26-5.18-27.26 8.63 15.71 17.44 24.16c0 0-5.22 10-9.75 31.43h4.99s12.14-28.17 12.26-29.68-14.03-28.53-17.25-31.15-4.13-6.81-4.13-6.81z" fill="#76c9ec"/><path d="m301.66 220.4c-.62-.47-.97-1.21-.97-1.98.01-1.99.16-5.74 1.09-6.54 1.28-1.09 2.2 5.25.23 8.79z" fill="#f0d0be"/><path d="m288.5 240.53c-2.36 1.32-.99 3.18-.97 3.25.19.79 1.68 1.32 2.62 1.02l20.64-7.82c.34-.09.2-.67.12-1.01-.03-.12-.08-.22-.16-.3-.45-.71-1.48-1.1-2.33-1.04-4.44.32-16.85 4.19-19.92 5.9z" fill="#51d2fd"/><path d="m300.93 220.04c1.25 4.44 5.39 13.65 7.16 15.97 1.47 1.92 2.62 1 2.68.98.69-.27 1.16-1.59.78-2.38l-8.61-15.48z" fill="#51d2fd"/><path d="m295.05 282.47c-.1.02-.21.03-.33.05-3.33.38-6.36-1.89-6.52-4.82l-.14-2.45-.26 2.86c-.2 2.23-2.3 3.92-4.87 3.93-3.3.02-7.55.03-9.64-.05 2.51-11.09 4.15-25.77 4.2-35.5.01-2.05 0-3.27.57-4.75.77-2 2.13-3.3 3.79-3.9.28-.1.56-.19.86-.25 1.85-.4 4-.02 6.09 1.15.24.12.49.27.75.45.1.07.2.14.3.22 1.4 1.13 2.61 3.2 2.49 6.88-.27 9.2 1.6 26.5 2.71 36.18z" fill="#6dd9fd"/><path d="m289.55 239.2-.71 5.84-.93 7.72-2.56-7.49-2.63-7.67c1.85-.4 4-.02 6.09 1.15.24.12.49.27.74.45z" fill="#76c9ec"/><path d="m288.84 245.04-.93 7.72-2.56-7.49.55-4.68 1.42.13z" fill="#fff"/><path d="m288.25 253.63-5.59-16.21-1.81 3.84 2.4 1.81-1.78 2.09z" fill="#4b5d6f"/><path d="m287.06 255.7 2.57-16.96 2.47 3.46-2.03 2.21 2.13 1.73z" fill="#4b5d6f"/><path d="m278.04 271.23h5.7v.47h-5.7z" fill="#637282" transform="matrix(-.9959 -.0908 .0908 -.9959 535.9752 567.3066)"/><path d="m288.22 258.71c.03-.32-.21-.61-.53-.64s-.61.21-.64.53.21.61.53.64.61-.2.64-.53z" fill="#637282"/><path d="m288.25 264.82c.03-.32-.21-.61-.53-.64s-.61.21-.64.53.21.61.53.64c.33.03.61-.21.64-.53z" fill="#637282"/><path d="m288.29 270.92c.03-.32-.21-.61-.53-.64s-.61.21-.64.53.21.61.53.64.61-.21.64-.53z" fill="#637282"/><path d="m277.38 243.86c2.43 1.52 3.33-.64 3.38-.69.59-.55.25-2.17-.52-2.89l-18.01-15.11c-.27-.27-.69.14-.95.38-.09.08-.15.18-.18.29-.38.75-.17 1.89.35 2.64 2.68 3.92 12.77 13.4 15.93 15.38z" fill="#51d2fd"/><path d="m273.65 213.58c.23-.74.8-1.33 1.53-1.59 1.87-.68 5.45-1.83 6.51-1.23 1.47.83-4.17 3.88-8.17 3.24z" fill="#f0d0be"/><path d="m273.78 212.71c-3.7 2.74-10.85 9.89-12.38 12.37-1.28 2.06-.01 2.8.03 2.85.5.55 1.89.52 2.5-.12l11.41-13.55z" fill="#51d2fd"/><path d="m282.97 235.33c.14.07 2.58 1.62 2.98 1.38.54-.32-.86-1.88-.86-1.88z" fill="#23394f"/><path d="m287.6 227.58s-.29-1.47-1.28-1.94c-.94-.44-2.23-.7-4.66 1.97-.35.38-.37.96-.06 1.37l.88 1.16z" fill="#23394f"/><path d="m283.82 233.7c1.52 1.5 2.88 2.63 4.49 2.54.56-.03 1.19-.17 1.8-.5.38-.21.75-.5 1.1-.89.9-1.02 1-1.97.62-2.93-.44-1.1-1.53-2.22-2.8-3.48-2.38-2.35-4.75-2.37-6.19-.91-1.44 1.44-1.4 3.82.98 6.17z" fill="#f0d0be"/><path d="m283.63 232.46 3.49-.37c.05.48.45 5.03.28 6.75-.12.53-.99.78-1.94.56-.85-.2-1.47-.71-1.5-1.2.09-1.02-.16-4.06-.33-5.74z" fill="#f0d0be"/><path d="m283.18 235.46s.86-.33.97-1.38c.15-1.39-.48-3.67-.9-4.61-.75-1.64-1.44-1.71-1.44-1.71s-2.52 2.26-2.41 3.59c.16 1.98 3.78 4.11 3.78 4.11z" fill="#23394f"/><path d="m282.83 234.82c.51.51 1.68.66 2.05.29s.05-.88-.47-1.39c-.51-.51-1.29-.69-1.66-.32s-.43.91.08 1.42z" fill="#f0d0be"/><path d="m282.56 229.08 1.53-1.52c.51-.51 1.19-.82 1.91-.87l.98-.07-2.14-.72-1.69.76-1.44 1.67z" fill="#23394f"/><path d="m361.6 163.12h25.34v25.34h-25.34z" fill="#a5e8fe"/><path d="m323.82 163.12h25.34v25.34h-25.34z" fill="#a5e8fe"/><path d="m361.6 205.49h25.34v25.34h-25.34z" fill="#a5e8fe"/><path d="m323.82 205.49h25.34v25.34h-25.34z" fill="#a5e8fe"/><path d="m361.6 247.87h25.34v25.34h-25.34z" fill="#c2effe"/><path d="m323.82 247.87h25.34v25.34h-25.34z" fill="#c2effe"/><path d="m278.75 185.43h25.34v25.34h-25.34z" style="fill:none;stroke:#3b4f62;strokeWidth:.805;strokeLinecap:round;strokeLinejoin:round;strokeMiterlimit:10;stroke-dasharray:3.2199" transform="matrix(.9807 .1955 -.1955 .9807 44.3465 -53.1441)"/><path d="m323.82 290.24h25.34v25.34h-25.34z" fill="#c2effe"/><path d="m481.83 127.72s-4.89 3.2-6.2 11.56c-1.32 8.36-11.93 8.96-11.93 8.96s7.87 10.92 19.93 6.87l.75-27.54z" fill="#23394f"/><path d="m502.11 107.59c.83-.04 1.59-.46 2.06-1.15 1.21-1.75 3.37-5.14 3.03-6.4-.46-1.74-5.14 3.27-5.57 7.57z" fill="#5fc0e9"/><path d="m501.45 106.68c-.83 4.86-1.04 15.65-.39 18.71.54 2.53 2.07 2.17 2.14 2.17.79.06 1.85-1 1.84-1.95l-1.23-18.9z" fill="#fff"/><path d="m484.33 139.55c-1.78 2.28.35 3.54.4 3.6.51.7 2.2.6 3-.09l17.06-16.3c.3-.24-.08-.74-.31-1.05-.08-.1-.17-.18-.28-.23-.73-.51-1.92-.47-2.73-.05-4.23 2.17-14.83 11.15-17.14 14.12z" fill="#fff"/><path d="m488.28 211.53c.61-1.23 1.31-1.84 2.46-1.84 1.26 0 2.27 1.04 2.22 2.3l-1.2 35.08c-.02.55-.47.99-1.03.99-.55 0-1.01-.44-1.03-.99l-.05-1.52c-1.96-24.01-3.21-29.57-1.37-34.02z" fill="#5fc0e9"/><path d="m483.68 180.49c.87-4.11 3.07-4.81 4.59-4.75.1-.02.21-.04.31-.05 1.26-.09 2.33.89 2.38 2.14l1.21 35.08c.02.55-.4 1.02-.96 1.06-.18.01-.36-.03-.52-.1-1.25-.34-2.24-1.34-2.54-2.64-1.54-6.73-5.61-25.4-4.47-30.74z" fill="#ebc0a7"/><path d="m477.93 212.74c.84 1.09 1.09 1.98.59 3.01-.55 1.13-1.93 1.58-3.04 1l-31.04-16.38c-.49-.26-.69-.86-.44-1.36.24-.5.83-.72 1.34-.49l1.39.61c22.45 8.71 28 10.01 31.2 13.61z" fill="#5fc0e9"/><path d="m477.82 182.74c1.92-3.74 4.22-3.84 5.67-3.39.1.01.21.02.31.04 1.23.25 2.02 1.46 1.73 2.69l-8 34.18c-.13.54-.66.88-1.2.77-.18-.04-.34-.12-.47-.23-1.12-.66-1.81-1.88-1.76-3.21.27-6.91 1.23-25.99 3.72-30.85z" fill="#5fc0e9"/><path d="m446.68 199.56s.25-2.71-.24-2.77c-.48-.06-11.11 1.58-11.77 2.18s1.74.91 1.74.91 5.24.37 8.16.1c0-.01 2.13-.27 2.11-.42z" fill="#5fc0e9"/><path d="m440.3 200.3c1-.7 2.75-1.37 4.8-1.78.66-.13 1.29-.22 1.9-.28-.05-.96-.2-2.05-.66-2.02-.81.07-12.34 1.99-12.3 2.53.07 1.09 3.34 1.48 6.26 1.55z" fill="#30455a"/><path d="m477.24 175.56s-3.8 8.52-5.94 19.27c-1.96 9.85-6.91 10.71-6.91 10.71s2.82 7.19 10.46 8.44c11.96 1.95 10.25-2.89 15.32 4.4 3.55 5.12 7.7 3.59 7.7 3.59s-.72-11.74-1.4-16.08c-.81-5.12-1.69-24.1-5.93-28.96-4.24-4.85-13.3-1.37-13.3-1.37z" fill="#30455a"/><path d="m476 178.77c-.43.14-.68-6.89.36-13.29-.23-5.55 1.25-18.79 2.52-22.8 1.59-5.04 4.11-7.8 8.3-5.78 1.32.63 2.57 4.34 3.13 8.29s1.34 3.15-.83 8.94c-.77 2.06 1.17 15.99 2.13 19.67.28 1.06.23 2.6.75 3.72-.77.55-1.49.95-2.34 1.26-5.78 2.09-8.23-1.88-14.02-.01z" fill="#fff"/><path d="m460.13 113.19c-.81.16-1.65-.07-2.27-.62-1.59-1.41-4.5-4.18-4.48-5.49.03-1.8 5.77 1.94 7.22 6.02z" fill="#5fc0e9"/><path d="m460.55 112.15c1.96 4.52 4.76 14.95 4.85 18.07.08 2.59-1.49 2.6-1.56 2.62-.76.25-2.03-.53-2.25-1.45l-3.32-18.64z" fill="#fff"/><path d="m485.04 139.97c2.27 1.79.5 3.52.48 3.59-.33.8-1.99 1.11-2.94.63l-20.46-11.75c-.35-.16-.1-.74.05-1.09.05-.12.13-.22.22-.29.59-.67 1.75-.91 2.64-.7 4.62 1.1 17.06 7.28 20.01 9.61z" fill="#fff"/><path d="m483.72 135.74s-4.03-1.2-4.56-5.14c-.72-5.3 4.52-8.22 7.54-6.63 2.78 1.46 2.45 3.79 2.17 4.37-.29.58-5.15 7.4-5.15 7.4z" fill="#23394f"/><path d="m483.2 124.74s1.71-1.31.57-2.92-3.14-1.01-3.6.23c-.51 1.37.17 2.23.74 2.63.58.4 1.61.46 2.29.06z" fill="#23394f"/><path d="m499.02 250.06s-4.36-2.92-7.03-4.14c0 0-1.99-.83-2.04-.68 0 0-1.56 2.23-1.17 2.52.23.17 3.83 1.59 6.92 2.68h3.78c-.25-.22-.46-.38-.46-.38z" fill="#5fc0e9"/><path d="m495.86 247.75c-1.21.11-3.06-.18-5.05-.84-.63-.21-1.23-.45-1.79-.7-.43.85-.84 1.88-.43 2.08.41.19 3.91 1.51 7.02 2.57h4.39c-.85-.98-2.52-2.14-4.14-3.11z" fill="#30455a"/><path d="m496.28 250.81c2.68.08 5.06.07 5.1-.17.06-.38-.64-1-2.73-1z" fill="#30455a"/><path d="m482.27 135.2c-1.01.47-1.5 1.61-1.2 2.69.11.4.28.86.55 1.36 1.32 2.5 2.75 3.24 2.75 3.24l1.22-2.66 2.8.61s-.33-2.93-2.49-4.64c-1.48-1.16-2.75-1.02-3.63-.6z" fill="#cbf2fe"/><path d="m482.12 130.6 4.28-.3c.04.59.34 6.16.07 8.25-.17.64-1.25.91-2.39.6-1.03-.28-1.77-.93-1.78-1.53.15-1.25-.04-4.97-.18-7.02z" fill="#5fc0e9"/><path d="m482.52 131.39c.91 3.32 3.95 5.38 5.98 4.82 2.03-.55 2.27-3.51 1.36-6.83s-3.01-4.56-5.04-4c-2.02.55-3.21 2.69-2.3 6.01z" fill="#5fc0e9"/><path d="m487.29 124.84s-.51 4.57-4.58 6.42c-2.1.95-3.05-2.4-3.05-2.4l.75-1.34 1.14-2.05s1.64-1.5 2.97-1.46c.11.01 2.77.83 2.77.83z" fill="#23394f"/><path d="m489.01 127.31s-3.86-1.09-4.51-2.35c-.65-1.27 1.29-1.25 1.29-1.25s2.56.74 3.22 3.6z" fill="#23394f"/><path d="m480.96 132.75c.39.76 1.65 1.33 2.2 1.05.55-.29.37-.97-.03-1.73-.39-.76-1.21-1.23-1.76-.95-.55.29-.81.87-.41 1.63z" fill="#5fc0e9"/><path d="m486.09 142.48c0-.11.09-.19.19-.19.11 0 .19.09.19.19 0 .11-.09.19-.19.19-.1.01-.19-.08-.19-.19z" fill="#41576d"/><path d="m486.69 145.36c0-.11.09-.19.19-.19.11 0 .19.09.19.19 0 .11-.09.19-.19.19-.1.01-.19-.08-.19-.19z" fill="#41576d"/><path d="m487.1 148.44c0-.11.09-.19.19-.19.11 0 .19.09.19.19s-.09.19-.19.19c-.11 0-.19-.08-.19-.19z" fill="#41576d"/><path d="m542.14 279.3c.18-4.48-1.91-5.77-3.49-6.12-.1-.05-.2-.09-.31-.13-1.28-.42-2.64.3-3.02 1.59l-10.49 35.94c-.17.57.15 1.16.71 1.35.19.06.38.07.56.03 1.39-.02 2.67-.8 3.32-2.06 3.36-6.56 12.48-24.78 12.72-30.6z" fill="#29abe2"/><path d="m528.69 313.23c-.11-1.46-.54-2.35-1.67-2.81-1.24-.51-2.66.11-3.13 1.37l-13.42 34.89c-.21.55.42 1.36.96 1.59.55.22 1.17-.02 1.42-.56l.67-1.47c11.69-22.9 15.18-27.88 15.17-33.01z" fill="#29abe2"/><path d="m553.87 309.28c-.98-1.09-1.87-1.52-3.05-1.2-1.29.36-2.04 1.71-1.64 3l10.75 35.8c.18.56 1.16.82 1.73.66s.91-.74.78-1.31l-.38-1.57c-4.75-25.25-5.03-31.32-8.19-35.38z" fill="#29abe2"/><path d="m548.17 274.66c-2.1-3.96-4.56-4.03-6.1-3.53-.11.01-.22.02-.33.04-1.31.28-2.13 1.59-1.81 2.9l9.06 36.32c.14.57.71.93 1.29.81.19-.04.36-.13.5-.25 1.19-.72 1.9-2.04 1.83-3.45-.4-7.36-1.71-27.7-4.44-32.84z" fill="#29abe2"/><path d="m559.09 345.92c.43.22 1.27.33 2.22.24.52-.05 1-.14 1.39-.27.29-.09.6.07.68.36.27.98.59 2.5.05 2.61-.8.16-12.39 1.55-12.51 1.01-.3-1.4 5.21-3.23 8.17-3.95z" fill="#30455a"/><path d="m510.09 345.64c.32.36 1.07.75 1.99 1.01.5.14.99.22 1.39.24.3.02.53.27.51.57-.1 1.02-.33 2.55-.87 2.46-.81-.13-12.14-2.94-12.06-3.48.21-1.41 6.02-1.17 9.04-.8z" fill="#30455a"/><path d="m534.53 271.84s-11.39 36.03-11.72 38.4c0 0-8.47 20.65-10.4 28.55l4.82 1.39s11.94-19.7 12.48-28.07c0 0 13.56-27.88 13.63-32.8.06-4.92 0-6.37 0-6.37z" fill="#30455a"/><path d="m539.86 281.72s7.06 25.91 7.74 28.03c.67 2.13 9.63 30.41 9.63 30.41h5.26s-3.2-26.41-8.35-32.19c0 0-.55-27.85-4.38-35.05l-8.99-.32z" fill="#30455a"/><path d="m540 240.9c2.73.64 1.89 2.9 1.9 2.97.04.84-1.3 1.79-2.33 1.76l-22.85-1.93c-.37 0-.39-.61-.41-.98-.01-.12.02-.24.07-.34.24-.83 1.17-1.52 2.03-1.7 4.54-.95 18.04-.62 21.59.22z" fill="#76c9ec"/><path d="m534.6 261.83c.15-1.72.14-6.51.1-7.08-.24-3.7-.77-5.93-1.05-8.8-.17-1.68-.36-3.25-.06-4.48.48-1.92 1.88-5.12 6.65-4.32 4.48.75 5.61 5.17 6.26 8.48 1.49 7.6 2.95 19.83 4.34 28.36-1.67.99-3.38 1.37-5.21 1.29-3.88-.17-7.57-1.59-11.46-1.72-.01 0-.02 0-.03-.03-.17-3.72.14-8.06.46-11.7z" fill="#76c9ec"/><path d="m509.1 217.24c-.71-.37-1.21-1.06-1.35-1.85-.35-2.04-.87-5.91-.06-6.89 1.12-1.35 3.2 4.98 1.81 8.95z" fill="#29abe2"/><path d="m539.18 240.24c2.78.43 2.84-1.98 2.87-2.04.35-.76-.53-2.15-1.5-2.5l-21.91-6.77c-.34-.14-.59.42-.74.76-.05.11-.07.23-.06.35-.09.86.51 1.85 1.25 2.34 3.85 2.54 16.48 7.3 20.09 7.86z" fill="#76c9ec"/><path d="m508.38 216.7c1.98 4.36 7.69 13.16 9.88 15.27 1.81 1.74 2.85.62 2.9.58.67-.38.94-1.81.42-2.57l-11.29-14.54z" fill="#76c9ec"/><path d="m532.19 225.4c.12-.4.5-.69.67-1.06.18-.37.17-.85.4-1.18.23-.34.68-.5.96-.8s.42-.75.75-1 .8-.26 1.16-.46c.36-.19.63-.59 1.02-.72.38-.14.84 0 1.25-.08.4-.07.78-.36 1.19-.37.4-.01.8.26 1.21.31.4.05.85-.1 1.25.01s.69.5 1.06.67c.37.18.85.17 1.18.4.34.23.5.68.8.96s.75.42 1 .75.26.8.46 1.16c.19.36.59.63.72 1.02.14.38 0 .84.08 1.25.07.4.36.78.37 1.19.01.4-.26.8-.31 1.21-.05.4.1.85-.01 1.25-.12.4-.5.69-.67 1.06-.18.37-.17.85-.4 1.18-.23.34-.68.5-.96.8s-.42.75-.75 1-.8.26-1.16.46c-.36.19-.63.59-1.02.72-.38.14-.84 0-1.25.08-.4.07-.78.36-1.19.37-.4.01-.8-.26-1.21-.31-.4-.05-.85.1-1.25-.01-.4-.12-.69-.5-1.06-.67-.37-.18-.85-.17-1.18-.4-.34-.23-.5-.68-.8-.96s-.75-.42-1-.75-.26-.8-.46-1.16-.59-.63-.72-1.02c-.14-.38 0-.84-.08-1.25-.07-.4-.36-.78-.37-1.19-.01-.4.26-.8.31-1.21.05-.4-.11-.85.01-1.25z" fill="#23394f"/><path d="m531.7 233.81s-.22-1.81.89-3.1 1.23.52 1.23.52z" fill="#23394f"/><path d="m542.75 233.31c-.13.13-2.14 2.77-2.66 2.67-.71-.13.18-2.37.18-2.37z" fill="#23394f"/><path d="m534.54 226.53s-.35-1.69.5-2.62c.8-.89 2.05-1.73 5.8.02.54.25.82.85.67 1.42l-.42 1.62z" fill="#23394f"/><path d="m541.26 231.33c-.94 2.26-1.89 4.06-3.62 4.68-.61.22-1.33.35-2.13.26-.5-.05-1.02-.2-1.56-.46-1.4-.68-1.93-1.64-1.95-2.83-.02-1.36.63-3.03 1.42-4.92 1.48-3.54 3.98-4.62 6.15-3.71 2.16.9 3.17 3.44 1.69 6.98z" fill="#29abe2"/><path d="m541.89 231.34-3.98-.62c-.09.55-.81 5.74-.72 7.72.11.61 1.09.95 2.19.75.99-.18 1.73-.73 1.79-1.29-.05-1.19.42-4.66.72-6.56z" fill="#29abe2"/><path d="m542.73 232.91s-1.06.03-1.64-1.03c-.77-1.4-1.12-4.1-1.09-5.28.06-2.07.77-2.45.77-2.45s3.66 1.27 4.14 2.73c.7 2.17-2.18 6.03-2.18 6.03z" fill="#23394f"/><path d="m540.7 229.09-2.15 5.17c-.23.55-.76.9-1.35.91l-.68.01c-.42 0-.73-.38-.66-.79l.21-1.12c.05-.25-.08-.5-.3-.62l-2.27-1.15c-.24-.12-.54-.06-.71.15l-.71.88c-.7.87-.47 2.15.49 2.72l1.33.79c.28.17.61.26.93.28h.07.04.52l1.71-.02c1.05-.01 1.98-.64 2.39-1.61l2.15-5.17z" fill="#23394f"/><path d="m542.81 232.08c-.32.77-1.48 1.44-2.04 1.21s-.44-.91-.12-1.68 1.06-1.3 1.62-1.07c.55.23.86.77.54 1.54z" fill="#29abe2"/><path d="m540.55 225.88-2.29-.93c-.77-.31-1.62-.34-2.41-.07l-1.07.36 1.94-1.71 2.12.06 2.27 1.13z" fill="#23394f"/><path d="m508.12 227.3c.29-.75.21-1.6-.21-2.28-1.08-1.76-3.24-5.01-4.5-5.22-1.73-.28.88 5.85 4.54 7.93z" fill="#29abe2"/><path d="m508.42 225.77c3.27 3.49 9.23 12.13 10.34 14.96.92 2.34-.52 2.87-.57 2.91-.61.47-2.03.18-2.53-.59l-9.12-15.98z" fill="#76c9ec"/><path d="m630.55 214.36c5.3 0 9.76 3.55 11.15 8.4h-22.3c1.38-4.85 5.85-8.4 11.15-8.4z" fill="#76c9ec"/><path d="m643.59 216.97c3.65 0 6.74 2.45 7.69 5.8h-15.38c.95-3.35 4.04-5.8 7.69-5.8z" fill="#76c9ec"/><path d="m627.01 222.76c-1.5-5.18-7.43-9.05-14.52-9.05s-13.03 3.87-14.52 9.05z" fill="#76c9ec"/><path d="m123.84 20.99c12.21 0 22.51 8.19 25.7 19.38h-51.4c3.19-11.19 13.48-19.38 25.7-19.38z" fill="#c7f1fe"/><path d="m153.91 27c8.43 0 15.53 5.65 17.74 13.37h-35.47c2.2-7.72 9.31-13.37 17.73-13.37z" fill="#c7f1fe"/><path d="m115.68 40.37c-3.45-11.95-17.13-20.87-33.48-20.87s-30.03 8.92-33.48 20.87z" fill="#c7f1fe"/></svg>