<svg enableBackground="new 0 0 700 350" height="350" viewBox="0 0 700 350" width="700" xmlns="http://www.w3.org/2000/svg"><g opacity=".37"><path d="m101.92 120.52-15.44 65.31h109.33l15.44-65.31z" fill="#567"/><path d="m213.13 112.57h-109.33l-1.88 7.95h109.33z" fill="#76c9ec"/><path d="m106.4 116.55c0-.85.69-1.54 1.54-1.54s1.54.69 1.54 1.54-.69 1.54-1.54 1.54-1.54-.69-1.54-1.54z" fill="#a0abb6"/><circle cx="113.42" cy="116.55" fill="#021c35" r="1.54"/><circle cx="118.9" cy="116.55" fill="#6b7a89" r="1.54"/><g fill="none" strokeLinecap="round" strokeLinejoin="round" strokeMiterlimit="10" strokeWidth="2.0178"><path d="m165.51 129.49h13.07" stroke="#c0c8cf"/><path d="m148.74 129.49h12.48" stroke="#76c9ec"/><path d="m131.86 129.49h10.5" stroke="#fff"/><path d="m125.05 129.49h2.87" stroke="#44576a"/><path d="m110.84 129.49h11.11" stroke="#fff"/><path d="m169.46 134.77h20.73" stroke="#fff"/><path d="m156.32 134.77h3.95" stroke="#44576a"/><path d="m122.45 134.77h26.32" stroke="#fff"/><path d="m185.3 140.04h3.66" stroke="#c0c8cf"/><path d="m169.46 140.04h7.54" stroke="#fff"/><path d="m161.99 140.04h3.77" stroke="#c0c8cf"/><path d="m150 140.04h8.29" stroke="#fff"/><path d="m137.71 140.04h5.48" stroke="#c0c8cf"/><path d="m129.65 140.04h3.88" stroke="#44576a"/><path d="m121.22 140.04h2.87" stroke="#fff"/><path d="m176.59 145.32h10.72" stroke="#fff"/><path d="m154.87 145.32h15.49" stroke="#fff"/><path d="m147.13 145.32h4.41" stroke="#c0c8cf"/><path d="m139.33 145.32h4.9" stroke="#fff"/><path d="m119.57 145.32h11.62" stroke="#fff"/><path d="m147.97 150.6h25.26" stroke="#fff"/><path d="m136.71 150.6h7" stroke="#9eb2c6"/><path d="m105.49 150.6h22.43" stroke="#76c9ec"/><path d="m163.75 155.87h8.11" stroke="#76c9ec"/><path d="m145.04 155.87h14.26" stroke="#fff"/><path d="m118.34 155.87h20.35" stroke="#44576a"/><path d="m104.12 155.87h7.8" stroke="#c0c8cf"/><path d="m166.11 161.15h4.51" stroke="#76c9ec"/><path d="m130.42 161.15h21.41" stroke="#fff"/><path d="m102.88 161.15h20.04" stroke="#fff"/><path d="m142.02 166.42h27.36" stroke="#fff"/><path d="m133.04 166.42h2.47" stroke="#c0c8cf"/><path d="m120.28 166.42h7.64" stroke="#9eb2c6"/><path d="m101.64 166.42h2.94" stroke="#fff"/><path d="m173.88 171.7h16.31" stroke="#44576a"/><path d="m136.71 171.7h27.69" stroke="#fff"/><path d="m122.45 171.7h9.02" stroke="#9eb2c6"/><path d="m161.22 176.98h5.69" stroke="#fff"/><path d="m151.22 176.98h4.98" stroke="#c0c8cf"/><path d="m129.94 176.98h16.12" stroke="#76c9ec"/><path d="m109.43 176.98h14.67" stroke="#44576a"/><path d="m99.17 176.98h3.71" stroke="#fff"/></g></g><g opacity=".48"><path d="m292.99 5.35-10.39 43.95h73.57l10.4-43.95z" fill="#567"/><path d="m367.83 0h-73.57l-1.27 5.35h73.58z" fill="#76c9ec"/><circle cx="297.04" cy="2.68" fill="#a0abb6" r="1.04"/><circle cx="300.73" cy="2.68" fill="#021c35" r="1.04"/><circle cx="304.42" cy="2.68" fill="#6b7a89" r="1.04"/><g fill="none" strokeLinecap="round" strokeLinejoin="round" strokeMiterlimit="10" strokeWidth="1.3579"><path d="m335.78 11.38h8.8" stroke="#c0c8cf"/><path d="m324.49 11.38h8.4" stroke="#76c9ec"/><path d="m313.13 11.38h7.07" stroke="#fff"/><path d="m308.56 11.38h1.92" stroke="#44576a"/><path d="m298.99 11.38h7.48" stroke="#fff"/><path d="m338.44 14.93h13.95" stroke="#fff"/><path d="m329.6 14.93h2.65" stroke="#44576a"/><path d="m306.81 14.93h17.7" stroke="#fff"/><path d="m349.1 18.49h2.46" stroke="#c0c8cf"/><path d="m338.44 18.49h5.07" stroke="#fff"/><path d="m333.41 18.49h2.54" stroke="#c0c8cf"/><path d="m325.35 18.49h5.58" stroke="#fff"/><path d="m317.07 18.49h3.69" stroke="#c0c8cf"/><path d="m311.65 18.49h2.61" stroke="#44576a"/><path d="m305.97 18.49h1.94" stroke="#fff"/><path d="m343.24 22.04h7.22" stroke="#fff"/><path d="m328.62 22.04h10.43" stroke="#fff"/><path d="m323.41 22.04h2.97" stroke="#c0c8cf"/><path d="m318.17 22.04h3.29" stroke="#fff"/><path d="m304.87 22.04h7.81" stroke="#fff"/><path d="m323.98 25.59h17" stroke="#fff"/><path d="m316.4 25.59h4.71" stroke="#9eb2c6"/><path d="m295.39 25.59h15.09" stroke="#76c9ec"/><path d="m334.59 29.14h5.46" stroke="#76c9ec"/><path d="m322.01 29.14h9.6" stroke="#fff"/><path d="m304.04 29.14h13.69" stroke="#44576a"/><path d="m294.47 29.14h5.25" stroke="#c0c8cf"/><path d="m336.19 32.69h3.03" stroke="#76c9ec"/><path d="m312.17 32.69h14.41" stroke="#fff"/><path d="m293.64 32.69h13.48" stroke="#fff"/><path d="m319.98 36.24h18.41" stroke="#fff"/><path d="m313.93 36.24h1.67" stroke="#c0c8cf"/><path d="m305.34 36.24h5.14" stroke="#9eb2c6"/><path d="m292.8 36.24h1.98" stroke="#fff"/><path d="m341.41 39.79h10.98" stroke="#44576a"/><path d="m316.4 39.79h18.64" stroke="#fff"/><path d="m306.81 39.79h6.07" stroke="#9eb2c6"/><path d="m332.89 43.34h3.83" stroke="#fff"/><path d="m326.16 43.34h3.36" stroke="#c0c8cf"/><path d="m311.84 43.34h10.85" stroke="#76c9ec"/><path d="m298.04 43.34h9.87" stroke="#44576a"/><path d="m291.14 43.34h2.5" stroke="#fff"/></g></g><g opacity=".48"><path d="m312.15 78.05-10.39 43.95h73.57l10.39-43.95z" fill="#567"/><path d="m386.99 72.7h-73.58l-1.26 5.35h73.57z" fill="#76c9ec"/><circle cx="316.2" cy="75.37" fill="#a0abb6" r="1.04"/><circle cx="319.88" cy="75.37" fill="#021c35" r="1.04"/><circle cx="323.57" cy="75.37" fill="#6b7a89" r="1.04"/><g fill="none" strokeLinecap="round" strokeLinejoin="round" strokeMiterlimit="10" strokeWidth="1.3579"><path d="m354.94 84.08h8.8" stroke="#c0c8cf"/><path d="m343.65 84.08h8.4" stroke="#76c9ec"/><path d="m332.29 84.08h7.07" stroke="#fff"/><path d="m327.71 84.08h1.93" stroke="#44576a"/><path d="m318.15 84.08h7.47" stroke="#fff"/><path d="m357.59 87.63h13.96" stroke="#fff"/><path d="m348.76 87.63h2.65" stroke="#44576a"/><path d="m325.96 87.63h17.71" stroke="#fff"/><path d="m368.26 91.18h2.46" stroke="#c0c8cf"/><path d="m357.59 91.18h5.08" stroke="#fff"/><path d="m352.57 91.18h2.53" stroke="#c0c8cf"/><path d="m344.5 91.18h5.58" stroke="#fff"/><path d="m336.23 91.18h3.69" stroke="#c0c8cf"/><path d="m330.8 91.18h2.62" stroke="#44576a"/><path d="m325.13 91.18h1.94" stroke="#fff"/><path d="m362.4 94.73h7.21" stroke="#fff"/><path d="m347.78 94.73h10.43" stroke="#fff"/><path d="m342.57 94.73h2.97" stroke="#c0c8cf"/><path d="m337.32 94.73h3.3" stroke="#fff"/><path d="m324.03 94.73h7.81" stroke="#fff"/><path d="m343.13 98.28h17" stroke="#fff"/><path d="m335.56 98.28h4.71" stroke="#9eb2c6"/><path d="m314.55 98.28h15.09" stroke="#76c9ec"/><path d="m353.75 101.84h5.46" stroke="#76c9ec"/><path d="m341.17 101.84h9.59" stroke="#fff"/><path d="m323.19 101.84h13.7" stroke="#44576a"/><path d="m313.63 101.84h5.25" stroke="#c0c8cf"/><path d="m355.34 105.39h3.04" stroke="#76c9ec"/><path d="m331.33 105.39h14.4" stroke="#fff"/><path d="m312.79 105.39h13.49" stroke="#fff"/><path d="m339.13 108.94h18.42" stroke="#fff"/><path d="m333.09 108.94h1.66" stroke="#c0c8cf"/><path d="m324.5 108.94h5.14" stroke="#9eb2c6"/><path d="m311.96 108.94h1.98" stroke="#fff"/><path d="m360.57 112.49h10.98" stroke="#44576a"/><path d="m335.56 112.49h18.63" stroke="#fff"/><path d="m325.96 112.49h6.07" stroke="#9eb2c6"/><path d="m352.05 116.04h3.83" stroke="#fff"/><path d="m345.32 116.04h3.36" stroke="#c0c8cf"/><path d="m331 116.04h10.85" stroke="#76c9ec"/><path d="m317.2 116.04h9.87" stroke="#44576a"/><path d="m310.3 116.04h2.49" stroke="#fff"/></g></g><g opacity=".48"><path d="m410.88 197.9-10.39 43.95h73.57l10.39-43.95z" fill="#567"/><path d="m485.72 192.55h-73.58l-1.26 5.35h73.57z" fill="#76c9ec"/><circle cx="414.93" cy="195.23" fill="#a0abb6" r="1.04"/><circle cx="418.62" cy="195.23" fill="#021c35" r="1.04"/><circle cx="422.31" cy="195.23" fill="#6b7a89" r="1.04"/><g fill="none" strokeLinecap="round" strokeLinejoin="round" strokeMiterlimit="10" strokeWidth="1.3579"><path d="m453.67 203.94h8.8" stroke="#c0c8cf"/><path d="m442.38 203.94h8.4" stroke="#76c9ec"/><path d="m431.02 203.94h7.07" stroke="#fff"/><path d="m426.44 203.94h1.93" stroke="#44576a"/><path d="m416.88 203.94h7.48" stroke="#fff"/><path d="m456.33 207.49h13.95" stroke="#fff"/><path d="m447.49 207.49h2.65" stroke="#44576a"/><path d="m424.69 207.49h17.71" stroke="#fff"/><path d="m466.99 211.04h2.46" stroke="#c0c8cf"/><path d="m456.33 211.04h5.07" stroke="#fff"/><path d="m451.3 211.04h2.54" stroke="#c0c8cf"/><path d="m443.23 211.04h5.58" stroke="#fff"/><path d="m434.96 211.04h3.69" stroke="#c0c8cf"/><path d="m429.54 211.04h2.61" stroke="#44576a"/><path d="m423.86 211.04h1.94" stroke="#fff"/><path d="m461.13 214.59h7.21" stroke="#fff"/><path d="m446.51 214.59h10.43" stroke="#fff"/><path d="m441.3 214.59h2.97" stroke="#c0c8cf"/><path d="m436.05 214.59h3.3" stroke="#fff"/><path d="m422.76 214.59h7.81" stroke="#fff"/><path d="m441.87 218.14h17" stroke="#fff"/><path d="m434.29 218.14h4.71" stroke="#9eb2c6"/><path d="m413.28 218.14h15.09" stroke="#76c9ec"/><path d="m452.48 221.69h5.46" stroke="#76c9ec"/><path d="m439.9 221.69h9.59" stroke="#fff"/><path d="m421.93 221.69h13.69" stroke="#44576a"/><path d="m412.36 221.69h5.25" stroke="#c0c8cf"/><path d="m454.07 225.24h3.04" stroke="#76c9ec"/><path d="m430.06 225.24h14.41" stroke="#fff"/><path d="m411.52 225.24h13.49" stroke="#fff"/><path d="m437.87 228.79h18.41" stroke="#fff"/><path d="m431.82 228.79h1.66" stroke="#c0c8cf"/><path d="m423.23 228.79h5.14" stroke="#9eb2c6"/><path d="m410.69 228.79h1.98" stroke="#fff"/><path d="m459.3 232.34h10.98" stroke="#44576a"/><path d="m434.29 232.34h18.64" stroke="#fff"/><path d="m424.69 232.34h6.07" stroke="#9eb2c6"/><path d="m450.78 235.89h3.83" stroke="#fff"/><path d="m444.05 235.89h3.36" stroke="#c0c8cf"/><path d="m429.73 235.89h10.85" stroke="#76c9ec"/><path d="m415.93 235.89h9.87" stroke="#44576a"/><path d="m409.03 235.89h2.49" stroke="#fff"/></g></g><path d="m192.03 53.95c25.34-6.33 30.29 14.37 30.56 27.06" fill="none" stroke="#76c9ec" strokeMiterlimit="10" strokeWidth="4.3038"/><path d="m196.36 152.64c-2.78-16.57 11.59-17.14 11.98-17.32 4.54-2.17 12.9 3.02 15.09 8.76l42.25 130.45c.88 2.03-3.79 9.7-5.79 10.65-.67.32-1.38.44-2.07.38-5.16.58-10.2-8.77-12.76-13.43-12.55-22.84-45.08-97.95-48.7-119.49z" fill="#bbc3ca"/><path d="m158.25 306.84c-.94-4.56-1.79-9.05-2.52-13.46-.5-2.91-.96-5.79-1.38-8.61-.97-6.43-1.75-12.7-2.35-18.87-.28-2.92-.52-5.84-.73-8.72-.53-7.12-.83-14.07-.93-20.88-.04-2.94-.06-5.83-.02-8.72.19-18.85 1.95-36.63 4.77-53.72 1.65-9.99 3.81-18.75 6.18-26.37 7.13-22.76 35.79-29.98 52.95-13.43l3.7 3.56c9.48 9.11 13.06 22.65 9.66 35.37-3.73 13.98-4.75 34.41.51 66.05.32 1.94.67 3.93 1.04 5.96.54 2.89 1.13 5.83 1.73 8.91.89 4.29 1.88 8.79 2.97 13.46.66 2.81 1.36 5.68 2.09 8.63 1.3 5.21 2.72 10.63 4.29 16.29.44 1.58.89 3.17 1.35 4.79.35 1.25.71 2.52 1.08 3.79.85 3.03 1.78 6.16 2.73 9.33.84 2.77 1.69 5.59 2.59 8.47 1.21 3.87 2.47 7.84 3.78 11.9-8.2 3.3-17.82 4.12-26.75 3.58-15.03-.9-30.26-4.51-44.95-1.24-4.92 1.1-9.63 2.94-14.36 4.7-2.09-7.59-3.95-15-5.58-22.25-.68-2.87-1.27-5.71-1.85-8.52z" fill="#bbc3ca"/><path d="m181.62 168.76c5.94-15.25-10.95-20.81-11.27-21.04-3.75-2.76-10.35.45-11.95 8.69l-28.27 110.39c-1.23 1.78 1.54 3.75 3.19 4.97.55.41 1.18.63 1.83.69 4.64 1.36.93-1.57 4.59-5.24 19.06-19.13 34.16-78.63 41.88-98.46z" fill="#b1bac3"/><path d="m197.18 125.88s15.83 3.98 12.96 29.13-5.01 34.09-5.01 34.09-28.08-45.56-26.78-55.87c1.3-10.3 18.83-7.35 18.83-7.35z" fill="#fff"/><path d="m228.16 119.27s3.3-8.93-.81-16.8-6.86 1.19-6.86 1.19z" fill="#23394f"/><path d="m172.69 100.15c.45.84 6.83 16.93 9.58 17.17 3.77.34 2.45-12.16 2.45-12.16z" fill="#23394f"/><path d="m222.44 78.88s3.77-8.14.59-13.89c-3.02-5.46-8.35-11.23-29.49-6.83-3.02.63-5.16 3.33-5.09 6.41l.19 8.73z" fill="#23394f"/><path d="m182.59 95.24c2.08 12.58 4.73 22.85 12.8 28.08 2.83 1.83 6.35 3.38 10.49 3.89 2.59.31 5.41.22 8.45-.46 7.93-1.78 11.78-6.02 13.29-12.04 1.74-6.9.43-16.13-1.31-26.67-3.26-19.75-14.71-28.19-26.78-26.2-12.07 1.97-20.2 13.64-16.94 33.4z" fill="#f1d2c1"/><path d="m181.21 96.45 20.99-1.3c.18 2.87 1.4 30.22-.03 40.46-.88 3.14-6.15 4.4-11.76 2.83-5.05-1.42-8.63-4.65-8.67-7.56l-.02-.01c.85-6.14.1-24.38-.51-34.42z" fill="#f1d2c1"/><path d="m173.27 101.5s5.32 1.42 9.57-3.29c5.6-6.2 10.61-19.48 11.83-25.51 2.16-10.6-.97-13.33-.97-13.33s-20.12 2.09-24.27 8.91c-6.2 10.21 3.84 33.22 3.84 33.22z" fill="#23394f"/><path d="m188.1 84.51 4.74 28.83c.5 3.05 2.76 5.49 5.76 6.22l3.44.84c2.12.52 4.18-1.03 4.27-3.21l.25-5.95c.06-1.33.99-2.47 2.28-2.78l12.88-3.15c1.38-.34 2.8.34 3.41 1.61l2.55 5.31c2.51 5.24-.2 11.5-5.75 13.24l-7.7 2.42c-1.65.52-3.39.62-5.08.31-.13-.02-.26-.04-.38-.07l-.23-.06h-.01l-2.66-.65-8.68-2.12c-5.3-1.29-9.31-5.63-10.19-11.01l-4.74-28.82z" fill="#23394f"/><path d="m173.82 97.21c.69 4.28 5.82 9.08 8.92 8.58s3.32-4.09 2.64-8.38c-.69-4.28-3.84-7.89-6.94-7.39-3.11.5-5.31 2.9-4.62 7.19z" fill="#f1d2c1"/><path d="m192.69 68.44 12.74-1.99c4.27-.67 8.64.23 12.31 2.52l4.98 3.11-7.82-10.98-10.86-2.24-12.86 3.01z" fill="#23394f"/><ellipse cx="202.25" cy="89.04" fill="none" rx="8.03" ry="8.03" stroke="#23394f" strokeMiterlimit="10" strokeWidth=".6795" transform="matrix(.7899 -.6133 .6133 .7899 -12.109 142.7441)"/><path d="m213.62 84.27c-.73-.18-1.51-.22-2.3-.09s-1.52.41-2.16.81" fill="none" stroke="#23394f" strokeMiterlimit="10" strokeWidth=".6795"/><ellipse cx="221.55" cy="85.78" fill="none" rx="8.03" ry="8.03" stroke="#23394f" strokeMiterlimit="10" strokeWidth=".6795" transform="matrix(.7899 -.6133 .6133 .7899 -6.05 153.893)"/><path d="m184.94 93.27 9.54-2.44" fill="none" stroke="#23394f" strokeMiterlimit="10" strokeWidth=".6795"/><path d="m175.27 94.45s-8.58-34.17 16.76-40.5" fill="none" stroke="#76c9ec" strokeMiterlimit="10" strokeWidth="4.3038"/><ellipse cx="172.99" cy="97.53" fill="#567" rx="8.57" ry="12.92" transform="matrix(.9902 -.1397 .1397 .9902 -11.9309 25.1285)"/><path d="m175.89 97.12c.8 5.67-1.6 10.69-5.36 11.22s-7.46-3.63-8.26-9.3 1.6-10.69 5.36-11.22 7.46 3.63 8.26 9.3z" fill="#76c9ec"/><path d="m200.46 178.8 10.8 7.61 13.82-24.53-10.77-6.87z" fill="#f1d2c1"/><path d="m207.25 147.82c-.92 5.89.91 17.35 1.19 17.61l13.17 1.88c1.56-1.16 4.11-4.42 4.97-7.04.88-2.69 1.08-5.58.61-8.38l-.88-5.22-5.15-2.84-5.6-1.6-8.05-.1z" fill="#f1d2c1"/><path d="m212.86 131.73-1.12 11.48c-.12 1.26-1.19 2.23-2.38 2.16-1.19-.07-2.05-1.15-1.93-2.41l1.12-11.48c.12-1.26 1.19-2.23 2.38-2.16 1.19.06 2.05 1.14 1.93 2.41z" fill="#f1d2c1"/><path d="m228.26 138.65-8.53 8.14c-.82.78-2.11.75-2.89-.07-.78-.82-.75-2.11.07-2.89l8.53-8.14c.82-.78 2.11-.75 2.89.07.78.82.75 2.11-.07 2.89z" fill="#f1d2c1"/><path d="m230.93 143.56-7.87 7c-.77.69-1.95.62-2.64-.15-.69-.77-.62-1.95.15-2.64l7.87-7c.77-.69 1.95-.62 2.64.15.69.77.62 1.96-.15 2.64z" fill="#f1d2c1"/><path d="m232.18 142.09.85 3.27c.29 1.12-.23 2.22-1.17 2.47-.86.22-1.78-.36-2.15-1.36l-1.17-3.19c-.43-1.17.08-2.44 1.1-2.7l.32-.08c.93-.24 1.93.47 2.22 1.59z" fill="#f1d2c1"/><path d="m214.49 123.55-1.69 8.29c-.25 1.24-1.4 2.07-2.56 1.86-1.16-.21-1.9-1.38-1.64-2.62l1.69-8.29c.25-1.24 1.4-2.07 2.56-1.86 1.16.21 1.9 1.38 1.64 2.62z" fill="#f1d2c1"/><path d="m227.15 136.8-3.88-1.92c-1.18-.67-1.61-2.1-.95-3.12.63-.98 2.03-1.2 3.12-.5l4.53 2.94c.7.45.92 1.35.47 1.95-.7.96-2.09 1.24-3.29.65z" fill="#f1d2c1"/><path d="m228.58 148.07 1.69-2.58c.57-.77 1.62-.96 2.29-.4.64.53.67 1.54.08 2.24l-2.46 2.95c-.38.46-1.03.53-1.42.17-.62-.58-.7-1.59-.18-2.38z" fill="#f1d2c1"/><path d="m220.02 135.96-5.2 10.76c-.51 1.06-1.78 1.5-2.84.99-1.06-.51-1.5-1.78-.99-2.84l5.2-10.76c.51-1.06 1.78-1.5 2.84-.99 1.06.5 1.5 1.78.99 2.84z" fill="#f1d2c1"/><path d="m224.69 134.83-5.96 2.2c-1.08.4-2.28-.15-2.68-1.23-.4-1.08.15-2.28 1.23-2.68l5.96-2.2c1.08-.4 2.28.15 2.68 1.23.4 1.07-.15 2.28-1.23 2.68z" fill="#f1d2c1"/><path d="m229.69 143.18-4.21-5.37c-.63-.8-.49-1.97.31-2.6.8-.63 1.97-.49 2.6.31l4.21 5.37c.63.8.49 1.97-.31 2.6-.8.64-1.97.5-2.6-.31z" fill="#f1d2c1"/><path d="m215.43 118.98-.94 4.38c-.37 1.35-1.67 2.17-2.83 1.79-1.11-.37-1.67-1.69-1.25-2.96l1.77-5.3c.27-.82 1.1-1.28 1.8-1 1.14.44 1.74 1.74 1.45 3.09z" fill="#f1d2c1"/><path d="m208.84 165.06c2.35-1.09 4.14-2.48 5.01-6.69.7-3.36.46-5.9-.57-7.81-1.06-1.97-2.97-3.45-4.98-2.91-.51.14-1 .17-1.28-.08 0 0-.01-.01-.01-.01-1.45-1.31-.41-2.16-3.59-5.56s-5.27-1.41-5.69-.8 1.45 1.78 2.22 2.49 1.57 3.76 2.35 5.1c.46.78.96 2.91 1.3 4.53.32 1.53.75 3.03 1.29 4.49.78 2.13 1.01 4.2 2.12 5.78.36.5 1.42 1.08 1.83 1.47z" fill="#f1d2c1"/><path d="m201.01 173.29c-21.34 19.07-60.18 68.81-68.27 85.04-6.72 13.47 1.56 17.35 1.85 17.62 3.39 3.14 12.02 2.14 15.41-2.18l65.53-90.52z" fill="#b1bac3"/><path d="m174.04 109.58c-3.78 8.03-4.24 17.57-1.25 25.93 1.95 5.44 5.3 10.42 6.28 16.12 1.61 9.31-4.77 19.68-14.08 21.27s-19.22-7.37-17.52-16.66c.41-2.26 1.72-4.67 3.97-5.13 2.69-.55 5.01 1.88 6.47 4.21 7.34 11.69 8.26 27.15 2.35 39.63-8.12 17.13-26.49 26.39-43.01 35.69-22.45 12.64-44.07 27.94-59.08 48.89-5.81 8.1-15.1 23.14-12.04 33.6 5.78 19.79 28.27 9.71 38.17 6.72s19.32-7.54 29.39-9.94c25.73-6.14 53.79 2.15 78.72-6.72" fill="none" stroke="#29abe2" strokeMiterlimit="10" strokeWidth=".453"/><path d="m66.4 282.96h301.4v67.04h-301.4z" fill="#c7f1fe"/><circle cx="115.73" cy="48.02" fill="#23394f" r="30.32"/><path d="m128.25 66.96s.9 13.75 19.92 17.54c0 0-13.75-5.69-13.7-18.37z" fill="#23394f"/><path d="m102.25 45.77 12.66 12.66 29.78-29.78" style="fill:none;stroke:#bfc7ce;strokeWidth:2.8457;strokeLinecap:round;strokeLinejoin:round;strokeMiterlimit:10"/><path d="m137.78 301.49h193.87v11.99h-193.87z" fill="#394d61"/><path d="m331.65 302.66h-162.22l25.7-108.7h162.23z" fill="#23394f"/><path d="m265.33 252.23-.3 7.34c-3.91-.16-7.05-3.42-7.05-7.34 0-4.03 3.32-7.35 7.35-7.35s7.35 3.32 7.35 7.35z" fill="#567"/><path d="m411.5 32.98-31.81 134.52h225.2l31.8-134.52z" fill="#567"/><path d="m640.57 16.6h-225.2l-3.87 16.38h225.19z" fill="#76c9ec"/><path d="m420.71 24.79c0-1.75 1.42-3.17 3.17-3.17s3.17 1.42 3.17 3.17-1.42 3.17-3.17 3.17c-1.75.01-3.17-1.42-3.17-3.17z" fill="#a0abb6"/><path d="m432 24.79c0-1.75 1.42-3.17 3.17-3.17s3.17 1.42 3.17 3.17-1.42 3.17-3.17 3.17c-1.75.01-3.17-1.42-3.17-3.17z" fill="#021c35"/><path d="m443.29 24.79c0-1.75 1.42-3.17 3.17-3.17s3.17 1.42 3.17 3.17-1.42 3.17-3.17 3.17c-1.75.01-3.17-1.42-3.17-3.17z" fill="#6b7a89"/><g fill="none" strokeMiterlimit="10"><path d="m542.48 51.45h26.92" stroke="#c0c8cf" strokeLinecap="round" strokeLinejoin="round" strokeWidth="4.1562"/><path d="m507.92 51.45h25.71" stroke="#76c9ec" strokeLinecap="round" strokeLinejoin="round" strokeWidth="4.1562"/><path d="m473.15 51.45h21.63" stroke="#fff" strokeLinecap="round" strokeLinejoin="round" strokeWidth="4.1562"/><path d="m459.14 51.45h5.9" stroke="#44576a" strokeLinecap="round" strokeLinejoin="round" strokeWidth="4.1562"/><path d="m429.87 51.45h22.88" stroke="#fff" strokeLinecap="round" strokeLinejoin="round" strokeWidth="4.1562"/><path d="m550.6 62.32h42.71" stroke="#fff" strokeLinecap="round" strokeLinejoin="round" strokeWidth="4.1562"/><path d="m523.55 62.32h8.12" stroke="#44576a" strokeLinecap="round" strokeLinejoin="round" strokeWidth="4.1562"/><path d="m453.78 62.32h54.2" stroke="#fff" strokeLinecap="round" strokeLinejoin="round" strokeWidth="4.1562"/><path d="m583.23 73.18h7.53" stroke="#c0c8cf" strokeLinecap="round" strokeLinejoin="round" strokeWidth="4.1562"/><path d="m550.6 73.18h15.53" stroke="#fff" strokeLinecap="round" strokeLinejoin="round" strokeWidth="4.1562"/><path d="m535.22 73.18h7.76" stroke="#c0c8cf" strokeLinecap="round" strokeLinejoin="round" strokeWidth="4.1562"/><path d="m510.53 73.18h17.08" stroke="#fff" strokeLinecap="round" strokeLinejoin="round" strokeWidth="4.1562"/><path d="m485.21 73.18h11.29" stroke="#c0c8cf" strokeLinecap="round" strokeLinejoin="round" strokeWidth="4.1562"/><path d="m468.6 73.18h8" stroke="#44576a" strokeLinecap="round" strokeLinejoin="round" strokeWidth="4.1562"/><path d="m451.23 73.18h5.93" stroke="#fff" strokeLinecap="round" strokeLinejoin="round" strokeWidth="4.1562"/><path d="m565.3 84.05h22.08" stroke="#fff" strokeLinecap="round" strokeLinejoin="round" strokeWidth="4.1562"/><path d="m520.56 84.05h31.91" stroke="#fff" strokeLinecap="round" strokeLinejoin="round" strokeWidth="4.1562"/><path d="m504.6 84.05h9.09" stroke="#c0c8cf" strokeLinecap="round" strokeLinejoin="round" strokeWidth="4.1562"/><path d="m488.55 84.05h10.08" stroke="#fff" strokeLinecap="round" strokeLinejoin="round" strokeWidth="4.1562"/><path d="m447.85 84.05h23.92" stroke="#fff" strokeLinecap="round" strokeLinejoin="round" strokeWidth="4.1562"/><path d="m506.34 94.92h52.03" stroke="#fff" strokeLinecap="round" strokeLinejoin="round" strokeWidth="4.1562"/><path d="m483.15 94.92h14.43" stroke="#9eb2c6" strokeLinecap="round" strokeLinejoin="round" strokeWidth="4.1562"/><path d="m418.84 94.92h46.2" stroke="#76c9ec" strokeLinecap="round" strokeLinejoin="round" strokeWidth="4.1562"/><path d="m538.84 105.79h16.71" stroke="#76c9ec" strokeLinecap="round" strokeLinejoin="round" strokeWidth="4.1562"/><path d="m500.31 105.79h29.38" stroke="#fff" strokeLinecap="round" strokeLinejoin="round" strokeWidth="4.1562"/><path d="m445.3 105.79h41.93" stroke="#44576a" strokeLinecap="round" strokeLinejoin="round" strokeWidth="4.1562"/><path d="m416.02 105.79h16.08" stroke="#c0c8cf" strokeLinecap="round" strokeLinejoin="round" strokeWidth="4.1562"/><path d="m543.71 116.66h9.29" stroke="#76c9ec" strokeLinecap="round" strokeLinejoin="round" strokeWidth="4.1562"/><path d="m470.2 116.66h44.1" stroke="#fff" strokeLinecap="round" strokeLinejoin="round" strokeWidth="4.1562"/><path d="m413.47 116.66h41.27" stroke="#fff" strokeLinecap="round" strokeLinejoin="round" strokeWidth="4.1562"/><path d="m494.09 127.52h56.36" stroke="#fff" strokeLinecap="round" strokeLinejoin="round" strokeWidth="4.1562"/><path d="m475.59 127.52h5.1" stroke="#c0c8cf" strokeLinecap="round" strokeLinejoin="round" strokeWidth="4.1562"/><path d="m449.3 127.52h15.74" stroke="#9eb2c6" strokeLinecap="round" strokeLinejoin="round" strokeWidth="4.1562"/><path d="m410.92 127.52h6.05" stroke="#fff" strokeLinecap="round" strokeLinejoin="round" strokeWidth="4.1562"/><path d="m559.71 138.39h33.6" stroke="#44576a" strokeLinecap="round" strokeLinejoin="round" strokeWidth="4.1562"/><path d="m483.16 138.39h57.03" stroke="#fff" strokeLinecap="round" strokeLinejoin="round" strokeWidth="4.1562"/><path d="m453.78 138.39h18.58" stroke="#9eb2c6" strokeLinecap="round" strokeLinejoin="round" strokeWidth="4.1562"/><path d="m533.63 149.26h11.72" stroke="#fff" strokeLinecap="round" strokeLinejoin="round" strokeWidth="4.1562"/><path d="m513.03 149.26h10.27" stroke="#c0c8cf" strokeLinecap="round" strokeLinejoin="round" strokeWidth="4.1562"/><path d="m469.2 149.26h33.21" stroke="#76c9ec" strokeLinecap="round" strokeLinejoin="round" strokeWidth="4.1562"/><path d="m426.95 149.26h30.22" stroke="#44576a" strokeLinecap="round" strokeLinejoin="round" strokeWidth="4.1562"/><path d="m405.82 149.26h7.65" stroke="#fff" strokeLinecap="round" strokeLinejoin="round" strokeWidth="4.1562"/></g><path d="m582.94 197.85c-3.99 3.41-9.31 4.26-13.95 2.71-2.31 3.37-4.14 6.98-5.48 10.74 3.98 2.85 6.41 7.65 6 12.88s-3.57 9.59-7.95 11.78c.73 3.92 1.97 7.78 3.72 11.47 4.83-.8 9.94.88 13.35 4.87s4.26 9.31 2.71 13.95c3.37 2.31 6.98 4.14 10.74 5.48 2.85-3.98 7.65-6.41 12.88-6s9.59 3.57 11.78 7.95c3.92-.73 7.78-1.97 11.47-3.72-.8-4.83.88-9.94 4.87-13.35s9.31-4.26 13.95-2.71c2.31-3.37 4.14-6.98 5.48-10.74-3.98-2.85-6.41-7.65-6-12.88s3.57-9.59 7.95-11.78c-.73-3.92-1.97-7.78-3.72-11.47-4.83.8-9.94-.88-13.35-4.87s-4.26-9.31-2.71-13.95c-3.37-2.31-6.98-4.14-10.74-5.48-2.85 3.98-7.65 6.41-12.88 6s-9.59-3.57-11.78-7.95c-3.92.73-7.78 1.97-11.47 3.72.8 4.83-.88 9.95-4.87 13.35zm44.48 12.82c9.15 10.72 7.87 26.83-2.85 35.98s-26.83 7.87-35.98-2.85-7.87-26.83 2.85-35.98 26.83-7.87 35.98 2.85z" fill="#fff"/><path d="m547.29 169.85c-1.04 2.26-3.15 3.68-5.45 3.94-.32 1.9-.39 3.82-.22 5.7 2.27.43 4.27 2.01 5.14 4.34.86 2.33.37 4.83-1.07 6.64 1.1 1.54 2.39 2.95 3.88 4.18 1.91-1.3 4.44-1.6 6.7-.56s3.68 3.15 3.94 5.45c1.9.32 3.82.39 5.7.22.43-2.27 2.01-4.27 4.34-5.14s4.83-.37 6.64 1.07c1.54-1.1 2.95-2.39 4.18-3.88-1.3-1.91-1.6-4.44-.56-6.7s3.15-3.68 5.45-3.94c.32-1.9.39-3.82.22-5.7-2.27-.43-4.27-2.01-5.14-4.34s-.37-4.83 1.07-6.64c-1.1-1.54-2.39-2.95-3.88-4.18-1.91 1.3-4.44 1.6-6.7.56s-3.68-3.15-3.94-5.45c-1.9-.32-3.82-.39-5.7-.22-.43 2.27-2.01 4.27-4.34 5.14-2.33.86-4.83.37-6.64-1.07-1.54 1.1-2.95 2.39-4.18 3.88 1.3 1.92 1.6 4.45.56 6.7zm21.64-3.34c6.06 2.78 8.71 9.95 5.93 16.01s-9.95 8.71-16.01 5.93-8.71-9.95-5.93-16.01 9.95-8.71 16.01-5.93z" fill="#76c9ec"/><path d="m589.95 284.01c-.83 1.8-2.52 2.94-4.36 3.15-.26 1.52-.31 3.05-.17 4.56 1.82.34 3.42 1.61 4.11 3.47s.3 3.86-.86 5.3c.88 1.23 1.91 2.36 3.1 3.34 1.53-1.04 3.55-1.28 5.35-.45s2.94 2.52 3.15 4.36c1.52.26 3.05.31 4.56.17.34-1.82 1.61-3.42 3.47-4.11s3.86-.3 5.3.86c1.23-.88 2.36-1.91 3.34-3.1-1.04-1.53-1.28-3.55-.45-5.35s2.52-2.94 4.36-3.15c.26-1.52.31-3.05.17-4.56-1.82-.34-3.42-1.61-4.11-3.47s-.3-3.86.86-5.3c-.88-1.23-1.91-2.36-3.1-3.34-1.53 1.04-3.55 1.28-5.35.45s-2.94-2.52-3.15-4.36c-1.52-.26-3.05-.31-4.56-.17-.34 1.82-1.61 3.42-3.47 4.11s-3.86.3-5.3-.86c-1.23.88-2.36 1.91-3.34 3.1 1.04 1.52 1.28 3.55.45 5.35zm17.3-2.67c4.84 2.22 6.97 7.95 4.74 12.8-2.22 4.84-7.95 6.97-12.8 4.74-4.84-2.22-6.97-7.95-4.74-12.8 2.22-4.85 7.95-6.97 12.8-4.74z" fill="#76c9ec"/><path d="m397.97 217.32c-31.18 0-67.13 0-82.31 0s-7.75-15.61-7.75-15.61l17.71-70.94" fill="none" stroke="#44576a" strokeMiterlimit="10" strokeWidth="2.2209"/><path d="m297 95.89c-15.18 0-7.75-15.61-7.75-15.61l6.31-24.67" fill="none" stroke="#44576a" strokeMiterlimit="10" strokeWidth="2.2209"/></svg>