<svg enableBackground="new 0 0 700 350" height="350" viewBox="0 0 700 350" width="700" xmlns="http://www.w3.org/2000/svg"><path d="m610.13 21.84c5.54 0 10.21 3.72 11.66 8.79h-23.32c1.45-5.07 6.12-8.79 11.66-8.79z" fill="#76c9ec"/><path d="m623.77 24.57c3.82 0 7.05 2.56 8.05 6.07h-16.09c1-3.51 4.22-6.07 8.04-6.07z" fill="#76c9ec"/><path d="m606.43 30.63c-1.57-5.42-7.77-9.47-15.19-9.47s-13.62 4.05-15.19 9.47z" fill="#76c9ec"/><ellipse cx="308.5" cy="139.49" fill="#567" rx="50.47" ry="50.47" transform="matrix(.2298 -.9732 .9732 .2298 101.8611 407.6954)"/><path d="m287.67 171.01s-1.49 22.89-33.16 29.21c0 0 22.88-9.48 22.81-30.58z" fill="#567"/><path d="m282.54 135.74 21.08 21.07 49.57-49.57" style="fill:none;stroke:#fff;strokeWidth:4.6222;strokeLinecap:round;strokeLinejoin:round;strokeMiterlimit:10"/><path d="m498.56 114.61-16.61-18.83c12.19-10.75 16.74-27.66 11.58-43.07-7.05-21.1-29.96-32.52-51.05-25.47-10.22 3.42-18.5 10.61-23.31 20.25s-5.58 20.58-2.16 30.8l-23.82 7.96c-5.54-16.58-4.3-34.33 3.5-49.98s21.23-27.32 37.82-32.86c16.58-5.55 34.33-4.3 49.98 3.5s27.32 21.23 32.86 37.82c8.36 25.01.98 52.43-18.79 69.88z" fill="#aabccd"/><path d="m453.87 134.67 56.16-14.53-31.58-38.01z" fill="#aabccd"/><path d="m310.09 267.31v-25.11c26.63 0 51.67-10.37 70.5-29.2s29.2-43.87 29.2-70.5-10.37-51.67-29.2-70.5-43.87-29.2-70.5-29.2-51.67 10.37-70.5 29.2-29.2 43.87-29.2 70.5c0 9.37 1.3 18.64 3.85 27.55l-24.14 6.92c-3.2-11.16-4.82-22.76-4.82-34.47 0-16.84 3.3-33.19 9.81-48.59 6.29-14.86 15.29-28.21 26.74-39.67 11.46-11.46 24.81-20.46 39.67-26.74 15.4-6.51 31.74-9.81 48.59-9.81 16.84 0 33.19 3.3 48.59 9.81 14.86 6.29 28.21 15.29 39.67 26.74 11.46 11.46 20.46 24.81 26.74 39.67 6.51 15.4 9.81 31.74 9.81 48.59 0 16.84-3.3 33.19-9.81 48.59-6.29 14.86-15.29 28.21-26.74 39.67-11.46 11.46-24.81 20.46-39.67 26.74-15.4 6.51-31.75 9.81-48.59 9.81z" fill="#bbc3ca"/><path d="m217.38 216.41 7.45-57.53-47.05 15.14z" fill="#bbc3ca"/><path d="m49.84 242.26h563.03v25.56h-563.03z" fill="#7fcdee"/><path d="m650.16 253.94-52.48-24.71v49.42z" fill="#7fcdee"/><path d="m242.19 303.76c.44-1.65 1.14-2.57 2.54-2.85 1.53-.31 3.02.71 3.28 2.25l7.21 43.04c.11.68-.33 1.33-1.01 1.46-.67.14-1.34-.29-1.5-.96l-.44-1.83c-8.33-28.76-11.23-35.23-10.08-41.11z" fill="#f5ded1"/><path d="m234.62 264.78c.68-5.18 3.33-6.26 5.22-6.34.12-.04.25-.07.38-.09 1.55-.23 2.98.87 3.16 2.42l4.95 43.36c.08.68-.4 1.31-1.08 1.41-.23.03-.45 0-.65-.07-1.59-.3-2.91-1.44-3.4-3.02-2.58-8.2-9.46-30.94-8.58-37.67z" fill="#ebc0a7"/><path d="m224.72 303.18c1.19-1.22 2.25-1.68 3.61-1.25 1.49.48 2.29 2.09 1.76 3.57l-14.71 41.08c-.23.65-.94 1-1.59.79-.66-.21-1.03-.9-.84-1.56l.51-1.81c6.77-29.19 7.4-36.25 11.26-40.82z" fill="#f5ded1"/><path d="m227.6 263.53c2.06-4.8 4.91-5.12 6.74-4.69.13 0 .26 0 .39.02 1.55.2 2.63 1.64 2.38 3.19l-7 43.07c-.11.68-.74 1.15-1.42 1.06-.23-.03-.43-.12-.61-.25-1.45-.72-2.41-2.18-2.46-3.83-.25-8.58-.7-32.33 1.98-38.57z" fill="#ebc0a7"/><path d="m214.05 346.4c.94 0 1.76-.14 2.25-.35 3.27.46 9.94 1.99 9.73 3.63-.08.6-13.08.21-13.98.1-.64-.07-.38-1.96-.17-3.06.06-.31.36-.51.67-.45.44.08.95.13 1.5.13z" fill="#30455a"/><path d="m254.1 346.4c.94 0 1.76-.14 2.25-.35 3.27.46 9.94 1.99 9.73 3.63-.08.6-13.08.21-13.98.1-.64-.07-.38-1.96-.17-3.06.06-.31.36-.51.67-.45.44.08.95.13 1.5.13z" fill="#30455a"/><path d="m231.42 256.77s2.84 21.44 10.59 44.94c0 0-3.87 9.04 8.52 38.49h4.65s-6.46-37.45-6.72-40.55-4.39-42.36-5.17-44.43z" fill="#3b4f62"/><path d="m227.03 256.25s-2.84 14.21-2.32 45.46c0 0-6.97 7.49-11.11 38.23l4.91.26s12.66-34.61 12.92-36.16 8.52-48.82 8.52-48.82z" fill="#3b4f62"/><path d="m279 199c.84.62 1.93.8 2.93.5 2.57-.77 7.37-2.38 8.05-3.89.93-2.08-7.63-.86-11.46 3.03z" fill="#f5ded1"/><path d="m234.58 224.07c-3.64.15-3.38-2.96-3.41-3.05-.34-1.04 1-2.7 2.29-3.01l29.23-5.59c.46-.14 1.99 1.08 2.14 1.53.05.15.06.31.03.46-.01 1.13-2.16 1.96-3.23 2.39-5.26 2.09-22.31 7.07-27.05 7.27z" fill="#abb5bf"/><path d="m281.65 199.49c-3.85 4.87-13.79 14.19-17.2 16.16-2.83 1.63-3.78-.11-3.84-.17-.72-.69-.62-2.58.27-3.37l18.75-14.8z" fill="#abb5bf"/><path d="m225.51 251.72c-.08-1.09-.15-2.21-.22-3.3-.04-.72-.07-1.47-.11-2.18-.09-1.61-.17-3.24-.24-4.83-.04-.75-.06-1.54-.09-2.24-.06-1.73-.12-3.63-.14-5.26-.01-.71-.05-1.47-.04-1.94.07-3.12.01-6.19.26-9.14.15-1.72-.03-2.51.55-4.26 1.72-5.21 6.11-7.12 10.98-3.98.26.17.68.48.87.69 1.88 2.11 3.38 3.32 3.11 6.62-.29 3.63.61 8.73 1.2 12.7.04.24.13 1.18.19 1.71.09.75.21 1.71.31 2.61.15 1.27.33 2.7.47 4.05.09.82.19 1.74.29 2.61.18 1.54.36 3.14.54 4.69.05.43.11.88.16 1.32.05.33.09.66.13.99.11.78.22 1.61.34 2.38.11.67.23 1.28.36 1.94.18.88.36 1.75.55 2.63-1.94.38-3.9.38-5.84.03-3.25-.59-6.36-1.55-9.67-1.41-1.11.05-2.13.37-3.2.59-.25-1.67-.44-3.35-.61-5.03-.05-.64-.1-1.31-.15-1.99z" fill="#abb5bf"/><path d="m239.85 200.69c-.16-.44-.61-.75-.83-1.15-.23-.41-.25-.95-.53-1.31-.29-.37-.81-.52-1.14-.83-.34-.32-.53-.82-.91-1.08s-.93-.24-1.35-.44-.76-.62-1.2-.75-.95.05-1.41 0c-.46-.06-.91-.36-1.37-.34s-.89.35-1.35.44c-.45.09-.97-.06-1.41.1s-.75.61-1.15.83c-.41.23-.95.25-1.31.53-.37.29-.52.81-.83 1.14-.32.34-.82.53-1.08.91s-.24.93-.44 1.35c-.19.42-.62.76-.75 1.2s.05.95 0 1.41c-.06.46-.36.91-.34 1.37s.35.89.44 1.35c.09.45-.06.97.1 1.41s.61.75.83 1.15c.23.41.25.95.53 1.31.29.37.81.52 1.14.83.34.32.53.82.91 1.08s.93.24 1.35.44c.42.19.76.62 1.2.75s.95-.05 1.41 0c.46.06.91.36 1.37.34s.89-.35 1.35-.44c.45-.09.97.06 1.41-.1s.75-.61 1.15-.83c.41-.23.95-.25 1.31-.53.37-.29.52-.81.83-1.14.32-.34.82-.53 1.08-.91s.24-.93.44-1.35.62-.76.75-1.2-.05-.95 0-1.41c.06-.46.36-.91.34-1.37s-.35-.89-.44-1.35c-.09-.44.06-.96-.1-1.41z" fill="#23394f"/><path d="m240.99 210.16s.13-2.06-1.22-3.44-1.35.68-1.35.68z" fill="#23394f"/><path d="m228.27 209.67c.15.15 2.48 3.09 3.07 2.97.8-.17-.25-2.68-.25-2.68z" fill="#23394f"/><path d="m237.27 202.13s.27-1.93-.75-2.92c-.97-.94-2.44-1.81-6.56.43-.59.32-.86 1.01-.66 1.65l.59 1.8z" fill="#23394f"/><path d="m230.02 208.03c1.22 2.48 2.42 4.45 4.42 5.03.7.2 1.53.3 2.42.15.56-.1 1.14-.29 1.73-.63 1.54-.87 2.07-1.99 2.01-3.34-.07-1.54-.92-3.38-1.94-5.46-1.92-3.9-4.82-4.94-7.21-3.77-2.39 1.18-3.35 4.11-1.43 8.02z" fill="#f5ded1"/><path d="m229.32 207.38 4.51-.71c.1.62.92 6.5.82 8.74-.13.7-1.24 1.08-2.48.85-1.12-.2-1.96-.83-2.03-1.46h-.01c.06-1.33-.47-5.26-.81-7.42z" fill="#f5ded1"/><path d="m228.47 209.91s1.19-.04 1.78-1.28c.77-1.64.98-4.71.86-6.04-.22-2.34-1.04-2.71-1.04-2.71s-4.05 1.7-4.48 3.37c-.65 2.51 2.88 6.66 2.88 6.66z" fill="#23394f"/><path d="m230.49 205.45 2.79 5.69c.3.6.92.97 1.59.93l.77-.04c.47-.03.8-.48.69-.93l-.32-1.25c-.07-.28.05-.57.3-.72l2.48-1.46c.26-.16.6-.11.81.12l.86.94c.85.93.68 2.4-.36 3.11l-1.45.99c-.31.21-.67.34-1.04.38-.03 0-.06.01-.08.01h-.05l-.59.03-1.94.1c-1.18.06-2.29-.59-2.81-1.65l-2.79-5.69z" fill="#23394f"/><path d="m228.32 208.98c.41.85 1.78 1.52 2.39 1.22s.43-1.06.02-1.91-1.29-1.4-1.91-1.1c-.61.31-.91.95-.5 1.79z" fill="#f5ded1"/><path d="m230.43 201.82 2.52-1.21c.85-.41 1.81-.49 2.72-.25l1.23.33-2.31-1.79-2.4.22-2.48 1.43z" fill="#23394f"/><path d="m230.11 221.76c2.12-2.97-.63-4.45-.68-4.52-.68-.86-2.8-.64-3.78.27l-20.67 21.41c-.37.31.14.93.44 1.3.1.13.23.22.37.27.95.61 2.44.49 3.44-.08 5.22-2.94 18.13-14.79 20.88-18.65z" fill="#abb5bf"/><path d="m233.19 218.66c1.42 9.24-2.44 17.22.01 26.72 1.19 1.02 2.45 1.95 3.7 2.9.79-1.44 1.56-2.86 2.2-4.38-3.73-9.05-1.65-16.74-4.12-25.45-.6.06-1.19.14-1.79.21z" fill="#76c9ec"/><path d="m222.9 257.43c.68-.8 1.69-1.23 2.73-1.18 2.68.14 7.73.57 8.74 1.88 1.39 1.8-7.22 2.63-11.85-.25z" fill="#f5ded1"/><path d="m224.69 256.2c-3.75-4.95-13.49-14.47-16.86-16.51-2.8-1.69-3.78.03-3.84.09-.74.68-.68 2.56.2 3.37l18.44 15.19z" fill="#abb5bf"/><path d="m181.89 99.49c0-13.94-11.62-25.16-25.7-24.51-12.67.58-22.91 10.94-23.36 23.61-.28 7.69 2.99 14.62 8.28 19.29 3.24 2.86 5.02 7.03 5.02 11.34v.65c0 1.82 1.47 3.29 3.29 3.29h15.86c1.82 0 3.29-1.47 3.29-3.29v-.65c0-4.37 1.87-8.53 5.13-11.44 5.03-4.49 8.19-11.02 8.19-18.29z" fill="#72818e"/><path d="m157.35 101.27c-3.32.01-7.88-2.38-8.08-6.22-.29-5.33 7.25-4.97 5.67 1.01-1.86 7.01-10.02 2.83-10.02 2.83" fill="none" stroke="#23394f" strokeMiterlimit="10" strokeWidth=".466"/><path d="m169.79 98.89s-8.16 4.18-10.02-2.83c-1.59-5.98 5.95-6.34 5.67-1.01-.21 3.83-4.77 6.23-8.08 6.22" fill="none" stroke="#23394f" strokeMiterlimit="10" strokeWidth=".466"/><path d="m145.4 99.11s8.97 14.06 9.61 34.06" fill="none" stroke="#23394f" strokeMiterlimit="10" strokeWidth=".466"/><path d="m169.31 99.11s-8.97 14.06-9.61 34.06" fill="none" stroke="#23394f" strokeMiterlimit="10" strokeWidth=".466"/><path d="m158.55 149.67h-2.39c-2.17 0-3.93-1.76-3.93-3.93v-9.68c0-1.69 1.37-3.06 3.06-3.06h4.12c1.69 0 3.06 1.37 3.06 3.06v9.68c0 2.18-1.76 3.93-3.92 3.93z" fill="#495c6e"/><path d="m162.05 147h-9.4c-2.3 0-4.16-1.86-4.16-4.16v-9.74c0-.04.03-.08.08-.08h17.57c.04 0 .08.03.08.08v9.74c0 2.29-1.87 4.16-4.17 4.16z" fill="#0a233b"/><path d="m166.5 144.6h-18.29c-.72 0-1.3-.58-1.3-1.3s.58-1.3 1.3-1.3h18.29c.72 0 1.3.58 1.3 1.3s-.58 1.3-1.3 1.3z" fill="#495c6e"/><path d="m166.5 140.84h-18.29c-.72 0-1.3-.58-1.3-1.3s.58-1.3 1.3-1.3h18.29c.72 0 1.3.58 1.3 1.3s-.58 1.3-1.3 1.3z" fill="#495c6e"/><path d="m166.5 137.08h-18.29c-.72 0-1.3-.58-1.3-1.3s.58-1.3 1.3-1.3h18.29c.72 0 1.3.58 1.3 1.3 0 .71-.58 1.3-1.3 1.3z" fill="#495c6e"/><g fill="#0a233b"><path d="m374.39 88.59h79.14v1.41h-79.14z"/><path d="m374.39 97.91h79.14v1.41h-79.14z"/><path d="m374.39 107.24h79.14v1.41h-79.14z"/><path d="m374.39 116.57h67.91v1.41h-67.91z"/><circle cx="369.25" cy="89.29" r="1.81"/><circle cx="369.25" cy="98.62" r="1.81"/><circle cx="369.25" cy="107.95" r="1.81"/><circle cx="369.25" cy="117.28" r="1.81"/><path d="m92.23 162.87h79.14v1.41h-79.14z"/><path d="m92.23 172.19h79.14v1.41h-79.14z"/><path d="m92.23 181.52h79.14v1.41h-79.14z"/><path d="m92.23 190.85h67.91v1.41h-67.91z"/><path d="m85.27 163.57c0-1 .81-1.81 1.81-1.81s1.81.81 1.81 1.81-.81 1.81-1.81 1.81-1.81-.81-1.81-1.81z"/><path d="m85.27 172.9c0-1 .81-1.81 1.81-1.81s1.81.81 1.81 1.81-.81 1.81-1.81 1.81-1.81-.81-1.81-1.81z"/><path d="m85.27 182.23c0-1 .81-1.81 1.81-1.81s1.81.81 1.81 1.81-.81 1.81-1.81 1.81-1.81-.81-1.81-1.81z"/><path d="m85.27 191.56c0-1 .81-1.81 1.81-1.81s1.81.81 1.81 1.81-.81 1.81-1.81 1.81-1.81-.81-1.81-1.81z"/></g><path d="m282.55 214.39h36.91v5.27h-36.91z" fill="#c0effe"/><path d="m328.69 217.03-12.38-4.9v9.79z" fill="#c0effe"/><path d="m291.78 226.89h36.91v5.27h-36.91z" fill="#8d99a4" transform="matrix(-1 0 0 -1 620.463 459.0573)"/><path d="m282.55 229.53 12.38 4.89v-9.78z" fill="#8d99a4"/><path d="m371.51 229.4c.24-.05.48-.11.71-.17.09-.02.17-.04.26-.07.56-.15 1.12-.32 1.67-.51.09-.03.18-.06.27-.1 8.77-3.17 15.04-11.57 15.04-21.44 0-.79-.04-1.56-.12-2.33-1.09-10.74-9.63-19.27-20.37-20.35-.76-.08-1.53-.12-2.32-.12-.26 0-.52.01-.79.02-.13 0-.25.01-.38.02-.19.01-.38.02-.58.04h-.01c-.17.01-.34.03-.51.05-.02 0-.04 0-.05.01-.17.02-.34.04-.51.06-.19.02-.37.05-.56.08-.1.01-.19.04-.29.05-.13.02-.27.05-.4.07-2.95.53-5.71 1.62-8.15 3.18-.47.3-.94.62-1.38.96-.15.11-.3.22-.45.34s-.3.24-.45.36c-.28.23-.56.47-.83.72-.28.26-.56.53-.83.8-3.59 3.6-5.98 8.4-6.52 13.75-.08.77-.12 1.55-.12 2.33 0 .79.04 1.56.12 2.33 1.09 10.74 9.63 19.27 20.37 20.35.76.08 1.54.12 2.32.12.18 0 .35 0 .53-.01.13 0 .25-.01.38-.01.24-.01.48-.02.72-.04.14-.01.28-.02.42-.04.03 0 .05 0 .08-.01.16-.02.32-.03.48-.05.01 0 .02 0 .03-.01.17-.02.34-.04.5-.06.28-.04.56-.09.84-.13.13-.02.25-.05.38-.07.17-.05.33-.09.5-.12zm-4.85-10.88c-6.3 0-11.4-5.1-11.4-11.4 0-3.14 1.27-5.98 3.32-8.04 2.07-2.07 4.92-3.36 8.08-3.36 6.3 0 11.4 5.1 11.4 11.4 0 4.85-3.03 8.99-7.3 10.64-1.27.49-2.66.76-4.1.76z" fill="#afeafe"/><path d="m358.57 199.08c-2.05 2.06-3.32 4.9-3.32 8.04 0 6.3 5.1 11.4 11.4 11.4 1.45 0 2.83-.27 4.1-.76l4.1 10.63c-1.64.63-3.34 1.07-5.07 1.31-.17.02-.34.05-.5.06-.01 0-.02 0-.03.01-.16.02-.32.03-.48.05-.03 0-.05.01-.08.01-.14.02-.28.02-.42.04-.24.02-.48.03-.72.04-.13.01-.25.01-.38.01-.18 0-.35.01-.53.01-.78 0-1.55-.04-2.32-.12-10.67-1.1-19.26-9.69-20.37-20.35-.08-.77-.12-1.55-.12-2.33 0-.79.04-1.56.12-2.33.55-5.31 2.95-10.11 6.55-13.72 3.49-3.52 8.11-5.91 13.24-6.57.02 0 .05-.01.07-.01l.51-.06c.02 0 .04 0 .05-.01.1-.01.2-.02.29-.02.07-.01.15-.02.21-.02h.01c.19-.02.38-.03.58-.04.13-.01.25-.01.38-.02.26-.01.52-.02.79-.02.78 0 1.55.04 2.32.12 10.67 1.1 19.26 9.69 20.37 20.35.08.77.12 1.55.12 2.33h-11.4c0-6.3-5.1-11.4-11.4-11.4-3.14.01-6 1.3-8.07 3.37z" fill="#7fcdee"/><path d="m389.46 207.12h-11.4c0-6.3-5.1-11.4-11.4-11.4-3.16 0-6.02 1.29-8.08 3.36l-8.05-8.01-.03-.03c.27-.27.55-.54.83-.8.27-.25.55-.48.83-.72.15-.12.3-.24.45-.36s.3-.23.45-.34c.45-.34.91-.65 1.38-.96 2.21-1.4 4.65-2.4 7.2-2.98.09-.02.19-.05.28-.07.19-.04.39-.08.58-.11.17-.03.34-.06.51-.09.09-.01.18-.03.27-.05.16-.02.33-.05.49-.07.02 0 .05-.01.07-.01.17-.02.34-.04.51-.06.02 0 .04 0 .05-.01.1-.01.2-.02.29-.02.08-.01.15-.02.22-.02.19-.02.38-.03.58-.04.13-.01.25-.01.38-.02.26-.01.52-.02.79-.02.78 0 1.55.04 2.32.12 10.67 1.1 19.26 9.69 20.37 20.35.07.8.11 1.58.11 2.36z" fill="#0a233b"/><path d="m325.89 44.22c.23-1.51.35-3.05.35-4.62s-.12-3.11-.35-4.62l-4.62-.53c-.27-1.49-.66-2.95-1.16-4.35l3.73-2.76c-.56-1.42-1.22-2.82-2.01-4.18s-1.66-2.64-2.61-3.83l-4.27 1.85c-.97-1.14-2.04-2.2-3.18-3.18l1.85-4.27c-1.19-.95-2.47-1.83-3.83-2.61-1.36-.79-2.76-1.46-4.18-2.01l-2.76 3.73c-1.4-.5-2.85-.89-4.35-1.16l-.53-4.62c-1.51-.23-3.05-.35-4.62-.35s-3.11.12-4.62.35l-.53 4.62c-1.49.27-2.95.66-4.35 1.16l-2.76-3.73c-1.42.56-2.82 1.22-4.18 2.01s-2.64 1.66-3.83 2.61l1.85 4.27c-1.14.97-2.2 2.04-3.18 3.18l-4.27-1.85c-.95 1.19-1.83 2.47-2.61 3.83-.79 1.36-1.46 2.76-2.01 4.18l3.73 2.76c-.5 1.4-.89 2.85-1.16 4.35l-4.62.53c-.23 1.51-.35 3.05-.35 4.62s.12 3.11.35 4.62l4.62.53c.27 1.49.66 2.95 1.16 4.35l-3.73 2.76c.56 1.42 1.22 2.82 2.01 4.18s1.66 2.64 2.61 3.83l4.27-1.85c.97 1.14 2.04 2.21 3.18 3.18l-1.85 4.27c1.19.95 2.47 1.83 3.83 2.61 1.36.79 2.76 1.46 4.18 2.01l2.76-3.73c1.4.5 2.85.89 4.35 1.16l.53 4.62c1.51.23 3.05.35 4.62.35s3.11-.12 4.62-.35l.53-4.62c1.49-.27 2.95-.66 4.35-1.16l2.76 3.73c1.42-.56 2.82-1.22 4.18-2.01s2.64-1.66 3.83-2.61l-1.85-4.27c1.14-.97 2.2-2.04 3.18-3.18l4.27 1.85c.95-1.19 1.83-2.47 2.61-3.83.79-1.36 1.46-2.76 2.01-4.18l-3.73-2.76c.5-1.4.89-2.85 1.16-4.35zm-32.53 10.41c-8.31 0-15.04-6.73-15.04-15.04s6.73-15.04 15.04-15.04 15.04 6.73 15.04 15.04-6.74 15.04-15.04 15.04z" fill="#0a233b"/><path d="m276.52 81.54c.2-.77.34-1.56.42-2.37s.1-1.61.06-2.4l-2.35-.51c-.06-.78-.19-1.55-.38-2.3l2.07-1.23c-.21-.76-.49-1.52-.82-2.26-.34-.74-.72-1.45-1.15-2.11l-2.3.74c-.44-.64-.94-1.24-1.48-1.8l1.17-2.11c-.57-.55-1.18-1.07-1.84-1.54s-1.35-.89-2.05-1.25l-1.62 1.78c-.7-.33-1.43-.6-2.18-.82l-.04-2.41c-.77-.2-1.56-.34-2.37-.42s-1.61-.1-2.4-.06l-.51 2.35c-.78.06-1.55.19-2.3.38l-1.23-2.07c-.76.21-1.52.49-2.26.82-.74.34-1.45.72-2.11 1.15l.74 2.3c-.64.44-1.24.94-1.8 1.48l-2.11-1.17c-.55.57-1.07 1.18-1.54 1.84s-.89 1.35-1.25 2.05l1.78 1.62c-.33.7-.6 1.43-.82 2.18l-2.41.04c-.2.77-.34 1.56-.42 2.37s-.1 1.61-.06 2.4l2.35.51c.06.78.19 1.55.38 2.3l-2.07 1.23c.21.76.49 1.52.82 2.26.34.74.72 1.45 1.15 2.11l2.3-.74c.44.64.94 1.24 1.48 1.8l-1.17 2.11c.57.55 1.18 1.07 1.84 1.54s1.35.89 2.05 1.25l1.62-1.78c.7.33 1.43.6 2.18.82l.04 2.41c.77.2 1.56.34 2.37.42s1.61.1 2.4.06l.51-2.35c.78-.06 1.55-.19 2.3-.38l1.23 2.07c.76-.21 1.52-.49 2.26-.82.74-.34 1.45-.72 2.11-1.15l-.74-2.3c.64-.44 1.24-.94 1.8-1.48l2.11 1.17c.55-.57 1.07-1.18 1.54-1.84s.89-1.35 1.25-2.05l-1.78-1.62c.33-.7.6-1.43.82-2.18zm-17.32 3.7c-4.28-.43-7.41-4.24-6.99-8.53.43-4.28 4.24-7.41 8.53-6.99 4.28.43 7.41 4.24 6.99 8.53s-4.24 7.42-8.53 6.99z" fill="#83909c"/><path d="m477.85 65.63c.16-1.05.24-2.12.24-3.21s-.08-2.16-.24-3.21l-3.21-.37c-.19-1.04-.46-2.05-.81-3.02l2.59-1.92c-.39-.99-.85-1.96-1.4-2.9s-1.15-1.83-1.81-2.66l-2.96 1.29c-.68-.79-1.41-1.53-2.21-2.21l1.29-2.96c-.83-.66-1.71-1.27-2.66-1.81-.94-.55-1.91-1.01-2.9-1.4l-1.92 2.59c-.97-.35-1.98-.62-3.02-.81l-.37-3.21c-1.05-.16-2.12-.24-3.21-.24s-2.16.08-3.21.24l-.37 3.21c-1.04.19-2.05.46-3.02.81l-1.92-2.59c-.99.39-1.96.85-2.9 1.4s-1.83 1.15-2.66 1.81l1.29 2.96c-.79.68-1.53 1.42-2.21 2.21l-2.96-1.29c-.66.83-1.27 1.71-1.81 2.66-.55.94-1.01 1.91-1.4 2.9l2.59 1.92c-.35.97-.62 1.98-.81 3.02l-3.21.37c-.16 1.05-.24 2.12-.24 3.21s.08 2.16.24 3.21l3.21.37c.19 1.04.46 2.05.81 3.02l-2.59 1.92c.39.99.85 1.96 1.4 2.9s1.15 1.83 1.81 2.66l2.96-1.29c.68.79 1.41 1.53 2.21 2.21l-1.29 2.96c.83.66 1.71 1.27 2.66 1.81.94.55 1.91 1.01 2.9 1.4l1.92-2.59c.97.35 1.98.62 3.02.81l.37 3.21c1.05.16 2.12.24 3.21.24s2.16-.08 3.21-.24l.37-3.21c1.04-.19 2.05-.46 3.02-.81l1.92 2.59c.99-.39 1.96-.85 2.9-1.4s1.83-1.15 2.66-1.81l-1.29-2.96c.79-.68 1.53-1.41 2.21-2.21l2.96 1.29c.66-.83 1.27-1.71 1.81-2.66.55-.94 1.01-1.91 1.4-2.9l-2.59-1.92c.35-.97.62-1.98.81-3.02zm-22.59 7.24c-5.77 0-10.44-4.68-10.44-10.44 0-5.77 4.68-10.44 10.44-10.44 5.77 0 10.44 4.68 10.44 10.44s-4.67 10.44-10.44 10.44z" fill="#607080"/></svg>