<svg enable-background="new 0 0 700 350" height="350" viewBox="0 0 700 350" width="700" xmlns="http://www.w3.org/2000/svg"><g fill="none"><path d="m427.49 241.95h77.42v30.36h-77.42z" style="stroke:#3b4f62;stroke-width:.9643;stroke-linecap:round;stroke-linejoin:round;stroke-miterlimit:10;stroke-dasharray:3.8572"/><path d="m468.47 241.71v-36.43" style="stroke:#3b4f62;stroke-width:.9643;stroke-linecap:round;stroke-linejoin:round;stroke-miterlimit:10;stroke-dasharray:3.8572"/><path d="m428.24 312.61h78.97v30.36h-78.97z" style="stroke:#3b4f62;stroke-width:.9643;stroke-linecap:round;stroke-linejoin:round;stroke-miterlimit:10;stroke-dasharray:3.8572"/><path d="m517.68 241.83h78.97v30.36h-78.97z" style="stroke:#3b4f62;stroke-width:.9643;stroke-linecap:round;stroke-linejoin:round;stroke-miterlimit:10;stroke-dasharray:3.8572"/><path d="m517.68 312.61h78.97v30.36h-78.97z" style="stroke:#3b4f62;stroke-width:.9643;stroke-linecap:round;stroke-linejoin:round;stroke-miterlimit:10;stroke-dasharray:3.8572"/><path d="m469.51 309.29v-36.43" style="stroke:#3b4f62;stroke-width:.9643;stroke-linecap:round;stroke-linejoin:round;stroke-miterlimit:10;stroke-dasharray:3.8572"/><path d="m556.29 309.29v-36.43" style="stroke:#3b4f62;stroke-width:.9643;stroke-linecap:round;stroke-linejoin:round;stroke-miterlimit:10;stroke-dasharray:3.8572"/><path d="m556.29 242.18v-22.25" style="stroke:#3b4f62;stroke-width:.9643;stroke-linecap:round;stroke-linejoin:round;stroke-miterlimit:10;stroke-dasharray:3.8572"/><path d="m212.57 140.49v-28.79h305.11v51.86" stroke="#3b4f62" stroke-miterlimit="10" stroke-width=".9643"/><path d="m468.47 192.35v-28.79h87.63v40.03" stroke="#3b4f62" stroke-miterlimit="10" stroke-width=".9643"/></g><path d="m427.49 190.1h78.85v30.36h-78.85z" fill="#76c9ec"/><path d="m517.68 190.1h78.97v30.36h-78.97z" fill="#a0abb6"/><path d="m370.38 262.95h-234.14c-5.49 0-9.93-4.45-9.93-9.93v-149.8c0-5.49 4.45-9.93 9.93-9.93h234.14c5.49 0 9.93 4.45 9.93 9.93v149.8c0 5.48-4.45 9.93-9.93 9.93z" fill="#23394f"/><path d="m129.41 252.62v-149.01c0-3.99 3.23-7.22 7.22-7.22h233.35c3.99 0 7.22 3.23 7.22 7.22v149.01c0 3.99-3.23 7.22-7.22 7.22h-233.35c-3.99 0-7.22-3.23-7.22-7.22z" fill="#52667a"/><path d="m178.05 60.68h150.53v234.87h-150.53z" fill="#1d344b" transform="matrix(0 1 -1 0 431.422 -75.1958)"/><path d="m388.21 282.77h-269.8c-7.59 0-13.74-6.15-13.74-13.74v-4.37c0-.95.77-1.71 1.71-1.71h293.85c.95 0 1.71.77 1.71 1.71v4.37c.01 7.59-6.15 13.74-13.73 13.74z" fill="#23394f"/><path d="m270.08 271.05h-33.55c-3.89 0-7.05-3.16-7.05-7.05v-1.05h47.65v1.05c0 3.9-3.15 7.05-7.05 7.05z" fill="#52667a"/><path d="m151.23 258.66h22.03v4.13h-22.03z" fill="#52667a"/><path d="m333.36 258.66h22.03v4.13h-22.03z" fill="#52667a" transform="matrix(-1 0 0 -1 688.7465 521.452)"/><path d="m51.88 60.58c-5 4.27-11.66 5.33-17.48 3.39-2.89 4.22-5.18 8.75-6.87 13.46 4.99 3.57 8.03 9.59 7.51 16.14-.52 6.56-4.48 12.02-9.96 14.76.92 4.92 2.47 9.75 4.66 14.37 6.05-1 12.46 1.1 16.73 6.1s5.33 11.66 3.39 17.48c4.22 2.89 8.75 5.18 13.46 6.87 3.57-4.99 9.58-8.03 16.14-7.51s12.02 4.48 14.76 9.96c4.92-.92 9.75-2.47 14.37-4.66-1-6.05 1.1-12.46 6.1-16.73s11.66-5.33 17.48-3.39c2.89-4.22 5.18-8.75 6.87-13.46-4.99-3.57-8.03-9.58-7.51-16.14s4.48-12.02 9.96-14.76c-.92-4.92-2.47-9.75-4.66-14.37-6.05 1-12.46-1.1-16.73-6.1s-5.33-11.66-3.39-17.48c-4.22-2.89-8.75-5.18-13.46-6.87-3.57 4.99-9.59 8.03-16.14 7.51-6.56-.52-12.02-4.48-14.76-9.96-4.92.92-9.75 2.47-14.37 4.66 1 6.05-1.1 12.46-6.1 16.73zm55.74 16.06c11.46 13.44 9.87 33.62-3.57 45.08s-33.62 9.87-45.08-3.57-9.87-33.62 3.57-45.08 33.61-9.86 45.08 3.57z" fill="#fff"/><path d="m7.21 25.5c-1.3 2.83-3.95 4.61-6.83 4.93-.4 2.39-.49 4.79-.27 7.14 2.85.54 5.35 2.52 6.44 5.43 1.08 2.92.47 6.05-1.34 8.32 1.37 1.93 3 3.69 4.86 5.24 2.4-1.63 5.57-2.01 8.39-.71 2.83 1.3 4.61 3.95 4.93 6.83 2.39.4 4.79.49 7.14.27.54-2.85 2.52-5.35 5.43-6.44 2.92-1.08 6.05-.47 8.32 1.34 1.93-1.37 3.69-3 5.24-4.86-1.63-2.4-2.01-5.57-.71-8.39 1.3-2.83 3.95-4.61 6.83-4.93.4-2.39.49-4.79.27-7.14-2.85-.54-5.35-2.52-6.44-5.43s-.47-6.05 1.34-8.32c-1.37-1.93-3-3.69-4.86-5.24-2.4 1.63-5.57 2.01-8.39.71-2.83-1.3-4.61-3.95-4.93-6.83-2.39-.4-4.79-.49-7.14-.27-.54 2.85-2.52 5.35-5.43 6.44-2.92 1.08-6.05.47-8.32-1.34-1.93 1.37-3.69 3-5.24 4.86 1.64 2.39 2.01 5.56.71 8.39zm27.12-4.19c7.59 3.49 10.92 12.47 7.43 20.06s-12.47 10.92-20.06 7.43-10.92-12.47-7.43-20.06 12.47-10.92 20.06-7.43z" fill="#76c9ec"/><path d="m60.66 168.54c-1.04 2.26-3.15 3.68-5.46 3.94-.32 1.91-.39 3.83-.22 5.71 2.28.43 4.28 2.01 5.14 4.34s.37 4.83-1.07 6.65c1.1 1.54 2.4 2.95 3.88 4.19 1.92-1.31 4.45-1.6 6.71-.57 2.26 1.04 3.68 3.15 3.94 5.46 1.91.32 3.83.39 5.71.22.43-2.28 2.01-4.28 4.34-5.14s4.83-.37 6.65 1.07c1.54-1.1 2.95-2.4 4.19-3.88-1.31-1.92-1.6-4.45-.57-6.71 1.04-2.26 3.15-3.68 5.46-3.94.32-1.91.39-3.83.22-5.71-2.28-.43-4.28-2.01-5.14-4.34s-.37-4.83 1.07-6.65c-1.1-1.54-2.4-2.95-3.88-4.19-1.92 1.31-4.45 1.6-6.71.57-2.26-1.04-3.68-3.15-3.94-5.46-1.91-.32-3.83-.39-5.71-.22-.43 2.28-2.01 4.28-4.34 5.14s-4.83.37-6.65-1.07c-1.54 1.1-2.95 2.4-4.19 3.88 1.31 1.91 1.61 4.45.57 6.71zm21.68-3.35c6.07 2.79 8.73 9.97 5.94 16.03-2.79 6.07-9.97 8.73-16.03 5.94-6.07-2.79-8.73-9.97-5.94-16.03 2.78-6.07 9.96-8.73 16.03-5.94z" fill="#76c9ec"/><path d="m305.69 176.38c0-26.33-19.27-48.09-44.46-52.12l6.5 6.5-7.59 7.59c17.9 3.42 31.43 19.13 31.43 38.03 0 19.42-14.31 35.43-32.94 38.24v-5.53l-12.91 12.91 12.91 12.91v-6.04c26.46-2.89 47.06-25.26 47.06-52.49z" fill="#29abe2"/><path d="m260.33 130.76-12.91-12.91v6.02c-26.64 2.72-47.43 25.16-47.43 52.51 0 26.48 19.5 48.35 44.91 52.19l-6.57-6.57 7.54-7.54c-18.06-3.29-31.76-19.07-31.76-38.08 0-19.55 14.5-35.66 33.32-38.3v5.6z" fill="#7893b0"/><path d="m249.42 175.65-23.7-11.36v28.59l23.7 11.36z" fill="#29abe2"/><path d="m256.26 175.65 23.69-11.36v28.59l-23.69 11.36z" fill="#7893b0"/><path d="m229.83 159.88 23.7-11.36 22.71 11.15-23.7 11.36z" fill="#29abe2"/><path d="m533.13 19.95h166.87v96.83h-166.87z" fill="#1d344b" transform="matrix(-1 0 0 -1 1233.1337 136.724)"/><path d="m585.01 102.45-23.96 50.68 8.36-50.68z" fill="#1d344b"/><path d="m564.61 80.96h103.91c5.56 0 10.07-4.51 10.07-10.07v-5.06c0-5.56-4.51-10.07-10.07-10.07h-103.91c-5.56 0-10.07 4.51-10.07 10.07v5.06c.01 5.56 4.51 10.07 10.07 10.07z" fill="#ecfaff"/><path d="m635.6 65.16 1.61-2.84 4.78 2.84-.04-5.32h3.13l-.04 5.28 4.74-2.8 1.65 2.84-4.74 2.6 4.74 2.6-1.65 2.8-4.74-2.76.04 5.28h-3.13l.04-5.32-4.78 2.8-1.61-2.8 4.7-2.6z" fill="#52667a"/><path d="m617.64 65.16 1.61-2.84 4.78 2.84-.04-5.32h3.13l-.04 5.28 4.74-2.8 1.65 2.84-4.74 2.6 4.74 2.6-1.65 2.8-4.74-2.76.04 5.28h-3.13l.04-5.32-4.78 2.8-1.61-2.8 4.7-2.6z" fill="#52667a"/><path d="m599.67 65.16 1.61-2.84 4.78 2.84-.04-5.32h3.13l-.04 5.28 4.74-2.8 1.65 2.84-4.74 2.6 4.74 2.6-1.65 2.8-4.74-2.76.04 5.28h-3.13l.04-5.32-4.78 2.8-1.61-2.8 4.7-2.6z" fill="#52667a"/><path d="m581.7 65.16 1.61-2.84 4.78 2.84-.04-5.32h3.13l-.04 5.28 4.74-2.8 1.65 2.84-4.74 2.6 4.74 2.6-1.65 2.8-4.74-2.76.04 5.28h-3.13l.04-5.32-4.78 2.8-1.61-2.8 4.7-2.6z" fill="#52667a"/><path d="m595.91 256.02h-.11c-5.04 0-9.13-4.09-9.13-9.13v-6.52c0-1.09.89-1.98 1.98-1.98h14.4c1.09 0 1.98.89 1.98 1.98v6.52c0 5.04-4.08 9.13-9.12 9.13z" fill="#52667a"/><path d="m596.66 247.14v-2.05c0-.45-.36-.81-.81-.81s-.81.36-.81.81v2.05c-.56.29-.94.88-.94 1.56 0 .97.79 1.76 1.76 1.76s1.76-.79 1.76-1.76c-.01-.68-.4-1.27-.96-1.56z" fill="#162e45"/><path d="m589.9 240.81v-6.96c0-3.28 2.66-5.95 5.95-5.95 3.28 0 5.95 2.66 5.95 5.95v8.44" fill="none" stroke="#52667a" stroke-miterlimit="10" stroke-width="1.8815"/><path d="m429.11 256.02h-.11c-5.04 0-9.13-4.09-9.13-9.13v-6.52c0-1.09.89-1.98 1.98-1.98h14.4c1.09 0 1.98.89 1.98 1.98v6.52c.01 5.04-4.08 9.13-9.12 9.13z" fill="#52667a"/><path d="m429.87 247.14v-2.05c0-.45-.36-.81-.81-.81s-.81.36-.81.81v2.05c-.56.29-.94.88-.94 1.56 0 .97.79 1.76 1.76 1.76s1.76-.79 1.76-1.76c-.02-.68-.4-1.27-.96-1.56z" fill="#162e45"/><path d="m446.66 240.81v-6.96c0-3.28-2.66-5.95-5.95-5.95-3.28 0-5.95 2.66-5.95 5.95v8.44" fill="none" stroke="#52667a" stroke-miterlimit="10" stroke-width="1.8815"/></svg>