<svg enableBackground="new 0 0 700 350" height="350" viewBox="0 0 700 350" width="700" xmlns="http://www.w3.org/2000/svg"><path d="m578.2 320.46c-37.64 0-69.71 0-81.3 0s-11.85-8.59-11.85-18.3 0-112.91 0-112.91" fill="none" stroke="#ccd2d8" strokeMiterlimit="10" strokeWidth="4"/><path d="m308.95 188.17h239.84v10.5h-239.84z" fill="#2e4358"/><path d="m531.14 341.31h-3.63l-11.58-145.56h7.79z" fill="#2e4358"/><path d="m325.43 341.31h3.63l11.58-145.56h-7.79z" fill="#2e4358"/><path d="m336.96 208.59h183.82v2.33h-183.82z" fill="#2e4358"/><path d="m383.65 188.17h165.13l13.95 107.8s-55.39 6.76-75.23-23.38-14.59-35.4-40.85-40.07-57.74-24.51-63-44.35z" fill="#c6cdd3"/><path d="m506.89 252.3h1.8v13.38h-1.8z" fill="#fff"/><path d="m489.44 222.15h1.8v13.38h-1.8z" fill="#fff" transform="matrix(.4539 .8911 -.8911 .4539 471.695 -311.9449)"/><path d="m481.93 197.48h1.8v13.38h-1.8z" fill="#fff" transform="matrix(-.7532 .6578 -.6578 -.7532 980.7985 40.3289)"/><path d="m528.38 227.58h1.8v13.38h-1.8z" fill="#fff" transform="matrix(.5 -.866 .866 .5 61.7505 575.4976)"/><path d="m415.46 194.96h1.8v13.38h-1.8z" fill="#fff" transform="matrix(.5 -.866 .866 .5 33.547 461.3978)"/><path d="m538.98 269.26h1.8v13.38h-1.8z" fill="#fff" transform="matrix(.8841 .4673 -.4673 .8841 191.5131 -220.2954)"/><path d="m530.24 197.48h1.8v13.38h-1.8z" fill="#fff" transform="matrix(-.7749 -.632 .632 -.7749 813.6998 698.103)"/><path d="m447.56 201.9h1.8v13.38h-1.8z" fill="#fff" transform="matrix(-.9967 -.081 .081 -.9967 878.5579 452.8205)"/><path d="m134.81 5.6h205.81v133.84h-205.81z" fill="none" stroke="#ccd2d8" strokeMiterlimit="10" strokeWidth=".8701"/><path d="m134.81 32.4h205.81" fill="none" stroke="#ccd2d8" strokeMiterlimit="10" strokeWidth=".8701"/><path d="m134.81 58.41h205.81" fill="none" stroke="#ccd2d8" strokeMiterlimit="10" strokeWidth=".8701"/><path d="m134.81 84.43h205.81" fill="none" stroke="#ccd2d8" strokeMiterlimit="10" strokeWidth=".8701"/><path d="m134.81 110.44h205.81" fill="none" stroke="#ccd2d8" strokeMiterlimit="10" strokeWidth=".8701"/><path d="m160.11 139.44v-133.84" fill="none" stroke="#ccd2d8" strokeMiterlimit="10" strokeWidth=".8701"/><path d="m186.12 139.44v-133.84" fill="none" stroke="#ccd2d8" strokeMiterlimit="10" strokeWidth=".8701"/><path d="m212.13 139.44v-133.84" fill="none" stroke="#ccd2d8" strokeMiterlimit="10" strokeWidth=".8701"/><path d="m238.15 139.44v-133.84" fill="none" stroke="#ccd2d8" strokeMiterlimit="10" strokeWidth=".8701"/><path d="m263.94 139.44v-133.84" fill="none" stroke="#ccd2d8" strokeMiterlimit="10" strokeWidth=".8701"/><path d="m289.95 139.44v-133.84" fill="none" stroke="#ccd2d8" strokeMiterlimit="10" strokeWidth=".8701"/><path d="m315.97 139.44v-133.84" fill="none" stroke="#ccd2d8" strokeMiterlimit="10" strokeWidth=".8701"/><path d="m437.14 186.25h24.84l-20.78-92.75h-24.84z" fill="#586979"/><path d="m385.84 181.61h95.89v6.45h-95.89z" fill="#586979" transform="matrix(-1 0 0 -1 867.5811 369.6771)"/><path d="m338.02 59.08v70.78 23.45h161.37v-86.08-8.15z" fill="#2e4358"/><path d="m229.22 237.4h97.33v16.23h-97.33z" fill="#2e4358" transform="matrix(-1 0 0 -1 555.7738 491.0368)"/><path d="m223.36 341.31h3.47l11.05-103.91h-7.44z" fill="#2e4358"/><path d="m259.23 341.31h3.48l11.05-103.91h-7.44z" fill="#2e4358"/><path d="m323.38 341.31h-3.47l-11.06-103.91h7.44z" fill="#2e4358"/><path d="m229.22 242.48h62.09l-20.65-82.04h-62.08z" fill="#2e4358"/><path d="m352.93 252.87c.06-3.26.92-5.3 3.37-6.47 2.7-1.29 5.93-.09 7.13 2.65l33.46 76.46c.53 1.21 0 2.61-1.18 3.18-1.19.57-2.61.09-3.22-1.07l-1.67-3.2c-28.87-49.47-37.27-60.12-37.89-71.55z" fill="#f1d2c1"/><path d="m281.96 233.27c-8.03-5.94-7.37-11.38-5.76-14.61.05-.24.12-.48.21-.72 1.05-2.8 4.21-4.18 6.98-3.03l77.11 31.94c1.22.5 1.81 1.88 1.35 3.11-.15.41-.41.76-.73 1.02-1.97 2.38-5.11 3.53-8.21 2.89-16.1-3.29-60.51-12.88-70.95-20.6z" fill="#f1d2c1"/><path d="m339.83 259.14c3.09-1.04 5.3-.91 7.23 1.02 2.12 2.11 2.07 5.56-.11 7.61l-60.88 57.09c-.96.9-2.46.88-3.39-.05s-.96-2.43-.06-3.39l2.46-2.64c36.95-43.76 44.18-55.23 54.75-59.64z" fill="#f1d2c1"/><path d="m269.22 243.74c-7.83-6.2-6.99-11.62-5.27-14.8.06-.24.13-.48.23-.72 1.14-2.77 4.35-4.03 7.08-2.8l76 34.49c1.2.54 1.75 1.94 1.25 3.16-.17.41-.44.74-.76.99-2.05 2.31-5.23 3.35-8.3 2.62-15.99-3.81-60.05-14.87-70.23-22.94z" fill="#f1d2c1"/><path d="m286.28 320.22s-6.42.78-6.32 1.93 9.21 25.04 10.94 26.28 1.24-4.51 1.24-4.51-1.75-12.36-3.83-19.02c-.01.01-1.7-4.83-2.03-4.68z" fill="#f1d2c1"/><path d="m291.2 334.66c-2.11-1.97-4.55-5.71-6.53-10.28-.63-1.46-1.16-2.9-1.6-4.27-2.2.59-4.67 1.49-4.35 2.55.56 1.86 10.79 27.7 12.03 27.34 2.46-.72 1.74-8.52.45-15.34z" fill="#2e4358"/><path d="m290.45 214.72s71.14 27.86 73.48 31.86c2.34 4.01 30.59 69.65 30.59 69.65l-8.57 2.96s-32.9-49.93-34.54-63.36c0 0-79.76-17.2-83.68-32.17z" fill="#b3bcc5"/><path d="m256.3 226.31s-10.56 23.15 70.37 39.62c0 0-17.36 13.9-37.69 45.55l9.01 4.63s52.49-44.01 52.24-50.18c-.26-6.17.31-12.03-52.6-28.53l-22.8-17.65z" fill="#b3bcc5"/><path d="m285.71 112.2c4 10.18-3.9 25.54-16.2 24.52-1.15-.1-2.34-.31-3.44-.08-1.73.36-2.89 1.75-3.76 3.15-1.97 3.15-3.19 6.81-5.84 9.45-4.25 4.23-12.17 4.85-17.76 1.18-5.17-3.4-7.68-9.76-6.84-15.26s4.63-10.09 9.47-13.02c1.21-.73 2.5-1.38 3.44-2.4 1.74-1.87 1.99-4.65 3.17-6.9 1.1-2.1 3.06-3.74 5.43-4.55 3.06-1.04 6.59-.7 9.79-1.4 3.75-.83 7.01-3.09 10.94-3.11 4.99-.03 9.81 3.88 11.6 8.42z" fill="#2e4358"/><path d="m269.41 226.8c-4.28.61-8.64.49-12.88 1.34-.93.19-1.85.43-2.75.7-.58-6.18-.68-21.6.59-33.46-1.26-13.14.58-44.77 3.08-54.46 3.14-12.16 8.76-19.04 18.97-14.79 3.21 1.34 6.66 9.99 8.49 19.29s3.58 7.32-.83 21.33c-1.57 4.98 4.82 37.8 7.57 46.42.13.4.27.95.43 1.61-5.89 6.44-14.03 10.78-22.67 12.02z" fill="#76c9ec"/><path d="m286.21 130.46c-4.36-5.31-11.91-5.18-12.07-5.11-1.89.82.97 8.94 2.15 11.16l28.88 48.1c.39.82 1.76.2 2.59-.16.28-.12.51-.31.68-.54 1.57-1.44 2.08-4.2 1.54-6.3-2.82-10.95-18.09-40.24-23.77-47.15z" fill="#76c9ec"/><path d="m337.98 119.11c1.88.01 3.65-.86 4.79-2.35 2.93-3.82 8.22-11.2 7.61-14.1-.83-3.99-11.99 6.77-13.47 16.44z" fill="#f1d2c1"/><path d="m341.27 119.22c-4.26 10.91-17.06 33.17-22.13 38.59-4.2 4.5-6.87 1.88-7.02 1.81-1.69-.85-2.54-4.3-1.37-6.22l25.67-36.99z" fill="#22394e"/><path d="m262.77 144.67c-5.97-3.41-2.43-8.11-2.39-8.28.49-2 4.3-3.31 6.68-2.51l52.27 20.39c.87.25.49 1.7.27 2.58-.07.29-.22.55-.41.76-1.15 1.79-3.79 2.76-5.95 2.58-11.27-.95-42.71-11.09-50.47-15.52z" fill="#22394e"/><path d="m266.56 96.77s3.9-3.34.98-7c-2.92-3.65-7.58-1.99-8.52 1-1.05 3.32.69 5.27 2.1 6.15 1.41.89 3.86.89 5.44-.15z" fill="#2e4358"/><path d="m268.15 122.67s-9.5-3.07-10.56-12.48c-1.42-12.64 11.19-19.29 18.28-15.35 6.53 3.63 5.62 9.14 4.91 10.52s-12.63 17.31-12.63 17.31z" fill="#2e4358"/><path d="m264.73 110.83 10.12-1.26c.17 1.39 1.59 14.59 1.21 19.59-.33 1.55-2.84 2.32-5.61 1.73-2.49-.53-4.32-1.99-4.42-3.4h-.01c.23-3.01-.68-11.82-1.29-16.66z" fill="#f1d2c1"/><path d="m265.53 112.27c1.97 7.94 9.1 13 13.95 11.79 4.85-1.2 5.59-8.22 3.62-16.15-1.97-7.94-6.91-11-11.75-9.79-4.86 1.2-7.79 6.22-5.82 14.15z" fill="#f1d2c1"/><path d="m277.23 96.96s-1.47 10.85-11.25 15c-5.04 2.14-7.12-5.87-7.12-5.87l4.68-7.94s3.97-3.48 7.14-3.3c.28.02 6.55 2.11 6.55 2.11z" fill="#2e4358"/><path d="m281.19 102.94s-9.11-2.79-10.59-5.84 3.14-2.89 3.14-2.89 6.03 1.88 7.45 8.73z" fill="#2e4358"/><path d="m261.74 115.43c.9 1.82 3.85 3.26 5.17 2.61s.92-2.29.03-4.11c-.9-1.82-2.8-3-4.12-2.35-1.33.65-1.98 2.02-1.08 3.85z" fill="#f1d2c1"/><path d="m352.54 185.02c.98 1.71 2.7 2.87 4.66 3.12 5.02.66 14.52 1.58 16.84-.49 3.19-2.86-12.47-7.35-22.05-3.6z" fill="#f1d2c1"/><path d="m354.07 187.88c-11.58 1.77-37.25 1.84-44.49.16-6-1.39-5.07-5.01-5.08-5.17-.11-1.89 2.45-4.35 4.7-4.3l44.87 3.7z" fill="#76c9ec"/><path d="m391.4 325.08s-2.89 5.79-1.87 6.34c1.01.55 25.97 6.12 27.96 5.36s-3.08-3.52-3.08-3.52-11.28-5.35-17.98-7.29c0 .01-4.96-1.25-5.03-.89z" fill="#f1d2c1"/><path d="m406.16 328.93c-2.81.68-7.27.65-12.17-.22-1.57-.28-3.06-.63-4.45-1.02-.72 2.16-1.33 4.72-.27 5.04 1.86.56 29.06 6.27 29.44 5.03.77-2.45-6.14-6.15-12.55-8.83z" fill="#2e4358"/><path d="m152.19 31.26h47.36v47.36h-47.36z" fill="#7e8b98"/><path d="m177.09 58.7c-2.27.07-4.45-.81-6.67-1.26-4.61-.93-9.54.18-13.43 2.8v7.85h37.79v-16.13c-2.7.38-5.33 1.2-7.75 2.46-3.24 1.69-6.3 4.17-9.94 4.28z" fill="#183047"/><path d="m156.98 36.05v24.19c3.89-2.62 8.82-3.73 13.43-2.8 2.23.45 4.4 1.33 6.67 1.26 3.64-.11 6.7-2.59 9.93-4.27 2.42-1.26 5.05-2.08 7.75-2.46v-15.92z" fill="#3f5366"/><path d="m168.01 53.21c.59 0 1.08.39 1.24.93h-2.47c.15-.53.65-.93 1.23-.93z" fill="#b4bbc3"/><path d="m161.99 52.77c.87 0 1.59.58 1.82 1.37h-3.64c.23-.79.95-1.37 1.82-1.37z" fill="#b4bbc3"/><path d="m167.64 54.15c-.28-.97-1.39-1.69-2.71-1.69s-2.43.72-2.71 1.69z" fill="#b4bbc3"/><circle cx="172.79" cy="42.67" fill="#72818e" r="4.23"/><path d="m185.57 45.76c1.44 0 2.66.97 3.04 2.29h-6.08c.38-1.32 1.6-2.29 3.04-2.29z" fill="#b4bbc3"/><path d="m170.76 44.67c2.13 0 3.92 1.43 4.48 3.38h-8.95c.55-1.95 2.34-3.38 4.47-3.38z" fill="#b4bbc3"/><path d="m184.65 48.05c-.69-2.38-3.41-4.15-6.66-4.15s-5.97 1.77-6.66 4.15z" fill="#b4bbc3"/><path d="m172.85 24.31h4.18v10.85h-4.18z" fill="#566777"/><path d="m195.61 3.92h40.27v40.27h-40.27z" fill="#fff" transform="matrix(.9893 .1462 -.1462 .9893 5.8342 -31.28)"/><path d="m202.2 5.81-3.01 20.35-.97 6.6 31.78 4.7 2.01-13.56 1.97-13.39z" fill="#bbc3ca"/><path d="m223.43 16.35c-3.4-.5-7.02 3.15-7.02 3.15s-2.4-4.54-5.81-5.04c-2.2-.32-5.39.46-6.02 4.46-.65 4.1 4.94 5.82 7.34 6.34s3.08 3.81 3.08 3.81 1.59-2.95 4.05-2.75c2.45.19 8.3.17 8.86-3.95.55-4.02-2.28-5.69-4.48-6.02z" fill="#fff"/><path d="m216.35.39h4.18v10.85h-4.18z" fill="#566777" transform="matrix(.9401 .3409 -.3409 .9401 15.0666 -74.118)"/><path d="m522.79 152.47s.48-6.04-1.7-8.95" fill="none" stroke="#193047" strokeMiterlimit="10" strokeWidth=".8564"/><path d="m522.34 186.15v1.1 1.15l.62-.61.58.58.58-.58.62.61v-1.15-1.1z" fill="#2e4358"/><path d="m529.31 155.92-.12-1c-.34-2.87-2.77-5.03-5.66-5.03-2.89 0-5.32 2.16-5.66 5.03l-.12 1c-.48 4.03-2.52 7.69-5.66 10.25-1.87 1.53-3.18 3.92-3.18 7.25 0 6.36 7.31 14.61 11.59 14.61 1.28 0 2.27-.54 3.02-1.47.75.93 1.74 1.47 3.02 1.47 4.29 0 11.59-8.25 11.59-14.61 0-3.33-1.31-5.72-3.18-7.25-3.12-2.56-5.16-6.23-5.64-10.25z" fill="#76c9ec"/><path d="m525.39 172.05c-.73 0-1.38.44-1.86 1.15-.47-.71-1.13-1.15-1.85-1.15-1.44 0-3.05.99-3.05 3.12 0 2.14 2.45 4.9 3.89 4.9.43 0 .76-.18 1.01-.49.25.31.58.49 1.01.49 1.44 0 3.89-2.77 3.89-4.9.01-2.13-1.6-3.12-3.04-3.12z" fill="#5a6b7b"/><path d="m526.57 175.62c.36.44.29 1.09-.16 1.45-.44.36-1.09.29-1.45-.16-.36-.44-.34-2.06-.34-2.06s1.6.32 1.95.77z" fill="#2e4358"/><path d="m520.51 175.62c-.36.44-.29 1.09.16 1.45.44.36 1.09.29 1.45-.16.36-.44.34-2.06.34-2.06s-1.6.32-1.95.77z" fill="#2e4358"/><path d="m517.51 144.53c2.96-1.04 4.88.97 4.88.97s-.23 2.78-3.19 3.82-7.53-.04-7.53-.04 2.88-3.7 5.84-4.75z" fill="#7e8b98"/><path d="m97.8 229.38h61.07v27.57h-61.07z" fill="#677686"/><path d="m91.27 227.85h74.12v6.19h-74.12z" fill="#2e4358"/><path d="m97.8 254.82h61.07v6.02h-61.07z" fill="#2e4358"/><path d="m98.52 347.56h-1.34v-119.55h4.53z" fill="#2e4358"/><path d="m158.82 347.56h-1.34l-3.19-119.55h4.53z" fill="#2e4358"/><path d="m136.04 244.81h-15.41c-.67 0-1.22-.55-1.22-1.22v-.36c0-.67.55-1.22 1.22-1.22h15.41c.67 0 1.22.55 1.22 1.22v.36c0 .67-.55 1.22-1.22 1.22z" fill="#2e4358"/><path d="m141.54 188.08h-2.48l-9.5 19.33-1.82-13.99-.13-1h-1.92c-.63-3.44-3.46-6.11-6.99-6.48v-1.05c.58-.31.98-.91.98-1.61 0-1.01-.82-1.83-1.83-1.83s-1.83.82-1.83 1.83c0 .7.4 1.3.98 1.61v1.05c-3.52.37-6.36 3.04-6.99 6.48h-1.92l-.68 5.24c-1.43-2.57-3.99-5.21-7.76-4.69-2.39.33-4.06 1.88-4.71 4.36-1.15 4.4 1.11 11.58 6.9 15.99 1.46 1.11 2.18 2.25 2.14 3.4-.06 2-2.36 3.56-2.39 3.58l.96 1.44c.07-.05 1.11-.75 1.98-1.91l-.77 5.9-.25 1.96h28.67l-1.15-8.84zm-38.65 23.87c-5.15-3.92-7.26-10.41-6.28-14.18.33-1.25 1.16-2.8 3.28-3.09 4.96-.69 6.95 6.01 6.97 6.08l.15-.04-1.8 13.89c-.45-.93-1.22-1.82-2.32-2.66z" fill="#bbc3ca"/><path d="m136.36 212.02c0 4.44 1.43 9.18 3.69 12.59.81 1.22 1.73 2.27 2.73 3.07h8.77c1-.8 1.92-1.85 2.73-3.07 2.26-3.41 3.69-8.15 3.69-12.59 0-.41-.02-.81-.04-1.2h-21.53c-.02.39-.04.79-.04 1.2z" fill="#fff"/><path d="m203.96 220.3c-.32 0-.63-.06-.9-.17-1.7-.72-1.51-3.29-.56-5.52.96-2.26 2.99-3.48 4.62-2.79s2.16 3 1.2 5.26c-.79 1.84-2.76 3.22-4.36 3.22zm2.22-7.62c-.97 0-2.12.94-2.71 2.34-.72 1.7-.96 3.72.01 4.14 1 .42 3.13-.75 3.87-2.49.7-1.66.41-3.43-.64-3.88-.17-.07-.35-.11-.53-.11z" fill="#fff"/><path d="m147.17 208.59s-4.44-4.95-2.22-12.16c2.22-7.18 11.89-24.42-5.92-27.25-20.94-3.33-49.66-5.18-33.19-39.63 0 0-8.75 22.54 14.67 23.75s40.26 7.13 36.34 26.43-12.31 13.69-9.68 28.86z" fill="#c7f1fe"/><path d="m364.82 28.31h170.73v9.25h-170.73z" fill="#76c9ec"/><path d="m369.56 33.13c0-.98.79-1.77 1.77-1.77s1.77.79 1.77 1.77-.79 1.77-1.77 1.77c-.98.01-1.77-.79-1.77-1.77z" fill="#a0abb6"/><path d="m375.87 33.13c0-.98.79-1.77 1.77-1.77s1.77.79 1.77 1.77-.79 1.77-1.77 1.77c-.98.01-1.77-.79-1.77-1.77z" fill="#021c35"/><path d="m382.18 33.13c0-.98.79-1.77 1.77-1.77s1.77.79 1.77 1.77-.79 1.77-1.77 1.77c-.97.01-1.77-.79-1.77-1.77z" fill="#6b7a89"/><path d="m364.82 37.56h170.73v90.44h-170.73z" fill="#567"/><g fill="none" strokeMiterlimit="10"><path d="m513.26 47.81h11.43" stroke="#1b3249" strokeLinecap="round" strokeLinejoin="round" strokeWidth="2.0302"/><path d="m465.51 47.81h39.08" stroke="#fff" strokeLinecap="round" strokeLinejoin="round" strokeWidth="2.0302"/><path d="m442.52 47.81h14.92" stroke="#fff" strokeLinecap="round" strokeLinejoin="round" strokeWidth="2.0302"/><path d="m416.36 47.81h19.85" stroke="#bdc5cd" strokeLinecap="round" strokeLinejoin="round" strokeWidth="2.0302"/><path d="m373.11 47.81h22.75" stroke="#fff" strokeLinecap="round" strokeLinejoin="round" strokeWidth="2.0302"/><path d="m511.67 56.04h13.02" stroke="#32475b" strokeLinecap="round" strokeLinejoin="round" strokeWidth="2.0302"/><path d="m489.52 56.04h7.38" stroke="#32475b" strokeLinecap="round" strokeLinejoin="round" strokeWidth="2.0302"/><path d="m452.87 56.04h23.61" stroke="#fff" strokeLinecap="round" strokeLinejoin="round" strokeWidth="2.0302"/><path d="m433.25 56.04h11.84" stroke="#fff" strokeLinecap="round" strokeLinejoin="round" strokeWidth="2.0302"/><path d="m388.26 56.04h37.28" stroke="#bdc5cd" strokeLinecap="round" strokeLinejoin="round" strokeWidth="2.0302"/><path d="m416.36 64.28h66.13" stroke="#fff" strokeLinecap="round" strokeLinejoin="round" strokeWidth="2.0302"/><path d="m394.32 64.28h11.14" stroke="#1b3249" strokeLinecap="round" strokeLinejoin="round" strokeWidth="2.0302"/><path d="m373.11 64.28h3.91" stroke="#1b3249" strokeLinecap="round" strokeLinejoin="round" strokeWidth="2.0302"/><path d="m513.26 72.51h11.43" stroke="#fff" strokeLinecap="round" strokeLinejoin="round" strokeWidth="2.0302"/><path d="m461.98 72.51h38.52" stroke="#bdc5cd" strokeLinecap="round" strokeLinejoin="round" strokeWidth="2.0302"/><path d="m450.19 72.51h5.37" stroke="#fff" strokeLinecap="round" strokeLinejoin="round" strokeWidth="2.0302"/><path d="m438.4 72.51h5.32" stroke="#bdc5cd" strokeLinecap="round" strokeLinejoin="round" strokeWidth="2.0302"/><path d="m405.46 72.51h25.91" stroke="#fff" strokeLinecap="round" strokeLinejoin="round" strokeWidth="2.0302"/><path d="m392.6 72.51h4.97" stroke="#fff" strokeLinecap="round" strokeLinejoin="round" strokeWidth="2.0302"/><path d="m373.11 72.51h12.97" stroke="#bdc5cd" strokeLinecap="round" strokeLinejoin="round" strokeWidth="2.0302"/><path d="m518.98 80.75h5.71" stroke="#fff" strokeLinecap="round" strokeLinejoin="round" strokeWidth="2.0302"/><path d="m489.52 80.75h20.25" stroke="#fff" strokeLinecap="round" strokeLinejoin="round" strokeWidth="2.0302"/><path d="m425.82 80.75h52.72" stroke="#bdc5cd" strokeLinecap="round" strokeLinejoin="round" strokeWidth="2.0302"/><path d="m407.08 80.75h10.97" stroke="#1b3249" strokeLinecap="round" strokeLinejoin="round" strokeWidth="2.0302"/><path d="m373.11 80.75h28.06" stroke="#fff" strokeLinecap="round" strokeLinejoin="round" strokeWidth="2.0302"/><path d="m412.57 88.98h24.33" stroke="#1b3249" strokeLinecap="round" strokeLinejoin="round" strokeWidth="2.0302"/><path d="m388.26 88.98h16.35" stroke="#fff" strokeLinecap="round" strokeLinejoin="round" strokeWidth="2.0302"/><path d="m373.11 88.98h4.53" stroke="#32475b" strokeLinecap="round" strokeLinejoin="round" strokeWidth="2.0302"/><path d="m434.45 97.22h28.65" stroke="#bdc5cd" strokeLinecap="round" strokeLinejoin="round" strokeWidth="2.0302"/><path d="m395.86 97.22h25.56" stroke="#fff" strokeLinecap="round" strokeLinejoin="round" strokeWidth="2.0302"/><path d="m431.37 105.45h13.72" stroke="#fff" strokeLinecap="round" strokeLinejoin="round" strokeWidth="2.0302"/><path d="m396.43 105.45h20.7" stroke="#bdc5cd" strokeLinecap="round" strokeLinejoin="round" strokeWidth="2.0302"/><path d="m373.11 105.45h15.15" stroke="#bdc5cd" strokeLinecap="round" strokeLinejoin="round" strokeWidth="2.0302"/><path d="m513.26 113.69h11.43" stroke="#bdc5cd" strokeLinecap="round" strokeLinejoin="round" strokeWidth="2.0302"/><path d="m484.35 113.69h18.72" stroke="#bdc5cd" strokeLinecap="round" strokeLinejoin="round" strokeWidth="2.0302"/><path d="m470.52 113.69h7.51" stroke="#32475b" strokeLinecap="round" strokeLinejoin="round" strokeWidth="2.0302"/><path d="m448.9 113.69h6.66" stroke="#1b3249" strokeLinecap="round" strokeLinejoin="round" strokeWidth="2.0302"/><path d="m431.37 113.69h9.69" stroke="#fff" strokeLinecap="round" strokeLinejoin="round" strokeWidth="2.0302"/><path d="m416.36 113.69h8.37" stroke="#bdc5cd" strokeLinecap="round" strokeLinejoin="round" strokeWidth="2.0302"/><path d="m393.28 113.69h15.36" stroke="#fff" strokeLinecap="round" strokeLinejoin="round" strokeWidth="2.0302"/><path d="m373.11 113.69h10.85" stroke="#fff" strokeLinecap="round" strokeLinejoin="round" strokeWidth="2.0302"/></g><path d="m540.84 74.05-13.58 40.19 27.7-39.65z" fill="#76c9ec"/><path d="m525.05 18.71h59.77v59.77h-59.77z" fill="#76c9ec" transform="matrix(1 .00125845 -.00125845 1 .0616 -.6983)"/><path d="m534.23 40.94 19.72 19.77 46.52-46.39" style="fill:none;stroke:#fff;strokeWidth:4.48;strokeLinecap:round;strokeLinejoin:round;strokeMiterlimit:10"/><path d="m621.01 334.06h-45.43c-1.48 0-2.68-1.2-2.68-2.68v-94.36c0-1.48 1.2-2.68 2.68-2.68h45.43c1.48 0 2.68 1.2 2.68 2.68v94.36c-.01 1.48-1.21 2.68-2.68 2.68z" fill="#485b6d"/><path d="m575.58 331.91c-.29 0-.53-.24-.53-.53v-94.36c0-.29.24-.53.53-.53h45.43c.29 0 .53.24.53.53v94.36c0 .29-.24.53-.53.53z" fill="#2a4055"/><path d="m576.03 333.22h4.33v3.29h-4.33z" fill="#485b6d"/><path d="m616.04 333.22h4.33v3.29h-4.33z" fill="#485b6d"/><path d="m579.04 240.87h38.5v13.15h-38.5z" fill="#657484"/><path d="m581.04 246.15h27.95v2.59h-27.95z" fill="#405366"/><circle cx="613.11" cy="247.44" fill="#76c9ec" r="1.97"/><path d="m612.26 247.44c0-.47.38-.84.84-.84s.84.38.84.84c0 .47-.38.84-.84.84s-.84-.37-.84-.84z" fill="#97a1ac"/><path d="m603.31 246.99h4.67v.92h-4.67z" fill="#bcc3cb"/><path d="m597.58 246.99h4.67v.92h-4.67z" fill="#bcc3cb"/><path d="m591.86 246.99h4.67v.92h-4.67z" fill="#bcc3cb"/><path d="m586.13 246.99h4.67v.92h-4.67z" fill="#bcc3cb"/><path d="m579.04 258.68h38.5v13.15h-38.5z" fill="#657484"/><path d="m581.04 263.95h27.95v2.59h-27.95z" fill="#405366"/><circle cx="613.11" cy="265.25" fill="#76c9ec" r="1.97"/><path d="m612.26 265.25c0-.47.38-.84.84-.84s.84.38.84.84c0 .47-.38.84-.84.84s-.84-.37-.84-.84z" fill="#97a1ac"/><path d="m603.31 264.79h4.67v.92h-4.67z" fill="#bcc3cb"/><path d="m597.58 264.79h4.67v.92h-4.67z" fill="#bcc3cb"/><path d="m591.86 264.79h4.67v.92h-4.67z" fill="#bcc3cb"/><path d="m586.13 264.79h4.67v.92h-4.67z" fill="#bcc3cb"/><path d="m579.04 276.48h38.5v13.15h-38.5z" fill="#657484"/><path d="m581.04 281.76h27.95v2.59h-27.95z" fill="#405366"/><circle cx="613.11" cy="283.06" fill="#76c9ec" r="1.97"/><circle cx="613.11" cy="283.06" fill="#97a1ac" r=".84"/><path d="m603.31 282.6h4.67v.92h-4.67z" fill="#bcc3cb"/><path d="m597.58 282.6h4.67v.92h-4.67z" fill="#bcc3cb"/><path d="m591.86 282.6h4.67v.92h-4.67z" fill="#bcc3cb"/><path d="m586.13 282.6h4.67v.92h-4.67z" fill="#bcc3cb"/><path d="m579.04 294.29h38.5v13.15h-38.5z" fill="#657484"/><path d="m581.04 299.57h27.95v2.59h-27.95z" fill="#405366"/><ellipse cx="613.11" cy="300.86" fill="#76c9ec" rx="1.97" ry="1.97" transform="matrix(.1602 -.9871 .9871 .1602 217.918 857.8603)"/><path d="m612.26 300.86c0-.47.38-.84.84-.84s.84.38.84.84c0 .47-.38.84-.84.84s-.84-.37-.84-.84z" fill="#97a1ac"/><path d="m603.31 300.41h4.67v.92h-4.67z" fill="#bcc3cb"/><path d="m597.58 300.41h4.67v.92h-4.67z" fill="#bcc3cb"/><path d="m591.86 300.41h4.67v.92h-4.67z" fill="#bcc3cb"/><path d="m586.13 300.41h4.67v.92h-4.67z" fill="#bcc3cb"/><path d="m598.53 326.97c1.01 0 1.82-.82 1.82-1.82 0 1.01.82 1.82 1.82 1.82-1.01 0-1.82.82-1.82 1.82.01-1.01-.81-1.82-1.82-1.82z" fill="#fff"/><path d="m585.67 317.19c1.81 0 3.27-1.46 3.27-3.27 0 1.81 1.46 3.27 3.27 3.27-1.81 0-3.27 1.46-3.27 3.27 0-1.8-1.46-3.27-3.27-3.27z" fill="#fff"/></svg>