  <svg
              width="88"
              height="88"
              viewBox="0 0 88 88"
              fill="#33505B"
              xmlns="http://www.w3.org/2000/svg"
              className="flex place-content-center mx-auto"
            >
              <path
                d="M44 86.2803C35.6407 86.2783 27.4696 83.7978 20.5199 79.1523C13.5701 74.5069 8.15379 67.9051 4.95572 60.1817C1.75764 52.4582 0.921385 43.96 2.5527 35.7613C4.18402 27.5627 8.20967 20.0318 14.1206 14.1208C20.0316 8.20988 27.5625 4.18426 35.7611 2.55295C43.9598 0.921631 52.458 1.75788 60.1814 4.95595C67.9048 8.15403 74.5066 13.5703 79.1521 20.5201C83.7975 27.4698 86.2781 35.6409 86.2801 44.0003C86.2814 49.5529 85.1887 55.0514 83.0644 60.1817C80.9401 65.3119 77.8258 69.9733 73.8994 73.8997C69.9731 77.826 65.3117 80.9402 60.1814 83.0646C55.0512 85.1889 49.5527 86.2816 44 86.2803V86.2803ZM70.48 35.0003C70.7346 34.7474 70.9367 34.4468 71.0746 34.1155C71.2124 33.7843 71.2834 33.429 71.2834 33.0703C71.2834 32.7115 71.2124 32.3562 71.0746 32.025C70.9367 31.6937 70.7346 31.3931 70.48 31.1402L66.63 27.2902C66.3772 27.0357 66.0765 26.8336 65.7453 26.6957C65.414 26.5579 65.0588 26.4869 64.7 26.4869C64.3413 26.4869 63.986 26.5579 63.6548 26.6957C63.3235 26.8336 63.0229 27.0357 62.77 27.2902L37.2 52.8903L25.26 41.0003C24.7468 40.491 24.0531 40.2052 23.33 40.2052C22.607 40.2052 21.9133 40.491 21.4001 41.0003L17.54 44.8603C17.0313 45.3718 16.7458 46.0639 16.7458 46.7853C16.7458 47.5067 17.0313 48.1987 17.54 48.7103L35.27 66.4403C35.7833 66.9495 36.477 67.2353 37.2 67.2353C37.9231 67.2353 38.6168 66.9495 39.13 66.4403L70.48 35.0003Z"
                stroke="#61AE25"
                strokeWidth="2"
              />
            </svg>