  <svg
                  width="22"
                  height="22"
                  viewBox="0 0 22 22"
                  fill="none"
                  xmlns="http://www.w3.org/2000/svg"
                >
                  <path
                    d="M16.5 17.875V19.9375C16.5 21.0742 15.5742 22 14.4375 22H2.0625C0.925833 22 0 21.0742 0 19.9375V7.5625C0 6.42583 0.925833 5.5 2.0625 5.5H4.125V14.4375C4.125 16.335 5.665 17.875 7.5625 17.875H16.5ZM22 2.0625V14.4375C22 15.5742 21.0742 16.5 19.9375 16.5H7.5625C6.42583 16.5 5.5 15.5742 5.5 14.4375V2.0625C5.5 0.925833 6.42583 0 7.5625 0H19.9375C21.0742 0 22 0.925833 22 2.0625Z"
                    fill= "#41576D"
                  />
                </svg>