<svg width="16" height="16" viewBox="0 0 16 16" fill="none" xmlns="http://www.w3.org/2000/svg">
<path d="M5.33389 7.65057L0.769423 3.1048C0.410081 2.73725 0.410192 2.14955 0.769758 1.78213L1.7747 0.777041C2.14213 0.417351 2.72986 0.41735 3.09729 0.777038L7.64278 5.32322L7.99636 5.67686L8.34994 5.32322L12.8971 0.775345C13.2659 0.406502 13.8486 0.410964 14.2036 0.772257L14.2036 0.77227L14.2066 0.775344L15.215 1.78383L15.5685 1.4303L15.215 1.78383C15.5838 2.15271 15.5793 2.73558 15.2181 3.09068L15.215 3.09375L10.6678 7.64162L10.3143 7.99515L10.6678 8.34868L15.215 12.8966L15.215 12.8966L15.2247 12.9063C15.5935 13.2751 15.589 13.858 15.2278 14.2131L15.2247 14.2162L14.2163 15.2247C13.8475 15.5935 13.2649 15.589 12.9099 15.2277L12.9099 15.2277L12.9068 15.2247L8.35964 10.6768L8.00606 10.3231L7.65248 10.6768L3.10529 15.2247C2.7365 15.5935 2.15386 15.589 1.79885 15.2277L1.79886 15.2277L1.79579 15.2247L0.787453 14.2162C0.418626 13.8473 0.423086 13.2644 0.784366 12.9093L0.787454 12.9063L5.33464 8.35837L5.68887 8.0041L5.33389 7.65057Z" stroke="#F04163"/>
</svg>
