<svg width="45" height="44" viewBox="0 0 45 44" fill="#7894B0" xmlns="http://www.w3.org/2000/svg">
<path d="M37.46 21.9898C37.462 24.957 36.584 27.8581 34.937 30.3261C33.29 32.7942 30.948 34.7184 28.2073 35.8553C25.4666 36.9921 22.4502 37.2906 19.5398 36.713C16.6295 36.1354 13.9558 34.7076 11.857 32.6102C9.75819 30.5128 8.32852 27.8401 7.74892 24.9301C7.16932 22.0201 7.46583 19.0036 8.60084 16.2621C9.73586 13.5206 11.6584 11.1773 14.1253 9.52866C16.5923 7.87999 19.4928 7 22.46 7C26.4365 7 30.2502 8.57895 33.0629 11.3898C35.8757 14.2006 37.4573 18.0133 37.46 21.9898ZM11.958 14.2252L15.7944 18.0617C16.4607 16.9325 17.4026 15.9907 18.5319 15.3243L14.6954 11.4878C13.6768 12.2876 12.7578 13.2066 11.958 14.2252ZM14.6954 32.4919L18.5319 28.6655C17.4048 27.9964 16.4635 27.0552 15.7944 25.9281L11.958 29.7646C12.7553 30.7824 13.6746 31.6983 14.6954 32.4919ZM28.2706 21.9898C28.2706 20.8406 27.9299 19.7171 27.2914 18.7616C26.6529 17.806 25.7455 17.0612 24.6837 16.6214C23.6219 16.1816 22.4535 16.0665 21.3263 16.2908C20.1991 16.515 19.1638 17.0684 18.3511 17.881C17.5385 18.6937 16.9852 19.729 16.761 20.8562C16.5368 21.9834 16.6517 23.1517 17.0915 24.2135C17.5313 25.2753 18.2762 26.1828 19.2318 26.8213C20.1873 27.4597 21.3107 27.8005 22.46 27.8005C24.0011 27.8005 25.4791 27.1883 26.5688 26.0986C27.6585 25.0089 28.2706 23.5309 28.2706 21.9898ZM30.2246 11.4878L26.3982 15.3243C27.5208 15.9992 28.4608 16.9391 29.1357 18.0617L32.9619 14.2252C32.1622 13.2066 31.2432 12.2876 30.2246 11.4878ZM32.9619 29.8053L29.1357 25.9688C28.4608 27.0914 27.5208 28.0313 26.3982 28.7062L30.2246 32.5326C31.2478 31.7264 32.1672 30.7967 32.9619 29.7646V29.8053Z"/>
</svg>
