<svg enable-background="new 0 0 590 510" height="510" viewBox="0 0 590 510" width="590" xmlns="http://www.w3.org/2000/svg"><path d="m309.63.67 94.38 47.42-61.37 30.22z" fill="#687e91"/><path d="m342.64 78.31 61.37-30.22 31.15-16.27s43.24 22.32 51.14 39.52.93 63.69.93 63.69l-90.19 48.35s28.82-75.78 20.92-86.47-75.32-18.6-75.32-18.6z" fill="#f09453"/><path d="m486.3 71.34c7.9 17.2.93 63.69.93 63.69l-90.19 48.35s28.82-75.78 20.92-86.47z" fill="#41576d"/><path d="m417.96 96.91c-7.9-10.69-75.32-18.6-75.32-18.6l61.37-30.22 31.15-16.27s43.24 22.32 51.14 39.52" fill="#687e91"/><path d="m434.69 247.07-44.09-61.76 6.44-1.93z" fill="#021c35"/><path d="m342.64 78.31s67.41 7.9 75.32 18.6-20.92 86.47-20.92 86.47l-6.44 1.93s29.92-78.88 24.11-85.15c-5.81-6.28-72.99-19.06-72.99-19.06z" fill="#021c35"/><path d="m341.71 81.1s67.18 12.79 72.99 19.06c-27.66 6.04-103.68 44.4-119.72 53.93s-29.06 23.71-40.45 27.89-40.45 9.53-40.45 9.53 33.47-22.71 69.5-59.71 58.13-50.7 58.13-50.7z" fill="#41576d"/><path d="m434.69 247.07 9.11-88.76-46.76 25.07z" fill="#41576d"/><path d="m390.6 185.31s29.92-78.88 24.11-85.15c-6.97 9.76-39.05 32.31-108.79 64.39s-78.11 34.17-130.64 39.98l-4.18 3.72s121.11-5.58 150.4-9.76c29.28-4.18 69.1-13.18 69.1-13.18z" fill="#23394f"/><path d="m175.27 204.53c52.54-5.81 60.9-7.9 130.64-39.98s101.82-54.63 108.79-64.39c-40.61 23.81-119.53 67.61-166.86 87.13s-74.2 13.06-74.2 13.06l3.25 1.39z" fill="#021c35"/><path d="m173.65 200.35s26.88 6.46 74.2-13.06 126.25-63.32 166.86-87.13c-27.66 6.04-103.68 44.4-119.72 53.93s-29.06 23.71-40.45 27.89-40.45 9.53-40.45 9.53l-31.85.93v5.81z" fill="#23394f"/><path d="m182.25 192.45 31.85-.93c-30.26-7.51-48.71-34.95-48.71-34.95z" fill="#41576d"/><path d="m175.27 204.53-4.18 3.72-119.02 122.74s-4.65-21.33-24.41-50.3-27.66-35.71-27.66-35.71l173.65-44.63 3.25 1.39z" fill="#41576d"/><path d="m173.65 200.35-173.65 44.63c16.97-26.73 30.92-71.13 30.92-71.13l151.33 24.41z" fill="#23394f"/><path d="m30.92 173.85 151.33 24.41-160.86-120.41z" fill="#687e91"/><path d="m182.25 198.26-160.86-120.41s.93-3.72 17.67-15.57 62.76-40.91 62.76-40.91l80.43 171.09z" fill="#41576d"/><path d="m365.74 294.64-40.66-20.02-20.64-10.78s-28.65 14.79-33.88 26.18c-5.24 11.4-.62 42.2-.62 42.2l59.76 32.03s-19.1-50.21-13.86-57.29c5.23-7.08 49.9-12.32 49.9-12.32z" fill="#f09453"/><path d="m306.17 406.45 29.22-40.92-4.27-1.28z" fill="#001a22"/><path d="m363.87 292.33s-44.66 5.24-49.9 12.32 13.86 57.29 13.86 57.29l4.27 1.28s-19.82-52.26-15.97-56.42 48.36-12.63 48.36-12.63z" fill="#001a22"/><path d="m364.49 294.18s-44.51 8.47-48.36 12.63c18.33 4 68.69 29.42 79.32 35.73s19.25 15.71 26.8 18.48 20.35 10.36 20.35 10.36-15.73-19.09-39.6-43.6c-23.88-24.52-38.51-33.6-38.51-33.6z" fill="#41576d"/><path d="m332.1 363.22s-19.82-52.26-15.97-56.42c4.62 6.47 25.87 21.41 72.08 42.66s51.3 14.06 71 43.02l-.07 3.71s-61.85-21.47-81.25-24.24c-19.41-2.77-45.79-8.73-45.79-8.73z" fill="#23394f"/><path d="m459.21 392.48c-19.7-28.95-24.8-21.76-71-43.02s-67.46-36.19-72.08-42.66c26.9 15.77 79.19 44.79 110.55 57.73 31.36 12.93 35.34 26.97 35.34 26.97l-2.1-1.04z" fill="#021c35"/><path d="m462.02 391.5s-3.98-14.04-35.34-26.97-83.64-41.95-110.55-57.73c18.33 4 68.69 29.42 79.32 35.73s19.25 15.71 26.8 18.48 20.35 10.36 20.35 10.36l19.7 12.39-2.93 2.5z" fill="#23394f"/><path d="m462.29 383.77-19.7-12.39c16.82 12 45.03 5.43 45.03 5.43z" fill="#41576d"/><path d="m459.21 392.48-.07 3.71-10.52 112.78s12.74-6.85 35.83-9.38 29.89-1.46 29.89-1.46l-52.32-106.63-2.1-1.04z" fill="#41576d"/><path d="m462.02 391.5 52.33 106.64c6.15-20.06 22.49-46.2 22.49-46.2l-77.47-65.67z" fill="#23394f"/><path d="m536.84 451.94-77.47-65.67 129.9 29.11z" fill="#687e91"/><path d="m459.37 386.27 129.91 29.11s1.47-2.07.23-15.6-6.44-49.22-6.44-49.22l-120.77 33.2z" fill="#41576d"/><path d="m315.84 306.96c5.24-7.08 49.9-12.32 49.9-12.32l-40.66-20.02-20.64-10.78s-28.65 14.79-33.88 26.18" fill="#687e91"/><path d="m387.61 243.2-62.53 31.42 40.66 20.02z" fill="#687e91"/><g fill="#41576d"><path d="m270.56 290.02c-5.24 11.4-.62 42.2-.62 42.2l59.76 32.03s-19.1-50.21-13.86-57.29z"/><path d="m306.17 406.45-6.03-58.81 30.98 16.61z"/></g></svg>