<svg width="30" height="24" viewBox="0 0 30 24" fill="none" xmlns="http://www.w3.org/2000/svg">
<g clip-path="url(#clip0_5360_21919)">
<path d="M10.5 12C13.8137 12 16.5 9.31371 16.5 6C16.5 2.68629 13.8137 0 10.5 0C7.18629 0 4.5 2.68629 4.5 6C4.5 9.31371 7.18629 12 10.5 12Z" fill="#7893B0"/>
<path d="M18.71 16C18.41 16 18.12 15.91 17.87 15.73C17.23 15.26 16.59 14.54 16.13 13.67C15.67 13.56 15.19 13.5 14.7 13.5H13.92C12.88 13.98 11.72 14.25 10.5 14.25C9.28 14.25 8.13 13.98 7.08 13.5H6.3C2.82 13.5 0 16.32 0 19.8V21.75C0 22.99 1.01 24 2.25 24H18.75C19.99 24 21 22.99 21 21.75V19.8C21 18.25 20.44 16.84 19.51 15.74C19.27 15.9 19 16 18.7 16H18.71Z" fill="#7893B0"/>
<path d="M22.68 12.6106C22.32 12.9206 21.75 12.6706 21.75 12.1806V10.2106C19.2 10.5006 18.21 11.5906 19.11 14.4806C19.23 14.8606 18.77 15.1506 18.45 14.9206C17.42 14.1706 16.5 12.7506 16.5 11.3106C16.5 8.23064 18.72 7.25064 21.75 7.01064V5.07064C21.75 4.59064 22.32 4.33064 22.68 4.64064L26.8 8.20064C27.06 8.42064 27.06 8.83064 26.8 9.05064L22.68 12.6106ZM29.8 9.05064L25.68 12.6106C25.32 12.9206 24.75 12.6706 24.75 12.1806V11.8106L27.3 9.61064C27.55 9.39064 27.75 8.95064 27.75 8.62064C27.75 8.29064 27.55 7.84064 27.3 7.63064L24.75 5.43064V5.06064C24.75 4.58064 25.32 4.32064 25.68 4.63064L29.8 8.19064C30.06 8.41064 30.06 8.82064 29.8 9.04064V9.05064Z" fill="#7893B0"/>
</g>
<defs>
<clipPath id="clip0_5360_21919">
<rect width="30" height="24" fill="white"/>
</clipPath>
</defs>
</svg>
