<svg width="24" height="24" viewBox="0 0 24 24" fill="none" xmlns="http://www.w3.org/2000/svg">
<path d="M16.5 5.24C16.5 4.97 16.39 4.71 16.2 4.51L11.99 0.3C11.8 0.11 11.53 0 11.26 0H11V5.5H16.5V5.24Z" fill="#7893B0"/>
<path d="M7.74 16.5H4.64C4.36 16.5 4.12 16.27 4.12 15.98V15.64C4.12 15.36 4.35 15.12 4.64 15.12H7.86C7.93 14.65 8.04 14.19 8.19 13.74H4.64C4.36 13.74 4.12 13.51 4.12 13.22V12.88C4.12 12.6 4.35 12.36 4.64 12.36H8.77C9.03 11.87 9.34 11.41 9.68 10.98H4.64C4.36 10.98 4.12 10.75 4.12 10.46V10.12C4.12 9.84 4.35 9.6 4.64 9.6H11.08C12.57 8.42 14.45 7.71 16.5 7.71V6.85H10.66C10.09 6.85 9.63 6.39 9.63 5.82V0H1.03C0.46 0 0 0.46 0 1.03V20.97C0 21.54 0.46 22 1.03 22H9.69C8.47 20.49 7.74 18.58 7.74 16.5Z" fill="#7893B0"/>
<path d="M23.7602 16.5002C23.7602 20.5102 20.5102 23.7602 16.5002 23.7602C12.4902 23.7602 9.24023 20.5102 9.24023 16.5002C9.24023 12.4902 12.4902 9.24023 16.5002 9.24023C20.5102 9.24023 23.7602 12.4902 23.7602 16.5002ZM16.4902 19.5302C15.6002 19.5302 14.4802 18.9302 13.9802 18.1902L15.7302 18.2702C15.8402 18.2702 15.9402 18.1802 15.9402 18.0602V17.2502C15.9402 17.1402 15.8502 17.0402 15.7302 17.0402H12.2902C12.1802 17.0402 12.0802 17.1302 12.0802 17.2502V20.6902C12.0802 20.8002 12.1702 20.9002 12.2902 20.9002H13.1002C13.2102 20.9002 13.3102 20.8102 13.3102 20.6902C13.3102 20.6902 13.3102 20.6902 13.3102 20.6802L13.2402 19.2602C13.9402 20.0902 15.3902 20.7602 16.4802 20.7602C18.5602 20.7602 20.2902 19.2702 20.6702 17.2902C20.6702 17.2802 20.6702 17.2602 20.6702 17.2502C20.6702 17.1402 20.5802 17.0402 20.4602 17.0402H19.6202C19.5302 17.0402 19.4402 17.1102 19.4202 17.2002C19.1102 18.4802 17.8002 19.5202 16.4802 19.5202L16.4902 19.5302ZM19.6702 12.3202L19.7402 13.7402C19.0402 12.9102 17.5902 12.2402 16.5002 12.2402C14.4202 12.2402 12.6902 13.7302 12.3102 15.7102C12.3102 15.7202 12.3102 15.7402 12.3102 15.7502C12.3102 15.8602 12.4002 15.9602 12.5202 15.9602H13.3602C13.4502 15.9602 13.5402 15.8902 13.5602 15.8002C13.8702 14.5202 15.1802 13.4902 16.5002 13.4902C17.3902 13.4902 18.5102 14.0902 19.0102 14.8302L17.2702 14.7502C17.1602 14.7502 17.0602 14.8402 17.0602 14.9602V15.7802C17.0602 15.8902 17.1502 15.9902 17.2702 15.9902H20.7102C20.8202 15.9902 20.9202 15.9002 20.9202 15.7802V12.3402C20.9202 12.2302 20.8302 12.1302 20.7102 12.1302H19.9002C19.7902 12.1302 19.6902 12.2202 19.6902 12.3402C19.6902 12.3402 19.6902 12.3402 19.6902 12.3502L19.6702 12.3202Z" fill="#7893B0"/>
</svg>
