<svg width="16" height="18" viewBox="0 0 16 18" fill="none" xmlns="http://www.w3.org/2000/svg">
<path d="M15.1567 11.1403C14.4746 10.7425 13.641 10.8845 13.1105 11.415L10.9696 10.1741V7.76791L13.1105 6.52694C13.641 7.05743 14.4746 7.19005 15.1567 6.80166C15.9714 6.328 16.2461 5.29544 15.7819 4.48076C15.3177 3.66607 14.2757 3.39136 13.461 3.85554C12.779 4.24393 12.4853 5.03967 12.6748 5.76909L10.9696 6.75429V6.00592H8.44977V3.33452C9.1792 3.13558 9.70969 2.48194 9.70969 1.69568C9.70969 0.757845 8.95185 0 8.01401 0C7.07618 0 6.31834 0.757845 6.31834 1.69568C6.31834 2.48194 6.8583 3.13558 7.57825 3.33452V6.01539H5.05842V6.76377L3.35327 5.77857C3.54273 5.04914 3.24906 4.26288 2.567 3.86501C1.75232 3.39136 0.710284 3.67555 0.246104 4.49023C-0.227549 5.30491 0.0566428 6.34695 0.871326 6.81113C1.55339 7.209 2.38702 7.0669 2.91751 6.53641L5.05842 7.77738V10.1835L2.91751 11.4245C2.38702 10.894 1.55339 10.7614 0.871326 11.1498C0.0566428 11.6234 -0.218076 12.656 0.246104 13.4707C0.719757 14.2854 1.75232 14.5601 2.567 14.0959C3.24906 13.7075 3.54273 12.9118 3.35327 12.1824L5.05842 11.1972V11.9455H7.57825V14.6264C6.84883 14.8253 6.31834 15.479 6.31834 16.2652C6.31834 17.2031 7.07618 17.9609 8.01401 17.9609C8.95185 17.9609 9.70969 17.2031 9.70969 16.2652C9.70969 15.479 9.16973 14.8253 8.44977 14.6264V11.9455H10.9696V11.1972L12.6748 12.1824C12.4853 12.9118 12.779 13.698 13.461 14.0959C14.2757 14.5696 15.3177 14.2854 15.7819 13.4707C16.2461 12.656 15.9714 11.614 15.1567 11.1498V11.1403Z" fill="#7893B0"/>
</svg>
