  <svg
            className="w-7 h-8"
            stroke="white"
            xmlns="http://www.w3.org/2000/svg"
            xmlSpace="preserve"
            viewBox="0 0 32 32"
          >
            <path
              fill="none"
              d="M16.02 32c-1.62 0-3.22-.24-4.75-.72a.494.494 0 0 1 .3-.94c1.44.45 2.94.68 4.46.68 6.21 0 11.86-3.91 14.06-9.73.1-.26.38-.38.63-.29.25.1.38.38.29.63C28.66 27.83 22.64 32 16.02 32zm-11.1-4.69a.47.47 0 0 1-.35-.15C1.64 24.15.02 20.19.02 16c0-8.82 7.18-16 16-16 8.3 0 15.31 6.48 15.95 14.75a.493.493 0 0 1-.98.08C30.39 7.07 23.81.98 16.02.98 7.74.98 1.01 7.72 1.01 16c0 3.93 1.52 7.65 4.27 10.47.19.19.19.51-.01.7-.1.09-.23.14-.35.14z"
            />
            <path
              fill="none"
              d="M16.02 28.25c-6.75 0-12.24-5.5-12.24-12.25 0-1.48.26-2.92.78-4.3.1-.25.38-.38.63-.29.25.1.38.38.29.63-.48 1.27-.72 2.6-.72 3.96 0 6.21 5.05 11.26 11.26 11.26S27.29 22.21 27.29 16c0-1.29-.22-2.55-.64-3.76a.49.49 0 0 1 .3-.63c.26-.09.54.04.63.3.46 1.31.7 2.68.7 4.08-.01 6.76-5.5 12.26-12.26 12.26zM7.82 8.09a.47.47 0 0 1-.35-.15.492.492 0 0 1 .01-.7c2.3-2.25 5.34-3.49 8.55-3.49 3.1 0 6.06 1.17 8.34 3.28.2.18.21.5.02.7a.49.49 0 0 1-.69.03 11.215 11.215 0 0 0-7.67-3.02c-2.95 0-5.75 1.14-7.86 3.21-.11.09-.23.14-.35.14z"
            />
            <path
              fill="none"
              d="M16.02 24.49c-1.46 0-2.9-.38-4.16-1.09a.491.491 0 0 1-.19-.67c.13-.24.43-.32.67-.19 1.12.63 2.39.96 3.68.96 2.59 0 4.97-1.32 6.36-3.52.14-.23.45-.3.68-.15.23.14.3.45.15.68a8.442 8.442 0 0 1-7.19 3.98zm-6.71-3.66a.49.49 0 0 1-.41-.22A8.406 8.406 0 0 1 7.53 16c0-4.68 3.81-8.49 8.49-8.49s8.49 3.81 8.49 8.49c0 .26-.01.51-.03.77-.03.27-.28.47-.53.45a.493.493 0 0 1-.45-.53c.02-.22.03-.45.03-.68 0-4.14-3.37-7.51-7.51-7.51a7.503 7.503 0 0 0-6.3 11.57c.15.23.08.53-.15.68a.42.42 0 0 1-.26.08z"
            />
            <path
              fill="none"
              d="M16.02 21.01c-.47 0-.93-.07-1.38-.19a.494.494 0 1 1 .27-.95c.36.1.73.15 1.11.15 1.43 0 2.77-.77 3.49-2.02.14-.24.44-.31.67-.18.24.14.32.44.18.67a5.02 5.02 0 0 1-4.34 2.52zm-3.1-1.25c-.12 0-.24-.05-.34-.14a5.023 5.023 0 0 1-1.56-3.63c0-2.76 2.25-5.01 5.01-5.01s5.01 2.25 5.01 5.01a.49.49 0 0 1-.98 0c0-2.22-1.8-4.02-4.02-4.02S12 13.78 12 16c0 1.11.44 2.15 1.25 2.91.2.19.2.5.02.7a.47.47 0 0 1-.35.15z"
            />
            <path
              fill="none"
              d="M16.02 18.5c-.17 0-.34-.02-.5-.05-1.16-.24-2-1.27-2-2.45 0-.13.01-.25.03-.37.04-.27.3-.45.56-.41.27.04.45.29.41.56-.01.07-.02.15-.02.22a1.521 1.521 0 0 0 1.52 1.52.49.49 0 0 1 0 .98zm1.74-.99c-.09 0-.17-.02-.25-.07a.502.502 0 0 1-.18-.67c.1-.17.17-.36.19-.56.04-.27.29-.46.55-.42.27.04.46.28.42.55-.04.33-.15.64-.32.93-.08.15-.24.24-.41.24zM17.37 15a.46.46 0 0 1-.33-.13c-.44-.4-1.11-.5-1.65-.25-.25.11-.54 0-.65-.24a.487.487 0 0 1 .24-.65 2.52 2.52 0 0 1 2.71.42c.2.18.22.49.04.69a.5.5 0 0 1-.36.16z"
            />
          </svg>