<svg width="17" height="15" viewBox="0 0 17 15" fill="none" xmlns="http://www.w3.org/2000/svg">
<path d="M14.6677 14.2252H1.3344C0.309218 14.2252 -0.330782 13.1111 0.178848 12.2281L6.84551 0.666667C7.36107 -0.222222 8.64107 -0.222222 9.15662 0.666667L15.8233 12.2222C16.3388 13.1111 15.6929 14.2193 14.6677 14.2193V14.2252ZM6.727 11.1141C6.727 11.8193 7.30181 12.3941 8.007 12.3941C8.71218 12.3941 9.28699 11.8193 9.28699 11.1141C9.28699 10.4089 8.71218 9.83407 8.007 9.83407C7.30181 9.83407 6.727 10.4089 6.727 11.1141ZM6.99959 9.02222C7.01144 9.2 7.15366 9.3363 7.33144 9.3363H8.68255C8.86033 9.3363 9.00848 9.2 9.0144 9.02222L9.22181 5.24148C9.23366 5.05185 9.07959 4.89185 8.88996 4.89185H7.12996C6.94033 4.89185 6.78625 5.05185 6.79811 5.24148L7.00551 9.02222H6.99959Z" fill="#7993B0"/>
</svg>
