<svg width="45" height="45" viewBox="0 0 45 45" fill="none" xmlns="http://www.w3.org/2000/svg">
<path d="M43.6997 40.9613L41.2659 43.395C40.4684 44.2062 39.1622 44.2062 38.3509 43.395L29.7847 34.8288C29.3997 34.4437 29.1797 33.9212 29.1797 33.3713V31.9688C26.1409 34.3338 22.3322 35.75 18.1797 35.75C8.30719 35.75 0.304688 27.7475 0.304688 17.875C0.304688 8.0025 8.30719 0 18.1797 0C28.0522 0 36.0547 8.0025 36.0547 17.875C36.0547 22.0275 34.6522 25.8363 32.2734 28.875H33.6759C34.2259 28.875 34.7484 29.095 35.1334 29.48L43.6997 38.0462C44.4972 38.8575 44.4972 40.1637 43.6997 40.9613ZM33.3597 17.875C33.3597 9.47375 26.5672 2.695 18.1797 2.695C9.79219 2.695 2.99969 9.4875 2.99969 17.875C2.99969 26.2625 9.79219 33.055 18.1797 33.055C26.5672 33.055 33.3597 26.2625 33.3597 17.875Z" fill="#7893B0"/>
<path d="M14.3688 23.3585H11.081C10.2789 23.3585 9.62226 22.7063 9.62226 21.8997V20.2383C9.62226 19.4361 10.2745 18.7795 11.081 18.7795H13.0951L14.285 17.5058L13.0951 16.2321H11.081C10.2789 16.2321 9.62226 15.5799 9.62226 14.7734V13.1119C9.62226 12.3098 10.2745 11.6531 11.081 11.6531H14.3688C14.3952 11.6531 14.4217 11.6619 14.4437 11.6619V9H7V26.0601H14.4437V23.3497C14.4172 23.3497 14.3952 23.3585 14.3688 23.3585Z" fill="#7893B0"/>
<path d="M21.5518 9V10.2869C21.7192 10.1238 21.9131 9.9828 22.1379 9.89025C22.8166 9.60819 23.5967 9.76244 24.1167 10.2825L26.4922 12.6579C27.1973 13.3675 27.1973 14.5178 26.4922 15.2229L24.2137 17.5014L26.4922 19.7799C27.1973 20.4851 27.1973 21.6397 26.4922 22.3449L24.1167 24.7203C23.7686 25.0685 23.3058 25.2536 22.8386 25.2536C22.6051 25.2536 22.3671 25.2095 22.1423 25.1126C21.9176 25.02 21.7192 24.8834 21.5562 24.7159V26.0557H28.9999V9H21.5562H21.5518Z" fill="#7893B0"/>
<path d="M21.1735 15.1296L14.6289 22.1414C14.5628 22.2119 14.4658 22.256 14.3689 22.256H11.0811C10.8828 22.256 10.7241 22.0973 10.7241 21.899V20.2375C10.7241 20.0392 10.8828 19.8805 11.0811 19.8805H13.5756L20.1202 12.8687C20.1775 12.807 20.2965 12.7541 20.3802 12.7541H22.1254V11.5686C22.1254 10.934 22.8967 10.6167 23.3418 11.0662L25.7173 13.4417C25.9949 13.7193 25.9949 14.1732 25.7173 14.4509L23.3418 16.8264C22.8967 17.2715 22.1254 16.9586 22.1254 16.3239V15.1384H21.1735V15.1296ZM10.7241 14.7726V13.1111C10.7241 12.9128 10.8828 12.7541 11.0811 12.7541H14.3689C14.4526 12.7541 14.5716 12.807 14.6289 12.8687L16.7223 15.112L15.1401 16.8087L13.5712 15.1296H11.0767C10.8784 15.1296 10.7197 14.9709 10.7197 14.7726H10.7241ZM25.7173 21.5729L23.3418 23.9483C22.8967 24.3934 22.1254 24.0805 22.1254 23.4459V22.2604H20.3802C20.2965 22.2604 20.1775 22.2075 20.1202 22.1458L18.0268 19.9026L19.609 18.2058L21.1779 19.8849H22.1299V18.6994C22.1299 18.0648 22.9011 17.7475 23.3462 18.197L25.7217 20.5724C25.9993 20.8501 25.9993 21.2996 25.7217 21.5817L25.7173 21.5729Z" fill="#7893B0"/>
</svg>
