<svg width="48" height="44" viewBox="0 0 48 44" fill="none" xmlns="http://www.w3.org/2000/svg">
<path d="M47.3915 35.2622C47.3915 40.0901 43.4817 43.9999 38.6538 43.9999C33.8258 43.9999 29.916 40.0901 29.916 35.2622C29.916 30.4342 33.8258 26.5244 38.6538 26.5244C43.4817 26.5244 47.3915 30.4342 47.3915 35.2622ZM38.6538 31.6486C36.6544 31.6486 35.0402 33.2628 35.0402 35.2622C35.0402 37.2615 36.6544 38.8757 38.6538 38.8757C40.6531 38.8757 42.2673 37.2615 42.2673 35.2622C42.2673 33.2628 40.6531 31.6486 38.6538 31.6486Z" fill="#7894B0"/>
<path d="M38.6532 31.633C37.0982 31.633 35.8394 30.3741 35.8394 28.8191V21.2217C35.8394 19.3853 35.2766 15.7569 33.1736 13.8761C32.2258 13.0319 31.0262 11.9508 29.8562 10.8697V13.5799C29.8562 15.1349 28.5974 16.3937 27.0424 16.3937C25.4873 16.3937 24.2285 15.1349 24.2285 13.5799V4.47189C24.2285 3.74622 24.4951 3.1094 24.9246 2.62067C25.0431 2.48739 25.1615 2.36891 25.3096 2.26524C25.7391 1.92462 26.2871 1.70247 26.8646 1.67285C26.9239 1.67285 26.9979 1.67285 27.0572 1.67285H36.7872C38.3422 1.67285 39.601 2.93168 39.601 4.4867C39.601 6.04173 38.3422 7.30056 36.7872 7.30056H34.2695C35.2173 8.15952 36.1504 9.00368 36.9205 9.68493C41.2449 13.5503 41.4671 19.9777 41.4671 21.2217V28.8191C41.4671 30.3741 40.2082 31.633 38.6532 31.633Z" fill="#7894B0"/>
<path d="M0 8.73775C0 3.90978 3.90977 0 8.73774 0C13.5657 0 17.4755 3.90978 17.4755 8.73775C17.4755 13.5657 13.5657 17.4755 8.73774 17.4755C3.90977 17.4755 0 13.5657 0 8.73775ZM8.73774 12.3513C10.7371 12.3513 12.3513 10.7371 12.3513 8.73775C12.3513 6.73844 10.7371 5.12418 8.73774 5.12418C6.73843 5.12418 5.12416 6.73844 5.12416 8.73775C5.12416 10.7371 6.73843 12.3513 8.73774 12.3513Z" fill="#7894B0"/>
<path d="M20.3633 42.3107H10.6037C9.04867 42.3107 7.78985 41.0519 7.78985 39.4969C7.78985 37.9418 9.04867 36.683 10.6037 36.683H13.1214C12.1735 35.824 11.2405 34.9799 10.4704 34.2986C6.14596 30.4333 5.92383 24.0059 5.92383 22.7618V15.1644C5.92383 13.6094 7.18265 12.3506 8.73767 12.3506C10.2927 12.3506 11.5515 13.6094 11.5515 15.1644V22.7618C11.5515 24.5982 12.1143 28.2266 14.2173 30.1075C15.1651 30.9516 16.3647 32.0327 17.5347 33.1139V30.4037C17.5347 28.8486 18.7935 27.5898 20.3485 27.5898C21.9035 27.5898 23.1624 28.8486 23.1624 30.4037V39.5117C23.1624 40.2225 22.8958 40.8742 22.4663 41.3629C22.3478 41.4962 22.2145 41.6147 22.0812 41.7331C21.637 42.0738 21.1038 42.2959 20.5114 42.3255C20.4522 42.3255 20.4077 42.3255 20.3485 42.3255L20.3633 42.3107Z" fill="#7894B0"/>
</svg>
