<svg width="45" height="44" viewBox="0 0 45 44" fill="none" xmlns="http://www.w3.org/2000/svg">
<path d="M17.2036 24.1865H9.37988V26.7028H17.2036V24.1865Z" fill="#7993B0"/>
<path d="M17.2036 14.1211H9.37988V16.6373H17.2036V14.1211Z" fill="#7993B0"/>
<path d="M26.98 24.1865H19.1562V26.7028H26.98V24.1865Z" fill="#7993B0"/>
<path d="M26.98 14.1211H19.1562V16.6373H26.98V14.1211Z" fill="#7993B0"/>
<path d="M22.0982 9.08887H14.2744V11.6051H22.0982V9.08887Z" fill="#7993B0"/>
<path d="M22.0982 19.1543H14.2744V21.6705H22.0982V19.1543Z" fill="#7993B0"/>
<path d="M12.3086 9.08887H9.37988V11.6051H12.3086V9.08887Z" fill="#7993B0"/>
<path d="M12.3086 19.1543H9.37988V21.6705H12.3086V19.1543Z" fill="#7993B0"/>
<path d="M26.9795 9.08887H24.0508V11.6051H26.9795V9.08887Z" fill="#7993B0"/>
<path d="M26.9795 19.1543H24.0508V21.6705H26.9795V19.1543Z" fill="#7993B0"/>
<path d="M43.6997 40.9613L41.2659 43.395C40.4684 44.2062 39.1622 44.2062 38.3509 43.395L29.7847 34.8287C29.3997 34.4437 29.1797 33.9213 29.1797 33.3713V31.9688C26.1409 34.3338 22.3322 35.75 18.1797 35.75C8.30719 35.75 0.304688 27.7475 0.304688 17.875C0.304688 8.0025 8.30719 0 18.1797 0C28.0522 0 36.0547 8.0025 36.0547 17.875C36.0547 22.0275 34.6522 25.8362 32.2734 28.875H33.6759C34.2259 28.875 34.7484 29.095 35.1334 29.48L43.6997 38.0463C44.4972 38.8575 44.4972 40.1638 43.6997 40.9613V40.9613ZM33.3597 17.875C33.3597 9.47375 26.5672 2.695 18.1797 2.695C9.79219 2.695 2.99969 9.4875 2.99969 17.875C2.99969 26.2625 9.79219 33.055 18.1797 33.055C26.5672 33.055 33.3597 26.2625 33.3597 17.875Z" fill="#7893B0"/>
</svg>
