<svg width="44" height="44" viewBox="0 0 44 44" fill="none" xmlns="http://www.w3.org/2000/svg">
<path d="M13.1995 13.2H20.8995V15.4H13.1995V17.0363L15.4133 20.9C14.602 20.9 13.9008 21.34 13.5158 22L10.9995 17.6H7.71328C7.10828 17.6 6.61328 17.105 6.61328 16.5V12.1C6.61328 11.495 7.10828 11 7.71328 11H12.1133C12.7183 11 13.2133 11.495 13.2133 12.1V13.2H13.1995ZM28.5995 12.1V16.5C28.5995 17.105 28.1045 17.6 27.4995 17.6H23.0995C22.4945 17.6 21.9995 17.105 21.9995 16.5V12.1C21.9995 11.495 22.4945 11 23.0995 11H27.4995C28.1045 11 28.5995 11.495 28.5995 12.1V12.1Z" fill="#7893B0"/>
<path d="M19.5248 22H15.6748C14.9154 22 14.2998 22.6156 14.2998 23.375V27.225C14.2998 27.9844 14.9154 28.6 15.6748 28.6H19.5248C20.2842 28.6 20.8998 27.9844 20.8998 27.225V23.375C20.8998 22.6156 20.2842 22 19.5248 22Z" fill="#7893B0"/>
<path d="M43.3812 40.9613L40.9475 43.395C40.15 44.2062 38.8437 44.2062 38.0325 43.395L29.4663 34.8287C29.0813 34.4437 28.8612 33.9213 28.8612 33.3713V31.9688C25.8225 34.3338 22.0137 35.75 17.8612 35.75C8.0025 35.75 0 27.7475 0 17.875C0 8.0025 8.0025 0 17.875 0C27.7475 0 35.75 8.0025 35.75 17.875C35.75 22.0275 34.3475 25.8362 31.9688 28.875H33.3713C33.9213 28.875 34.4437 29.095 34.8287 29.48L43.395 38.0463C44.1925 38.8575 44.1925 40.1638 43.395 40.9613H43.3812ZM33.0413 17.875C33.0413 9.47375 26.2487 2.695 17.8612 2.695C9.47375 2.695 2.695 9.4875 2.695 17.875C2.695 26.2625 9.4875 33.055 17.875 33.055C26.2625 33.055 33.055 26.2625 33.055 17.875H33.0413Z" fill="#7893B0"/>
</svg>
