<svg width="30" height="25" viewBox="0 0 30 25" fill="none" xmlns="http://www.w3.org/2000/svg">
<path d="M9 3.74963H19.5V6.72582H9V8.93812L12.01 14.1663H12C10.89 14.1663 9.94 14.7715 9.42 15.6544L5.99 9.70201H1.5C0.67 9.70201 0 9.03733 0 8.21391V2.26153C0 1.43812 0.67 0.773438 1.5 0.773438H7.5C8.33 0.773438 9 1.43812 9 2.26153V3.74963ZM30 2.26153V8.21391C30 9.03733 29.33 9.70201 28.5 9.70201H22.5C21.67 9.70201 21 9.03733 21 8.21391V2.26153C21 1.43812 21.67 0.773438 22.5 0.773438H28.5C29.33 0.773438 30 1.43812 30 2.26153Z" fill="#7893B0"/>
<path d="M18 15.6562H12C11.1716 15.6562 10.5 16.3225 10.5 17.1443V23.0967C10.5 23.9186 11.1716 24.5848 12 24.5848H18C18.8284 24.5848 19.5 23.9186 19.5 23.0967V17.1443C19.5 16.3225 18.8284 15.6562 18 15.6562Z" fill="#7893B0"/>
</svg>
