<svg width="34" height="44" viewBox="0 0 34 44" fill="none" xmlns="http://www.w3.org/2000/svg">
<path d="M15.5833 3.68502V11.715C15.5833 14.8684 18.15 17.435 21.3033 17.435H29.3333V40.3517H3.66667V3.68502H15.5833ZM19.25 0.0183512H2.05333C0.916665 0.0183512 0 0.935009 0 2.07168V41.9467C0 43.0833 0.916665 44 2.05333 44H30.9283C32.065 44 32.9817 43.0833 32.9817 41.9467V13.75H21.285C20.1483 13.75 19.2317 12.815 19.2317 11.6967V0L19.25 0.0183512Z" fill="#7894B0"/>
<path d="M33 10.4859V11.0176H22V0.0175781H22.5317C23.0817 0.0175781 23.6133 0.237609 23.9983 0.622609L32.4133 9.0376C32.7983 9.4226 33.0183 9.95423 33.0183 10.4859H33Z" fill="#7894B0"/>
<path d="M11 31.3676C11 30.8176 10.45 30.2676 9.9 30.2676H6.6C6.05 30.2676 5.5 30.8176 5.5 31.3676V37.4176C5.5 37.9676 6.05 38.5176 6.6 38.5176H9.9C10.45 38.5176 11 37.9676 11 37.4176V31.3676ZM19.25 20.3676C19.25 19.8176 18.7 19.2676 18.15 19.2676H14.85C14.3 19.2676 13.75 19.8176 13.75 20.3676V37.4176C13.75 37.9676 14.3 38.5176 14.85 38.5176H18.15C18.7 38.5176 19.25 37.9676 19.25 37.4176V20.3676ZM22 37.4176C22 37.9676 22.55 38.5176 23.1 38.5176H26.4C26.95 38.5176 27.5 37.9676 27.5 37.4176V25.8676C27.5 25.3176 26.95 24.7676 26.4 24.7676H23.1C22.55 24.7676 22 25.3176 22 25.8676V37.4176Z" fill="#7894B0"/>
</svg>
