  <svg
                  width="24"
                  height="24"
                  viewBox="0 0 24 24"
                  fill="none"
                  xmlns="http://www.w3.org/2000/svg"
                >
                  <path
                    d="M19.5 21.75C19.5 22.99 18.49 24 17.25 24H6.75C5.51 24 4.5 22.99 4.5 21.75V2.25C4.5 1.01 5.51 0 6.75 0H17.25C18.49 0 19.5 1.01 19.5 2.25V21.75Z"
                    fill="#41576D"
                  />
                  <path
                    d="M3.38001 4.12V6.37H1.41001C1.25001 6.37 1.13001 6.24 1.13001 6.09V5.81H0.290009C0.13001 5.81 0.0100098 5.67999 0.0100098 5.52999V4.97C0.0100098 4.81 0.140009 4.68999 0.290009 4.68999H1.13001V4.41C1.13001 4.25 1.26001 4.13 1.41001 4.13H3.38001V4.12Z"
                    fill="#29ABE2"
                  />
                  <path
                    d="M3.38001 8.62V10.87H1.41001C1.25001 10.87 1.13001 10.74 1.13001 10.59V10.31H0.290009C0.13001 10.31 0.0100098 10.18 0.0100098 10.03V9.47C0.0100098 9.31 0.140009 9.18999 0.290009 9.18999H1.13001V8.91C1.13001 8.75 1.26001 8.63 1.41001 8.63H3.38001V8.62Z"
                    fill="#29ABE2"
                  />
                  <path
                    d="M3.38001 13.12V15.37H1.41001C1.25001 15.37 1.13001 15.24 1.13001 15.09V14.81H0.290009C0.13001 14.81 0.0100098 14.68 0.0100098 14.53V13.97C0.0100098 13.81 0.140009 13.69 0.290009 13.69H1.13001V13.41C1.13001 13.25 1.26001 13.13 1.41001 13.13H3.38001V13.12Z"
                    fill="#29ABE2"
                  />
                  <path
                    d="M3.38001 17.62V19.87H1.41001C1.25001 19.87 1.13001 19.74 1.13001 19.59V19.31H0.290009C0.13001 19.31 0.0100098 19.18 0.0100098 19.03V18.47C0.0100098 18.31 0.140009 18.19 0.290009 18.19H1.13001V17.91C1.13001 17.75 1.26001 17.63 1.41001 17.63H3.38001V17.62Z"
                    fill="#29ABE2"
                  />
                  <path
                    d="M23.9999 5.52999C23.9999 5.68999 23.8699 5.81 23.7199 5.81H22.8799V6.09C22.8799 6.25 22.7499 6.37 22.5999 6.37H20.6299V4.12H22.5999C22.7599 4.12 22.8799 4.25 22.8799 4.4V4.68H23.7199C23.8799 4.68 23.9999 4.81 23.9999 4.96V5.52V5.52999Z"
                    fill="#29ABE2"
                  />
                  <path
                    d="M23.9999 10.03C23.9999 10.19 23.8699 10.31 23.7199 10.31H22.8799V10.59C22.8799 10.75 22.7499 10.87 22.5999 10.87H20.6299V8.62H22.5999C22.7599 8.62 22.8799 8.75 22.8799 8.9V9.18H23.7199C23.8799 9.18 23.9999 9.31 23.9999 9.46V10.02V10.03Z"
                    fill="#29ABE2"
                  />
                  <path
                    d="M23.9999 14.53C23.9999 14.69 23.8699 14.81 23.7199 14.81H22.8799V15.09C22.8799 15.25 22.7499 15.37 22.5999 15.37H20.6299V13.12H22.5999C22.7599 13.12 22.8799 13.25 22.8799 13.4V13.68H23.7199C23.8799 13.68 23.9999 13.81 23.9999 13.96V14.52V14.53Z"
                    fill="#29ABE2"
                  />
                  <path
                    d="M23.9999 19.03C23.9999 19.19 23.8699 19.31 23.7199 19.31H22.8799V19.59C22.8799 19.75 22.7499 19.87 22.5999 19.87H20.6299V17.62H22.5999C22.7599 17.62 22.8799 17.75 22.8799 17.9V18.18H23.7199C23.8799 18.18 23.9999 18.31 23.9999 18.46V19.02V19.03Z"
                    fill="#29ABE2"
                  />
                </svg>