<svg width="22" height="24" viewBox="0 0 22 24" fill="none" xmlns="http://www.w3.org/2000/svg">
<path d="M21.5 13.07C21.5 14.96 16.8 16.5 11 16.5C5.2 16.5 0.5 14.96 0.5 13.07V8.25C2.76 9.8 6.88 10.53 11 10.53C15.12 10.53 19.24 9.81 21.5 8.25V13.07ZM21.5 20.57C21.5 22.46 16.8 24 11 24C5.2 24 0.5 22.46 0.5 20.57V15.75C2.76 17.3 6.88 18.03 11 18.03C15.12 18.03 19.24 17.31 21.5 15.75V20.57Z" fill="#41576D"/>
<path d="M21.5 5.57C21.5 7.46 16.8 9 11 9C5.2 9 0.5 7.46 0.5 5.57V3.43C0.5 1.54 5.2 0 11 0C16.8 0 21.5 1.54 21.5 3.43V5.57Z" fill="#29ABE2"/>
</svg>
