<svg width="24" height="22" viewBox="0 0 24 22" fill="none" xmlns="http://www.w3.org/2000/svg">
<path d="M0 6.69001V4.07001C0 3.76001 0.25 3.51001 0.56 3.51001H5.75C5.89 3.51001 6.07 3.59001 6.16 3.69001L9.47 7.23001L6.97 9.91001L4.5 7.26001H0.56C0.25 7.26001 0 7.01 0 6.7V6.69001ZM23.67 17.42L19.92 21.17C19.22 21.87 18 21.38 18 20.37V18.5H15.24C15.1 18.5 14.92 18.42 14.83 18.32L11.52 14.78L14.02 12.1L16.49 14.75H17.99V12.88C17.99 11.88 19.21 11.38 19.91 12.08L23.66 15.83C24.1 16.27 24.1 16.98 23.66 17.42H23.67Z" fill="#41576D"/>
<path d="M16.5 7.24998L6.17 18.32C6.06 18.43 5.91 18.5 5.76 18.5H0.56C0.25 18.5 0 18.25 0 17.94V15.32C0 15.01 0.25 14.76 0.56 14.76H4.5L14.83 3.68999C14.92 3.58999 15.11 3.50998 15.24 3.50998H18V1.63998C18 0.639982 19.22 0.139979 19.92 0.839979L23.67 4.58998C24.11 5.02998 24.11 5.73998 23.67 6.17998L19.92 9.92998C19.22 10.63 18 10.14 18 9.12998V7.25998H16.5V7.24998Z" fill="#29ABE2"/>
</svg>
