   <svg
                  width="30"
                  height="24"
                  viewBox="0 0 30 24"
                  fill="none"
                  xmlns="http://www.w3.org/2000/svg"
                >
                  <path
                    d="M19.6797 14.1883C20.1497 14.4583 20.3597 15.0383 20.1697 15.5483C19.7497 16.6783 18.9297 17.7183 18.1697 18.6283C17.8197 19.0483 17.2197 19.1483 16.7497 18.8783L15.3897 18.0883C14.6397 18.7283 13.7697 19.2383 12.8197 19.5783V21.1583C12.8197 21.6983 12.4297 22.1683 11.8997 22.2683C10.7497 22.4683 9.53969 22.4783 8.33969 22.2683C7.79969 22.1783 7.39969 21.7083 7.39969 21.1583V19.5783C6.44969 19.2383 5.57969 18.7383 4.82969 18.0883L3.46969 18.8683C2.99969 19.1383 2.39969 19.0383 2.04969 18.6183C1.28969 17.7083 0.489691 16.6683 0.0696907 15.5383C-0.120309 15.0283 0.0896907 14.4483 0.559691 14.1783L2.11969 13.3883C1.93969 12.4083 1.93969 11.3983 2.11969 10.4183L0.559691 9.62831C0.0896907 9.35831 -0.120309 8.77831 0.0696907 8.26831C0.489691 7.13831 1.28969 6.09831 2.04969 5.18831C2.39969 4.76831 2.99969 4.66831 3.46969 4.93831L4.82969 5.72831C5.57969 5.08831 6.44969 4.57831 7.39969 4.23831V2.65831C7.39969 2.11831 7.77969 1.64831 8.31969 1.55831C9.46969 1.35831 10.6897 1.34831 11.8797 1.55831C12.4197 1.64831 12.8197 2.11831 12.8197 2.66831V4.24831C13.7697 4.58831 14.6397 5.08831 15.3897 5.73831L16.7497 4.94831C17.2197 4.67831 17.8197 4.77831 18.1697 5.19831C18.9297 6.10831 19.7297 7.14831 20.1397 8.27831C20.3297 8.78831 20.1397 9.36831 19.6697 9.63831L18.0897 10.4283C18.2697 11.4083 18.2697 12.4183 18.0897 13.4083L19.6697 14.1983L19.6797 14.1883ZM7.62969 9.43831C4.85969 13.0483 8.97969 17.1683 12.5797 14.3983C15.3497 10.7883 11.2297 6.66831 7.62969 9.43831ZM23.6097 23.6283C23.4697 23.8783 23.1697 23.9783 22.8997 23.8783C22.3497 23.6683 21.8397 23.3783 21.3997 23.0083C21.1797 22.8283 21.1297 22.5183 21.2697 22.2683L21.6497 21.5983C21.3297 21.2183 21.0697 20.7883 20.8997 20.3183H20.1297C19.8497 20.3183 19.6097 20.1183 19.5597 19.8383C19.4697 19.2783 19.4597 18.6883 19.5597 18.0983C19.6097 17.8183 19.8497 17.6083 20.1297 17.6083H20.8997C21.0697 17.1383 21.3197 16.6983 21.6497 16.3283L21.2697 15.6583C21.1297 15.4183 21.1797 15.0983 21.3997 14.9183C21.8497 14.5483 22.3597 14.2483 22.8997 14.0483C23.1697 13.9483 23.4697 14.0483 23.6097 14.2983L23.9897 14.9683C24.4797 14.8783 24.9797 14.8783 25.4797 14.9683L25.8597 14.2983C25.9997 14.0483 26.2997 13.9483 26.5697 14.0483C27.1197 14.2583 27.6297 14.5483 28.0697 14.9183C28.2897 15.0983 28.3397 15.4083 28.1997 15.6583L27.8197 16.3283C28.1397 16.7083 28.3997 17.1383 28.5697 17.6083H29.3397C29.6197 17.6083 29.8597 17.8083 29.9097 18.0883C29.9997 18.6483 30.0097 19.2383 29.9097 19.8283C29.8597 20.1083 29.6197 20.3183 29.3397 20.3183H28.5697C28.3997 20.7883 28.1497 21.2283 27.8197 21.5983L28.1997 22.2683C28.3397 22.5083 28.2897 22.8283 28.0697 23.0083C27.6197 23.3783 27.1097 23.6783 26.5697 23.8783C26.2997 23.9783 25.9997 23.8783 25.8597 23.6283L25.4797 22.9583C24.9897 23.0483 24.4897 23.0483 23.9897 22.9583L23.6097 23.6283ZM25.9797 17.7183C24.1797 16.3283 22.1197 18.3883 23.5097 20.1883C25.3097 21.5783 27.3697 19.5183 25.9797 17.7183Z"
                    fill="#41576D"
                  />
                  <path
                    d="M23.6098 9.61832C23.4698 9.86832 23.1698 9.96832 22.8998 9.86832C22.3498 9.65832 21.8398 9.36832 21.3998 8.99832C21.1798 8.81832 21.1298 8.50832 21.2698 8.25832L21.6498 7.58832C21.3298 7.20832 21.0698 6.77832 20.8998 6.30832H20.1298C19.8498 6.30832 19.6098 6.10832 19.5598 5.82832C19.4698 5.26832 19.4598 4.67832 19.5598 4.08832C19.6098 3.80832 19.8498 3.59832 20.1298 3.59832H20.8998C21.0698 3.12832 21.3198 2.68832 21.6498 2.31832L21.2698 1.64832C21.1298 1.40832 21.1798 1.08832 21.3998 0.90832C21.8498 0.53832 22.3598 0.23832 22.8998 0.0383203C23.1698 -0.0616797 23.4698 0.0383203 23.6098 0.28832L23.9898 0.95832C24.4798 0.86832 24.9798 0.86832 25.4798 0.95832L25.8598 0.28832C25.9998 0.0383203 26.2998 -0.0616797 26.5698 0.0383203C27.1198 0.24832 27.6298 0.53832 28.0698 0.90832C28.2898 1.08832 28.3398 1.39832 28.1998 1.64832L27.8198 2.31832C28.1398 2.69832 28.3998 3.12832 28.5698 3.59832H29.3398C29.6198 3.59832 29.8598 3.79832 29.9098 4.07832C29.9998 4.63832 30.0098 5.22832 29.9098 5.81832C29.8598 6.09832 29.6198 6.30832 29.3398 6.30832H28.5698C28.3998 6.77832 28.1498 7.21832 27.8198 7.58832L28.1998 8.25832C28.3398 8.49832 28.2898 8.81832 28.0698 8.99832C27.6198 9.36832 27.1098 9.66832 26.5698 9.86832C26.2998 9.96832 25.9998 9.86832 25.8598 9.61832L25.4798 8.94832C24.9898 9.03832 24.4898 9.03832 23.9898 8.94832L23.6098 9.61832ZM25.9798 3.71832C24.1798 2.32832 22.1198 4.38832 23.5098 6.19832C25.3098 7.58832 27.3698 5.52832 25.9798 3.71832Z"
                    fill="#29ABE2"
                  />
                </svg>