<svg width="70" height="78" viewBox="0 0 70 78" fill="none" xmlns="http://www.w3.org/2000/svg">
<path fill-rule="evenodd" clip-rule="evenodd" d="M26.6842 2.72316C40.7926 2.72316 50.6316 7.03368 50.6316 10.9063C50.6316 14.7789 40.7926 19.0895 26.6842 19.0895C12.5758 19.0895 2.73684 14.7789 2.73684 10.9063C2.73684 7.03368 12.5758 2.72316 26.6842 2.72316ZM26.3968 75.2632C12.4526 75.2632 2.73684 70.8568 2.73684 66.9021V55.0105C7.00632 58.5821 15.6958 60.9358 26.2189 60.9358C28.6411 60.9358 31.0905 60.799 33.4716 60.539L33.1705 57.8295C30.8853 58.0895 28.5453 58.2126 26.2189 58.2126C13.2053 58.2126 3.87263 54.3537 2.73684 50.6179V35.9211C7.00632 39.4926 15.6958 41.8463 26.2189 41.8463C28.6958 41.8463 31.1453 41.7095 33.4853 41.4358L33.1705 38.7263C30.9263 38.9863 28.5863 39.1095 26.2189 39.1095C13.2053 39.1095 3.87263 35.2505 2.73684 31.5147V15.8053C6.6779 19.1716 14.8063 21.8126 26.6842 21.8126C38.5621 21.8126 46.6905 19.1716 50.6316 15.8053V20.4442H53.3684V10.9063C53.3684 5.62421 44.0221 0 26.6842 0C9.34632 0 0 5.62421 0 10.9063V66.9158C0 73.2379 11.3579 78 26.3968 78C38.4937 78 48.7021 74.8116 51.8084 70.0632L49.5095 68.5716C47.3337 71.8968 38.6853 75.2632 26.3968 75.2632ZM59.1158 41.2716C59.8821 41.2716 60.5663 41.5726 61.0316 42.1337C61.88 43.16 61.7432 44.7063 61.6611 45.2537C61.7021 48.1411 63.2895 48.7021 63.4811 48.7568C64.0695 48.9347 64.48 49.4821 64.4663 50.0979C64.4526 50.7137 64.0421 51.2474 63.4537 51.3979C63.3032 51.439 61.6611 52.0274 61.6611 54.9968C61.6884 56.5979 60.9221 58.3768 59.1568 58.4316H58.1032V55.7084H58.8284C58.8832 55.5305 58.9242 55.2432 58.9242 55.0105C58.9242 52.52 59.7589 50.9874 60.6484 50.0705C59.7589 49.1537 58.9242 47.6211 58.9242 45.1442C58.9242 45.0621 58.9242 44.98 58.9516 44.8979C59.0063 44.6105 59.0063 44.2137 58.9516 43.9947H58.1032V41.2716H59.1158ZM52.7116 41.2716H53.7653V43.9947H53.04C52.9853 44.1726 52.9442 44.46 52.9442 44.6926C52.9442 47.1832 52.1095 48.7158 51.22 49.6326C52.1095 50.5495 52.9442 52.0821 52.9442 54.5589C52.9442 54.6411 52.9442 54.7232 52.9168 54.8053C52.8621 55.0926 52.8621 55.4895 52.9168 55.7084H53.7653V58.4316H52.7526C51.9863 58.4316 51.3021 58.1305 50.8368 57.5695C49.9884 56.5432 50.1253 54.9968 50.2074 54.4495C50.1663 51.5621 48.5789 51.0011 48.3874 50.9463C47.7989 50.7684 47.3884 50.2211 47.4021 49.6053C47.4158 48.9895 47.8263 48.4558 48.4284 48.3053C48.5789 48.2642 50.2211 47.6758 50.2211 44.7063C50.1937 43.1053 50.96 41.3263 52.7253 41.2716H52.7116ZM67.039 64.0695H43.7758V31.3505H58.8284V36.8105C58.8284 37.5632 59.4442 38.1789 60.1968 38.1789H67.039V64.0832V64.0695ZM61.5653 31.3505H61.8937L66.0263 35.4421H61.5516V31.3505H61.5653ZM69.3653 34.8947L63.4263 29.0242C63.1663 28.7642 62.8242 28.6274 62.4684 28.6274H61.0726L56.8442 23.66C56.5842 23.3589 56.2011 23.1811 55.8042 23.1811H36.9474C36.1947 23.1811 35.5789 23.7968 35.5789 24.5495V60.0053C35.5789 60.7579 36.1947 61.3737 36.9474 61.3737H39.6842V58.6505H38.3158V25.9316H55.1747L57.4874 28.6547H42.4211C41.6684 28.6547 41.0526 29.2705 41.0526 30.0232V65.4789C41.0526 66.2316 41.6684 66.8474 42.4211 66.8474H68.4211C69.1737 66.8474 69.7895 66.2316 69.7895 65.4789V35.9074C69.7895 35.5379 69.6389 35.1958 69.3789 34.9358L69.3653 34.8947Z" fill="#7993B0"/>
</svg>
