<svg width="76" height="77" viewBox="0 0 76 77" fill="none" xmlns="http://www.w3.org/2000/svg">
<path fill-rule="evenodd" clip-rule="evenodd" d="M29.95 59.2195H33.93V56.4795H29.95V59.2195ZM36.65 59.2195H40.72V56.4795H36.65V59.2195ZM20.36 3.56953L2.71 12.3295V66.7695L20.35 72.7395V3.56953H20.36ZM23.07 20.8895V56.4795H27.14V59.2195H23.07V74.6395C23.07 75.0795 22.86 75.4895 22.51 75.7495C22.28 75.9195 22 76.0095 21.72 76.0095C21.58 76.0095 21.43 75.9895 21.29 75.9395L0.93 69.0495C0.38 68.8595 0 68.3395 0 67.7495V11.4695C0 10.9495 0.29 10.4695 0.76 10.2395L21.12 0.139535C21.54 -0.0704651 22.04 -0.0404652 22.44 0.209535C22.84 0.459535 23.08 0.899535 23.08 1.36953V18.1495H27.15V20.8895H23.08H23.07ZM43.43 59.2095H47.5V56.4695H43.43V59.2095ZM43.52 20.8895H47.5V18.1495H43.52V20.8895ZM36.73 20.8895H40.71V18.1495H36.73V20.8895ZM29.94 20.8895H33.92V18.1495H29.94V20.8895ZM73.28 12.3195L55.64 3.56953V72.7295L73.28 66.7595V12.3295V12.3195ZM75.99 67.7395C75.99 68.3295 75.62 68.8495 75.06 69.0395L54.7 75.9195C54.56 75.9695 54.41 75.9895 54.27 75.9895C53.99 75.9895 53.71 75.8995 53.48 75.7295C53.13 75.4695 52.92 75.0595 52.92 74.6195V59.1995H50.29V56.4595H52.92V20.8895H50.29V18.1495H52.92V1.36953C52.92 0.899535 53.16 0.459535 53.56 0.209535C53.96 -0.0404652 54.45 -0.0704651 54.88 0.139535L75.24 10.2395C75.7 10.4695 76 10.9495 76 11.4695V67.7495L75.99 67.7395ZM41.98 29.5895L39.44 28.6095L32.65 46.3995L35.19 47.3795L41.98 29.5895ZM51.17 38.2795C51.7 37.7395 51.7 36.8795 51.17 36.3395L45.74 30.8695L43.82 32.8095L48.29 37.3195L43.82 41.8295L45.74 43.7695L51.17 38.2995V38.2795ZM30.25 43.7495L24.82 38.2795C24.29 37.7395 24.29 36.8795 24.82 36.3395L30.25 30.8695L32.17 32.8095L27.7 37.3195L32.17 41.8295L30.25 43.7695V43.7495Z" fill="#7993B0"/>
</svg>
