<svg width="102" height="102" viewBox="0 0 102 102" fill="none" xmlns="http://www.w3.org/2000/svg">
<path fill-rule="evenodd" clip-rule="evenodd" d="M45.2507 66.9731H48.3404V64.846H45.2507V66.9731ZM50.452 66.9731H53.6116V64.846H50.452V66.9731ZM37.8058 23.7711L24.1038 30.5716V72.8342L37.798 77.4688V23.7711H37.8058ZM39.9096 37.2169V64.846H43.0692V66.9731H39.9096V78.9439C39.9096 79.2854 39.7466 79.6037 39.4749 79.8056C39.2963 79.9375 39.0789 80.0074 38.8616 80.0074C38.7529 80.0074 38.6364 79.9919 38.5278 79.9531L22.722 74.6042C22.295 74.4567 22 74.0531 22 73.595V29.904C22 29.5003 22.2251 29.1277 22.59 28.9491L38.3958 21.1083C38.7218 20.9453 39.11 20.9686 39.4205 21.1627C39.7311 21.3567 39.9174 21.6983 39.9174 22.0632V35.0898H43.077V37.2169H39.9174H39.9096ZM55.7154 66.9653H58.875V64.8382H55.7154V66.9653ZM55.7853 37.2169H58.875V35.0898H55.7853V37.2169ZM50.5141 37.2169H53.6038V35.0898H50.5141V37.2169ZM45.2429 37.2169H48.3326V35.0898H45.2429V37.2169ZM78.8884 30.5638L65.1942 23.7711V77.4611L78.8884 72.8265V30.5716V30.5638ZM80.9922 73.5873C80.9922 74.0453 80.705 74.449 80.2703 74.5965L64.4645 79.9375C64.3558 79.9763 64.2393 79.9919 64.1307 79.9919C63.9133 79.9919 63.6959 79.922 63.5174 79.79C63.2457 79.5882 63.0826 79.2699 63.0826 78.9283V66.9575H61.0409V64.8304H63.0826V37.2169H61.0409V35.0898H63.0826V22.0632C63.0826 21.6983 63.2689 21.3567 63.5795 21.1627C63.89 20.9686 64.2704 20.9453 64.6042 21.1083L80.41 28.9491C80.7671 29.1277 81 29.5003 81 29.904V73.595L80.9922 73.5873ZM54.5897 43.9708L52.6179 43.21L47.3467 57.0207L49.3186 57.7815L54.5897 43.9708ZM61.7241 50.717C62.1355 50.2978 62.1355 49.6302 61.7241 49.211L57.5087 44.9645L56.0182 46.4706L59.4883 49.9717L56.0182 53.4729L57.5087 54.979L61.7241 50.7325V50.717ZM45.4836 54.9635L41.2682 50.717C40.8567 50.2978 40.8567 49.6302 41.2682 49.211L45.4836 44.9645L46.9741 46.4706L43.5039 49.9717L46.9741 53.4729L45.4836 54.979V54.9635Z" fill="#7993B0"/>
<path d="M51 101C78.6142 101 101 78.6142 101 51C101 23.3858 78.6142 1 51 1C23.3858 1 1 23.3858 1 51C1 78.6142 23.3858 101 51 101Z" stroke="#7893B0" stroke-width="1.5" stroke-linecap="round" stroke-linejoin="round"/>
</svg>
