<svg width="100" height="100" viewBox="0 0 100 100" fill="none" xmlns="http://www.w3.org/2000/svg">
<path fill-rule="evenodd" clip-rule="evenodd" d="M89.23 48.5501H74.97L81.78 41.7401L79.26 39.2201L69.3 49.1801C68.6 49.8701 68.6 51.0001 69.3 51.7001L79.26 61.6601L81.78 59.1401L74.76 52.1201H89.24V48.5601L89.23 48.5501ZM20.97 39.2201L18.45 41.7401L25.26 48.5501H11V52.1101H25.47L18.45 59.1301L20.97 61.6501L30.93 51.6901C31.62 50.9901 31.62 49.8701 30.93 49.1701L20.97 39.2101V39.2201ZM40.94 59.5001H59.28V41.1601H40.94V59.5001ZM62.46 39.1601H65.76V42.7201H62.85V45.4201H65.76V48.9801H62.85V51.6801H65.76V55.2401H62.85V57.9401H65.76V61.5001H62.46C62.18 62.0001 61.78 62.4001 61.28 62.6801V65.9801H57.72V63.0701H55.03V65.9801H51.47V63.0701H48.77V65.9801H45.21V63.0701H42.52V65.9801H38.96V62.6801C38.46 62.4001 38.06 62.0001 37.78 61.5001H34.48V57.9401H37.39V55.2401H34.48V51.6801H37.39V48.9801H34.48V45.4201H37.39V42.7201H34.48V39.1601H37.78C38.06 38.6601 38.46 38.2601 38.96 37.9801V34.6801H42.52V37.5901H45.21V34.6801H48.77V37.5901H51.47V34.6801H55.03V37.5901H57.72V34.6801H61.28V37.9801C61.78 38.2601 62.18 38.6601 62.46 39.1601ZM51.9 83.5801V69.1101H48.34V83.5901L41.42 76.6701L38.9 79.1901L48.86 89.1501C49.21 89.5001 49.66 89.6701 50.12 89.6701C50.58 89.6701 51.03 89.5001 51.38 89.1501L61.34 79.1901L58.82 76.6701L51.91 83.5801H51.9ZM41.41 24.0001L38.89 21.4801L48.85 11.5201C49.55 10.8201 50.67 10.8201 51.37 11.5201L61.33 21.4801L58.81 24.0001L51.9 17.0901V31.5601H48.34V17.0801L41.42 24.0001H41.41Z" fill="#7893B0"/>
</svg>
