<svg width="102" height="102" viewBox="0 0 102 102" fill="none" xmlns="http://www.w3.org/2000/svg">
<path fill-rule="evenodd" clip-rule="evenodd" d="M80.9925 49.6406H70.2391L75.3745 44.4471L73.4742 42.5253L65.9634 50.1211C65.4356 50.6473 65.4356 51.5091 65.9634 52.0429L73.4742 59.6387L75.3745 57.7169L70.0808 52.3632H81V49.6482L80.9925 49.6406ZM29.5183 42.5253L27.618 44.4471L32.7533 49.6406H22V52.3556H32.9117L27.618 57.7093L29.5183 59.6311L37.029 52.0353C37.5493 51.5014 37.5493 50.6473 37.029 50.1134L29.5183 42.5176V42.5253ZM44.5775 57.9914H58.4075V44.0048H44.5775V57.9914ZM60.8055 42.4795H63.294V45.1945H61.0996V47.2536H63.294V49.9685H61.0996V52.0276H63.294V54.7426H61.0996V56.8017H63.294V59.5167H60.8055C60.5943 59.898 60.2927 60.2031 59.9156 60.4166V62.9333H57.2311V60.714H55.2026V62.9333H52.518V60.714H50.482V62.9333H47.7974V60.714H45.7689V62.9333H43.0844V60.4166C42.7073 60.2031 42.4057 59.898 42.1945 59.5167H39.706V56.8017H41.9004V54.7426H39.706V52.0276H41.9004V49.9685H39.706V47.2536H41.9004V45.1945H39.706V42.4795H42.1945C42.4057 42.0982 42.7073 41.7931 43.0844 41.5796V39.0629H45.7689V41.2822H47.7974V39.0629H50.482V41.2822H52.518V39.0629H55.2026V41.2822H57.2311V39.0629H59.9156V41.5796C60.2927 41.7931 60.5943 42.0982 60.8055 42.4795ZM52.8423 76.3556V65.3203H50.1577V76.3632L44.9394 71.0858L43.0391 73.0076L50.5498 80.6034C50.8138 80.8704 51.1531 81 51.5 81C51.8469 81 52.1862 80.8704 52.4502 80.6034L59.9609 73.0076L58.0606 71.0858L52.8498 76.3556H52.8423ZM44.9319 30.918L43.0316 28.9962L50.5423 21.4004C51.0702 20.8665 51.9148 20.8665 52.4426 21.4004L59.9534 28.9962L58.053 30.918L52.8423 25.6482V36.6835H50.1577V25.6406L44.9394 30.918H44.9319Z" fill="#7893B0"/>
<path d="M51 101C78.6142 101 101 78.6142 101 51C101 23.3858 78.6142 1 51 1C23.3858 1 1 23.3858 1 51C1 78.6142 23.3858 101 51 101Z" stroke="#7893B0" stroke-width="1.5" stroke-linecap="round" stroke-linejoin="round"/>
</svg>
