<svg width="151" height="85" viewBox="0 0 151 85" fill="none" xmlns="http://www.w3.org/2000/svg">
<path d="M119.89 83.3227C125.56 83.3227 130.998 81.0702 135.008 77.0607C139.017 73.0511 141.27 67.6131 141.27 61.9427C141.27 56.2724 139.017 50.8343 135.008 46.8248C130.998 42.8153 125.56 40.5627 119.89 40.5627H119.79C119.483 37.3475 118.452 34.2435 116.774 31.4839C115.096 28.7243 112.814 26.3808 110.1 24.6293C107.386 22.8779 104.311 21.7641 101.105 21.3715C97.8994 20.979 94.6462 21.3178 91.59 22.3627C88.1599 14.874 82.2726 8.78297 74.9047 5.10024C67.5369 1.41751 59.1314 0.364404 51.0828 2.11563C43.0342 3.86686 35.8261 8.31716 30.6545 14.7282C25.4829 21.1393 22.6585 29.1258 22.65 37.3627C22.65 38.4327 22.65 39.4927 22.8 40.5327H22.65C16.9797 40.5327 11.5416 42.7853 7.53207 46.7948C3.52255 50.8043 1.27002 56.2424 1.27002 61.9127C1.27002 67.5831 3.52255 73.0211 7.53207 77.0307C11.5416 81.0402 16.9797 83.2927 22.65 83.2927L119.89 83.3227Z" stroke="#7894B0" stroke-width="1.5" stroke-linecap="round" stroke-linejoin="round"/>
<path d="M142.21 12.8328C140.875 7.91213 138.133 3.48801 134.32 0.102783L126.16 8.26277C127.862 9.65001 129.225 11.4065 130.147 13.399C131.068 15.3916 131.524 17.5678 131.48 19.7628V21.2128C133.395 21.2128 135.231 21.9735 136.585 23.3275C137.939 24.6815 138.7 26.5179 138.7 28.4328C138.7 30.3476 137.939 32.1841 136.585 33.5381C135.231 34.8921 133.395 35.6528 131.48 35.6528H116.94L115.52 37.2028V45.9128L116.94 47.2828H131.48C135.532 47.3292 139.492 46.067 142.77 43.6837C146.047 41.3003 148.469 37.923 149.674 34.0536C150.879 30.1842 150.804 26.0292 149.459 22.2061C148.114 18.383 145.572 15.0957 142.21 12.8328Z" fill="#4285F4"/>
<path d="M102.42 47.2827H116.94V35.6527H102.42C101.385 35.6561 100.361 35.4343 99.42 35.0027L97.36 35.6327L91.53 41.5027L91.02 43.5027C94.2951 46.0025 98.2999 47.3586 102.42 47.3627" fill="#34A853"/>
<path d="M102.42 9.57268C98.4843 9.59364 94.6531 10.8436 91.462 13.1479C88.271 15.4522 85.8794 18.6958 84.6215 22.4255C83.3636 26.1551 83.3021 30.1846 84.4458 33.9509C85.5894 37.7172 87.881 41.0321 91.0003 43.4327L99.4203 35.0027C98.3502 34.5186 97.4135 33.7821 96.6906 32.8564C95.9677 31.9307 95.4801 30.8435 95.2698 29.688C95.0595 28.5324 95.1327 27.3431 95.4831 26.2221C95.8335 25.101 96.4506 24.0818 97.2816 23.2517C98.1125 22.4216 99.1324 21.8055 100.254 21.4563C101.375 21.1071 102.565 21.0351 103.72 21.2466C104.875 21.4582 105.962 21.9468 106.887 22.6707C107.812 23.3946 108.547 24.332 109.03 25.4027L117.45 16.9727C115.684 14.6608 113.405 12.7896 110.794 11.5057C108.183 10.2218 105.31 9.5602 102.4 9.57268" fill="#FBBC05"/>
</svg>
