<svg width="100" height="100" viewBox="0 0 100 100" fill="none" xmlns="http://www.w3.org/2000/svg">
<path fill-rule="evenodd" clip-rule="evenodd" d="M76.7199 36.54C76.7199 48.99 54.1799 74.39 54.1799 74.39C54.1799 74.39 31.6299 48.99 31.6299 36.54C31.6299 24.09 41.7199 14 54.1699 14C66.6199 14 76.7199 24.09 76.7199 36.54ZM71.3199 36.54C71.3199 27.09 63.6299 19.4 54.1799 19.4C44.7299 19.4 37.0399 27.09 37.0399 36.54C37.0399 42.65 46.0699 56.07 54.1799 66.04C62.2899 56.07 71.3199 42.65 71.3199 36.54Z" fill="#7893B0"/>
<path fill-rule="evenodd" clip-rule="evenodd" d="M28.68 48.0705C28.68 53.2305 19.34 63.7505 19.34 63.7505C19.34 63.7505 10 53.2305 10 48.0705C10 42.9105 14.18 38.7305 19.34 38.7305C24.5 38.7305 28.68 42.9205 28.68 48.0705ZM19.34 44.3805C16.98 44.3805 15.07 46.2905 15.07 48.6505C15.07 51.0105 16.98 52.9205 19.34 52.9205C21.7 52.9205 23.61 51.0105 23.61 48.6505C23.61 46.3005 21.7 44.3805 19.34 44.3805Z" fill="#7893B0"/>
<path fill-rule="evenodd" clip-rule="evenodd" d="M89.9998 70.2004C89.9998 75.3604 80.6598 85.8804 80.6598 85.8804C80.6598 85.8804 71.3198 75.3604 71.3198 70.2004C71.3198 65.0404 75.4998 60.8604 80.6598 60.8604C85.8198 60.8604 89.9998 65.0404 89.9998 70.2004ZM80.6598 66.5104C78.2998 66.5104 76.3898 68.4204 76.3898 70.7803C76.3898 73.1403 78.2998 75.0504 80.6598 75.0504C83.0198 75.0504 84.9298 73.1403 84.9298 70.7803C84.9298 68.4204 83.0198 66.5104 80.6598 66.5104Z" fill="#7893B0"/>
</svg>
