<svg width="79" height="76" viewBox="0 0 79 76" fill="none" xmlns="http://www.w3.org/2000/svg">
<path fill-rule="evenodd" clip-rule="evenodd" d="M77.62 36.1125L68.73 27.2225L65.84 30.1125L71.23 35.5125H41.15V7.5425L46.44 13.7125L49.55 11.0525L40.66 0.6825C39.88 -0.2275 38.33 -0.2275 37.55 0.6825L28.66 11.0525L31.77 13.7125L37.06 7.5425V35.5125H6.98L12.38 30.1125L9.49 27.2225L0.6 36.1125C-0.2 36.9125 -0.2 38.2025 0.6 39.0025L9.49 47.8925L12.38 45.0025L6.98 39.6025H37.06V68.1725L31.66 62.7725L28.77 65.6625L37.66 74.5525C38.06 74.9525 38.58 75.1525 39.11 75.1525C39.64 75.1525 40.16 74.9525 40.56 74.5525L49.45 65.6625L46.56 62.7725L41.16 68.1725V39.6025H71.24L65.85 45.0025L68.74 47.8925L77.63 39.0025C78.43 38.2025 78.43 36.9125 77.63 36.1125H77.62Z" fill="#7993B0"/>
</svg>
