 <svg
          xmlns="http://www.w3.org/2000/svg"
          xmlSpace="preserve"
          viewBox="0 0 150 100"
          className="w-52 h-40 mx-auto"
        >
          <path
            fill="none"
            stroke='#7894B0'
            strokeLinecap="round"
            strokeLinejoin="round"
            strokeMiterlimit="10"
            strokeWidth='3'
            d="M119.37 89.8c11.81 0 21.38-9.57 21.38-21.38 0-11.81-9.57-21.38-21.38-21.38h-.1c-1.02-10.85-10.16-19.35-21.28-19.35-2.42 0-4.75.41-6.92 1.15C85.37 16.4 72.82 7.76 58.24 7.76c-19.94 0-36.11 16.17-36.11 36.11 0 1.07.06 2.13.15 3.17h-.15C10.32 47.04.75 56.61.75 68.42c0 11.81 9.57 21.38 21.38 21.38h97.24z"
          />
          <path
            fill="#FFF"
            strokeWidth='3'
            d="M99.11 25c0 .87.09 1.58.26 2.1.19.52.42 1.08.75 1.7.12.19.16.38.16.54 0 .24-.14.47-.45.71l-1.48.99c-.21.14-.42.21-.61.21-.24 0-.47-.12-.71-.33-.33-.35-.61-.73-.85-1.11-.24-.4-.47-.85-.73-1.39-1.84 2.17-4.15 3.25-6.93 3.25-1.98 0-3.56-.57-4.71-1.7s-1.74-2.64-1.74-4.52c0-2 .71-3.63 2.14-4.85s3.35-1.84 5.77-1.84c.8 0 1.63.07 2.5.19.87.12 1.77.31 2.71.52v-1.72c0-1.79-.38-3.04-1.11-3.77-.75-.73-2.03-1.08-3.84-1.08-.82 0-1.67.09-2.55.31-.87.21-1.72.47-2.55.8-.38.16-.66.26-.82.31-.16.05-.28.07-.38.07-.33 0-.49-.24-.49-.73v-1.15c0-.38.05-.66.16-.82s.33-.33.66-.49c.82-.42 1.81-.78 2.97-1.06 1.15-.31 2.38-.45 3.68-.45 2.8 0 4.85.64 6.17 1.91 1.3 1.27 1.96 3.2 1.96 5.8V25h.06zm-9.57 3.58c.78 0 1.58-.14 2.43-.42.85-.28 1.6-.8 2.24-1.51.38-.45.66-.94.8-1.51.14-.57.24-1.25.24-2.05v-.99a18.508 18.508 0 0 0-4.39-.54c-1.58 0-2.73.31-3.51.94-.78.64-1.15 1.53-1.15 2.71 0 1.11.28 1.93.87 2.5.57.59 1.39.87 2.47.87zm18.93 2.55c-.42 0-.71-.07-.9-.24-.19-.14-.35-.47-.49-.92l-5.54-18.22c-.14-.47-.21-.78-.21-.94 0-.38.19-.59.57-.59h2.31c.45 0 .75.07.92.24.19.14.33.47.47.92l3.96 15.6 3.68-15.6c.12-.47.26-.78.45-.92s.52-.24.94-.24h1.89c.45 0 .75.07.94.24.19.14.35.47.45.92l3.72 15.79 4.08-15.79c.14-.47.31-.78.47-.92.19-.14.49-.24.92-.24h2.19c.38 0 .59.19.59.59 0 .12-.02.24-.05.38-.02.14-.07.33-.16.59L123.97 30c-.14.47-.31.78-.49.92-.19.14-.49.24-.9.24h-2.03c-.45 0-.75-.07-.94-.24-.19-.16-.35-.47-.45-.94l-3.65-15.2-3.63 15.18c-.12.47-.26.78-.45.94-.19.16-.52.24-.94.24h-2.02zm30.28.63c-1.23 0-2.45-.14-3.63-.42-1.18-.28-2.1-.59-2.71-.94-.38-.21-.64-.45-.73-.66a1.74 1.74 0 0 1-.14-.66v-1.2c0-.49.19-.73.54-.73.14 0 .28.02.42.07.14.05.35.14.59.24.8.35 1.67.64 2.59.82.94.19 1.86.28 2.8.28 1.48 0 2.64-.26 3.44-.78.8-.52 1.23-1.27 1.23-2.24 0-.66-.21-1.2-.64-1.65-.42-.45-1.23-.85-2.38-1.23l-3.42-1.06c-1.72-.54-2.99-1.34-3.77-2.4-.78-1.04-1.18-2.19-1.18-3.42 0-.99.21-1.86.64-2.62s.99-1.41 1.7-1.93c.71-.54 1.51-.94 2.45-1.23.94-.28 1.93-.4 2.97-.4.52 0 1.06.02 1.58.09.54.07 1.04.16 1.53.26.47.12.92.24 1.34.38.42.14.75.28.99.42.33.19.57.38.71.59.14.19.21.45.21.78v1.11c0 .49-.19.75-.54.75-.19 0-.49-.09-.9-.28-1.34-.61-2.85-.92-4.52-.92-1.34 0-2.4.21-3.13.66s-1.11 1.13-1.11 2.1c0 .66.24 1.23.71 1.67.47.45 1.34.9 2.59 1.3l3.35 1.06c1.7.54 2.92 1.3 3.65 2.26s1.08 2.07 1.08 3.3c0 1.01-.21 1.93-.61 2.73-.42.8-.99 1.51-1.72 2.07-.73.59-1.6 1.01-2.62 1.32-1.05.35-2.16.51-3.36.51z"
          />
          <g fill="#F90" fillRule="evenodd" clipRule="evenodd">
            <path d="M143.2 43.22c-7.75 5.73-19.02 8.77-28.7 8.77-13.57 0-25.8-5.02-35.04-13.36-.73-.66-.07-1.56.8-1.04 9.99 5.8 22.32 9.31 35.07 9.31 8.6 0 18.05-1.79 26.75-5.47 1.29-.59 2.4.84 1.12 1.79z" />
            <path d="M146.43 39.54c-.99-1.27-6.55-.61-9.07-.31-.75.09-.87-.57-.19-1.06 4.43-3.11 11.71-2.22 12.56-1.18.85 1.06-.24 8.34-4.38 11.83-.64.54-1.25.26-.97-.45.94-2.33 3.04-7.58 2.05-8.83z" />
          </g>
          <path fill="none" d="M0 0h150v100H0z" />
        </svg>