<svg width="102" height="102" viewBox="0 0 102 102" fill="none" xmlns="http://www.w3.org/2000/svg">
<path d="M51 101C78.6142 101 101 78.6142 101 51C101 23.3858 78.6142 1 51 1C23.3858 1 1 23.3858 1 51C1 78.6142 23.3858 101 51 101Z" stroke="#7893B0" stroke-width="1.5" stroke-linecap="round" stroke-linejoin="round"/>
<path d="M15 29H87V73.68H15V29ZM25.91 35.03H22.71V67.64H25.91V35.03ZM34.81 35.03H31.61V67.64H34.81V35.03ZM43.71 35.03H40.51V67.64H43.71V35.03ZM52.61 35.03H49.41V67.64H52.61V35.03ZM61.51 35.03H58.31V67.64H61.51V35.03ZM70.41 35.03H67.21V67.64H70.41V35.03ZM79.31 35.03H76.11V67.64H79.31V35.03Z" fill="#7993B0"/>
</svg>
