  <svg
          width="100"
          height="100"
          viewBox="0 0 100 100"
          fill="none"
          xmlns="http://www.w3.org/2000/svg"
        >
          <path
            d="M16 0.75H84C92.4258 0.75 99.25 7.57421 99.25 16V84C99.25 92.4258 92.4258 99.25 84 99.25H16C7.57421 99.25 0.75 92.4258 0.75 84V16C0.75 7.57421 7.57421 0.75 16 0.75Z"
            stroke='#7894B0'
            strokeWidth="1.5"
          />
          <path
            d="M72.7999 43.3393C72.6499 42.2693 72.3299 41.3393 71.9099 40.5293C71.6099 40.5693 71.4099 40.5793 71.4099 40.5793C67.0799 51.3293 59.2799 61.6693 39.1699 61.6693C26.8399 61.6693 22.0299 54.9493 20.1499 49.1693C19.3899 49.5693 18.9399 50.3393 18.9399 51.8393C18.9399 54.3493 19.0599 72.2393 39.1699 72.2393C59.2799 72.2393 67.0799 61.8993 71.4099 51.1493C71.4099 51.1493 79.8599 50.5393 81.0499 44.9993C77.4699 42.4893 72.7899 43.3493 72.7899 43.3493L72.7999 43.3393Z"
            fill="#7894B0"
          />
          <path
            d="M72.7999 58.9995C72.6499 57.9295 72.3299 56.9995 71.9099 56.1895C71.6099 56.2295 71.4099 56.2395 71.4099 56.2395C67.0799 66.9895 59.2799 77.3295 39.1699 77.3295C26.8399 77.3295 22.0299 70.6095 20.1499 64.8295C19.3899 65.2295 18.9399 65.9995 18.9399 67.4995C18.9399 70.0095 19.0599 87.8995 39.1699 87.8995C59.2799 87.8995 67.0799 77.5595 71.4099 66.8095C71.4099 66.8095 79.8599 66.1995 81.0499 60.6595C77.4699 58.1495 72.7899 59.0095 72.7899 59.0095L72.7999 58.9995Z"
            fill="#7894B0"
          />
          <path
            d="M67.4297 21.1194C67.4297 21.1194 62.8397 26.1494 66.2997 32.4694C64.5697 34.1994 59.1097 33.6794 56.6797 33.6794H22.1197C20.1997 33.6794 18.9497 34.1994 18.9497 36.7094C18.9497 39.2194 19.0697 57.1094 39.1797 57.1094C59.2897 57.1094 67.0897 46.7694 71.4197 36.0194C71.4197 36.0194 79.8697 35.4094 81.0597 29.8694C77.4797 27.3594 72.7997 28.2194 72.7997 28.2194C72.1097 23.1094 67.4297 21.1094 67.4297 21.1094V21.1194Z"
            fill="#7894B0"
          />
          <path
            d="M61.0202 26.499H54.9502V31.959H61.0202V26.499Z"
            fill="#7894B0"
          />
          <path
            d="M53.0397 26.499H46.9697V31.959H53.0397V26.499Z"
            fill="#7894B0"
          />
          <path
            d="M45.0602 26.499H38.9902V31.959H45.0602V26.499Z"
            fill="#7894B0"
          />
          <path
            d="M37.0798 26.499H31.0098V31.959H37.0798V26.499Z"
            fill="#7894B0"
          />
          <path
            d="M53.0397 19.2998H46.9697V24.7598H53.0397V19.2998Z"
            fill="#7894B0"
          />
          <path
            d="M53.0397 12.1094H46.9697V17.5694H53.0397V12.1094Z"
            fill="#7894B0"
          />
          <path
            d="M45.0602 19.2998H38.9902V24.7598H45.0602V19.2998Z"
            fill="#7894B0"
          />
          <path
            d="M37.0798 19.2998H31.0098V24.7598H37.0798V19.2998Z"
            fill="#7894B0"
          />
          <path d="M29.09 26.499H23.02V31.959H29.09V26.499Z" fill="#7894B0" />
        </svg>