<svg width="102" height="102" viewBox="0 0 102 102" fill="none" xmlns="http://www.w3.org/2000/svg">
<path d="M51 101C78.6142 101 101 78.6142 101 51C101 23.3858 78.6142 1 51 1C23.3858 1 1 23.3858 1 51C1 78.6142 23.3858 101 51 101Z" stroke="#7893B0" stroke-width="1.5" stroke-linecap="round" stroke-linejoin="round"/>
<path d="M72.9288 34.1377C72.9288 34.1377 67.2471 40.3528 71.5387 48.1763C69.3969 50.3181 62.6484 49.6796 59.6499 49.6796H16.9198C14.5437 49.6796 13 50.3262 13 53.4297C13 56.5332 13.1536 78.6458 38.006 78.6458C62.8585 78.6458 72.5005 65.86 77.8589 52.573C77.8589 52.573 88.301 51.8213 89.78 44.9677C85.3591 41.8642 79.5723 42.931 79.5723 42.931C78.7156 36.6108 72.9288 34.1458 72.9288 34.1458V34.1377Z" fill="#7993B0"/>
<path d="M65.0085 40.7803H57.5083V47.5288H65.0085V40.7803Z" fill="#7993B0"/>
<path d="M55.1403 40.7803H47.6401V47.5288H55.1403V40.7803Z" fill="#7993B0"/>
<path d="M45.2717 40.7803H37.7715V47.5288H45.2717V40.7803Z" fill="#7993B0"/>
<path d="M35.4118 40.7803H27.9116V47.5288H35.4118V40.7803Z" fill="#7993B0"/>
<path d="M55.1403 31.8906H47.6401V38.6392H55.1403V31.8906Z" fill="#7993B0"/>
<path d="M55.1403 23H47.6401V29.7486H55.1403V23Z" fill="#7993B0"/>
<path d="M45.2717 31.8906H37.7715V38.6392H45.2717V31.8906Z" fill="#7993B0"/>
<path d="M35.4118 31.8906H27.9116V38.6392H35.4118V31.8906Z" fill="#7993B0"/>
<path d="M25.5437 40.7803H18.0435V47.5288H25.5437V40.7803Z" fill="#7993B0"/>
</svg>
