<svg width="100" height="100" viewBox="0 0 100 100" fill="none" xmlns="http://www.w3.org/2000/svg">
<path d="M73.3946 31.8105C73.3946 31.8105 67.122 38.4283 71.853 46.726C69.4609 49.0168 62.0188 48.3041 58.6698 48.3041H11.359C8.70106 48.3041 7 48.9659 7 52.2748C7 55.5837 7.15948 79.0005 34.6954 79.0005C62.2314 79.0005 72.9162 65.4595 78.8168 51.3585C78.8168 51.3585 90.4053 50.544 92 43.3153C87.1094 40.0064 80.6773 41.1773 80.6773 41.1773C79.7205 34.4577 73.3415 31.8615 73.3415 31.8615L73.3946 31.8105Z" fill="#7894B0"/>
<path d="M56.2773 38.8867H64.5648V46.06H56.2773V38.8867Z" fill="#7894B0"/>
<path d="M45.3804 38.8867H53.6679V46.06H45.3804V38.8867Z" fill="#7894B0"/>
<path d="M34.4292 38.8867H42.7167V46.06H34.4292V38.8867Z" fill="#7894B0"/>
<path d="M23.5322 38.8867H31.8199V46.06H23.5322V38.8867Z" fill="#7894B0"/>
<path d="M45.3804 29.417H53.6679V36.5903H45.3804V29.417Z" fill="#7894B0"/>
<path d="M45.3804 20H53.6679V27.1733H45.3804V20Z" fill="#7894B0"/>
<path d="M34.4292 29.417H42.7167V36.5903H34.4292V29.417Z" fill="#7894B0"/>
<path d="M23.5322 29.417H31.8199V36.5903H23.5322V29.417Z" fill="#7894B0"/>
<path d="M12.5815 38.8867H20.8692V46.06H12.5815V38.8867Z" fill="#7894B0"/>
</svg>
