  <svg
          width="71"
          height="93"
          viewBox="0 0 71 93"
          fill="none"
          xmlns="http://www.w3.org/2000/svg"
        >
          <path d="M71 73.0441L36.1216 93V0L71 20.3855V73.0441Z" fill="#7894B0" />
          <path
            d="M17.9715 16.757L12.3804 13.4629V76.8633L17.9715 73.6646V16.757Z"
            fill="#7894B0"
          />
          <path
            d="M8.1201 21.1973L3.46094 18.4761V70.8482L8.1201 68.1747V21.1973Z"
            fill="#7894B0"
          />
          <path
            d="M29.9531 89.0375L36.1212 93V0L29.9531 4.3922V89.0375Z"
            fill="#7894B0"
          />
          <path
            d="M17.9712 80.9215L23.1187 84.1679V7.3999L17.9712 10.9805V80.9215Z"
            fill="#7894B0"
          />
          <path
            d="M8.12109 74.1898L12.3812 76.8633V13.4629L8.12109 16.4228V74.1898Z"
            fill="#7894B0"
          />
          <path
            d="M0 68.6522L3.46131 70.8482V18.4761L0 20.9586V68.6522Z"
            fill="#7894B0"
          />
          <g opacity="0.4" className="mix-blend-multiply">
            <path
              d="M29.9531 89.0375L36.1212 93V0L29.9531 4.3922V89.0375Z"
              fill="#7894B0"
            />
          </g>
          <g opacity="0.4" className="mix-blend-multiply">
            <path
              d="M17.9712 80.9215L23.1187 84.1679V7.3999L17.9712 10.9805V80.9215Z"
              fill="#7894B0"
            />
          </g>
          <g opacity="0.4" className="mix-blend-multiply">
            <path
              d="M8.12109 74.1898L12.3812 76.8633V13.4629L8.12109 16.4228V74.1898Z"
              fill="#7894B0"
            />
          </g>
          <g opacity="0.4" className="mix-blend-multiply">
            <path
              d="M0 68.6522L3.46131 70.8482V18.4761L0 20.9586V68.6522Z"
              fill="#7894B0"
            />
          </g>
          <path
            d="M29.9529 11.3624L23.1191 7.3999V84.1679L29.9529 80.2531V11.3624Z"
            fill="#7894B0"
          />
        </svg>