  <svg
          width="102"
          height="102"
          viewBox="0 0 102 102"
          fill="none"
          xmlns="http://www.w3.org/2000/svg"
        >
          <path
            d="M81.9997 73.9066L52.0337 90V15L81.9997 31.4399V73.9066Z"
            fill="#7894B0"
          />
          <path
            d="M36.4403 28.5135L31.6367 25.8569V76.9863L36.4403 74.4067V28.5135Z"
            fill="#7894B0"
          />
          <path
            d="M27.9766 32.0945L23.9736 29.8999V72.1355L27.9766 69.9795V32.0945Z"
            fill="#7894B0"
          />
          <path
            d="M46.7344 86.8044L52.0337 90V15L46.7344 18.5421V86.8044Z"
            fill="#7894B0"
          />
          <path
            d="M36.4404 80.2594L40.8629 82.8774V20.9678L36.4404 23.8554V80.2594Z"
            fill="#7894B0"
          />
          <path
            d="M27.9775 74.8302L31.6377 76.9863V25.8569L27.9775 28.244V74.8302Z"
            fill="#7894B0"
          />
          <path
            d="M21 70.3645L23.9738 72.1355V29.8999L21 31.902V70.3645Z"
            fill="#7894B0"
          />
          <g opacity="0.4" className="mix-blend-multiply">
            <path
              d="M46.7344 86.8044L52.0337 90V15L46.7344 18.5421V86.8044Z"
              fill="#7894B0"
            />
          </g>
          <g opacity="0.4" className="mix-blend-multiply">
            <path
              d="M36.4404 80.2594L40.8629 82.8774V20.9678L36.4404 23.8554V80.2594Z"
              fill="#7894B0"
            />
          </g>
          <g opacity="0.4" className="mix-blend-multiply">
            <path
              d="M27.9775 74.8302L31.6377 76.9863V25.8569L27.9775 28.244V74.8302Z"
              fill="#7894B0"
            />
          </g>
          <g opacity="0.4" className="mix-blend-multiply">
            <path
              d="M21 70.3645L23.9738 72.1355V29.8999L21 31.902V70.3645Z"
              fill="#7894B0"
            />
          </g>
          <path
            d="M46.7341 24.1634L40.8628 20.9678V82.8774L46.7341 79.7203V24.1634Z"
            fill="#7894B0"
          />
          <path
            d="M51 101C78.6142 101 101 78.6142 101 51C101 23.3858 78.6142 1 51 1C23.3858 1 1 23.3858 1 51C1 78.6142 23.3858 101 51 101Z"
            stroke='#7894B0'
            strokeWidth="2"
            strokeMiterlimit="10"
          />
        </svg>