<svg width="102" height="102" viewBox="0 0 102 102" fill="none" xmlns="http://www.w3.org/2000/svg">
<path d="M30.7477 50.9019H60.2456C60.6007 50.9019 61.0185 50.9019 61.499 50.9206C62.0422 50.9206 62.6689 50.9581 63.2956 50.9581C63.5881 50.9581 63.8388 50.9581 64.0895 50.9581C64.6117 50.3586 65.1131 49.7404 65.5518 49.1035C64.9251 44.9634 67.8707 41.9848 68.0378 41.835L68.9361 40.9545L70.1478 41.4228C70.1478 41.4228 71.2341 41.8537 72.3622 42.6967C74.326 42.0598 76.4777 40.8796 77 38.7065C73.9499 36.7957 69.9389 37.4326 69.9389 37.4326C69.354 33.5736 65.4474 32.0187 65.3638 32C65.3011 32.0562 61.4572 35.8965 64.4028 40.6922C62.9405 42.0036 58.2609 41.6289 56.1927 41.6289H26.7158C25.0863 41.6289 24 42.0223 24 43.9518C24 44.9634 24.0627 49.1784 26.5487 53C27.0709 51.8573 28.2617 50.9206 30.7477 50.9206V50.9019Z" fill="#7993B0"/>
<path d="M33.5999 62.2199H62.5412C62.8896 62.2199 63.2996 62.2199 63.771 62.2392C64.3039 62.2392 64.9188 62.2779 65.5337 62.2779C65.5952 62.2779 65.6362 62.2779 65.6772 62.2779C66.4151 61.4653 67.0914 60.6139 67.7063 59.7238C67.4399 55.7766 70.0635 52.9903 70.2069 52.8355L71.0883 51.9261L72.2771 52.4099C72.2771 52.4099 72.974 52.7001 73.7734 53.2419C75.864 52.642 78.4466 51.423 79 48.9077C77.2168 47.7274 75.1056 47.4952 73.6914 47.4952C72.728 47.4952 72.0926 47.6113 72.0926 47.6113C71.4982 43.5866 67.6244 42 67.6244 42C67.6244 42 63.771 45.9859 66.6815 50.978C65.7797 51.8294 63.607 52.0035 61.6188 52.0035C60.471 52.0035 59.3642 51.9455 58.6263 51.9455H29.6646C28.0658 51.9455 27 52.3518 27 54.3448C27 55.409 27.0615 59.9947 29.7056 64C30.3 62.9938 31.4478 62.2392 33.5999 62.2392V62.2199Z" fill="#7993B0"/>
<path d="M55 34H62V39H55V34Z" fill="#7894B0"/>
<path d="M47 34H53V39H47V34V34Z" fill="#7894B0"/>
<path d="M39 34H45V39H39V34Z" fill="#7894B0"/>
<path d="M30 34H37V39H30V34Z" fill="#7894B0"/>
<path d="M47 27H53V32H47V27V27Z" fill="#7894B0"/>
<path d="M39 27H45V32H39V27Z" fill="#7894B0"/>
<path d="M30 27H37V32H30V27Z" fill="#7894B0"/>
<path d="M71.4056 53C71.4056 53 75.3749 54.563 75.9598 58.5276C75.9598 58.5276 76.6074 58.4132 77.5893 58.4132C79.0307 58.4132 81.1825 58.6419 83 59.8046C81.9972 64.1123 74.769 64.5888 74.769 64.5888C71.0922 72.9564 64.4281 81 47.2558 81C30.0836 81 30 67.1048 30 65.1607C30 63.2165 31.0863 62.7971 32.7158 62.7971H62.2136C62.9657 62.7971 64.0938 62.8543 65.2637 62.8543C67.2901 62.8543 69.4836 62.7018 70.4237 61.8441C67.4572 56.9265 71.3847 53 71.3847 53" fill="#7993B0"/>
<path d="M51 101C78.6142 101 101 78.6142 101 51C101 23.3858 78.6142 1 51 1C23.3858 1 1 23.3858 1 51C1 78.6142 23.3858 101 51 101Z" stroke="#7893B0" stroke-width="1.5" stroke-linecap="round" stroke-linejoin="round"/>
</svg>
