<svg width="76" height="80" viewBox="0 0 76 80" fill="none" xmlns="http://www.w3.org/2000/svg">
<path d="M8.78478 41.2025H47.1876C47.65 41.2025 48.1939 41.2025 48.8195 41.2275C49.5266 41.2275 50.3425 41.2774 51.1585 41.2774C51.5392 41.2774 51.8656 41.2774 52.192 41.2774C52.8719 40.4781 53.5246 39.6539 54.0958 38.8046C53.2799 33.2846 57.1147 29.3131 57.3323 29.1133L58.5018 27.9393L60.0792 28.5638C60.0792 28.5638 61.4935 29.1383 62.9622 30.2623C65.5187 29.413 68.3201 27.8394 69 24.942C65.0292 22.3943 59.8072 23.2435 59.8072 23.2435C59.0457 18.0981 53.9598 16.025 53.851 16C53.7694 16.0749 48.7651 21.1954 52.5999 27.5897C50.6961 29.3381 44.6039 28.8385 41.9113 28.8385H3.53567C1.41427 28.8385 0 29.3631 0 31.9358C0 33.2846 0.0815923 38.9045 3.31809 44C3.99803 42.4764 5.54828 41.2275 8.78478 41.2275V41.2025Z" fill="#7993B0"/>
<path d="M12.5037 55.7344H49.7935C50.2424 55.7344 50.7706 55.7344 51.378 55.759C52.0646 55.759 52.8569 55.8083 53.6492 55.8083C53.7284 55.8083 53.7812 55.8083 53.8341 55.8083C54.7848 54.774 55.6563 53.6904 56.4486 52.5576C56.1052 47.5339 59.4856 43.9877 59.6705 43.7907L60.8061 42.6332L62.3378 43.2489C62.3378 43.2489 63.2357 43.6183 64.2657 44.3078C66.9594 43.5444 70.287 41.993 71 38.7916C68.7024 37.2894 65.9823 36.9938 64.16 36.9938C62.9188 36.9938 62.1001 37.1416 62.1001 37.1416C61.3343 32.0194 56.3429 30 56.3429 30C56.3429 30 51.378 35.073 55.1281 41.4266C53.9661 42.5101 51.1667 42.7318 48.605 42.7318C47.1261 42.7318 45.7 42.6579 44.7493 42.6579H7.43319C5.37328 42.6579 4 43.175 4 45.7115C4 47.066 4.07923 52.9024 7.48601 58C8.25187 56.7194 9.73079 55.759 12.5037 55.759V55.7344Z" fill="#7993B0"/>
<path d="M40.2773 18.8867H48.5648V26.06H40.2773V18.8867Z" fill="#7894B0"/>
<path d="M29.3804 18.8867H37.6679V26.06H29.3804V18.8867V18.8867Z" fill="#7894B0"/>
<path d="M18.4292 18.8867H26.7167V26.06H18.4292V18.8867Z" fill="#7894B0"/>
<path d="M7.53223 18.8867H15.8199V26.06H7.53223V18.8867Z" fill="#7894B0"/>
<path d="M29.3804 9.41699H37.6679V16.5903H29.3804V9.41699V9.41699Z" fill="#7894B0"/>
<path d="M29.3804 0H37.6679V7.17327H29.3804V0V0Z" fill="#7894B0"/>
<path d="M18.4292 9.41699H26.7167V16.5903H18.4292V9.41699Z" fill="#7894B0"/>
<path d="M7.53223 9.41699H15.8199V16.5903H7.53223V9.41699Z" fill="#7894B0"/>
<path d="M60.9054 44C60.9054 44 66.0729 46.0095 66.8345 51.1069C66.8345 51.1069 67.6776 50.9598 68.9559 50.9598C70.8325 50.9598 73.6338 51.2539 76 52.7488C74.6945 58.2873 65.2842 58.8999 65.2842 58.8999C60.4974 69.6583 51.8214 80 29.4651 80C7.10879 80 7 62.1348 7 59.6351C7 57.1355 8.41427 56.5963 10.5357 56.5963H48.9385C49.9176 56.5963 51.3863 56.6698 52.9093 56.6698C55.5475 56.6698 58.4032 56.4738 59.6271 55.371C55.7651 49.0483 60.8782 44 60.8782 44" fill="#7993B0"/>
</svg>
