<svg width="81" height="90" viewBox="0 0 81 90" fill="none" xmlns="http://www.w3.org/2000/svg">
<path fill-rule="evenodd" clip-rule="evenodd" d="M77.3616 57.2081L64.7312 49.6299V31.5841C64.7312 31.0157 64.4312 30.5105 63.9418 30.2263L45.7855 19.6325V4.34962L77.3616 23.0111V57.2081ZM79.7456 20.7534L45.0118 0.228927C44.5224 -0.0552583 43.9225 -0.0552583 43.433 0.228927C42.9436 0.513113 42.6436 1.03412 42.6436 1.60249V20.5482C42.6436 21.1008 42.9436 21.6218 43.433 21.906L61.5893 32.4998V50.5456C61.5893 51.0981 61.8893 51.6192 62.3629 51.9033L78.151 61.3762C78.4036 61.5183 78.6878 61.5972 78.9562 61.5972C79.2246 61.5972 79.493 61.5341 79.7298 61.392C80.2193 61.1078 80.535 60.5868 80.535 60.0184V22.1112C80.535 21.5586 80.2351 21.0376 79.7614 20.7534H79.7456ZM40.1807 86.6214L3.15762 66.9494V23.0111L34.7338 4.34962V19.6641L18.0931 30.2421C17.6353 30.5263 17.3669 31.0315 17.3669 31.5683V58.408C17.3669 58.9922 17.6984 59.5448 18.2195 59.8132L39.4544 70.8648C39.9123 71.1017 40.4491 71.1017 40.9069 70.8648L61.5104 60.2237L74.1882 67.8335L40.1649 86.6214H40.1807ZM78.1826 66.5389L62.3945 57.066C61.9209 56.7819 61.3367 56.7661 60.8631 57.0187L40.1965 67.6914L20.5245 57.4608V32.4524L37.1652 21.8744C37.623 21.5902 37.8914 21.085 37.8914 20.5482V1.5867C37.8914 1.01833 37.5914 0.497325 37.102 0.213139C36.6126 -0.0710464 36.0126 -0.0710464 35.5232 0.213139L0.773616 20.7534C0.299974 21.0376 0 21.5586 0 22.1112V67.8967C0 68.4808 0.315762 69.0176 0.836769 69.286L39.4386 89.8105C39.6755 89.9369 39.9281 90 40.1807 90C40.4333 90 40.7017 89.9369 40.9385 89.8105L78.1195 69.286C78.6089 69.0176 78.9247 68.4966 78.9404 67.9283C78.9404 67.3599 78.6563 66.8389 78.1668 66.5389H78.1826Z" fill="#7993B0"/>
</svg>
