<svg width="102" height="102" viewBox="0 0 102 102" fill="none" xmlns="http://www.w3.org/2000/svg">
<path fill-rule="evenodd" clip-rule="evenodd" d="M81.3993 60.0378L71.0484 53.8068V38.9691C71.0484 38.5018 70.8026 38.0864 70.4015 37.8527L55.5221 29.1423V16.5764L81.3993 31.9203V60.0378ZM83.3531 30.0639L54.8881 13.1882C54.487 12.9546 53.9953 12.9546 53.5942 13.1882C53.1931 13.4219 52.9473 13.8503 52.9473 14.3176V29.8952C52.9473 30.3495 53.1931 30.7779 53.5942 31.0116L68.4736 39.722V54.5597C68.4736 55.014 68.7195 55.4424 69.1076 55.6761L82.0463 63.4649C82.2533 63.5817 82.4862 63.6466 82.7061 63.6466C82.9261 63.6466 83.1461 63.5947 83.3401 63.4779C83.7412 63.2442 84 62.8158 84 62.3485V31.1803C84 30.726 83.7542 30.2976 83.366 30.0639H83.3531ZM50.9288 84.222L20.5877 68.0473V31.9203L46.465 16.5764V29.1682L32.8277 37.8657C32.4525 38.0994 32.2325 38.5148 32.2325 38.9561V61.0244C32.2325 61.5047 32.5042 61.959 32.9312 62.1797L50.3337 71.2666C50.7089 71.4614 51.1488 71.4614 51.524 71.2666L68.4089 62.5172L78.7987 68.7742L50.9159 84.222H50.9288ZM82.0721 67.7098L69.1335 59.921C68.7453 59.6873 68.2666 59.6743 67.8785 59.882L50.9418 68.6574L34.8202 60.2455V39.6831L48.4576 30.9856C48.8328 30.752 49.0527 30.3365 49.0527 29.8952V14.3046C49.0527 13.8373 48.8069 13.4089 48.4058 13.1752C48.0047 12.9416 47.513 12.9416 47.1119 13.1752L18.634 30.0639C18.2458 30.2976 18 30.726 18 31.1803V68.8262C18 69.3065 18.2588 69.7478 18.6857 69.9685L50.3207 86.8442C50.5148 86.9481 50.7218 87 50.9288 87C51.1359 87 51.3558 86.9481 51.5499 86.8442L82.0204 69.9685C82.4215 69.7478 82.6803 69.3194 82.6932 68.8521C82.6932 68.3848 82.4603 67.9564 82.0592 67.7098H82.0721Z" fill="#7993B0"/>
<path d="M51 101C78.6142 101 101 78.6142 101 51C101 23.3858 78.6142 1 51 1C23.3858 1 1 23.3858 1 51C1 78.6142 23.3858 101 51 101Z" stroke="#7893B0" stroke-width="1.5" stroke-linecap="round" stroke-linejoin="round"/>
</svg>
