<svg width="100" height="100" viewBox="0 0 100 100" fill="none" xmlns="http://www.w3.org/2000/svg">
<path fill-rule="evenodd" clip-rule="evenodd" d="M73.25 76.64H69.59V33.4C69.59 32.44 69.02 31.57 68.15 31.17L67.92 31.07C63.01 28.85 57.92 26.55 50.61 26.55C43.3 26.55 37.37 29.02 31.82 31.77C30.99 32.18 30.46 33.03 30.46 33.96V76.63H26.88V30.49C32.83 25.65 41.42 22.89 50.63 22.89C59.19 22.89 67.36 25.33 73.24 29.61V76.63L73.25 76.64ZM50.64 18C39.82 18 29.68 21.47 22.83 27.53C22.3 27.99 22 28.66 22 29.36V79.08C22 80.43 23.09 81.53 24.45 81.53H32.92C34.27 81.53 35.37 80.44 35.37 79.08V35.49C40.06 33.22 44.61 31.45 50.62 31.45C56.63 31.45 60.48 33.1 64.7 34.99V79.09C64.7 80.44 65.79 81.54 67.15 81.54H75.71C77.06 81.54 78.16 80.45 78.16 79.09V28.4C78.16 27.66 77.82 26.95 77.24 26.48C70.43 21.09 60.75 18 50.64 18Z" fill="#7893B0"/>
</svg>
