<svg width="100" height="100" viewBox="0 0 100 100" fill="none" xmlns="http://www.w3.org/2000/svg">
<path d="M51.1546 76.0473L27.4196 62.3349V34.9199L47.0758 23.571V2L9 23.9798V72.6666L51.1546 97L88.9711 75.1697L70.8208 64.6884L51.1546 76.0473Z" fill="#7993B0"/>
<path d="M40.7429 51.5745C40.7429 57.2689 45.3602 61.8763 51.0447 61.8763C56.4 61.8763 60.798 57.7875 61.2966 52.5718L74.7498 53.5391L74.8196 52.5319C74.8196 57.0894 78.5095 60.7793 83.067 60.7793C87.6246 60.7793 91.3145 57.0894 91.3145 52.5319C91.3145 47.9744 87.6246 44.2845 83.067 44.2845C78.8486 44.2845 75.3781 47.4458 74.8894 51.5346L61.4163 50.5673L61.3465 51.5645C61.3465 49.58 60.778 47.735 59.8007 46.1593L71.7181 38.4205L71.2893 37.7623C72.7752 39.9264 75.2684 41.3425 78.0907 41.3425C82.6482 41.3425 86.3381 37.6526 86.3381 33.0951C86.3381 28.5376 82.6482 24.8477 78.0907 24.8477C73.5331 24.8477 69.8432 28.5376 69.8432 33.0951C69.8432 34.7506 70.3319 36.2864 71.1796 37.5828L70.6411 36.7451L58.7037 44.4939L59.342 45.4712C58.245 43.9853 56.779 42.7886 55.0537 42.0605L55.5125 42.2301L60.4589 28.7071L58.5841 28.019L53.6376 41.542L54.0963 41.7115C53.129 41.4123 52.1018 41.2528 51.0347 41.2528C45.3403 41.2528 40.7329 45.8701 40.7329 51.5546L40.7429 51.5745Z" fill="#7993B0"/>
<path d="M63.6905 28.7845C68.1866 28.0547 71.2398 23.8183 70.5099 19.3222C69.7801 14.8261 65.5437 11.773 61.0476 12.5028C56.5515 13.2326 53.4984 17.469 54.2282 21.9651C54.958 26.4612 59.1944 29.5143 63.6905 28.7845Z" fill="#7993B0"/>
</svg>
