<svg width="102" height="102" viewBox="0 0 102 102" fill="none" xmlns="http://www.w3.org/2000/svg">
<path d="M51 101C78.6142 101 101 78.6142 101 51C101 23.3858 78.6142 1 51 1C23.3858 1 1 23.3858 1 51C1 78.6142 23.3858 101 51 101Z" stroke="#7893B0" stroke-width="1.5" stroke-linecap="round" stroke-linejoin="round"/>
<path d="M51.73 72.23L32.73 61.27V39.33L48.46 30.25V13L18 30.59V69.53L51.73 89L81.97 71.54L67.45 63.15L51.73 72.23Z" fill="#7993B0"/>
<path d="M43.3901 52.6496C43.3901 57.1996 47.0801 60.8896 51.6301 60.8896C55.9101 60.8896 59.4301 57.6196 59.8301 53.4396L70.5901 54.2096L70.6501 53.4096C70.6501 57.0596 73.6001 60.0096 77.2401 60.0096C80.8801 60.0096 83.8301 57.0596 83.8301 53.4196C83.8301 49.7796 80.8801 46.8296 77.2401 46.8296C73.8701 46.8296 71.0901 49.3596 70.7001 52.6296L59.9201 51.8596L59.8601 52.6596C59.8601 51.0696 59.4001 49.5996 58.6301 48.3396L68.1701 42.1496L67.8301 41.6196C69.0201 43.3496 71.0101 44.4896 73.2701 44.4896C76.9101 44.4896 79.8601 41.5396 79.8601 37.8996C79.8601 34.2596 76.9101 31.3096 73.2701 31.3096C69.6301 31.3096 66.6801 34.2596 66.6801 37.8996C66.6801 39.2196 67.0701 40.4496 67.7501 41.4896L67.3201 40.8196L57.7701 47.0196L58.2801 47.8096C57.4101 46.6196 56.2301 45.6696 54.8501 45.0896L55.2201 45.2296L59.1801 34.4096L57.6801 33.8596L53.7201 44.6796L54.0901 44.8096C53.3201 44.5696 52.4901 44.4396 51.6401 44.4396C47.0901 44.4396 43.4001 48.1296 43.4001 52.6796L43.3901 52.6496Z" fill="#7993B0"/>
<path d="M61.7451 34.4216C65.3376 33.8385 67.7772 30.4534 67.194 26.8609C66.6109 23.2683 63.2258 20.8287 59.6333 21.4119C56.0407 21.995 53.6012 25.3801 54.1843 28.9726C54.7675 32.5652 58.1525 35.0048 61.7451 34.4216Z" fill="#7993B0"/>
</svg>
