<svg width="79" height="81" viewBox="0 0 79 81" fill="none" xmlns="http://www.w3.org/2000/svg">
<path fill-rule="evenodd" clip-rule="evenodd" d="M57.89 65.9701V58.3901L62.58 56.5101V64.0901L57.89 65.9701ZM50.07 56.5101L54.76 58.3901V65.9701L50.07 64.0901V56.5101ZM40.68 76.9201V69.3401L45.37 67.4601V75.0401L40.68 76.9201ZM32.86 67.4601L37.55 69.3401V76.9201L32.86 75.0401V67.4601ZM23.47 65.9701V58.3901L28.16 56.5101V64.0901L23.47 65.9701ZM15.65 56.5101L20.34 58.3901V65.9701L15.65 64.0901V56.5101ZM21.91 52.7501L25.52 54.1901L21.91 55.6301L18.3 54.1901L21.91 52.7501ZM39.12 63.7001L42.73 65.1401L39.12 66.5801L35.51 65.1401L39.12 63.7001ZM56.33 52.7501L59.94 54.1901L56.33 55.6301L52.72 54.1901L56.33 52.7501ZM64.73 52.7501L56.91 49.6201C56.54 49.4701 56.12 49.4701 55.75 49.6201L47.93 52.7501C47.34 52.9901 46.95 53.5601 46.95 54.2001V63.4701L39.71 60.5701C39.34 60.4201 38.92 60.4201 38.55 60.5701L31.31 63.4701V54.2001C31.31 53.5601 30.92 52.9901 30.33 52.7501L22.51 49.6201C22.14 49.4701 21.72 49.4701 21.35 49.6201L13.53 52.7501C12.94 52.9901 12.55 53.5601 12.55 54.2001V65.1501C12.55 65.7901 12.94 66.3601 13.53 66.6001L21.35 69.7301C21.54 69.8001 21.73 69.8401 21.93 69.8401C22.13 69.8401 22.32 69.8001 22.51 69.7301L29.75 66.8301V76.1001C29.75 76.7401 30.14 77.3101 30.73 77.5501L38.55 80.6801C38.74 80.7501 38.93 80.7901 39.13 80.7901C39.33 80.7901 39.52 80.7501 39.71 80.6801L47.53 77.5501C48.12 77.3101 48.51 76.7401 48.51 76.1001V66.8301L55.75 69.7301C55.94 69.8001 56.13 69.8401 56.33 69.8401C56.53 69.8401 56.72 69.8001 56.91 69.7301L64.73 66.6001C65.32 66.3601 65.71 65.7901 65.71 65.1501V54.2001C65.71 53.5601 65.32 52.9901 64.73 52.7501ZM78.23 33.7701C78.23 42.9201 58.08 47.8501 39.12 47.8501C20.16 47.8501 0 42.9001 0 33.7601C0 29.3901 4.84 25.5501 13.64 22.9301L14.53 25.9301C7.5 28.0201 3.13 31.0201 3.13 33.7601C3.13 38.9401 17.91 44.7101 39.12 44.7101C60.33 44.7101 75.11 38.9401 75.11 33.7601C75.11 31.0201 70.74 28.0201 63.71 25.9301L64.6 22.9301C73.39 25.5401 78.24 29.3901 78.24 33.7601L78.23 33.7701ZM39.11 4.24012L55.09 10.3901L39.11 16.5401L23.13 10.3901L39.11 4.24012ZM55.66 35.1701C52.71 36.4901 47.76 38.0301 40.67 38.2401V19.2901L57.88 12.6701V31.7401C57.88 33.2301 57.01 34.5801 55.66 35.1701ZM20.33 31.7401V12.6701L37.54 19.2901V38.2401C30.46 38.0301 25.5 36.5001 22.54 35.1701C21.19 34.5801 20.32 33.2301 20.32 31.7401H20.33ZM21.28 38.0301C24.72 39.5701 30.61 41.4101 39.11 41.4101C47.61 41.4101 53.5 39.5701 56.94 38.0301C59.42 36.9301 61.02 34.4601 61.02 31.7401V10.3901C61.02 9.74012 60.62 9.16012 60.02 8.93012L39.68 1.10012C39.32 0.960117 38.92 0.960117 38.56 1.10012L18.22 8.92012C17.62 9.15012 17.22 9.73012 17.22 10.3801V31.7301C17.22 34.4601 18.82 36.9201 21.29 38.0201L21.28 38.0301Z" fill="#7993B0"/>
</svg>
