<svg width="143" height="134" viewBox="0 0 143 134" fill="none" xmlns="http://www.w3.org/2000/svg">
<path d="M28.572 100.241C18.3107 100.241 10.01 92.4629 10.01 82.8475C10.01 73.2321 18.3107 65.4538 28.572 65.4538C28.6137 65.4538 28.6555 65.4538 28.6971 65.4538C28.6137 64.5939 28.572 63.7534 28.572 62.874C28.572 46.6528 42.6083 33.5 59.9189 33.5C72.5787 33.5 83.4655 40.5357 88.4294 50.6397C90.3064 50.0339 92.3295 49.7017 94.4359 49.7017C104.092 49.7017 112.018 56.6201 112.915 65.4342H112.998C123.259 65.4342 131.56 73.2125 131.56 82.8279C131.56 92.4434 123.259 100.222 112.998 100.222H28.572V100.241ZM99.8169 68.268L97.6895 70.4178L107.304 78.7825H60.2318C59.3766 78.7825 58.6676 79.447 58.6676 80.2483C58.6676 81.0495 59.3766 81.714 60.2318 81.714H107.304L97.6895 90.0983L99.8169 92.248L113.582 80.2677L99.8169 68.2876V68.268ZM92.8092 67.9553C93.6643 67.9553 94.3734 67.2909 94.3734 66.4896C94.3734 65.6883 93.6643 65.0238 92.8092 65.0238H45.7576L55.3723 56.6397L53.2449 54.4898L39.4799 66.47L53.2449 78.4503L55.3723 76.3004L45.7576 67.9359H92.8092V67.9553Z" fill="#7993B0"/>
</svg>
