<svg width="51" height="48" viewBox="0 0 51 48" fill="none" xmlns="http://www.w3.org/2000/svg">
<path fill-rule="evenodd" clip-rule="evenodd" d="M14.0351 44.7851H4.55965L15.7852 23.5282L20.523 32.3732L14.0351 44.7851ZM17.3586 19.1456C17.0581 18.6018 16.4393 18.2499 15.7676 18.2499C15.0781 18.2499 14.4771 18.6018 14.1765 19.1616L0.175481 45.7128C-0.0896902 46.2086 -0.0543342 46.7844 0.281549 47.2482C0.599755 47.7121 1.16545 48 1.78419 48H15.1665C15.856 48 16.4747 47.6481 16.7575 47.0883L24.0939 33.077C24.3238 32.6451 24.3238 32.1333 24.0939 31.7014L17.3763 19.1616L17.3586 19.1456ZM47.429 44.7851H37.7945L20.2755 10.7164C19.9926 10.1566 19.3562 9.78873 18.6668 9.78873H12.3026V3.19893H25.0663L42.4969 37.2676C42.7797 37.8274 43.4161 38.1953 44.1056 38.1953H47.429V44.7851ZM49.1969 34.9963H45.2369L27.8063 0.927689C27.5235 0.367878 26.8871 0 26.1976 0H10.5525C9.58021 0 8.78469 0.71976 8.78469 1.59947V11.3882C8.78469 11.82 8.96147 12.2199 9.29739 12.5238C9.63324 12.8277 10.0752 12.9877 10.5525 12.9877H17.5707L35.0897 47.0563C35.3725 47.6161 36.009 47.984 36.6984 47.984H49.2322C50.2045 47.984 51 47.2643 51 46.3845V36.5958C51 35.7161 50.2045 34.9963 49.2322 34.9963H49.1969Z" fill="#7893B0"/>
</svg>
