<svg width="102" height="102" viewBox="0 0 102 102" fill="none" xmlns="http://www.w3.org/2000/svg">
<path d="M51 101C78.6142 101 101 78.6142 101 51C101 23.3858 78.6142 1 51 1C23.3858 1 1 23.3858 1 51C1 78.6142 23.3858 101 51 101Z" stroke="#7893B0" stroke-width="1.5" stroke-linecap="round" stroke-linejoin="round"/>
<path fill-rule="evenodd" clip-rule="evenodd" d="M35.9919 79.4431H23.8435L38.2311 49.3322L44.3004 61.8637L35.9821 79.4431H35.9919ZM40.2542 43.1254C39.8712 42.3593 39.0757 41.8585 38.2115 41.8585C37.3472 41.8585 36.5616 42.3593 36.1687 43.1548L18.2259 80.7591C17.8822 81.4662 17.9313 82.2813 18.3634 82.9295C18.7759 83.5875 19.4928 83.9902 20.2883 83.9902H37.4356C38.3195 83.9902 39.115 83.4893 39.4784 82.6938L48.877 62.8458C49.1716 62.2369 49.1716 61.5101 48.877 60.9012L40.264 43.1352L40.2444 43.1155L40.2542 43.1254ZM78.7915 79.4431H66.4466L43.9862 31.1831C43.6228 30.3876 42.8077 29.8671 41.9238 29.8671H33.7626V20.5274H50.1242L72.4668 68.7874C72.8302 69.5829 73.6453 70.1034 74.5292 70.1034H78.7915V79.4431ZM81.0601 65.576H75.9827L53.6401 17.316C53.2768 16.5205 52.4616 16 51.5777 16H31.5234C30.2762 16 29.2548 17.0214 29.2548 18.2686V32.1358C29.2548 32.7447 29.4807 33.3143 29.9128 33.7464C30.3449 34.1785 30.9145 34.4044 31.5234 34.4044H40.5194L62.97 82.6644C63.3334 83.4598 64.1485 83.9804 65.0324 83.9804H81.0994C82.3467 83.9804 83.368 82.959 83.368 81.7117V67.8446C83.368 66.5973 82.3467 65.576 81.0994 65.576H81.0503H81.0601Z" fill="#7893B0"/>
</svg>
