<svg width="100" height="100" viewBox="0 0 100 100" fill="none" xmlns="http://www.w3.org/2000/svg">
<path fill-rule="evenodd" clip-rule="evenodd" d="M69.26 75.49H73.7V25H69.26V75.49ZM26.54 75.49H30.98V25H26.54V75.49ZM84.8 53.54L80.85 50.24L84.8 46.94V53.53V53.54ZM87.96 40.2C87.19 39.84 86.26 39.95 85.6 40.5L75.96 48.54C75.45 48.96 75.16 49.59 75.16 50.25C75.16 50.91 75.45 51.53 75.96 51.96L85.6 59.99C86.01 60.33 86.51 60.5 87.02 60.5C87.34 60.5 87.66 60.43 87.96 60.29C88.74 59.93 89.24 59.14 89.24 58.28V42.21C89.24 41.35 88.74 40.57 87.96 40.2ZM15.44 53.54V46.95L19.39 50.25L15.44 53.55V53.54ZM14.64 40.5C13.98 39.95 13.06 39.83 12.28 40.2C11.5 40.56 11 41.35 11 42.21V58.28C11 59.14 11.5 59.92 12.28 60.29C12.58 60.43 12.9 60.5 13.22 60.5C13.73 60.5 14.23 60.32 14.64 59.99L24.28 51.96C24.79 51.54 25.08 50.91 25.08 50.25C25.08 49.59 24.79 48.97 24.28 48.54L14.64 40.5ZM59.54 61.62H40.68V46.64H59.54V61.62ZM46.52 39.26C46.52 38.03 46.94 36.9 47.68 36.06C48.35 35.31 49.22 34.89 50.13 34.89H50.14C52.11 34.89 53.71 36.88 53.71 39.32V42.21H46.51V39.27L46.52 39.26ZM61.77 42.21H58.15V39.32C58.17 34.44 54.58 30.46 50.16 30.44H50.14C47.95 30.44 45.9 31.39 44.37 33.11C42.91 34.76 42.1 36.94 42.09 39.24V42.2H38.48C37.89 42.2 37.33 42.43 36.91 42.85C36.49 43.27 36.26 43.83 36.26 44.42V63.83C36.26 65.06 37.25 66.05 38.47 66.05H61.76C62.35 66.06 62.91 65.83 63.33 65.41C63.75 64.99 63.98 64.43 63.98 63.84V44.43C63.98 43.84 63.76 43.28 63.34 42.86C62.92 42.44 62.36 42.21 61.77 42.21Z" fill="#7993B0"/>
</svg>
