<svg width="100" height="100" viewBox="0 0 100 100" fill="none" xmlns="http://www.w3.org/2000/svg">
<path fill-rule="evenodd" clip-rule="evenodd" d="M16.21 79.9105V72.5104L20.84 76.2104L16.21 79.9105ZM15.23 65.0504C14.45 64.4204 13.37 64.3004 12.47 64.7404C11.57 65.1804 10.99 66.0904 10.99 67.0904V85.3404C10.99 86.3404 11.57 87.2505 12.47 87.6905C12.83 87.8605 13.22 87.9504 13.6 87.9504C14.18 87.9504 14.76 87.7604 15.23 87.3804L26.64 78.2505C27.26 77.7505 27.62 77.0105 27.62 76.2104C27.62 75.4104 27.26 74.6704 26.64 74.1704L15.23 65.0404V65.0504ZM77.81 56.2304V46.0004L82.92 51.1104L77.81 56.2204V56.2304ZM88.45 49.2704L77.04 37.8604C76.29 37.1104 75.18 36.8904 74.2 37.2904C73.22 37.6904 72.59 38.6504 72.59 39.7004V48.5004H52.71V23.7304C52.71 22.2904 51.54 21.1204 50.1 21.1204H30.04V26.3304H47.49V48.4904H29.57V53.7004H47.49V75.8604H30.04V81.0704H50.1C51.54 81.0704 52.71 79.9005 52.71 78.4604V53.6904H72.59V62.4904C72.59 63.5404 73.23 64.5004 74.2 64.9004C74.52 65.0404 74.86 65.1004 75.2 65.1004C75.88 65.1004 76.55 64.8304 77.04 64.3404L88.45 52.9304C89.47 51.9104 89.47 50.2604 88.45 49.2404V49.2704ZM16.21 54.8104V47.4104L20.84 51.1104L16.21 54.8104ZM15.23 39.9504C14.45 39.3204 13.37 39.2004 12.47 39.6404C11.57 40.0804 10.99 40.9904 10.99 41.9904V60.2404C10.99 61.2404 11.57 62.1504 12.47 62.5904C12.83 62.7604 13.22 62.8504 13.6 62.8504C14.18 62.8504 14.76 62.6604 15.23 62.2804L26.64 53.1504C27.26 52.6504 27.62 51.9104 27.62 51.1104C27.62 50.3104 27.26 49.5704 26.64 49.0704L15.23 39.9404V39.9504ZM16.21 27.4404V20.0404L20.84 23.7404L16.21 27.4404ZM15.24 12.5704C14.45 11.9404 13.38 11.8204 12.48 12.2604C11.58 12.7004 11 13.6104 11 14.6104V32.8604C11 33.8604 11.58 34.7704 12.48 35.2104C12.84 35.3804 13.23 35.4704 13.61 35.4704C14.19 35.4704 14.77 35.2804 15.24 34.9004L26.65 25.7704C27.27 25.2704 27.63 24.5304 27.63 23.7304C27.63 22.9304 27.27 22.1904 26.65 21.6904L15.24 12.5704Z" fill="#7993B0"/>
</svg>
