<svg width="102" height="102" viewBox="0 0 102 102" fill="none" xmlns="http://www.w3.org/2000/svg">
<path d="M51 101C78.6142 101 101 78.6142 101 51C101 23.3858 78.6142 1 51 1C23.3858 1 1 23.3858 1 51C1 78.6142 23.3858 101 51 101Z" stroke="#7893B0" stroke-width="1.5" stroke-linecap="round" stroke-linejoin="round"/>
<path d="M78.25 80.8698L84.72 74.3498V27.5698L78.25 21.0498V80.8698Z" fill="#7993B0"/>
<path d="M78.2502 80.87L62.4102 89V13L78.2502 21.05V80.87Z" fill="#91ADC6"/>
<path d="M23.47 80.8698L17 74.3498V27.5698L23.47 21.0498V80.8698Z" fill="#4B6687"/>
<path d="M23.4702 80.87L39.3102 89V13L23.4702 21.05V80.87Z" fill="#5F7B9A"/>
<path d="M62.4101 13H39.3101V89H62.4101V13Z" fill="#7993B0"/>
</svg>
