<svg width="100" height="100" viewBox="0 0 100 100" fill="none" xmlns="http://www.w3.org/2000/svg">
<g clip-path="url(#clip0_6735_23221)">
<path d="M75.8602 12.5204C74.7002 10.5104 71.8502 8.86035 69.5302 8.86035H30.4702C28.1502 8.86035 25.3002 10.5104 24.1402 12.5204L4.61023 46.3404C3.45023 48.3504 3.45023 51.6404 4.61023 53.6504L24.1402 87.4704C25.3002 89.4804 28.1502 91.1303 30.4702 91.1303H69.5202C71.8402 91.1303 74.6902 89.4804 75.8502 87.4704L95.3802 53.6504C96.5402 51.6404 96.5402 48.3504 95.3802 46.3404L75.8602 12.5204Z" stroke="#7893B0" stroke-width="1.5" stroke-linecap="round" stroke-linejoin="round"/>
<path fill-rule="evenodd" clip-rule="evenodd" d="M61.7876 64.594V69.7056L72 63.8117V58.7002L67.6814 61.2506L61.7876 64.594Z" fill="#7893B0"/>
<path fill-rule="evenodd" clip-rule="evenodd" d="M67.6816 59.8797L72.0002 58.701V42.0054L67.6816 41.0195V59.8797Z" fill="#7893B0"/>
<path fill-rule="evenodd" clip-rule="evenodd" d="M61.7876 31V36.1115L67.6814 39.4442L72 42.0054V36.8938L61.7876 31Z" fill="#7893B0"/>
<path fill-rule="evenodd" clip-rule="evenodd" d="M32.3186 59.8797V41.0195L28 42.0054V58.701L32.3186 59.8797Z" fill="#7893B0"/>
<path fill-rule="evenodd" clip-rule="evenodd" d="M38.2124 36.1115V31L28 36.8938V42.0054L32.3186 39.4442L38.2124 36.1115Z" fill="#7893B0"/>
<path fill-rule="evenodd" clip-rule="evenodd" d="M38.2124 69.7056V64.594L32.3186 61.2506L28 58.7002V63.8117L38.2124 69.7056Z" fill="#7893B0"/>
<path d="M58 41H42C40.8961 41 40 41.9059 40 43.0217V59.9606C40 61.0765 40.8961 61.9824 42 61.9824H43.4659V65L46.6024 63.0652L49.7389 65V61.9824H58C59.1039 61.9824 60 61.0765 60 59.9606V43.0217C60 41.9059 59.1039 41 58 41ZM42.0861 44.7225H44.1721V46.8313H42.0861V44.7225ZM42.0861 48.1061H44.1721V50.2148H42.0861V48.1061ZM42.0861 51.4897H44.1721V53.5984H42.0861V51.4897ZM57.9139 59.8706H49.7389V57.7619H43.4659V59.8706H42.0861V55.6562C49.838 55.6562 52.8121 55.6532 57.9169 55.6532V59.8676L57.9139 59.8706Z" fill="#7993B0"/>
<path fill-rule="evenodd" clip-rule="evenodd" d="M50.4837 24L44.5898 27.1505L50.4837 30.2903L56.3775 27.1505L50.4837 24Z" fill="#7893B0"/>
<path fill-rule="evenodd" clip-rule="evenodd" d="M51.2656 37.5566L56.9666 34.4168V28.3301L51.2656 31.4699V37.5566Z" fill="#7893B0"/>
<path fill-rule="evenodd" clip-rule="evenodd" d="M49.8938 31.4699L44 28.3301V34.4168L49.8938 37.5566V31.4699Z" fill="#7893B0"/>
</g>
<defs>
<clipPath id="clip0_6735_23221">
<rect width="100" height="100" fill="white"/>
</clipPath>
</defs>
</svg>
