<svg width="102" height="102" viewBox="0 0 102 102" fill="none" xmlns="http://www.w3.org/2000/svg">
<path d="M51 101C78.6142 101 101 78.6142 101 51C101 23.3858 78.6142 1 51 1C23.3858 1 1 23.3858 1 51C1 78.6142 23.3858 101 51 101Z" stroke="#7893B0" stroke-width="1.5" stroke-linecap="round" stroke-linejoin="round"/>
<g clip-path="url(#clip0_6735_23216)">
<path d="M71.6999 20.93C70.7699 19.32 68.4899 18 66.6399 18H35.3899C33.5299 18 31.2499 19.32 30.3299 20.93L14.6999 47.98C13.7699 49.59 13.7699 52.22 14.6999 53.83L30.3199 80.89C31.2499 82.5 33.5299 83.82 35.3799 83.82H66.6199C68.4799 83.82 70.7599 82.5 71.6799 80.89L87.2999 53.83C88.2299 52.22 88.2299 49.59 87.2999 47.98L71.6999 20.93ZM65.1599 59.91L68.6099 57.87V61.96L60.4399 66.68V62.59L65.1599 59.92V59.91ZM65.1599 43.73L68.6099 44.52V57.88L65.1599 58.82V43.73ZM68.6099 40.43V44.52L65.1599 42.47L60.4399 39.8V35.71L68.6099 40.43ZM33.4099 57.88V44.52L36.8599 43.73V58.82L33.4099 57.88ZM36.8599 42.47L33.4099 44.52V40.43L41.5799 35.71V39.8L36.8599 42.47ZM33.4099 61.96V57.87L36.8599 59.91L41.5799 62.58V66.67L33.4099 61.95V61.96ZM59.0099 45.33V58.88C59.0099 59.77 58.2899 60.5 57.4099 60.5H50.7999V62.91L48.2899 61.36L45.7799 62.91V60.5H44.6099C43.7299 60.5 43.0099 59.78 43.0099 58.88V45.33C43.0099 44.44 43.7299 43.71 44.6099 43.71H57.4099C58.2899 43.71 59.0099 44.43 59.0099 45.33ZM44.6799 46.69H46.3499V48.38H44.6799V46.69ZM44.6799 49.4H46.3499V51.09H44.6799V49.4ZM44.6799 52.11H46.3499V53.8H44.6799V52.11ZM57.3399 58.81H50.7999V57.12H45.7799V58.81H44.6799V55.44C50.8799 55.44 53.2599 55.44 57.3399 55.44V58.81ZM56.1099 32.64L51.3899 35.15L46.6699 32.64L51.3899 30.12L56.1099 32.64ZM52.0199 36.1L56.5799 33.59V38.46L52.0199 40.97V36.1ZM50.9199 40.97L46.1999 38.46V33.59L50.9199 36.1V40.97Z" fill="#7893B0"/>
</g>
<defs>
<clipPath id="clip0_6735_23216">
<rect width="74.01" height="65.82" fill="white" transform="translate(14 18)"/>
</clipPath>
</defs>
</svg>
