<svg width="100" height="100" viewBox="0 0 100 100" fill="none" xmlns="http://www.w3.org/2000/svg">
<path d="M85.7275 52.4336L72.7425 35.9046L85.7275 19.3756H26.4829V14.3155C26.4829 14.2564 26.4731 14.1973 26.4632 14.1383C29.1606 13.4787 31.1591 11.0569 31.1591 8.16262C31.1591 4.76624 28.4026 2.00977 25.0062 2.00977C21.6098 2.00977 18.8534 4.7564 18.8534 8.15277C18.8534 11.0471 20.8518 13.4688 23.5492 14.1284C23.5492 14.1875 23.5295 14.2466 23.5295 14.3056V94.0465H15.4767C14.6596 94.0465 14 94.7061 14 95.5232C14 96.3403 14.6596 96.9999 15.4767 96.9999H34.5456C35.3627 96.9999 36.0223 96.3403 36.0223 95.5232C36.0223 94.7061 35.3627 94.0465 34.5456 94.0465H26.4829V52.4336H85.7176H85.7275Z" fill="#7993B0"/>
</svg>
