<svg width="102" height="102" viewBox="0 0 102 102" fill="none" xmlns="http://www.w3.org/2000/svg">
<path d="M51 101C78.6142 101 101 78.6142 101 51C101 23.3858 78.6142 1 51 1C23.3858 1 1 23.3858 1 51C1 78.6142 23.3858 101 51 101Z" stroke="#7893B0" stroke-width="1.5" stroke-linecap="round" stroke-linejoin="round"/>
<g clip-path="url(#clip0_3575_10066)">
<path d="M80.29 52.9798L69.74 39.5498L80.29 26.1198H32.15V22.0098C32.15 21.9598 32.15 21.9098 32.14 21.8598C34.33 21.3298 35.96 19.3598 35.96 17.0098C35.96 14.2498 33.72 12.0098 30.96 12.0098C28.2 12.0098 25.95 14.2398 25.95 16.9998C25.95 19.3498 27.58 21.3198 29.77 21.8498C29.77 21.8998 29.76 21.9498 29.76 21.9998V86.7998H23.2C22.54 86.7998 22 87.3398 22 87.9998C22 88.6598 22.54 89.1998 23.2 89.1998H38.7C39.36 89.1998 39.9 88.6598 39.9 87.9998C39.9 87.3398 39.36 86.7998 38.7 86.7998H32.15V52.9798H80.29Z" fill="#7993B0"/>
</g>
<defs>
<clipPath id="clip0_3575_10066">
<rect width="58.29" height="77.2" fill="white" transform="translate(22 12)"/>
</clipPath>
</defs>
</svg>
