<svg width="100" height="100" viewBox="0 0 100 100" fill="none" xmlns="http://www.w3.org/2000/svg">
<path fill-rule="evenodd" clip-rule="evenodd" d="M61.47 50.89C62.45 51.79 62.93 53 62.93 54.52C62.93 56.17 62.34 57.49 61.15 58.48C59.96 59.47 58.36 59.96 56.36 59.96C54.78 59.96 53.21 59.62 51.66 58.95V56.93C53.5 57.54 55.06 57.84 56.36 57.84C57.66 57.84 58.63 57.55 59.32 56.98C60.01 56.41 60.36 55.59 60.36 54.53C60.36 52.49 59.07 51.47 56.49 51.47C55.68 51.47 54.88 51.51 54.09 51.6V49.93L59.4 44.14H51.92V42.07H62.21V44.07L57 49.58C57.09 49.56 57.17 49.55 57.25 49.55H57.5C59.17 49.55 60.49 50 61.47 50.9M46.78 50.46C47.81 51.42 48.32 52.74 48.32 54.43C48.32 56.12 47.72 57.42 46.52 58.44C45.32 59.46 43.75 59.97 41.79 59.97C40.07 59.97 38.46 59.63 36.96 58.96V56.94C38.83 57.55 40.43 57.85 41.76 57.85C43.09 57.85 44.02 57.56 44.7 56.98C45.38 56.4 45.73 55.56 45.73 54.46C45.73 53.26 45.41 52.39 44.77 51.86C44.13 51.32 43.08 51.05 41.64 51.05C40.6 51.05 39.29 51.14 37.72 51.3V49.63L38.2 42.07H47.43V44.14H40.33L40 49.27C40.93 49.1 41.76 49.02 42.5 49.02C44.32 49.02 45.75 49.5 46.77 50.46M65.77 69C59.36 70.15 53.74 72.76 49.97 74.89C46.2 72.76 40.59 70.15 34.17 69C32.37 68.68 23.37 66.8 23.37 61.6C23.37 59.19 24.23 57.59 25.89 54.74C27.87 51.33 30.33 47.08 30.33 40.97C30.33 36.6 29.18 32.41 26.92 28.5C27.19 28.17 27.46 27.84 27.73 27.51C31.08 29.18 34.57 30.03 38.11 30.03C42.44 30.03 46.42 28.89 49.96 26.65C53.49 28.9 57.47 30.03 61.81 30.03C65.36 30.03 68.84 29.18 72.19 27.51C72.46 27.84 72.73 28.18 73 28.5C70.74 32.41 69.59 36.6 69.59 40.97C69.59 47.08 72.05 51.33 74.04 54.75C75.69 57.6 76.56 59.2 76.56 61.6C76.56 66.8 67.57 68.68 65.76 69M72.24 40.97C72.24 36.8 73.42 32.8 75.74 29.08C76.04 28.6 76 27.98 75.64 27.54C74.97 26.72 74.26 25.85 73.57 24.99C73.17 24.49 72.47 24.35 71.9 24.66C68.65 26.46 65.25 27.37 61.81 27.37C57.66 27.37 54.03 26.25 50.71 23.96C50.26 23.65 49.66 23.65 49.21 23.96C45.9 26.26 42.27 27.37 38.11 27.37C34.67 27.37 31.27 26.46 28.02 24.66C27.46 24.35 26.76 24.49 26.35 24.99C25.66 25.85 24.95 26.72 24.28 27.54C23.92 27.98 23.88 28.6 24.18 29.08C26.5 32.79 27.68 36.79 27.68 40.97C27.68 46.37 25.41 50.28 23.59 53.42C21.81 56.49 20.72 58.53 20.72 61.6C20.72 68.72 30.65 71.06 33.69 71.6C40.11 72.75 45.72 75.47 49.29 77.55C49.49 77.67 49.72 77.73 49.95 77.73C50.18 77.73 50.41 77.67 50.61 77.55C54.18 75.47 59.79 72.75 66.21 71.6C69.25 71.05 79.18 68.72 79.18 61.6C79.18 58.52 78.09 56.49 76.31 53.41C74.49 50.27 72.22 46.37 72.22 40.96M67.11 76.63C59.01 78.09 52.22 82.44 49.94 84.04C47.66 82.44 40.87 78.09 32.77 76.63C16.83 73.77 15.59 64.4 15.59 61.6C15.59 56.99 17.4 53.87 19.15 50.85C20.82 47.97 22.55 45 22.55 40.97C22.55 34.6 18.87 30.11 17.06 28.28C18.97 25.96 23.79 20.08 26.16 17.02C29.76 20.42 33.95 22.27 38.09 22.27C42.68 22.27 46.48 20.4 49.94 16.41C53.39 20.4 57.19 22.27 61.79 22.27C65.93 22.27 70.11 20.42 73.72 17.02C76.1 20.08 80.91 25.96 82.82 28.28C81.01 30.11 77.33 34.61 77.33 40.97C77.33 45 79.06 47.98 80.73 50.85C82.48 53.87 84.29 56.99 84.29 61.6C84.29 64.4 83.05 73.77 67.11 76.63ZM83.01 49.52C81.38 46.71 79.97 44.28 79.97 40.96C79.97 33.97 85.41 29.46 85.46 29.41C85.73 29.19 85.91 28.87 85.94 28.51C85.97 28.16 85.87 27.81 85.64 27.54C85.55 27.43 76.89 16.94 74.91 14.22C74.68 13.9 74.32 13.7 73.92 13.68C73.53 13.65 73.14 13.81 72.88 14.1C69.55 17.66 65.61 19.62 61.78 19.62C57.55 19.62 54.22 17.73 50.98 13.51C50.48 12.86 49.38 12.86 48.88 13.51C45.64 17.74 42.31 19.62 38.08 19.62C34.25 19.62 30.31 17.66 26.98 14.1C26.71 13.81 26.33 13.65 25.94 13.68C25.55 13.7 25.19 13.9 24.95 14.22C23.03 16.93 14.37 27.43 14.28 27.53C14.06 27.8 13.95 28.15 13.99 28.5C14.02 28.85 14.2 29.17 14.47 29.39C14.53 29.43 19.96 33.95 19.96 40.94C19.96 44.26 18.55 46.69 16.92 49.5C15.08 52.67 13 56.25 13 61.58C13 70.45 20.24 77.04 32.36 79.22C41.48 80.86 49.11 86.65 49.19 86.71C49.43 86.89 49.71 86.98 49.99 86.98C50.27 86.98 50.56 86.89 50.79 86.71C50.87 86.65 58.47 80.87 67.62 79.22C79.74 77.04 86.98 70.45 86.98 61.58C86.98 56.26 84.9 52.67 83.06 49.5" fill="#7993B0"/>
</svg>
