<svg width="100" height="100" viewBox="0 0 100 100" fill="none" xmlns="http://www.w3.org/2000/svg">
<path fill-rule="evenodd" clip-rule="evenodd" d="M89.23 48.0704V52.2247H61.1456L66.6305 57.7095L63.695 60.6449L54.6654 51.6152C53.8528 50.8027 53.8528 49.4924 54.6654 48.6798L63.695 39.6502L66.6305 42.5856L61.1456 48.0704H89.23ZM45.5646 51.6152L36.535 60.6449L33.5996 57.7095L39.0742 52.2247H11V48.0704H39.0844L33.6097 42.5856L36.5451 39.6502L45.5748 48.6798C46.3873 49.4924 46.3873 50.8027 45.5748 51.6152H45.5646ZM57.6719 75.7587L60.6073 78.6941L51.5776 87.7237C51.1713 88.13 50.6432 88.3332 50.1048 88.3332C49.5665 88.3332 49.0383 88.13 48.6321 87.7237L39.6024 78.6941L42.5378 75.7587L48.0226 81.2435V19.661L42.6495 25.9279L39.4907 23.2261L48.5406 12.6932C49.3329 11.7689 50.9073 11.7689 51.6995 12.6932L60.7292 23.2261L57.5703 25.9279L52.1972 19.661V81.2435L57.682 75.7587H57.6719Z" fill="#7993B0"/>
</svg>
