<svg width="100" height="100" viewBox="0 0 100 100" fill="none" xmlns="http://www.w3.org/2000/svg">
<path d="M65.0002 25.5003V29.6503L49.7202 33.2403V67.0503L65.0002 69.3503V75.3003L81.3702 80.4203V19.7803L65.0002 25.5003Z" fill="#5F7B9A"/>
<path d="M34.4398 69.3503L49.7198 67.0503V33.2403L34.4398 29.6503V25.5003L18.0698 19.7803V80.4203L34.4398 75.3003V69.3503Z" fill="#7993B0"/>
<path d="M89.4401 74.9803L81.3701 80.4203V19.7803L89.4401 25.2203V74.9803Z" fill="#7993B0"/>
<path d="M10 74.9803L18.07 80.4203V19.7803L10 25.2203V74.9803Z" fill="#5F7B9A"/>
<path d="M65.0002 29.65L49.7202 25.04V2L65.0002 9.49V29.65Z" fill="#7993B0"/>
<path d="M34.4399 29.65L49.7199 25.04V2L34.4399 9.49V29.65Z" fill="#5F7B9A"/>
<path d="M65.0002 59.5003L49.7202 64.1503V36.2803L65.0002 41.9203V59.5003Z" fill="#7993B0"/>
<path d="M34.4399 59.5003L49.7199 64.1503V36.2803L34.4399 41.9203V59.5003Z" fill="#5F7B9A"/>
<path d="M34.4399 29.65L49.7199 33.24L64.9999 29.65L49.7199 25.04L34.4399 29.65Z" fill="#4B6687"/>
<path d="M65.0002 69.3496L49.7202 73.9596V96.9996L65.0002 89.5096V69.3496Z" fill="#7993B0"/>
<path d="M34.4399 69.3496L49.7199 73.9596V96.9996L34.4399 89.5096V69.3496Z" fill="#5F7B9A"/>
<path d="M34.4399 69.3498L49.7199 67.0498L64.9999 69.3498L49.7199 73.9598L34.4399 69.3498Z" fill="#91ADC6"/>
</svg>
