<svg width="102" height="102" viewBox="0 0 102 102" fill="none" xmlns="http://www.w3.org/2000/svg">
<path d="M51 101C78.6142 101 101 78.6142 101 51C101 23.3858 78.6142 1 51 1C23.3858 1 1 23.3858 1 51C1 78.6142 23.3858 101 51 101Z" stroke="#7893B0" stroke-width="1.5" stroke-linecap="round" stroke-linejoin="round"/>
<path d="M63 31.7997V35.1197L50.77 37.9897V65.0397L63 66.8797V71.6397L76.09 75.7397V27.2197L63 31.7997Z" fill="#5F7B9A"/>
<path d="M38.55 66.8797L50.77 65.0397V37.9897L38.55 35.1197V31.7997L25.46 27.2197V75.7397L38.55 71.6397V66.8797Z" fill="#7993B0"/>
<path d="M82.5498 71.3897L76.0898 75.7397V27.2197L82.5498 31.5797V71.3897Z" fill="#7993B0"/>
<path d="M19 71.3897L25.46 75.7397V27.2197L19 31.5797V71.3897Z" fill="#5F7B9A"/>
<path d="M63 35.12L50.77 31.43V13L63 18.99V35.12Z" fill="#7993B0"/>
<path d="M38.5498 35.12L50.7698 31.43V13L38.5498 18.99V35.12Z" fill="#5F7B9A"/>
<path d="M63 58.9999L50.77 62.7199V40.4199L63 44.9399V58.9999Z" fill="#7993B0"/>
<path d="M38.5498 58.9999L50.7698 62.7199V40.4199L38.5498 44.9399V58.9999Z" fill="#5F7B9A"/>
<path d="M38.5498 35.1197L50.7698 37.9897L62.9998 35.1197L50.7698 31.4297L38.5498 35.1197Z" fill="#4B6687"/>
<path d="M63 66.8799L50.77 70.5699V88.9999L63 83.0099V66.8799Z" fill="#7993B0"/>
<path d="M38.5498 66.8799L50.7698 70.5699V88.9999L38.5498 83.0099V66.8799Z" fill="#5F7B9A"/>
<path d="M38.5498 66.88L50.7698 65.04L62.9998 66.88L50.7698 70.57L38.5498 66.88Z" fill="#91ADC6"/>
</svg>
