<svg width="82" height="115" viewBox="0 0 82 115" fill="none" xmlns="http://www.w3.org/2000/svg">
<path d="M76.61 39.5963H69.2861V28.3263C69.2861 12.7106 56.5964 0 40.9939 0C25.3916 0 12.7139 12.7106 12.7139 28.3263V39.5963H5.39018C2.41705 39.5963 0 42.0174 0 44.9953V109.601C0 112.579 2.41705 115 5.39018 115H76.61C79.583 115 82 112.579 82 109.601V44.9953C82 42.0174 79.583 39.5963 76.61 39.5963ZM43.2902 76.7837V91.9759H38.7098V76.7837C36.3411 75.8637 34.6492 73.5637 34.6492 70.8643C34.6492 67.3537 37.4892 64.4969 41.0061 64.4969C44.523 64.4969 47.3631 67.3416 47.3631 70.8643C47.3631 73.5637 45.6711 75.8637 43.3023 76.7837H43.2902ZM23.1316 39.5963V28.3263C23.1316 18.4606 31.1443 10.4347 40.9939 10.4347C50.8437 10.4347 58.8563 18.4606 58.8563 28.3263V39.5963H23.1316Z" fill="#7993B0"/>
</svg>
