<svg width="102" height="102" viewBox="0 0 102 102" fill="none" xmlns="http://www.w3.org/2000/svg">
<path d="M51 101C78.6142 101 101 78.6142 101 51C101 23.3858 78.6142 1 51 1C23.3858 1 1 23.3858 1 51C1 78.6142 23.3858 101 51 101Z" stroke="#7893B0" stroke-width="1.5" stroke-linecap="round" stroke-linejoin="round"/>
<path d="M73.04 39.79H68.45V32.74C68.45 22.96 60.49 15 50.71 15C40.93 15 32.97 22.96 32.97 32.74V39.79H28.38C26.51 39.79 25 41.3 25 43.17V83.62C25 85.49 26.51 87 28.38 87H73.04C74.91 87 76.42 85.49 76.42 83.62V43.17C76.42 41.3 74.91 39.79 73.04 39.79ZM52.15 63.07V72.58H49.27V63.07C47.78 62.49 46.72 61.05 46.72 59.36C46.72 57.16 48.5 55.37 50.71 55.37C52.92 55.37 54.7 57.15 54.7 59.36C54.7 61.05 53.64 62.49 52.15 63.07ZM39.51 39.79V32.74C39.51 26.56 44.54 21.54 50.71 21.54C56.88 21.54 61.91 26.57 61.91 32.74V39.79H39.51Z" fill="#7993B0"/>
</svg>
