<svg width="90" height="58" viewBox="0 0 90 58" fill="none" xmlns="http://www.w3.org/2000/svg">
<path fill-rule="evenodd" clip-rule="evenodd" d="M72.7731 54.6237H18.9692C11.8731 54.6237 3.66923 49.3622 3.25385 41.816C3.25385 41.7699 3.25385 41.7237 3.25385 41.6776H21.45C22.1077 41.6776 22.6962 41.2737 22.9385 40.6622C23.1808 40.0506 23.0308 39.3468 22.5577 38.8853C21.7615 38.1237 21.3231 37.0968 21.3231 36.0122C21.3231 33.8199 23.1 32.0314 25.2808 32.0314C27.4615 32.0314 29.2385 33.8199 29.2385 36.0122C29.2385 37.0968 28.8 38.1237 28.0038 38.8853C27.5308 39.3468 27.3808 40.0391 27.6231 40.6622C27.8654 41.2737 28.4538 41.6776 29.1115 41.6776H47.1577C46.8808 42.4506 46.7423 43.2583 46.7423 44.1006C46.7423 48.0814 49.9615 51.3237 53.9077 51.3237C57.8538 51.3237 61.0731 48.0814 61.0731 44.1006C61.0731 43.2583 60.9346 42.4391 60.6577 41.6776H86.7923C86.4115 53.343 76.9154 54.6237 72.7846 54.6237H72.7731ZM13.9154 27.4276C14.7 27.2314 15.2192 26.4699 15.1269 25.6622C15.0231 24.843 14.9769 24.0237 14.9769 23.1814C14.9769 15.7506 20.2615 7.74295 27.0115 4.96218C30.8538 3.38141 34.8 2.91988 38.5615 3.51988V21.6353C38.5615 22.293 38.9654 22.893 39.5769 23.1353C40.1885 23.3776 40.8808 23.2276 41.3423 22.743C42.9115 21.0814 45.7615 21.1853 47.2154 22.916C47.9769 23.8276 48.2885 24.993 48.0923 26.193C47.85 27.6583 46.7308 28.916 45.3231 29.3199C43.8577 29.7353 42.3692 29.3314 41.3423 28.2353C40.8923 27.7506 40.1885 27.6006 39.5769 27.843C38.9654 28.0853 38.5615 28.6853 38.5615 29.343V38.4353H32.0077C32.2846 37.6622 32.4231 36.8545 32.4231 36.0122C32.4231 32.0314 29.2038 28.7891 25.2577 28.7891C21.3115 28.7891 18.0923 32.0314 18.0923 36.0122C18.0923 36.8545 18.2308 37.6737 18.5077 38.4353H3.36923C4.39615 30.9468 10.2808 28.3276 13.9154 27.4276ZM41.7808 4.29295C44.7808 5.2968 47.5962 7.01603 50.0538 9.42757C52.4538 11.7699 54.4154 14.9199 55.7423 18.5199C55.95 19.0737 56.4346 19.4776 57.0115 19.5583C57.6 19.6506 58.1769 19.4083 58.5231 18.9353C60.0115 16.9737 62.2154 15.8545 64.5692 15.8545C68.0423 15.8545 72.2654 18.4276 72.6808 25.6622C72.7269 26.4006 73.2577 27.0122 73.9731 27.1506C79.2577 28.2237 85.4423 31.0622 86.5962 38.4237H57.7154C57.0577 38.4237 56.4692 38.8276 56.2269 39.4391C55.9846 40.0506 56.1346 40.7545 56.6077 41.216C57.4038 41.9776 57.8423 43.0045 57.8423 44.0891C57.8423 46.2814 56.0654 48.0699 53.8846 48.0699C51.7038 48.0699 49.9269 46.2814 49.9269 44.0891C49.9269 43.0045 50.3654 41.9776 51.1615 41.216C51.6346 40.7545 51.7846 40.0622 51.5423 39.4391C51.3 38.8276 50.7115 38.4237 50.0538 38.4237H41.7808V32.2737C43.1654 32.7699 44.7115 32.8391 46.2 32.4122C48.8192 31.6622 50.8038 29.4237 51.2538 26.7122C51.6115 24.5891 51.0346 22.4314 49.6615 20.8045C47.7577 18.543 44.5154 17.6776 41.7808 18.6699V4.29295ZM90 40.0506C90 39.9353 89.9885 39.8199 89.9654 39.716C89.5038 31.8122 84.5308 26.3776 75.7962 24.2545C74.8615 16.2353 69.5885 12.6237 64.5808 12.6237C62.0885 12.6237 59.7231 13.4891 57.8077 15.0699C56.3885 11.9776 54.5077 9.25449 52.3038 7.10834C45.0692 0.0237217 35.1692 -1.9032 25.8 1.95065C17.8038 5.26218 11.7692 14.3776 11.7692 23.1699C11.7692 23.6776 11.7808 24.1737 11.8154 24.6583C7.58077 26.0199 0.484615 29.7814 0.0230769 39.7737C0.0115385 39.866 0 39.9583 0 40.0506C0 40.1083 0 40.1545 0 40.2122C0 40.4083 0 40.6045 0 40.8006C0 41.216 0.0115385 41.5968 0.0346154 41.9891C0.565385 51.4853 10.2462 57.866 18.9577 57.866H72.7615C76.8 57.866 89.9885 56.643 89.9885 40.9506C89.9885 40.7199 89.9885 40.4776 89.9885 40.2583C89.9885 40.2006 89.9885 40.1314 89.9885 40.0622L90 40.0506Z" fill="#7993B0"/>
</svg>
