<svg width="102" height="102" viewBox="0 0 102 102" fill="none" xmlns="http://www.w3.org/2000/svg">
<path fill-rule="evenodd" clip-rule="evenodd" d="M75.6872 67.0864H27.8615C21.5538 67.0864 14.2615 62.3582 13.8923 55.577C13.8923 55.5356 13.8923 55.4941 13.8923 55.4526H30.0667C30.6513 55.4526 31.1744 55.0897 31.3897 54.5402C31.6051 53.9906 31.4718 53.3581 31.0513 52.9434C30.3436 52.259 29.9538 51.3362 29.9538 50.3615C29.9538 48.3915 31.5333 46.7843 33.4718 46.7843C35.4103 46.7843 36.9897 48.3915 36.9897 50.3615C36.9897 51.3362 36.6 52.259 35.8923 52.9434C35.4718 53.3581 35.3385 53.9802 35.5538 54.5402C35.7692 55.0897 36.2923 55.4526 36.8769 55.4526H52.9179C52.6718 56.1473 52.5487 56.8731 52.5487 57.63C52.5487 61.2073 55.4103 64.1209 58.9179 64.1209C62.4256 64.1209 65.2872 61.2073 65.2872 57.63C65.2872 56.8731 65.1641 56.1369 64.9179 55.4526H88.1487C87.8102 65.9354 79.3692 67.0864 75.6974 67.0864H75.6872ZM23.3692 42.6472C24.0667 42.4709 24.5282 41.7866 24.4462 41.0607C24.3538 40.3246 24.3128 39.5884 24.3128 38.8315C24.3128 32.154 29.0103 24.958 35.0103 22.4592C38.4256 21.0386 41.9333 20.6239 45.2769 21.1631V37.442C45.2769 38.0331 45.6359 38.5722 46.1795 38.79C46.7231 39.0077 47.3385 38.8729 47.7487 38.4374C49.1436 36.9443 51.6769 37.0377 52.9692 38.593C53.6461 39.4121 53.9231 40.4594 53.7487 41.5377C53.5333 42.8545 52.5385 43.9847 51.2872 44.3476C49.9846 44.7209 48.6615 44.358 47.7487 43.373C47.3487 42.9375 46.7231 42.8027 46.1795 43.0204C45.6359 43.2382 45.2769 43.7774 45.2769 44.3684V52.539H39.4513C39.6974 51.8443 39.8205 51.1185 39.8205 50.3615C39.8205 46.7843 36.959 43.8707 33.4513 43.8707C29.9436 43.8707 27.0821 46.7843 27.0821 50.3615C27.0821 51.1185 27.2051 51.8546 27.4513 52.539H13.9949C14.9077 45.8096 20.1385 43.4559 23.3692 42.6472ZM48.1385 21.8578C50.8051 22.7598 53.3077 24.3048 55.4923 26.4719C57.6256 28.5767 59.3692 31.4074 60.5487 34.6425C60.7333 35.1402 61.1641 35.5031 61.6769 35.5757C62.2 35.6586 62.7128 35.4409 63.0205 35.0157C64.3436 33.2531 66.3026 32.2473 68.3949 32.2473C71.482 32.2473 75.2359 34.5595 75.6051 41.0607C75.6462 41.7243 76.1179 42.2739 76.7538 42.3983C81.4513 43.3626 86.9487 45.9133 87.9744 52.5286H62.3026C61.7179 52.5286 61.1949 52.8915 60.9795 53.4411C60.7641 53.9906 60.8974 54.6231 61.3179 55.0379C62.0256 55.7222 62.4154 56.645 62.4154 57.6197C62.4154 59.5897 60.8359 61.1969 58.8974 61.1969C56.959 61.1969 55.3795 59.5897 55.3795 57.6197C55.3795 56.645 55.7692 55.7222 56.4769 55.0379C56.8974 54.6231 57.0308 54.001 56.8154 53.4411C56.6 52.8915 56.0769 52.5286 55.4923 52.5286H48.1385V47.002C49.3692 47.4479 50.7436 47.5101 52.0667 47.1265C54.3949 46.4525 56.159 44.441 56.559 42.0043C56.8769 40.0964 56.3641 38.1575 55.1436 36.6955C53.4513 34.6632 50.5692 33.8855 48.1385 34.7773V21.8578ZM91 53.9906C91 53.8869 90.9897 53.7832 90.9692 53.6899C90.559 46.5873 86.1385 41.7036 78.3744 39.7957C77.5436 32.5894 72.8564 29.344 68.4051 29.344C66.1897 29.344 64.0872 30.1217 62.3846 31.5422C61.1231 28.7634 59.4513 26.3163 57.4923 24.3877C51.0615 18.0213 42.2615 16.2897 33.9333 19.7529C26.8256 22.7287 21.4615 30.9201 21.4615 38.8211C21.4615 39.2773 21.4718 39.7232 21.5026 40.1587C17.7385 41.3822 11.4308 44.7624 11.0205 53.7418C11.0103 53.8247 11 53.9077 11 53.9906C11 54.0424 11 54.0839 11 54.1358C11 54.312 11 54.4883 11 54.6646C11 55.0379 11.0103 55.38 11.0308 55.7326C11.5026 64.2661 20.1077 70 27.8513 70H75.6769C79.2667 70 90.9897 68.9009 90.9897 54.7994C90.9897 54.592 90.9897 54.3743 90.9897 54.1772C90.9897 54.1254 90.9897 54.0632 90.9897 54.001L91 53.9906Z" fill="#7993B0"/>
<path d="M51 101C78.6142 101 101 78.6142 101 51C101 23.3858 78.6142 1 51 1C23.3858 1 1 23.3858 1 51C1 78.6142 23.3858 101 51 101Z" stroke="#7893B0" stroke-width="1.5" stroke-linecap="round" stroke-linejoin="round"/>
</svg>
