<svg width="102" height="102" viewBox="0 0 102 102" fill="none" xmlns="http://www.w3.org/2000/svg">
<path fill-rule="evenodd" clip-rule="evenodd" d="M23.7273 49C25.0273 49 26.0909 50.125 26.0909 51.5C26.0909 52.875 25.0273 54 23.7273 54C22.4273 54 21.3636 52.875 21.3636 51.5C21.3636 50.125 22.4273 49 23.7273 49ZM52.0909 81.5C38.2794 81.5 26.4297 70.8333 23.9558 56.475C26.0515 56.3667 27.777 54.825 28.2812 52.75H35.5376V50.25H28.2812C27.7691 48.175 26.0436 46.6333 23.9558 46.525C26.4297 32.3833 38.5158 21.5 52.0909 21.5C57.1885 21.5 62.5303 23.525 67.9588 27.525L69.3061 25.475C63.4758 21.175 57.677 19 52.0909 19C37.0503 19 23.6642 31.3333 21.4345 47.15C19.9848 48.0083 19 49.625 19 51.5C19 53.375 19.9927 54.9917 21.4345 55.85C23.6879 71.925 36.7903 84 52.0909 84C58.4806 84 65.02 81.7 70.5115 77.5167L69.1327 75.4917C64.043 79.3667 57.9921 81.5083 52.0988 81.5083L52.0909 81.5ZM39.2091 47.05C41.3994 47.6167 44.1412 47.75 46.1818 47.75C48.2224 47.75 50.6964 47.6333 52.8315 47.1333L47.4818 58.4417C47.403 58.6167 47.3558 58.8083 47.3558 59V64.5667C46.4103 65.2083 44.7952 66.2667 43.8103 66.4833V59C43.8103 58.8333 43.7788 58.675 43.7158 58.5167L39.2012 47.05H39.2091ZM46.1818 42.75C50.9406 42.75 53.4776 43.5083 54.2655 44C53.4776 44.4917 50.9406 45.25 46.1818 45.25C41.423 45.25 38.8861 44.4917 38.0982 44C38.8861 43.5083 41.423 42.75 46.1818 42.75ZM42.6364 69H43.8182C43.8655 69 43.9206 69 43.9679 68.9917C45.4176 68.7917 47.2533 67.6083 48.8685 66.5167L49.1758 66.3083C49.5145 66.075 49.7273 65.6833 49.7273 65.25V59.2917L56.2982 45.4C56.6212 45 56.8182 44.5417 56.8182 44C56.8182 40.7333 50.1527 40.25 46.1818 40.25C42.2109 40.25 35.5455 40.7333 35.5455 44C35.5455 44.4583 35.6873 44.8583 35.9236 45.2083L41.4545 59.25V67.75C41.4545 68.4417 41.9824 69 42.6364 69ZM76.9091 67.75C78.2091 67.75 79.2727 68.875 79.2727 70.25C79.2727 71.625 78.2091 72.75 76.9091 72.75C75.6091 72.75 74.5455 71.625 74.5455 70.25C74.5455 68.875 75.6091 67.75 76.9091 67.75ZM76.9091 30.25C78.2091 30.25 79.2727 31.375 79.2727 32.75C79.2727 34.125 78.2091 35.25 76.9091 35.25C75.6091 35.25 74.5455 34.125 74.5455 32.75C74.5455 31.375 75.6091 30.25 76.9091 30.25ZM79.2727 49C80.5727 49 81.6364 50.125 81.6364 51.5C81.6364 52.875 80.5727 54 79.2727 54C77.9727 54 76.9091 52.875 76.9091 51.5C76.9091 50.125 77.9727 49 79.2727 49ZM67.4545 52.75H74.7109C75.2388 54.9 77.0745 56.5 79.2727 56.5C81.8806 56.5 84 54.2583 84 51.5C84 48.7417 81.8806 46.5 79.2727 46.5C77.0745 46.5 75.2388 48.1 74.7109 50.25H67.4545V34H72.3473C72.8752 36.15 74.7109 37.75 76.9091 37.75C79.517 37.75 81.6364 35.5083 81.6364 32.75C81.6364 29.9917 79.517 27.75 76.9091 27.75C74.7109 27.75 72.8752 29.35 72.3473 31.5H66.2727C65.6188 31.5 65.0909 32.0583 65.0909 32.75V50.25H56.8182V52.75H65.0909V70.25C65.0909 70.9417 65.6188 71.5 66.2727 71.5H72.3473C72.8752 73.65 74.7109 75.25 76.9091 75.25C79.517 75.25 81.6364 73.0083 81.6364 70.25C81.6364 67.4917 79.517 65.25 76.9091 65.25C74.7109 65.25 72.8752 66.85 72.3473 69H67.4545V52.75Z" fill="#7993B0"/>
<path d="M51 101C78.6142 101 101 78.6142 101 51C101 23.3858 78.6142 1 51 1C23.3858 1 1 23.3858 1 51C1 78.6142 23.3858 101 51 101Z" stroke="#7893B0" stroke-width="1.5" stroke-linecap="round" stroke-linejoin="round"/>
</svg>
