<svg width="83" height="78" viewBox="0 0 83 78" fill="none" xmlns="http://www.w3.org/2000/svg">
<path fill-rule="evenodd" clip-rule="evenodd" d="M6 36C7.65 36 9 37.35 9 39C9 40.65 7.65 42 6 42C4.35 42 3 40.65 3 39C3 37.35 4.35 36 6 36ZM42 75C24.47 75 9.43 62.2 6.29 44.97C8.95 44.84 11.14 42.99 11.78 40.5H20.99V37.5H11.78C11.13 35.01 8.94 33.16 6.29 33.03C9.43 16.06 24.77 3 42 3C48.47 3 55.25 5.43 62.14 10.23L63.85 7.77C56.45 2.61 49.09 0 42 0C22.91 0 5.92 14.8 3.09 33.78C1.25 34.81 0 36.75 0 39C0 41.25 1.26 43.19 3.09 44.22C5.95 63.51 22.58 78 42 78C50.11 78 58.41 75.24 65.38 70.22L63.63 67.79C57.17 72.44 49.49 75.01 42.01 75.01L42 75ZM25.65 33.66C28.43 34.34 31.91 34.5 34.5 34.5C37.09 34.5 40.23 34.36 42.94 33.76L36.15 47.33C36.05 47.54 35.99 47.77 35.99 48V54.68C34.79 55.45 32.74 56.72 31.49 56.98V48C31.49 47.8 31.45 47.61 31.37 47.42L25.64 33.66H25.65ZM34.5 28.5C40.54 28.5 43.76 29.41 44.76 30C43.76 30.59 40.54 31.5 34.5 31.5C28.46 31.5 25.24 30.59 24.24 30C25.24 29.41 28.46 28.5 34.5 28.5ZM30 60H31.5C31.56 60 31.63 60 31.69 59.99C33.53 59.75 35.86 58.33 37.91 57.02L38.3 56.77C38.73 56.49 39 56.02 39 55.5V48.35L47.34 31.68C47.75 31.2 48 30.65 48 30C48 26.08 39.54 25.5 34.5 25.5C29.46 25.5 21 26.08 21 30C21 30.55 21.18 31.03 21.48 31.45L28.5 48.3V58.5C28.5 59.33 29.17 60 30 60ZM73.5 58.5C75.15 58.5 76.5 59.85 76.5 61.5C76.5 63.15 75.15 64.5 73.5 64.5C71.85 64.5 70.5 63.15 70.5 61.5C70.5 59.85 71.85 58.5 73.5 58.5ZM73.5 13.5C75.15 13.5 76.5 14.85 76.5 16.5C76.5 18.15 75.15 19.5 73.5 19.5C71.85 19.5 70.5 18.15 70.5 16.5C70.5 14.85 71.85 13.5 73.5 13.5ZM76.5 36C78.15 36 79.5 37.35 79.5 39C79.5 40.65 78.15 42 76.5 42C74.85 42 73.5 40.65 73.5 39C73.5 37.35 74.85 36 76.5 36ZM61.5 40.5H70.71C71.38 43.08 73.71 45 76.5 45C79.81 45 82.5 42.31 82.5 39C82.5 35.69 79.81 33 76.5 33C73.71 33 71.38 34.92 70.71 37.5H61.5V18H67.71C68.38 20.58 70.71 22.5 73.5 22.5C76.81 22.5 79.5 19.81 79.5 16.5C79.5 13.19 76.81 10.5 73.5 10.5C70.71 10.5 68.38 12.42 67.71 15H60C59.17 15 58.5 15.67 58.5 16.5V37.5H48V40.5H58.5V61.5C58.5 62.33 59.17 63 60 63H67.71C68.38 65.58 70.71 67.5 73.5 67.5C76.81 67.5 79.5 64.81 79.5 61.5C79.5 58.19 76.81 55.5 73.5 55.5C70.71 55.5 68.38 57.42 67.71 60H61.5V40.5Z" fill="#7993B0"/>
</svg>
