<svg width="90" height="74" viewBox="0 0 90 74" fill="none" xmlns="http://www.w3.org/2000/svg">
<path fill-rule="evenodd" clip-rule="evenodd" d="M26.8592 42.894L31.6829 38.128C31.9829 37.8279 32.156 37.424 32.156 36.9971C32.156 36.5701 31.9945 36.1662 31.6829 35.8661L26.8592 31.0424L24.5743 33.2927L26.64 35.3584H19.2775V38.5549H26.663L24.5743 40.6206L26.8477 42.8824L26.8592 42.894ZM63.6832 43.044L70.1224 38.2434C70.5263 37.9433 70.7687 37.4702 70.7687 36.9624C70.7687 36.4547 70.5263 35.9815 70.1224 35.6815L63.6832 30.8924L61.756 33.4543L64.3294 35.3699H57.8901V38.5665H64.3179L61.7444 40.4821L63.6832 43.044ZM37.2913 36.974C37.2913 40.3667 36.7028 43.5633 35.6065 46.3444C38.503 45.2366 41.7688 44.6711 45.0231 44.6711C48.2773 44.6711 51.5431 45.225 54.4397 46.3444C53.3434 43.5633 52.7548 40.3667 52.7548 36.974C52.7548 33.5812 53.3434 30.3847 54.4397 27.6035C48.6582 29.8307 41.3995 29.8307 35.6065 27.6035C36.7028 30.3847 37.2913 33.5812 37.2913 36.974ZM29.4095 52.4837C29.098 52.1721 28.9364 51.7682 28.9364 51.3527C28.9364 50.9373 29.098 50.5334 29.4095 50.2218C32.3291 47.3253 34.0717 42.3631 34.0717 36.974C34.0717 31.5848 32.3291 26.6226 29.4095 23.7261C29.098 23.4145 28.9364 23.0106 28.9364 22.5952C28.9364 22.1798 29.098 21.7759 29.4095 21.4643C30.0327 20.8411 31.0597 20.8411 31.6829 21.4643C37.9145 27.6612 52.1317 27.6612 58.3632 21.4643C58.9864 20.8411 60.0135 20.8411 60.6366 21.4643C60.9482 21.7759 61.1097 22.1798 61.1097 22.5952C61.1097 23.0106 60.9482 23.4145 60.6366 23.7261C57.717 26.6226 55.9745 31.5848 55.9745 36.974C55.9745 42.3631 57.717 47.3253 60.6366 50.2218C60.9482 50.5334 61.1097 50.9373 61.1097 51.3527C61.1097 51.7682 60.9482 52.1721 60.6366 52.4837C60.325 52.7952 59.9096 52.9568 59.4942 52.9568C59.0787 52.9568 58.6748 52.7952 58.3517 52.4837C52.1201 46.2867 37.9029 46.2867 31.6714 52.4837C31.0482 53.1068 30.0212 53.1068 29.398 52.4837H29.4095ZM86.7861 36.974C86.7861 35.4853 86.1976 34.089 85.1474 33.0273C84.0512 31.9426 82.6202 31.4002 81.1777 31.4002C79.7352 31.4002 78.3043 31.9426 77.208 33.0273C75.0154 35.1968 75.0154 38.7396 77.208 40.9091C79.4006 43.0786 82.9549 43.0786 85.1474 40.9091C86.2091 39.859 86.7861 38.4511 86.7861 36.9624V36.974ZM87.4208 43.1709C85.7014 44.8788 83.4395 45.7328 81.1777 45.7328C78.9159 45.7328 76.6541 44.8788 74.9346 43.1709C71.4957 39.7551 71.4957 34.1813 74.9346 30.7655C78.3735 27.3381 83.9819 27.3497 87.4208 30.7655C90.8597 34.1813 90.8597 39.7551 87.4208 43.1709ZM14.4307 37.0086C14.4307 35.5199 13.8422 34.1236 12.792 33.0619C11.7303 32.0118 10.3225 31.4233 8.82228 31.4233C7.32209 31.4233 5.91422 32.0003 4.85254 33.0619C3.79087 34.1121 3.21387 35.5199 3.21387 37.0086C3.21387 38.4972 3.79087 39.8936 4.85254 40.9553C6.97589 43.0555 10.6687 43.0555 12.792 40.9553C13.8537 39.9051 14.4307 38.4972 14.4307 37.0086ZM15.0654 43.2055C13.3459 44.9134 11.0841 45.7674 8.82228 45.7674C6.56046 45.7674 4.29863 44.9134 2.57918 43.2055C-0.859725 39.7897 -0.859725 34.2159 2.57918 30.8001C6.01808 27.3843 11.6265 27.3843 15.0654 30.8001C18.5043 34.2159 18.5043 39.7897 15.0654 43.2055ZM68.9454 60.8386C62.5292 67.2202 53.9896 70.7283 44.9077 70.7283C35.8257 70.7283 27.2862 67.2202 20.87 60.8386C16.4617 56.4649 14.0383 51.2373 12.7805 47.6253L9.74548 48.6755C11.1187 52.6106 13.7614 58.2998 18.5966 63.1004C25.6244 70.0821 34.9718 73.9364 44.9077 73.9364C54.8436 73.9364 64.1909 70.0936 71.2187 63.1004C75.2808 59.073 78.512 53.9377 80.3353 48.6639L77.2888 47.6253C75.627 52.449 72.6612 57.1458 68.9454 60.8386ZM12.7689 26.3111L9.73394 25.2609C11.6842 19.6987 14.8231 14.5634 18.5966 10.8245C25.6244 3.8428 34.9602 0 44.9077 0C54.8551 0 64.1909 3.8428 71.2072 10.8245C75.1769 14.7596 78.5004 20.0218 80.3238 25.2609L77.2888 26.3111C75.6155 21.522 72.5689 16.6983 68.9338 13.0863C62.5176 6.70471 53.9781 3.19656 44.9077 3.19656C35.8373 3.19656 27.2977 6.70471 20.87 13.0863C17.4426 16.4906 14.5692 21.1873 12.7689 26.3111Z" fill="#7993B0"/>
</svg>
