<svg width="102" height="102" viewBox="0 0 102 102" fill="none" xmlns="http://www.w3.org/2000/svg">
<path fill-rule="evenodd" clip-rule="evenodd" d="M35.9795 55.5492L40.1065 51.4882C40.3632 51.2326 40.5113 50.8884 40.5113 50.5246C40.5113 50.1608 40.3731 49.8166 40.1065 49.5609L35.9795 45.4508L34.0247 47.3682L35.792 49.1283H29.4929V51.852H35.8117L34.0247 53.6121L35.9697 55.5394L35.9795 55.5492ZM67.4845 55.6771L72.9936 51.5865C73.3392 51.3309 73.5465 50.9277 73.5465 50.4951C73.5465 50.0624 73.3392 49.6593 72.9936 49.4036L67.4845 45.3229L65.8357 47.5059L68.0374 49.1381H62.5282V51.8619H68.0275L65.8258 53.4941L67.4845 55.6771ZM44.9048 50.5049C44.9048 53.3958 44.4013 56.1196 43.4633 58.4893C45.9415 57.5453 48.7355 57.0635 51.5197 57.0635C54.3039 57.0635 57.098 57.5355 59.5762 58.4893C58.6382 56.1196 58.1347 53.3958 58.1347 50.5049C58.1347 47.614 58.6382 44.8903 59.5762 42.5205C54.6298 44.4183 48.4196 44.4183 43.4633 42.5205C44.4013 44.8903 44.9048 47.614 44.9048 50.5049ZM38.1615 63.7205C37.8949 63.455 37.7567 63.1108 37.7567 62.7568C37.7567 62.4028 37.8949 62.0587 38.1615 61.7932C40.6594 59.3251 42.1502 55.0969 42.1502 50.5049C42.1502 45.9129 40.6594 41.6847 38.1615 39.2166C37.8949 38.9511 37.7567 38.607 37.7567 38.253C37.7567 37.899 37.8949 37.5549 38.1615 37.2894C38.6946 36.7584 39.5733 36.7584 40.1065 37.2894C45.4379 42.5697 57.6015 42.5697 62.933 37.2894C63.4661 36.7584 64.3448 36.7584 64.878 37.2894C65.1446 37.5549 65.2828 37.899 65.2828 38.253C65.2828 38.607 65.1446 38.9511 64.878 39.2166C62.3801 41.6847 60.8893 45.9129 60.8893 50.5049C60.8893 55.0969 62.3801 59.3251 64.878 61.7932C65.1446 62.0587 65.2828 62.4028 65.2828 62.7568C65.2828 63.1108 65.1446 63.455 64.878 63.7205C64.6114 63.986 64.256 64.1236 63.9006 64.1236C63.5451 64.1236 63.1996 63.986 62.9231 63.7205C57.5917 58.4401 45.4281 58.4401 40.0966 63.7205C39.5635 64.2514 38.6848 64.2514 38.1516 63.7205H38.1615ZM87.2503 50.5049C87.2503 49.2365 86.7468 48.0467 85.8484 47.142C84.9104 46.2177 83.6862 45.7556 82.452 45.7556C81.2179 45.7556 79.9937 46.2177 79.0557 47.142C77.1798 48.9906 77.1798 52.0094 79.0557 53.858C80.9316 55.7066 83.9725 55.7066 85.8484 53.858C86.7567 52.9632 87.2503 51.7635 87.2503 50.4951V50.5049ZM87.7934 55.7852C86.3223 57.2405 84.3872 57.9682 82.452 57.9682C80.5169 57.9682 78.5818 57.2405 77.1107 55.7852C74.1685 52.8747 74.1685 48.1253 77.1107 45.2148C80.0529 42.2944 84.8512 42.3042 87.7934 45.2148C90.7355 48.1253 90.7355 52.8747 87.7934 55.7852ZM25.3463 50.5344C25.3463 49.266 24.8427 48.0762 23.9443 47.1715C23.036 46.2767 21.8315 45.7752 20.548 45.7752C19.2645 45.7752 18.0599 46.2669 17.1516 47.1715C16.2433 48.0663 15.7496 49.266 15.7496 50.5344C15.7496 51.8029 16.2433 52.9927 17.1516 53.8973C18.9683 55.6869 22.1276 55.6869 23.9443 53.8973C24.8526 53.0025 25.3463 51.8029 25.3463 50.5344ZM25.8893 55.8147C24.4182 57.27 22.4831 57.9977 20.548 57.9977C18.6128 57.9977 16.6777 57.27 15.2066 55.8147C12.2645 52.9042 12.2645 48.1548 15.2066 45.2443C18.1488 42.3337 22.9471 42.3337 25.8893 45.2443C28.8315 48.1548 28.8315 52.9042 25.8893 55.8147ZM71.9866 70.8396C66.4972 76.2772 59.1911 79.2664 51.421 79.2664C43.6509 79.2664 36.3449 76.2772 30.8554 70.8396C27.0839 67.1128 25.0106 62.6585 23.9344 59.5808L21.3378 60.4756C22.5127 63.8286 24.7736 68.6763 28.9104 72.7668C34.9231 78.7158 42.9203 82 51.421 82C59.9217 82 67.9189 78.7256 73.9316 72.7668C77.4069 69.3351 80.1714 64.9594 81.7313 60.4657L79.1248 59.5808C77.7031 63.691 75.1657 67.693 71.9866 70.8396ZM23.9245 41.4192L21.3279 40.5244C22.9965 35.7849 25.6819 31.4092 28.9104 28.2233C34.9231 22.2744 42.9104 19 51.421 19C59.9316 19 67.9189 22.2744 73.9217 28.2233C77.318 31.5764 80.1615 36.0602 81.7214 40.5244L79.1248 41.4192C77.6932 37.3385 75.0867 33.2283 71.9767 30.1506C66.4873 24.713 59.1812 21.7237 51.421 21.7237C43.6608 21.7237 36.3547 24.713 30.8554 30.1506C27.9231 33.0513 25.4647 37.0534 23.9245 41.4192Z" fill="#7993B0"/>
<path d="M51 101C78.6142 101 101 78.6142 101 51C101 23.3858 78.6142 1 51 1C23.3858 1 1 23.3858 1 51C1 78.6142 23.3858 101 51 101Z" stroke="#7893B0" stroke-width="1.5" stroke-linecap="round" stroke-linejoin="round"/>
</svg>
