<svg width="100" height="100" viewBox="0 0 100 100" fill="none" xmlns="http://www.w3.org/2000/svg">
<path d="M82.2477 65.65C80.9377 64.89 79.5377 64.43 78.1277 64.22C78.1677 64.08 78.1877 63.93 78.1877 63.78V49.36C78.1877 48.38 77.3977 47.6 76.4177 47.6H51.8077V35.16C57.4077 34.31 61.6977 29.49 61.6977 23.65C61.6977 17.21 56.4777 12 50.0377 12C43.5977 12 38.3777 17.22 38.3777 23.65C38.3777 29.49 42.6677 34.3 48.2677 35.16V47.6H23.6577C22.6777 47.6 21.8877 48.39 21.8877 49.36V63.78C21.8877 63.93 21.9177 64.08 21.9477 64.22C20.5377 64.43 19.1377 64.89 17.8277 65.65C12.2577 68.87 10.3477 75.99 13.5577 81.57C16.7777 87.14 23.8977 89.05 29.4777 85.84C35.0477 82.62 36.9577 75.5 33.7477 69.92C31.8977 66.72 28.7577 64.73 25.3577 64.23C25.3977 64.09 25.4177 63.94 25.4177 63.79V51.13H50.0377H74.6577V63.79C74.6577 63.94 74.6877 64.09 74.7177 64.23C71.3177 64.73 68.1777 66.72 66.3277 69.92C63.1077 75.49 65.0177 82.62 70.5977 85.84C76.1677 89.06 83.2977 87.15 86.5177 81.57C89.7277 76 87.8177 68.87 82.2477 65.65Z" fill="#7893B0"/>
</svg>
