<svg width="60" height="60" viewBox="0 0 60 60" fill="none" xmlns="http://www.w3.org/2000/svg">
<g clip-path="url(#clip0_8533_25662)">
<path d="M41.4299 55.71H13.9399L36.7999 10H18.5699V4.29004H46.0599L23.1999 50H41.4299V55.71Z" fill="#687E91"/>
<path d="M41.43 59.9997C45.3734 59.9997 48.57 56.803 48.57 52.8597C48.57 48.9164 45.3734 45.7197 41.43 45.7197C37.4867 45.7197 34.29 48.9164 34.29 52.8597C34.29 56.803 37.4867 59.9997 41.43 59.9997Z" fill="#7993B0"/>
<path d="M18.5699 59.9997C22.5132 59.9997 25.7099 56.803 25.7099 52.8597C25.7099 48.9164 22.5132 45.7197 18.5699 45.7197C14.6266 45.7197 11.4299 48.9164 11.4299 52.8597C11.4299 56.803 14.6266 59.9997 18.5699 59.9997Z" fill="#7993B0"/>
<path d="M52.8499 27.1396H7.13989V32.8496H52.8499V27.1396Z" fill="#687E91"/>
<path d="M30.0001 37.1404C33.9434 37.1404 37.1401 33.9437 37.1401 30.0004C37.1401 26.057 33.9434 22.8604 30.0001 22.8604C26.0568 22.8604 22.8601 26.057 22.8601 30.0004C22.8601 33.9437 26.0568 37.1404 30.0001 37.1404Z" fill="#7993B0"/>
<path d="M7.14 37.1404C11.0833 37.1404 14.28 33.9437 14.28 30.0004C14.28 26.057 11.0833 22.8604 7.14 22.8604C3.19669 22.8604 0 26.057 0 30.0004C0 33.9437 3.19669 37.1404 7.14 37.1404Z" fill="#7993B0"/>
<path d="M52.86 37.1404C56.8033 37.1404 60 33.9437 60 30.0004C60 26.057 56.8033 22.8604 52.86 22.8604C48.9167 22.8604 45.72 26.057 45.72 30.0004C45.72 33.9437 48.9167 37.1404 52.86 37.1404Z" fill="#7993B0"/>
<path d="M41.43 14.28C45.3734 14.28 48.57 11.0833 48.57 7.14C48.57 3.19669 45.3734 0 41.43 0C37.4867 0 34.29 3.19669 34.29 7.14C34.29 11.0833 37.4867 14.28 41.43 14.28Z" fill="#7993B0"/>
<path d="M18.5699 14.28C22.5132 14.28 25.7099 11.0833 25.7099 7.14C25.7099 3.19669 22.5132 0 18.5699 0C14.6266 0 11.4299 3.19669 11.4299 7.14C11.4299 11.0833 14.6266 14.28 18.5699 14.28Z" fill="#7993B0"/>
</g>
<defs>
<clipPath id="clip0_8533_25662">
<rect width="60" height="60" fill="white"/>
</clipPath>
</defs>
</svg>
