<svg width="102" height="102" viewBox="0 0 102 102" fill="none" xmlns="http://www.w3.org/2000/svg">
<path d="M51 101C78.6142 101 101 78.6142 101 51C101 23.3858 78.6142 1 51 1C23.3858 1 1 23.3858 1 51C1 78.6142 23.3858 101 51 101Z" stroke="#7893B0" stroke-width="1.5" stroke-linecap="round" stroke-linejoin="round"/>
<g clip-path="url(#clip0_8632_25721)">
<path d="M59.7629 74.2101H38.6873L56.2133 33.8329H42.2369V28.7891H63.3126L45.7866 69.1662H59.7629V74.2101Z" fill="#687E91"/>
<path d="M59.7631 77.9997C62.7863 77.9997 65.2371 75.176 65.2371 71.6927C65.2371 68.2095 62.7863 65.3857 59.7631 65.3857C56.7399 65.3857 54.2891 68.2095 54.2891 71.6927C54.2891 75.176 56.7399 77.9997 59.7631 77.9997Z" fill="#7993B0"/>
<path d="M42.2369 77.9997C45.2601 77.9997 47.7109 75.176 47.7109 71.6927C47.7109 68.2095 45.2601 65.3857 42.2369 65.3857C39.2137 65.3857 36.7629 68.2095 36.7629 71.6927C36.7629 75.176 39.2137 77.9997 42.2369 77.9997Z" fill="#7993B0"/>
<path d="M68.5185 48.9736H33.4741V54.0175H68.5185V48.9736Z" fill="#687E91"/>
<path d="M50.9999 57.8074C54.0231 57.8074 56.4739 54.9836 56.4739 51.5004C56.4739 48.0171 54.0231 45.1934 50.9999 45.1934C47.9767 45.1934 45.5259 48.0171 45.5259 51.5004C45.5259 54.9836 47.9767 57.8074 50.9999 57.8074Z" fill="#7993B0"/>
<path d="M33.474 57.8074C36.4972 57.8074 38.948 54.9836 38.948 51.5004C38.948 48.0171 36.4972 45.1934 33.474 45.1934C30.4508 45.1934 28 48.0171 28 51.5004C28 54.9836 30.4508 57.8074 33.474 57.8074Z" fill="#7993B0"/>
<path d="M68.526 57.8074C71.5492 57.8074 74 54.9836 74 51.5004C74 48.0171 71.5492 45.1934 68.526 45.1934C65.5028 45.1934 63.052 48.0171 63.052 51.5004C63.052 54.9836 65.5028 57.8074 68.526 57.8074Z" fill="#7993B0"/>
<path d="M59.7631 37.614C62.7863 37.614 65.2371 34.7903 65.2371 31.307C65.2371 27.8237 62.7863 25 59.7631 25C56.7399 25 54.2891 27.8237 54.2891 31.307C54.2891 34.7903 56.7399 37.614 59.7631 37.614Z" fill="#7993B0"/>
<path d="M42.2369 37.614C45.2601 37.614 47.7109 34.7903 47.7109 31.307C47.7109 27.8237 45.2601 25 42.2369 25C39.2137 25 36.7629 27.8237 36.7629 31.307C36.7629 34.7903 39.2137 37.614 42.2369 37.614Z" fill="#7993B0"/>
</g>
<defs>
<clipPath id="clip0_8632_25721">
<rect width="46" height="53" fill="white" transform="translate(28 25)"/>
</clipPath>
</defs>
</svg>
