<svg width="60" height="78" viewBox="0 0 60 78" fill="none" xmlns="http://www.w3.org/2000/svg">
<path fill-rule="evenodd" clip-rule="evenodd" d="M23.49 60.94H51.41V57.39H23.49V60.94ZM23.49 39.22H51.41V35.67H23.49V39.22ZM23.49 17.5H51.41V13.95H23.49V17.5ZM11.3 62.04H17.06V56.28H11.3V62.04ZM9.53 65.59H18.84C19.82 65.59 20.61 64.8 20.61 63.82V54.51C20.61 53.53 19.82 52.74 18.84 52.74H9.53C8.55 52.74 7.76 53.53 7.76 54.51V63.82C7.76 64.8 8.55 65.59 9.53 65.59ZM11.3 40.33H17.06V34.57H11.3V40.33ZM9.53 43.88H18.84C19.82 43.88 20.61 43.09 20.61 42.11V32.8C20.61 31.82 19.82 31.03 18.84 31.03H9.53C8.55 31.03 7.76 31.82 7.76 32.8V42.11C7.76 43.09 8.55 43.88 9.53 43.88ZM11.3 18.62H17.06V12.86H11.3V18.62ZM9.53 22.17H18.84C19.82 22.17 20.61 21.38 20.61 20.4V11.09C20.61 10.11 19.82 9.32 18.84 9.32H9.53C8.55 9.32 7.76 10.11 7.76 11.09V20.4C7.76 21.38 8.55 22.17 9.53 22.17ZM3.55 74.47H55.85V3.55H3.55V74.46V74.47ZM57.61 0H1.77C0.79 0 0 0.79 0 1.77V76.22C0 77.2 0.79 77.99 1.77 77.99H57.61C58.59 77.99 59.38 77.2 59.38 76.22V1.77C59.38 0.79 58.59 0 57.61 0Z" fill="#7993B0"/>
</svg>
