<svg width="100" height="100" viewBox="0 0 100 100" fill="none" xmlns="http://www.w3.org/2000/svg">
<path d="M49.0698 48.48V2L89.0198 21.64V48.48H83.2098V32.25L60.0498 24.81V48.48H49.0698Z" fill="#7993B0"/>
<path d="M83.21 48.48V32.25L70.25 33.29V48.91L83.21 48.48Z" fill="#5F7B9A"/>
<path d="M60.0498 24.8096L83.2098 32.2496L70.2498 33.2896L60.0498 31.1996V24.8096Z" fill="#4B6687"/>
<path d="M28.8999 48.91L49.0699 48.48V2L28.8999 12.77V48.91Z" fill="#5F7B9A"/>
<path d="M89.0198 57.6904V76.7504L49.0698 97.0004V63.9804L89.0198 57.6904Z" fill="#7993B0"/>
<path d="M28.8999 86.1302L49.0699 97.0002V63.9802L28.8999 60.9102V86.1302Z" fill="#5F7B9A"/>
<path d="M28.8999 60.9104L49.0699 63.9804L89.0199 57.6904H65.4899L28.8999 60.9104Z" fill="#91ADC6"/>
<path d="M11 49.5402L21.46 49.3202V16.9102L11 22.4902V49.5402Z" fill="#5F7B9A"/>
<path d="M21.46 49.3202V16.9102L28.9 18.5302V48.9102L21.46 49.3202Z" fill="#7894B0"/>
<path d="M11 77.3998L21.46 83.0398V59.6698L11 58.0898V77.3998Z" fill="#5F7B9A"/>
<path d="M11 58.0902L21.46 59.6702L59.34 56.4102H47.13L11 58.0902Z" fill="#91ADC6"/>
<path d="M21.46 83.0402V59.6702L59.34 56.4102V58.2302L28.9 60.9102V81.4102L21.46 83.0402Z" fill="#7894B0"/>
</svg>
