<svg width="102" height="102" viewBox="0 0 102 102" fill="none" xmlns="http://www.w3.org/2000/svg">
<path d="M51 101C78.6142 101 101 78.6142 101 51C101 23.3858 78.6142 1 51 1C23.3858 1 1 23.3858 1 51C1 78.6142 23.3858 101 51 101Z" stroke="#7893B0" stroke-width="1.5" stroke-linecap="round" stroke-linejoin="round"/>
<path d="M50.46 50.18V13L82.42 28.71V50.18H77.77V37.2L59.24 31.25V50.19H50.46V50.18Z" fill="#7993B0"/>
<path d="M77.7699 50.1802V37.2002L67.3999 38.0302V50.5302L77.7699 50.1902V50.1802Z" fill="#5F7B9A"/>
<path d="M59.2402 31.25L77.7702 37.2L67.4002 38.03L59.2402 36.36V31.25Z" fill="#4B6687"/>
<path d="M34.3198 50.53L50.4598 50.19V13L34.3198 21.62V50.53Z" fill="#5F7B9A"/>
<path d="M82.42 57.5498V72.7998L50.46 88.9998V62.5798L82.42 57.5498Z" fill="#7993B0"/>
<path d="M34.3198 80.3001L50.4598 89.0001V62.5801L34.3198 60.1201V80.3001Z" fill="#5F7B9A"/>
<path d="M34.3198 60.1296L50.4598 62.5896L82.4198 57.5596H63.5998L34.3298 60.1396L34.3198 60.1296Z" fill="#91ADC6"/>
<path d="M20 51.0297L28.37 50.8497V24.9297L20 29.3897V51.0297Z" fill="#5F7B9A"/>
<path d="M28.3701 50.8597V24.9297L34.3201 26.2297V50.5297L28.3701 50.8597Z" fill="#7894B0"/>
<path d="M20 73.3201L28.37 77.8301V59.1301L20 57.8701V73.3201Z" fill="#5F7B9A"/>
<path d="M20 57.8695L28.37 59.1295L58.67 56.5195H48.9L20 57.8695Z" fill="#91ADC6"/>
<path d="M28.3701 77.8295V59.1295L58.6701 56.5195V57.9795L34.3201 60.1195V76.5195L28.3701 77.8195V77.8295Z" fill="#7894B0"/>
</svg>
