<svg width="32" height="32" viewBox="0 0 32 32" fill="none" xmlns="http://www.w3.org/2000/svg">
<path d="M27.55 28.63H5.06003C3.33003 28.63 2.25003 26.75 3.11003 25.26L14.36 5.75C15.23 4.25 17.39 4.25 18.26 5.75L29.51 25.25C30.38 26.75 29.29 28.62 27.56 28.62L27.55 28.63ZM14.15 23.38C14.15 24.57 15.12 25.54 16.31 25.54C17.5 25.54 18.47 24.57 18.47 23.38C18.47 22.19 17.5 21.22 16.31 21.22C15.12 21.22 14.15 22.19 14.15 23.38ZM14.61 19.85C14.63 20.15 14.87 20.38 15.17 20.38H17.45C17.75 20.38 18 20.15 18.01 19.85L18.36 13.47C18.38 13.15 18.12 12.88 17.8 12.88H14.83C14.51 12.88 14.25 13.15 14.27 13.47L14.62 19.85H14.61Z" fill="#7893B0"/>
<path d="M5.84994 17.29C7.04288 17.29 8.00994 16.3229 8.00994 15.13C8.00994 13.937 7.04288 12.97 5.84994 12.97C4.65701 12.97 3.68994 13.937 3.68994 15.13C3.68994 16.3229 4.65701 17.29 5.84994 17.29Z" fill="#29ABE2"/>
<path d="M4.16005 11.5999C4.18005 11.8999 4.42005 12.1299 4.72005 12.1299H7.00005C7.30005 12.1299 7.55005 11.8999 7.56005 11.5999L7.91005 5.21988C7.93005 4.89988 7.67005 4.62988 7.35005 4.62988H4.38005C4.06005 4.62988 3.80005 4.89988 3.82005 5.21988L4.17005 11.5999H4.16005Z" fill="#29ABE2"/>
</svg>
