<svg width="32" height="32" viewBox="0 0 32 32" fill="none" xmlns="http://www.w3.org/2000/svg">
<path d="M25.11 12.9601C25.11 16.6001 23.9 17.6601 16.92 27.6801C16.46 28.2901 15.55 28.2901 15.1 27.6801C8.12003 17.6601 6.91003 16.6001 6.91003 12.9601C6.91003 7.9501 11.01 3.8501 16.02 3.8501C21.03 3.8501 25.13 7.9501 25.13 12.9601H25.11ZM17.82 8.4801C17.86 8.0301 17.51 7.6501 17.07 7.6501H14.95C14.5 7.6501 14.15 8.0401 14.2 8.4801L14.81 14.5501C14.85 14.9401 15.18 15.2301 15.56 15.2301H16.46C16.85 15.2301 17.18 14.9301 17.21 14.5501L17.82 8.4801ZM17.52 18.2701C17.52 17.4301 16.84 16.7501 16 16.7501C15.16 16.7501 14.48 17.4301 14.48 18.2701C14.48 19.1101 15.16 19.7901 16 19.7901C16.84 19.7901 17.52 19.1101 17.52 18.2701Z" fill="#29ABE2"/>
</svg>
