<svg width="32" height="32" viewBox="0 0 32 32" fill="none" xmlns="http://www.w3.org/2000/svg">
<path d="M20.37 27.13C20.25 27.62 19.83 28 19.3 28H3.54004C2.92004 28 2.42004 27.5 2.42004 26.88V5.13001C2.42004 4.51001 2.92004 4.01001 3.54004 4.01001H12.92V10.39C12.92 11.01 13.43 11.51 14.04 11.51H20.42V19.08L17.23 22.27C17.08 22.42 16.99 22.6 16.95 22.81L16.45 25.69C16.36 26.19 16.52 26.71 16.88 27.07C17.18 27.37 17.58 27.53 18 27.53C18.09 27.53 18.18 27.53 18.27 27.51L20.38 27.14L20.37 27.13ZM11.14 7.00001C11.14 6.72001 10.92 6.50001 10.64 6.50001H4.93004C4.65004 6.50001 4.43004 6.72001 4.43004 7.00001C4.43004 7.28001 4.65004 7.50001 4.93004 7.50001H10.64C10.92 7.50001 11.14 7.28001 11.14 7.00001ZM11.14 10C11.14 9.72001 10.92 9.50001 10.64 9.50001H4.93004C4.65004 9.50001 4.43004 9.72001 4.43004 10C4.43004 10.28 4.65004 10.5 4.93004 10.5H10.64C10.92 10.5 11.14 10.28 11.14 10ZM8.28004 13C8.28004 12.72 8.06004 12.5 7.78004 12.5H4.92004C4.64004 12.5 4.42004 12.72 4.42004 13C4.42004 13.28 4.64004 13.5 4.92004 13.5H7.78004C8.06004 13.5 8.28004 13.28 8.28004 13ZM18.69 16C18.69 15.72 18.47 15.5 18.19 15.5H4.92004C4.64004 15.5 4.42004 15.72 4.42004 16C4.42004 16.28 4.64004 16.5 4.92004 16.5H18.18C18.46 16.5 18.68 16.28 18.68 16H18.69ZM15.9 22C15.9 21.72 15.68 21.5 15.4 21.5H4.92004C4.64004 21.5 4.42004 21.72 4.42004 22C4.42004 22.28 4.64004 22.5 4.92004 22.5H15.39C15.67 22.5 15.89 22.28 15.89 22H15.9ZM14.92 25C14.92 24.72 14.7 24.5 14.42 24.5H4.92004C4.64004 24.5 4.42004 24.72 4.42004 25C4.42004 25.28 4.64004 25.5 4.92004 25.5H14.42C14.7 25.5 14.92 25.28 14.92 25ZM14 19C14 18.4 13.52 17.92 12.92 17.92H5.59004C4.99004 17.92 4.51004 18.4 4.51004 19C4.51004 19.6 4.99004 20.08 5.59004 20.08H12.92C13.52 20.08 14 19.6 14 19ZM18.69 19C18.69 18.72 18.47 18.5 18.19 18.5H15.82C15.54 18.5 15.32 18.72 15.32 19C15.32 19.28 15.54 19.5 15.82 19.5H18.19C18.47 19.5 18.69 19.28 18.69 19ZM18.75 13C18.75 12.4 18.27 11.92 17.67 11.92H10.34C9.74004 11.92 9.26004 12.4 9.26004 13C9.26004 13.6 9.74004 14.08 10.34 14.08H17.67C18.27 14.08 18.75 13.6 18.75 13Z" fill="#7893B0"/>
<path d="M20.42 9.71C20.42 9.45 20.27 9.1 20.09 8.92L15.5 4.33C15.32 4.15 14.96 4 14.71 4H14.42V10H20.42V9.71Z" fill="#7893B0"/>
<path d="M24.58 16.7301L27.22 19.3701C27.33 19.4801 27.33 19.6601 27.22 19.7701L20.98 26.0101L18.09 26.5201C17.7 26.5901 17.36 26.2501 17.43 25.8601L17.93 22.9701L24.17 16.7301C24.28 16.6201 24.46 16.6201 24.58 16.7301ZM19.51 23.2901H18.65L18.38 24.8201L19.12 25.5601L20.65 25.2901V24.4301H19.51V23.2901ZM28.15 18.8301C28.04 18.9401 27.86 18.9401 27.75 18.8301L25.11 16.1901C25 16.0801 25 15.9001 25.11 15.7901L26.21 14.6901C26.65 14.2501 27.38 14.2501 27.82 14.6901L29.25 16.1201C29.7 16.5601 29.7 17.2901 29.25 17.7301L28.15 18.8301Z" fill="#29ABE2"/>
</svg>
