<svg width="32" height="32" viewBox="0 0 32 32" fill="none" xmlns="http://www.w3.org/2000/svg">
<path d="M11.83 15.77C11.75 15.7 11.67 15.62 11.6 15.54V20.68C13.12 21.16 14.22 22.58 14.22 24.26C14.22 26.33 12.54 28.01 10.47 28.01C8.39997 28.01 6.71997 26.33 6.71997 24.26C6.71997 22.58 7.81997 21.16 9.33997 20.68V11.34C7.81997 10.86 6.71997 9.44001 6.71997 7.76001C6.71997 5.69001 8.39997 4.01001 10.47 4.01001C12.54 4.01001 14.22 5.69001 14.22 7.76001C14.22 9.36001 13.22 10.73 11.81 11.27L11.83 15.78V15.77ZM9.71997 7.75001C9.71997 8.16001 10.06 8.50001 10.47 8.50001C10.88 8.50001 11.22 8.16001 11.22 7.75001C11.22 7.34001 10.88 7.00001 10.47 7.00001C10.06 7.00001 9.71997 7.34001 9.71997 7.75001ZM11.22 24.25C11.22 23.84 10.88 23.5 10.47 23.5C10.06 23.5 9.71997 23.84 9.71997 24.25C9.71997 24.66 10.06 25 10.47 25C10.88 25 11.22 24.66 11.22 24.25Z" fill="#7893B0"/>
<path d="M11.81 14.25C12.08 15.43 12.61 16.39 13.39 17.14C14.6 18.3 16.2 18.74 17.32 18.9C17.7 17.24 19.19 15.99 20.97 15.99C23.04 15.99 24.72 17.67 24.72 19.74C24.72 21.81 23.04 23.49 20.97 23.49C19.41 23.49 18.08 22.54 17.51 21.18C16.07 21.03 13.67 20.51 11.83 18.75L11.6 18.5V15.52L11.81 14.24V14.25ZM21.72 19.74C21.72 19.33 21.38 18.99 20.97 18.99C20.56 18.99 20.22 19.33 20.22 19.74C20.22 20.15 20.56 20.49 20.97 20.49C21.38 20.49 21.72 20.15 21.72 19.74Z" fill="#29ABE2"/>
<path d="M25.28 7.61C25.28 10.33 22.34 10.38 22.34 11.38V11.52C22.34 11.83 22.09 12.08 21.78 12.08H20.08C19.77 12.08 19.52 11.83 19.52 11.52V11.29C19.52 9.84 20.62 9.26 21.45 8.79C22.16 8.39 22.6 8.12 22.6 7.59C22.6 6.89 21.71 6.42 20.98 6.42C20.06 6.42 19.62 6.84 19.04 7.58C18.85 7.82 18.5 7.86 18.26 7.68L17.25 6.91C17.01 6.73 16.96 6.39 17.13 6.14C18.08 4.77 19.3 4 21.17 4C23.16 4 25.29 5.56 25.29 7.61H25.28ZM22.09 13.94C22.09 14.58 21.57 15.1 20.93 15.1C20.29 15.1 19.77 14.58 19.77 13.94C19.77 13.3 20.29 12.78 20.93 12.78C21.57 12.78 22.09 13.3 22.09 13.94Z" fill="#29ABE2"/>
</svg>
