<svg width="32" height="32" viewBox="0 0 32 32" fill="none" xmlns="http://www.w3.org/2000/svg">
<path d="M19 25.86V26.87C19 27.49 18.5 27.99 17.88 27.99H2.12C1.5 27.99 1 27.49 1 26.87V5.12C1 4.5 1.5 4 2.12 4H11.5V10.38C11.5 11 12.01 11.5 12.62 11.5H19V12.14C16.36 13.3 14.5 15.94 14.5 19C14.5 22.06 16.36 24.7 19 25.86ZM6.69 21.91C6.96 21.91 7.22 21.88 7.47 21.84L8.04 22.48C8.13 22.59 8.32 22.67 8.47 22.67H9.35V23.62C9.35 23.93 9.61 24.19 9.92 24.19H10.87V25.14C10.87 25.45 11.13 25.71 11.44 25.71H14.1C14.41 25.71 14.67 25.45 14.67 25.14V23.29C14.67 23.14 14.61 22.99 14.5 22.89L10.66 19.05C10.8 18.64 10.87 18.2 10.87 17.74C10.87 15.43 9 13.56 6.69 13.56C4.38 13.56 2.51 15.43 2.51 17.74C2.51 20.05 4.38 21.92 6.69 21.92V21.91ZM6.69 16.59C6.69 15.96 6.18 15.45 5.55 15.45C4.92 15.45 4.41 15.96 4.41 16.59C4.41 17.22 4.92 17.73 5.55 17.73C6.18 17.73 6.69 17.22 6.69 16.59ZM19 10H13V4H13.29C13.55 4 13.9 4.15 14.08 4.33L18.67 8.92C18.85 9.1 19 9.46 19 9.71V10Z" fill="#7893B0"/>
<path d="M31 26.19C31 26.36 30.9 26.6 30.78 26.72L29.72 27.78C29.6 27.9 29.36 28 29.19 28C29.02 28 28.78 27.9 28.66 27.78L25.03 24.15C24.14 24.68 23.11 25 22 25C18.69 25 16 22.31 16 19C16 15.69 18.69 13 22 13C25.31 13 28 15.69 28 19C28 19.9 27.62 21.26 27.15 22.03L30.78 25.66C30.9 25.78 31 26.02 31 26.19ZM25 19C25 17.34 23.66 16 22 16C20.34 16 19 17.34 19 19C19 20.66 20.34 22 22 22C23.66 22 25 20.66 25 19Z" fill="#29ABE2"/>
</svg>
