<svg width="283" height="312" viewBox="0 0 283 312" fill="none" xmlns="http://www.w3.org/2000/svg">
<path opacity="0.1" d="M85.08 87.77C76.95 94.71 66.13 96.44 56.68 93.28C51.98 100.14 48.26 107.5 45.52 115.15C53.62 120.95 58.57 130.72 57.73 141.38C56.89 152.03 50.46 160.91 41.54 165.36C43.03 173.35 45.56 181.2 49.11 188.71C58.94 187.08 69.35 190.49 76.29 198.62C83.23 206.75 84.96 217.57 81.8 227.02C88.66 231.72 96.02 235.44 103.67 238.18C109.47 230.08 119.24 225.13 129.9 225.97C140.55 226.81 149.43 233.24 153.88 242.16C161.87 240.67 169.72 238.14 177.23 234.59C175.6 224.76 179.01 214.35 187.14 207.41C195.27 200.47 206.09 198.74 215.54 201.9C220.24 195.04 223.96 187.68 226.7 180.03C218.6 174.23 213.65 164.46 214.49 153.8C215.33 143.15 221.76 134.27 230.68 129.82C229.19 121.83 226.66 113.98 223.11 106.47C213.28 108.1 202.87 104.69 195.93 96.5601C188.99 88.4301 187.26 77.61 190.42 68.16C183.56 63.46 176.2 59.74 168.55 57C162.75 65.1 152.98 70.0501 142.32 69.2101C131.67 68.3701 122.79 61.94 118.34 53.02C110.35 54.51 102.5 57.0401 94.99 60.5901C96.62 70.4201 93.21 80.83 85.08 87.77ZM175.64 113.86C194.27 135.69 191.67 168.48 169.84 187.11C148.01 205.74 115.22 203.14 96.59 181.31C77.96 159.48 80.56 126.69 102.39 108.06C124.22 89.4301 157.01 92.03 175.64 113.86Z" fill="white"/>
<path opacity="0.1" d="M12.5101 30.77C10.4001 35.36 6.10005 38.26 1.42005 38.78C0.770055 42.66 0.630056 46.56 0.980056 50.38C5.61006 51.26 9.68006 54.4701 11.4401 59.2101C13.2001 63.9501 12.2001 69.0399 9.26005 72.7199C11.4901 75.8499 14.1301 78.72 17.1501 81.24C21.0401 78.59 26.1901 77.9801 30.7901 80.0901C35.3801 82.2001 38.2801 86.5 38.8001 91.18C42.6801 91.83 46.5801 91.97 50.4001 91.62C51.2801 86.99 54.4901 82.92 59.2301 81.16C63.9701 79.4 69.0601 80.4001 72.7401 83.3401C75.8701 81.1101 78.74 78.47 81.26 75.45C78.61 71.56 78.0001 66.41 80.1101 61.81C82.2201 57.22 86.5201 54.32 91.2001 53.8C91.8501 49.92 91.9901 46.02 91.6401 42.2C87.0101 41.32 82.94 38.11 81.18 33.37C79.42 28.63 80.4201 23.54 83.3601 19.86C81.1301 16.73 78.4901 13.8601 75.4701 11.3401C71.5801 13.9901 66.4301 14.6 61.8301 12.49C57.2401 10.38 54.3401 6.07999 53.8201 1.39999C49.9401 0.749995 46.0401 0.610053 42.2201 0.960053C41.3401 5.59005 38.1301 9.66001 33.3901 11.42C28.6501 13.18 23.5601 12.18 19.8801 9.23996C16.7501 11.47 13.8801 14.11 11.3601 17.13C14.0101 21.02 14.6201 26.17 12.5101 30.77ZM56.5701 23.9601C68.9001 29.6301 74.3101 44.22 68.6501 56.55C62.9801 68.88 48.3901 74.29 36.0601 68.63C23.7301 62.96 18.3201 48.37 23.9801 36.04C29.6501 23.71 44.2401 18.3001 56.5701 23.9601Z" fill="#76C9EC"/>
<path opacity="0.1" d="M99.3498 263.17C97.6598 266.84 94.2298 269.16 90.4798 269.58C89.9598 272.68 89.8498 275.8 90.1298 278.86C93.8298 279.56 97.0798 282.13 98.4898 285.92C99.8998 289.71 99.0998 293.78 96.7498 296.72C98.5298 299.22 100.65 301.52 103.06 303.53C106.17 301.41 110.29 300.92 113.96 302.61C117.63 304.3 119.95 307.73 120.37 311.48C123.47 312 126.59 312.11 129.65 311.83C130.35 308.13 132.92 304.88 136.71 303.47C140.5 302.07 144.57 302.86 147.51 305.21C150.01 303.43 152.31 301.31 154.32 298.9C152.2 295.79 151.71 291.67 153.4 288C155.09 284.33 158.52 282.01 162.27 281.59C162.79 278.49 162.9 275.37 162.62 272.31C158.92 271.61 155.67 269.04 154.26 265.25C152.86 261.46 153.65 257.39 156 254.45C154.22 251.95 152.1 249.65 149.69 247.64C146.58 249.76 142.46 250.25 138.79 248.56C135.12 246.87 132.8 243.44 132.38 239.69C129.28 239.17 126.16 239.06 123.1 239.34C122.4 243.04 119.83 246.29 116.04 247.7C112.25 249.1 108.18 248.31 105.24 245.96C102.74 247.74 100.44 249.86 98.4298 252.27C100.55 255.38 101.04 259.5 99.3498 263.17ZM134.57 257.73C144.43 262.26 148.75 273.92 144.22 283.78C139.69 293.64 128.03 297.96 118.17 293.43C108.31 288.9 103.99 277.24 108.52 267.38C113.05 257.52 124.71 253.2 134.57 257.73Z" fill="#76C9EC"/>
<path d="M238.7 107.28C250.83 107.28 260.66 97.4503 260.66 85.3203C260.66 97.4503 270.49 107.28 282.62 107.28C270.49 107.28 260.66 117.11 260.66 129.24C260.66 117.11 250.83 107.28 238.7 107.28Z" fill="white"/>
</svg>
