<svg width="32" height="32" viewBox="0 0 32 32" fill="none" xmlns="http://www.w3.org/2000/svg">
<path d="M27.67 26.34L26.34 27.67C25.9 28.11 25.19 28.11 24.75 27.67L20.08 23C19.87 22.79 19.75 22.5 19.75 22.2V21.44C18.1 22.73 16.01 23.5 13.75 23.5C8.36 23.5 4 19.14 4 13.75C4 8.36 8.36 4 13.75 4C19.14 4 23.5 8.36 23.5 13.75C23.5 16.01 22.73 18.1 21.44 19.75H22.2C22.5 19.75 22.79 19.87 23 20.08L27.67 24.75C28.11 25.19 28.11 25.9 27.67 26.34ZM21.79 12.78C20.22 9.72 17.16 7.82 13.8 7.82C10.44 7.82 7.38 9.72 5.81 12.79C5.66 13.09 5.57 13.47 5.57 13.8C5.57 14.13 5.66 14.51 5.81 14.82C7.38 17.88 10.44 19.78 13.8 19.78C17.16 19.78 20.22 17.88 21.79 14.81C21.94 14.51 22.03 14.13 22.03 13.8C22.03 13.47 21.94 13.09 21.79 12.78Z" fill="#7893B0"/>
<path d="M20.55 13.8C20.55 13.9 20.51 14.05 20.47 14.14C19.2 16.62 16.68 18.3 13.8 18.3C10.92 18.3 8.40005 16.62 7.13005 14.14C7.09005 14.05 7.05005 13.9 7.05005 13.8C7.05005 13.7 7.09005 13.55 7.13005 13.46C8.40005 10.98 10.92 9.30005 13.8 9.30005C16.68 9.30005 19.2 10.98 20.47 13.46C20.51 13.55 20.55 13.7 20.55 13.8ZM13.8 17.17C15.66 17.17 17.17 15.66 17.17 13.8C17.17 11.94 15.66 10.42 13.8 10.42C11.94 10.42 10.43 11.93 10.43 13.79C10.43 15.65 11.94 17.16 13.8 17.16V17.17Z" fill="#29ABE2"/>
<path d="M13.8099 11.55C15.0499 11.55 16.0499 12.56 16.0499 13.79C16.0499 15.02 15.0399 16.03 13.8099 16.03C12.5799 16.03 11.5699 15.02 11.5699 13.79C11.5699 13.62 11.5999 13.36 11.6499 13.2C11.8099 13.32 12.1099 13.42 12.3099 13.42C12.9299 13.42 13.4299 12.92 13.4299 12.3C13.4299 12.1 13.3299 11.8 13.2099 11.64C13.3699 11.59 13.6399 11.55 13.7999 11.55H13.8099Z" fill="#7893B0"/>
</svg>
