<?xml version="1.0" encoding="utf-8"?>
<!-- Generator: Adobe Illustrator 27.8.1, SVG Export Plug-In . SVG Version: 6.00 Build 0)  -->
<svg version="1.1" id="Layer_1" xmlns="http://www.w3.org/2000/svg" xmlns:xlink="http://www.w3.org/1999/xlink" x="0px" y="0px"
	 viewBox="0 0 480 480" enable-background="new 0 0 480 480" xml:space="preserve">
	 	 <style><![CDATA[
#line-glow-2, #squiggle-1 {animation: animation_uno_forward 12000ms linear infinite normal forwards}
#orbit-1 {animation: animation_uno_forward 4000ms linear infinite normal forwards}
#line-glow-1, #highlight-squiggle {animation: animation_uno_backward 12000ms linear infinite normal forwards}
#glows {animation: animation_uno_pulse 2000ms linear infinite normal forwards}

@keyframes animation_uno_forward { 
0% {  
	transform-box: fill-box; transform-origin: center; transform: rotate(0deg)
	} 
		100% {  transform-box: fill-box; transform-origin: center; transform: rotate(360deg)
		}
} 

@keyframes animation_uno_backward { 0% {  
	transform-box: fill-box; transform-origin: center; transform: rotate(360deg)
	} 
		100% {  transform-box: fill-box; transform-origin: center; transform: rotate(0deg)
		}
} 

@keyframes animation_uno_pulse { 
0% {  
	transform-box: fill-box; transform-origin: center; transform: scale(1)
	} 
		50% {  transform-box: fill-box; transform-origin: center; transform: scale(2)
		}
		100% {  transform-box: fill-box; transform-origin: center; transform: scale(1)
		}
} 

]]></style>
<filter  id="AI_GaussianBlur_7">
	<feGaussianBlur  stdDeviation="7"></feGaussianBlur>
</filter>
<g id="bg">
	<circle fill="#151F2B" stroke="#41576D" stroke-width="3.2654" stroke-miterlimit="10" cx="240" cy="240" r="238"/>
</g>
<g id="line-glow-1">
	<g filter="url(#AI_GaussianBlur_7)">
		
			<linearGradient id="SVGID_1_" gradientUnits="userSpaceOnUse" x1="91.6042" y1="244.36" x2="371.6739" y2="244.36" gradientTransform="matrix(1 0 0 -1 0 480)">
			<stop  offset="0" style="stop-color:#00FFFF"/>
			<stop  offset="1" style="stop-color:#FF00FF"/>
		</linearGradient>
		<path fill="none" stroke="url(#SVGID_1_)" stroke-width="8.1635" stroke-linecap="round" stroke-miterlimit="10" d="M368.77,240
			c0,14.86,5.6,28.83,1.24,42.24c-4.51,13.9-19.64,20.24-28.06,31.81c-8.51,11.69-0.93,40.39-12.61,48.89
			c-11.57,8.42-32.77,3.85-46.67,8.37c-13.41,4.36-27.8,6.58-42.67,6.58c-14.86,0-24.97-15.43-38.38-19.79
			c-13.9-4.51-39.49,13.41-51.06,4.99c-11.69-8.51-15.72-28.82-24.22-40.51c-8.42-11.57-29.8-20.6-34.32-34.5
			c-4.36-13.41,27.31-33.22,27.31-48.08s-0.32-24.49,4.04-37.9c4.51-13.9,5.65-25.03,14.07-36.6c8.51-11.69,12.44-24.96,24.12-33.47
			c11.57-8.42,23.97-12.37,37.87-16.88c13.41-4.36,25.7-21.76,40.57-21.76c14.86,0,27,17.88,40.41,22.23
			c13.9,4.51,32.01,0.36,43.58,8.78c11.69,8.51,18.37,23.36,26.88,35.05c8.42,11.57,11.08,25.55,15.59,39.46
			C370.82,212.32,368.77,225.14,368.77,240z"/>
	</g>
</g>
<g id="line-glow-2">
	<g filter="url(#AI_GaussianBlur_7)">
		
			<linearGradient id="SVGID_00000093137995876209868360000007777896478914999485_" gradientUnits="userSpaceOnUse" x1="86.9308" y1="246.2899" x2="390.1351" y2="246.2899" gradientTransform="matrix(1 0 0 -1 0 480)">
			<stop  offset="0" style="stop-color:#00FFFF"/>
			<stop  offset="1" style="stop-color:#FF00FF"/>
		</linearGradient>
		
			<path fill="none" stroke="url(#SVGID_00000093137995876209868360000007777896478914999485_)" stroke-width="8.1635" stroke-linecap="round" stroke-miterlimit="10" d="
			M390.14,240c0,14.86-20.89,27.17-25.25,40.58c-4.51,13.9-16.45,20.5-24.87,32.07c-8.51,11.69-9.34,27.58-21.02,36.08
			c-11.57,8.42-24.98,10.18-38.89,14.7c-13.41,4.36-25.24,14.4-40.11,14.4c-14.86,0-29.65-0.94-43.06-5.29
			c-13.9-4.51-35-0.76-46.57-9.18c-11.69-8.51-26.65-20.99-35.15-32.68c-8.42-11.57-6.21-32.75-10.73-46.65
			c-4.36-13.41-17.56-29.17-17.56-44.03s23.41-27.3,27.76-40.72c4.51-13.9,8.52-26.44,16.94-38.01
			c8.51-11.69,7.67-35.27,19.35-43.78c11.57-8.42,28.42-16.7,42.32-21.22c13.41-4.36,31.83-6.68,46.7-6.68
			c14.86,0,32.62,4.37,46.03,8.73c13.9,4.51,32.34,9.47,43.92,17.89c11.69,8.51,18.76,26.93,27.27,38.62
			c8.42,11.57,13.9,27.2,18.41,41.1C379.98,209.35,390.14,225.14,390.14,240z"/>
	</g>
</g>
<g id="glow-extract">
<g>
		<g>
			<g opacity="0.3">
				<g>
					
						<radialGradient id="SVGID_00000000919452985983086560000003265875353766680249_" cx="240" cy="240" r="238" gradientTransform="matrix(1 0 0 -1 0 480)" gradientUnits="userSpaceOnUse">
						<stop  offset="0.7" style="stop-color:#FFFFFF;stop-opacity:0"/>
						<stop  offset="0.996" style="stop-color:#FFFFFF;stop-opacity:0.3947"/>
						<stop  offset="1" style="stop-color:#FFFFFF;stop-opacity:0.4"/>
					</radialGradient>
					<circle fill="url(#SVGID_00000000919452985983086560000003265875353766680249_)" cx="240" cy="240" r="238"/>
					
						<radialGradient id="SVGID_00000062879871513050020370000003193810850052273327_" cx="240" cy="240" r="238" gradientTransform="matrix(1 0 0 -1 0 480)" gradientUnits="userSpaceOnUse">
						<stop  offset="0" style="stop-color:#FFFFFF;stop-opacity:0"/>
						<stop  offset="1" style="stop-color:#FFFFFF;stop-opacity:0.3"/>
					</radialGradient>
					<circle fill="url(#SVGID_00000062879871513050020370000003193810850052273327_)" cx="240" cy="240" r="238"/>
					
						<radialGradient id="SVGID_00000061459016433689120580000000694274232566986647_" cx="240" cy="240" r="238" gradientTransform="matrix(1 0 0 -1 0 480)" gradientUnits="userSpaceOnUse">
						<stop  offset="0.5277" style="stop-color:#3FA9F5;stop-opacity:0"/>
						<stop  offset="0.9332" style="stop-color:#3FA9F5;stop-opacity:0.8587"/>
						<stop  offset="1" style="stop-color:#3FA9F5"/>
					</radialGradient>
					<circle fill="url(#SVGID_00000061459016433689120580000000694274232566986647_)" cx="240" cy="240" r="238"/>
					
						<radialGradient id="SVGID_00000142875883968753319960000010611740678851505057_" cx="240" cy="240" r="238" gradientTransform="matrix(1 0 0 -1 0 480)" gradientUnits="userSpaceOnUse">
						<stop  offset="0.5319" style="stop-color:#3A495B;stop-opacity:0"/>
						<stop  offset="0.7668" style="stop-color:#384759;stop-opacity:0.5017"/>
						<stop  offset="0.8513" style="stop-color:#314154;stop-opacity:0.6824"/>
						<stop  offset="0.9117" style="stop-color:#26364A;stop-opacity:0.8113"/>
						<stop  offset="0.9601" style="stop-color:#15273C;stop-opacity:0.9147"/>
						<stop  offset="1" style="stop-color:#00142B"/>
					</radialGradient>
					<circle fill="url(#SVGID_00000142875883968753319960000010611740678851505057_)" cx="240" cy="240" r="238"/>
				</g>
			</g>
		</g>
	</g>
	</g>
<g id="glows">

	<g>
		
			<radialGradient id="SVGID_00000021120938098567751460000008599833518606035089_" cx="240" cy="240" r="69.83" gradientTransform="matrix(1 0 0 -1 0 480)" gradientUnits="userSpaceOnUse">
			<stop  offset="0" style="stop-color:#3FA9F5"/>
			<stop  offset="0.2136" style="stop-color:#3FA9F5;stop-opacity:0.8"/>
			<stop  offset="1" style="stop-color:#3FA9F5;stop-opacity:0"/>
		</radialGradient>
		<circle fill="url(#SVGID_00000021120938098567751460000008599833518606035089_)" cx="240" cy="240" r="69.83"/>
	</g>
</g>
<g id="circle-1">
	
		<linearGradient id="SVGID_00000044145706790800271100000004970218934564062868_" gradientUnits="userSpaceOnUse" x1="98.1283" y1="240" x2="381.8717" y2="240" gradientTransform="matrix(1 0 0 -1 0 480)">
		<stop  offset="0" style="stop-color:#00FFFF"/>
		<stop  offset="1" style="stop-color:#FF00FF"/>
	</linearGradient>
	
		<circle fill="none" stroke="url(#SVGID_00000044145706790800271100000004970218934564062868_)" stroke-width="8.1635" stroke-linecap="round" stroke-miterlimit="10" cx="240" cy="240" r="137.79"/>
</g>
<g id="highlight-squiggle">
	<g>
		<path fill="none" stroke="#FFFFFF" stroke-width="1.8127" stroke-linecap="round" stroke-miterlimit="10" d="M378.32,240
			c0,14.86,3.42,31.23-0.94,44.64c-4.51,13.9-31.88,14.31-40.3,25.88c-8.51,11.69,0.65,39.41-11.03,47.92
			c-11.57,8.42-27.35,14.93-41.25,19.45c-13.41,4.36-29.94-15.08-44.8-15.08s-29.48,13.56-42.89,9.2
			c-13.9-4.51-30.9-6.1-42.47-14.52c-11.69-8.51-13.32-27.93-21.83-39.61c-8.42-11.57-10.79-24.17-15.3-38.07
			c-4.36-13.41-33.13-24.94-33.13-39.8s37.29-23.62,41.65-37.04c4.51-13.9-0.33-28.31,8.09-39.88c8.51-11.69,3.22-39.77,14.9-48.28
			c11.57-8.42,37.01,6.42,50.91,1.91c13.41-4.36,25.2-26.66,40.06-26.66s32.18,5.25,45.6,9.61c13.9,4.51,26.63,16.58,38.2,25
			c11.69,8.51,19.27,22.59,27.77,34.28c8.42,11.57,26.49,20.83,31.01,34.73C386.94,207.09,378.32,225.14,378.32,240z"/>
	</g>
</g>
<g id="squiggle-1">
	<g>
		
			<linearGradient id="SVGID_00000183939764913156900510000000793417541771128494_" gradientUnits="userSpaceOnUse" x1="88.6382" y1="244.8775" x2="382.4808" y2="244.8775" gradientTransform="matrix(1 0 0 -1 0 480)">
			<stop  offset="0" style="stop-color:#00FFFF"/>
			<stop  offset="1" style="stop-color:#FF00FF"/>
		</linearGradient>
		
			<path fill="none" stroke="url(#SVGID_00000183939764913156900510000000793417541771128494_)" stroke-width="8.1635" stroke-linecap="round" stroke-miterlimit="10" d="
			M366.84,240c0,14.86,15.13,31.3,10.77,44.71c-4.51,13.9-6.61,32.79-15.03,44.36c-8.51,11.69-30.85,12.6-42.54,21.1
			c-11.57,8.42-25.23,11.22-39.13,15.74c-13.41,4.36-26.05,11.15-40.91,11.15s-26.6-9.58-40.01-13.93
			c-13.9-4.51-31.41-0.49-42.98-8.91c-11.69-8.51-15.66-24.69-24.16-36.38c-8.42-11.57-10.81-24.14-15.33-38.04
			c-4.36-13.41-24.8-24.93-24.8-39.8c0-14.86,13.97-28.49,18.33-41.9c4.51-13.9,16.28-22.26,24.7-33.83
			c8.51-11.69,8.91-30.9,20.59-39.41c11.57-8.42,23.69-22.1,37.6-26.62c13.41-4.36,31.19,17.54,46.06,17.54
			c14.86,0,34.13-26.47,47.54-22.11c13.9,4.51,17.82,31.99,29.4,40.42c11.69,8.51,15.65,20.78,24.16,32.47
			c8.42,11.57,15.01,20.34,19.52,34.24C364.97,214.22,366.84,225.14,366.84,240z"/>
	</g>
</g>
<g id="orbit-1">
	<g>
		<g>
			
				<radialGradient id="SVGID_00000103955501256292951090000000116444253587490204_" cx="190.09" cy="286.29" r="36.05" gradientTransform="matrix(1 0 0 -1 0 480)" gradientUnits="userSpaceOnUse">
				<stop  offset="0" style="stop-color:#FFFFFF"/>
				<stop  offset="0.2136" style="stop-color:#3FA9F5;stop-opacity:0.8"/>
				<stop  offset="1" style="stop-color:#3FA9F5;stop-opacity:0"/>
			</radialGradient>
			<circle fill="url(#SVGID_00000103955501256292951090000000116444253587490204_)" cx="190.09" cy="193.71" r="36.05"/>
			
				<radialGradient id="SVGID_00000157287877107314986920000004875588379644680592_" cx="290.81" cy="190.12" r="36.05" gradientTransform="matrix(1 0 0 -1 0 480)" gradientUnits="userSpaceOnUse">
				<stop  offset="0" style="stop-color:#FFFFFF"/>
				<stop  offset="0.2136" style="stop-color:#3FA9F5;stop-opacity:0.8"/>
				<stop  offset="1" style="stop-color:#3FA9F5;stop-opacity:0"/>
			</radialGradient>
			<circle fill="url(#SVGID_00000157287877107314986920000004875588379644680592_)" cx="290.81" cy="289.88" r="36.05"/>
		</g>
		
			<circle fill="none" stroke="#FFFFFF" stroke-width="1.8127" stroke-linecap="round" stroke-miterlimit="10" cx="240" cy="240" r="137.79"/>
	</g>
</g>
<g id="highlights">
	
		<radialGradient id="SVGID_00000103253179569211102640000012654205226857042848_" cx="359.39" cy="154.07" r="48.37" gradientTransform="matrix(1 0 0 -1 0 480)" gradientUnits="userSpaceOnUse">
		<stop  offset="0" style="stop-color:#FFFFFF;stop-opacity:0.3"/>
		<stop  offset="1" style="stop-color:#FFFFFF;stop-opacity:0"/>
	</radialGradient>
	<circle fill="url(#SVGID_00000103253179569211102640000012654205226857042848_)" cx="359.39" cy="325.93" r="48.37"/>
	
		<radialGradient id="SVGID_00000106868973220190913690000012674837977770501289_" cx="250.6965" cy="239.2337" r="503.4559" gradientTransform="matrix(1 0 0 -1 0 480)" gradientUnits="userSpaceOnUse">
		<stop  offset="0.2933" style="stop-color:#3FA9F5;stop-opacity:0"/>
		<stop  offset="1" style="stop-color:#3FA9F5;stop-opacity:0.8"/>
	</radialGradient>
	<path fill="url(#SVGID_00000106868973220190913690000012674837977770501289_)" d="M99.83,240c0-102.27,74.18-187.21,171.68-203.96
		c-11.47-1.97-23.26-3.01-35.3-3.01C121.9,33.03,29.23,125.69,29.23,240s92.66,206.97,206.97,206.97c12.03,0,23.82-1.04,35.3-3.01
		C174.01,427.21,99.83,342.27,99.83,240z"/>
	
		<radialGradient id="SVGID_00000170267015713132609580000005979865907232977044_" cx="236.3262" cy="263.8321" r="232.2932" gradientTransform="matrix(1 0 0 -1 0 480)" gradientUnits="userSpaceOnUse">
		<stop  offset="0" style="stop-color:#3FA9F5;stop-opacity:0"/>
		<stop  offset="0.8764" style="stop-color:#3FA9F5;stop-opacity:0.5258"/>
		<stop  offset="1" style="stop-color:#3FA9F5;stop-opacity:0.6"/>
	</radialGradient>
	
		<ellipse fill="url(#SVGID_00000170267015713132609580000005979865907232977044_)" cx="237.15" cy="104.45" rx="147.16" ry="89.25"/>
</g>
</svg>
