<svg width="32" height="33" viewBox="0 0 32 33" fill="none" xmlns="http://www.w3.org/2000/svg">
<path d="M29.0701 4.1499H26.0801V18.7299C26.0801 19.0599 25.8101 19.3299 25.4801 19.3299C25.1501 19.3299 24.8801 19.0599 24.8801 18.7299V2.49991C24.8801 2.17991 24.9501 1.87989 25.0801 1.60989H5.03005C4.54005 1.60989 4.14005 2.00991 4.14005 2.49991V29.2199H10.1701C10.5001 29.2199 10.7701 29.4899 10.7701 29.8199C10.7701 30.1499 10.5001 30.4199 10.1701 30.4199H3.53005C3.20005 30.4199 2.93005 30.1499 2.93005 29.8199V2.49991C2.93005 1.33991 3.87005 0.399902 5.03005 0.399902H26.9801C28.1401 0.399902 29.0801 1.33991 29.0801 2.49991V4.1499H29.0701ZM26.0801 2.94992H27.8701V2.49991C27.8701 2.00991 27.4701 1.60989 26.9801 1.60989C26.4901 1.60989 26.0901 2.00991 26.0901 2.49991V2.94992H26.0801Z" fill="#7993B0"/>
<path d="M11.2 5.06998C11.05 5.23998 11.06 5.60998 11.23 5.75998C11.36 5.86998 11.54 5.87997 16.84 5.87997C22.14 5.87997 22.33 5.87998 22.45 5.75998C22.62 5.59998 22.63 5.20998 22.47 5.06998C22.36 4.96998 21.88 4.95996 16.83 4.95996C11.78 4.95996 11.3 4.95998 11.2 5.06998Z" fill="#7894B0"/>
<path d="M11.2 7.29993C11.05 7.46993 11.06 7.83993 11.23 7.98993C11.36 8.09993 11.54 8.10992 16.84 8.10992C22.14 8.10992 22.33 8.10993 22.45 7.98993C22.62 7.82993 22.63 7.43993 22.47 7.29993C22.36 7.19993 21.88 7.18994 16.83 7.18994C11.78 7.18994 11.3 7.18993 11.2 7.29993Z" fill="#7894B0"/>
<path d="M9.22004 8.85995H6.52004C6.19004 8.85995 5.92004 8.58998 5.92004 8.25998V5.55997C5.92004 5.22997 6.19004 4.95996 6.52004 4.95996H9.22004C9.55004 4.95996 9.82004 5.22997 9.82004 5.55997V8.25998C9.82004 8.58998 9.55004 8.85995 9.22004 8.85995ZM7.13004 7.65997H8.62004V6.16998H7.13004V7.65997Z" fill="#7993B0"/>
<path d="M11.2 11.1999C11.05 11.3699 11.06 11.7399 11.23 11.8899C11.36 11.9999 11.54 12.0099 16.84 12.0099C22.14 12.0099 22.33 12.0099 22.45 11.8899C22.62 11.7299 22.63 11.3399 22.47 11.1999C22.36 11.0999 21.88 11.0898 16.83 11.0898C11.78 11.0898 11.3 11.0899 11.2 11.1999Z" fill="#7894B0"/>
<path d="M11.2 13.4201C11.05 13.5901 11.06 13.96 11.23 14.11C11.36 14.22 11.54 14.2301 16.84 14.2301C22.14 14.2301 22.33 14.23 22.45 14.11C22.62 13.95 22.63 13.5601 22.47 13.4201C22.36 13.3201 21.88 13.3101 16.83 13.3101C11.78 13.3101 11.3 13.3101 11.2 13.4201Z" fill="#7894B0"/>
<path d="M9.22004 14.9898H6.52004C6.19004 14.9898 5.92004 14.7199 5.92004 14.3899V11.6898C5.92004 11.3598 6.19004 11.0898 6.52004 11.0898H9.22004C9.55004 11.0898 9.82004 11.3598 9.82004 11.6898V14.3899C9.82004 14.7199 9.55004 14.9898 9.22004 14.9898ZM7.13004 13.7798H8.62004V12.2899H7.13004V13.7798Z" fill="#7993B0"/>
<path d="M7.02999 22.67C6.87999 22.67 6.73999 22.63 6.61999 22.52C5.82999 21.82 7.27999 19.5 7.34999 19.4C7.37999 19.36 7.39999 19.32 7.42999 19.28C6.91999 18.59 6.24999 17.96 5.90999 17.68C5.74999 17.55 5.72999 17.32 5.85999 17.17C5.98999 17.01 6.21999 16.99 6.36999 17.12C6.50999 17.24 7.26999 17.87 7.90999 18.7C8.10999 18.52 8.29999 18.43 8.48999 18.43C8.92999 18.42 9.19999 18.78 9.48999 19.16C9.82999 19.62 10.22 20.13 10.93 20.22C11.25 20.26 11.55 20.27 11.83 20.26C11.43 19.88 11.35 19.52 11.35 19.3C11.35 18.92 11.58 18.6 11.95 18.43C12.47 18.2 13.15 18.34 13.66 18.79C14.3 19.35 14.22 19.83 14.12 20.07C14.05 20.22 13.94 20.36 13.79 20.47C14.65 20.71 15.01 20.4 15.48 20.01C15.7 19.82 15.95 19.62 16.27 19.46C16.61 19.29 16.98 19.26 17.32 19.38C18.06 19.64 18.47 20.47 18.52 20.57C18.61 20.75 18.52 20.97 18.35 21.05C18.17 21.14 17.95 21.05 17.87 20.88C17.78 20.7 17.47 20.2 17.09 20.07C16.93 20.01 16.77 20.03 16.6 20.11C16.36 20.23 16.17 20.39 15.96 20.57C15.33 21.1 14.62 21.69 12.81 20.87C12.21 21 11.49 21.01 10.84 20.93C9.80999 20.81 9.25999 20.07 8.89999 19.59C8.77999 19.42 8.58999 19.17 8.50999 19.15C8.50999 19.15 8.44999 19.16 8.31999 19.3C8.60999 19.78 8.80999 20.3 8.80999 20.79C8.80999 21.3 8.59999 21.74 8.18999 22.08C7.96999 22.26 7.46999 22.67 7.02999 22.67ZM7.85999 19.96C7.30999 20.88 7.09999 21.64 7.11999 21.92C7.21999 21.89 7.40999 21.79 7.73999 21.52C7.97999 21.32 8.09999 21.09 8.09999 20.79C8.09999 20.53 8.00999 20.25 7.86999 19.96H7.85999ZM12.5 19.04C12.4 19.04 12.32 19.06 12.25 19.09C12.19 19.12 12.08 19.18 12.08 19.3C12.08 19.48 12.29 19.79 12.9 20.1C13.21 20.01 13.41 19.89 13.47 19.77C13.51 19.68 13.4 19.52 13.2 19.33C12.95 19.11 12.71 19.04 12.51 19.04H12.5Z" fill="#7993B0"/>
<path d="M25.52 20.3999L28.15 25.8199L26.79 26.4799C26.42 26.6599 25.97 26.5099 25.79 26.1399L24.56 26.7399C24.61 26.9299 24.61 27.1399 24.56 27.3399L24.34 28.2899C24.2 28.8599 23.71 29.2599 23.16 29.2999C23.04 29.7899 22.76 30.1199 22.37 30.3099C22.05 30.4699 21.71 30.4999 21.34 30.3999C20.89 31.1899 19.98 31.6199 19.06 31.4099L16.48 30.6599L16.29 30.7499C16.47 31.1199 16.31 31.5699 15.94 31.7499L14.58 32.4099L11.95 26.9899L14.45 25.7799L14.97 24.2799C15.09 23.9499 15.33 23.6799 15.64 23.5299L20.45 21.1999C20.72 21.0699 21.17 21.0399 21.46 21.1399L22.96 21.6599L25.52 20.4199V20.3999ZM23.33 26.8399L20.13 26.0899L20.03 26.3299C19.55 27.5199 18.31 27.4699 17.83 27.2799C16.97 26.9399 16.53 25.9599 16.88 25.0899L17.33 23.9399L16.13 24.5199C16.13 24.5199 16.07 24.5899 16.03 24.6299L15.36 26.5699L14.47 26.9999L15.79 29.7099L16.38 29.4199L19.35 30.2799C19.83 30.3899 20.33 30.0799 20.45 29.5699L20.58 28.9999L21.68 29.2899C21.77 29.3099 21.98 29.2699 22.04 29.0499L22.3 27.9699L23.01 28.1299C23.11 28.1499 23.21 28.0899 23.24 27.9899L23.46 27.0399C23.48 26.9399 23.42 26.8399 23.32 26.8099L23.33 26.8399ZM15.45 30.7299C15.36 30.5399 15.13 30.4699 14.95 30.5599C14.77 30.6499 14.69 30.8799 14.78 31.0599C14.87 31.2499 15.1 31.3199 15.28 31.2299C15.46 31.1399 15.55 30.9099 15.45 30.7299ZM23.98 22.3999L23.03 22.8599L21.09 22.1899C21.09 22.1899 20.99 22.1799 20.95 22.1899L19.18 23.0599C18.97 23.1599 18.8 23.3399 18.72 23.5599L17.95 25.5099C17.83 25.7999 17.97 26.1299 18.27 26.2399C18.56 26.3499 18.89 26.1699 19 25.8799L19.65 24.2399C19.73 24.0499 19.95 23.9499 20.14 24.0299L20.49 24.1699C20.68 24.2499 20.78 24.4699 20.7 24.6599L20.55 25.0299L23.58 25.7399C23.66 25.7599 23.74 25.7899 23.82 25.8199L25.29 25.1099L23.97 22.3999H23.98ZM26.98 25.1299C26.89 24.9399 26.66 24.8599 26.48 24.9599C26.29 25.0499 26.22 25.2799 26.31 25.4599C26.4 25.6399 26.63 25.7299 26.81 25.6299C27 25.5399 27.08 25.3099 26.98 25.1299Z" fill="#29ABE2"/>
</svg>
