<svg width="32" height="33" viewBox="0 0 32 33" fill="none" xmlns="http://www.w3.org/2000/svg">
<path d="M11.61 12.3504C11.53 12.4004 10.95 13.0404 10.33 13.7904C9.69997 14.5404 9.16997 15.1604 9.14997 15.1704C9.11997 15.1704 8.75997 14.8503 8.35997 14.4403C7.95997 14.0303 7.54997 13.6703 7.45997 13.6503C7.03997 13.5403 6.59997 14.0404 6.74997 14.4504C6.77997 14.5404 7.27997 15.1003 7.85997 15.6903C8.83997 16.7003 8.90997 16.7604 9.14997 16.7604C9.32997 16.7604 9.45997 16.7104 9.60997 16.5704C9.93997 16.2704 12.41 13.2703 12.48 13.0903C12.68 12.5703 12.1 12.0803 11.62 12.3603L11.61 12.3504Z" fill="#29ABE2"/>
<path d="M11.61 17.9202C11.53 17.9702 10.95 18.6101 10.33 19.3601C9.69997 20.1101 9.16997 20.7302 9.14997 20.7402C9.11997 20.7402 8.75997 20.4202 8.35997 20.0102C7.95997 19.6002 7.54997 19.2402 7.45997 19.2202C7.03997 19.1102 6.59997 19.6102 6.74997 20.0202C6.77997 20.1102 7.27997 20.6702 7.85997 21.2602C8.83997 22.2702 8.90997 22.3301 9.14997 22.3301C9.32997 22.3301 9.45997 22.2802 9.60997 22.1402C9.93997 21.8402 12.41 18.8402 12.48 18.6602C12.68 18.1402 12.1 17.6502 11.62 17.9302L11.61 17.9202Z" fill="#29ABE2"/>
<path d="M11.61 23.5002C11.53 23.5502 10.95 24.1902 10.33 24.9402C9.69997 25.6902 9.16997 26.3102 9.14997 26.3202C9.11997 26.3202 8.75997 26.0002 8.35997 25.5902C7.95997 25.1802 7.54997 24.8202 7.45997 24.8002C7.03997 24.6902 6.59997 25.1902 6.74997 25.6002C6.77997 25.6902 7.27997 26.2502 7.85997 26.8402C8.83997 27.8502 8.90997 27.9102 9.14997 27.9102C9.32997 27.9102 9.45997 27.8602 9.60997 27.7202C9.93997 27.4202 12.41 24.4202 12.48 24.2402C12.68 23.7202 12.1 23.2302 11.62 23.5102L11.61 23.5002Z" fill="#29ABE2"/>
<path d="M9.00005 8.13045H7.32005L7.06005 8.92046H5.68005L7.41005 4.21045H8.93005L10.6501 8.92046H9.26005L9.00005 8.13045ZM8.68005 7.15044L8.17005 5.61044L7.66005 7.15044H8.68005Z" fill="#29ABE2"/>
<path d="M12.32 4.19043V6.89043C12.32 7.16043 12.38 7.36044 12.5 7.51044C12.62 7.65044 12.8 7.73044 13.04 7.73044C13.28 7.73044 13.46 7.66044 13.58 7.51044C13.7 7.36044 13.76 7.16042 13.76 6.90042V4.20042H15.07V6.90042C15.07 7.35042 14.98 7.72044 14.8 8.04044C14.62 8.35044 14.37 8.59042 14.06 8.74042C13.75 8.90042 13.4 8.98044 13 8.98044C12.6 8.98044 12.26 8.90043 11.96 8.75043C11.66 8.59043 11.42 8.36041 11.26 8.05042C11.09 7.74042 11.01 7.36043 11.01 6.91043V4.21043H12.32V4.19043Z" fill="#29ABE2"/>
<path d="M19.81 7.77042C19.61 8.13042 19.32 8.41041 18.96 8.61041C18.59 8.81041 18.16 8.92044 17.66 8.92044H15.78V4.19043H17.66C18.16 4.19043 18.59 4.29043 18.97 4.49043C19.34 4.69043 19.63 4.97043 19.82 5.32043C20.02 5.68043 20.12 6.08042 20.12 6.54042C20.12 7.00042 20.02 7.41042 19.82 7.77042H19.81ZM18.45 7.43042C18.67 7.22042 18.78 6.92042 18.78 6.54042C18.78 6.16042 18.67 5.87043 18.45 5.66043C18.23 5.45043 17.92 5.34042 17.54 5.34042H17.09V7.74042H17.54C17.93 7.74042 18.23 7.64042 18.45 7.43042Z" fill="#29ABE2"/>
<path d="M22.0099 4.19043V8.92044H20.6899V4.19043H22.0099Z" fill="#29ABE2"/>
<path d="M26.2999 4.19043V5.24043H25.02V8.92044H23.7099V5.24043H22.45V4.19043H26.2999Z" fill="#29ABE2"/>
<path d="M27.1801 32.5002H4.82006C3.85006 32.5002 3.06006 31.7102 3.06006 30.7402V2.25023C3.06006 1.28023 3.85006 0.490234 4.82006 0.490234H27.1801C28.1501 0.490234 28.9401 1.28023 28.9401 2.25023V30.7402C28.9401 31.7102 28.1501 32.5002 27.1801 32.5002ZM4.82006 1.76022C4.55006 1.76022 4.32006 1.98022 4.32006 2.26022V30.7502C4.32006 31.0202 4.54006 31.2502 4.82006 31.2502H27.1801C27.4501 31.2502 27.6801 31.0302 27.6801 30.7502V2.26022C27.6801 1.99022 27.4601 1.76022 27.1801 1.76022H4.82006Z" fill="#7993B0"/>
<path d="M26.11 12.7002H14.1V15.0202H26.11V12.7002Z" fill="#7894B0"/>
<path d="M26.11 18.9204H14.1V21.2404H26.11V18.9204Z" fill="#7894B0"/>
<path d="M26.11 25.1504H14.1V27.4704H26.11V25.1504Z" fill="#7894B0"/>
</svg>
