<svg width="32" height="33" viewBox="0 0 32 33" fill="none" xmlns="http://www.w3.org/2000/svg">
<path d="M14.2699 24.0898C14.0599 24.4498 13.6199 24.6099 13.2299 24.4599C12.3699 24.1399 11.5699 23.5199 10.8799 22.9399C10.5599 22.6799 10.4799 22.2199 10.6899 21.8599L11.2899 20.8199C10.7999 20.2499 10.4099 19.5799 10.1599 18.8599H8.95994C8.54994 18.8599 8.18994 18.5599 8.11994 18.1599C7.96994 17.2799 7.95994 16.3598 8.11994 15.4498C8.18994 15.0398 8.54994 14.7399 8.95994 14.7399H10.1599C10.4199 14.0198 10.7999 13.3499 11.2899 12.7799L10.6899 11.7399C10.4799 11.3799 10.5599 10.9199 10.8799 10.6599C11.5699 10.0799 12.3699 9.46985 13.2299 9.14985C13.6199 9.00985 14.0599 9.15985 14.2699 9.51985L14.8699 10.7099C15.6199 10.5699 16.3799 10.5699 17.1299 10.7099L17.7299 9.51985C17.9399 9.15985 18.3799 8.99985 18.7699 9.14985C19.6299 9.46985 20.4299 10.0799 21.1199 10.6599C21.4399 10.9199 21.5199 11.3799 21.3099 11.7399L20.7099 12.7799C21.1999 13.3499 21.5899 14.0198 21.8399 14.7399H23.0399C23.4499 14.7399 23.8099 15.0299 23.8799 15.4399C24.0299 16.3199 24.0399 17.2399 23.8799 18.1499C23.8099 18.5599 23.4599 18.8599 23.0399 18.8599H21.8399C21.5799 19.5799 21.1999 20.2499 20.7099 20.8199L21.3099 21.8599C21.5199 22.2199 21.4399 22.6799 21.1199 22.9399C20.4299 23.5199 19.6299 24.1299 18.7699 24.4399C18.3799 24.5799 17.9399 24.4399 17.7299 24.0799L17.1299 22.8798C16.3799 23.0198 15.6099 23.0198 14.8599 22.8798L14.2599 24.0799L14.2699 24.0898ZM17.8899 14.9099C15.1399 12.7999 11.9999 15.9299 14.1199 18.6799C16.8699 20.7899 20.0099 17.6599 17.8899 14.9099Z" fill="#29ABE2"/>
<path d="M16 31.2496C23.2 31.2496 29.15 25.9796 30.25 19.0996L28.47 20.8796L26.39 18.7996C25.46 23.6896 21.16 27.3896 15.99 27.3896C10.82 27.3896 6.29999 23.4796 5.53999 18.3796H7.04999L3.51999 14.8496L-0.0100098 18.3796H1.63999C2.42999 25.6096 8.54999 31.2396 15.99 31.2396L16 31.2496Z" fill="#7893B0"/>
<path d="M28.47 18.8496L32 15.3196H30.36C29.62 8.03961 23.48 2.34961 16 2.34961C8.51998 2.34961 2.77998 7.67961 1.72998 14.6296L3.52998 12.8296L5.58998 14.8896C6.48998 9.94961 10.8 6.20961 16 6.20961C21.2 6.20961 25.75 10.1696 26.47 15.3196H24.94L28.47 18.8496Z" fill="#7893B0"/>
</svg>
