<svg xmlns="http://www.w3.org/2000/svg" xml:space="preserve" viewBox="0 0 32 32"><path fill="none" d="M0 0h32v32H0z"/><path fill="#7893B0" d="M29.49 6.26v15c0 1.24-1.01 2.25-2.25 2.25h-9l.75 2.25h3.38c.62 0 1.12.5 1.12 1.12S22.99 28 22.37 28H9.62C9 28 8.5 27.5 8.5 26.88s.5-1.12 1.12-1.12H13l.75-2.25h-9c-1.24 0-2.25-1.01-2.25-2.25v-15c0-1.24 1.01-2.25 2.25-2.25h22.5c1.24 0 2.25 1.01 2.25 2.25h-.01zm-3 .75h-21v13.5h21V7.01z"/><path fill="#7893B0" d="M24.45 9.03h-9.98v3.25h9.98V9.03zm0 4.73h-9.98v3.25h9.98v-3.25zm0 4.11h-9.98v.77h9.98v-.77z"/><path fill="#29ABE2" d="M12.46 9.03H7.22v9.57h5.24V9.03z"/></svg>