<svg xmlns="http://www.w3.org/2000/svg" xml:space="preserve" viewBox="0 0 32 32"><path fill="none" d="M0 0h32v32H0z"/><path fill="#29ABE2" d="M20.45 13.41v.67c0 .18-.15.33-.33.33h-2.6l-1.15 2.31c-.12.25-.39.39-.66.37a.73.73 0 0 1-.58-.49l-1.28-4.71-1.43 6.68a.67.67 0 0 1-.63.53h-.02c-.3 0-.56-.2-.64-.48l-1.2-4.2H7.42c-.18 0-.33-.15-.33-.33v-.67c0-.18.15-.33.33-.33h3.01c.3 0 .56.2.64.49l.6 2.11 1.45-6.74c.06-.3.33-.52.64-.53s.58.2.66.49l1.55 5.67.55-1.11c.11-.23.34-.37.6-.37h3.01c.18 0 .33.15.33.33l-.01-.02z"/><path fill="#7893B0" d="M26.35 27.67c-.44.44-1.15.44-1.59 0L20.08 23c-.21-.21-.33-.5-.33-.8v-.76a9.722 9.722 0 0 1-6 2.06C8.36 23.5 4 19.14 4 13.75S8.36 4 13.75 4s9.75 4.36 9.75 9.75c0 2.26-.77 4.35-2.06 6h.76c.3 0 .59.12.8.33l4.67 4.67c.44.44.44 1.15 0 1.59l-1.33 1.33h.01zm-12.6-20.3c-3.52 0-6.38 2.85-6.38 6.38s2.85 6.38 6.38 6.38 6.38-2.85 6.38-6.38-2.85-6.38-6.38-6.38z"/></svg>