<svg width="32" height="32" viewBox="0 0 32 32" fill="none" xmlns="http://www.w3.org/2000/svg">
<g clip-path="url(#clip0_8495_25617)">
<path d="M15.9998 18.74C17.513 18.74 18.7398 17.5133 18.7398 16C18.7398 14.4867 17.513 13.26 15.9998 13.26C14.4865 13.26 13.2598 14.4867 13.2598 16C13.2598 17.5133 14.4865 18.74 15.9998 18.74Z" fill="#29ABE2"/>
<path d="M21.3498 23.16C19.8598 24.28 18.0098 24.95 15.9998 24.95C11.0598 24.95 7.05977 20.95 7.05977 16.01C7.05977 14 7.72977 12.16 8.84977 10.66L7.06977 8.02002C5.16977 10.14 4.00977 12.93 4.00977 16.01C4.00977 22.64 9.37977 28.01 16.0098 28.01C19.0798 28.01 21.8698 26.85 23.9998 24.95L21.3598 23.17L21.3498 23.16Z" fill="#7893B0"/>
<path d="M10.65 8.83999C12.14 7.71999 13.99 7.04999 16 7.04999C20.94 7.04999 24.94 11.05 24.94 15.99C24.94 18 24.27 19.84 23.15 21.34L24.93 23.98C26.83 21.86 27.99 19.06 27.99 15.99C27.99 9.35999 22.62 3.98999 15.99 3.98999C12.92 3.98999 10.13 5.14999 8 7.04999L10.64 8.82999L10.65 8.83999Z" fill="#7893B0"/>
<path d="M19.48 17.68L23.21 23.21L17.68 19.48L12.52 14.32L8.79004 8.79004L14.32 12.52L19.48 17.68Z" fill="#29ABE2"/>
</g>
<defs>
<clipPath id="clip0_8495_25617">
<rect width="32" height="32" fill="white"/>
</clipPath>
</defs>
</svg>
