<svg xmlns="http://www.w3.org/2000/svg" xml:space="preserve" viewBox="0 0 32 32"><path fill="none" d="M0 0h32v32H0z"/><path fill="#7893B0" d="M10 7h10.5v3H10v2.23l3.01 5.27H13c-1.11 0-2.06.61-2.58 1.5l-3.43-6H2.5c-.83 0-1.5-.67-1.5-1.5v-6C1 4.67 1.67 4 2.5 4h6c.83 0 1.5.67 1.5 1.5V7zm21-1.5v6c0 .83-.67 1.5-1.5 1.5h-6c-.83 0-1.5-.67-1.5-1.5v-6c0-.83.67-1.5 1.5-1.5h6c.83 0 1.5.67 1.5 1.5z"/><path fill="#29ABE2" d="M19 19h-6c-.83 0-1.5.67-1.5 1.5v6c0 .83.67 1.5 1.5 1.5h6c.83 0 1.5-.67 1.5-1.5v-6c0-.83-.67-1.5-1.5-1.5z"/></svg>