<svg width="32" height="32" viewBox="0 0 32 32" fill="none" xmlns="http://www.w3.org/2000/svg">
<g clip-path="url(#clip0_9099_25971)">
<path d="M9.05994 19.7C9.05994 14.19 13.5499 9.70005 19.0599 9.70005C20.2299 9.70005 21.3599 9.91005 22.4099 10.29C22.4599 8.55005 22.5199 6.97005 22.5199 6.97005C22.5199 6.22005 21.9099 5.61005 21.1599 5.61005H16.6099C15.9799 4.53005 14.8199 3.80005 13.4799 3.80005C12.1399 3.80005 10.9799 4.53005 10.3499 5.61005H5.79994C5.04994 5.61005 4.43994 6.22005 4.43994 6.97005V25.9501C4.43994 26.7001 5.04994 27.31 5.79994 27.31H12.5899C10.4399 25.47 9.06994 22.75 9.06994 19.71L9.05994 19.7ZM13.4799 6.06005C14.2299 6.06005 14.8399 6.67005 14.8399 7.42005C14.8399 8.17005 14.2299 8.78005 13.4799 8.78005C12.7299 8.78005 12.1199 8.17005 12.1199 7.42005C12.1199 6.67005 12.7299 6.06005 13.4799 6.06005Z" fill="#7893B0"/>
<path d="M27.5601 19.7C27.5601 24.39 23.7501 28.2 19.0601 28.2C14.3701 28.2 10.5601 24.39 10.5601 19.7C10.5601 15.01 14.3701 11.2 19.0601 11.2C23.7501 11.2 27.5601 15.01 27.5601 19.7ZM24.1201 17.06L22.9801 15.91C22.7901 15.72 22.4801 15.72 22.2901 15.91L17.9901 20.18L16.1301 18.3C15.9401 18.11 15.6301 18.11 15.4401 18.3L14.2901 19.44C14.1001 19.63 14.1001 19.94 14.2901 20.13L17.6401 23.51C17.8301 23.7 18.1401 23.7 18.3301 23.51L24.1301 17.75C24.3201 17.56 24.3201 17.25 24.1301 17.06H24.1201Z" fill="#29ABE2"/>
</g>
<defs>
<clipPath id="clip0_9099_25971">
<rect width="32" height="32" fill="white"/>
</clipPath>
</defs>
</svg>
