<?xml version="1.0" encoding="utf-8"?>
<!-- Generator: Adobe Illustrator 26.2.1, SVG Export Plug-In . SVG Version: 6.00 Build 0)  -->
<svg version="1.1" id="Layer_1" xmlns="http://www.w3.org/2000/svg" xmlns:xlink="http://www.w3.org/1999/xlink" x="0px" y="0px"
	 width="32px" height="32px" viewBox="0 0 32 32" enableBackground="new 0 0 32 32" xml:space="preserve">
<g>
	<rect fill="none" width="32" height="32"/>
	<g>
		<path fill="#7893B0" d="M27.62,16c0,6.42-5.2,11.62-11.62,11.62S4.38,22.42,4.38,16S9.58,4.38,16,4.38S27.62,9.58,27.62,16z
			 M20.5,16c0-2.49-2.01-4.5-4.5-4.5s-4.5,2.01-4.5,4.5s2.01,4.5,4.5,4.5S20.5,18.49,20.5,16z M21.74,24.29L21.74,24.29l0.23-0.17
			l-1.35-1.57l-0.96-1.68l-0.09,0.06c-2.41,1.56-5.01,1.54-7.04,0.04l-2.37,3.22c1.7,1.25,3.69,1.92,5.75,1.92
			C17.9,26.11,19.87,25.5,21.74,24.29z M26.08,15.99c0-2.08-0.64-4.09-1.86-5.82l-1.65,1.14l1.64-1.15l-1.64,1.15l-1.6,1.19
			c0.73,1.03,1.11,2.24,1.11,3.49c0,1.26-0.4,2.52-1.13,3.54l3.26,2.32C25.43,20.14,26.08,18.11,26.08,15.99z M11.08,19.49
			c-0.76-1.08-1.18-2.35-1.18-3.6c0-1.21,0.38-2.35,1.13-3.37L7.8,10.16c-1.25,1.7-1.91,3.68-1.91,5.74c0,2.06,0.68,4.16,1.92,5.91
			L11.08,19.49z M21.81,7.76c-1.71-1.21-3.72-1.84-5.82-1.84c-2.08,0-4.09,0.64-5.82,1.86l-0.07,0.05l2.4,3.2
			c2.07-1.46,4.96-1.44,7.01,0L21.81,7.76z"/>
	</g>
</g>
</svg>
