<svg xmlns="http://www.w3.org/2000/svg" xml:space="preserve" viewBox="0 0 32 32"><path fill="none" d="M0 0h32v32H0z"/><path fill="#7893B0" d="M6.52 14.5H1.75c-.41 0-.75-.34-.75-.75v-1.5c0-.41.34-.75.75-.75h4.54c-.08 1.02 0 2.03.23 3zM2.63 6.15l.75-1.3c.21-.36.67-.48 1.02-.28l3.61 2.08c-.58.82-1.02 1.73-1.32 2.7L2.9 7.16a.742.742 0 0 1-.27-1.02v.01zm6.08 12.57.12.15-4.43 2.56a.74.74 0 0 1-1.02-.28l-.75-1.3a.746.746 0 0 1 .27-1.02l4.27-2.46c.39.84.9 1.64 1.54 2.36v-.01zm20.65 1.13-.75 1.3c-.21.36-.67.48-1.02.28l-4.42-2.55c.06-.07.12-.15.17-.21.61-.7 1.08-1.49 1.47-2.32l4.29 2.48c.36.21.48.67.27 1.02h-.01zm-4.05-10.5a9.65 9.65 0 0 0-1.33-2.69l3.61-2.09a.74.74 0 0 1 1.02.28l.75 1.3c.21.36.08.82-.27 1.02l-3.78 2.18zM31 12.24v1.5c0 .41-.34.75-.75.75h-4.8c.36-1.51.31-2.32.26-3h4.54c.41 0 .75.34.75.75z"/><path fill="#29ABE2" d="M18.74 10.57V8.91h-5.49v1.66h1.92v4.12h-1.92v1.66h5.49v-1.66h-1.91v-4.12h1.91z"/><path fill="#7893B0" d="M15.98 4c-4.78.01-8.25 3.89-8.25 8.25 0 2.08.77 3.98 2.04 5.43.77.88 1.99 2.73 2.45 4.29v.04h7.52v-.04c.47-1.56 1.68-3.4 2.45-4.29a8.214 8.214 0 0 0 2.04-5.43c0-4.56-3.69-8.25-8.25-8.25zm4.72 12.36c-.64.72-1.63 2.14-2.33 3.64h-4.76c-.69-1.5-1.69-2.92-2.33-3.64-1-1.14-1.55-2.6-1.55-4.11 0-3.06 2.35-6.24 6.25-6.25 3.45 0 6.27 2.8 6.27 6.25 0 1.51-.55 2.97-1.55 4.11zm-8.45 7.14h7.5v1.8c0 .25-.11.62-.25.83l-.8 1.2c-.25.37-.81.67-1.25.67h-2.89c-.44 0-1-.3-1.25-.67l-.8-1.2c-.16-.25-.25-.53-.25-.83v-1.8h-.01z"/></svg>