<svg xmlns="http://www.w3.org/2000/svg" xml:space="preserve" viewBox="0 0 32 32"><path fill="none" d="M0 0h32v32H0z"/><path fill="#7893B0" d="M9.5 6v4.38c0 1.71 1.4 3.11 3.12 3.12h1.64A9.504 9.504 0 0 0 12.5 19a9.5 9.5 0 0 0 3.09 7H3V6h6.5zm3.79-2H13v6h6v-.29c0-.26-.15-.61-.33-.79l-4.59-4.59c-.18-.18-.54-.33-.79-.33zM11.5 4H2.12C1.5 4 1 4.5 1 5.12v21.75c0 .62.5 1.12 1.12 1.12h15.76c.62 0 1.12-.5 1.12-1.12v-1.01c-2.64-1.16-4.5-3.8-4.5-6.86s1.86-5.7 4.5-6.86v-.64h-6.38c-.62 0-1.12-.51-1.12-1.12V4z"/><path fill="#29ABE2" d="M31 26.19c0 .17-.1.41-.22.53l-1.06 1.06c-.12.12-.36.22-.53.22s-.41-.1-.53-.22l-3.63-3.63A5.9 5.9 0 0 1 22 25c-3.31 0-6-2.69-6-6s2.69-6 6-6 6 2.69 6 6c0 .9-.38 2.26-.85 3.03l3.63 3.63c.12.12.22.36.22.53zM25 19c0-1.66-1.34-3-3-3s-3 1.34-3 3 1.34 3 3 3 3-1.34 3-3z"/></svg>