<svg xmlns="http://www.w3.org/2000/svg" xml:space="preserve" viewBox="0 0 32 32"><path fill="none" d="M0 0h32v32H0z"/><path fill="#7893B0" d="M8.51 22v4.5c0 .83-.67 1.5-1.5 1.5h-4.5c-.83 0-1.5-.67-1.5-1.5V22c0-.83.67-1.5 1.5-1.5h4.5c.83 0 1.5.67 1.5 1.5zm8.61-9v3h9.45c.99 0 1.8.81 1.8 1.8v2.7h-2.25v-2.25h-9v2.25h-2.25v-2.25h-9v2.25H3.62v-2.7c0-.99.81-1.8 1.8-1.8h9.45v-3h2.25zm2.62 9v4.5c0 .83-.67 1.5-1.5 1.5h-4.5c-.83 0-1.5-.67-1.5-1.5V22c0-.83.67-1.5 1.5-1.5h4.5c.84 0 1.5.67 1.5 1.5zm11.25 0v4.5c0 .83-.67 1.5-1.5 1.5h-4.5c-.83 0-1.5-.67-1.5-1.5V22c0-.83.67-1.5 1.5-1.5h4.5c.84 0 1.5.67 1.5 1.5z"/><path fill="#29ABE2" d="M14.88 11.5H13c-.83 0-1.5-.67-1.5-1.5V5.5c0-.83.67-1.5 1.5-1.5h6c.83 0 1.5.67 1.5 1.5V10c0 .83-.67 1.5-1.5 1.5h-4.12z"/></svg>