<svg xmlns="http://www.w3.org/2000/svg" xml:space="preserve" viewBox="0 0 32 32"><path fill="none" d="M0 0h32v32H0z"/><path fill="#7893B0" d="m23.98 18.97-2-1.15c.07-.36.1-.73.13-1.1-1.23.62-2.5.95-3.82.95-.61 0-1.15-.31-1.48-.81a3.747 3.747 0 0 1-7.43-.69c0-2.07 1.68-3.75 3.75-3.75 1.65 0 3.04 1.08 3.54 2.57.05-.12.1-.24.17-.35.27-.38.61-.95.9-1.49-.82-1.1-1.27-2.39-1.27-3.73 0-.52.07-1.03.2-1.52-.18-.08-.36-.16-.55-.22v-2.3c0-.26-.18-.49-.44-.55a11.79 11.79 0 0 0-5.12 0c-.26.06-.44.29-.44.55v2.31c-1.04.37-2.01.93-2.85 1.65L5.28 8.19a.548.548 0 0 0-.69.11 11.56 11.56 0 0 0-2.56 4.43c-.08.25.03.53.26.66l2 1.15c-.2 1.09-.2 2.2 0 3.29l-2 1.15c-.23.13-.33.4-.26.66a11.69 11.69 0 0 0 2.56 4.43c.18.19.47.24.69.11l2-1.15c.84.72 1.8 1.28 2.85 1.65v2.31c0 .26.18.49.44.55 1.72.38 3.48.37 5.12 0 .26-.06.44-.29.44-.55v-2.31c1.04-.37 2.01-.93 2.85-1.65l2 1.15c.23.13.52.09.69-.11a11.56 11.56 0 0 0 2.56-4.43.575.575 0 0 0-.26-.66l.01-.01z"/><path fill="#29ABE2" d="M29.98 9.42c0 2.9-2.69 5.25-6 5.25-.34 0-.89-.05-1.22-.11-1.07.81-2.6 1.61-4.46 1.61-.13 0-.24-.09-.29-.23a.415.415 0 0 1-.03-.16c0-.08.04-.2.09-.27.48-.67 1.14-1.84 1.47-2.6-.95-.93-1.55-2.15-1.55-3.49 0-2.9 2.69-5.25 6-5.25s6 2.35 6 5.25h-.01z"/></svg>