<svg width="32" height="33" viewBox="0 0 32 33" fill="none" xmlns="http://www.w3.org/2000/svg">
<path d="M8.29004 0.910138C7.70004 1.12014 7.30004 1.56013 7.14004 2.15013C7.03004 2.57013 7.02004 8.69013 7.13004 9.01013C7.20004 9.20013 7.46004 9.39013 7.66004 9.39013C7.86004 9.39013 8.12004 9.20013 8.19004 9.01013C8.23004 8.87013 8.26004 7.78014 8.26004 5.57014V2.33014L8.41004 2.15013L8.56004 1.97014H30.71L30.89 2.18013L31.07 2.38014V25.9401H28.9C26.74 25.9401 26.72 25.9401 26.41 26.0901C26.04 26.2601 25.7 26.5801 25.54 26.9101C25.43 27.1401 25.42 27.3201 25.4 29.3901L25.38 31.6301H18.87L18.69 31.8101C18.47 32.0301 18.45 32.2901 18.64 32.5301L18.76 32.6901H26.78L29.39 30.0801L32 27.4701V1.68013L31.67 1.35014C31.08 0.76014 32.23 0.810132 19.63 0.810132C10.46 0.810132 8.49004 0.830128 8.29004 0.900128V0.910138Z" fill="#7893B0"/>
<path d="M21.41 3.79015C19.42 4.25015 17.89 5.73015 17.37 7.68015C17.19 8.38015 17.18 9.54017 17.37 10.2402C17.88 12.1502 19.31 13.5802 21.22 14.0902C21.92 14.2802 23.08 14.2802 23.78 14.0902C25.71 13.5802 27.17 12.0802 27.63 10.1802C27.74 9.70015 27.75 9.48017 27.74 8.77016C27.72 8.03016 27.69 7.86016 27.51 7.33016C27.24 6.51016 26.82 5.85017 26.22 5.24017C25.62 4.63017 24.96 4.23016 24.13 3.95016C23.6 3.77016 23.45 3.74016 22.67 3.73016C22.08 3.71016 21.67 3.73015 21.42 3.79015H21.41ZM25.38 7.83016C25.32 7.99016 23.05 10.7502 22.74 11.0202C22.61 11.1402 22.49 11.1902 22.32 11.1902C22.1 11.1902 22.03 11.1302 21.13 10.2102C20.6 9.67017 20.14 9.15017 20.11 9.07017C19.97 8.70017 20.37 8.24016 20.76 8.34016C20.85 8.36016 21.22 8.68016 21.59 9.06016C21.96 9.44016 22.28 9.74017 22.32 9.74017C22.34 9.73017 22.83 9.16016 23.41 8.47016C23.98 7.78016 24.51 7.19016 24.59 7.14016C25.03 6.88016 25.57 7.34017 25.38 7.82017V7.83016Z" fill="#29ABE2"/>
<path d="M7.81999 10.7302C6.69999 10.9702 5.64999 11.8002 5.17999 12.8002C4.68999 13.8502 4.71999 15.1102 5.31999 17.1402C5.93999 19.2702 6.06999 19.7502 6.20999 20.4502C6.38999 21.3102 6.56999 22.7202 6.56999 23.2702V23.6202L6.04999 23.6502C4.92999 23.7202 4.33999 24.3202 4.25999 25.4802L4.21999 26.0402L2.93999 26.0702C1.72999 26.1002 1.63999 26.1102 1.34999 26.2602C0.939988 26.4702 0.479987 26.9902 0.309987 27.4302C0.189987 27.7402 0.169987 27.9402 0.139987 28.8702C0.0999875 30.3302 0.179987 30.5102 0.889987 30.5102H1.24999V31.2402C1.24999 31.9002 1.26999 32.0002 1.38999 32.2102C1.46999 32.3402 1.60999 32.5002 1.71999 32.5702C1.88999 32.6902 2.07999 32.6902 8.73999 32.6902H15.58L15.79 32.5302C16.11 32.2802 16.16 32.1602 16.19 31.3102L16.22 30.5302L16.61 30.5002C16.95 30.4802 17.03 30.4402 17.17 30.2902L17.33 30.1102L17.31 28.9202C17.29 27.7302 17.29 27.7302 17.09 27.3102C16.86 26.8202 16.52 26.4702 16.1 26.2502C15.81 26.1102 15.72 26.1002 14.6 26.0802L13.41 26.0602L13.38 25.5502C13.34 24.8902 13.16 24.4702 12.77 24.1102C12.41 23.7702 12 23.6302 11.34 23.6302H10.88L10.92 23.0802C11.04 21.4302 11.28 20.1602 11.81 18.3502C12.54 15.8802 12.68 15.0602 12.62 14.0702C12.48 11.8102 10.2 10.2102 7.82999 10.7202L7.81999 10.7302ZM12.03 24.9902C12.14 25.1102 12.19 25.2502 12.22 25.5502C12.24 25.7702 12.24 25.9702 12.22 26.0102C12.2 26.0602 11.6 26.0802 10.37 26.0802H8.55999L8.40999 26.2402C8.16999 26.4702 8.18999 26.8302 8.44999 27.0502L8.63999 27.2102H15.48L15.69 27.3502C16.05 27.5902 16.15 27.8902 16.18 28.6902L16.2 29.4002H1.30999V28.6702C1.30999 28.0102 1.31999 27.9202 1.46999 27.6802C1.73999 27.2102 1.74999 27.2102 4.37999 27.2102H6.70999L6.88999 27.0302C7.12999 26.7902 7.13999 26.4602 6.90999 26.2402C6.76999 26.0902 6.71999 26.0802 6.05999 26.0802H5.36999L5.38999 25.6202C5.40999 25.2302 5.42999 25.1302 5.55999 25.0002L5.70999 24.8402H11.88L12.03 25.0002V24.9902ZM15.06 31.0802V31.6402H2.37999V30.5102H15.07V31.0702L15.06 31.0802Z" fill="#7894B0"/>
<path d="M17.75 16.25C17.51 16.34 17.38 16.54 17.38 16.81C17.38 17.03 17.41 17.1 17.57 17.23C17.83 17.45 18.09 17.44 18.32 17.21C18.61 16.91 18.56 16.49 18.19 16.3C18 16.2 17.91 16.19 17.75 16.25Z" fill="#7894B0"/>
<path d="M19.79 16.46C19.7 16.57 19.63 16.7 19.63 16.77C19.63 16.98 19.8 17.25 19.99 17.32C20.12 17.37 21.27 17.39 24.31 17.38L28.46 17.36L28.61 17.19C28.81 16.95 28.81 16.63 28.61 16.43L28.46 16.27H19.97L19.81 16.46H19.79Z" fill="#7894B0"/>
<path d="M14.12 19.26C13.8 19.59 13.91 20.06 14.34 20.2C14.92 20.39 15.34 19.63 14.87 19.24C14.61 19.02 14.35 19.03 14.12 19.26Z" fill="#7894B0"/>
<path d="M16.4399 19.2401C16.1799 19.4501 16.1699 19.8101 16.3999 20.0501L16.5499 20.2101H28.4399L28.5899 20.0501C28.8299 19.8201 28.8099 19.4601 28.5499 19.2401L28.3599 19.0801H16.6399L16.4499 19.2401H16.4399Z" fill="#7894B0"/>
<path d="M17.53 22.1102C17.31 22.3202 17.31 22.7102 17.53 22.9202C17.76 23.1602 18.12 23.1402 18.34 22.8802C18.56 22.6202 18.56 22.3302 18.34 22.1102C18.12 21.8902 17.75 21.8802 17.53 22.1102Z" fill="#7894B0"/>
<path d="M19.83 22.1002C19.69 22.2202 19.66 22.3002 19.66 22.5102C19.66 22.7202 19.7 22.8002 19.83 22.9202L20.01 23.0702H24.17C28.45 23.0702 28.49 23.0702 28.68 22.8302C28.82 22.6502 28.78 22.2702 28.61 22.1102L28.46 21.9502H20.02L19.84 22.1002H19.83Z" fill="#7894B0"/>
</svg>
