<svg width="32" height="33" viewBox="0 0 32 33" fill="none" xmlns="http://www.w3.org/2000/svg">
<path d="M26.35 28.2701C25.91 28.7101 25.2 28.7101 24.76 28.2701L20.08 23.6001C19.87 23.3901 19.75 23.1001 19.75 22.8001V22.0401C18.1 23.3301 16.01 24.1001 13.75 24.1001C8.36 24.1001 4 19.7401 4 14.3501C4 8.9601 8.36 4.6001 13.75 4.6001C19.14 4.6001 23.5 8.9601 23.5 14.3501C23.5 16.6101 22.73 18.7001 21.44 20.3501H22.2C22.5 20.3501 22.79 20.4701 23 20.6801L27.67 25.3501C28.11 25.7901 28.11 26.5001 27.67 26.9401L26.34 28.2701H26.35ZM13.75 7.98009C10.23 7.98009 7.37 10.8301 7.37 14.3601C7.37 17.8901 10.22 20.7401 13.75 20.7401C17.28 20.7401 20.13 17.8901 20.13 14.3601C20.13 10.8301 17.28 7.98009 13.75 7.98009Z" fill="#7893B0"/>
<path d="M18.68 17.6699H8.80005L13.74 9.10986L18.68 17.6699ZM13.21 14.9799H14.27L14.42 11.9399H13.06L13.21 14.9799ZM14.47 16.0699C14.47 15.7099 14.18 15.4199 13.74 15.4199C13.3 15.4199 13.01 15.7099 13.01 16.0699C13.01 16.4299 13.3 16.7099 13.74 16.7099C14.18 16.7099 14.47 16.4299 14.47 16.0699Z" fill="#29ABE2"/>
</svg>
