<svg width="32" height="32" viewBox="0 0 32 32" fill="none" xmlns="http://www.w3.org/2000/svg">
<path d="M2.58995 15.85H0.819946C0.819946 11.88 2.33995 8.12002 5.10995 5.27002L6.36995 6.50002C3.91995 9.02002 2.57995 12.34 2.57995 15.85H2.58995Z" fill="#7993B0"/>
<path d="M8.75005 4.55992L7.80005 3.07992C10.25 1.49992 13.08 0.669922 16.01 0.669922C18.94 0.669922 21.76 1.49992 24.21 3.06992L23.26 4.54992C21.1 3.15992 18.59 2.42992 16.01 2.42992C13.43 2.42992 10.92 3.16992 8.76005 4.55992H8.75005Z" fill="#7993B0"/>
<path d="M31.18 15.85H29.42C29.42 12.34 28.07 9.02002 25.63 6.50002L26.89 5.27002C29.66 8.12002 31.18 11.87 31.18 15.85Z" fill="#7993B0"/>
<mask id="mask0_12083_26829" style="mask-type:luminance" maskUnits="userSpaceOnUse" x="16" y="9" width="11" height="14">
<path d="M26.19 9.25L16 9.32L23.82 22.87L26.88 12.11L26.19 9.25Z" fill="white"/>
</mask>
<g mask="url(#mask0_12083_26829)">
<path d="M14.3901 14.0998L25.6201 10.5298L17.6101 19.1698C16.4501 20.4298 14.4801 20.4998 13.2301 19.3398C11.4801 17.7998 12.1901 14.7498 14.4001 14.1098L14.3901 14.0998Z" fill="#7993B0"/>
</g>
<path d="M19.96 24.1298L18.58 23.4398C18.62 23.2498 18.64 23.0598 18.66 22.8698H14.45C14.34 23.3498 14.12 23.8298 13.75 24.3098C11.58 25.9798 9.19998 24.7998 8.70998 22.8698L8.62998 22.0898C8.63998 21.4098 8.86998 20.6798 9.40998 19.9798C9.63998 19.8098 9.85998 19.6698 10.09 19.5598L13.66 13.3798C13.52 13.2398 13.34 13.1298 13.13 13.0898C12.08 12.9098 11.02 12.9198 10.01 13.0898C9.53998 13.1698 9.20998 13.5798 9.20998 14.0498V15.4298C8.37998 15.7198 7.60998 16.1698 6.95998 16.7298L5.76998 16.0398C5.35998 15.7998 4.82998 15.8898 4.52998 16.2598C3.86998 17.0598 3.15998 17.9698 2.79998 18.9598C2.62998 19.4098 2.81998 19.9098 3.22998 20.1498L4.59998 20.8398C4.43998 21.6998 4.43998 22.5798 4.59998 23.4398L3.22998 24.1298C2.81998 24.3698 2.63998 24.8798 2.79998 25.3198C3.15998 26.3098 3.86998 27.2198 4.52998 28.0198C4.82998 28.3798 5.35998 28.4698 5.76998 28.2398L6.95998 27.5498C7.61998 28.1098 8.37998 28.5598 9.20998 28.8498V30.2298C9.20998 30.7098 9.55998 31.1198 10.03 31.1998C11.08 31.3798 12.13 31.3698 13.14 31.1998C13.61 31.1198 13.95 30.7098 13.95 30.2298V28.8498C14.78 28.5598 15.55 28.1098 16.2 27.5498L17.39 28.2398C17.8 28.4798 18.33 28.3898 18.63 28.0198C19.29 27.2198 20.01 26.3098 20.38 25.3198C20.54 24.8698 20.36 24.3598 19.95 24.1298H19.96Z" fill="#29ABE2"/>
<path d="M20.36 20.8698H11.65L16.01 13.3198L20.37 20.8698H20.36ZM15.53 18.4998H16.47L16.6 15.8198H15.4L15.53 18.4998ZM16.64 19.4598C16.64 19.1398 16.39 18.8898 16 18.8898C15.61 18.8898 15.35 19.1398 15.35 19.4598C15.35 19.7798 15.6 20.0298 16 20.0298C16.4 20.0298 16.64 19.7798 16.64 19.4598Z" fill="#7993B0"/>
</svg>
