<?xml version="1.0" encoding="utf-8"?>
<!-- Generator: Adobe Illustrator 26.2.1, SVG Export Plug-In . SVG Version: 6.00 Build 0)  -->
<svg version="1.1" id="Layer_1" xmlns="http://www.w3.org/2000/svg" xmlns:xlink="http://www.w3.org/1999/xlink" x="0px" y="0px"
	 width="32px" height="32px" viewBox="0 0 32 32" enableBackground="new 0 0 32 32" xml:space="preserve">
<rect fill="none" width="32" height="32"/>
<g>
	<path fill="#7893B0" d="M24.62,13.66c-0.14,0.25-0.44,0.35-0.71,0.25c-0.55-0.21-1.06-0.5-1.5-0.87c-0.22-0.18-0.27-0.49-0.13-0.74
		l0.38-0.67c-0.32-0.38-0.58-0.81-0.75-1.28h-0.77c-0.28,0-0.52-0.2-0.57-0.48c-0.09-0.56-0.1-1.15,0-1.74
		c0.05-0.28,0.29-0.49,0.57-0.49h0.77c0.17-0.47,0.42-0.91,0.75-1.28l-0.38-0.67c-0.14-0.24-0.09-0.56,0.13-0.74
		c0.45-0.37,0.96-0.67,1.5-0.87c0.27-0.1,0.57,0,0.71,0.25L25.01,5C25.5,4.91,26,4.91,26.49,5l0.38-0.67
		c0.14-0.25,0.44-0.35,0.71-0.25c0.55,0.21,1.06,0.5,1.5,0.87c0.22,0.18,0.27,0.49,0.13,0.74l-0.38,0.67
		c0.32,0.38,0.58,0.81,0.75,1.28h0.77c0.28,0,0.52,0.2,0.57,0.48c0.09,0.56,0.1,1.15,0,1.74c-0.05,0.28-0.29,0.49-0.57,0.49h-0.77
		c-0.17,0.47-0.42,0.91-0.75,1.28l0.38,0.67c0.14,0.24,0.09,0.56-0.13,0.74c-0.45,0.37-0.96,0.67-1.5,0.87
		c-0.27,0.1-0.57,0-0.71-0.25l-0.38-0.67c-0.49,0.09-0.99,0.09-1.49,0L24.62,13.66z M26.99,7.76c-1.8-1.39-3.86,0.67-2.47,2.48
		C26.32,11.62,28.38,9.56,26.99,7.76z"/>
	<g>
		<path fill="#29ABE2" d="M20.69,18.23c0.47,0.27,0.68,0.85,0.49,1.36c-0.42,1.13-1.24,2.17-2,3.08c-0.35,0.42-0.95,0.52-1.42,0.25
			l-1.36-0.79c-0.75,0.64-1.62,1.15-2.57,1.49v1.58c0,0.54-0.39,1.01-0.92,1.11c-1.15,0.2-2.36,0.21-3.56,0
			c-0.54-0.09-0.94-0.56-0.94-1.11v-1.58c-0.95-0.34-1.82-0.84-2.57-1.49l-1.36,0.78C4,23.2,3.4,23.09,3.05,22.68
			c-0.76-0.91-1.56-1.95-1.98-3.08c-0.19-0.51,0.02-1.09,0.49-1.36l1.56-0.79c-0.18-0.98-0.18-1.99,0-2.97l-1.56-0.79
			c-0.47-0.27-0.68-0.85-0.49-1.36c0.42-1.13,1.22-2.17,1.98-3.08C3.4,8.82,4,8.72,4.47,8.99l1.36,0.79
			c0.75-0.64,1.62-1.15,2.57-1.49V6.71c0-0.54,0.38-1.01,0.92-1.1c1.15-0.2,2.37-0.21,3.56,0c0.54,0.09,0.94,0.56,0.94,1.11v1.58
			c0.95,0.34,1.82,0.84,2.57,1.49l1.36-0.79c0.47-0.27,1.07-0.17,1.42,0.25c0.76,0.91,1.56,1.95,1.97,3.08
			c0.19,0.51,0,1.09-0.47,1.36l-1.58,0.79c0.18,0.98,0.18,1.99,0,2.98L20.69,18.23z M8.64,13.48c-2.77,3.61,1.35,7.73,4.95,4.96
			C16.37,14.83,12.25,10.71,8.64,13.48z"/>
	</g>
	<path fill="#29ABE2" d="M24.62,27.67c-0.14,0.25-0.44,0.35-0.71,0.25c-0.55-0.21-1.06-0.5-1.5-0.87c-0.22-0.18-0.27-0.49-0.13-0.74
		l0.38-0.67c-0.32-0.38-0.58-0.81-0.75-1.28h-0.77c-0.28,0-0.52-0.2-0.57-0.48c-0.09-0.56-0.1-1.15,0-1.74
		c0.05-0.28,0.29-0.49,0.57-0.49h0.77c0.17-0.47,0.42-0.91,0.75-1.28l-0.38-0.67c-0.14-0.24-0.09-0.56,0.13-0.74
		c0.45-0.37,0.96-0.67,1.5-0.87c0.27-0.1,0.57,0,0.71,0.25l0.38,0.67c0.49-0.09,0.99-0.09,1.49,0l0.38-0.67
		c0.14-0.25,0.44-0.35,0.71-0.25c0.55,0.21,1.06,0.5,1.5,0.87c0.22,0.18,0.27,0.49,0.13,0.74l-0.38,0.67
		c0.32,0.38,0.58,0.81,0.75,1.28h0.77c0.28,0,0.52,0.2,0.57,0.48c0.09,0.56,0.1,1.15,0,1.74c-0.05,0.28-0.29,0.49-0.57,0.49h-0.77
		c-0.17,0.47-0.42,0.91-0.75,1.28l0.38,0.67c0.14,0.24,0.09,0.56-0.13,0.74c-0.45,0.37-0.96,0.67-1.5,0.87
		c-0.27,0.1-0.57,0-0.71-0.25L26.49,27c-0.49,0.09-0.99,0.09-1.49,0L24.62,27.67z M26.99,21.76c-1.8-1.39-3.86,0.67-2.47,2.47
		C26.32,25.63,28.38,23.57,26.99,21.76z"/>
</g>
</svg>
