<svg width="32" height="32" viewBox="0 0 32 32" fill="none" xmlns="http://www.w3.org/2000/svg">
<path d="M15.2198 15.83L9.83984 13.25V19.75L15.2198 22.32V15.83Z" fill="#29ABE2"/>
<path d="M16.7803 15.83L22.1603 13.25V19.75L16.7803 22.32V15.83Z" fill="#7893B0"/>
<path d="M10.7803 12.2497L16.1603 9.67969L21.3103 12.2097L15.9303 14.7797L10.7803 12.2497Z" fill="#29ABE2"/>
<path d="M28.0006 15.9999C28.0006 10.0199 23.6206 5.07992 17.9006 4.16992L19.3806 5.64992L17.6606 7.36992C21.7206 8.14992 24.8006 11.7099 24.8006 15.9999C24.8006 20.2899 21.5506 24.0499 17.3206 24.6799V23.4199L14.3906 26.3499L17.3206 29.2799V27.9099C23.3306 27.2499 28.0006 22.1699 28.0006 15.9899V15.9999Z" fill="#29ABE2"/>
<path d="M17.7 5.63996L14.77 2.70996V4.07996C8.72 4.69996 4 9.78996 4 16C4 22.21 8.43 26.98 14.2 27.85L12.71 26.36L14.42 24.65C10.32 23.9 7.21 20.32 7.21 16C7.21 11.68 10.5 7.89996 14.78 7.29996V8.56996L17.71 5.63996H17.7Z" fill="#7893B0"/>
</svg>
