<svg xmlns="http://www.w3.org/2000/svg" xml:space="preserve" viewBox="0 0 32 32"><path fill="none" d="M0 0h32v32H0z"/><path fill="#7893B0" d="M15.49 6.01v4.38c0 1.72 1.4 3.12 3.12 3.12h4.38v12.5h-14v-20h6.5zm2-2H8.11c-.62 0-1.12.5-1.12 1.12v21.75c0 .62.5 1.12 1.12 1.12h15.75c.62 0 1.12-.5 1.12-1.12V11.5H18.6c-.62 0-1.12-.51-1.12-1.12V4l.01.01z"/><path fill="#7893B0" d="M24.99 9.72v.29h-6v-6h.29c.3 0 .59.12.8.33l4.59 4.59c.21.21.33.5.33.79h-.01z"/><path fill="#29ABE2" d="M12.99 21.11c0-.3-.3-.6-.6-.6h-1.8c-.3 0-.6.3-.6.6v3.3c0 .3.3.6.6.6h1.8c.3 0 .6-.3.6-.6v-3.3zm4.5-6c0-.3-.3-.6-.6-.6h-1.8c-.3 0-.6.3-.6.6v9.3c0 .3.3.6.6.6h1.8c.3 0 .6-.3.6-.6v-9.3zm1.5 9.3c0 .3.3.6.6.6h1.8c.3 0 .6-.3.6-.6v-6.3c0-.3-.3-.6-.6-.6h-1.8c-.3 0-.6.3-.6.6v6.3z"/></svg>