<svg width="33" height="33" viewBox="0 0 33 33" fill="none" xmlns="http://www.w3.org/2000/svg">
<path d="M16.3699 29.8901V31.2901C16.3699 32.1801 15.6499 32.9001 14.7599 32.9001H2.92995C2.03995 32.9001 1.31995 32.1801 1.31995 31.2901V29.8901C1.31995 27.4001 3.33995 25.3701 5.83995 25.3701H6.39995C7.14995 25.7101 7.97995 25.9101 8.84995 25.9101C9.71995 25.9101 10.5499 25.7201 11.2999 25.3701H11.8599C14.3499 25.3701 16.3799 27.3901 16.3799 29.8901H16.3699Z" fill="#7993B0"/>
<path d="M8.84004 24.2899C11.2149 24.2899 13.14 22.3648 13.14 19.9899C13.14 17.6151 11.2149 15.6899 8.84004 15.6899C6.46521 15.6899 4.54004 17.6151 4.54004 19.9899C4.54004 22.3648 6.46521 24.2899 8.84004 24.2899Z" fill="#7993B0"/>
<path d="M32.39 29.8901V31.2901C32.39 32.1801 31.67 32.9001 30.78 32.9001H18.95C18.06 32.9001 17.34 32.1801 17.34 31.2901V29.8901C17.34 27.4001 19.36 25.3701 21.86 25.3701H22.42C23.17 25.7101 24 25.9101 24.87 25.9101C25.74 25.9101 26.57 25.7201 27.32 25.3701H27.88C30.37 25.3701 32.4 27.3901 32.4 29.8901H32.39Z" fill="#7993B0"/>
<path d="M24.8601 24.2899C27.2349 24.2899 29.1601 22.3648 29.1601 19.9899C29.1601 17.6151 27.2349 15.6899 24.8601 15.6899C22.4852 15.6899 20.5601 17.6151 20.5601 19.9899C20.5601 22.3648 22.4852 24.2899 24.8601 24.2899Z" fill="#7993B0"/>
<path d="M24.3 13.8902C21.82 14.1102 19.76 15.8202 19.02 18.1202H14.68C13.96 15.8802 11.98 14.2002 9.57996 13.9102C10.1 12.0002 11.85 10.5902 13.93 10.5902H14.49L14.35 8.64016C13.31 7.85016 12.64 6.61016 12.64 5.21016C12.64 2.83016 14.57 0.910156 16.94 0.910156C19.31 0.910156 21.24 2.84016 21.24 5.21016C21.24 6.61016 20.57 7.86016 19.53 8.64016L19.39 10.5902H19.95C22.02 10.5902 23.77 11.9902 24.3 13.8902ZM15.84 11.3802H18.1L18.41 4.92015H15.53L15.84 11.3802ZM18.52 13.6902C18.52 12.9202 17.91 12.3102 16.98 12.3102C16.05 12.3102 15.42 12.9202 15.42 13.6902C15.42 14.4602 16.03 15.0602 16.98 15.0602C17.93 15.0602 18.52 14.4602 18.52 13.6902Z" fill="#29ABE2"/>
</svg>
