<svg width="100" height="100" viewBox="0 0 100 100" fill="none" xmlns="http://www.w3.org/2000/svg">
<path d="M34.21 35.6803L46.99 40.3303V57.7503L34.21 50.8903V35.6903M32.89 33.7803V51.6703L48.32 59.9603V39.4003L32.89 33.7903V33.7803Z" fill="#7993B0"/>
<path d="M49.52 26.4102L62.33 31.0702L49.52 35.7302L36.71 31.0702L49.52 26.4102ZM49.52 24.9902L32.82 31.0602L49.52 37.1302L66.21 31.0602L49.52 24.9902Z" fill="#7993B0"/>
<path d="M50.78 41.7703V60.2503L55.21 57.8403L58.74 44.4503L54.33 46.8503L55.04 41.9703L64.04 38.0803L59.36 55.5803L66.38 51.8703V33.7803L50.78 39.4603V41.7703Z" fill="#7993B0"/>
<path d="M26.43 85.04C25.07 85.04 23.96 83.93 23.96 82.57C23.96 81.21 25.07 80.1 26.43 80.1H47.53V71.57H11.84C8.62 71.57 6 68.95 6 65.73V20.84C6 17.62 8.62 15 11.84 15H88.17C91.39 15 94.01 17.62 94.01 20.84V65.74C94.01 68.96 91.39 71.58 88.17 71.58H52.48V80.11H73.58C74.94 80.11 76.05 81.22 76.05 82.58C76.05 83.94 74.94 85.05 73.58 85.05H26.43V85.04ZM12.68 19.94C11.72 19.94 10.94 20.72 10.94 21.68V64.89C10.94 65.85 11.72 66.63 12.68 66.63H87.32C88.28 66.63 89.06 65.85 89.06 64.89V21.68C89.06 20.72 88.28 19.94 87.32 19.94H12.68Z" fill="#7993B0"/>
</svg>
