<svg width="48" height="44" viewBox="0 0 48 44" fill="none" xmlns="http://www.w3.org/2000/svg">
<path d="M3.7793 22.1104C3.7793 11.0604 12.7293 2.11035 23.7793 2.11035C34.8293 2.11035 43.7793 11.0604 43.7793 22.1104" stroke="white" stroke-width="3.81" stroke-linecap="round" stroke-linejoin="round"/>
<path d="M45.1106 24.1904V34.2904C45.1106 36.3804 43.4206 38.3604 41.3506 38.6804L25.6406 41.1104" stroke="#707070" stroke-width="0.86" stroke-miterlimit="10"/>
<path d="M47.1507 18.2199C47.1507 16.3753 45.6553 14.8799 43.8107 14.8799C41.9661 14.8799 40.4707 16.3753 40.4707 18.2199V23.7299C40.4707 25.5745 41.9661 27.0699 43.8107 27.0699C45.6553 27.0699 47.1507 25.5745 47.1507 23.7299V18.2199Z" fill="#AAAAAA"/>
<path d="M2.34961 4.71973V18.6297" stroke="#707070" stroke-width="0.86" stroke-miterlimit="10"/>
<path d="M2.34945 5.87957C2.9901 5.87957 3.50945 5.36022 3.50945 4.71957C3.50945 4.07892 2.9901 3.55957 2.34945 3.55957C1.7088 3.55957 1.18945 4.07892 1.18945 4.71957C1.18945 5.36022 1.7088 5.87957 2.34945 5.87957Z" fill="white"/>
<path d="M0.519218 23.7401C0.519218 25.5847 2.01459 27.0801 3.85922 27.0801C5.70385 27.0801 7.19922 25.5847 7.19922 23.7401L7.19922 18.2301C7.19922 16.3854 5.70385 14.8901 3.85922 14.8901C2.01459 14.8901 0.519218 16.3854 0.519218 18.2301L0.519218 23.7401Z" fill="#AAAAAA"/>
<path d="M23.7793 42.1104C34.825 42.1104 43.7793 33.156 43.7793 22.1104C43.7793 11.0647 34.825 2.11035 23.7793 2.11035C12.7336 2.11035 3.7793 11.0647 3.7793 22.1104C3.7793 33.156 12.7336 42.1104 23.7793 42.1104Z" fill="#7894B0"/>
<path d="M23.7805 2.10961C18.6705 2.10961 14.0205 4.01961 10.4805 7.16961L11.2505 9.08961C11.7705 10.3996 13.2605 11.4596 14.5705 11.4596H32.9905C34.3005 11.4596 35.7705 10.3996 36.2705 9.08961L37.0305 7.11961C33.5005 3.99961 28.8705 2.09961 23.7905 2.09961L23.7805 2.10961Z" fill="#424242"/>
<path d="M23.9398 9.22035C24.7295 9.22035 25.3698 8.58012 25.3698 7.79035C25.3698 7.00058 24.7295 6.36035 23.9398 6.36035C23.15 6.36035 22.5098 7.00058 22.5098 7.79035C22.5098 8.58012 23.15 9.22035 23.9398 9.22035Z" fill="white"/>
<path d="M31.4305 15.6504C27.6105 15.6504 25.7305 18.1504 23.7805 18.1504C21.8305 18.1504 19.9505 15.6504 16.1305 15.6504C11.9005 15.6504 8.48047 19.0804 8.48047 23.3004C8.48047 29.6504 13.0305 37.9604 23.7805 37.9604C34.5305 37.9604 39.0805 29.6504 39.0805 23.3004C39.0805 19.0704 35.6505 15.6504 31.4305 15.6504Z" fill="white"/>
<path d="M30.3409 21.1504H30.3309C29.4362 21.1504 28.7109 21.8757 28.7109 22.7704V25.4504C28.7109 26.3451 29.4362 27.0704 30.3309 27.0704H30.3409C31.2356 27.0704 31.9609 26.3451 31.9609 25.4504V22.7704C31.9609 21.8757 31.2356 21.1504 30.3409 21.1504Z" fill="black"/>
<path d="M17.2198 21.1504H17.2098C16.3151 21.1504 15.5898 21.8757 15.5898 22.7704V25.4504C15.5898 26.3451 16.3151 27.0704 17.2098 27.0704H17.2198C18.1145 27.0704 18.8398 26.3451 18.8398 25.4504V22.7704C18.8398 21.8757 18.1145 21.1504 17.2198 21.1504Z" fill="black"/>
<path d="M26.5805 29.8203C26.0705 30.6003 25.0005 31.1403 23.7605 31.1403C22.5205 31.1403 21.5105 30.6303 20.9805 29.8903" stroke="black" stroke-width="2.14" stroke-linecap="round" stroke-linejoin="round"/>
<path d="M39.3906 38.9805L25.6406 41.1105" stroke="#707070" stroke-width="0.86" stroke-miterlimit="10"/>
<path d="M28.1979 42.4026C29.1094 42.2617 29.734 41.4085 29.5931 40.4971C29.4521 39.5856 28.599 38.9609 27.6875 39.1019L23.0822 39.814C22.1708 39.9549 21.5461 40.8081 21.687 41.7196C21.828 42.6311 22.6812 43.2557 23.5926 43.1148L28.1979 42.4026Z" fill="black"/>
</svg>
