<svg width="65" height="25" viewBox="0 0 65 25" fill="none" xmlns="http://www.w3.org/2000/svg">
<path d="M42.7505 4.56973C42.4105 3.68972 41.8405 2.89973 41.0305 2.18973C39.7105 1.03973 38.0305 0.469727 36.0105 0.469727C33.9905 0.469727 32.3005 1.03973 30.9705 2.18973C30.1705 2.88973 29.6105 3.68972 29.2805 4.56973C28.9405 5.54973 28.7805 6.72973 28.7805 8.07973V13.0597C28.7805 15.8597 27.6805 17.2597 25.4605 17.2597C23.2405 17.2597 22.1405 15.8597 22.1405 13.0597V0.479729H18.2305V13.1597C18.2305 14.7097 18.3905 15.8797 18.7205 16.6697C19.0605 17.5497 19.6305 18.3397 20.4405 19.0497C21.7605 20.1997 23.4305 20.7697 25.4605 20.7697C27.4905 20.7697 29.1705 20.1997 30.5005 19.0497C31.3005 18.3497 31.8605 17.5497 32.1905 16.6697C32.5305 15.6897 32.6905 14.5097 32.6905 13.1597V8.17973C32.6905 5.37973 33.7905 3.97973 36.0105 3.97973C38.2305 3.97973 39.3305 5.37973 39.3305 8.17973V20.7597H43.2305V8.07973C43.2305 6.52973 43.0705 5.35972 42.7505 4.56973Z" fill="#7894B0"/>
<path d="M10.7297 0.5V16.84C10.7297 19.64 9.62969 21.04 7.40969 21.04C5.18969 21.04 4.08969 19.64 4.08969 16.84V14.45H0.179688V16.94C0.179688 18.49 0.339685 19.66 0.669685 20.45C1.00969 21.33 1.57969 22.12 2.38969 22.83C3.70969 23.98 5.37969 24.55 7.40969 24.55C9.43969 24.55 11.1197 23.98 12.4497 22.83C13.2497 22.13 13.8097 21.33 14.1397 20.45C14.4797 19.47 14.6397 18.29 14.6397 16.94V0.5H10.7297Z" fill="#7894B0"/>
<path d="M54.8195 20.7497C53.7895 20.7497 52.7795 20.5997 51.8095 20.2897C51.6495 20.2397 51.5595 20.0597 51.6095 19.8997C51.6595 19.7397 51.8295 19.6497 51.9995 19.6997C52.9095 19.9897 53.8595 20.1297 54.8295 20.1297C58.7695 20.1297 62.3495 17.6497 63.7395 13.9597C63.7995 13.7997 63.9795 13.7197 64.1395 13.7797C64.2995 13.8397 64.3795 14.0197 64.3195 14.1797C62.8195 18.1097 59.0095 20.7497 54.8195 20.7497Z" fill="#7894B0"/>
<path d="M47.7895 17.7797C47.7095 17.7797 47.6295 17.7497 47.5695 17.6797C45.7095 15.7697 44.6895 13.2597 44.6895 10.6097C44.6895 5.01973 49.2395 0.469727 54.8295 0.469727C60.0895 0.469727 64.5295 4.57973 64.9395 9.81973C64.9495 9.98973 64.8295 10.1397 64.6495 10.1597C64.4895 10.1797 64.3294 10.0497 64.3094 9.86973C63.9294 4.94973 59.7595 1.08972 54.8195 1.08972C49.5695 1.08972 45.2995 5.35973 45.2995 10.6097C45.2995 13.0997 46.2595 15.4597 48.0095 17.2497C48.1295 17.3697 48.1295 17.5697 48.0095 17.6897C47.9495 17.7497 47.8695 17.7797 47.7895 17.7797Z" fill="#7894B0"/>
<path d="M54.8188 18.3698C50.5388 18.3698 47.0488 14.8898 47.0488 10.5998C47.0488 9.65984 47.2088 8.74984 47.5388 7.86984C47.5988 7.70984 47.7788 7.62984 47.9388 7.68984C48.0988 7.74984 48.1788 7.92984 48.1188 8.08984C47.8188 8.88984 47.6588 9.72984 47.6588 10.5898C47.6588 14.5298 50.8588 17.7298 54.7988 17.7298C58.7388 17.7298 61.9388 14.5398 61.9388 10.5998C61.9388 9.77984 61.7988 8.97984 61.5288 8.21984C61.4688 8.05984 61.5588 7.87984 61.7188 7.81984C61.8788 7.75984 62.0588 7.84984 62.1188 8.00984C62.4088 8.83984 62.5588 9.70984 62.5588 10.5998C62.5588 14.8898 59.0688 18.3698 54.7888 18.3698H54.8188Z" fill="#7894B0"/>
<path d="M49.6205 5.58984C49.5405 5.58984 49.4605 5.55985 49.4005 5.48985C49.2805 5.36985 49.2805 5.16985 49.4005 5.04985C50.8605 3.61985 52.7805 2.83984 54.8205 2.83984C56.8605 2.83984 58.6605 3.57985 60.1105 4.91985C60.2405 5.02985 60.2405 5.23985 60.1205 5.35985C60.0105 5.48985 59.8105 5.48984 59.6805 5.37984C58.3605 4.13984 56.6205 3.46985 54.8205 3.46985C53.0205 3.46985 51.1805 4.18985 49.8405 5.49985C49.7805 5.55985 49.6905 5.58984 49.6205 5.58984Z" fill="#7894B0"/>
<path d="M54.8193 15.9898C53.8893 15.9898 52.9793 15.7498 52.1793 15.2998C52.0293 15.2198 51.9793 15.0298 52.0593 14.8798C52.1393 14.7298 52.3293 14.6798 52.4793 14.7598C53.1893 15.1598 53.9893 15.3698 54.8093 15.3698C56.4493 15.3698 57.9593 14.5298 58.8393 13.1398C58.9293 12.9898 59.1293 12.9498 59.2693 13.0398C59.4193 13.1298 59.4593 13.3298 59.3693 13.4698C58.3693 15.0498 56.6693 15.9898 54.8093 15.9898H54.8193Z" fill="#7894B0"/>
<path d="M50.5594 13.6695C50.4594 13.6695 50.3595 13.6195 50.2995 13.5295C49.7395 12.6595 49.4395 11.6495 49.4395 10.6095C49.4395 7.63949 51.8595 5.22949 54.8195 5.22949C57.7795 5.22949 60.1994 7.64949 60.1994 10.6095C60.1994 10.7695 60.1995 10.9295 60.1795 11.0995C60.1595 11.2695 59.9994 11.3995 59.8394 11.3895C59.6694 11.3795 59.5395 11.2295 59.5495 11.0495C59.5595 10.9095 59.5695 10.7595 59.5695 10.6195C59.5695 7.99949 57.4294 5.85949 54.8094 5.85949C52.1894 5.85949 50.0495 7.99949 50.0495 10.6195C50.0495 11.5395 50.3194 12.4295 50.8094 13.1995C50.9094 13.3495 50.8594 13.5395 50.7094 13.6295C50.6594 13.6595 50.5995 13.6695 50.5495 13.6695H50.5594Z" fill="#7894B0"/>
<path d="M54.8195 13.7797C54.5195 13.7797 54.2295 13.7397 53.9495 13.6597C53.7895 13.6197 53.6895 13.4397 53.7295 13.2697C53.7695 13.0997 53.9495 13.0097 54.1195 13.0497C54.3495 13.1097 54.5795 13.1497 54.8195 13.1497C55.7295 13.1497 56.5795 12.6597 57.0295 11.8697C57.1195 11.7197 57.3095 11.6697 57.4495 11.7597C57.5995 11.8497 57.6495 12.0397 57.5595 12.1797C56.9995 13.1597 55.9395 13.7797 54.8095 13.7797H54.8195Z" fill="#7894B0"/>
<path d="M52.8506 12.9899C52.7706 12.9899 52.7006 12.9599 52.6306 12.8999C52.0006 12.2999 51.6406 11.4699 51.6406 10.5999C51.6406 8.84992 53.0706 7.41992 54.8206 7.41992C56.5706 7.41992 57.9906 8.84992 57.9906 10.5999C57.9906 10.7699 57.8506 10.9099 57.6806 10.9099C57.5106 10.9099 57.3706 10.7699 57.3706 10.5999C57.3706 9.18992 56.2306 8.04993 54.8206 8.04993C53.4106 8.04993 52.2706 9.18992 52.2706 10.5999C52.2706 11.2999 52.5506 11.9599 53.0606 12.4399C53.1906 12.5599 53.1906 12.7599 53.0706 12.8799C53.0106 12.9399 52.9206 12.9799 52.8406 12.9799L52.8506 12.9899Z" fill="#7894B0"/>
<path d="M54.8205 12.1898C54.7105 12.1898 54.6005 12.1798 54.5005 12.1598C53.7605 12.0098 53.2305 11.3498 53.2305 10.6098C53.2305 10.5298 53.2305 10.4498 53.2505 10.3798C53.2805 10.2098 53.4405 10.0898 53.6005 10.1198C53.7705 10.1498 53.8905 10.2998 53.8605 10.4698C53.8605 10.5098 53.8505 10.5698 53.8505 10.6098C53.8505 11.0698 54.1705 11.4698 54.6205 11.5498C54.6805 11.5598 54.7505 11.5698 54.8205 11.5698C54.9905 11.5698 55.1305 11.7098 55.1305 11.8798C55.1305 12.0498 54.9905 12.1898 54.8205 12.1898Z" fill="#7894B0"/>
<path d="M55.9203 11.5597C55.8603 11.5597 55.8103 11.5497 55.7603 11.5197C55.6103 11.4297 55.5603 11.2397 55.6503 11.0997C55.7103 10.9897 55.7603 10.8697 55.7703 10.7497C55.8003 10.5797 55.9503 10.4597 56.1203 10.4797C56.2903 10.5097 56.4103 10.6597 56.3903 10.8297C56.3603 11.0397 56.2903 11.2397 56.1903 11.4197C56.1503 11.5197 56.0403 11.5697 55.9303 11.5697L55.9203 11.5597Z" fill="#7894B0"/>
<path d="M55.6699 9.97002C55.5899 9.97002 55.5199 9.94002 55.4599 9.89002C55.1799 9.64002 54.7599 9.57002 54.4099 9.73002C54.2499 9.80002 54.0699 9.73002 53.9999 9.58002C53.9299 9.42002 53.9999 9.24002 54.1499 9.17002C54.7099 8.91002 55.4099 9.02002 55.8699 9.44002C55.9999 9.55002 56.0099 9.75002 55.8999 9.88002C55.8399 9.94002 55.7599 9.98002 55.6699 9.98002V9.97002Z" fill="#7894B0"/>
</svg>
