<svg width="22" height="22" viewBox="0 0 22 22" fill="none" xmlns="http://www.w3.org/2000/svg">
<path d="M14.0571 17.1921L14.0388 17.2104L11.1513 20.0979C8.60292 22.6462 4.45958 22.6462 1.91125 20.0979C-0.637083 17.5496 -0.637083 13.4063 1.91125 10.8579L3.50625 9.26292C3.92792 8.84125 4.66125 9.12542 4.67958 9.72125C4.70708 10.4821 4.84458 11.2521 5.09208 11.9854C5.17458 12.2329 5.11958 12.5171 4.92708 12.7004L4.36792 13.2596C3.16708 14.4604 3.13042 16.4221 4.32208 17.6412C5.52292 18.8696 7.50292 18.8787 8.72208 17.6596L11.6096 14.7721C12.8196 13.5621 12.8196 11.6004 11.6096 10.3996C11.4538 10.2438 11.2888 10.1154 11.1696 10.0329C11.0138 9.92292 10.8763 9.68458 10.8671 9.49208C10.8488 9.03375 11.0138 8.56625 11.3713 8.20875L12.2788 7.30125C12.5171 7.06292 12.8838 7.03542 13.1588 7.22792C13.4246 7.41125 13.8188 7.74125 14.0388 7.97042C16.6054 10.5371 16.5688 14.6621 14.0571 17.1921V17.1921ZM20.0979 11.1513L18.5029 12.7463C18.0812 13.1679 17.3479 12.8838 17.3296 12.2879C17.3021 11.5271 17.1646 10.7571 16.9171 10.0238C16.8346 9.77625 16.8896 9.49208 17.0821 9.30875L17.6412 8.74958C18.8421 7.54875 18.8788 5.58708 17.6871 4.36792C16.4863 3.13958 14.5063 3.13042 13.2871 4.34958L10.3996 7.23708C9.18958 8.44708 9.18958 10.4088 10.3996 11.6096C10.5554 11.7654 10.7204 11.8938 10.8396 11.9763C10.9954 12.0863 11.1329 12.3246 11.1421 12.5171C11.1604 12.9754 10.9954 13.4429 10.6379 13.8004L9.73042 14.7079C9.49208 14.9463 9.12542 14.9738 8.85042 14.7813C8.58458 14.5979 8.19042 14.2679 7.97042 14.0388C5.40375 11.4721 5.44042 7.34708 7.95208 4.81708L7.97042 4.79875L10.8579 1.91125C13.4063 -0.637083 17.5496 -0.637083 20.0979 1.91125C22.6462 4.45958 22.6462 8.60292 20.0979 11.1513V11.1513Z" fill="#7893B0"/>
</svg>
