<svg width="28" height="25" viewBox="0 0 28 25" fill="none" xmlns="http://www.w3.org/2000/svg">
<path d="M6.58008 10.2291C6.58008 9.60911 7.08008 9.10912 7.70008 9.10912L17.0801 9.10912L17.0801 4.23909C17.0801 3.23909 18.2901 2.7391 19.0001 3.4391L27.2501 11.6791C27.6901 12.1191 27.6901 12.8291 27.2501 13.2691L19.0001 21.5091C18.2901 22.2191 17.0801 21.7191 17.0801 20.7091L17.0801 15.8491L7.70008 15.8491C7.08008 15.8491 6.58008 15.3491 6.58008 14.7291L6.58008 10.2291Z" fill="#FF0000"/>
<path d="M0.620079 12.4798C0.620078 18.9636 1.2827 24.2198 2.10008 24.2198C2.91746 24.2198 3.58008 18.9636 3.58008 12.4798C3.58008 5.99594 2.91746 0.739746 2.10008 0.739746C1.2827 0.739746 0.620079 5.99594 0.620079 12.4798Z" fill="#7894B0"/>
</svg>
