<svg width="80" height="89" viewBox="0 0 80 89" fill="none" xmlns="http://www.w3.org/2000/svg">
<path d="M80 67.1199H0V39.1099H80V67.1199ZM76 63.1199V43.1099H4V63.1199H76Z" fill="#7893B0"/>
<path d="M80 39.1099H0L11 0.879883H67.23L79.99 39.1099H80ZM34.42 17.5499H52.95L54.06 25.0499L65.96 15.6599L51.27 6.26988L52.38 13.7699H34.5L34.41 17.5299L34.42 17.5499ZM45.2 26.2899H25.16L25.93 18.7899L10.1 28.1799L24.01 37.5699L24.78 30.0699H45.47L45.2 26.3099V26.2899Z" fill="#7893B0"/>
<path d="M17.06 47.1099H8V51.1099H17.06V47.1099Z" fill="#7893B0"/>
<path d="M17.06 55.1099H8V59.1099H17.06V55.1099Z" fill="#7893B0"/>
<path d="M23.0601 51.1099C24.1646 51.1099 25.0601 50.2144 25.0601 49.1099C25.0601 48.0053 24.1646 47.1099 23.0601 47.1099C21.9555 47.1099 21.0601 48.0053 21.0601 49.1099C21.0601 50.2144 21.9555 51.1099 23.0601 51.1099Z" fill="#7893B0"/>
<path d="M30.8501 51.1099C31.9547 51.1099 32.8501 50.2144 32.8501 49.1099C32.8501 48.0053 31.9547 47.1099 30.8501 47.1099C29.7455 47.1099 28.8501 48.0053 28.8501 49.1099C28.8501 50.2144 29.7455 51.1099 30.8501 51.1099Z" fill="#7893B0"/>
<path d="M38.6299 51.1099C39.7345 51.1099 40.6299 50.2144 40.6299 49.1099C40.6299 48.0053 39.7345 47.1099 38.6299 47.1099C37.5253 47.1099 36.6299 48.0053 36.6299 49.1099C36.6299 50.2144 37.5253 51.1099 38.6299 51.1099Z" fill="#7893B0"/>
<path d="M46.4199 51.1099C47.5245 51.1099 48.4199 50.2144 48.4199 49.1099C48.4199 48.0053 47.5245 47.1099 46.4199 47.1099C45.3154 47.1099 44.4199 48.0053 44.4199 49.1099C44.4199 50.2144 45.3154 51.1099 46.4199 51.1099Z" fill="#7893B0"/>
<path d="M54.1999 51.1099C55.3045 51.1099 56.1999 50.2144 56.1999 49.1099C56.1999 48.0053 55.3045 47.1099 54.1999 47.1099C53.0954 47.1099 52.2 48.0053 52.2 49.1099C52.2 50.2144 53.0954 51.1099 54.1999 51.1099Z" fill="#7893B0"/>
<path d="M61.99 51.1099C63.0946 51.1099 63.99 50.2144 63.99 49.1099C63.99 48.0053 63.0946 47.1099 61.99 47.1099C60.8854 47.1099 59.99 48.0053 59.99 49.1099C59.99 50.2144 60.8854 51.1099 61.99 51.1099Z" fill="#7893B0"/>
<path d="M69.77 51.1099C70.8746 51.1099 71.77 50.2144 71.77 49.1099C71.77 48.0053 70.8746 47.1099 69.77 47.1099C68.6654 47.1099 67.77 48.0053 67.77 49.1099C67.77 50.2144 68.6654 51.1099 69.77 51.1099Z" fill="#7893B0"/>
<path d="M23.0601 59.1099C24.1646 59.1099 25.0601 58.2144 25.0601 57.1099C25.0601 56.0053 24.1646 55.1099 23.0601 55.1099C21.9555 55.1099 21.0601 56.0053 21.0601 57.1099C21.0601 58.2144 21.9555 59.1099 23.0601 59.1099Z" fill="#7893B0"/>
<path d="M30.8501 59.1099C31.9547 59.1099 32.8501 58.2144 32.8501 57.1099C32.8501 56.0053 31.9547 55.1099 30.8501 55.1099C29.7455 55.1099 28.8501 56.0053 28.8501 57.1099C28.8501 58.2144 29.7455 59.1099 30.8501 59.1099Z" fill="#7893B0"/>
<path d="M38.6299 59.1099C39.7345 59.1099 40.6299 58.2144 40.6299 57.1099C40.6299 56.0053 39.7345 55.1099 38.6299 55.1099C37.5253 55.1099 36.6299 56.0053 36.6299 57.1099C36.6299 58.2144 37.5253 59.1099 38.6299 59.1099Z" fill="#7893B0"/>
<path d="M46.4199 59.1099C47.5245 59.1099 48.4199 58.2144 48.4199 57.1099C48.4199 56.0053 47.5245 55.1099 46.4199 55.1099C45.3154 55.1099 44.4199 56.0053 44.4199 57.1099C44.4199 58.2144 45.3154 59.1099 46.4199 59.1099Z" fill="#7893B0"/>
<path d="M54.1999 59.1099C55.3045 59.1099 56.1999 58.2144 56.1999 57.1099C56.1999 56.0053 55.3045 55.1099 54.1999 55.1099C53.0954 55.1099 52.2 56.0053 52.2 57.1099C52.2 58.2144 53.0954 59.1099 54.1999 59.1099Z" fill="#7893B0"/>
<path d="M61.99 59.1099C63.0946 59.1099 63.99 58.2144 63.99 57.1099C63.99 56.0053 63.0946 55.1099 61.99 55.1099C60.8854 55.1099 59.99 56.0053 59.99 57.1099C59.99 58.2144 60.8854 59.1099 61.99 59.1099Z" fill="#7893B0"/>
<path d="M69.77 59.1099C70.8746 59.1099 71.77 58.2144 71.77 57.1099C71.77 56.0053 70.8746 55.1099 69.77 55.1099C68.6654 55.1099 67.77 56.0053 67.77 57.1099C67.77 58.2144 68.6654 59.1099 69.77 59.1099Z" fill="#7893B0"/>
<path d="M80 67.1199H0V39.1099H80V67.1199ZM76 63.1199V43.1099H4V63.1199H76Z" fill="#7893B0"/>
<path d="M80 39.1099H0L11 0.879883H67.23L79.99 39.1099H80ZM34.42 17.5499H52.95L54.06 25.0499L65.96 15.6599L51.27 6.26988L52.38 13.7699H34.5L34.41 17.5299L34.42 17.5499ZM45.2 26.2899H25.16L25.93 18.7899L10.1 28.1799L24.01 37.5699L24.78 30.0699H45.47L45.2 26.3099V26.2899Z" fill="#7893B0"/>
<path d="M17.06 47.1099H8V51.1099H17.06V47.1099Z" fill="#7893B0"/>
<path d="M17.06 55.1099H8V59.1099H17.06V55.1099Z" fill="#7893B0"/>
<path d="M23.0601 51.1099C24.1646 51.1099 25.0601 50.2144 25.0601 49.1099C25.0601 48.0053 24.1646 47.1099 23.0601 47.1099C21.9555 47.1099 21.0601 48.0053 21.0601 49.1099C21.0601 50.2144 21.9555 51.1099 23.0601 51.1099Z" fill="#7893B0"/>
<path d="M30.8501 51.1099C31.9547 51.1099 32.8501 50.2144 32.8501 49.1099C32.8501 48.0053 31.9547 47.1099 30.8501 47.1099C29.7455 47.1099 28.8501 48.0053 28.8501 49.1099C28.8501 50.2144 29.7455 51.1099 30.8501 51.1099Z" fill="#7893B0"/>
<path d="M38.6299 51.1099C39.7345 51.1099 40.6299 50.2144 40.6299 49.1099C40.6299 48.0053 39.7345 47.1099 38.6299 47.1099C37.5253 47.1099 36.6299 48.0053 36.6299 49.1099C36.6299 50.2144 37.5253 51.1099 38.6299 51.1099Z" fill="#7893B0"/>
<path d="M46.4199 51.1099C47.5245 51.1099 48.4199 50.2144 48.4199 49.1099C48.4199 48.0053 47.5245 47.1099 46.4199 47.1099C45.3154 47.1099 44.4199 48.0053 44.4199 49.1099C44.4199 50.2144 45.3154 51.1099 46.4199 51.1099Z" fill="#7893B0"/>
<path d="M54.1999 51.1099C55.3045 51.1099 56.1999 50.2144 56.1999 49.1099C56.1999 48.0053 55.3045 47.1099 54.1999 47.1099C53.0954 47.1099 52.2 48.0053 52.2 49.1099C52.2 50.2144 53.0954 51.1099 54.1999 51.1099Z" fill="#7893B0"/>
<path d="M61.99 51.1099C63.0946 51.1099 63.99 50.2144 63.99 49.1099C63.99 48.0053 63.0946 47.1099 61.99 47.1099C60.8854 47.1099 59.99 48.0053 59.99 49.1099C59.99 50.2144 60.8854 51.1099 61.99 51.1099Z" fill="#7893B0"/>
<path d="M69.77 51.1099C70.8746 51.1099 71.77 50.2144 71.77 49.1099C71.77 48.0053 70.8746 47.1099 69.77 47.1099C68.6654 47.1099 67.77 48.0053 67.77 49.1099C67.77 50.2144 68.6654 51.1099 69.77 51.1099Z" fill="#7893B0"/>
<path d="M23.0601 59.1099C24.1646 59.1099 25.0601 58.2144 25.0601 57.1099C25.0601 56.0053 24.1646 55.1099 23.0601 55.1099C21.9555 55.1099 21.0601 56.0053 21.0601 57.1099C21.0601 58.2144 21.9555 59.1099 23.0601 59.1099Z" fill="#7893B0"/>
<path d="M30.8501 59.1099C31.9547 59.1099 32.8501 58.2144 32.8501 57.1099C32.8501 56.0053 31.9547 55.1099 30.8501 55.1099C29.7455 55.1099 28.8501 56.0053 28.8501 57.1099C28.8501 58.2144 29.7455 59.1099 30.8501 59.1099Z" fill="#7893B0"/>
<path d="M38.6299 59.1099C39.7345 59.1099 40.6299 58.2144 40.6299 57.1099C40.6299 56.0053 39.7345 55.1099 38.6299 55.1099C37.5253 55.1099 36.6299 56.0053 36.6299 57.1099C36.6299 58.2144 37.5253 59.1099 38.6299 59.1099Z" fill="#7893B0"/>
<path d="M46.4199 59.1099C47.5245 59.1099 48.4199 58.2144 48.4199 57.1099C48.4199 56.0053 47.5245 55.1099 46.4199 55.1099C45.3154 55.1099 44.4199 56.0053 44.4199 57.1099C44.4199 58.2144 45.3154 59.1099 46.4199 59.1099Z" fill="#7893B0"/>
<path d="M54.1999 59.1099C55.3045 59.1099 56.1999 58.2144 56.1999 57.1099C56.1999 56.0053 55.3045 55.1099 54.1999 55.1099C53.0954 55.1099 52.2 56.0053 52.2 57.1099C52.2 58.2144 53.0954 59.1099 54.1999 59.1099Z" fill="#7893B0"/>
<path d="M61.99 59.1099C63.0946 59.1099 63.99 58.2144 63.99 57.1099C63.99 56.0053 63.0946 55.1099 61.99 55.1099C60.8854 55.1099 59.99 56.0053 59.99 57.1099C59.99 58.2144 60.8854 59.1099 61.99 59.1099Z" fill="#7893B0"/>
<path d="M69.77 59.1099C70.8746 59.1099 71.77 58.2144 71.77 57.1099C71.77 56.0053 70.8746 55.1099 69.77 55.1099C68.6654 55.1099 67.77 56.0053 67.77 57.1099C67.77 58.2144 68.6654 59.1099 69.77 59.1099Z" fill="#7893B0"/>
<path d="M40 89C48.8366 89 56 81.8366 56 73C56 64.1634 48.8366 57 40 57C31.1634 57 24 64.1634 24 73C24 81.8366 31.1634 89 40 89Z" fill="url(#paint0_radial_0_1)"/>
<defs>
<radialGradient id="paint0_radial_0_1" cx="0" cy="0" r="1" gradientUnits="userSpaceOnUse" gradientTransform="translate(40 73) scale(16)">
<stop stop-color="#FF0000"/>
<stop offset="1" stop-color="#00142B"/>
</radialGradient>
</defs>
</svg>
