<svg width="30" height="25" viewBox="0 0 30 25" fill="none" xmlns="http://www.w3.org/2000/svg">
<path d="M29.2197 14.7298C29.2197 15.3498 28.7197 15.8498 28.0997 15.8498L18.7197 15.8498L18.7197 20.7198C18.7197 21.7198 17.5097 22.2198 16.7997 21.5198L8.54973 13.2798C8.10973 12.8398 8.10973 12.1298 8.54973 11.6898L16.7997 3.44981C17.5097 2.73981 18.7197 3.23981 18.7197 4.24981L18.7197 9.10981L28.0997 9.10981C28.7197 9.10981 29.2197 9.60981 29.2197 10.2298L29.2197 14.7298V14.7298Z" fill="#22B573"/>
<path d="M0.259727 12.48C0.259727 18.9638 0.922345 24.22 1.73973 24.22C2.55711 24.22 3.21973 18.9638 3.21973 12.48C3.21973 5.99616 2.55711 0.73999 1.73973 0.73999C0.922346 0.73999 0.259727 5.99616 0.259727 12.48Z" fill="#7894B0"/>
</svg>
