<svg width="80" height="92" viewBox="0 0 80 92" fill="none" xmlns="http://www.w3.org/2000/svg">
<path d="M80 91.1199H0V63.1099H80V91.1199ZM76 87.1199V67.1099H4V87.1199H76Z" fill="#7893B0"/>
<path d="M80 63.1099H0L11 24.8799H67.23L79.99 63.1099H80ZM34.42 41.5499H52.95L54.06 49.0499L65.96 39.6599L51.27 30.2699L52.38 37.7699H34.5L34.41 41.5299L34.42 41.5499ZM45.2 50.2899H25.16L25.93 42.7899L10.1 52.1799L24.01 61.5699L24.78 54.0699H45.47L45.2 50.3099V50.2899Z" fill="#7893B0"/>
<path d="M17.06 71.1099H8V75.1099H17.06V71.1099Z" fill="#7893B0"/>
<path d="M17.06 79.1099H8V83.1099H17.06V79.1099Z" fill="#7893B0"/>
<path d="M23.0601 75.1099C24.1646 75.1099 25.0601 74.2144 25.0601 73.1099C25.0601 72.0053 24.1646 71.1099 23.0601 71.1099C21.9555 71.1099 21.0601 72.0053 21.0601 73.1099C21.0601 74.2144 21.9555 75.1099 23.0601 75.1099Z" fill="#7893B0"/>
<path d="M30.8501 75.1099C31.9547 75.1099 32.8501 74.2144 32.8501 73.1099C32.8501 72.0053 31.9547 71.1099 30.8501 71.1099C29.7455 71.1099 28.8501 72.0053 28.8501 73.1099C28.8501 74.2144 29.7455 75.1099 30.8501 75.1099Z" fill="#7893B0"/>
<path d="M38.6299 75.1099C39.7345 75.1099 40.6299 74.2144 40.6299 73.1099C40.6299 72.0053 39.7345 71.1099 38.6299 71.1099C37.5253 71.1099 36.6299 72.0053 36.6299 73.1099C36.6299 74.2144 37.5253 75.1099 38.6299 75.1099Z" fill="#7893B0"/>
<path d="M46.4199 75.1099C47.5245 75.1099 48.4199 74.2144 48.4199 73.1099C48.4199 72.0053 47.5245 71.1099 46.4199 71.1099C45.3154 71.1099 44.4199 72.0053 44.4199 73.1099C44.4199 74.2144 45.3154 75.1099 46.4199 75.1099Z" fill="#7893B0"/>
<path d="M54.1999 75.1099C55.3045 75.1099 56.1999 74.2144 56.1999 73.1099C56.1999 72.0053 55.3045 71.1099 54.1999 71.1099C53.0954 71.1099 52.2 72.0053 52.2 73.1099C52.2 74.2144 53.0954 75.1099 54.1999 75.1099Z" fill="#7893B0"/>
<path d="M61.99 75.1099C63.0946 75.1099 63.99 74.2144 63.99 73.1099C63.99 72.0053 63.0946 71.1099 61.99 71.1099C60.8854 71.1099 59.99 72.0053 59.99 73.1099C59.99 74.2144 60.8854 75.1099 61.99 75.1099Z" fill="#7893B0"/>
<path d="M69.77 75.1099C70.8746 75.1099 71.77 74.2144 71.77 73.1099C71.77 72.0053 70.8746 71.1099 69.77 71.1099C68.6654 71.1099 67.77 72.0053 67.77 73.1099C67.77 74.2144 68.6654 75.1099 69.77 75.1099Z" fill="#7893B0"/>
<path d="M23.0601 83.1099C24.1646 83.1099 25.0601 82.2144 25.0601 81.1099C25.0601 80.0053 24.1646 79.1099 23.0601 79.1099C21.9555 79.1099 21.0601 80.0053 21.0601 81.1099C21.0601 82.2144 21.9555 83.1099 23.0601 83.1099Z" fill="#7893B0"/>
<path d="M30.8501 83.1099C31.9547 83.1099 32.8501 82.2144 32.8501 81.1099C32.8501 80.0053 31.9547 79.1099 30.8501 79.1099C29.7455 79.1099 28.8501 80.0053 28.8501 81.1099C28.8501 82.2144 29.7455 83.1099 30.8501 83.1099Z" fill="#7893B0"/>
<path d="M38.6299 83.1099C39.7345 83.1099 40.6299 82.2144 40.6299 81.1099C40.6299 80.0053 39.7345 79.1099 38.6299 79.1099C37.5253 79.1099 36.6299 80.0053 36.6299 81.1099C36.6299 82.2144 37.5253 83.1099 38.6299 83.1099Z" fill="#7893B0"/>
<path d="M46.4199 83.1099C47.5245 83.1099 48.4199 82.2144 48.4199 81.1099C48.4199 80.0053 47.5245 79.1099 46.4199 79.1099C45.3154 79.1099 44.4199 80.0053 44.4199 81.1099C44.4199 82.2144 45.3154 83.1099 46.4199 83.1099Z" fill="#7893B0"/>
<path d="M54.1999 83.1099C55.3045 83.1099 56.1999 82.2144 56.1999 81.1099C56.1999 80.0053 55.3045 79.1099 54.1999 79.1099C53.0954 79.1099 52.2 80.0053 52.2 81.1099C52.2 82.2144 53.0954 83.1099 54.1999 83.1099Z" fill="#7893B0"/>
<path d="M61.99 83.1099C63.0946 83.1099 63.99 82.2144 63.99 81.1099C63.99 80.0053 63.0946 79.1099 61.99 79.1099C60.8854 79.1099 59.99 80.0053 59.99 81.1099C59.99 82.2144 60.8854 83.1099 61.99 83.1099Z" fill="#7893B0"/>
<path d="M69.77 83.1099C70.8746 83.1099 71.77 82.2144 71.77 81.1099C71.77 80.0053 70.8746 79.1099 69.77 79.1099C68.6654 79.1099 67.77 80.0053 67.77 81.1099C67.77 82.2144 68.6654 83.1099 69.77 83.1099Z" fill="#7893B0"/>
<path d="M80 91.1199H0V63.1099H80V91.1199ZM76 87.1199V67.1099H4V87.1199H76Z" fill="#7893B0"/>
<path d="M80 63.1099H0L11 24.8799H67.23L79.99 63.1099H80ZM34.42 41.5499H52.95L54.06 49.0499L65.96 39.6599L51.27 30.2699L52.38 37.7699H34.5L34.41 41.5299L34.42 41.5499ZM45.2 50.2899H25.16L25.93 42.7899L10.1 52.1799L24.01 61.5699L24.78 54.0699H45.47L45.2 50.3099V50.2899Z" fill="#7893B0"/>
<path d="M17.06 71.1099H8V75.1099H17.06V71.1099Z" fill="#7893B0"/>
<path d="M17.06 79.1099H8V83.1099H17.06V79.1099Z" fill="#7893B0"/>
<path d="M23.0601 75.1099C24.1646 75.1099 25.0601 74.2144 25.0601 73.1099C25.0601 72.0053 24.1646 71.1099 23.0601 71.1099C21.9555 71.1099 21.0601 72.0053 21.0601 73.1099C21.0601 74.2144 21.9555 75.1099 23.0601 75.1099Z" fill="#7893B0"/>
<path d="M30.8501 75.1099C31.9547 75.1099 32.8501 74.2144 32.8501 73.1099C32.8501 72.0053 31.9547 71.1099 30.8501 71.1099C29.7455 71.1099 28.8501 72.0053 28.8501 73.1099C28.8501 74.2144 29.7455 75.1099 30.8501 75.1099Z" fill="#7893B0"/>
<path d="M38.6299 75.1099C39.7345 75.1099 40.6299 74.2144 40.6299 73.1099C40.6299 72.0053 39.7345 71.1099 38.6299 71.1099C37.5253 71.1099 36.6299 72.0053 36.6299 73.1099C36.6299 74.2144 37.5253 75.1099 38.6299 75.1099Z" fill="#7893B0"/>
<path d="M46.4199 75.1099C47.5245 75.1099 48.4199 74.2144 48.4199 73.1099C48.4199 72.0053 47.5245 71.1099 46.4199 71.1099C45.3154 71.1099 44.4199 72.0053 44.4199 73.1099C44.4199 74.2144 45.3154 75.1099 46.4199 75.1099Z" fill="#7893B0"/>
<path d="M54.1999 75.1099C55.3045 75.1099 56.1999 74.2144 56.1999 73.1099C56.1999 72.0053 55.3045 71.1099 54.1999 71.1099C53.0954 71.1099 52.2 72.0053 52.2 73.1099C52.2 74.2144 53.0954 75.1099 54.1999 75.1099Z" fill="#7893B0"/>
<path d="M61.99 75.1099C63.0946 75.1099 63.99 74.2144 63.99 73.1099C63.99 72.0053 63.0946 71.1099 61.99 71.1099C60.8854 71.1099 59.99 72.0053 59.99 73.1099C59.99 74.2144 60.8854 75.1099 61.99 75.1099Z" fill="#7893B0"/>
<path d="M69.77 75.1099C70.8746 75.1099 71.77 74.2144 71.77 73.1099C71.77 72.0053 70.8746 71.1099 69.77 71.1099C68.6654 71.1099 67.77 72.0053 67.77 73.1099C67.77 74.2144 68.6654 75.1099 69.77 75.1099Z" fill="#7893B0"/>
<path d="M23.0601 83.1099C24.1646 83.1099 25.0601 82.2144 25.0601 81.1099C25.0601 80.0053 24.1646 79.1099 23.0601 79.1099C21.9555 79.1099 21.0601 80.0053 21.0601 81.1099C21.0601 82.2144 21.9555 83.1099 23.0601 83.1099Z" fill="#7893B0"/>
<path d="M30.8501 83.1099C31.9547 83.1099 32.8501 82.2144 32.8501 81.1099C32.8501 80.0053 31.9547 79.1099 30.8501 79.1099C29.7455 79.1099 28.8501 80.0053 28.8501 81.1099C28.8501 82.2144 29.7455 83.1099 30.8501 83.1099Z" fill="#7893B0"/>
<path d="M38.6299 83.1099C39.7345 83.1099 40.6299 82.2144 40.6299 81.1099C40.6299 80.0053 39.7345 79.1099 38.6299 79.1099C37.5253 79.1099 36.6299 80.0053 36.6299 81.1099C36.6299 82.2144 37.5253 83.1099 38.6299 83.1099Z" fill="#7893B0"/>
<path d="M46.4199 83.1099C47.5245 83.1099 48.4199 82.2144 48.4199 81.1099C48.4199 80.0053 47.5245 79.1099 46.4199 79.1099C45.3154 79.1099 44.4199 80.0053 44.4199 81.1099C44.4199 82.2144 45.3154 83.1099 46.4199 83.1099Z" fill="#7893B0"/>
<path d="M54.1999 83.1099C55.3045 83.1099 56.1999 82.2144 56.1999 81.1099C56.1999 80.0053 55.3045 79.1099 54.1999 79.1099C53.0954 79.1099 52.2 80.0053 52.2 81.1099C52.2 82.2144 53.0954 83.1099 54.1999 83.1099Z" fill="#7893B0"/>
<path d="M61.99 83.1099C63.0946 83.1099 63.99 82.2144 63.99 81.1099C63.99 80.0053 63.0946 79.1099 61.99 79.1099C60.8854 79.1099 59.99 80.0053 59.99 81.1099C59.99 82.2144 60.8854 83.1099 61.99 83.1099Z" fill="#7893B0"/>
<path d="M69.77 83.1099C70.8746 83.1099 71.77 82.2144 71.77 81.1099C71.77 80.0053 70.8746 79.1099 69.77 79.1099C68.6654 79.1099 67.77 80.0053 67.77 81.1099C67.77 82.2144 68.6654 83.1099 69.77 83.1099Z" fill="#7893B0"/>
<path d="M40 32C48.8366 32 56 24.8366 56 16C56 7.16344 48.8366 0 40 0C31.1634 0 24 7.16344 24 16C24 24.8366 31.1634 32 40 32Z" fill="url(#paint0_radial_0_1)"/>
<defs>
<radialGradient id="paint0_radial_0_1" cx="0" cy="0" r="1" gradientUnits="userSpaceOnUse" gradientTransform="translate(40 16) scale(16)">
<stop stop-color="#22B573"/>
<stop offset="1" stop-color="#00142B"/>
</radialGradient>
</defs>
</svg>
