<svg width="84" height="50" viewBox="0 0 84 50" fill="none" xmlns="http://www.w3.org/2000/svg">
<path d="M23.4934 18.1491C23.4696 18.9853 23.5729 19.8203 23.8 20.6255C24.047 21.3138 24.3425 21.9837 24.6844 22.6301C24.8112 22.8186 24.8809 23.0397 24.885 23.2669C24.8626 23.4366 24.8034 23.5994 24.7118 23.7439C24.6201 23.8885 24.4981 24.0114 24.3542 24.1041L22.609 25.2833C22.3971 25.4417 22.1422 25.5321 21.8779 25.5427C21.5642 25.5194 21.2702 25.3808 21.0525 25.1536C20.6764 24.7512 20.3405 24.3128 20.0501 23.8447C19.7671 23.373 19.4959 22.8423 19.1893 22.2056C18.2096 23.4252 16.9639 24.4045 15.5475 25.0687C14.1311 25.733 12.5817 26.0645 11.0175 26.038C10.0132 26.0888 9.0088 25.9387 8.0632 25.5966C7.11761 25.2544 6.24981 24.7269 5.51062 24.0451C4.81442 23.2895 4.27422 22.4039 3.92103 21.4391C3.56784 20.4742 3.4086 19.4492 3.45242 18.4226C3.49624 17.3961 3.74226 16.3884 4.17639 15.4571C4.61052 14.5259 5.22427 13.6896 5.98233 12.996C7.90806 11.4639 10.3292 10.6918 12.7863 10.8263C13.773 10.8336 14.7579 10.9085 15.7343 11.0503C16.7602 11.18 17.8215 11.4041 18.9299 11.6517V9.62351C19.0894 8.02772 18.6198 6.43268 17.621 5.17792C16.7366 4.3171 15.2627 3.90438 13.0929 3.90438C12.0794 3.9021 11.0694 4.02488 10.0859 4.26993C9.06593 4.51115 8.06491 4.82644 7.09078 5.21329C6.77366 5.35508 6.44651 5.47332 6.11202 5.56706C5.97145 5.61593 5.82443 5.64374 5.67572 5.64959C5.28659 5.64959 5.08612 5.37838 5.08612 4.78878V3.43271C5.05683 3.09394 5.12645 2.75394 5.28657 2.45397C5.49736 2.20328 5.76386 2.0054 6.06481 1.87615C7.18838 1.31622 8.37648 0.896432 9.60241 0.626203C11.0154 0.259992 12.4705 0.0815794 13.9301 0.0955661C17.2437 0.0955661 19.661 0.850259 21.2175 2.34784C22.7741 3.84543 23.5759 6.12127 23.5759 9.18719V18.1491H23.4934ZM12.2085 22.3707C13.1841 22.3602 14.1515 22.193 15.0739 21.8754C16.0954 21.5239 17.0063 20.9098 17.7153 20.0948C18.1651 19.5835 18.4884 18.9735 18.6587 18.3142C18.8464 17.5421 18.9414 16.7504 18.9417 15.9558V14.7766C18.1281 14.5879 17.2672 14.4229 16.3828 14.3049C15.5142 14.1982 14.6401 14.1431 13.765 14.1399C12.2994 14.0269 10.8391 14.418 9.62602 15.2483C8.81952 16.0494 8.33919 17.1214 8.27819 18.2565C8.21718 19.3917 8.57981 20.509 9.29581 21.3919C9.68555 21.7514 10.1457 22.0261 10.647 22.1986C11.1484 22.3711 11.6801 22.4377 12.2085 22.3943V22.3707ZM34.5307 25.3776C34.1541 25.4188 33.7756 25.3178 33.4694 25.0946C33.1784 24.7947 32.9781 24.4186 32.8916 24.0098L26.359 2.5365C26.2341 2.17777 26.1509 1.80584 26.1112 1.42807C26.1112 0.979972 26.3235 0.732327 26.7716 0.732327H29.4955C29.8782 0.68636 30.2644 0.78292 30.5804 1.00356C30.8623 1.30669 31.0542 1.68234 31.1346 2.08842L35.8514 20.4839L40.191 2.08842C40.1887 1.88449 40.232 1.68263 40.3178 1.49761C40.4036 1.3126 40.5296 1.1491 40.6867 1.0191C40.8438 0.8891 41.0281 0.795871 41.2259 0.746253C41.4237 0.696635 41.6302 0.691877 41.8301 0.732327H44.047C44.4368 0.690159 44.829 0.786154 45.1553 1.00356C45.45 1.29461 45.6371 1.67712 45.6859 2.08842L50.0845 20.708L54.8837 2.08842C54.9733 1.68559 55.164 1.31223 55.4379 1.00356C55.763 0.803487 56.1419 0.708746 56.5229 0.732327H59.117C59.2107 0.720467 59.3059 0.730412 59.3951 0.761367C59.4843 0.792323 59.5652 0.843464 59.6314 0.910801C59.6975 0.978138 59.7473 1.05985 59.7767 1.14957C59.8062 1.23929 59.8145 1.33461 59.8011 1.42807C59.8108 1.57334 59.8108 1.7191 59.8011 1.86437C59.7542 2.10156 59.6871 2.33431 59.6005 2.56009L52.8083 24.0451C52.7276 24.4561 52.5265 24.8337 52.2305 25.13C51.9131 25.3275 51.5425 25.4222 51.1692 25.4012H48.8108C48.3979 25.4554 47.9794 25.3591 47.6316 25.13C47.3417 24.8228 47.1596 24.4296 47.1129 24.0098L42.7969 6.08591L38.5282 24.0451C38.4665 24.4571 38.2863 24.8423 38.0095 25.1536C37.6806 25.376 37.2841 25.4761 36.8891 25.4366L34.5307 25.3776ZM70.237 26.1323C68.7953 26.1301 67.3588 25.9599 65.9565 25.6253C64.8463 25.4009 63.7715 25.028 62.7609 24.5168C62.4014 24.351 62.101 24.0795 61.8999 23.7385C61.7892 23.4941 61.7329 23.2286 61.735 22.9603V21.5452C61.735 20.9556 61.9589 20.6844 62.3716 20.6844C62.5403 20.6829 62.7079 20.7109 62.867 20.767C63.032 20.767 63.2914 20.932 63.5626 21.0382C64.5426 21.4732 65.5665 21.8014 66.6167 22.0169C67.7075 22.237 68.8176 22.3476 69.9304 22.3471C71.3422 22.4297 72.7486 22.1108 73.9867 21.4273C74.4403 21.1545 74.8136 20.7663 75.0683 20.3023C75.3231 19.8383 75.4505 19.3151 75.4373 18.7859C75.4527 18.0631 75.1813 17.3636 74.6826 16.8402C73.8641 16.1603 72.9059 15.6691 71.8761 15.4016L67.8431 14.1516C66.0947 13.7059 64.5361 12.7095 63.3975 11.3098C62.5012 10.1605 62.0118 8.74615 62.0062 7.28868C61.9882 6.21112 62.2481 5.14709 62.7609 4.19918C63.2567 3.30458 63.9406 2.52813 64.7654 1.92333C65.6315 1.26693 66.6107 0.775273 67.6544 0.472901C68.8042 0.143181 69.9961 -0.0157372 71.192 0.00122786C71.815 -0.000247522 72.4375 0.0391509 73.0553 0.119155C73.692 0.201699 74.2345 0.307821 74.8595 0.425741C75.4845 0.543661 75.9443 0.696951 76.4396 0.862039C76.8469 0.995814 77.2415 1.16551 77.6188 1.3691C77.9464 1.53537 78.2325 1.77314 78.456 2.06483C78.6348 2.337 78.7216 2.65941 78.7035 2.9846V4.28173C78.7035 4.87133 78.4796 5.17792 78.0669 5.17792C77.6945 5.13305 77.3341 5.01696 77.0056 4.83596C75.3278 4.09472 73.5096 3.72465 71.6756 3.75108C70.3943 3.67942 69.1168 3.94793 67.9728 4.52935C67.5491 4.78297 67.2031 5.14794 66.9723 5.58455C66.7415 6.02116 66.6348 6.51269 66.6639 7.00568C66.6575 7.37604 66.7286 7.74364 66.8728 8.08484C67.017 8.42604 67.231 8.73326 67.5011 8.98673C68.4059 9.69495 69.445 10.2124 70.5554 10.5079L74.5057 11.7579C76.1789 12.1858 77.6809 13.1158 78.8098 14.4228C79.6585 15.5412 80.1107 16.9103 80.0951 18.3142C80.1132 19.4342 79.8625 20.5422 79.364 21.5452C78.8735 22.4967 78.1814 23.3297 77.3358 23.9862C76.4197 24.6984 75.3746 25.2269 74.2581 25.5427C72.9574 25.9533 71.6009 26.1602 70.237 26.1559V26.1323Z" fill="white"/>
<path fill-rule="evenodd" clip-rule="evenodd" d="M75.4848 39.6576C66.346 46.4144 53.08 49.9991 41.6418 49.9991C26.4008 50.0684 11.6829 44.4461 0.369757 34.2332C-0.491059 33.455 0.287199 32.4055 1.3131 33.054C12.2902 39.3781 24.5813 43.0776 37.2254 43.8631C49.8695 44.6486 62.524 42.4989 74.1995 37.5822C75.6853 36.8511 76.9824 38.5491 75.4848 39.6576Z" fill="#FF9900"/>
<path fill-rule="evenodd" clip-rule="evenodd" d="M79.2947 35.3188C78.1155 33.8212 71.571 34.5995 68.5994 34.9651C67.7032 35.0712 67.5736 34.2929 68.3754 33.7151C73.5993 30.036 82.1838 31.0973 83.1861 32.3237C84.1884 33.55 82.9031 42.1582 78.0212 46.2736C77.2665 46.9104 76.5472 46.5802 76.842 45.743C77.9858 42.9954 80.4621 36.7928 79.2947 35.3188Z" fill="#FF9900"/>
</svg>
