<svg width="71" height="81" viewBox="0 0 71 81" fill="none" xmlns="http://www.w3.org/2000/svg">
<path d="M26.901 21.2807C29.6842 19.3728 33.2697 20.1227 32.6698 20.6977C31.5258 21.794 33.0478 21.4699 33.212 23.493C33.3327 24.9831 32.849 25.8035 32.4328 26.2705C31.5639 26.3847 30.5078 26.5981 29.236 27.0141C28.4834 27.2606 27.8293 27.5338 27.256 27.8087C27.1051 27.7096 26.9409 27.5882 26.7466 27.4195C24.7834 25.7071 24.8491 22.6877 26.901 21.2807M43.5257 33.0753C44.0306 32.6816 46.3257 31.9397 48.4504 31.687C49.566 31.5549 51.1564 31.4781 51.4954 31.6691C52.169 32.0432 52.169 33.2012 51.7075 34.2707C51.0357 35.8242 50.0861 37.541 49.0104 37.6821C47.2558 37.9151 45.5971 36.9598 43.7032 35.5367C43.0269 35.0251 42.6115 33.7859 43.5257 33.0753M46.7269 17.947C49.3175 19.1594 48.9785 21.4664 49.0503 22.8216C49.0699 23.2109 49.0637 23.4733 49.0308 23.6537C48.6723 23.4582 48.1052 23.3144 47.2061 23.3546C46.9434 23.3653 46.6878 23.3966 46.4402 23.4359C45.4844 22.9207 44.9128 21.9128 44.3901 20.8414C44.3422 20.7423 44.3049 20.6539 44.2694 20.5682C44.2543 20.5289 44.2383 20.487 44.2232 20.4513C44.217 20.4316 44.2126 20.4164 44.2055 20.3986C43.9188 19.4835 44.1114 19.3005 44.2321 19.0183C44.3572 18.73 44.825 18.4925 44.1336 18.2523C44.0741 18.23 44.0005 18.2175 43.917 18.2014C44.375 17.63 45.7462 17.4917 46.7269 17.947ZM32.6041 45.5297C29.8129 43.7271 26.925 41.1416 25.6621 39.7105C25.4499 39.5498 25.4846 38.8364 25.4846 38.8364C26.6241 39.7275 31.3518 43.1254 36.3511 44.6771C38.1146 45.2252 40.8206 45.4324 43.168 44.0941C44.9616 43.0709 47.1209 41.288 48.4096 39.4507L48.6456 39.8623C48.6368 40.1355 48.0439 41.4666 47.7422 42.0014C48.2871 42.3165 48.6936 42.4022 49.2997 42.5692L53.439 41.9201C54.9247 39.506 55.9897 35.6126 54.8546 31.9066C54.2067 29.7809 50.8289 25.5482 50.5866 25.3152C49.7382 24.4947 50.7286 21.3253 49.0468 17.8675C47.2691 14.2098 42.6373 10.3958 40.6253 8.73609C41.2182 9.17177 44.8693 10.6529 46.5716 12.7197C46.7313 12.5063 46.797 11.3966 46.9434 11.1154C45.4817 9.18963 45.3681 5.76311 45.3681 4.84711C45.3681 3.16777 44.5197 1.26435 44.5197 1.26435C44.5197 1.26435 45.9814 2.42855 46.3594 4.43375C46.8059 6.80856 47.7573 8.67896 49.0157 10.2619C51.3978 13.2465 53.5491 14.7776 54.6363 13.675C55.9373 12.3501 53.3166 6.42377 49.9689 3.11599C46.0613 -0.744424 45.0397 -0.247141 42.7473 0.576009C40.9182 1.23221 39.9295 6.45681 35.1619 6.35324C34.3542 6.25861 32.2739 6.20772 31.2453 6.21665C31.7814 5.46402 32.2411 4.88282 32.2411 4.88282C32.2411 4.88282 30.6418 5.53009 29.2786 6.35056L29.1739 6.19254C29.6336 5.21762 30.128 4.60159 30.128 4.60159C30.128 4.60159 28.85 5.37385 27.6838 6.29878C27.8959 5.13637 28.6991 4.39982 28.6991 4.39982C28.6991 4.39982 27.0847 4.69266 25.0284 6.96837C22.6916 7.61118 22.1298 8.03347 20.2678 8.86287C17.2397 8.19863 15.8117 7.1264 14.4503 5.15244C13.4137 3.64452 11.5686 3.41597 9.68351 4.19537C6.93492 5.33814 3.45859 6.9032 3.45859 6.9032C3.45859 6.9032 4.59193 6.85677 5.77319 6.90766C4.15616 7.52369 2.60304 8.37094 2.60304 8.37094C2.60304 8.37094 3.36007 8.34416 4.29461 8.36023C3.6494 8.89947 3.29262 9.1566 2.67759 9.56639C1.19901 10.6467 0 11.8948 0 11.8948C0 11.8948 1.00376 11.435 1.90546 11.177C1.27534 12.6295 0.0257375 13.6991 0.2556 15.4775C0.476587 17.1015 2.45837 20.4468 5.01615 22.5002C5.23714 22.6788 8.73122 25.9312 11.3671 24.5956C14.0012 23.2618 15.0405 22.0735 15.4736 20.2513C15.983 18.1586 15.6928 16.5757 14.6047 12.0332C14.2461 10.5342 13.3116 7.44691 12.8608 5.97024L12.961 5.89792C13.8228 7.72724 16.0282 12.5492 16.9166 15.7882C18.3038 20.8387 17.8707 23.401 17.2361 24.3402C15.3218 27.1731 10.4166 27.5471 8.18541 25.9776C7.84373 31.4156 9.05161 33.8101 9.46075 35.0162C9.25751 36.4027 10.1503 38.9775 10.1503 38.9775C10.1503 38.9775 10.2506 37.8071 10.6598 37.1901C10.7689 38.5659 11.4585 40.2006 11.4585 40.2006C11.4585 40.2006 11.4168 39.1909 11.7301 38.3186C12.1721 39.0713 12.496 39.2498 12.914 39.8149C13.332 41.2854 14.1698 42.3594 14.1698 42.3594C14.1698 42.3594 14.034 41.5711 14.1086 40.7506C16.1543 42.7272 16.5066 45.6118 16.7098 47.8286C17.2832 53.9228 7.15769 58.7688 5.19542 62.5811C3.70797 64.8389 2.81692 68.411 5.33565 70.517C11.4239 75.6033 9.08534 77.0031 12.133 79.2387C16.314 82.3045 21.545 80.9314 23.3253 78.4379C25.8041 74.9631 25.1677 71.6857 24.2465 68.6199C23.5267 66.2227 21.5707 62.24 19.1514 60.6991C16.6788 59.1233 14.2745 58.8287 12.2377 59.0394L12.4259 58.8215C15.3555 58.2358 18.4183 58.5573 20.6344 59.9946C23.1504 61.6213 25.4517 64.4113 26.6552 68.6877C28.0201 68.4922 28.2127 68.4038 29.4623 68.2253L26.649 46.1948L32.6041 45.5297V45.5297ZM34.23 73.1436L33.906 70.0885L40.233 60.3803L47.4156 62.4909L53.5917 52.114L60.9952 57.027L66.6202 45.1601L68.6197 66.7718L34.23 73.1436V73.1436ZM68.6943 40.7345L46.0879 44.8565C45.5279 45.5824 44.1434 46.8573 43.4777 47.1894C40.6227 48.6357 38.6932 48.217 37.0256 47.7813C35.9535 47.5081 35.3323 47.3545 34.4421 46.9519L28.9245 47.7134L32.2739 75.8247L71 68.802L68.6943 40.7345V40.7345Z" fill="white"/>
</svg>
