<svg width="100" height="100" viewBox="0 0 100 100" fill="none" xmlns="http://www.w3.org/2000/svg">
<g clip-path="url(#clip0_4849_12898)">
<path d="M25.1099 63.3792L38.1899 57.4492V62.7792L31.2599 65.8192L38.1899 68.7692V74.0992L25.1099 68.2392V63.3792V63.3792Z" fill="#7993B0"/>
<path d="M40.48 75.2996L46.47 52.3096H51.49L45.5 75.2996H40.48V75.2996Z" fill="#7993B0"/>
<path d="M66.8498 68.18L53.7698 74.11V68.78L60.6998 65.74L53.7698 62.79V57.46L66.8498 63.32V68.18Z" fill="#7993B0"/>
<path d="M75.8999 35.1804L70.2299 41.1304V81.7104H20.4499V29.4104H56.7099L63.5599 22.8404L61.8299 21.1104H18.7899C15.1299 21.1104 12.1499 24.0804 12.1499 27.7504V83.3604C12.1499 87.0204 15.1199 90.0004 18.7899 90.0004H71.8899C75.5499 90.0004 78.5299 87.0304 78.5299 83.3604V37.8004L75.8999 35.1703V35.1804Z" fill="#7993B0"/>
<path d="M87.8498 10L61.2898 14.71L69.4898 22.91L49.0298 42.51L56.2698 49.75L75.8298 29.24L84.9398 38.35L87.8498 10Z" fill="#7993B0"/>
</g>
<defs>
<clipPath id="clip0_4849_12898">
<rect width="100" height="100" fill="white"/>
</clipPath>
</defs>
</svg>
