<svg width="73" height="58" viewBox="0 0 73 58" fill="none" xmlns="http://www.w3.org/2000/svg">
<path d="M47.9836 16.0133L54.2545 9.74247L54.6671 7.10466C43.242 -3.29284 25.0767 -2.11149 14.7763 9.55637C11.9119 12.7929 9.79198 16.8387 8.65918 21.0139L10.9005 20.6983L23.4422 18.635L24.4051 17.6478C29.9801 11.5226 39.4148 10.6973 45.8555 15.9082L47.9674 16.0133H47.9836Z" fill="#EA4335"/>
<path d="M63.1864 20.8274C61.7461 15.5194 58.7847 10.7454 54.6661 7.09619L45.8626 15.8997C49.5766 18.934 51.6965 23.5137 51.6075 28.312V29.8736C55.9365 29.8736 59.4401 33.3853 59.4401 37.7061C59.4401 42.027 55.9284 45.4496 51.6075 45.4496H35.9182L34.3809 47.1246V56.5187L35.9182 57.9914H51.6075C62.8627 58.0804 72.0546 49.1151 72.1436 37.868C72.2003 31.0469 68.8342 24.6546 63.1864 20.8274Z" fill="#4285F4"/>
<path d="M20.2529 58.0001H35.9179V45.4583H20.2529C19.1444 45.4583 18.052 45.2156 17.0406 44.7544L14.8154 45.4341L8.49602 51.7049L7.9458 53.8411C11.4899 56.5194 15.8107 58.0163 20.2448 58.0001" fill="#34A853"/>
<path d="M20.2532 17.3081C8.99803 17.3728 -0.0643869 26.5566 0.000344626 37.8118C0.0408018 44.0989 2.9699 50.0137 7.95423 53.841L17.0409 44.7543C13.1004 42.9742 11.3445 38.3297 13.1247 34.3891C14.9048 30.4486 19.5493 28.6928 23.4898 30.4729C25.2295 31.2578 26.6212 32.6495 27.4061 34.3891L36.4927 25.3025C32.625 20.2453 26.6131 17.2919 20.2532 17.3162" fill="#FBBC05"/>
</svg>
