<svg width="80" height="78" viewBox="0 0 80 78" fill="none" xmlns="http://www.w3.org/2000/svg">
<path d="M79.9313 39.1252C79.9313 56.9094 69.0129 72.0944 52.9442 77.4296C50.8841 77.7716 50.1288 76.5404 50.1288 75.5144C50.1288 74.2148 50.1288 67.5115 50.1288 62.1079C50.1288 58.3458 48.8927 55.9518 47.382 54.6522C56.3777 53.6262 65.8541 52.395 65.8541 36.9364C65.8541 32.5588 64.2747 30.3015 61.7339 27.4971C62.1459 26.4711 63.5193 22.1618 61.3219 16.6214C57.9571 15.5954 50.1974 20.9306 50.1974 20.9306C46.97 20.0414 43.5365 19.5626 40.103 19.5626C36.6695 19.5626 33.236 20.0414 30.0086 20.9306C30.0086 20.9306 22.2489 15.527 18.8841 16.6214C16.6867 22.1618 18.0601 26.4711 18.4721 27.4971C15.8627 30.3015 14.6953 32.5588 14.6953 36.9364C14.6953 52.3266 23.7597 53.6262 32.7554 54.6522C31.588 55.6782 30.5579 57.4566 30.1459 60.0559C27.8112 61.1503 21.9056 62.9287 18.4034 56.7042C16.206 52.8738 12.2232 52.6002 12.2232 52.6002C8.30901 52.6002 11.9485 55.0626 11.9485 55.0626C14.5579 56.2938 16.412 60.9451 16.412 60.9451C18.7468 68.1271 30.0773 65.7331 30.0773 65.7331C30.0773 69.0847 30.0773 74.5568 30.0773 75.5828C30.0773 76.6088 29.3219 77.9084 27.2618 77.498C11.1931 72.1628 0 56.9094 0 39.1252C0.137339 16.895 17.236 0 39.5536 0C61.8712 0 80 16.895 80 39.1252H79.9313ZM14.7639 53.8998C14.7639 53.8998 15.2446 54.3102 15.1073 54.5154C14.97 54.7206 14.6953 54.789 14.4206 54.6522C14.0773 54.5154 13.9399 54.2418 14.0773 54.0366C14.2146 53.8998 14.4206 53.8314 14.7639 53.8998ZM16.618 55.473C16.618 55.473 16.9614 56.157 16.7554 56.2938C16.5494 56.499 16.206 56.3622 15.9313 56.157C15.6567 55.8834 15.588 55.473 15.794 55.3362C16 55.131 16.3433 55.2678 16.618 55.473ZM18.3348 57.6618C18.6094 58.0038 18.6094 58.4142 18.3348 58.6878C18.1288 58.8246 17.7167 58.6878 17.4421 58.3458C17.1674 58.0038 17.1674 57.5934 17.4421 57.3882C17.7167 57.183 18.1288 57.3882 18.3348 57.7302V57.6618ZM20.3262 59.8507C20.3262 59.8507 20.7382 60.6031 20.5322 60.8083C20.3262 61.0819 19.8455 61.0135 19.5021 60.6715C19.1588 60.3979 19.0215 59.919 19.2961 59.7138C19.5021 59.4402 19.9828 59.5086 20.3262 59.8507ZM22.867 61.2871C23.3476 61.4239 23.6223 61.8343 23.5536 62.1079C23.485 62.4499 23.0043 62.5867 22.5236 62.4499C22.0429 62.3815 21.6996 61.9711 21.8369 61.6975C21.9742 61.3555 22.3863 61.2187 22.867 61.3555V61.2871ZM26.0257 62.9287C25.4764 62.9287 25.133 62.7235 25.133 62.3815C25.133 62.0395 25.4764 61.8343 25.9571 61.8343C26.4378 61.8343 26.8498 62.0395 26.8498 62.3815C26.8498 62.7235 26.5064 62.9287 26.0257 62.9287ZM29.9399 61.8343C29.9399 61.8343 29.6652 62.4499 29.1845 62.5867C28.7039 62.7235 28.2918 62.5183 28.2232 62.1763C28.2232 61.8343 28.4979 61.4923 28.9785 61.4239C29.4592 61.4239 29.8712 61.5607 29.9399 61.9027V61.8343Z" fill="white"/>
</svg>
