 <svg
          version="1.1"
          id="Layer_1"
          xmlns="http://www.w3.org/2000/svg"
          xmlnsXlink="http://www.w3.org/1999/xlink"
          x="0px"
          y="0px"
          width="150px"
          height="100px"
          viewBox="0 0 150 100"
          enableBackground="new 0 0 150 100"
          xmlSpace="preserve"
        >
          <g>
            <g>
              <g>
                <path
                  fill="none"
                  stroke='#7894B0'
                  strokeWidth="2.5"
                  strokeLinecap="round"
                  strokeLinejoin="round"
                  strokeMiterlimit="10"
                  d="
				M120.37,89.8c11.81,0,21.38-9.57,21.38-21.38c0-11.81-9.57-21.38-21.38-21.38c-0.03,0-0.07,0-0.1,0
				c-1.02-10.85-10.16-19.35-21.28-19.35c-2.42,0-4.75,0.41-6.92,1.15C86.37,16.4,73.82,7.76,59.24,7.76
				c-19.94,0-36.11,16.17-36.11,36.11c0,1.07,0.06,2.13,0.15,3.17c-0.05,0-0.1,0-0.15,0c-11.81,0-21.38,9.57-21.38,21.38
				c0,11.81,9.57,21.38,21.38,21.38H120.37z"
                />
              </g>
              <rect fill="none" width="150" height="100" />
            </g>
            <g>
              <path
                fill="none"
                stroke='#7894B0'
                strokeWidth="2.5"
                strokeLinecap="round"
                strokeLinejoin="round"
                strokeMiterlimit="10"
                d="
			M120.37,89.8c11.81,0,21.38-9.57,21.38-21.38c0-11.81-9.57-21.38-21.38-21.38c-0.03,0-0.07,0-0.1,0
			c-1.02-10.85-10.16-19.35-21.28-19.35c-2.42,0-4.75,0.41-6.92,1.15C86.37,16.4,73.82,7.76,59.24,7.76
			c-19.94,0-36.11,16.17-36.11,36.11c0,1.07,0.06,2.13,0.15,3.17c-0.05,0-0.1,0-0.15,0c-11.81,0-21.38,9.57-21.38,21.38
			c0,11.81,9.57,21.38,21.38,21.38H120.37z"
              />
            </g>
            <path
              fill="#7894B0"
              d="M142.11,54.96V16.67h-7.15v-2.76h-12.97v2.76v6.83h4.85v6.35h-4.85v2.74h4.85v6.35h-4.85v2.74h4.85v6.35
		h-4.85v6.22v0.7h-2.12V2.04h-6.63V0.09H93.98v1.95h-6.75v52.92h-4.39v4.13h67.16v-4.13H142.11z M101.35,47.57h-9.43v-9.43h9.43
		V47.57z M101.35,34.07h-9.43v-9.43h9.43V34.07z M101.35,20.57h-9.43v-9.43h9.43V20.57z M115.01,47.57h-9.43v-9.43h9.43V47.57z
		 M115.01,34.07h-9.43v-9.43h9.43V34.07z M115.01,20.57h-9.43v-9.43h9.43V20.57z M136.05,48.04h-6.35v-6.35h6.35V48.04z
		 M136.05,38.94h-6.35v-6.35h6.35V38.94z M136.05,29.85h-6.35V23.5h6.35V29.85z"
            />
          </g>
        </svg>