<?xml version="1.0" standalone="no"?>
<!DOCTYPE svg PUBLIC "-//W3C//DTD SVG 20010904//EN"
 "http://www.w3.org/TR/2001/REC-SVG-20010904/DTD/svg10.dtd">
<svg version="1.0" xmlns="http://www.w3.org/2000/svg"
 width="1000.000000pt" height="184.000000pt" viewBox="0 0 1000.000000 184.000000"
 preserveAspectRatio="xMidYMid meet">

<g transform="translate(0.000000,184.000000) scale(0.100000,-0.100000)"
fill="#000000" stroke="none">
<path d="M586 1708 c-9 -25 -346 -1563 -346 -1575 0 -10 46 -13 198 -13 l197
0 60 275 60 275 120 0 121 0 114 -271 c63 -149 120 -273 125 -275 6 -3 96 -3
201 -2 l190 3 -122 280 c-68 154 -123 283 -123 286 -1 3 24 11 54 18 93 21
193 78 266 150 194 194 223 513 63 691 -52 58 -126 104 -221 137 l-78 28 -438
3 c-355 3 -438 1 -441 -10z m811 -350 c135 -89 68 -310 -107 -347 -28 -6 -144
-11 -257 -11 l-205 0 6 23 c3 12 22 100 43 195 l37 173 221 -3 c221 -3 222 -3
262 -30z"/>
<path d="M2724 1658 c-166 -284 -874 -1498 -883 -1515 l-12 -23 198 0 199 0
68 118 c38 64 75 125 84 135 14 16 45 17 378 17 336 0 364 -1 373 -17 5 -10
19 -66 31 -125 13 -59 26 -112 30 -118 4 -7 70 -10 201 -8 l195 3 -175 798
-175 797 -238 0 -237 0 -37 -62z m270 -655 l63 -283 -239 0 c-132 0 -237 3
-235 8 101 181 343 583 345 572 1 -8 31 -142 66 -297z"/>
<path d="M4136 1708 c-9 -26 -346 -1563 -346 -1576 0 -10 43 -12 197 -10 l198
3 60 272 60 271 290 4 c282 4 292 5 370 31 195 65 338 218 390 418 23 88 16
233 -14 312 -46 117 -169 218 -321 264 -75 22 -877 33 -884 11z m762 -346
c122 -65 96 -260 -43 -332 -48 -24 -57 -25 -264 -28 l-214 -4 6 24 c4 12 23
101 44 196 l37 173 195 -3 c182 -3 199 -5 239 -26z"/>
<path d="M5727 1698 c-6 -25 -334 -1504 -344 -1550 l-5 -28 199 0 200 0 172
779 c95 429 175 789 178 800 5 21 2 21 -195 21 -199 0 -200 0 -205 -22z"/>
<path d="M6446 1697 c-6 -25 -333 -1502 -343 -1549 l-5 -28 377 0 c423 0 522
9 684 62 292 97 500 332 566 643 24 110 25 299 2 385 -49 185 -167 330 -337
414 -171 84 -205 89 -596 94 l-341 4 -7 -25z m706 -345 c119 -58 186 -168 196
-317 10 -168 -43 -312 -157 -426 -120 -119 -238 -159 -479 -159 -132 0 -143 1
-138 18 2 9 48 215 101 457 53 242 98 446 101 454 3 10 35 12 157 10 149 -4
154 -5 219 -37z"/>
<path d="M7811 1683 c192 -200 277 -541 219 -868 -42 -233 -161 -468 -326
-642 l-50 -53 382 0 383 0 7 22 c4 13 85 216 180 452 96 236 174 430 174 432
0 2 -104 4 -231 4 l-231 0 5 23 c4 12 20 85 37 162 17 77 33 148 36 158 5 16
36 17 465 17 344 0 459 -3 459 -12 0 -6 -24 -75 -54 -152 -167 -436 -416
-1095 -416 -1101 0 -4 69 -5 153 -2 175 5 234 19 357 79 68 33 102 59 171 128
75 74 94 100 137 191 76 156 86 204 87 399 0 185 -12 250 -71 378 -72 157
-181 275 -319 343 -156 76 -118 73 -895 77 l-695 3 36 -38z"/>
</g>
</svg>
