<svg version="1.1" id="layer" xmlns="http://www.w3.org/2000/svg" xmlns:xlink="http://www.w3.org/1999/xlink" x="0px" y="0px"
	 viewBox="-153 -46 652 652" style="enable-background:new -153 -46 652 652;" xml:space="preserve">
<style type="text/css">
	.st0{fill:#445464;}
	.st1{fill:#00A6B4;}
</style>
<path class="st0" d="M26.1,300.7v-36.4H14.4v-16.1H26V229h18.4v19.2h14.2v16.1H44.5v31.5c0,4.5,2.3,7.8,6.4,7.8
	c2.3,0.1,4.6-0.7,6.4-2.2l3.9,14.1c-2.8,2.5-7.7,4.5-15.4,4.5C32.9,320,26.1,313.3,26.1,300.7z M62.9,283.1
	c0-20.3,15.1-36.8,36.3-36.8s35.1,15.7,35.1,38.5v4.4H82.2c1.3,8.6,8.3,15.7,20.3,15.7c5.9,0,14.1-2.5,18.6-6.8l8.3,12.2
	c-7,6.4-18,9.7-28.9,9.7C79.1,320,62.9,305.6,62.9,283.1z M99.2,261.5c-11.5,0-16.4,8-17.1,15h34.5
	C116.1,269.8,111.4,261.5,99.2,261.5z M188.6,318.2v-42.3c0-9.7-5.1-13.1-12.9-13.1c-6.3,0.1-12.2,3.1-16,8.1v47.3h-18.4v-70.1h18.4
	v9c6.3-6.9,15.2-10.8,24.5-10.8c15.5,0,22.9,8.7,22.9,22.4v49.5H188.6z M259.7,318.2v-7.4c-4.8,5.8-13.1,9.2-22.2,9.2
	c-11.2,0-24.2-7.5-24.2-23.2c0-16.6,13.1-22.6,24.2-22.6c9.4,0,17.6,3.1,22.2,8.6v-8.9c0-7.1-6.1-11.7-15.4-11.7
	c-7.6,0.1-14.8,3-20.3,8.3l-7.3-12.9c8.5-7.3,19.4-11.3,30.6-11c16.1,0,30.8,6.4,30.8,26.6v45.3H259.7z M259.7,301.4v-8.7
	c-3-4.1-8.8-6.2-14.7-6.2c-7.3,0-13.2,3.9-13.2,10.6s5.9,10.4,13.2,10.4C250.8,307.5,256.6,305.5,259.7,301.4z M286.1,318.2v-96.8
	h18.4v35.7c5.1-6.8,13.1-10.8,21.6-10.8c17.9,0,31.1,13.9,31.1,36.8c0,23.5-13.3,36.8-31.1,36.8c-8.5,0-16.5-4-21.6-10.7v9
	L286.1,318.2z M320.6,303.5c10.6,0,17.7-8.3,17.7-20.5s-7.1-20.3-17.7-20.3c-6.3,0.1-12.2,3.1-16,8.1v24.8
	C308.5,300.6,314.3,303.5,320.6,303.5L320.6,303.5z M363.5,318.2v-96.8h18.4v96.8H363.5z M388.9,283.1c0-20.3,15.1-36.8,36.3-36.8
	s35.1,15.7,35.1,38.5v4.4h-52.1c1.3,8.6,8.3,15.7,20.3,15.7c5.9,0,14.1-2.5,18.6-6.8l8.3,12.2c-7,6.4-18,9.7-28.9,9.7
	C405,320,388.9,305.6,388.9,283.1z M425.1,261.5c-11.5,0-16.4,8-17.1,15h34.5C442,269.8,437.3,261.5,425.1,261.5z M465.9,239.3
	c0.9,0.5,1.7,1.3,2.2,2.2c0.5,0.9,0.8,2,0.8,3.1c0,1.1-0.3,2.1-0.8,3.1c-0.5,0.9-1.3,1.7-2.2,2.2c-0.9,0.5-2,0.8-3.1,0.8
	c-2.2,0-4.2-1.1-5.2-3c-0.5-0.9-0.8-2-0.8-3.1c0-1.1,0.3-2.2,0.8-3.1c0.5-0.9,1.3-1.7,2.2-2.2c0.9-0.6,2-0.8,3-0.8
	C463.9,238.5,465,238.8,465.9,239.3z M465.3,248.9c0.7-0.4,1.3-1.1,1.7-1.8c0.8-1.6,0.8-3.5,0-5.1c-0.4-0.8-1-1.4-1.7-1.8
	c-0.7-0.4-1.6-0.7-2.5-0.6c-0.9,0-1.7,0.2-2.4,0.6c-0.7,0.4-1.3,1.1-1.7,1.8c-0.8,1.6-0.8,3.5,0,5.1c0.4,0.8,1,1.4,1.7,1.8
	c0.7,0.4,1.6,0.7,2.4,0.6C463.7,249.6,464.6,249.3,465.3,248.9z M465,244.4c-0.3,0.3-0.7,0.6-1.1,0.7l1.8,2.7h-1.6l-1.5-2.5H462v2.5
	h-1.4v-6.7h1.8c2,0,2.9,0.7,2.9,2C465.4,243.7,465.3,244.1,465,244.4z M462,244.2h0.7c0.9,0,1.3-0.3,1.3-1c0-0.3-0.1-0.6-0.3-0.7
	c-0.3-0.2-0.7-0.2-1-0.2H462L462,244.2z"/>
<path class="st1" d="M-14.1,229.2c0.4,1.4,1.7,6.5,3,11.3l0,0l10.2,38.1c1.3,4.8,2.7,9.9,3,11.3l0,0c0.5,2.1-0.1,4.3-1.6,5.8l0,0
	l-8.3,8.3l0,0l-27.8,27.8c-3.5,3.7-7.1,7.4-8.3,8.3l0,0c-1.6,1.4-3.8,2-5.8,1.6l0,0l-11.3-3l0,0l-38.1-10.2l-11.3-3l0,0
	c-1-0.3-1.9-0.8-2.7-1.6l0,0c-0.8-0.7-1.3-1.7-1.6-2.7l0,0c-0.4-1.4-1.7-6.5-3-11.3l0,0l-10.2-38.1l-3-11.3l0,0l1.5-0.5l1.5-0.4
	c0.4,1.4,1.7,6.5,3,11.3l0,0l10.2,38.2c1.3,4.8,2.7,9.9,3,11.3l0,0c0.2,0.5,0.5,0.9,0.8,1.3l0,0c0.4,0.4,0.8,0.7,1.3,0.8l0,0l11.3,3
	l0,0l38.1,10.2l11.3,3l0,0c1,0.2,2.1-0.1,2.9-0.8l0,0l8.3-8.3l0,0l27.9-27.9l8.3-8.3l0,0c0.7-0.8,0.9-1.9,0.8-2.9l0,0
	c-0.4-1.4-1.7-6.5-3-11.3l0,0L-14,241.3c-1.3-4.8-2.7-9.9-3-11.3l0,0c-0.2-0.5-0.5-0.9-0.8-1.3l0,0c-0.4-0.4-0.8-0.7-1.3-0.8l0,0
	l-11.3-3.1l0,0l-38-10.2l-11.4-3l0,0c-1-0.2-2.1,0.1-2.9,0.8l0,0l-8.3,8.3l0,0l-27.9,27.9l-8.3,8.3l0,0c-0.7,0.8-1,1.9-0.8,2.9l0,0
	l-1.5,0.3l-1.5,0.4c-0.5-2.1,0.1-4.3,1.6-5.8l0,0l8.3-8.3l0,0l27.9-27.8l8.3-8.3l0,0c1.6-1.5,3.8-2,5.8-1.6l0,0l11.3,3l0,0
	l38.1,10.2l11.3,3l0,0c1,0.3,1.9,0.9,2.7,1.6l0,0C-14.9,227.3-14.4,228.2-14.1,229.2z"/>
<path class="st1" d="M-61.9,219.1l8.3,4.8l0,0l28.2,16.3l8.4,4.8l0,0c1.5,0.9,2.4,2.5,2.5,4.3l0,0v9.6l0,0v42.2l0,0
	c-0.1,1.8-1,3.4-2.5,4.3l0,0l-8.3,4.8l0,0l-28.3,16.3l-8.3,4.8l0,0c-0.8,0.4-1.6,0.6-2.5,0.6l0,0c-0.9,0-1.7-0.2-2.5-0.6l0,0
	l-8.3-4.8l0,0l-28.3-16.3l-8.3-4.8l0,0l0.6-1.1l0.6-1.1l8.3,4.8l0,0l28.2,16.3l8.4,4.8l0,0c0.4,0.2,0.8,0.3,1.2,0.3l0,0
	c0.4,0,0.9-0.1,1.3-0.3l0,0l8.3-4.8l0,0l28.2-16.3l8.3-4.8l0,0c0.7-0.5,1.2-1.3,1.4-2.2l0,0v-9.6l0,0v-42.2l0,0
	c-0.1-0.9-0.6-1.7-1.3-2.1l0,0l-8.3-4.8l0,0l-28.2-16.3l-8.3-4.8l0,0c-0.4-0.2-0.8-0.3-1.3-0.3l0,0c-0.4,0-0.9,0.1-1.2,0.3l0,0
	l-8.4,4.8l0,0l-28.2,16.3l-8.3,4.8l0,0c-0.7,0.5-1.2,1.3-1.3,2.2l0,0v9.6l0,0v42.2l0,0c0.1,0.9,0.5,1.6,1.3,2.2l0,0l-0.6,1.1
	l-0.6,1.1c-1.5-0.9-2.4-2.5-2.5-4.3l0,0c0-1.2,0-5.5,0-9.6l0,0v-42.2l0,0c0.1-1.8,1-3.4,2.5-4.3l0,0l8.3-4.8l0,0l28.3-16.3l8.3-4.8
	l0,0c0.8-0.4,1.6-0.6,2.5-0.6l0,0C-63.5,218.5-62.6,218.7-61.9,219.1z"/>
<path class="st1" d="M-98.1,238l8.3-2.2l0,0l28-7.5l8.3-2.2l0,0c1.5-0.3,3.1,0.1,4.3,1.2l0,0l6.1,6.1l0,0l20.5,20.5l6.1,6.1l0,0
	c1.1,1.1,1.5,2.8,1.1,4.3l0,0c-0.3,1-1.3,4.8-2.2,8.3l0,0l-7.5,28c-1,3.5-2,7.4-2.2,8.3l0,0c-0.2,0.7-0.6,1.4-1.2,2l0,0
	c-0.5,0.6-1.2,1-2,1.2l0,0l-8.3,2.2l0,0l-28,7.5l-8.3,2.2l0,0l-0.3-1l-0.3-1.1l8.3-2.2l0,0l28-7.5l8.3-2.2l0,0
	c0.4-0.1,0.7-0.3,1-0.6l0,0c0.3-0.3,0.5-0.6,0.6-1l0,0l2.2-8.3l0,0l7.5-28c1-3.5,2-7.3,2.2-8.3l0,0c0.1-0.8-0.1-1.5-0.6-2.1l0,0
	l-6-6.1l0,0l-20.5-20.5l-6.1-6.1l0,0c-0.6-0.5-1.4-0.7-2.1-0.6l0,0l-8.3,2.2l0,0l-28,7.6l-8.3,2.2l0,0c-0.4,0.1-0.7,0.3-1,0.6l0,0
	c-0.3,0.3-0.5,0.6-0.6,1l0,0c-0.3,1-1.3,4.8-2.2,8.3l0,0l-7.5,27.9c-0.9,3.5-1.9,7.3-2.2,8.3l0,0c-0.1,0.8,0.1,1.5,0.6,2.1l0,0
	l6.1,6.1l0,0l20.5,20.5l6.1,6.1l0,0c0.6,0.5,1.4,0.7,2.1,0.6l0,0l0.3,1.1l0.3,1.1c-1.5,0.3-3.1-0.1-4.3-1.2l0,0l-6.1-6.1l0,0
	L-106,296l-6.1-6.1l0,0c-1.1-1.1-1.5-2.7-1.2-4.3l0,0c0.3-1,1.3-4.8,2.2-8.3l0,0l7.5-28l2.2-8.3l0,0c0.2-0.7,0.6-1.4,1.2-2l0,0
	C-99.5,238.6-98.8,238.2-98.1,238z"/>
<path class="st1" d="M-105.5,316.4c-22.7-22.7-22.7-59.5,0-82.3s59.5-22.7,82.3,0s22.7,59.5,0,82.3c0,0,0,0,0,0
	C-45.9,339.1-82.7,339.1-105.5,316.4C-105.5,316.4-105.5,316.4-105.5,316.4z M-25.1,314.5c21.6-21.7,21.5-56.8-0.2-78.3
	c-21.7-21.6-56.8-21.5-78.3,0.2c-21.5,21.6-21.5,56.6,0.1,78.2C-81.9,336.3-46.8,336.2-25.1,314.5
	C-25.1,314.6-25.1,314.6-25.1,314.5L-25.1,314.5z"/>
<path class="st1" d="M-62.5,233.1l6.2,3.6l0,0l20.9,12l6.2,3.6l0,0c1.1,0.7,1.8,1.9,1.8,3.2l0,0v7.1l0,0v31.3l0,0
	c-0.1,1.3-0.7,2.5-1.8,3.2l0,0l-6.2,3.5l0,0l-20.9,12.1l-6.2,3.6l0,0c-0.6,0.3-1.2,0.5-1.8,0.5l0,0c-0.6,0-1.3-0.2-1.8-0.5l0,0
	l-6.2-3.6l0,0l-20.9-12.1l-6.2-3.6l0,0l0.5-0.8l0.5-0.8l6.1,3.6l0,0l20.9,12.1l6.2,3.6l0,0c0.3,0.2,0.6,0.2,0.9,0.2l0,0
	c0.3,0,0.6,0,0.9-0.2l0,0l6.2-3.6l0,0l20.9-12.1l6.2-3.6l0,0c0.5-0.4,0.9-0.9,0.9-1.6l0,0v-7.1l0,0v-31.3l0,0
	c-0.1-0.6-0.4-1.2-0.9-1.6l0,0l-6.2-3.6l0,0l-20.8-12l-6.2-3.6l0,0c-0.3-0.1-0.6-0.2-0.9-0.2l0,0c-0.3,0-0.6,0.1-0.9,0.2l0,0
	l-6.2,3.6l0,0l-20.9,12l-6.2,3.6l0,0c-0.5,0.4-0.9,1-0.9,1.6l0,0v7.1l0,0v31.3l0,0c0.1,0.6,0.4,1.2,0.9,1.6l0,0l-0.5,0.8l-0.5,0.8
	c-1.1-0.7-1.8-1.9-1.8-3.2l0,0v-7.2l0,0v-31.3l0,0c0-1.3,0.7-2.5,1.8-3.2l0,0l6.2-3.6l0,0l20.9-12l6.2-3.6l0,0
	c0.6-0.3,1.2-0.5,1.8-0.5l0,0C-63.7,232.7-63.1,232.8-62.5,233.1L-62.5,233.1z"/>
<path class="st1" d="M-94.8,305.1c-16.8-16.8-16.8-44.1,0-60.9s44.1-16.8,60.9,0c16.8,16.8,16.8,44.1,0,60.9
	C-50.7,322-78,322-94.8,305.1z M-35.3,303.8c16-16,15.9-42-0.1-58s-42-15.9-58,0.1c-15.9,16-15.9,41.9,0,57.9
	C-77.4,319.8-51.4,319.9-35.3,303.8C-35.4,303.8-35.3,303.8-35.3,303.8z"/>
</svg>
