<svg width="63" height="51" viewBox="0 0 63 51" fill="none" xmlns="http://www.w3.org/2000/svg">
<path d="M14.5226 39.5848L0.37673 26.3343C-0.125577 25.8692 -0.125577 25.0794 0.37673 24.6143L14.5226 11.3711C15.0027 10.9208 15.7488 10.9504 16.192 11.4228L20.4616 15.9701C20.927 16.4499 20.8827 17.2176 20.3803 17.6532L11.4866 25.4706L20.3803 33.2881C20.8827 33.731 20.9122 34.4913 20.4616 34.9711L16.192 39.5184C15.7488 39.9982 15.0027 40.0204 14.5226 39.5701V39.5848ZM21.3923 48.8049C20.7645 48.6277 20.4099 47.9707 20.5872 47.3433L33.987 1.22838C34.1642 0.600915 34.8217 0.246574 35.4495 0.42374L41.4403 2.1585C42.0682 2.33566 42.4227 2.99265 42.2455 3.62011L28.8457 49.735C28.661 50.3624 28.011 50.7242 27.3831 50.5396L21.3923 48.8049ZM46.6333 39.5332L42.3637 34.9859C41.8983 34.5061 41.9426 33.7384 42.4449 33.3028L51.3387 25.4854L42.4449 17.6605C41.9426 17.2176 41.9131 16.4499 42.3637 15.9701L46.6333 11.4228C47.0839 10.9504 47.8299 10.9356 48.3027 11.3711L62.4485 24.6291C62.9508 25.0941 62.9508 25.884 62.4485 26.3491L48.3027 39.5996C47.8226 40.0425 47.0765 40.0204 46.6333 39.5406V39.5332Z" fill="#7893B0"/>
</svg>
