<svg width="51" height="39" viewBox="0 0 51 39" fill="none" xmlns="http://www.w3.org/2000/svg">
<path d="M46.2225 9.03997C43.6371 6.41938 40.217 4.95776 36.5532 4.87656L38.4442 2.98679C38.688 2.74319 38.688 2.34457 38.4442 2.09358L36.6639 0.314539C36.4202 0.0709351 36.0213 0.0709351 35.7775 0.314539L28.339 7.74813C28.0952 7.99173 28.0952 8.39036 28.339 8.64135L35.7775 16.0749C36.0213 16.3185 36.4202 16.3185 36.6713 16.0749L38.4516 14.2959C38.6954 14.0523 38.6954 13.6537 38.4516 13.4027L35.7406 10.6935C35.9105 10.6861 36.073 10.6566 36.2429 10.6566C38.4368 10.6566 40.5051 11.5129 42.0637 13.0705C45.277 16.2816 45.2696 21.5007 42.0637 24.7044C40.5051 26.262 38.4368 27.1183 36.2429 27.1183C34.049 27.1183 31.9807 26.262 30.422 24.7044C28.9964 23.2797 28.1469 21.3973 28.0213 19.4042C27.8514 15.9273 26.3962 12.6497 23.929 10.1842C21.2771 7.53406 17.761 6.07982 14.0158 6.07982C10.2707 6.07982 6.76931 7.52667 4.11742 10.162C-1.33408 15.5877 -1.3784 24.4534 4.02139 29.9308C6.60679 32.544 10.0269 34.013 13.6908 34.0942L11.7998 35.984C11.556 36.2276 11.556 36.6262 11.7998 36.8698L13.58 38.6489C13.8238 38.8925 14.2227 38.8925 14.4664 38.6489L21.905 31.2153C22.1488 30.9717 22.1488 30.573 21.905 30.3221L14.4664 22.8885C14.2227 22.6449 13.8238 22.6449 13.5726 22.8885L11.7924 24.6675C11.5486 24.9111 11.5486 25.3097 11.7924 25.5607L14.5034 28.2699C14.3335 28.2773 14.1709 28.3068 14.001 28.3068C11.8072 28.3068 9.73883 27.4505 8.1802 25.8929C6.62157 24.3353 5.76473 22.2684 5.76473 20.0759C5.76473 17.8835 6.62157 15.8166 8.1802 14.259C9.73883 12.7014 11.8072 11.8451 14.001 11.8451C16.1949 11.8451 18.2633 12.7014 19.8219 14.259C21.2476 15.6837 22.0971 17.5661 22.2226 19.5592C22.3925 23.0361 23.8477 26.3137 26.3149 28.7792C28.9668 31.4293 32.483 32.8836 36.2355 32.8836C39.9881 32.8836 43.482 31.4367 46.1339 28.8014C51.5854 23.3757 51.6297 14.51 46.2299 9.03259L46.2225 9.03997Z" fill="#7893B0"/>
</svg>
