<svg width="51" height="51" viewBox="0 0 51 51" fill="none" xmlns="http://www.w3.org/2000/svg">
<path d="M7.06923 9.00904V13.7187H2.94736C2.62234 13.7187 2.35641 13.453 2.35641 13.1282V12.5376H0.590948C0.265926 12.5376 0 12.2718 0 11.947V10.7733C0 10.4485 0.265926 10.1828 0.590948 10.1828H2.35641V9.59222C2.35641 9.26742 2.62234 9.00167 2.94736 9.00167H7.06923V9.00904ZM7.06923 18.4284V23.138H2.94736C2.62234 23.138 2.35641 22.8723 2.35641 22.5475V21.9569H0.590948C0.265926 21.9569 0 21.6912 0 21.3664V20.1927C0 19.8679 0.265926 19.6021 0.590948 19.6021H2.35641V19.0116C2.35641 18.6867 2.62234 18.421 2.94736 18.421H7.06923V18.4284ZM7.06923 27.8477V32.5574H2.94736C2.62234 32.5574 2.35641 32.2916 2.35641 31.9668V31.3763H0.590948C0.265926 31.3763 0 31.1105 0 30.7857V29.612C0 29.2872 0.265926 29.0214 0.590948 29.0214H2.35641V28.4309C2.35641 28.1061 2.62234 27.8403 2.94736 27.8403H7.06923V27.8477ZM7.06923 37.267V41.9767H2.94736C2.62234 41.9767 2.35641 41.711 2.35641 41.3862V40.7956H0.590948C0.265926 40.7956 0 40.5299 0 40.2051V39.0313C0 38.7065 0.265926 38.4408 0.590948 38.4408H2.35641V37.8502C2.35641 37.5254 2.62234 37.2597 2.94736 37.2597H7.06923V37.267ZM40.8346 45.8965C40.8346 48.4949 38.7219 50.6062 36.1218 50.6062H14.1385C11.5383 50.6062 9.42564 48.4949 9.42564 45.8965V5.09662C9.42564 2.49819 11.5383 0.386963 14.1385 0.386963H36.1218C38.7219 0.386963 40.8346 2.49819 40.8346 5.09662V45.8965ZM50.2602 11.9618C50.2602 12.2866 49.9943 12.5524 49.6693 12.5524H47.9038V13.1429C47.9038 13.4677 47.6379 13.7335 47.3129 13.7335H43.191V9.02381H47.3129C47.6379 9.02381 47.9038 9.28956 47.9038 9.61437V10.2049H49.6693C49.9943 10.2049 50.2602 10.4707 50.2602 10.7955V11.9692V11.9618ZM50.2602 21.3812C50.2602 21.706 49.9943 21.9717 49.6693 21.9717H47.9038V22.5623C47.9038 22.8871 47.6379 23.1528 47.3129 23.1528H43.191V18.4431H47.3129C47.6379 18.4431 47.9038 18.7089 47.9038 19.0337V19.6243H49.6693C49.9943 19.6243 50.2602 19.89 50.2602 20.2148V21.3885V21.3812ZM50.2602 30.8005C50.2602 31.1253 49.9943 31.391 49.6693 31.391H47.9038V31.9816C47.9038 32.3064 47.6379 32.5721 47.3129 32.5721H43.191V27.8625H47.3129C47.6379 27.8625 47.9038 28.1282 47.9038 28.453V29.0436H49.6693C49.9943 29.0436 50.2602 29.3093 50.2602 29.6341V30.8079V30.8005ZM50.2602 40.2198C50.2602 40.5446 49.9943 40.8104 49.6693 40.8104H47.9038V41.4009C47.9038 41.7257 47.6379 41.9915 47.3129 41.9915H43.191V37.2818H47.3129C47.6379 37.2818 47.9038 37.5476 47.9038 37.8724V38.4629H49.6693C49.9943 38.4629 50.2602 38.7287 50.2602 39.0535V40.2272V40.2198Z" fill="#7893B0"/>
</svg>
