<svg width="44" height="51" viewBox="0 0 44 51" fill="none" xmlns="http://www.w3.org/2000/svg">
<path d="M43.9666 12.0355C43.9666 15.9848 34.1199 19.2107 21.9833 19.2107C9.84668 19.2107 0 15.9848 0 12.0355V7.55462C0 3.6053 9.84668 0.379395 21.9833 0.379395C34.1199 0.379395 43.9666 3.6053 43.9666 7.55462V12.0355ZM43.9666 27.7294C43.9666 31.6787 34.1199 34.9046 21.9833 34.9046C9.84668 34.9046 0 31.6787 0 27.7294V17.6383C4.72021 20.8864 13.3702 22.3997 21.9833 22.3997C30.5964 22.3997 39.2464 20.8864 43.9666 17.6383V27.7294ZM43.9666 43.4234C43.9666 47.3727 34.1199 50.5986 21.9833 50.5986C9.84668 50.5986 0 47.3727 0 43.4234V33.3323C4.72021 36.5803 13.3702 38.0936 21.9833 38.0936C30.5964 38.0936 39.2464 36.5803 43.9666 33.3323V43.4234Z" fill="#7893B0"/>
</svg>
