<svg width="51" height="45" viewBox="0 0 51 45" fill="none" xmlns="http://www.w3.org/2000/svg">
<path d="M34.5483 14.6384L12.9122 37.8029C12.6906 38.0391 12.3804 38.1794 12.048 38.1794H1.17449C0.524442 38.1794 0 37.6553 0 37.0056V31.5135C0 30.8639 0.524442 30.3398 1.17449 30.3398H9.41825L31.0544 7.17529C31.2464 6.9686 31.6305 6.79882 31.9186 6.79882H37.6877V2.87902C37.6877 0.775172 40.2362 -0.258305 41.7062 1.2107L49.5584 9.05768C50.4818 9.98043 50.4818 11.4716 49.5584 12.3869L41.7062 20.2339C40.2362 21.7029 37.6877 20.6768 37.6877 18.5656V14.6458H34.5483V14.6384ZM0 13.4647V7.97254C0 7.32293 0.524442 6.79882 1.17449 6.79882H12.048C12.3287 6.79882 12.7202 6.9686 12.9122 7.17529L19.8337 14.5941L14.5964 20.197L9.41825 14.6532H1.17449C0.524442 14.6532 0 14.1291 0 13.4794V13.4647ZM49.5584 35.9205L41.7062 43.7675C40.2362 45.2365 37.6877 44.2104 37.6877 42.0992V38.1794H31.9186C31.6379 38.1794 31.2464 38.0096 31.0544 37.8029L24.1329 30.3841L29.3702 24.7812L34.5483 30.325H37.6877V26.4052C37.6877 24.3014 40.2362 23.2679 41.7062 24.7369L49.5584 32.5839C50.4818 33.5066 50.4818 34.9978 49.5584 35.9131V35.9205Z" fill="#7893B0"/>
</svg>
