<svg width="51" height="15" viewBox="0 0 51 15" fill="none" xmlns="http://www.w3.org/2000/svg">
<path d="M14.5964 7.48548C14.5964 11.516 11.3315 14.7788 7.29822 14.7788C3.265 14.7788 0 11.516 0 7.48548C0 3.45495 3.265 0.192139 7.29822 0.192139C11.3315 0.192139 14.5964 3.45495 14.5964 7.48548ZM25.1301 14.7788C21.0969 14.7788 17.8319 11.516 17.8319 7.48548C17.8319 3.45495 21.0969 0.192139 25.1301 0.192139C29.1633 0.192139 32.4283 3.45495 32.4283 7.48548C32.4283 11.516 29.1633 14.7788 25.1301 14.7788ZM50.2528 7.48548C50.2528 11.516 46.9879 14.7788 42.9546 14.7788C38.9214 14.7788 35.6564 11.516 35.6564 7.48548C35.6564 3.45495 38.9214 0.192139 42.9546 0.192139C46.9879 0.192139 50.2528 3.45495 50.2528 7.48548Z" fill="#7893B0"/>
</svg>
