<svg width="47" height="49" viewBox="0 0 47 49" fill="none" xmlns="http://www.w3.org/2000/svg">
<path d="M46.5709 31.7123C45.4776 35.2114 43.6235 38.3708 41.2006 40.9914C40.8239 41.4048 40.2256 41.4934 39.7454 41.2203L35.5644 38.8064C33.799 40.3049 31.775 41.4712 29.5958 42.2463V47.0741C29.5958 47.6204 29.2117 48.1076 28.6725 48.2257C25.245 48.9934 21.559 49.0303 17.9542 48.2257C17.4149 48.1076 17.0308 47.6278 17.0308 47.0741V42.2463C14.8443 41.4786 12.8203 40.3123 11.0622 38.8064L6.88124 41.2203C6.40848 41.4934 5.80278 41.3974 5.42605 40.9914C3.00316 38.3635 1.14904 35.204 0.0557877 31.7123C-0.0993364 31.1808 0.114913 30.6124 0.595059 30.3393L4.776 27.9254C4.35495 25.6518 4.35495 23.3191 4.776 21.0381L0.595059 18.6242C0.114913 18.3511 -0.11411 17.7827 0.0557877 17.2512C1.14904 13.7521 3.00316 10.5927 5.42605 7.97207C5.80278 7.55869 6.4011 7.47011 6.88124 7.75062L11.0548 10.1645C12.8203 8.66597 14.8443 7.49226 17.0234 6.72454V1.89675C17.0234 1.35049 17.4076 0.863283 17.9468 0.752554C21.3743 -0.0151659 25.0604 -0.0520755 28.6651 0.752554C29.2044 0.870665 29.5885 1.35049 29.5885 1.89675V6.70977C31.775 7.47749 33.799 8.64384 35.5571 10.1497L39.738 7.73586C40.2108 7.46273 40.8165 7.55869 41.1932 7.9647C43.6161 10.5927 45.4702 13.7521 46.5635 17.2438C46.7186 17.7753 46.5044 18.3437 46.0243 18.6168L41.8433 21.0307C42.2643 23.3043 42.2643 25.637 41.8433 27.918L46.0243 30.3319C46.5044 30.6051 46.7186 31.1735 46.5709 31.7123ZM31.1619 24.4781C31.1619 20.1522 27.6384 16.6311 23.3097 16.6311C18.981 16.6311 15.4574 20.1522 15.4574 24.4781C15.4574 28.8039 18.981 32.325 23.3097 32.325C27.6384 32.325 31.1619 28.8039 31.1619 24.4781Z" fill="#7893B0"/>
</svg>
