<svg width="32" height="37" viewBox="0 0 32 37" fill="none" xmlns="http://www.w3.org/2000/svg">
<path d="M13.29 5.37549H13V12.1523H19V11.8247C19 11.5311 18.85 11.1358 18.67 10.9325L14.08 5.74823C13.9 5.54493 13.54 5.37549 13.29 5.37549ZM11.5 5.37549H2.12C1.5 5.37549 1 5.94022 1 6.64048V31.2063C1 31.9066 1.5 32.4713 2.12 32.4713H17.88C18.5 32.4713 19 31.9066 19 31.2063V30.0656C16.36 28.7554 14.5 25.7736 14.5 22.3175C14.5 18.8613 16.36 15.8795 19 14.5693V13.8465H12.62C12 13.8465 11.5 13.2705 11.5 12.5815V5.37549Z" fill="#000000
"/>
<path d="M31 30.4396C31 30.6316 30.9 30.9027 30.78 31.0383L29.72 32.2355C29.6 32.371 29.36 32.484 29.19 32.484C29.02 32.484 28.78 32.371 28.66 32.2355L25.03 28.1355C24.14 28.7341 23.11 29.0956 22 29.0956C18.69 29.0956 16 26.0573 16 22.3188C16 18.5803 18.69 15.542 22 15.542C25.31 15.542 28 18.5803 28 22.3188C28 23.3353 27.62 24.8714 27.15 25.7411L30.78 29.841C30.9 29.9766 31 30.2476 31 30.4396V30.4396ZM25 22.3188C25 20.4439 23.66 18.9304 22 18.9304C20.34 18.9304 19 20.4439 19 22.3188C19 24.1937 20.34 25.7072 22 25.7072C23.66 25.7072 25 24.1937 25 22.3188Z" fill="#000000
"/>
</svg>
