<svg width="33" height="32" viewBox="0 0 33 32" fill="none" xmlns="http://www.w3.org/2000/svg">
<path d="M29.7602 9.13992C29.0802 9.60992 28.1502 9.44992 27.6702 8.76992C25.1802 5.21992 21.1002 3.05992 16.7602 2.99992C13.2402 2.94992 9.9502 4.24992 7.5302 6.67992C5.2102 8.99992 3.9602 12.0899 4.0102 15.3699V16.8499C3.9802 17.6599 3.3102 18.3099 2.5002 18.3099C2.4902 18.3099 2.4702 18.3099 2.4502 18.3099C1.6202 18.2899 0.970204 17.5899 1.0002 16.7699V15.4299C0.940204 11.3299 2.5002 7.47992 5.4002 4.56992C8.4002 1.56992 12.4402 -0.0400805 16.8002 0.0099195C22.1002 0.0899195 27.0802 2.72992 30.1202 7.05992C30.6002 7.73992 30.4302 8.66992 29.7502 9.14992L29.7602 9.13992ZM10.2502 11.1399C9.0702 12.5799 8.4702 14.3299 8.5002 16.1999C8.5402 18.7399 8.3302 21.2899 7.8802 23.7799C7.8302 24.0599 7.3902 25.2099 6.1402 24.9899C5.3202 24.8399 4.7802 24.0599 4.9302 23.2499C5.3402 20.9499 5.5402 18.5999 5.5002 16.2499C5.4602 13.7099 6.3202 11.2199 7.9202 9.24992C8.4402 8.60992 9.3902 8.50992 10.0302 9.02992C10.6702 9.54992 10.7702 10.4999 10.2502 11.1399ZM23.5102 16.6899C23.5602 19.8699 23.3202 23.0699 22.8102 26.1999C22.7602 26.4899 22.3302 27.6399 21.0902 27.4399C20.2702 27.2999 19.7202 26.5299 19.8602 25.7199C20.3502 22.7699 20.5702 19.7499 20.5202 16.7499C20.4902 14.8699 18.8802 13.3099 16.9202 13.2799C14.7602 13.2799 13.4902 14.9299 13.5202 16.5499C13.5702 19.7699 13.2702 22.9799 12.6202 26.1099C12.4502 26.9199 11.6602 27.4399 10.8502 27.2799C10.0402 27.1099 9.5202 26.3199 9.6802 25.5099C10.2802 22.5999 10.5602 19.5999 10.5202 16.5999C10.4702 13.2199 13.1402 10.2799 16.9702 10.2799C20.5302 10.3299 23.4702 13.2099 23.5302 16.6999L23.5102 16.6899ZM28.5102 16.4999C28.5102 16.7499 28.5102 17.1499 28.5102 17.3999C28.5102 19.2299 28.3402 22.1799 28.1302 23.9899C28.0602 24.5699 27.5102 25.4299 26.4702 25.3099C25.6502 25.2199 25.0602 24.4699 25.1502 23.6499C25.4202 21.3099 25.5402 18.9199 25.5002 16.5499C25.4302 11.9799 21.5302 8.20992 16.8202 8.13992C16.1002 8.13992 15.3902 8.20992 14.7002 8.36992C13.8902 8.55992 13.0902 8.05992 12.8902 7.25992C12.7002 6.44992 13.2002 5.64992 14.0002 5.44992C14.9302 5.22992 15.9002 5.10992 16.8602 5.13992C23.1802 5.22992 28.4002 10.3299 28.5002 16.4999H28.5102ZM18.5002 16.8799C18.6002 23.0699 17.5002 27.9199 16.6602 30.9099C16.4702 31.5699 15.8702 31.9999 15.2202 31.9999C13.9102 31.9999 13.6002 30.6999 13.7802 30.0899C15.0002 25.7399 15.5802 21.3799 15.5102 16.8699C15.5102 16.0399 16.1802 15.3699 17.0102 15.3699C17.8402 15.3699 18.5102 16.0399 18.5102 16.8699L18.5002 16.8799ZM32.9902 17.2499C32.9902 18.0699 32.3102 18.7399 31.4902 18.7399H31.4802C30.6502 18.7399 29.9902 18.0599 29.9902 17.2299C30.0002 15.7199 29.9902 14.7199 29.7002 13.3799C29.5202 12.5699 30.0302 11.7699 30.8402 11.5899C31.6602 11.4099 32.4502 11.9199 32.6302 12.7299C33.0202 14.4899 33.0102 15.8599 32.9902 17.2499Z" fill="#7993B0"/>
</svg>
