<svg width="26" height="26" viewBox="0 0 26 26" fill="none" xmlns="http://www.w3.org/2000/svg">
<g clip-path="url(#clip0_8832_25671)">
<path d="M19.1093 14.8935C18.8238 15.8103 18.3353 16.6444 17.6966 17.3282C17.5989 17.4334 17.4411 17.4635 17.3134 17.3883L16.2162 16.7571C15.7503 17.1479 15.2243 17.456 14.6457 17.6589V18.9288C14.6457 19.0716 14.548 19.1993 14.4053 19.2294C13.5035 19.4323 12.5342 19.4398 11.5873 19.2294C11.4446 19.1993 11.3469 19.0716 11.3469 18.9288V17.6589C10.7758 17.456 10.2423 17.1479 9.77636 16.7571L8.67925 17.3883C8.55902 17.4635 8.3937 17.4334 8.29601 17.3282C7.65728 16.6369 7.16884 15.8103 6.88329 14.8935C6.84572 14.7508 6.89832 14.608 7.02607 14.5329L8.12318 13.9016C8.01046 13.3005 8.01046 12.6918 8.12318 12.0907L7.02607 11.4594C6.89832 11.3843 6.83821 11.2415 6.88329 11.0987C7.16884 10.182 7.65728 9.34788 8.29601 8.66406C8.3937 8.55886 8.5515 8.5288 8.67925 8.60395L9.77636 9.23516C10.2423 8.84441 10.7683 8.53632 11.3469 8.33343V7.06349C11.3469 6.92071 11.4446 6.79297 11.5873 6.76291C12.4891 6.56002 13.4584 6.5525 14.4053 6.76291C14.548 6.79297 14.6457 6.92071 14.6457 7.06349V8.32591C15.2168 8.5288 15.7503 8.8369 16.2162 9.22765L17.3134 8.59643C17.4336 8.52129 17.5989 8.55135 17.6966 8.65655C18.3353 9.34788 18.8238 10.1745 19.1093 11.0912C19.1469 11.234 19.0943 11.3768 18.9665 11.4519L17.8694 12.0831C17.9821 12.6843 17.9821 13.293 17.8694 13.8941L18.9665 14.5253C19.0943 14.6005 19.1469 14.7433 19.1093 14.886V14.8935ZM15.059 12.9924C15.059 11.8577 14.1347 10.9334 13.0001 10.9334C11.8654 10.9334 10.9411 11.8577 10.9411 12.9924C10.9411 14.1271 11.8654 15.0513 13.0001 15.0513C14.1347 15.0513 15.059 14.1271 15.059 12.9924Z" fill="white"/>
<path d="M13.3081 0.413295C9.49827 0.383237 6.07168 2.0289 3.71214 4.64393V0.616185C3.71214 0.278035 3.4341 0 3.09595 0H0.616185C0.278035 0 0 0.278035 0 0.616185V10.941C0 11.2792 0.278035 11.5572 0.616185 11.5572H10.941C11.2792 11.5572 11.5572 11.2792 11.5572 10.941V8.46879C11.5572 8.13064 11.2792 7.8526 10.941 7.8526H5.8763C7.52197 5.59075 10.1971 4.12543 13.2104 4.12543C15.7202 4.12543 17.9896 5.13988 19.6353 6.78555L6.37225 20.011C6.37225 20.011 6.36474 20.011 6.35723 20.0185L4.60636 21.7694C4.35838 22.0173 4.3659 22.4306 4.6289 22.6711C6.89827 24.7301 9.91156 25.985 13.2104 25.985C20.259 25.985 25.9775 20.274 25.9925 13.2254C26.0075 6.16936 20.3566 0.465896 13.3006 0.413295H13.3081ZM13.2104 22.2728C11.9179 22.2728 10.6931 21.9948 9.58092 21.5064L21.5214 9.5659C22.0098 10.678 22.2803 11.9104 22.2803 13.2029C22.2803 18.215 18.2225 22.2728 13.2104 22.2728Z" fill="#7893B0"/>
</g>
<defs>
<clipPath id="clip0_8832_25671">
<rect width="26" height="25.985" fill="white"/>
</clipPath>
</defs>
</svg>
