<svg width="32" height="32" viewBox="0 0 32 32" fill="none" xmlns="http://www.w3.org/2000/svg">
<path d="M0.689771 9.9498H1.50977C1.68977 10.4598 1.95977 10.9198 2.30977 11.3198L1.89977 12.0398C1.74977 12.2998 1.80977 12.6298 2.03977 12.8198C2.50977 13.2098 3.04977 13.5298 3.64977 13.7498C3.92977 13.8498 4.24977 13.7498 4.39977 13.4798L4.80977 12.7698C5.32977 12.8698 5.86977 12.8698 6.38977 12.7698L6.79977 13.4798C6.94977 13.7498 7.26977 13.8598 7.54977 13.7498C8.13977 13.5298 8.67977 13.2098 9.15977 12.8198C9.39977 12.6298 9.44977 12.2898 9.29977 12.0398L8.88977 11.3198C9.22977 10.9198 9.50977 10.4498 9.68977 9.9498H10.5098C10.8098 9.9498 11.0698 9.72978 11.1198 9.42978C11.2298 8.80978 11.2198 8.16977 11.1198 7.57977C11.0698 7.27977 10.8098 7.06979 10.5098 7.06979H9.68977C9.50977 6.55979 9.23977 6.0998 8.88977 5.6998L9.29977 4.9798C9.44977 4.7198 9.38977 4.3898 9.15977 4.1998C8.67977 3.8098 8.14977 3.48977 7.54977 3.26977C7.25977 3.15977 6.93977 3.26979 6.79977 3.53979L6.38977 4.24979C5.86977 4.14979 5.32977 4.14979 4.80977 4.24979L4.39977 3.53979C4.24977 3.26979 3.92977 3.16977 3.64977 3.26977C3.05977 3.48977 2.51977 3.8098 2.03977 4.1998C1.79977 4.3898 1.74977 4.7298 1.89977 4.9798L2.30977 5.6998C1.96977 6.0998 1.68977 6.56979 1.50977 7.06979H0.689771C0.389771 7.06979 0.129771 7.28978 0.0797712 7.58978C-0.0302288 8.21978 -0.0202288 8.84979 0.0797712 9.43979C0.129771 9.73979 0.389771 9.9498 0.689771 9.9498ZM6.91977 7.18979C8.39977 9.11979 6.20977 11.3098 4.27977 9.82977C2.79977 7.89977 4.98977 5.70979 6.91977 7.18979Z" fill="#7993B0"/>
<path d="M31.3998 18.4499L29.7398 17.6099C29.9298 16.5599 29.9298 15.4799 29.7398 14.4399L31.3998 13.5999C31.8998 13.2999 32.1198 12.6899 31.9198 12.1499C31.4798 10.9399 30.6198 9.82988 29.8098 8.85988C29.4398 8.41988 28.7898 8.3099 28.2898 8.5999L26.8398 9.42989C26.0398 8.73989 25.1098 8.2099 24.0898 7.8499V6.16991C24.0898 5.58991 23.6598 5.08989 23.0898 4.98989C21.8098 4.76989 20.5198 4.77989 19.2898 4.98989C18.7198 5.08989 18.3098 5.58991 18.3098 6.16991V7.8499C17.2898 8.2099 16.3598 8.74989 15.5598 9.42989L14.0998 8.58989C13.5998 8.29989 12.9598 8.4099 12.5798 8.8499C11.7698 9.8199 10.8998 10.9299 10.4498 12.1399C10.2498 12.6899 10.4698 13.2999 10.9798 13.5899L12.1498 14.1699C12.8098 12.0599 14.2498 10.2499 16.2598 9.17989C17.5098 8.50989 18.9198 8.1599 20.3298 8.1599C21.8898 8.1599 23.4198 8.5799 24.7598 9.3799C25.5998 9.8799 26.1098 10.7899 26.0898 11.7699C26.0698 12.7499 25.5198 13.6399 24.6598 14.0999L21.4798 15.7999L21.4298 16.2099L21.7998 16.3899L24.9698 14.6899C25.3598 14.4799 25.8098 14.3699 26.2498 14.3699C26.9898 14.3699 27.7098 14.6799 28.2198 15.2199C28.7298 15.7599 28.9998 16.4799 28.9598 17.2199C28.8498 19.4299 27.8798 21.4899 26.3198 22.9999C26.4898 22.8699 26.6598 22.7499 26.8198 22.6099L28.2698 23.4499C28.7798 23.7399 29.4198 23.6299 29.7898 23.1799C30.5998 22.2099 31.4598 21.0999 31.8998 19.8899C32.0998 19.3399 31.8798 18.7299 31.3798 18.4399L31.3998 18.4499Z" fill="#7993B0"/>
<path d="M20.3898 25.4296C19.6898 25.4296 18.9898 25.3396 18.3198 25.1696V25.8796C18.3198 26.4696 18.7398 26.9596 19.3198 27.0596C20.5898 27.2696 21.8898 27.2596 23.1198 27.0596C23.6898 26.9596 24.0998 26.4596 24.0998 25.8796V24.5596C22.9398 25.1196 21.6698 25.4196 20.3898 25.4196V25.4296Z" fill="#7993B0"/>
<path d="M23.3997 22.4996C21.1697 23.6996 18.5597 23.4196 16.6197 22.0496L4.68969 28.4396C3.28969 29.1896 1.54969 28.6596 0.799686 27.2596C0.0496861 25.8596 0.579686 24.1196 1.97969 23.3696L13.9197 16.9696C13.8597 14.5996 15.0797 12.2696 17.2997 11.0896C19.3697 9.97957 21.7797 10.1096 23.6597 11.2396C24.0197 11.4496 24.0097 11.9796 23.6397 12.1796L19.4797 14.4096L19.0797 17.4696L21.8497 18.8396L26.0097 16.6096C26.3797 16.4096 26.8197 16.6896 26.7997 17.1096C26.6897 19.2996 25.4697 21.3796 23.3897 22.4896L23.3997 22.4996ZM4.35969 26.2196C4.52969 25.6496 4.20969 25.0496 3.63969 24.8796C3.06969 24.7096 2.46969 25.0296 2.29969 25.5996C2.12969 26.1696 2.44969 26.7696 3.01969 26.9396C3.58969 27.1096 4.18969 26.7896 4.35969 26.2196Z" fill="white"/>
</svg>
