<svg width="32" height="32" viewBox="0 0 32 32" fill="none" xmlns="http://www.w3.org/2000/svg">
<path d="M21.53 20.5396L23.75 18.3196C24.17 17.8996 24.89 18.1996 24.89 18.7896V27.5596C24.89 29.0296 23.7 30.2296 22.22 30.2296H2.67C1.19 30.2196 0 29.0196 0 27.5496V7.99959C0 6.52959 1.19 5.32959 2.67 5.32959H18.55C19.14 5.32959 19.44 6.04959 19.02 6.46959L16.8 8.68959C16.67 8.80959 16.51 8.87959 16.33 8.87959H3.56V26.6596H21.33V20.9996C21.33 20.8196 21.4 20.6596 21.52 20.5296L21.53 20.5396Z" fill="#7993B0"/>
<path d="M27.38 11.4097C27.59 11.6197 27.59 11.9697 27.38 12.1797L15.25 24.3097L10.09 24.8797C9.39998 24.9597 8.81998 24.3697 8.89998 23.6897L9.46998 18.5297L21.6 6.39969C21.81 6.18969 22.16 6.18969 22.37 6.39969L27.38 11.4097Z" fill="#22B573"/>
<path d="M31.3699 8.18978L29.3999 10.1598C29.1899 10.3698 28.8399 10.3698 28.6299 10.1598L23.6199 5.14978C23.4099 4.93978 23.4099 4.58978 23.6199 4.37978L25.5899 2.40979C26.4399 1.56979 27.8099 1.56979 28.6599 2.40979L31.3699 5.11978C32.2099 5.95978 32.2099 7.33978 31.3699 8.18978Z" fill="#22B573"/>
</svg>
