<svg width="34" height="31" viewBox="0 0 34 31" fill="none" xmlns="http://www.w3.org/2000/svg">
<path d="M15.23 16.1899H15.05C8.83999 16.1899 3.49999 14.9299 1.09999 13.1299L0.98999 18.7599H1.09999C3.29999 20.4199 7.98999 21.6099 13.54 21.7899C13.58 19.7299 14.19 17.8099 15.22 16.1899H15.23Z" fill="#7993B0"/>
<path d="M13.59 22.9799C8.00999 22.7999 3.30999 21.5999 1.09999 19.9399L0.98999 25.5699H1.09999C3.49999 27.3699 8.83999 28.6299 15.05 28.6299C15.31 28.6299 15.57 28.6299 15.83 28.6299C14.59 27.0399 13.79 25.0999 13.59 22.9899V22.9799Z" fill="#7993B0"/>
<path d="M15.06 7.95C22.82 7.95 29.12 6.17 29.12 3.97C29.12 1.77 22.82 0 15.06 0C7.3 0 1 1.78 1 3.98C1 6.18 7.29 7.96 15.06 7.96V7.95Z" fill="#7993B0"/>
<path d="M16.12 14.9898C18.1 12.6598 21.05 11.1798 24.35 11.1798C25.92 11.1798 27.4 11.5098 28.75 12.1098C28.84 12.0498 28.93 11.9998 29 11.9298H29.11L29 6.2998C26.6 8.0998 21.26 9.3598 15.05 9.3598C8.84 9.3598 3.51 8.1098 1.11 6.3098L1 11.9398H1.11C3.51 13.7398 8.85 14.9998 15.06 14.9998C15.42 14.9998 15.77 14.9998 16.12 14.9898Z" fill="#7993B0"/>
<path d="M24.35 13.3301C21.8 13.3301 19.52 14.4401 17.93 16.2001L16.64 15.4001L16.5 20.6301L21.1 18.1401L19.78 17.3301C20.96 16.1701 22.57 15.4501 24.36 15.4501C27.96 15.4501 30.89 18.3701 30.89 21.9801C30.89 25.5901 27.97 28.5101 24.36 28.5101C20.75 28.5101 17.92 25.6701 17.84 22.1301L15.78 23.0301C16.3 27.3101 19.94 30.6301 24.36 30.6301C29.14 30.6301 33.01 26.7601 33.01 21.9801C33.01 17.2001 29.14 13.3301 24.36 13.3301H24.35Z" fill="#22B573"/>
<path d="M25.23 21.0499V17.1999C25.23 16.7499 24.86 16.3799 24.41 16.3799C23.96 16.3799 23.59 16.7499 23.59 17.1999V21.0499C23.59 21.0499 23.5 21.1199 23.46 21.1599H20.58C20.13 21.1599 19.76 21.5299 19.76 21.9799C19.76 22.4299 20.13 22.7999 20.58 22.7999H23.36C23.59 23.1299 23.98 23.3399 24.4 23.3399C25.11 23.3399 25.69 22.7599 25.69 22.0499C25.69 21.6499 25.5 21.2899 25.21 21.0499H25.23Z" fill="#22B573"/>
</svg>
