<svg width="33" height="32" viewBox="0 0 33 32" fill="none" xmlns="http://www.w3.org/2000/svg">
<path d="M14.24 16.8798H14.06C7.85 16.8798 2.51 15.6198 0.11 13.8198L0 19.4498H0.11C2.31 21.1098 7 22.2998 12.55 22.4798C12.59 20.4198 13.2 18.4998 14.23 16.8798H14.24Z" fill="#7993B0"/>
<path d="M12.6 23.6699C7.02 23.4899 2.32 22.2899 0.11 20.6299L0 26.2599H0.11C2.51 28.0599 7.85 29.3199 14.06 29.3199C14.32 29.3199 14.58 29.3199 14.84 29.3199C13.6 27.7299 12.8 25.7899 12.6 23.6799V23.6699Z" fill="#7993B0"/>
<path d="M14.07 8.63994C21.83 8.63994 28.13 6.85994 28.13 4.65994C28.13 2.45994 21.83 0.689941 14.07 0.689941C6.31001 0.689941 0.0100098 2.46994 0.0100098 4.65994C0.0100098 6.84994 6.30001 8.63994 14.07 8.63994Z" fill="#7993B0"/>
<path d="M15.13 15.6797C17.11 13.3497 20.06 11.8697 23.36 11.8697C24.93 11.8697 26.41 12.1997 27.76 12.7997C27.85 12.7397 27.94 12.6897 28.01 12.6197H28.12L28.01 6.98975C25.61 8.78975 20.27 10.0497 14.06 10.0497C7.85001 10.0497 2.52001 8.79975 0.12001 6.98975L0.0100098 12.6197H0.12001C2.52001 14.4197 7.86001 15.6797 14.07 15.6797C14.43 15.6797 14.78 15.6797 15.13 15.6697V15.6797Z" fill="#7993B0"/>
<path d="M30.15 20.5899H28.95C28.69 19.8599 28.3 19.1799 27.8 18.5999L28.39 17.5599C28.61 17.1799 28.52 16.6999 28.19 16.4199C27.5 15.8499 26.72 15.3899 25.86 15.0699C25.45 14.9199 24.98 15.0699 24.76 15.4599L24.16 16.4999C23.4 16.3599 22.62 16.3599 21.86 16.4999L21.26 15.4599C21.04 15.0799 20.58 14.9199 20.16 15.0699C19.31 15.3899 18.52 15.8499 17.83 16.4199C17.49 16.6999 17.41 17.1799 17.63 17.5599L18.22 18.5999C17.72 19.1799 17.33 19.8599 17.07 20.5899H15.87C15.43 20.5899 15.06 20.9099 14.98 21.3399C14.83 22.2499 14.84 23.1599 14.98 24.0299C15.05 24.4699 15.43 24.7799 15.87 24.7799H17.07C17.33 25.5099 17.72 26.1899 18.22 26.7699L17.63 27.8099C17.41 28.1899 17.5 28.6699 17.83 28.9499C18.52 29.5199 19.3 29.9799 20.16 30.2999C20.57 30.4499 21.04 30.2999 21.26 29.9099L21.86 28.8699C22.62 29.0099 23.4 29.0099 24.16 28.8699L24.76 29.9099C24.98 30.2899 25.44 30.4499 25.86 30.2999C26.71 29.9799 27.5 29.5199 28.19 28.9499C28.53 28.6699 28.61 28.1899 28.39 27.8099L27.8 26.7699C28.3 26.1899 28.69 25.5099 28.95 24.7799H30.15C30.59 24.7799 30.96 24.4599 31.04 24.0299C31.19 23.1199 31.18 22.2099 31.04 21.3399C30.97 20.8999 30.59 20.5899 30.15 20.5899ZM21.11 24.5899C18.96 21.7999 22.15 18.6099 24.94 20.7599C27.09 23.5499 23.9 26.7399 21.11 24.5899Z" fill="#F87415"/>
</svg>
