<svg width="33" height="32" viewBox="0 0 33 32" fill="none" xmlns="http://www.w3.org/2000/svg">
<path d="M14.24 16.8798H14.06C7.85 16.8798 2.51 15.6198 0.11 13.8198L0 19.4498H0.11C2.31 21.1098 7 22.2998 12.55 22.4798C12.59 20.4198 13.2 18.4998 14.23 16.8798H14.24Z" fill="#7993B0"/>
<path d="M12.6 23.6699C7.02 23.4899 2.32 22.2899 0.11 20.6299L0 26.2599H0.11C2.51 28.0599 7.85 29.3199 14.06 29.3199C14.32 29.3199 14.58 29.3199 14.84 29.3199C13.6 27.7299 12.8 25.7899 12.6 23.6799V23.6699Z" fill="#7993B0"/>
<path d="M14.07 8.63994C21.83 8.63994 28.13 6.85994 28.13 4.65994C28.13 2.45994 21.83 0.689941 14.07 0.689941C6.31001 0.689941 0.0100098 2.46994 0.0100098 4.65994C0.0100098 6.84994 6.30001 8.63994 14.07 8.63994Z" fill="#7993B0"/>
<path d="M15.13 15.6797C17.11 13.3497 20.06 11.8697 23.36 11.8697C24.93 11.8697 26.41 12.1997 27.76 12.7997C27.85 12.7397 27.94 12.6897 28.01 12.6197H28.12L28.01 6.98975C25.61 8.78975 20.27 10.0497 14.06 10.0497C7.85001 10.0497 2.52001 8.79975 0.12001 6.98975L0.0100098 12.6197H0.12001C2.52001 14.4197 7.86001 15.6797 14.07 15.6797C14.43 15.6797 14.78 15.6797 15.13 15.6697V15.6797Z" fill="#7993B0"/>
<path d="M28.92 21.2201C29.17 21.2201 29.39 21.3101 29.58 21.5001C29.77 21.6901 29.86 21.9101 29.86 22.1601V23.1001C29.86 23.3501 29.77 23.5701 29.58 23.7601C29.39 23.9501 29.17 24.0401 28.92 24.0401H24.7V28.2601C24.7 28.5101 24.61 28.7301 24.42 28.9201C24.23 29.1101 24.01 29.2001 23.76 29.2001H22.82C22.57 29.2001 22.35 29.1101 22.16 28.9201C21.97 28.7301 21.88 28.5101 21.88 28.2601V24.0401H17.66C17.41 24.0401 17.19 23.9501 17 23.7601C16.81 23.5701 16.72 23.3501 16.72 23.1001V22.1601C16.72 21.9101 16.81 21.6901 17 21.5001C17.19 21.3101 17.41 21.2201 17.66 21.2201H21.88V17.0001C21.88 16.7501 21.97 16.5301 22.16 16.3401C22.35 16.1501 22.57 16.0601 22.82 16.0601H23.76C24.01 16.0601 24.23 16.1501 24.42 16.3401C24.61 16.5301 24.7 16.7501 24.7 17.0001V21.2201H28.92Z" fill="#22B573"/>
</svg>
