<svg width="33" height="32" viewBox="0 0 33 32" fill="none" xmlns="http://www.w3.org/2000/svg">
<path d="M14.24 16.8798H14.06C7.85 16.8798 2.51 15.6198 0.11 13.8198L0 19.4498H0.11C2.31 21.1098 7 22.2998 12.55 22.4798C12.59 20.4198 13.2 18.4998 14.23 16.8798H14.24Z" fill="#7993B0"/>
<path d="M12.6 23.6699C7.02 23.4899 2.32 22.2899 0.11 20.6299L0 26.2599H0.11C2.51 28.0599 7.85 29.3199 14.06 29.3199C14.32 29.3199 14.58 29.3199 14.84 29.3199C13.6 27.7299 12.8 25.7899 12.6 23.6799V23.6699Z" fill="#7993B0"/>
<path d="M14.07 8.63994C21.83 8.63994 28.13 6.85994 28.13 4.65994C28.13 2.45994 21.83 0.689941 14.07 0.689941C6.31001 0.689941 0.0100098 2.46994 0.0100098 4.65994C0.0100098 6.84994 6.30001 8.63994 14.07 8.63994Z" fill="#7993B0"/>
<path d="M15.13 15.6797C17.11 13.3497 20.06 11.8697 23.36 11.8697C24.93 11.8697 26.41 12.1997 27.76 12.7997C27.85 12.7397 27.94 12.6897 28.01 12.6197H28.12L28.01 6.98975C25.61 8.78975 20.27 10.0497 14.06 10.0497C7.85001 10.0497 2.52001 8.79975 0.12001 6.98975L0.0100098 12.6197H0.12001C2.52001 14.4197 7.86001 15.6797 14.07 15.6797C14.43 15.6797 14.78 15.6797 15.13 15.6697V15.6797Z" fill="#7993B0"/>
<path d="M23.46 27.0101C24.67 27.0101 25.74 26.6401 26.67 25.9001C27.6 25.1601 28.2 24.2101 28.47 23.0601C28.49 22.9801 28.53 22.9201 28.6 22.8701C28.67 22.8201 28.74 22.8001 28.82 22.8001H30.26C30.38 22.8001 30.47 22.8401 30.54 22.9301C30.61 23.0201 30.63 23.1101 30.61 23.2101C30.4 24.3201 29.95 25.3301 29.26 26.2301C28.57 27.1301 27.73 27.8401 26.73 28.3501C25.73 28.8601 24.64 29.1301 23.46 29.1301C22.37 29.1301 21.34 28.9101 20.38 28.4601C19.42 28.0101 18.6 27.3901 17.92 26.5801L18.04 28.9801C18.06 29.1001 18.04 29.1901 17.97 29.2601C17.9 29.3301 17.81 29.3601 17.69 29.3601H16.31C16.21 29.3601 16.13 29.3301 16.06 29.2601C15.99 29.1901 15.96 29.1101 15.96 29.0101V23.1501C15.96 23.0501 15.99 22.9701 16.06 22.9001C16.13 22.8301 16.21 22.8001 16.31 22.8001H22.17C22.27 22.8001 22.35 22.8301 22.42 22.9001C22.49 22.9701 22.52 23.0501 22.52 23.1501V24.5301C22.52 24.6301 22.49 24.7101 22.42 24.7801C22.35 24.8501 22.27 24.8801 22.17 24.8801L19.18 24.7301C19.65 25.4301 20.26 25.9901 21.01 26.4001C21.76 26.8101 22.58 27.0201 23.46 27.0201V27.0101ZM28.88 14.7301C28.88 14.6101 28.91 14.5201 28.98 14.4501C29.05 14.3801 29.13 14.3501 29.23 14.3501H30.61C30.71 14.3501 30.79 14.3801 30.86 14.4501C30.93 14.5201 30.96 14.6001 30.96 14.7001V20.5601C30.96 20.6601 30.93 20.7401 30.86 20.8101C30.79 20.8801 30.71 20.9101 30.61 20.9101H24.75C24.65 20.9101 24.57 20.8801 24.5 20.8101C24.43 20.7401 24.4 20.6601 24.4 20.5601V19.1801C24.4 19.0801 24.43 19.0001 24.5 18.9301C24.57 18.8601 24.66 18.8301 24.78 18.8301L27.74 18.9801C27.27 18.2801 26.66 17.7201 25.91 17.3101C25.16 16.9001 24.34 16.6901 23.46 16.6901C22.25 16.6901 21.18 17.0601 20.25 17.8001C19.32 18.5401 18.72 19.4901 18.45 20.6401C18.43 20.7201 18.39 20.7801 18.32 20.8301C18.25 20.8801 18.18 20.9001 18.1 20.9001H16.66C16.54 20.9001 16.45 20.8601 16.38 20.7701C16.31 20.6801 16.29 20.5901 16.31 20.4901C16.52 19.3801 16.97 18.3701 17.66 17.4701C18.35 16.5701 19.19 15.8601 20.19 15.3501C21.19 14.8401 22.28 14.5701 23.46 14.5701C24.55 14.5701 25.58 14.7901 26.54 15.2401C27.5 15.6901 28.32 16.3101 29 17.1201L28.88 14.7201V14.7301Z" fill="#29ABE2"/>
</svg>
