<svg width="33" height="32" viewBox="0 0 33 32" fill="none" xmlns="http://www.w3.org/2000/svg">
<path d="M15.23 16.8798H15.05C8.83999 16.8798 3.49999 15.6198 1.09999 13.8198L0.98999 19.4498H1.09999C3.29999 21.1098 7.98999 22.2998 13.54 22.4798C13.58 20.4198 14.19 18.4998 15.22 16.8798H15.23Z" fill="#7993B0"/>
<path d="M13.59 23.6699C8.00999 23.4899 3.30999 22.2899 1.09999 20.6299L0.98999 26.2599H1.09999C3.49999 28.0599 8.83999 29.3199 15.05 29.3199C15.31 29.3199 15.57 29.3199 15.83 29.3199C14.59 27.7299 13.79 25.7899 13.59 23.6799V23.6699Z" fill="#7993B0"/>
<path d="M15.06 8.63994C22.82 8.63994 29.12 6.85994 29.12 4.65994C29.12 2.45994 22.82 0.689941 15.06 0.689941C7.3 0.689941 1 2.46994 1 4.65994C1 6.84994 7.29 8.63994 15.06 8.63994Z" fill="#7993B0"/>
<path d="M16.12 15.6797C18.1 13.3497 21.05 11.8697 24.35 11.8697C25.92 11.8697 27.4 12.1997 28.75 12.7997C28.84 12.7397 28.93 12.6897 29 12.6197H29.11L29 6.98975C26.6 8.78975 21.26 10.0497 15.05 10.0497C8.84 10.0497 3.51 8.79975 1.11 6.98975L1 12.6197H1.11C3.51 14.4197 8.85 15.6797 15.06 15.6797C15.42 15.6797 15.77 15.6797 16.12 15.6697V15.6797Z" fill="#7993B0"/>
<path d="M30.2801 25.3799C30.0901 25.7999 29.8501 26.1999 29.5701 26.5699L31.0601 28.1099C31.5801 27.4699 32.0201 26.7399 32.3401 25.9699L30.2801 25.3799Z" fill="#FCEE21"/>
<path d="M29.6301 29.51L28.1501 27.98C27.7701 28.25 27.3701 28.48 26.9301 28.67L27.4501 30.74C28.2401 30.44 28.9701 30.02 29.6301 29.51Z" fill="#FCEE21"/>
<path d="M27.11 16.7599C27.53 16.9599 27.93 17.1999 28.3 17.4799L29.84 15.9899C29.2 15.4599 28.48 15.0199 27.7 14.6899L27.11 16.7599Z" fill="#FCEE21"/>
<path d="M31.2301 17.4297L29.7001 18.9197C29.9701 19.2997 30.2001 19.6997 30.3801 20.1297L32.4501 19.6097C32.1501 18.8197 31.7401 18.0897 31.2401 17.4297H31.2301Z" fill="#FCEE21"/>
<path d="M23.79 16.1698C23.98 16.1498 24.17 16.1398 24.36 16.1398C24.64 16.1398 24.92 16.1598 25.19 16.1998L25.78 14.1398C25.32 14.0598 24.84 14.0098 24.35 14.0098C23.98 14.0098 23.62 14.0498 23.27 14.0898L23.79 16.1598V16.1698Z" fill="#FCEE21"/>
<path d="M30.8801 22.6698C30.8801 22.9398 30.8601 23.1998 30.8301 23.4598L32.8801 24.0398C32.9501 23.5898 33.0001 23.1298 33.0001 22.6598C33.0001 22.2798 32.9701 21.9098 32.9201 21.5498L30.8501 22.0698C30.8701 22.2698 30.8801 22.4598 30.8801 22.6698Z" fill="#FCEE21"/>
<path d="M19.13 15.7996L20.62 17.3296C21 17.0596 21.41 16.8296 21.85 16.6396L21.33 14.5796C20.53 14.8796 19.79 15.2896 19.13 15.7996Z" fill="#FCEE21"/>
<path d="M24.99 29.1596C24.78 29.1796 24.57 29.1896 24.36 29.1896C24.1 29.1896 23.84 29.1696 23.59 29.1396L23 31.1896C23.44 31.2596 23.89 31.2996 24.36 31.2996C24.75 31.2996 25.14 31.2596 25.52 31.2096L25 29.1496L24.99 29.1596Z" fill="#FCEE21"/>
<path d="M17.51 27.94L19.04 26.46C18.77 26.07 18.53 25.66 18.35 25.21L16.29 25.73C16.59 26.53 17.01 27.27 17.52 27.94H17.51Z" fill="#FCEE21"/>
<path d="M21.65 28.6096C21.21 28.4096 20.81 28.1696 20.43 27.8896L18.91 29.3696C19.56 29.8996 20.29 30.3396 21.07 30.6596L21.65 28.6096Z" fill="#FCEE21"/>
<path d="M25.23 21.7398V17.8898C25.23 17.4398 24.86 17.0698 24.41 17.0698C23.96 17.0698 23.59 17.4398 23.59 17.8898V21.7398C23.59 21.7398 23.5 21.8098 23.46 21.8498H20.58C20.13 21.8498 19.76 22.2198 19.76 22.6698C19.76 23.1198 20.13 23.4898 20.58 23.4898H23.36C23.59 23.8198 23.98 24.0298 24.4 24.0298C25.11 24.0298 25.69 23.4498 25.69 22.7398C25.69 22.3398 25.5 21.9798 25.21 21.7398H25.23Z" fill="#FCEE21"/>
<path d="M17.93 16.8898L16.64 16.0898L16.5 21.3198L21.1 18.8298L19.78 18.0198L17.94 16.8898H17.93Z" fill="#FCEE21"/>
</svg>
