<svg width="33" height="32" viewBox="0 0 33 32" fill="none" xmlns="http://www.w3.org/2000/svg">
<path d="M14.24 16.8798H14.06C7.85 16.8798 2.51 15.6198 0.11 13.8198L0 19.4498H0.11C2.31 21.1098 7 22.2998 12.55 22.4798C12.59 20.4198 13.2 18.4998 14.23 16.8798H14.24Z" fill="#7993B0"/>
<path d="M12.6 23.6699C7.02 23.4899 2.32 22.2899 0.11 20.6299L0 26.2599H0.11C2.51 28.0599 7.85 29.3199 14.06 29.3199C14.32 29.3199 14.58 29.3199 14.84 29.3199C13.6 27.7299 12.8 25.7899 12.6 23.6799V23.6699Z" fill="#7993B0"/>
<path d="M14.07 8.63994C21.83 8.63994 28.13 6.85994 28.13 4.65994C28.13 2.45994 21.83 0.689941 14.07 0.689941C6.31001 0.689941 0.0100098 2.46994 0.0100098 4.65994C0.0100098 6.84994 6.30001 8.63994 14.07 8.63994Z" fill="#7993B0"/>
<path d="M15.13 15.6797C17.11 13.3497 20.06 11.8697 23.36 11.8697C24.93 11.8697 26.41 12.1997 27.76 12.7997C27.85 12.7397 27.94 12.6897 28.01 12.6197H28.12L28.01 6.98975C25.61 8.78975 20.27 10.0497 14.06 10.0497C7.85001 10.0497 2.52001 8.79975 0.12001 6.98975L0.0100098 12.6197H0.12001C2.52001 14.4197 7.86001 15.6797 14.07 15.6797C14.43 15.6797 14.78 15.6797 15.13 15.6697V15.6797Z" fill="#7993B0"/>
<path d="M17.22 17.61C17.22 17.41 17.29 17.25 17.43 17.11C17.57 16.97 17.73 16.9 17.93 16.9H21.21L21.47 16.34C21.53 16.22 21.62 16.13 21.73 16.06C21.84 15.99 21.97 15.96 22.11 15.96H25.45C25.59 15.96 25.71 15.99 25.83 16.06C25.95 16.13 26.04 16.22 26.09 16.34L26.35 16.9H29.63C29.83 16.9 29.99 16.97 30.13 17.11C30.27 17.25 30.34 17.41 30.34 17.61V18.43C30.34 18.53 30.31 18.61 30.24 18.68C30.17 18.75 30.09 18.78 29.99 18.78H17.57C17.47 18.78 17.39 18.75 17.32 18.68C17.25 18.61 17.22 18.53 17.22 18.43V17.61ZM28.79 29.65C28.77 30.02 28.62 30.33 28.35 30.59C28.08 30.85 27.75 30.97 27.38 30.97H20.17C19.8 30.97 19.48 30.84 19.2 30.59C18.92 30.34 18.78 30.02 18.76 29.65L18.17 20.1C18.17 20 18.2 19.91 18.27 19.84C18.34 19.77 18.42 19.72 18.52 19.72H29.01C29.11 19.72 29.19 19.76 29.26 19.84C29.33 19.92 29.36 20.01 29.36 20.1L28.77 29.65H28.79Z" fill="#FCEE21"/>
</svg>
