<svg width="33" height="32" viewBox="0 0 33 32" fill="none" xmlns="http://www.w3.org/2000/svg">
<path d="M24.9401 27.6902L22.7501 23.7202H22.1301V27.6902H19.5601V17.1602H23.8701C24.7001 17.1602 25.4101 17.3102 25.9901 17.6002C26.5701 17.8902 27.0101 18.2902 27.3001 18.7902C27.5901 19.2902 27.7401 19.8602 27.7401 20.4802C27.7401 21.1802 27.5401 21.8102 27.1501 22.3602C26.7501 22.9102 26.1701 23.3002 25.4001 23.5302L27.8301 27.7002H24.9301L24.9401 27.6902ZM22.1401 21.9002H23.7301C24.2001 21.9002 24.5501 21.7802 24.7901 21.5602C25.0201 21.3302 25.1401 21.0002 25.1401 20.5802C25.1401 20.1602 25.0201 19.8702 24.7901 19.6402C24.5501 19.4102 24.2001 19.2902 23.7301 19.2902H22.1401V21.9002Z" fill="white"/>
<path d="M14.24 16.8798H14.06C7.85 16.8798 2.51 15.6198 0.11 13.8198L0 19.4498H0.11C2.31 21.1098 7 22.2998 12.55 22.4798C12.59 20.4198 13.2 18.4998 14.23 16.8798H14.24Z" fill="#7993B0"/>
<path d="M12.6 23.6699C7.02 23.4899 2.32 22.2899 0.11 20.6299L0 26.2599H0.11C2.51 28.0599 7.85 29.3199 14.06 29.3199C14.32 29.3199 14.58 29.3199 14.84 29.3199C13.6 27.7299 12.8 25.7899 12.6 23.6799V23.6699Z" fill="#7993B0"/>
<path d="M14.07 8.63994C21.83 8.63994 28.13 6.85994 28.13 4.65994C28.13 2.45994 21.83 0.689941 14.07 0.689941C6.31001 0.689941 0.0100098 2.46994 0.0100098 4.65994C0.0100098 6.84994 6.30001 8.63994 14.07 8.63994Z" fill="#7993B0"/>
<path d="M15.13 15.6797C17.11 13.3497 20.06 11.8697 23.36 11.8697C24.93 11.8697 26.41 12.1997 27.76 12.7997C27.85 12.7397 27.94 12.6897 28.01 12.6197H28.12L28.01 6.98975C25.61 8.78975 20.27 10.0497 14.06 10.0497C7.85001 10.0497 2.52001 8.79975 0.12001 6.98975L0.0100098 12.6197H0.12001C2.52001 14.4197 7.86001 15.6797 14.07 15.6797C14.43 15.6797 14.78 15.6797 15.13 15.6697V15.6797Z" fill="#7993B0"/>
</svg>
