<svg width="32" height="32" viewBox="0 0 32 32" fill="none" xmlns="http://www.w3.org/2000/svg">
<path d="M18.33 0.179993C18.12 0.0699927 17.89 0 17.68 0H10.48C9.97 0 9.37 0.370002 9.14 0.830002L8.55 2H1.01C0.45 2 0 2.45 0 3V5C0 5.55 0.45 6 1.01 6H12.85C13.87 3.44 15.84 1.35999 18.33 0.179993Z" fill="#7993B0"/>
<path d="M23.0398 20.91C16.9898 20.91 12.0698 16.02 12.0698 10.01C12.0698 9.31999 12.1398 8.65 12.2598 8H2.00977L3.33977 29.19C3.43977 30.74 4.78977 32 6.34977 32H21.8098C23.3798 32 24.7298 30.74 24.8198 29.19L25.3598 20.66C24.6098 20.82 23.8298 20.91 23.0398 20.91Z" fill="#7993B0"/>
<path d="M32.0001 10.0099C32.0001 14.9299 27.9901 18.9099 23.0401 18.9099C18.0901 18.9099 14.0801 14.9299 14.0801 10.0099C14.0801 5.08986 18.0901 1.10986 23.0401 1.10986C27.9901 1.10986 32.0001 5.08986 32.0001 10.0099ZM27.8101 11.4499C28.0501 11.4499 28.2401 11.2599 28.2401 11.0199V9.00986C28.2401 8.76986 28.0401 8.57986 27.8101 8.57986H18.2801C18.0401 8.57986 17.8501 8.76986 17.8501 9.00986V11.0199C17.8501 11.2599 18.0501 11.4499 18.2801 11.4499H27.8101Z" fill="#FCEE21"/>
</svg>
