<svg width="32" height="32" viewBox="0 0 32 32" fill="none" xmlns="http://www.w3.org/2000/svg">
<path d="M31.24 16.9726H30.28V14.6426H18.95C17.8 14.6426 16.77 14.0426 16.19 13.0526C15.61 12.0526 15.61 10.8626 16.19 9.8726L17.28 7.9726H14.64V1.6526C14.64 1.2426 14.31 0.912598 13.9 0.912598H10.05C9.64 0.912598 9.31 1.2426 9.31 1.6526V5.4726C9.31 5.8826 9.64 6.2126 10.05 6.2126H12.86V7.9726H3.65C2.55 7.9726 1.66 8.8626 1.66 9.9626V16.9826H0.74C0.33 16.9826 0 17.3126 0 17.7226V23.3426C0 23.7526 0.33 24.0826 0.74 24.0826H1.66V27.4026C1.66 28.5026 2.55 29.3926 3.65 29.3926H28.3C29.4 29.3926 30.29 28.5026 30.29 27.4026V24.0826H31.25C31.66 24.0826 31.99 23.7526 31.99 23.3426V17.7226C31.99 17.3126 31.66 16.9826 31.25 16.9826L31.24 16.9726ZM13.81 18.0926L10.81 21.0926L9.9 22.0026C9.71 22.1926 9.39 22.1926 9.2 22.0026L8.29 21.0926L6.73 19.5326C6.54 19.3426 6.54 19.0226 6.73 18.8326L7.64 17.9226C7.83 17.7326 8.15 17.7326 8.34 17.9226L9.55 19.1326L12.2 16.4826C12.39 16.2926 12.71 16.2926 12.9 16.4826L13.81 17.3926C14 17.5826 14 17.9026 13.81 18.0926ZM25.72 18.0926L22.72 21.0926L21.81 22.0026C21.62 22.1926 21.3 22.1926 21.11 22.0026L20.2 21.0926L18.64 19.5326C18.45 19.3426 18.45 19.0226 18.64 18.8326L19.55 17.9226C19.74 17.7326 20.06 17.7326 20.25 17.9226L21.46 19.1326L24.11 16.4826C24.3 16.2926 24.62 16.2926 24.81 16.4826L25.72 17.3926C25.91 17.5826 25.91 17.9026 25.72 18.0926Z" fill="#7893B0"/>
<path d="M30.8 12.6525H18.94C18.03 12.6525 17.46 11.6625 17.91 10.8725L23.84 0.5925C24.3 -0.1975 25.44 -0.1975 25.89 0.5925L31.82 10.8725C32.28 11.6625 31.7 12.6525 30.79 12.6525H30.8ZM23.74 9.8825C23.74 10.5125 24.2499 11.0225 24.8799 11.0225C25.5099 11.0225 26.02 10.5125 26.02 9.8825C26.02 9.2525 25.5099 8.7425 24.8799 8.7425C24.2499 8.7425 23.74 9.2525 23.74 9.8825ZM23.98 8.0225C23.98 8.1825 24.12 8.3025 24.28 8.3025H25.48C25.64 8.3025 25.77 8.1825 25.78 8.0225L25.96 4.6625C25.96 4.4925 25.83 4.3525 25.66 4.3525H24.09C23.92 4.3525 23.78 4.4925 23.79 4.6625L23.9699 8.0225H23.98Z" fill="#0065DE"/>
</svg>
