<svg width="34" height="32" viewBox="0 0 34 32" fill="none" xmlns="http://www.w3.org/2000/svg">
<path d="M21.7502 19.9098L20.0802 19.0798C20.2402 18.2198 20.2602 17.3498 20.1502 16.4798H19.9402C19.0602 16.4798 18.2402 16.1298 17.6402 15.4998C17.0702 14.8998 16.7502 14.1198 16.7502 13.2898C16.7502 12.7398 16.9002 12.1898 17.1802 11.6998L17.7802 10.6598L17.2102 10.9898C16.4202 10.3098 15.5002 9.77981 14.5002 9.41981V7.75981C14.5002 7.17981 14.0802 6.68981 13.5102 6.58981C12.2502 6.37981 10.9702 6.38981 9.75024 6.58981C9.19024 6.68981 8.78024 7.17981 8.78024 7.74981V9.40981C7.78024 9.75981 6.86024 10.2998 6.07024 10.9798L4.63024 10.1498C4.13024 9.85981 3.50024 9.96981 3.13024 10.4098C2.33024 11.3698 1.48024 12.4698 1.04024 13.6598C0.840237 14.1998 1.06024 14.8098 1.56024 15.0898L3.21024 15.9198C3.02024 16.9598 3.02024 18.0198 3.21024 19.0498L1.56024 19.8798C1.06024 20.1698 0.840237 20.7798 1.04024 21.3198C1.48024 22.5098 2.32024 23.6098 3.13024 24.5698C3.50024 25.0098 4.13024 25.1198 4.63024 24.8298L6.07024 24.0098C6.86024 24.6898 7.78024 25.2198 8.78024 25.5798V27.2398C8.78024 27.8198 9.20024 28.3098 9.77024 28.4098C11.0302 28.6298 12.3102 28.6198 13.5202 28.4098C14.0802 28.3098 14.4902 27.8198 14.4902 27.2398V25.5798C15.4902 25.2298 16.4102 24.6898 17.2002 24.0098L18.6402 24.8398C19.1402 25.1298 19.7702 25.0198 20.1402 24.5798C20.9402 23.6198 21.8102 22.5198 22.2402 21.3298C22.4402 20.7898 22.2202 20.1798 21.7202 19.8898L21.7502 19.9098ZM14.2702 20.1198C10.4702 23.0498 6.12024 18.6998 9.05024 14.8998C12.8502 11.9698 17.2002 16.3198 14.2702 20.1198Z" fill="#7993B0"/>
<path d="M31.9404 23.5197H31.1304C30.9504 23.0197 30.6904 22.5597 30.3404 22.1697L30.7404 21.4597C30.8904 21.1997 30.8304 20.8697 30.6004 20.6797C30.1304 20.2897 29.6004 19.9797 29.0104 19.7597C28.7304 19.6597 28.4104 19.7597 28.2604 20.0297L27.8504 20.7397C27.3304 20.6497 26.8004 20.6497 26.2804 20.7397L25.8704 20.0297C25.7204 19.7697 25.4104 19.6597 25.1204 19.7597C24.5404 19.9797 24.0004 20.2897 23.5304 20.6797C23.3004 20.8697 23.2404 21.1997 23.3904 21.4597L23.7904 22.1697C23.4504 22.5697 23.1804 23.0197 23.0004 23.5197H22.1804C21.8804 23.5197 21.6304 23.7397 21.5804 24.0297C21.4804 24.6497 21.4804 25.2697 21.5804 25.8597C21.6304 26.1597 21.8904 26.3697 22.1804 26.3697H23.0004C23.1804 26.8697 23.4404 27.3297 23.7904 27.7197L23.3904 28.4297C23.2404 28.6897 23.3004 29.0197 23.5304 29.2097C24.0004 29.5997 24.5304 29.9097 25.1204 30.1297C25.4004 30.2297 25.7204 30.1297 25.8704 29.8597L26.2804 29.1497C26.8004 29.2397 27.3304 29.2397 27.8504 29.1497L28.2604 29.8597C28.4104 30.1197 28.7204 30.2297 29.0104 30.1297C29.5904 29.9097 30.1304 29.5997 30.6004 29.2097C30.8304 29.0197 30.8904 28.6897 30.7404 28.4297L30.3404 27.7197C30.6804 27.3197 30.9504 26.8697 31.1304 26.3697H31.9404C32.2404 26.3697 32.4904 26.1497 32.5404 25.8597C32.6404 25.2397 32.6404 24.6197 32.5404 24.0297C32.4904 23.7297 32.2304 23.5197 31.9404 23.5197ZM25.7804 26.2497C24.3204 24.3497 26.4904 22.1797 28.3904 23.6397C29.8504 25.5397 27.6804 27.7097 25.7804 26.2497Z" fill="#7993B0"/>
<path d="M31.8103 14.4799H19.9503C19.0403 14.4799 18.4703 13.4899 18.9203 12.6999L24.8603 2.4299C25.3203 1.6399 26.4603 1.6399 26.9103 2.4299L32.8403 12.7099C33.3003 13.4999 32.7203 14.4899 31.8103 14.4899V14.4799ZM24.7503 11.7099C24.7503 12.3399 25.2603 12.8499 25.8903 12.8499C26.5203 12.8499 27.0303 12.3399 27.0303 11.7099C27.0303 11.0799 26.5203 10.5699 25.8903 10.5699C25.2603 10.5699 24.7503 11.0799 24.7503 11.7099ZM24.9903 9.8499C24.9903 10.0099 25.1303 10.1299 25.2903 10.1299H26.4903C26.6503 10.1299 26.7803 10.0099 26.7903 9.8499L26.9703 6.4899C26.9703 6.3199 26.8403 6.1799 26.6703 6.1799H25.1003C24.9303 6.1799 24.7903 6.3199 24.8003 6.4899L24.9803 9.8499H24.9903Z" fill="#F87415"/>
</svg>
