<svg width="32" height="32" viewBox="0 0 32 32" fill="none" xmlns="http://www.w3.org/2000/svg">
<path d="M30.3301 20.4599C29.6601 22.6199 28.5201 24.5699 27.0201 26.1799C26.7901 26.4299 26.4201 26.4899 26.1201 26.3199L23.5401 24.8299C22.4501 25.7599 21.2101 26.4699 19.8601 26.9499V29.9299C19.8601 30.2699 19.6201 30.5599 19.2901 30.6399C17.1801 31.1099 14.9001 31.1399 12.6901 30.6399C12.3601 30.5699 12.1201 30.2699 12.1201 29.9299V26.9499C10.7701 26.4799 9.53011 25.7599 8.44011 24.8299L5.86011 26.3199C5.57011 26.4899 5.20011 26.4299 4.96011 26.1799C3.47011 24.5599 2.32011 22.6099 1.65011 20.4599C1.55011 20.1299 1.69011 19.7799 1.98011 19.6099L4.56011 18.1199C4.30011 16.7199 4.30011 15.2799 4.56011 13.8699L1.98011 12.3799C1.68011 12.2099 1.54011 11.8599 1.65011 11.5299C2.32011 9.36993 3.46011 7.41993 4.96011 5.80993C5.19011 5.55993 5.56011 5.49993 5.86011 5.66993L8.43011 7.15993C9.52011 6.22993 10.7601 5.50993 12.1101 5.03993V2.06993C12.1101 1.72993 12.3501 1.42993 12.6801 1.35993C14.7901 0.889931 17.0701 0.859931 19.2801 1.35993C19.6101 1.42993 19.8501 1.72993 19.8501 2.06993V5.03993C21.2001 5.50993 22.4401 6.22993 23.5301 7.15993L26.1101 5.66993C26.4001 5.49993 26.7701 5.55993 27.0101 5.80993C28.5001 7.42993 29.6501 9.37993 30.3201 11.5299C30.4201 11.8599 30.2801 12.2099 29.9901 12.3799L27.4101 13.8699C27.6701 15.2699 27.6701 16.7099 27.4101 18.1199L29.9901 19.6099C30.2901 19.7799 30.4201 20.1299 30.3301 20.4599ZM24.7101 15.9999C24.7101 11.1999 20.8001 7.28993 16.0001 7.28993C11.2001 7.28993 7.29011 11.1899 7.29011 15.9899C7.29011 20.7899 11.2001 24.6999 16.0001 24.6999C20.8001 24.6999 24.7101 20.7899 24.7101 15.9899V15.9999Z" fill="#7893B0"/>
<path d="M19.17 11.2898C18.99 11.1098 18.69 11.1098 18.51 11.2898L15.99 13.8098L13.47 11.2898C13.29 11.1098 12.99 11.1098 12.81 11.2898L11.28 12.8198C11.1 12.9998 11.1 13.2998 11.28 13.4798L13.8 15.9998L11.28 18.5198C11.1 18.6998 11.1 18.9998 11.28 19.1798L12.81 20.7098C12.99 20.8898 13.29 20.8898 13.47 20.7098L15.99 18.1898L18.51 20.7098C18.69 20.8898 18.99 20.8898 19.17 20.7098L20.7 19.1798C20.88 18.9998 20.88 18.6998 20.7 18.5198L18.18 15.9998L20.7 13.4798C20.88 13.2998 20.88 12.9998 20.7 12.8198L19.17 11.2898Z" fill="#F87415"/>
</svg>
