<svg width="20" height="26" viewBox="0 0 20 26" fill="none" xmlns="http://www.w3.org/2000/svg">
<g clip-path="url(#clip0_8832_25687)">
<path d="M9.98291 26C9.31039 26 8.67489 25.6668 8.29236 25.1115C7.07072 23.3408 6.028 21.8538 5.13953 20.589C0.987186 14.6782 0 13.2776 0 9.98291C0 4.47935 4.47935 0 9.98291 0C15.4865 0 19.9658 4.47935 19.9658 9.98291C19.9658 13.2776 18.9786 14.6782 14.8325 20.589C13.944 21.86 12.9013 23.3408 11.6796 25.1115C11.2971 25.6668 10.6616 26 9.98908 26H9.98291ZM1.23398 9.98291C1.23398 12.3522 1.80161 13.5985 4.22639 17.1277L5.01614 16.3379H7.17561V14.1785L9.15615 12.1979V16.3379H11.8894V12.309H13.5861C16.4428 12.309 17.7076 10.5814 17.7076 8.73042C17.7076 7.32985 17.066 6.16374 15.795 5.55909L16.8192 4.53488C15.215 2.52349 12.747 1.22781 9.98291 1.22781C5.15804 1.22781 1.23398 5.15187 1.23398 9.97674V9.98291ZM14.925 8.73042C14.925 8.04556 14.6227 7.56431 13.9563 7.39772L11.8894 9.46464V10.1372H13.3764C14.4623 10.1372 14.925 9.59421 14.925 8.73042Z" fill="#7893B0"/>
<path d="M4.44849 5.12109V16.338H5.01612L7.17559 14.1785V5.12109H4.44849Z" fill="white"/>
<path d="M9.15613 5.12109V12.198L11.8894 9.46471V7.32375H13.3763C13.5985 7.32375 13.7897 7.3546 13.9563 7.39779L15.7888 5.56533C15.1903 5.28151 14.4561 5.12726 13.58 5.12726H9.15613V5.12109Z" fill="white"/>
</g>
<defs>
<clipPath id="clip0_8832_25687">
<rect width="19.9658" height="26" fill="white"/>
</clipPath>
</defs>
</svg>
