<svg width="32" height="32" viewBox="0 0 32 32" fill="none" xmlns="http://www.w3.org/2000/svg">
<path d="M17.3802 11.6697L14.8902 9.31973C13.7502 8.17973 14.5602 6.21973 16.1702 6.21973H24.6502C25.6502 6.21973 26.4602 7.02973 26.4602 8.03973V16.5197C26.4602 18.1397 24.5102 18.9497 23.3602 17.7997L21.0102 15.2997L9.6202 26.6897C9.1502 27.1597 8.3802 27.1597 7.9102 26.6897L5.9902 24.7697C5.5202 24.2997 5.5202 23.5297 5.9902 23.0597L17.3802 11.6697Z" fill="#29ABE2"/>
<path d="M32 28.2099H13.53V26.0199H29.81V2.87994H6.66998V17.7799H4.47998V0.689941H32V28.2099Z" fill="#7993B0"/>
<path d="M11.6 19.71H0V31.31H11.6V19.71Z" fill="#29ABE2"/>
</svg>
