<svg width="32" height="33" viewBox="0 0 32 33" fill="none" xmlns="http://www.w3.org/2000/svg">
<path d="M27.2602 21.2898L24.8402 19.8898C25.0102 18.9598 25.0602 18.0098 24.9902 17.0698H21.7002C20.8102 17.0698 19.9802 16.7198 19.3502 16.0998L15.3002 12.0498C14.6702 11.4198 14.3302 10.5898 14.3302 9.69977V5.45978C14.3302 4.87978 14.4902 4.31978 14.7802 3.82978C13.5002 3.76978 12.2202 3.85978 11.0102 4.12978C10.7002 4.19978 10.4802 4.47978 10.4802 4.79978V7.59978C9.22018 8.04978 8.05018 8.72978 7.02018 9.59978L4.60018 8.19977C4.32018 8.03977 3.97018 8.08978 3.76018 8.32978C2.36018 9.84978 1.28018 11.6798 0.65018 13.7098C0.55018 14.0198 0.68018 14.3498 0.96018 14.5098L3.38018 15.9098C3.14018 17.2298 3.14018 18.5798 3.38018 19.8998L0.96018 21.2998C0.68018 21.4598 0.56018 21.7898 0.65018 22.0998C1.28018 24.1198 2.36018 25.9598 3.76018 27.4798C3.98018 27.7098 4.33018 27.7698 4.60018 27.6098L7.02018 26.2098C8.04018 27.0898 9.21018 27.7598 10.4802 28.2098V31.0098C10.4802 31.3298 10.7002 31.6098 11.0102 31.6798C13.1002 32.1498 15.2402 32.1198 17.2202 31.6798C17.5302 31.6098 17.7502 31.3298 17.7502 31.0098V28.2098C19.0102 27.7598 20.1802 27.0798 21.2102 26.2098L23.6302 27.6098C23.9102 27.7698 24.2602 27.7198 24.4702 27.4798C25.8702 25.9598 26.9502 24.1298 27.5802 22.0998C27.6702 21.7898 27.5402 21.4598 27.2602 21.2998V21.2898ZM14.1002 22.4398C11.5902 22.4398 9.55018 20.3998 9.55018 17.8898C9.55018 15.3798 11.5902 13.3398 14.1002 13.3398C16.6102 13.3398 18.6502 15.3798 18.6502 17.8898C18.6502 20.3998 16.6102 22.4398 14.1002 22.4398Z" fill="#7993B0"/>
<path d="M30.9802 4.46001C31.2502 4.73001 31.4002 5.09001 31.4002 5.46001V9.7C31.4002 10.08 31.2502 10.44 30.9802 10.7L26.9302 14.75C26.6602 15.02 26.3002 15.17 25.9302 15.17H21.6902C21.3102 15.17 20.9502 15.02 20.6902 14.75L16.6402 10.7C16.3702 10.43 16.2202 10.07 16.2202 9.7V5.46001C16.2202 5.08001 16.3702 4.72001 16.6402 4.46001L20.6902 0.419998C20.9602 0.149998 21.3202 0 21.6902 0H25.9302C26.3102 0 26.6702 0.149998 26.9302 0.419998L30.9802 4.47V4.46001Z" fill="#FF0000"/>
</svg>
