<svg width="32" height="32" viewBox="0 0 32 32" fill="none" xmlns="http://www.w3.org/2000/svg">
<path d="M15.99 25.28C20.02 25.28 24.06 22.1 25.01 18.18C25.07 17.91 25.35 17.69 25.63 17.69H28.22C28.57 17.69 28.85 17.97 28.85 18.32C28.85 18.35 28.85 18.4 28.84 18.43C27.7 24.49 22.38 29.07 16 29.07H15.99C12.66 29.07 8.21 27.01 6.06 24.47L6.28 28.82V28.85C6.28 29.2 6 29.48 5.65 29.48H3.13C2.78 29.48 2.5 29.2 2.5 28.85V18.29C2.5 17.94 2.78 17.66 3.13 17.66H13.69C14.04 17.66 14.32 17.94 14.32 18.29V20.79C14.32 21.14 14.04 21.42 13.69 21.42H13.66L8.29 21.16C9.81 23.42 13.25 25.26 15.98 25.26H15.99V25.28ZM25.73 3.13C25.73 2.78 26.01 2.5 26.36 2.5H28.86C29.21 2.5 29.49 2.78 29.49 3.13V13.69C29.49 14.04 29.21 14.32 28.86 14.32H18.3C17.95 14.32 17.67 14.04 17.67 13.69V11.19C17.67 10.84 17.95 10.56 18.3 10.56H18.33L23.68 10.82C22.16 8.56001 18.71 6.72 15.98 6.72C11.95 6.72 7.91 9.90001 6.96 13.82C6.9 14.09 6.62 14.31 6.34 14.31H3.77C3.42 14.31 3.14 14.03 3.14 13.68C3.14 13.65 3.14 13.6 3.15 13.57C4.29 7.51001 9.61 2.92999 15.99 2.92999H16C19.33 2.92999 23.79 4.98999 25.94 7.53999L25.73 3.17999V3.14999V3.13Z" fill="#7993B0"/>
</svg>
