<svg width="26" height="26" viewBox="0 0 26 26" fill="none" xmlns="http://www.w3.org/2000/svg">
<g clip-path="url(#clip0_8832_25674)">
<path d="M22.7646 3.23535H3.23547V22.7645H22.7646V3.23535Z" stroke="#7893B0" stroke-width="2" stroke-miterlimit="10"/>
<path d="M6.47088 0H0V6.47088H6.47088V0Z" fill="#7893B0"/>
<path d="M26.0001 0H19.5292V6.47088H26.0001V0Z" fill="#7893B0"/>
<path d="M6.47088 19.5293H0V26.0002H6.47088V19.5293Z" fill="#7893B0"/>
<path d="M26.0001 19.5293H19.5292V26.0002H26.0001V19.5293Z" fill="#7893B0"/>
<path d="M13 17.0959C15.2622 17.0959 17.0961 15.2621 17.0961 12.9999C17.0961 10.7377 15.2622 8.90381 13 8.90381C10.7378 8.90381 8.90393 10.7377 8.90393 12.9999C8.90393 15.2621 10.7378 17.0959 13 17.0959Z" stroke="#7893B0" stroke-width="2" stroke-miterlimit="10"/>
<path d="M13 14.8574C14.0256 14.8574 14.8571 14.0259 14.8571 13.0002C14.8571 11.9745 14.0256 11.1431 13 11.1431C11.9743 11.1431 11.1428 11.9745 11.1428 13.0002C11.1428 14.0259 11.9743 14.8574 13 14.8574Z" fill="white"/>
</g>
<defs>
<clipPath id="clip0_8832_25674">
<rect width="26" height="26" fill="white"/>
</clipPath>
</defs>
</svg>
