<svg width="32" height="32" viewBox="0 0 32 32" fill="none" xmlns="http://www.w3.org/2000/svg">
<path d="M26.87 13.6C28.68 13.6 30.13 15.08 30.13 16.86C30.13 18.64 28.65 20.12 26.87 20.12C25.09 20.12 23.61 18.64 23.61 16.86C23.61 15.08 25.09 13.6 26.87 13.6ZM14.71 13.6C16.52 13.6 17.97 15.08 17.97 16.86C17.97 18.64 16.49 20.12 14.71 20.12C12.93 20.12 11.45 18.64 11.45 16.86C11.45 15.08 12.93 13.6 14.71 13.6ZM4.38 8.72V4.2C4.38 3.52 5.12 3.1 5.7 3.43L9.62 5.68C10.22 6.01 10.22 6.86001 9.62 7.21001L5.7 9.46001C5.1 9.79001 4.38 9.38 4.38 8.69V8.72ZM14.71 30.53C12.9 30.53 11.45 29.05 11.45 27.27C11.45 25.49 12.93 24.01 14.71 24.01C15.87 24.01 15.81 22.64 14.71 22.64V22.61C12.49 22.61 10.66 24.14 10.19 26.23H10.08C8.66 26.23 7.26 24.78 7.26 23.3V16.89C8.08 17.52 9.04 17.9 10.08 17.9H10.19C10.66 19.95 12.49 21.52 14.71 21.52C16.93 21.52 18.76 19.99 19.23 17.9H22.35C22.82 19.95 24.65 21.52 26.87 21.52C29.42 21.52 31.5 19.44 31.5 16.89C31.5 14.34 29.42 12.26 26.87 12.26C24.65 12.26 22.82 13.79 22.35 15.88H19.23C18.76 13.83 16.93 12.26 14.71 12.26C12.49 12.26 10.66 13.79 10.19 15.88H10.08C8.66 15.88 7.26 14.43 7.26 12.95V12.87C10.47 12.49 12.96 9.77001 12.96 6.49001C12.93 2.90001 10.06 0 6.47 0C2.88 0 0 2.9 0 6.47C0 9.62 2.25 12.22 5.21 12.83V23.32C5.21 25.92 7.54 28.31 10.09 28.31H10.2C10.67 30.36 12.5 31.93 14.72 31.93C15.91 31.93 15.89 30.56 14.72 30.56L14.71 30.53ZM12.79 17.3C12.54 17.03 12.54 16.59 12.82 16.34C13.09 16.09 13.53 16.09 13.78 16.37L14.22 16.84L15.64 15.52C15.91 15.27 16.35 15.27 16.6 15.55C16.85 15.82 16.85 16.26 16.57 16.51L14.62 18.29C14.62 18.29 14.32 18.48 14.15 18.48C13.96 18.48 13.79 18.4 13.66 18.26L12.76 17.3H12.79ZM24.95 17.3C24.7 17.03 24.7 16.59 24.98 16.34C25.25 16.09 25.69 16.09 25.94 16.37L26.38 16.84L27.8 15.52C28.07 15.27 28.51 15.27 28.76 15.55C29.01 15.82 29.01 16.26 28.73 16.51L26.78 18.29C26.78 18.29 26.48 18.48 26.31 18.48C26.12 18.48 25.95 18.4 25.82 18.26L24.92 17.3H24.95Z" fill="#7993B0"/>
<path d="M14.9 29.7402C16.2807 29.7402 17.4 28.6209 17.4 27.2402C17.4 25.8595 16.2807 24.7402 14.9 24.7402C13.5193 24.7402 12.4 25.8595 12.4 27.2402C12.4 28.6209 13.5193 29.7402 14.9 29.7402Z" fill="white"/>
<path d="M21.51 29.7402C22.8907 29.7402 24.01 28.6209 24.01 27.2402C24.01 25.8595 22.8907 24.7402 21.51 24.7402C20.1293 24.7402 19.01 25.8595 19.01 27.2402C19.01 28.6209 20.1293 29.7402 21.51 29.7402Z" fill="white"/>
<path d="M28.11 29.7402C29.4907 29.7402 30.61 28.6209 30.61 27.2402C30.61 25.8595 29.4907 24.7402 28.11 24.7402C26.7293 24.7402 25.61 25.8595 25.61 27.2402C25.61 28.6209 26.7293 29.7402 28.11 29.7402Z" fill="white"/>
</svg>
