<svg width="17" height="11" viewBox="0 0 17 11" fill="none" xmlns="http://www.w3.org/2000/svg">
<path d="M15.3801 0.799805H6.47011C6.32011 0.799805 6.18019 0.839805 6.05019 0.889805C5.84019 0.769805 5.56012 0.769805 5.36012 0.979805L1.03017 5.2998C0.800166 5.5298 0.800166 5.89981 1.03017 6.1398L5.36012 10.4598C5.56012 10.6598 5.84019 10.6698 6.05019 10.5498C6.19019 10.5898 6.32011 10.6398 6.47011 10.6398H15.3801C16.1901 10.6398 16.8501 9.9798 16.8501 9.1698V2.28981C16.8501 1.47981 16.1901 0.819805 15.3801 0.819805V0.799805ZM13.8301 7.67981C13.9701 7.81981 13.9701 8.0498 13.8301 8.1898L12.6402 9.37981C12.5002 9.51981 12.2701 9.51981 12.1301 9.37981L10.1702 7.39981L8.2101 9.37981C8.0701 9.51981 7.84009 9.51981 7.70009 9.37981L6.51015 8.1898C6.37015 8.0498 6.37015 7.81981 6.51015 7.67981L8.49013 5.71981L6.51015 3.7598C6.37015 3.6198 6.37015 3.38981 6.51015 3.24981L7.70009 2.05981C7.84009 1.91981 8.0701 1.91981 8.2101 2.05981L10.1702 4.03981L12.1301 2.05981C12.2701 1.91981 12.5002 1.91981 12.6402 2.05981L13.8301 3.24981C13.9701 3.38981 13.9701 3.6198 13.8301 3.7598L11.8501 5.71981L13.8301 7.67981Z" fill="#7993B0"/>
</svg>
