<svg width="17" height="17" viewBox="0 0 17 17" fill="none" xmlns="http://www.w3.org/2000/svg">
<path d="M16.4299 8.4502C16.4299 12.8702 12.8499 16.4502 8.42993 16.4502C4.00993 16.4502 0.429932 12.8702 0.429932 8.4502C0.429932 4.0302 4.00993 0.450195 8.42993 0.450195C12.8499 0.450195 16.4299 4.0302 16.4299 8.4502ZM11.83 13.3102L3.55994 5.0402C1.96994 7.3002 2.11992 10.5302 4.22992 12.6402C6.33992 14.7502 9.56996 14.9002 11.83 13.3102ZM5.01996 3.58019L13.2899 11.8502C14.8799 9.59019 14.7299 6.36019 12.6199 4.25019C10.5099 2.14019 7.27996 1.99019 5.01996 3.58019Z" fill="#F04163"/>
</svg>
