<svg width="100" height="100" viewBox="0 0 100 100" fill="none" xmlns="http://www.w3.org/2000/svg">
<path d="M32.5121 31.0223C37.7647 31.0223 42.0228 26.7642 42.0228 21.5116C42.0228 16.259 37.7647 12.001 32.5121 12.001C27.2595 12.001 23.0015 16.259 23.0015 21.5116C23.0015 26.7642 27.2595 31.0223 32.5121 31.0223Z" stroke="#7993B0" stroke-width="5" stroke-miterlimit="10"/>
<path d="M32.5121 88.0067C37.7647 88.0067 42.0228 83.7486 42.0228 78.496C42.0228 73.2434 37.7647 68.9854 32.5121 68.9854C27.2595 68.9854 23.0015 73.2434 23.0015 78.496C23.0015 83.7486 27.2595 88.0067 32.5121 88.0067Z" stroke="#7993B0" stroke-width="5" stroke-miterlimit="10"/>
<path d="M67.5207 41.7821C72.7733 41.7821 77.0313 37.524 77.0313 32.2714C77.0313 27.0188 72.7733 22.7607 67.5207 22.7607C62.2681 22.7607 58.01 27.0188 58.01 32.2714C58.01 37.524 62.2681 41.7821 67.5207 41.7821Z" stroke="#7993B0" stroke-width="5" stroke-miterlimit="10"/>
<path d="M32.512 31.0146V68.9852" stroke="#7993B0" stroke-width="10" stroke-miterlimit="10"/>
<path d="M67.5207 41.7744C67.5207 69.0415 32.5042 48.9234 32.5042 68.9775" stroke="#7993B0" stroke-width="10" stroke-miterlimit="10"/>
</svg>
