<svg width="100" height="100" viewBox="0 0 100 100" fill="none" xmlns="http://www.w3.org/2000/svg">
<path d="M79.0909 48.2353C78.3102 48.2353 77.508 48.3316 76.7059 48.4706C76.5455 44.5775 74.9733 40.9626 73.5508 37.754C73.5294 37.6898 73.4759 37.6578 73.4438 37.6043C73.6364 36.3957 73.7433 35.1551 73.7433 33.893C73.7433 20.6952 63.0481 10 49.8503 10C36.6524 10 25.9572 20.6952 25.9572 33.893C25.9572 34.6738 26 35.4332 26.0749 36.1925C26.0428 36.2353 26 36.2674 25.9679 36.3209C24.0642 40.0321 22.3102 44.0428 22.1283 48.3209C21.615 48.2674 21.1016 48.2246 20.6096 48.2246C12.5561 48.2246 6 54.7807 6 62.8342C6 70.8877 12.5561 77.4438 20.6096 77.4438C25.5936 77.4438 30.1818 74.9198 32.8663 70.7807C33.6043 71.3369 34.3636 71.861 35.1551 72.3529C34.9305 73.369 34.8235 74.3957 34.8235 75.3904C34.8235 83.4438 41.3797 90 49.4332 90C57.4866 90 64.0428 83.4438 64.0428 75.3904C64.0428 74.3957 63.9251 73.3797 63.7112 72.3636C64.7166 71.7433 65.6898 71.0695 66.5989 70.3315C69.2299 74.7487 73.9144 77.4438 79.1123 77.4438C87.1658 77.4438 93.7219 70.8877 93.7219 62.8342C93.7219 54.7807 87.1658 48.2246 79.1123 48.2246L79.0909 48.2353ZM26.6524 39.5722C28.7059 47.9893 35.2086 54.6631 43.5401 56.9412C43.8289 56.6952 43.9465 56.3209 43.9465 56V49.893C43.9465 49.893 36.9198 51.3797 35.4652 46.9198C35.4652 46.9198 34.3102 44.0321 32.6952 43.2727C32.6952 43.2727 30.4385 41.7433 32.8663 41.7433C32.8663 41.7433 35.3369 41.9144 36.6952 44.2888C38.8663 48.1497 42.5348 47.0481 43.9786 46.3636C44.2353 44.7487 44.877 43.6471 45.5936 43.016C40.0107 42.3743 34.385 41.5722 34.385 32.0214C34.385 29.3048 35.1123 27.9037 36.7273 26.1604C36.4706 25.5187 35.615 22.8556 36.984 19.4118C39.0695 18.738 43.8823 22.0856 43.8823 22.0856C45.8823 21.5294 48.0107 21.2406 50.1497 21.2406C52.2888 21.2406 54.4064 21.5401 56.4171 22.0856C56.4171 22.0856 61.2299 18.7807 63.3155 19.4118C64.6738 22.8449 63.8289 25.5187 63.5722 26.1604C65.1444 27.9037 66.1283 29.3048 66.1283 32.0214C66.1283 41.615 60.246 42.3743 54.6738 43.016C55.615 43.8182 56.3743 45.3048 56.3743 47.6364V55.9572C56.3743 56.246 56.4706 56.5455 56.6952 56.7807C64.3316 54.492 70.3529 48.4813 72.6738 40.8663C73.7326 43.4118 74.6631 46.1497 74.6845 48.9305C68.631 50.8342 64.4706 56.4385 64.4706 62.8342C64.4706 64.7807 64.877 66.6631 65.6364 68.4599C64.8342 69.1337 63.9786 69.7647 63.0909 70.3315C60.9947 64.6417 55.5508 60.7701 49.4011 60.7701C43.2513 60.7701 37.8075 64.6417 35.7112 70.3315C35.0588 69.9144 34.4171 69.4545 33.8075 68.984C34.6952 67.0588 35.1979 64.9626 35.1979 62.8342C35.1979 56.0963 30.5775 50.2781 24.1176 48.6845C24.2032 45.5401 25.2834 42.4813 26.631 39.5722H26.6524ZM20.6096 75.3048C13.7326 75.3048 8.13904 69.7112 8.13904 62.8342C8.13904 55.9572 13.7326 50.3636 20.6096 50.3636C21.3476 50.3636 22.1283 50.4385 22.9305 50.5882C28.8128 51.6898 33.0802 56.8449 33.0802 62.8342C33.0802 64.8877 32.5668 66.9305 31.5936 68.738C29.4118 72.7914 25.2086 75.3048 20.6096 75.3048V75.3048ZM49.4225 87.8503C42.5455 87.8503 36.9519 82.2567 36.9519 75.3797C36.9519 74.3316 37.1016 73.2513 37.3797 72.1711C38.8235 66.7166 43.7754 62.9091 49.4118 62.9091C55.0481 62.9091 60 66.7166 61.4438 72.1711C61.7326 73.2513 61.8717 74.3316 61.8717 75.3797C61.8717 82.2567 56.2781 87.8503 49.4011 87.8503H49.4225ZM79.1016 75.3048C74.2888 75.3048 69.9893 72.5989 67.8824 68.246C67.0481 66.5348 66.631 64.7166 66.631 62.8342C66.631 57.1551 70.4706 52.2032 75.9786 50.7807C77.0374 50.5027 78.0856 50.3743 79.1016 50.3743C85.9786 50.3743 91.5722 55.9679 91.5722 62.8449C91.5722 69.7219 85.9786 75.3155 79.1016 75.3155V75.3048Z" fill="#7993B0"/>
</svg>
