<svg width="100" height="100" viewBox="0 0 100 100" fill="none" xmlns="http://www.w3.org/2000/svg">
<path d="M43.2701 44.8604C43.0601 44.8204 42.9401 44.8604 42.8601 44.9404C42.7801 45.0604 42.8601 45.2304 43.0701 45.3104C43.2301 45.3904 43.4001 45.3504 43.4801 45.2304C43.5601 45.1104 43.2701 44.8604 43.2701 44.8604Z" fill="#7993B0"/>
<path d="M76.66 10H22.74C19.02 10 16 13.02 16 16.74V73.21C16 76.93 19.02 79.95 22.74 79.95H27.68V90.01L38.25 83.56L48.82 90.01V79.95H76.66C80.38 79.95 83.4 76.93 83.4 73.21V16.74C83.4 13.02 80.38 10 76.66 10V10ZM23.03 22.41H30.06V29.44H23.03V22.41ZM23.03 33.69H30.06V40.72H23.03V33.69ZM23.03 44.97H30.06V52H23.03V44.97ZM76.37 72.91H48.82V65.88H27.68V72.91H23.03V58.86H51.93C52.3 58.62 52.46 58.22 52.46 57.86V51.95C52.46 51.95 45.66 53.39 44.26 49.08C44.26 49.08 43.15 46.29 41.58 45.55C41.58 45.55 39.4 44.07 41.74 44.07C41.74 44.07 44.13 44.23 45.45 46.53C47.55 50.26 51.09 49.2 52.49 48.54C52.74 46.98 53.35 45.91 54.06 45.3C48.66 44.68 43.23 43.91 43.23 34.67C43.23 32.04 43.93 30.69 45.5 29.01C45.25 28.39 44.43 25.81 45.75 22.49C47.77 21.83 52.42 25.08 52.42 25.08C54.36 24.55 56.42 24.26 58.48 24.26C60.54 24.26 62.6 24.55 64.54 25.08C64.54 25.08 69.19 21.88 71.21 22.49C72.53 25.81 71.7 28.4 71.46 29.01C72.98 30.69 73.93 32.05 73.93 34.67C73.93 43.94 68.25 44.68 62.85 45.3C63.76 46.08 64.5 47.52 64.5 49.77V57.81C64.5 58.2 64.68 58.63 65.11 58.85H76.38V72.9L76.37 72.91Z" fill="#7993B0"/>
<path d="M43.8901 45.72C43.7701 45.8 43.8101 46.05 43.9701 46.21C44.1301 46.33 44.3401 46.42 44.4601 46.29C44.5801 46.21 44.3801 45.8 44.3801 45.8C44.2201 45.68 44.0101 45.59 43.8901 45.72Z" fill="#7993B0"/>
<path d="M49.99 49.6201C49.7 49.6201 49.5 49.7401 49.5 49.9501C49.5 50.1601 49.71 50.2801 50.04 50.2801C50.33 50.2801 50.53 50.1601 50.53 49.9501C50.53 49.7401 50.28 49.6201 49.99 49.6201Z" fill="#7993B0"/>
<path d="M51.8001 49.3701C51.5101 49.4101 51.3501 49.6201 51.3501 49.8201C51.3901 50.0301 51.6401 50.1501 51.9301 50.0701C52.1901 49.9901 52.3501 49.6901 52.3701 49.6401C52.3201 49.4501 52.0801 49.3701 51.8001 49.3701V49.3701Z" fill="#7993B0"/>
<path d="M48.1299 49.2903V49.3303C47.8399 49.2503 47.5899 49.3303 47.5099 49.5303C47.4299 49.6903 47.6299 49.9403 47.9199 49.9803C48.2099 50.0603 48.4999 49.9803 48.5399 49.7703C48.5799 49.6103 48.4199 49.3603 48.1299 49.2803V49.2903Z" fill="#7993B0"/>
<path d="M45.42 47.16C45.3 46.95 45.05 46.83 44.88 46.95C44.72 47.07 44.72 47.32 44.88 47.52C45.04 47.73 45.29 47.81 45.42 47.73C45.58 47.57 45.58 47.32 45.42 47.11V47.15V47.16Z" fill="#7993B0"/>
<path d="M45.9899 48.3404C45.8299 48.4604 45.9099 48.7504 46.1099 48.9104C46.3199 49.1204 46.5999 49.1604 46.7299 48.9904C46.8499 48.8704 46.6099 48.4204 46.6099 48.4204C46.3999 48.2104 46.1199 48.1704 45.9899 48.3404Z" fill="#7993B0"/>
</svg>
