<svg width="102" height="102" viewBox="0 0 102 102" fill="none" xmlns="http://www.w3.org/2000/svg">
<path d="M51 101C78.6142 101 101 78.6142 101 51C101 23.3858 78.6142 1 51 1C23.3858 1 1 23.3858 1 51C1 78.6142 23.3858 101 51 101Z" stroke="#7893B0" stroke-width="1.5" stroke-linecap="round" stroke-linejoin="round"/>
<path d="M45.4337 46.6779C45.2609 46.645 45.1622 46.6779 45.0964 46.7438C45.0306 46.8425 45.0964 46.9823 45.2691 47.0481C45.4007 47.114 45.5406 47.081 45.6064 46.9823C45.6722 46.8836 45.4337 46.6779 45.4337 46.6779Z" fill="#7993B0"/>
<path d="M72.9018 18H28.5446C25.4844 18 23 20.4844 23 23.5446V69.9995C23 73.0598 25.4844 75.5442 28.5446 75.5442H32.6085V83.82L41.3039 78.5139L49.9993 83.82V75.5442H72.9018C75.962 75.5442 78.4464 73.0598 78.4464 69.9995V23.5446C78.4464 20.4844 75.962 18 72.9018 18V18ZM28.7832 28.2091H34.5664V33.9923H28.7832V28.2091ZM28.7832 37.4885H34.5664V43.2717H28.7832V37.4885ZM28.7832 46.768H34.5664V52.5512H28.7832V46.768ZM72.6632 69.7527H49.9993V63.9695H32.6085V69.7527H28.7832V58.1945H52.5577C52.8621 57.9971 52.9937 57.668 52.9937 57.3719V52.51C52.9937 52.51 47.3997 53.6947 46.248 50.1491C46.248 50.1491 45.3349 47.8539 44.0433 47.2451C44.0433 47.2451 42.2499 46.0276 44.1749 46.0276C44.1749 46.0276 46.1411 46.1592 47.227 48.0513C48.9545 51.1198 51.8667 50.2478 53.0184 49.7048C53.2241 48.4215 53.7259 47.5413 54.3099 47.0394C49.8677 46.5294 45.4007 45.896 45.4007 38.2947C45.4007 36.1311 45.9765 35.0206 47.2681 33.6385C47.0624 33.1285 46.3879 31.0061 47.4738 28.2749C49.1355 27.7319 52.9608 30.4055 52.9608 30.4055C54.5567 29.9695 56.2514 29.7309 57.946 29.7309C59.6407 29.7309 61.3354 29.9695 62.9313 30.4055C62.9313 30.4055 66.7566 27.773 68.4183 28.2749C69.5042 31.0061 68.8214 33.1367 68.624 33.6385C69.8744 35.0206 70.6559 36.1394 70.6559 38.2947C70.6559 45.9206 65.9833 46.5294 61.541 47.0394C62.2896 47.6811 62.8984 48.8657 62.8984 50.7167V57.3308C62.8984 57.6516 63.0465 58.0053 63.4002 58.1863H72.6714V69.7445L72.6632 69.7527Z" fill="#7993B0"/>
<path d="M45.9436 47.3845C45.8449 47.4503 45.8778 47.656 46.0094 47.7876C46.1411 47.8863 46.3138 47.9604 46.4125 47.8534C46.5113 47.7876 46.3467 47.4503 46.3467 47.4503C46.2151 47.3516 46.0423 47.2776 45.9436 47.3845Z" fill="#7993B0"/>
<path d="M50.9617 50.5938C50.7231 50.5938 50.5586 50.6925 50.5586 50.8652C50.5586 51.038 50.7314 51.1367 51.0028 51.1367C51.2414 51.1367 51.4059 51.038 51.4059 50.8652C51.4059 50.6925 51.2003 50.5938 50.9617 50.5938Z" fill="#7993B0"/>
<path d="M52.4508 50.3877C52.2122 50.4206 52.0806 50.5934 52.0806 50.7579C52.1135 50.9306 52.3191 51.0294 52.5577 50.9635C52.7716 50.8977 52.9032 50.6509 52.9197 50.6098C52.8785 50.4535 52.6811 50.3877 52.4508 50.3877V50.3877Z" fill="#7993B0"/>
<path d="M49.4316 50.3217V50.3546C49.1931 50.2888 48.9874 50.3546 48.9216 50.5191C48.8558 50.6508 49.0203 50.8564 49.2589 50.8893C49.4974 50.9551 49.736 50.8893 49.7689 50.7166C49.8018 50.585 49.6702 50.3793 49.4316 50.3135V50.3217Z" fill="#7993B0"/>
<path d="M47.2024 48.5694C47.1037 48.3966 46.898 48.2979 46.7581 48.3966C46.6265 48.4954 46.6265 48.701 46.7581 48.8655C46.8898 49.0383 47.0954 49.1041 47.2024 49.0383C47.334 48.9067 47.334 48.701 47.2024 48.5283V48.5612V48.5694Z" fill="#7993B0"/>
<path d="M47.6711 49.5404C47.5395 49.6391 47.6053 49.8776 47.7698 50.0093C47.9426 50.182 48.1729 50.2149 48.2799 50.0751C48.3786 49.9764 48.1811 49.6062 48.1811 49.6062C48.0084 49.4334 47.778 49.4005 47.6711 49.5404Z" fill="#7993B0"/>
</svg>
