<svg width="100" height="100" viewBox="0 0 100 100" fill="none" xmlns="http://www.w3.org/2000/svg">
<path d="M16 0.75H84C92.4258 0.75 99.25 7.57421 99.25 16V84C99.25 92.4258 92.4258 99.25 84 99.25H16C7.57421 99.25 0.75 92.4258 0.75 84V16C0.75 7.57421 7.57421 0.75 16 0.75Z" stroke="#7993B0" stroke-width="1.5"/>
<path d="M52.6572 75.9818V62.5855C52.6572 58.8271 51.427 56.4346 49.916 55.1366C58.9049 54.1099 68.3686 52.8797 68.3686 37.4396C68.3686 33.071 66.7897 30.8141 64.2518 28.0147C64.6587 26.9879 66.0341 22.6872 63.845 17.1466C60.4838 16.1198 52.7347 21.4473 52.7347 21.4473C49.5091 20.5562 46.0802 20.0815 42.6512 20.0815C39.2222 20.0815 35.7932 20.5562 32.5676 21.4473C32.5676 21.4473 24.8185 16.052 21.4573 17.1466C19.2585 22.6775 20.634 26.9879 21.0505 28.0147C18.4449 30.8141 17.2825 33.071 17.2825 37.4396C17.2825 52.8119 26.3393 54.1099 35.3186 55.1366C34.1562 56.1634 33.1198 57.936 32.7129 60.5319C30.3785 61.6265 24.4795 63.3991 20.9827 57.1805C18.7839 53.3543 14.8125 53.0831 14.8125 53.0831C10.8992 53.0831 14.5412 55.5435 14.5412 55.5435C17.1469 56.7736 18.997 61.4231 18.997 61.4231C21.3314 68.6007 32.6451 66.2082 32.6451 66.2082V76.0496L52.6766 75.9818H52.6572ZM17.3309 54.3908C17.3309 54.3908 17.8152 54.7976 17.6699 55.001C17.5343 55.2044 17.2631 55.2722 16.9822 55.1366C16.6432 55.001 16.4979 54.7298 16.6432 54.5264C16.7788 54.3908 16.9822 54.323 17.3309 54.3908ZM19.181 55.96C19.181 55.96 19.5201 56.6477 19.3166 56.7833C19.1132 56.9867 18.7645 56.8511 18.4933 56.6477C18.2221 56.3765 18.1543 55.96 18.3577 55.8244C18.5611 55.6209 18.9098 55.7566 19.181 55.96ZM20.8955 58.1491C21.1667 58.4881 21.1667 58.9046 20.8955 59.1759C20.6921 59.3115 20.2756 59.1758 20.0044 58.8368C19.7332 58.4978 19.7332 58.0813 20.0044 57.8779C20.2756 57.6745 20.6921 57.8779 20.8955 58.2169V58.1491ZM22.8812 60.3382C22.8812 60.3382 23.2881 61.0938 23.0846 61.2972C22.8812 61.5684 22.3969 61.5006 22.0579 61.1616C21.7189 60.8903 21.5736 60.406 21.8545 60.2026C22.0579 59.9314 22.5422 59.9992 22.8812 60.3382ZM25.4191 61.7718C25.9034 61.9074 26.1746 62.3142 26.1068 62.5951C26.039 62.9342 25.5547 63.0698 25.08 62.9342C24.5957 62.8664 24.2567 62.4595 24.3923 62.1786C24.5279 61.8396 24.9444 61.704 25.4191 61.8396V61.7718ZM28.5768 63.4088C28.0247 63.4088 27.6857 63.2054 27.6857 62.8664C27.6857 62.5273 28.0247 62.3239 28.509 62.3239C28.9933 62.3239 29.4002 62.5273 29.4002 62.8664C29.4002 63.2054 29.0612 63.4088 28.5768 63.4088ZM32.4901 62.3142C32.4901 62.3142 32.2189 62.9245 31.7346 63.0698C31.2503 63.2054 30.8435 63.002 30.7756 62.663C30.7756 62.3239 31.0469 61.9752 31.5312 61.9074C32.0155 61.9074 32.4223 62.043 32.4901 62.382V62.3142Z" fill="#7993B0"/>
<path d="M86.1529 67.6897C86.1529 76.0491 79.3724 82.8199 71.0227 82.8199C62.6731 82.8199 55.8926 76.0394 55.8926 67.6897C55.8926 59.34 62.6731 52.5596 71.0227 52.5596C79.3724 52.5596 86.1529 59.34 86.1529 67.6897ZM78.0647 67.6897L66.7317 59.1173V76.2525L78.0647 67.68V67.6897Z" fill="#7993B0"/>
</svg>
