<svg width="100" height="100" viewBox="0 0 100 100" fill="none" xmlns="http://www.w3.org/2000/svg">
<g clip-path="url(#clip0_4849_12952)">
<path d="M53.1899 76.9099V63.0799C53.1899 59.1999 51.9199 56.7299 50.3599 55.3899C59.6399 54.3299 69.4099 53.0599 69.4099 37.1199C69.4099 32.6099 67.7799 30.2799 65.1599 27.3899C65.5799 26.3299 66.9999 21.8899 64.7399 16.1699C61.2699 15.1099 53.2699 20.6099 53.2699 20.6099C49.9399 19.6899 46.3999 19.1999 42.8599 19.1999C39.3199 19.1999 35.7799 19.6899 32.4499 20.6099C32.4499 20.6099 24.4499 15.0399 20.9799 16.1699C18.7099 21.8799 20.1299 26.3299 20.5599 27.3899C17.8699 30.2799 16.6699 32.6099 16.6699 37.1199C16.6699 52.9899 26.0199 54.3299 35.2899 55.3899C34.0899 56.4499 33.0199 58.2799 32.5999 60.9599C30.1899 62.0899 24.0999 63.9199 20.4899 57.4999C18.2199 53.5499 14.1199 53.2699 14.1199 53.2699C10.0799 53.2699 13.8399 55.8099 13.8399 55.8099C16.5299 57.0799 18.4399 61.8799 18.4399 61.8799C20.8499 69.2899 32.5299 66.8199 32.5299 66.8199V76.9799L53.2099 76.9099H53.1899ZM16.7199 54.6199C16.7199 54.6199 17.2199 55.0399 17.0699 55.2499C16.9299 55.4599 16.6499 55.5299 16.3599 55.3899C16.0099 55.2499 15.8599 54.9699 16.0099 54.7599C16.1499 54.6199 16.3599 54.5499 16.7199 54.6199ZM18.6299 56.2399C18.6299 56.2399 18.9799 56.9499 18.7699 57.0899C18.5599 57.2999 18.1999 57.1599 17.9199 56.9499C17.6399 56.6699 17.5699 56.2399 17.7799 56.0999C17.9899 55.8899 18.3499 56.0299 18.6299 56.2399ZM20.3999 58.4999C20.6799 58.8499 20.6799 59.2799 20.3999 59.5599C20.1899 59.6999 19.7599 59.5599 19.4799 59.2099C19.1999 58.8599 19.1999 58.4299 19.4799 58.2199C19.7599 58.0099 20.1899 58.2199 20.3999 58.5699V58.4999ZM22.4499 60.7599C22.4499 60.7599 22.8699 61.5399 22.6599 61.7499C22.4499 62.0299 21.9499 61.9599 21.5999 61.6099C21.2499 61.3299 21.0999 60.8299 21.3899 60.6199C21.5999 60.3399 22.0999 60.4099 22.4499 60.7599ZM25.0699 62.2399C25.5699 62.3799 25.8499 62.7999 25.7799 63.0899C25.7099 63.4399 25.2099 63.5799 24.7199 63.4399C24.2199 63.3699 23.8699 62.9499 24.0099 62.6599C24.1499 62.3099 24.5799 62.1699 25.0699 62.3099V62.2399ZM28.3299 63.9299C27.7599 63.9299 27.4099 63.7199 27.4099 63.3699C27.4099 63.0199 27.7599 62.8099 28.2599 62.8099C28.7599 62.8099 29.1799 63.0199 29.1799 63.3699C29.1799 63.7199 28.8299 63.9299 28.3299 63.9299ZM32.3699 62.7999C32.3699 62.7999 32.0899 63.4299 31.5899 63.5799C31.0899 63.7199 30.6699 63.5099 30.5999 63.1599C30.5999 62.8099 30.8799 62.4499 31.3799 62.3799C31.8799 62.3799 32.2999 62.5199 32.3699 62.8699V62.7999Z" fill="#7993B0"/>
<path d="M87.77 68.3495C87.77 76.9795 80.77 83.9695 72.15 83.9695C63.53 83.9695 56.53 76.9695 56.53 68.3495C56.53 59.7295 63.53 52.7295 72.15 52.7295C80.77 52.7295 87.77 59.7295 87.77 68.3495ZM79.42 68.3495L67.72 59.4995V77.1895L79.42 68.3395V68.3495Z" fill="#7993B0"/>
</g>
<defs>
<clipPath id="clip0_4849_12952">
<rect width="100" height="100" fill="white"/>
</clipPath>
</defs>
</svg>
