<svg width="102" height="102" viewBox="0 0 102 102" fill="none" xmlns="http://www.w3.org/2000/svg">
<path d="M51 101C78.6142 101 101 78.6142 101 51C101 23.3858 78.6142 1 51 1C23.3858 1 1 23.3858 1 51C1 78.6142 23.3858 101 51 101Z" stroke="#7893B0" stroke-width="1.5" stroke-linecap="round" stroke-linejoin="round"/>
<path d="M53.6572 76.9818V63.5855C53.6572 59.8271 52.427 57.4346 50.916 56.1366C59.9049 55.1099 69.3686 53.8797 69.3686 38.4396C69.3686 34.071 67.7897 31.8141 65.2518 29.0147C65.6587 27.9879 67.0341 23.6872 64.845 18.1466C61.4838 17.1198 53.7347 22.4473 53.7347 22.4473C50.5091 21.5562 47.0802 21.0815 43.6512 21.0815C40.2222 21.0815 36.7932 21.5562 33.5676 22.4473C33.5676 22.4473 25.8185 17.052 22.4573 18.1466C20.2585 23.6775 21.634 27.9879 22.0505 29.0147C19.4449 31.8141 18.2825 34.071 18.2825 38.4396C18.2825 53.8119 27.3393 55.1099 36.3186 56.1366C35.1562 57.1634 34.1198 58.936 33.7129 61.5319C31.3785 62.6265 25.4795 64.3991 21.9827 58.1805C19.7839 54.3543 15.8125 54.0831 15.8125 54.0831C11.8992 54.0831 15.5412 56.5435 15.5412 56.5435C18.1469 57.7736 19.997 62.4231 19.997 62.4231C22.3314 69.6007 33.6451 67.2082 33.6451 67.2082V77.0496L53.6766 76.9818H53.6572ZM18.3309 55.3908C18.3309 55.3908 18.8152 55.7976 18.6699 56.001C18.5343 56.2044 18.2631 56.2722 17.9822 56.1366C17.6432 56.001 17.4979 55.7298 17.6432 55.5264C17.7788 55.3908 17.9822 55.323 18.3309 55.3908ZM20.181 56.96C20.181 56.96 20.52 57.6477 20.3166 57.7833C20.1132 57.9867 19.7645 57.8511 19.4933 57.6477C19.2221 57.3765 19.1543 56.96 19.3577 56.8244C19.5611 56.6209 19.9098 56.7566 20.181 56.96ZM21.8955 59.1491C22.1667 59.4881 22.1667 59.9046 21.8955 60.1759C21.6921 60.3115 21.2756 60.1759 21.0044 59.8368C20.7331 59.4978 20.7331 59.0813 21.0044 58.8779C21.2756 58.6745 21.6921 58.8779 21.8955 59.2169V59.1491ZM23.8812 61.3382C23.8812 61.3382 24.2881 62.0938 24.0846 62.2972C23.8812 62.5684 23.3969 62.5006 23.0579 62.1616C22.7189 61.8903 22.5736 61.406 22.8545 61.2026C23.0579 60.9314 23.5422 60.9992 23.8812 61.3382ZM26.4191 62.7718C26.9034 62.9074 27.1746 63.3142 27.1068 63.5952C27.039 63.9342 26.5547 64.0698 26.08 63.9342C25.5957 63.8664 25.2567 63.4595 25.3923 63.1786C25.5279 62.8396 25.9444 62.704 26.4191 62.8396V62.7718ZM29.5768 64.4088C29.0247 64.4088 28.6857 64.2054 28.6857 63.8664C28.6857 63.5273 29.0247 63.3239 29.509 63.3239C29.9933 63.3239 30.4002 63.5273 30.4002 63.8664C30.4002 64.2054 30.0612 64.4088 29.5768 64.4088ZM33.4901 63.3142C33.4901 63.3142 33.2189 63.9245 32.7346 64.0698C32.2503 64.2054 31.8435 64.002 31.7756 63.663C31.7756 63.3239 32.0469 62.9752 32.5312 62.9074C33.0155 62.9074 33.4223 63.043 33.4901 63.382V63.3142Z" fill="#7993B0"/>
<path d="M87.1529 68.6897C87.1529 77.0491 80.3724 83.8199 72.0227 83.8199C63.6731 83.8199 56.8926 77.0394 56.8926 68.6897C56.8926 60.34 63.6731 53.5596 72.0227 53.5596C80.3724 53.5596 87.1529 60.34 87.1529 68.6897ZM79.0647 68.6897L67.7317 60.1173V77.2525L79.0647 68.68V68.6897Z" fill="#7993B0"/>
</svg>
