<svg width="102" height="102" viewBox="0 0 102 102" fill="none" xmlns="http://www.w3.org/2000/svg">
<path d="M51 101C78.6142 101 101 78.6142 101 51C101 23.3858 78.6142 1 51 1C23.3858 1 1 23.3858 1 51C1 78.6142 23.3858 101 51 101Z" stroke="#7893B0" stroke-width="1.5" stroke-linecap="round" stroke-linejoin="round"/>
<path d="M63.7206 54.584C64.1648 55.1399 64.5828 55.7223 64.9486 56.3576C66.4118 58.846 67.1434 61.599 67.1434 64.5639C67.1434 68.1905 66.1505 71.4466 64.1386 74.3055C62.1268 77.1645 59.514 79.1499 56.2741 80.2617C55.9344 80.3411 55.647 80.3146 55.4641 80.1293C55.2812 79.944 55.1767 79.7322 55.1767 79.4675V73.9614C55.1767 72.5584 54.8109 71.5524 54.0793 70.9436C55.6731 70.7583 56.875 70.5465 57.6327 70.2818C58.8346 69.8318 59.7752 69.1964 60.4284 68.3229C61.16 67.1846 61.5258 65.6227 61.5258 63.6638C61.5258 62.8432 61.3691 62.102 61.0816 61.4931C60.8726 61.0431 60.4546 60.5137 59.8536 59.8519C60.0365 59.4019 60.141 58.8989 60.1672 58.2636C60.2194 57.3106 60.0627 56.3311 59.723 55.3781C59.2788 55.2458 58.6779 55.3252 57.9201 55.6429C57.3976 55.8546 56.7966 56.1723 56.1173 56.5694L55.2812 57.1518C53.9487 56.7547 52.5639 56.5694 51.153 56.5694C49.7421 56.5694 48.4095 56.7547 47.1031 57.1518L46.267 56.5694C45.5877 56.1723 44.9606 55.8811 44.3858 55.6429C43.602 55.3252 43.0272 55.2458 42.6352 55.3781C42.2433 56.3311 42.0865 57.3106 42.1911 58.2636C42.1911 58.8724 42.2694 59.3754 42.4523 59.7725C41.9298 60.4343 41.564 61.0431 41.3288 61.5726C41.0937 62.1285 40.963 62.8167 40.963 63.6374C40.963 65.5963 41.3027 67.1316 42.0082 68.2435C42.6091 69.17 43.5236 69.8318 44.7255 70.2818C45.5093 70.5465 46.659 70.7583 48.2266 70.9436C47.6518 71.473 47.3122 72.2142 47.1815 73.1672C46.4499 73.5114 45.7445 73.6437 45.039 73.5643C43.9155 73.4849 43.0533 72.876 42.4523 71.7907C42.1911 71.3142 41.8514 70.9171 41.4072 70.5995C41.0937 70.4142 40.7801 70.2818 40.4405 70.1494L39.9963 70.0965C39.526 70.0965 39.2647 70.1759 39.2386 70.3347C39.2386 70.4936 39.317 70.6524 39.526 70.8377L39.8395 71.1024C40.1531 71.2877 40.4405 71.5524 40.754 71.9495C41.0153 72.2672 41.2243 72.6113 41.4072 73.0084L41.6685 73.5378C41.8775 74.1996 42.2956 74.7026 42.8965 75.0467C43.4191 75.3644 44.0461 75.5497 44.7777 75.6291C45.3003 75.682 45.849 75.6291 46.3977 75.5762L47.1031 75.5232L47.1554 79.5205C47.1554 79.7852 47.0509 79.997 46.868 80.1823C46.6851 80.3676 46.3977 80.394 46.058 80.3146C42.7659 79.2293 40.1269 77.2439 38.089 74.3585C36.051 71.4995 35.032 68.2435 35.032 64.6168C35.032 61.652 35.7113 58.9254 37.0961 56.4635C37.4619 55.8282 37.8538 55.2193 38.298 54.6369C30.0676 55.5634 23.6663 62.6314 23.6663 71.2083V76.3703C23.6663 79.6528 26.3052 82.3265 29.5451 82.3265H72.6564C75.8963 82.3265 78.5352 79.6528 78.5352 76.3703V71.2083C78.5352 62.5785 72.0554 55.4576 63.7467 54.6105L63.7206 54.584ZM40.7279 70.9436C40.5711 70.8642 40.5189 70.7583 40.5711 70.6789C40.6495 70.5995 40.754 70.573 40.8847 70.6524C41.0153 70.7053 41.0675 70.8112 41.0153 70.9171C40.963 71.023 40.8847 71.0495 40.7279 70.9436ZM41.6685 71.6054C41.6685 71.6054 41.4856 71.6583 41.355 71.5524C41.2243 71.4466 41.1982 71.3142 41.3027 71.2348C41.4072 71.1554 41.4856 71.1818 41.6162 71.2877C41.7469 71.3936 41.773 71.526 41.6685 71.6054ZM42.3217 72.5848C42.3217 72.5848 42.2172 72.6378 42.1649 72.5848C42.1127 72.5319 42.0343 72.5054 41.9298 72.4525C41.8514 72.2407 41.8514 72.1083 41.9298 72.0554C42.0082 72.0025 42.0865 72.0025 42.1649 72.0289C42.2172 72.0289 42.2956 72.1084 42.3217 72.1878C42.4523 72.3731 42.4523 72.5054 42.3217 72.5848ZM43.2362 73.5114C43.2362 73.5114 42.9488 73.6172 42.792 73.4584C42.7136 73.379 42.6614 73.2731 42.6614 73.1937C42.6614 73.1143 42.6614 73.0349 42.7136 73.0084C42.7659 72.9554 42.8181 72.9554 42.8965 72.9819C42.9749 73.0084 43.0533 73.0349 43.1317 73.1143C43.1839 73.1672 43.2362 73.2466 43.2623 73.3525C43.2623 73.4319 43.2623 73.5114 43.2362 73.5378V73.5114ZM44.2813 74.1732C44.2813 74.1732 44.0984 74.2261 44.02 74.1732C43.9416 74.1202 43.8633 74.0673 43.7849 74.0143C43.7326 73.9614 43.7065 73.882 43.7587 73.8555C43.811 73.6702 43.9416 73.6172 44.1507 73.6967C44.3597 73.7496 44.4642 73.8555 44.4381 73.9614C44.4381 74.0673 44.3597 74.1467 44.2813 74.1996V74.1732ZM45.4048 74.4114C45.1697 74.4114 45.039 74.3585 45.039 74.1732C45.039 73.9879 45.1435 73.9084 45.3526 73.9084C45.4832 73.9084 45.5877 73.9084 45.64 73.9614C45.6922 74.0143 45.7445 74.0408 45.7445 74.0937C45.7445 74.279 45.6138 74.3585 45.3787 74.3849L45.4048 74.4114ZM46.659 74.2526C46.659 74.2526 46.5022 74.2526 46.4238 74.2261C46.3715 74.2261 46.3193 74.1202 46.2932 73.9878C46.2932 73.8555 46.3715 73.7761 46.5806 73.7231C46.7896 73.7231 46.9202 73.7761 46.9464 73.9084C46.9464 74.0408 46.868 74.1467 46.659 74.2261V74.2526Z" fill="#7893B0"/>
<path d="M35.3977 36.5833C35.3977 27.8211 42.4262 20.7002 51.0745 20.7002C59.7229 20.7002 66.7514 27.8211 66.7514 36.5833C66.7514 45.3455 59.7229 52.4664 51.0745 52.4664C42.4262 52.4664 35.3977 45.3455 35.3977 36.5833Z" fill="#7893B0"/>
</svg>
