<svg width="73" height="81" viewBox="0 0 73 81" fill="none" xmlns="http://www.w3.org/2000/svg">
<path d="M52.7375 44.0049C53.3219 44.7268 53.872 45.4832 54.3533 46.3083C56.2785 49.5399 57.2411 53.1153 57.2411 56.9658C57.2411 61.6757 55.9347 65.9043 53.2875 69.6173C50.6404 73.3302 47.2024 75.9086 42.9394 77.3525C42.4925 77.4557 42.1144 77.4213 41.8737 77.1806C41.633 76.94 41.4955 76.665 41.4955 76.3212V69.1703C41.4955 67.3482 41.0142 66.0418 40.0516 65.2511C42.1487 65.0105 43.7302 64.7354 44.7272 64.3916C46.3086 63.8072 47.5462 62.9821 48.4057 61.8476C49.3683 60.3693 49.8496 58.3409 49.8496 55.7969C49.8496 54.7311 49.6434 53.7685 49.2652 52.9778C48.9902 52.3934 48.4401 51.7058 47.6494 50.8463C47.89 50.2619 48.0275 49.6087 48.0619 48.7836C48.1307 47.5459 47.9244 46.2739 47.4775 45.0363C46.893 44.8644 46.1023 44.9675 45.1053 45.38C44.4178 45.6551 43.627 46.0676 42.7332 46.5833L41.633 47.3396C39.8797 46.824 38.0576 46.5833 36.2012 46.5833C34.3447 46.5833 32.5914 46.824 30.8724 47.3396L29.7723 46.5833C28.8784 46.0676 28.0533 45.6895 27.297 45.38C26.2656 44.9675 25.5093 44.8644 24.9936 45.0363C24.4779 46.2739 24.2716 47.5459 24.4092 48.7836C24.4092 49.5743 24.5123 50.2275 24.7529 50.7432C24.0654 51.6026 23.5841 52.3934 23.2746 53.0809C22.9652 53.8029 22.7933 54.6968 22.7933 55.7625C22.7933 58.3066 23.2403 60.3005 24.1685 61.7445C24.9592 62.9477 26.1625 63.8072 27.7439 64.3916C28.7753 64.7354 30.288 65.0105 32.3507 65.2511C31.5944 65.9387 31.1474 66.9013 30.9755 68.139C30.0129 68.5859 29.0847 68.7578 28.1565 68.6546C26.6782 68.5515 25.5437 67.7608 24.7529 66.3512C24.4092 65.7324 23.9622 65.2167 23.3778 64.8042C22.9652 64.5635 22.5527 64.3916 22.1058 64.2198L21.5213 64.151C20.9025 64.151 20.5587 64.2541 20.5243 64.4604C20.5243 64.6667 20.6275 64.873 20.9025 65.1136L21.315 65.4574C21.7276 65.6981 22.1058 66.0418 22.5183 66.5575C22.8621 66.9701 23.1371 67.417 23.3778 67.9327L23.7216 68.6203C23.9966 69.4797 24.5467 70.1329 25.3374 70.5799C26.025 70.9924 26.8501 71.2331 27.8127 71.3362C28.5003 71.405 29.2222 71.3362 29.9442 71.2675L30.8724 71.1987L30.9412 76.3899C30.9412 76.7337 30.8037 77.0087 30.563 77.2494C30.3223 77.4901 29.9442 77.5244 29.4973 77.4213C25.1655 76.0118 21.6932 73.4333 19.0116 69.686C16.3301 65.9731 14.9893 61.7445 14.9893 57.0345C14.9893 53.1841 15.8832 49.643 17.7052 46.4458C18.1866 45.6207 18.7022 44.83 19.2867 44.0736C8.45728 45.2769 0.0344238 54.4561 0.0344238 65.5949V72.2988C0.0344238 76.5618 3.50671 80.0341 7.76971 80.0341H64.4951C68.7581 80.0341 72.2304 76.5618 72.2304 72.2988V65.5949C72.2304 54.3873 63.7044 45.1394 52.7719 44.0393L52.7375 44.0049ZM22.4839 65.2511C22.2777 65.148 22.2089 65.0105 22.2777 64.9073C22.3808 64.8042 22.5183 64.7698 22.6902 64.873C22.8621 64.9417 22.9309 65.0792 22.8621 65.2167C22.7933 65.3543 22.6902 65.3886 22.4839 65.2511ZM23.7216 66.1106C23.7216 66.1106 23.4809 66.1794 23.309 66.0418C23.1371 65.9043 23.1028 65.7324 23.2403 65.6293C23.3778 65.5262 23.4809 65.5605 23.6528 65.6981C23.8247 65.8356 23.8591 66.0075 23.7216 66.1106ZM24.5811 67.3826C24.5811 67.3826 24.4435 67.4514 24.3748 67.3826C24.306 67.3139 24.2029 67.2795 24.0654 67.2107C23.9622 66.9357 23.9622 66.7638 24.0654 66.695C24.1685 66.6263 24.2716 66.6263 24.3748 66.6607C24.4435 66.6607 24.5467 66.7638 24.5811 66.8669C24.7529 67.1076 24.7529 67.2795 24.5811 67.3826ZM25.7843 68.5859C25.7843 68.5859 25.4061 68.7234 25.1999 68.5171C25.0967 68.414 25.028 68.2765 25.028 68.1733C25.028 68.0702 25.028 67.9671 25.0967 67.9327C25.1655 67.8639 25.2343 67.8639 25.3374 67.8983C25.4405 67.9327 25.5437 67.9671 25.6468 68.0702C25.7156 68.139 25.7843 68.2421 25.8187 68.3796C25.8187 68.4827 25.8187 68.5859 25.7843 68.6203V68.5859ZM27.1595 69.4454C27.1595 69.4454 26.9188 69.5141 26.8157 69.4454C26.7126 69.3766 26.6094 69.3078 26.5063 69.2391C26.4375 69.1703 26.4031 69.0672 26.4719 69.0328C26.5407 68.7922 26.7125 68.7234 26.9876 68.8265C27.2626 68.8953 27.4001 69.0328 27.3658 69.1703C27.3658 69.3078 27.2626 69.411 27.1595 69.4797V69.4454ZM28.6378 69.7548C28.3284 69.7548 28.1565 69.686 28.1565 69.4454C28.1565 69.2047 28.294 69.1016 28.569 69.1016C28.7409 69.1016 28.8784 69.1016 28.9472 69.1703C29.0159 69.2391 29.0847 69.2735 29.0847 69.3422C29.0847 69.5829 28.9128 69.686 28.6034 69.7204L28.6378 69.7548ZM30.288 69.5485C30.288 69.5485 30.0817 69.5485 29.9786 69.5141C29.9098 69.5141 29.841 69.3766 29.8067 69.2047C29.8067 69.0328 29.9098 68.9297 30.1848 68.8609C30.4599 68.8609 30.6318 68.9297 30.6661 69.1016C30.6661 69.2735 30.563 69.411 30.288 69.5141V69.5485Z" fill="#7893B0"/>
<path d="M15.4705 20.6274C15.4705 9.24796 24.7184 0 36.0979 0C47.4773 0 56.7253 9.24796 56.7253 20.6274C56.7253 32.0069 47.4773 41.2548 36.0979 41.2548C24.7184 41.2548 15.4705 32.0069 15.4705 20.6274Z" fill="#7893B0"/>
</svg>
