<svg width="100" height="100" viewBox="0 0 100 100" fill="none" xmlns="http://www.w3.org/2000/svg">
<path d="M91.4292 50.3479C91.4292 68.6878 80.1695 84.3473 63.5987 89.8493C61.4742 90.202 60.6953 88.9323 60.6953 87.8742C60.6953 86.534 60.6953 79.6213 60.6953 74.0487C60.6953 70.1691 59.4206 67.7003 57.8627 66.3601C67.1395 65.302 76.912 64.0323 76.912 48.0907C76.912 43.5762 75.2833 41.2485 72.6631 38.3564C73.088 37.2983 74.5043 32.8544 72.2382 27.1408C68.7682 26.0827 60.7661 31.5847 60.7661 31.5847C57.4378 30.6677 53.897 30.1739 50.3562 30.1739C46.8155 30.1739 43.2747 30.6677 39.9464 31.5847C39.9464 31.5847 31.9442 26.0122 28.4742 27.1408C26.2082 32.8544 27.6245 37.2983 28.0494 38.3564C25.3584 41.2485 24.1545 43.5762 24.1545 48.0907C24.1545 63.9618 33.5021 65.302 42.779 66.3601C41.5751 67.4181 40.5129 69.2521 40.088 71.9326C37.6803 73.0612 31.5901 74.8952 27.9785 68.4762C25.7124 64.5261 21.6051 64.2439 21.6051 64.2439C17.5687 64.2439 21.3219 66.7833 21.3219 66.7833C24.0129 68.053 25.9249 72.8496 25.9249 72.8496C28.3326 80.2561 40.0172 77.7873 40.0172 77.7873C40.0172 81.2436 40.0172 86.8867 40.0172 87.9448C40.0172 89.0029 39.2382 90.3431 37.1137 89.9199C20.5429 84.4179 9 68.6878 9 50.3479C9.14163 27.4229 26.7747 10 49.7897 10C72.8047 10 91.5 27.4229 91.5 50.3479H91.4292ZM24.2253 65.5842C24.2253 65.5842 24.721 66.0074 24.5794 66.219C24.4378 66.4306 24.1545 66.5011 23.8712 66.3601C23.5172 66.219 23.3755 65.9368 23.5172 65.7252C23.6588 65.5842 23.8712 65.5136 24.2253 65.5842ZM26.1373 67.2065C26.1373 67.2065 26.4914 67.9119 26.279 68.053C26.0665 68.2646 25.7124 68.1235 25.4292 67.9119C25.1459 67.6298 25.0751 67.2065 25.2876 67.0655C25.5 66.8538 25.8541 66.9949 26.1373 67.2065ZM27.9077 69.4638C28.191 69.8164 28.191 70.2397 27.9077 70.5218C27.6953 70.6629 27.2704 70.5218 26.9871 70.1691C26.7039 69.8164 26.7039 69.3932 26.9871 69.1816C27.2704 68.97 27.6953 69.1816 27.9077 69.5343V69.4638ZM29.9614 71.721C29.9614 71.721 30.3863 72.4969 30.1738 72.7085C29.9614 72.9907 29.4657 72.9201 29.1116 72.5674C28.7575 72.2853 28.6159 71.7915 28.8991 71.5799C29.1116 71.2977 29.6073 71.3683 29.9614 71.721ZM32.5815 73.2023C33.0773 73.3434 33.3605 73.7666 33.2897 74.0487C33.2189 74.4014 32.7232 74.5425 32.2275 74.4014C31.7318 74.3309 31.3777 73.9077 31.5193 73.6255C31.6609 73.2728 32.0858 73.1317 32.5815 73.2728V73.2023ZM35.8391 74.8952C35.2725 74.8952 34.9185 74.6836 34.9185 74.3309C34.9185 73.9782 35.2725 73.7666 35.7682 73.7666C36.2639 73.7666 36.6888 73.9782 36.6888 74.3309C36.6888 74.6836 36.3348 74.8952 35.8391 74.8952ZM39.8755 73.7666C39.8755 73.7666 39.5923 74.4014 39.0966 74.5425C38.6009 74.6836 38.176 74.472 38.1052 74.1193C38.1052 73.7666 38.3884 73.4139 38.8841 73.3434C39.3798 73.3434 39.8047 73.4844 39.8755 73.8371V73.7666Z" fill="#7993B0"/>
</svg>
