<svg width="100" height="100" viewBox="0 0 100 100" fill="none" xmlns="http://www.w3.org/2000/svg">
<path d="M49.8261 27.3119C54.6067 27.3119 58.4821 23.4365 58.4821 18.656C58.4821 13.8754 54.6067 10 49.8261 10C45.0456 10 41.1702 13.8754 41.1702 18.656C41.1702 23.4365 45.0456 27.3119 49.8261 27.3119Z" stroke="#7993B0" stroke-width="5" stroke-miterlimit="10"/>
<path d="M22.656 76.2279C27.4365 76.2279 31.3119 72.3525 31.3119 67.572C31.3119 62.7914 27.4365 58.916 22.656 58.916C17.8754 58.916 14 62.7914 14 67.572C14 72.3525 17.8754 76.2279 22.656 76.2279Z" stroke="#7993B0" stroke-width="5" stroke-miterlimit="10"/>
<path d="M76.996 38.1996C81.7766 38.1996 85.652 34.3242 85.652 29.5437C85.652 24.7631 81.7766 20.8877 76.996 20.8877C72.2155 20.8877 68.3401 24.7631 68.3401 29.5437C68.3401 34.3242 72.2155 38.1996 76.996 38.1996Z" stroke="#7993B0" stroke-width="5" stroke-miterlimit="10"/>
<path d="M49.8261 90.0004C54.6067 90.0004 58.4821 86.125 58.4821 81.3444C58.4821 76.5639 54.6067 72.6885 49.8261 72.6885C45.0456 72.6885 41.1702 76.5639 41.1702 81.3444C41.1702 86.125 45.0456 90.0004 49.8261 90.0004Z" stroke="#7993B0" stroke-width="5" stroke-miterlimit="10"/>
<path d="M49.8262 26.2344V71.8417" stroke="#7993B0" stroke-width="10" stroke-miterlimit="10"/>
<path d="M76.9963 38.1992C76.9963 70.9572 49.8262 46.7879 49.8262 70.8803" stroke="#7993B0" stroke-width="10" stroke-miterlimit="10"/>
<path d="M22.656 58.9154C22.656 26.1574 49.8261 50.3268 49.8261 26.2344" stroke="#7993B0" stroke-width="10" stroke-miterlimit="10"/>
</svg>
