<svg width="100" height="100" viewBox="0 0 100 100" fill="none" xmlns="http://www.w3.org/2000/svg">
<path d="M78.1918 66.5753C72.6438 66.5753 68.0548 70.4794 66.8904 75.6849C66.8219 75.6849 66.6849 75.6849 66.6164 75.6849H63.3288C61.8904 75.6849 60.726 76.8493 60.726 78.2877C60.726 79.726 61.8904 80.8904 63.3288 80.8904H66.6164C66.6164 80.8904 66.8219 80.8904 66.8904 80.8904C68.0548 86.0959 72.6438 90 78.1918 90C84.5616 90 89.7671 84.7945 89.7671 78.4247C89.7671 72.0548 84.5616 66.8493 78.1918 66.8493V66.5753ZM78.1918 86.3699C73.6712 86.3699 70.0411 82.6712 70.0411 78.2192C70.0411 73.7671 73.7397 70.0685 78.1918 70.0685C82.6438 70.0685 86.3425 73.7671 86.3425 78.2192C86.3425 82.6712 82.6438 86.3699 78.1918 86.3699ZM47.7808 66.5753C42.2329 66.5753 37.6438 70.411 36.4795 75.6164H36.2055C32.6438 75.6164 29.1507 71.9863 29.1507 68.2877V52.2603C31.2055 53.8356 33.6027 54.7945 36.2055 54.7945H36.4795C37.6438 59.9315 42.2329 63.8356 47.7808 63.8356C53.3288 63.8356 57.9178 60 59.0822 54.7945H66.8904C68.0548 59.9315 72.6438 63.8356 78.1918 63.8356C84.5616 63.8356 89.7671 58.6301 89.7671 52.2603C89.7671 45.8904 84.5616 40.6849 78.1918 40.6849C72.6438 40.6849 68.0548 44.5205 66.8904 49.726H59.0822C57.9178 44.589 53.3288 40.6849 47.7808 40.6849C42.2329 40.6849 37.6438 44.5205 36.4795 49.726H36.2055C32.6438 49.726 29.1507 46.0959 29.1507 42.3973V42.1918C37.1644 41.2329 43.3973 34.4521 43.3973 26.2329C43.3288 17.2603 36.137 10 27.1644 10C18.1918 10 11 17.2603 11 26.1644C11 34.0411 16.6164 40.5479 24.0137 42.0548V68.2877C24.0137 74.7945 29.8356 80.7534 36.2055 80.7534H36.4795C37.6438 85.8904 42.2329 89.7945 47.7808 89.7945C54.1507 89.7945 59.3562 84.589 59.3562 78.2192C59.3562 71.8493 54.1507 66.6438 47.7808 66.6438V66.5753ZM78.1918 44.0411C82.7123 44.0411 86.3425 47.7397 86.3425 52.1918C86.3425 56.6438 82.6438 60.3425 78.1918 60.3425C73.7397 60.3425 70.0411 56.6438 70.0411 52.1918C70.0411 47.7397 73.7397 44.0411 78.1918 44.0411V44.0411ZM47.7808 44.0411C52.3014 44.0411 55.9315 47.7397 55.9315 52.1918C55.9315 56.6438 52.2329 60.3425 47.7808 60.3425C43.3288 60.3425 39.6301 56.6438 39.6301 52.1918C39.6301 47.7397 43.3288 44.0411 47.7808 44.0411V44.0411ZM21.9589 31.8493V20.5479C21.9589 18.8356 23.8082 17.8082 25.2466 18.6301L35.0411 24.2466C36.5479 25.0685 36.5479 27.1918 35.0411 28.0822L25.2466 33.6986C23.7397 34.5205 21.9589 33.4931 21.9589 31.7808V31.8493ZM47.7808 86.3699C43.2603 86.3699 39.6301 82.6712 39.6301 78.2192C39.6301 73.7671 43.3288 70.0685 47.7808 70.0685C52.2329 70.0685 55.9315 73.7671 55.9315 78.2192C55.9315 82.6712 52.2329 86.3699 47.7808 86.3699V86.3699ZM46.274 76.3699C46.7534 76.8493 47.0274 77.5342 47.0274 78.2192C47.0274 78.5616 47.0274 78.8356 46.8904 79.1781C46.7534 79.5205 46.5479 79.7945 46.274 80C45.7945 80.4794 45.1781 80.7534 44.4931 80.7534C44.1507 80.7534 43.8082 80.7534 43.5342 80.5479C43.1918 80.5479 42.9178 80.274 42.6438 80C42.4384 79.7945 42.2329 79.5205 42.0959 79.1781C41.9589 78.9041 41.8904 78.5616 41.8904 78.2192C41.8904 77.5342 42.1644 76.8493 42.6438 76.3699C42.9178 76.1644 43.1918 75.9589 43.5342 75.8219C44.4931 75.411 45.589 75.6849 46.274 76.3699V76.3699ZM53.0548 76.3699C53.5342 76.8493 53.8082 77.5342 53.8082 78.2192C53.8082 78.5616 53.7397 78.8356 53.6027 79.1781C53.4657 79.5205 53.2603 79.7945 53.0548 80C52.5753 80.4794 51.8904 80.7534 51.2055 80.7534C50.863 80.7534 50.5205 80.7534 50.2466 80.5479C49.9041 80.5479 49.6301 80.274 49.4247 80C48.9452 79.5205 48.6712 78.9041 48.6712 78.2192C48.6712 77.5342 48.9452 76.8493 49.3562 76.3699C50.3151 75.411 52.0274 75.411 53.0548 76.3699ZM42.9863 53.2877C42.3699 52.6027 42.3699 51.5068 43.0548 50.8904C43.7397 50.274 44.8356 50.274 45.4521 50.9589L46.5479 52.1233L50.1096 48.8356C50.7945 48.2192 51.8904 48.2192 52.5068 48.9041C53.1233 49.589 53.1233 50.6849 52.4384 51.3014L47.5753 55.7534C47.5753 55.7534 46.8219 56.2329 46.411 56.2329C45.9315 56.2329 45.5205 56.0274 45.1781 55.6849L42.9178 53.2877H42.9863ZM73.3973 53.2877C72.7808 52.6027 72.7808 51.5068 73.4657 50.8904C74.1507 50.274 75.2466 50.274 75.863 50.9589L76.9589 52.1233L80.5205 48.8356C81.2055 48.2192 82.3014 48.2192 82.9178 48.9041C83.5342 49.589 83.5342 50.6849 82.8493 51.3014L77.9863 55.7534C77.9863 55.7534 77.2329 56.2329 76.8219 56.2329C76.3425 56.2329 75.9315 56.0274 75.589 55.6849L73.3288 53.2877H73.3973Z" fill="#7993B0"/>
</svg>
