<svg width="100" height="100" viewBox="0 0 100 100" fill="none" xmlns="http://www.w3.org/2000/svg">
<g clip-path="url(#clip0_4848_12814)">
<path d="M88.6523 41.4788L88.5428 41.1925L77.655 12.8066C77.436 12.2508 77.0487 11.7709 76.535 11.4509C76.0298 11.1225 75.4319 10.9709 74.8256 11.0046C74.2194 11.0299 73.6468 11.2572 73.1752 11.6277C72.7037 12.0067 72.3668 12.5203 72.2153 13.1013L64.8809 35.5675H35.1309L27.7628 13.1182C27.6029 12.5372 27.266 12.0235 26.8029 11.653C26.3313 11.2825 25.7587 11.0635 25.1525 11.0299C24.5546 10.9962 23.9567 11.1562 23.4431 11.4762C22.9378 11.7961 22.5421 12.2677 22.3231 12.8319L11.4437 41.2009L11.3342 41.4872C9.768 45.5796 9.57433 50.0678 10.7869 54.2865C11.9995 58.4968 14.5425 62.2019 18.0455 64.846L18.0791 64.8712L18.1802 64.947L34.7688 77.359L42.9705 83.565L47.9639 87.3374C48.5449 87.7837 49.2607 88.0195 50.0017 88.0195C50.7427 88.0195 51.45 87.7753 52.0395 87.3374L57.0329 83.565L65.2346 77.359L81.9158 64.8881L81.9579 64.8544C85.4609 62.2103 88.0039 58.5053 89.2165 54.295C90.429 50.0847 90.2269 45.588 88.6607 41.4956L88.6523 41.4788Z" fill="#7993B0"/>
</g>
<defs>
<clipPath id="clip0_4848_12814">
<rect width="100" height="100" fill="white"/>
</clipPath>
</defs>
</svg>
