<svg width="100" height="100" viewBox="0 0 100 100" fill="none" xmlns="http://www.w3.org/2000/svg">
<path fill-rule="evenodd" clip-rule="evenodd" d="M50 28.5295C40 28.5295 31.61 35.3995 29.24 44.6795C29.22 44.7495 29.21 44.8195 29.21 44.8895C29.21 45.4495 29.67 45.9095 30.23 45.9095H38.86C39.27 45.9095 39.62 45.6595 39.79 45.3095C41.56 41.4395 45.46 38.7495 49.99 38.7495C56.19 38.7495 61.21 43.7895 61.21 49.9995C61.21 56.2095 56.18 61.2495 49.99 61.2495C45.46 61.2495 41.56 58.5595 39.79 54.6895C39.63 54.3395 39.28 54.0895 38.86 54.0895H30.23C29.67 54.0895 29.21 54.5495 29.21 55.1095C29.21 55.1795 29.22 55.2495 29.24 55.3095C31.6 64.5895 39.99 71.4595 50 71.4595C61.83 71.4595 71.42 61.8495 71.42 49.9895C71.42 38.1295 61.83 28.5195 50 28.5195V28.5295Z" fill="#7893B0"/>
<path fill-rule="evenodd" clip-rule="evenodd" d="M44.9 49.9996C44.9 47.1796 47.18 44.8896 50 44.8896C52.82 44.8896 55.1 47.1796 55.1 49.9996C55.1 52.8196 52.82 55.1096 50 55.1096C47.18 55.1096 44.9 52.8196 44.9 49.9996Z" fill="#7893B0"/>
<path fill-rule="evenodd" clip-rule="evenodd" d="M15.11 55.1004C12.29 55.1004 10 52.8204 10 50.0004C10 47.1804 12.29 44.9004 15.11 44.9004C17.93 44.9004 20.22 47.1804 20.22 50.0004C20.22 52.8204 17.93 55.1004 15.11 55.1004Z" fill="#7893B0"/>
<path fill-rule="evenodd" clip-rule="evenodd" d="M28.94 78.2796C26.94 80.2796 23.71 80.2796 21.72 78.2796C19.73 76.2796 19.73 73.0596 21.72 71.0596C23.71 69.0596 26.95 69.0596 28.94 71.0596C30.93 73.0496 30.93 76.2896 28.94 78.2796Z" fill="#7893B0"/>
<path fill-rule="evenodd" clip-rule="evenodd" d="M55.1 84.8903C55.1 87.7103 52.82 90.0003 50 90.0003C47.18 90.0003 44.9 87.7103 44.9 84.8903C44.9 82.0703 47.18 79.7803 50 79.7803C52.82 79.7803 55.1 82.0703 55.1 84.8903Z" fill="#7893B0"/>
<path fill-rule="evenodd" clip-rule="evenodd" d="M78.2801 71.0599C80.2801 73.0599 80.2801 76.2899 78.2801 78.2799C76.2901 80.2699 73.0601 80.2699 71.0601 78.2799C69.0601 76.2799 69.0601 73.0499 71.0601 71.0599C73.0501 69.0699 76.2901 69.0699 78.2801 71.0599Z" fill="#7893B0"/>
<path fill-rule="evenodd" clip-rule="evenodd" d="M84.89 44.9004C87.71 44.9004 90 47.1804 90 50.0004C90 52.8204 87.71 55.1004 84.89 55.1004C82.07 55.1004 79.78 52.8204 79.78 50.0004C79.78 47.1804 82.07 44.9004 84.89 44.9004Z" fill="#7893B0"/>
<path fill-rule="evenodd" clip-rule="evenodd" d="M71.06 21.7197C73.06 19.7197 76.29 19.7197 78.28 21.7197C80.27 23.7197 80.27 26.9397 78.28 28.9397C76.28 30.9397 73.05 30.9397 71.06 28.9397C69.07 26.9497 69.07 23.7097 71.06 21.7197Z" fill="#7893B0"/>
<path fill-rule="evenodd" clip-rule="evenodd" d="M44.9 15.11C44.9 12.29 47.18 10 50 10C52.82 10 55.1 12.29 55.1 15.11C55.1 17.93 52.82 20.22 50 20.22C47.18 20.22 44.9 17.93 44.9 15.11Z" fill="#7893B0"/>
</svg>
