<svg width="102" height="102" viewBox="0 0 102 102" fill="none" xmlns="http://www.w3.org/2000/svg">
<path d="M51 101C78.6142 101 101 78.6142 101 51C101 23.3858 78.6142 1 51 1C23.3858 1 1 23.3858 1 51C1 78.6142 23.3858 101 51 101Z" stroke="#7893B0" stroke-width="1.5" stroke-linecap="round" stroke-linejoin="round"/>
<path fill-rule="evenodd" clip-rule="evenodd" d="M50.4999 35.434C43.3749 35.434 37.397 40.4148 35.7084 47.1428C35.6941 47.1935 35.687 47.2443 35.687 47.295C35.687 47.701 36.0148 48.0345 36.4138 48.0345H42.5626C42.8548 48.0345 43.1041 47.8533 43.2253 47.5995C44.4864 44.7938 47.2651 42.8435 50.4927 42.8435C54.9102 42.8435 58.487 46.4975 58.487 50.9998C58.487 55.502 54.9031 59.156 50.4927 59.156C47.2651 59.156 44.4864 57.2058 43.2253 54.4C43.1113 54.1463 42.8619 53.965 42.5626 53.965H36.4138C36.0148 53.965 35.687 54.2985 35.687 54.7045C35.687 54.7553 35.6941 54.806 35.7084 54.8495C37.3899 61.5775 43.3678 66.5583 50.4999 66.5583C58.9287 66.5583 65.7616 59.591 65.7616 50.9925C65.7616 42.394 58.9287 35.4268 50.4999 35.4268V35.434Z" fill="#7893B0"/>
<path fill-rule="evenodd" clip-rule="evenodd" d="M46.8662 51.0007C46.8662 48.9562 48.4907 47.2959 50.5 47.2959C52.5092 47.2959 54.1337 48.9562 54.1337 51.0007C54.1337 53.0452 52.5092 54.7054 50.5 54.7054C48.4907 54.7054 46.8662 53.0452 46.8662 51.0007Z" fill="#7893B0"/>
<path fill-rule="evenodd" clip-rule="evenodd" d="M25.6409 54.6977C23.6316 54.6977 22 53.0447 22 51.0002C22 48.9557 23.6316 47.3027 25.6409 47.3027C27.6501 47.3027 29.2817 48.9557 29.2817 51.0002C29.2817 53.0447 27.6501 54.6977 25.6409 54.6977Z" fill="#7893B0"/>
<path fill-rule="evenodd" clip-rule="evenodd" d="M35.4948 71.5027C34.0698 72.9527 31.7684 72.9527 30.3505 71.5027C28.9326 70.0527 28.9326 67.7182 30.3505 66.2682C31.7684 64.8182 34.0769 64.8182 35.4948 66.2682C36.9126 67.7109 36.9126 70.0599 35.4948 71.5027Z" fill="#7893B0"/>
<path fill-rule="evenodd" clip-rule="evenodd" d="M54.1337 76.2956C54.1337 78.3401 52.5092 80.0003 50.5 80.0003C48.4907 80.0003 46.8662 78.3401 46.8662 76.2956C46.8662 74.2511 48.4907 72.5908 50.5 72.5908C52.5092 72.5908 54.1337 74.2511 54.1337 76.2956Z" fill="#7893B0"/>
<path fill-rule="evenodd" clip-rule="evenodd" d="M70.6494 66.2686C72.0744 67.7186 72.0744 70.0603 70.6494 71.5031C69.2315 72.9458 66.9301 72.9458 65.5052 71.5031C64.0802 70.0531 64.0802 67.7113 65.5052 66.2686C66.923 64.8258 69.2315 64.8258 70.6494 66.2686Z" fill="#7893B0"/>
<path fill-rule="evenodd" clip-rule="evenodd" d="M75.3591 47.3027C77.3684 47.3027 79 48.9557 79 51.0002C79 53.0447 77.3684 54.6977 75.3591 54.6977C73.3499 54.6977 71.7183 53.0447 71.7183 51.0002C71.7183 48.9557 73.3499 47.3027 75.3591 47.3027Z" fill="#7893B0"/>
<path fill-rule="evenodd" clip-rule="evenodd" d="M65.5052 30.4967C66.9302 29.0467 69.2315 29.0467 70.6494 30.4967C72.0673 31.9467 72.0673 34.2812 70.6494 35.7312C69.2244 37.1812 66.9231 37.1812 65.5052 35.7312C64.0873 34.2884 64.0873 31.9394 65.5052 30.4967Z" fill="#7893B0"/>
<path fill-rule="evenodd" clip-rule="evenodd" d="M46.8662 25.7048C46.8662 23.6603 48.4907 22 50.5 22C52.5092 22 54.1337 23.6603 54.1337 25.7048C54.1337 27.7493 52.5092 29.4095 50.5 29.4095C48.4907 29.4095 46.8662 27.7493 46.8662 25.7048Z" fill="#7893B0"/>
</svg>
