<svg width="100" height="100" viewBox="0 0 100 100" fill="none" xmlns="http://www.w3.org/2000/svg">
<path fill-rule="evenodd" clip-rule="evenodd" d="M79.5 60.5498C74.15 60.5498 69.75 64.5498 69.1 69.7198H59.32C55.06 69.7198 53.54 68.0998 53.54 58.9998V47.2998C53.54 35.3998 53.54 28.2198 41.44 28.2198H30.9C30.25 23.0498 25.84 19.0498 20.5 19.0498C14.7 19.0498 10 23.7498 10 29.5498C10 35.3498 14.7 40.0498 20.5 40.0498C25.85 40.0498 30.25 36.0498 30.9 30.8798H41.44C50.07 30.8798 50.89 33.7798 50.89 47.2998V58.9998C50.89 66.3198 51.52 72.3798 59.32 72.3798H69.1C69.75 77.5498 74.16 81.5498 79.5 81.5498C85.3 81.5498 90 76.8498 90 71.0498C90 65.2498 85.3 60.5498 79.5 60.5498ZM20.5 34.7398C17.64 34.7398 15.31 32.4098 15.31 29.5498C15.31 26.6898 17.64 24.3598 20.5 24.3598C23.36 24.3598 25.69 26.6898 25.69 29.5498C25.69 32.4098 23.36 34.7398 20.5 34.7398ZM79.51 76.2298C76.65 76.2298 74.32 73.8998 74.32 71.0398C74.32 68.1798 76.65 65.8498 79.51 65.8498C82.37 65.8498 84.7 68.1798 84.7 71.0398C84.7 73.8998 82.37 76.2298 79.51 76.2298Z" fill="#7893B0"/>
<path fill-rule="evenodd" clip-rule="evenodd" d="M71.7901 32.07C71.7001 31.88 71.5101 31.75 71.2901 31.75H66.6401C66.3401 31.75 66.0901 32 66.0901 32.3C66.0901 32.34 66.0901 32.37 66.1001 32.41C67.3701 37.41 71.8901 41.1 77.2701 41.1C83.6401 41.1 88.8001 35.93 88.8001 29.55C88.8001 23.17 83.6401 18 77.2801 18C71.9001 18 67.3801 21.69 66.1101 26.69C66.1101 26.73 66.1001 26.76 66.1001 26.8C66.1001 27.1 66.3501 27.35 66.6501 27.35H71.3001C71.5201 27.35 71.7101 27.22 71.8001 27.03C72.7501 24.95 74.8501 23.5 77.2901 23.5C80.6201 23.5 83.3301 26.21 83.3301 29.55C83.3301 32.89 80.6301 35.6 77.2901 35.6C74.8501 35.6 72.7601 34.15 71.8001 32.07H71.7901Z" fill="#7893B0"/>
<path fill-rule="evenodd" clip-rule="evenodd" d="M80.02 29.5498C80.02 28.0298 78.79 26.7998 77.28 26.7998C75.77 26.7998 74.53 28.0298 74.53 29.5498C74.53 31.0698 75.76 32.2998 77.28 32.2998C78.8 32.2998 80.02 31.0698 80.02 29.5498Z" fill="#7893B0"/>
</svg>
