<svg width="102" height="102" viewBox="0 0 102 102" fill="none" xmlns="http://www.w3.org/2000/svg">
<path d="M51 101C78.6142 101 101 78.6142 101 51C101 23.3858 78.6142 1 51 1C23.3858 1 1 23.3858 1 51C1 78.6142 23.3858 101 51 101Z" stroke="#7893B0" stroke-width="1.5" stroke-linecap="round" stroke-linejoin="round"/>
<path fill-rule="evenodd" clip-rule="evenodd" d="M69.88 57.9623C66.456 57.9623 63.64 60.6023 63.224 64.0145H56.9648C54.2384 64.0145 53.2656 62.9453 53.2656 56.9393V49.2173C53.2656 41.3633 53.2656 36.6245 45.5216 36.6245H38.776C38.36 33.2123 35.5376 30.5723 32.12 30.5723C28.408 30.5723 25.4 33.6743 25.4 37.5023C25.4 41.3303 28.408 44.4323 32.12 44.4323C35.544 44.4323 38.36 41.7923 38.776 38.3801H45.5216C51.0448 38.3801 51.5696 40.2941 51.5696 49.2173V56.9393C51.5696 61.7705 51.9728 65.7701 56.9648 65.7701H63.224C63.64 69.1823 66.4624 71.8223 69.88 71.8223C73.592 71.8223 76.6 68.7203 76.6 64.8923C76.6 61.0643 73.592 57.9623 69.88 57.9623ZM32.12 40.9277C30.2896 40.9277 28.7984 39.3899 28.7984 37.5023C28.7984 35.6147 30.2896 34.0769 32.12 34.0769C33.9504 34.0769 35.4416 35.6147 35.4416 37.5023C35.4416 39.3899 33.9504 40.9277 32.12 40.9277ZM69.8864 68.3111C68.056 68.3111 66.5648 66.7733 66.5648 64.8857C66.5648 62.9981 68.056 61.4603 69.8864 61.4603C71.7168 61.4603 73.208 62.9981 73.208 64.8857C73.208 66.7733 71.7168 68.3111 69.8864 68.3111Z" fill="#7893B0"/>
<path fill-rule="evenodd" clip-rule="evenodd" d="M64.9457 39.1661C64.8881 39.0407 64.7665 38.9549 64.6257 38.9549H61.6497C61.4577 38.9549 61.2977 39.1199 61.2977 39.3179C61.2977 39.3443 61.2977 39.3641 61.3041 39.3905C62.1169 42.6905 65.0097 45.1259 68.4529 45.1259C72.5297 45.1259 75.8321 41.7137 75.8321 37.5029C75.8321 33.2921 72.5297 29.8799 68.4593 29.8799C65.0161 29.8799 62.1233 32.3153 61.3105 35.6153C61.3105 35.6417 61.3041 35.6615 61.3041 35.6879C61.3041 35.8859 61.4641 36.0509 61.6561 36.0509H64.6321C64.7729 36.0509 64.8945 35.9651 64.9521 35.8397C65.5601 34.4669 66.9041 33.5099 68.4657 33.5099C70.5969 33.5099 72.3313 35.2985 72.3313 37.5029C72.3313 39.7073 70.6033 41.4959 68.4657 41.4959C66.9041 41.4959 65.5665 40.5389 64.9521 39.1661H64.9457Z" fill="#7893B0"/>
<path fill-rule="evenodd" clip-rule="evenodd" d="M70.2128 37.5025C70.2128 36.4993 69.4256 35.6875 68.4592 35.6875C67.4928 35.6875 66.6992 36.4993 66.6992 37.5025C66.6992 38.5057 67.4864 39.3175 68.4592 39.3175C69.432 39.3175 70.2128 38.5057 70.2128 37.5025Z" fill="#7893B0"/>
</svg>
