<svg width="100" height="100" viewBox="0 0 100 100" fill="none" xmlns="http://www.w3.org/2000/svg">
<path d="M30.52 45.6H61.26V42.99C61.08 42.48 60.91 41.97 60.77 41.44L60.68 41.07L60.66 40.56C60.66 39.86 60.86 39.2 61.21 38.64C60.95 35.3 58.19 32.65 54.78 32.65H46.72L38.07 24H16.48C12.9 24 10 26.9 10 30.48V68.01L19.32 52.03C21.63 48.06 25.92 45.6 30.51 45.6H30.52Z" fill="#7993B0"/>
<path d="M86.3999 50.5599C83.6699 52.5799 80.31 53.7999 76.66 53.7999C72.6699 53.7999 68.9699 52.3499 66.0799 49.9199H30.5199C27.7799 49.9199 24.4399 51.8399 23.0599 54.2099L13.2799 70.9599C12.0199 73.1199 13.5799 75.8299 16.0799 75.8299H70.0599C72.7999 75.8299 76.1399 73.9099 77.5199 71.5399L87.2999 54.7799C88.1899 53.2599 87.66 51.4799 86.41 50.5499L86.3999 50.5599Z" fill="#7993B0"/>
<path d="M76.66 24C70.43 24 65.21 28.27 63.74 34.05C63.74 34.09 63.72 34.13 63.72 34.18C63.72 34.53 64 34.82 64.36 34.82H69.73C69.99 34.82 70.2 34.67 70.31 34.45C71.41 32.04 73.84 30.37 76.66 30.37C80.52 30.37 83.65 33.5 83.65 37.37C83.65 41.24 80.52 44.37 76.66 44.37C73.84 44.37 71.42 42.7 70.31 40.29C70.21 40.07 69.99 39.92 69.73 39.92H64.36C64.01 39.92 63.72 40.2 63.72 40.56C63.72 40.6 63.72 40.65 63.74 40.69C65.21 46.47 70.43 50.74 76.66 50.74C84.02 50.74 90 44.76 90 37.38C90 30 84.03 24 76.66 24Z" fill="#7993B0"/>
<path d="M73.49 37.3597C73.49 35.5997 74.91 34.1797 76.67 34.1797C78.43 34.1797 79.84 35.5997 79.84 37.3597C79.84 39.1197 78.42 40.5397 76.67 40.5397C74.92 40.5397 73.49 39.1097 73.49 37.3597Z" fill="#7993B0"/>
<path d="M30.52 45.6H61.26V42.99C61.08 42.48 60.91 41.97 60.77 41.44L60.68 41.07L60.66 40.56C60.66 39.86 60.86 39.2 61.21 38.64C60.95 35.3 58.19 32.65 54.78 32.65H46.72L38.07 24H16.48C12.9 24 10 26.9 10 30.48V68.01L19.32 52.03C21.63 48.06 25.92 45.6 30.51 45.6H30.52Z" fill="#7893B0"/>
<path d="M86.3999 50.5599C83.6699 52.5799 80.31 53.7999 76.66 53.7999C72.6699 53.7999 68.9699 52.3499 66.0799 49.9199H30.5199C27.7799 49.9199 24.4399 51.8399 23.0599 54.2099L13.2799 70.9599C12.0199 73.1199 13.5799 75.8299 16.0799 75.8299H70.0599C72.7999 75.8299 76.1399 73.9099 77.5199 71.5399L87.2999 54.7799C88.1899 53.2599 87.66 51.4799 86.41 50.5499L86.3999 50.5599Z" fill="#7893B0"/>
<path fill-rule="evenodd" clip-rule="evenodd" d="M76.66 24C70.43 24 65.21 28.27 63.74 34.05C63.74 34.09 63.72 34.13 63.72 34.18C63.72 34.53 64 34.82 64.36 34.82H69.73C69.99 34.82 70.2 34.67 70.31 34.45C71.41 32.04 73.84 30.37 76.66 30.37C80.52 30.37 83.65 33.5 83.65 37.37C83.65 41.24 80.52 44.37 76.66 44.37C73.84 44.37 71.42 42.7 70.31 40.29C70.21 40.07 69.99 39.92 69.73 39.92H64.36C64.01 39.92 63.72 40.2 63.72 40.56C63.72 40.6 63.72 40.65 63.74 40.69C65.21 46.47 70.43 50.74 76.66 50.74C84.02 50.74 90 44.76 90 37.38C90 30 84.03 24 76.66 24Z" fill="#7893B0"/>
<path fill-rule="evenodd" clip-rule="evenodd" d="M73.49 37.3597C73.49 35.5997 74.91 34.1797 76.67 34.1797C78.43 34.1797 79.84 35.5997 79.84 37.3597C79.84 39.1197 78.42 40.5397 76.67 40.5397C74.92 40.5397 73.49 39.1097 73.49 37.3597Z" fill="#7893B0"/>
</svg>
