<svg width="102" height="102" viewBox="0 0 102 102" fill="none" xmlns="http://www.w3.org/2000/svg">
<path d="M51 101C78.6142 101 101 78.6142 101 51C101 23.3858 78.6142 1 51 1C23.3858 1 1 23.3858 1 51C1 78.6142 23.3858 101 51 101Z" stroke="#7893B0" stroke-width="1.5" stroke-linecap="round" stroke-linejoin="round"/>
<path d="M38.1432 48.2719H58.4316V46.6537C58.3128 46.3375 58.2006 46.0213 58.1082 45.6927L58.0488 45.4633L58.0356 45.1471C58.0356 44.7131 58.1676 44.3039 58.3986 43.9567C58.227 41.8859 56.4054 40.2429 54.1548 40.2429H48.8352L43.1262 34.8799H28.8768C26.514 34.8799 24.6 36.6779 24.6 38.8975V62.1661L30.7512 52.2585C32.2758 49.7971 35.1072 48.2719 38.1366 48.2719H38.1432Z" fill="#7993B0"/>
<path d="M75.024 51.347C73.2222 52.5994 71.0046 53.3558 68.5956 53.3558C65.9622 53.3558 63.5202 52.4568 61.6128 50.9502H38.1432C36.3348 50.9502 34.1304 52.1406 33.2196 53.61L26.7648 63.995C25.9332 65.3342 26.9628 67.0144 28.6128 67.0144H64.2396C66.048 67.0144 68.2524 65.824 69.1632 64.3546L75.618 53.9634C76.2054 53.021 75.8556 51.9174 75.0306 51.3408L75.024 51.347Z" fill="#7993B0"/>
<path d="M68.5956 34.8799C64.4838 34.8799 61.0386 37.5273 60.0684 41.1109C60.0684 41.1357 60.0552 41.1605 60.0552 41.1915C60.0552 41.4085 60.24 41.5883 60.4776 41.5883H64.0218C64.1934 41.5883 64.332 41.4953 64.4046 41.3589C65.1306 39.8647 66.7344 38.8293 68.5956 38.8293C71.1432 38.8293 73.209 40.7699 73.209 43.1693C73.209 45.5687 71.1432 47.5093 68.5956 47.5093C66.7344 47.5093 65.1372 46.4739 64.4046 44.9797C64.3386 44.8433 64.1934 44.7503 64.0218 44.7503H60.4776C60.2466 44.7503 60.0552 44.9239 60.0552 45.1471C60.0552 45.1719 60.0552 45.2029 60.0684 45.2277C61.0386 48.8113 64.4838 51.4587 68.5956 51.4587C73.4532 51.4587 77.4 47.7511 77.4 43.1755C77.4 38.5999 73.4598 34.8799 68.5956 34.8799Z" fill="#7993B0"/>
<path d="M66.5034 43.163C66.5034 42.0718 67.4406 41.1914 68.6022 41.1914C69.7638 41.1914 70.6944 42.0718 70.6944 43.163C70.6944 44.2542 69.7572 45.1346 68.6022 45.1346C67.4472 45.1346 66.5034 44.248 66.5034 43.163Z" fill="#7993B0"/>
<path d="M38.1432 48.2719H58.4316V46.6537C58.3128 46.3375 58.2006 46.0213 58.1082 45.6927L58.0488 45.4633L58.0356 45.1471C58.0356 44.7131 58.1676 44.3039 58.3986 43.9567C58.227 41.8859 56.4054 40.2429 54.1548 40.2429H48.8352L43.1262 34.8799H28.8768C26.514 34.8799 24.6 36.6779 24.6 38.8975V62.1661L30.7512 52.2585C32.2758 49.7971 35.1072 48.2719 38.1366 48.2719H38.1432Z" fill="#7893B0"/>
<path d="M75.024 51.347C73.2222 52.5994 71.0046 53.3558 68.5956 53.3558C65.9622 53.3558 63.5202 52.4568 61.6128 50.9502H38.1432C36.3348 50.9502 34.1304 52.1406 33.2196 53.61L26.7648 63.995C25.9332 65.3342 26.9628 67.0144 28.6128 67.0144H64.2396C66.048 67.0144 68.2524 65.824 69.1632 64.3546L75.618 53.9634C76.2054 53.021 75.8556 51.9174 75.0306 51.3408L75.024 51.347Z" fill="#7893B0"/>
<path fill-rule="evenodd" clip-rule="evenodd" d="M68.5956 34.8799C64.4838 34.8799 61.0386 37.5273 60.0684 41.1109C60.0684 41.1357 60.0552 41.1605 60.0552 41.1915C60.0552 41.4085 60.24 41.5883 60.4776 41.5883H64.0218C64.1934 41.5883 64.332 41.4953 64.4046 41.3589C65.1306 39.8647 66.7344 38.8293 68.5956 38.8293C71.1432 38.8293 73.209 40.7699 73.209 43.1693C73.209 45.5687 71.1432 47.5093 68.5956 47.5093C66.7344 47.5093 65.1372 46.4739 64.4046 44.9797C64.3386 44.8433 64.1934 44.7503 64.0218 44.7503H60.4776C60.2466 44.7503 60.0552 44.9239 60.0552 45.1471C60.0552 45.1719 60.0552 45.2029 60.0684 45.2277C61.0386 48.8113 64.4838 51.4587 68.5956 51.4587C73.4532 51.4587 77.4 47.7511 77.4 43.1755C77.4 38.5999 73.4598 34.8799 68.5956 34.8799Z" fill="#7893B0"/>
<path fill-rule="evenodd" clip-rule="evenodd" d="M66.5034 43.163C66.5034 42.0718 67.4406 41.1914 68.6022 41.1914C69.7638 41.1914 70.6944 42.0718 70.6944 43.163C70.6944 44.2542 69.7572 45.1346 68.6022 45.1346C67.4472 45.1346 66.5034 44.248 66.5034 43.163Z" fill="#7893B0"/>
</svg>
