<svg width="100" height="100" viewBox="0 0 100 100" fill="none" xmlns="http://www.w3.org/2000/svg">
<path d="M87.37 49.1498H75.46V41.1498C75.46 40.2898 74.76 39.5898 73.9 39.5898H66.09C66.06 38.1598 64.9 36.9998 63.46 36.9998H51.51V30.1098C51.51 29.2498 50.81 28.5498 49.95 28.5498C49.09 28.5498 48.39 29.2498 48.39 30.1098V36.9998H36.52C35.08 36.9998 33.92 38.1598 33.89 39.5898H26.08C25.22 39.5898 24.52 40.2898 24.52 41.1498V49.1498H12.63C11.17 49.1498 10 50.3298 10 51.7798V54.7998C10 56.2598 11.18 57.4298 12.63 57.4298H24.54V67.9298C24.54 68.7898 25.24 69.4898 26.1 69.4898H42.21L48.45 75.7298V81.3998C45.4 82.1098 43.13 84.8298 43.13 88.0898C43.13 91.8898 46.21 94.9598 50 94.9598C53.79 94.9598 56.87 91.8798 56.87 88.0898C56.87 84.8298 54.6 82.0998 51.55 81.3998V75.7298L57.79 69.4898H73.9C74.76 69.4898 75.46 68.7898 75.46 67.9298V57.4298H87.37C88.83 57.4298 90 56.2498 90 54.7998V51.7798C90 50.3198 88.82 49.1498 87.37 49.1498ZM27.66 57.4398H39.57C41.03 57.4398 42.2 56.2598 42.2 54.8098V51.7898C42.2 50.3298 41.02 49.1598 39.57 49.1598H27.66V42.7198H33.91C33.93 44.1498 35.1 45.3098 36.54 45.3098H48.45V60.1598L42.21 66.3998H27.66V57.4498V57.4398ZM72.35 66.3898H57.8L51.56 60.1498V45.2998H63.47C64.91 45.2998 66.08 44.1398 66.1 42.7098H72.35V49.1498H60.44C58.98 49.1498 57.81 50.3298 57.81 51.7798V54.7998C57.81 56.2598 58.99 57.4298 60.44 57.4298H72.35V66.3798V66.3898Z" fill="#7893B0"/>
<path fill-rule="evenodd" clip-rule="evenodd" d="M49.8001 4C43.4901 4 38.2001 8.33 36.7001 14.19C36.6901 14.23 36.6801 14.28 36.6801 14.32C36.6801 14.68 36.9701 14.96 37.3201 14.96H42.7701C43.0301 14.96 43.2501 14.8 43.3501 14.58C44.4701 12.14 46.9301 10.44 49.7901 10.44C53.7001 10.44 56.8701 13.62 56.8701 17.53C56.8701 21.44 53.7001 24.62 49.7901 24.62C46.9301 24.62 44.4701 22.92 43.3501 20.48C43.2501 20.26 43.0301 20.1 42.7701 20.1H37.3201C36.9601 20.1 36.6801 20.39 36.6801 20.74C36.6801 20.78 36.6801 20.83 36.7001 20.87C38.1901 26.73 43.4901 31.06 49.8001 31.06C57.2601 31.06 63.3201 25 63.3201 17.52C63.3201 10.04 57.2601 4 49.8001 4Z" fill="#7893B0"/>
<path fill-rule="evenodd" clip-rule="evenodd" d="M46.58 17.5403C46.58 15.7603 48.02 14.3203 49.8 14.3203C51.58 14.3203 53.02 15.7603 53.02 17.5403C53.02 19.3203 51.58 20.7703 49.8 20.7703C48.02 20.7703 46.58 19.3303 46.58 17.5403Z" fill="#7893B0"/>
</svg>
