<svg width="102" height="102" viewBox="0 0 102 102" fill="none" xmlns="http://www.w3.org/2000/svg">
<path d="M51 101C78.6142 101 101 78.6142 101 51C101 23.3858 78.6142 1 51 1C23.3858 1 1 23.3858 1 51C1 78.6142 23.3858 101 51 101Z" stroke="#7893B0" stroke-width="1.5" stroke-linecap="round" stroke-linejoin="round"/>
<path d="M76.5378 50.4555H68.5581V45.3355C68.5581 44.7851 68.0891 44.3371 67.5129 44.3371H62.2802C62.2601 43.4219 61.4829 42.6795 60.5181 42.6795H52.5116V38.2699C52.5116 37.7195 52.0426 37.2715 51.4664 37.2715C50.8902 37.2715 50.4212 37.7195 50.4212 38.2699V42.6795H42.4684C41.5036 42.6795 40.7263 43.4219 40.7062 44.3371H35.4736C34.8974 44.3371 34.4284 44.7851 34.4284 45.3355V50.4555H26.4621C25.4839 50.4555 24.7 51.2107 24.7 52.1387V54.0715C24.7 55.0059 25.4906 55.7547 26.4621 55.7547H34.4418V62.4747C34.4418 63.0251 34.9108 63.4731 35.487 63.4731H46.2806L50.4615 67.4667V71.0955C48.418 71.5499 46.8971 73.2907 46.8971 75.3771C46.8971 77.8091 48.9606 79.7739 51.4999 79.7739C54.0392 79.7739 56.1028 77.8027 56.1028 75.3771C56.1028 73.2907 54.5819 71.5435 52.5384 71.0955V67.4667L56.7192 63.4731H67.5129C68.0891 63.4731 68.5581 63.0251 68.5581 62.4747V55.7547H76.5378C77.516 55.7547 78.2999 54.9995 78.2999 54.0715V52.1387C78.2999 51.2043 77.5093 50.4555 76.5378 50.4555ZM36.5322 55.7611H44.5118C45.49 55.7611 46.274 55.0059 46.274 54.0779V52.1451C46.274 51.2107 45.4833 50.4619 44.5118 50.4619H36.5322V46.3403H40.7197C40.7331 47.2555 41.517 47.9979 42.4818 47.9979H50.4615V57.5019L46.2806 61.4955H36.5322V55.7675V55.7611ZM66.4744 61.4891H56.7259L52.5452 57.4955V47.9915H60.5248C61.4896 47.9915 62.2735 47.2491 62.2869 46.3339H66.4744V50.4555H58.4947C57.5165 50.4555 56.7327 51.2107 56.7327 52.1387V54.0715C56.7327 55.0059 57.5232 55.7547 58.4947 55.7547H66.4744V61.4827V61.4891Z" fill="#7893B0"/>
<path fill-rule="evenodd" clip-rule="evenodd" d="M51.366 21.5596C47.1383 21.5596 43.594 24.3308 42.589 28.0812C42.5823 28.1068 42.5756 28.1388 42.5756 28.1644C42.5756 28.3948 42.7699 28.574 43.0044 28.574H46.6559C46.8301 28.574 46.9775 28.4716 47.0445 28.3308C47.7949 26.7692 49.4431 25.6812 51.3593 25.6812C53.979 25.6812 56.1029 27.7164 56.1029 30.2188C56.1029 32.7212 53.979 34.7564 51.3593 34.7564C49.4431 34.7564 47.7949 33.6684 47.0445 32.1068C46.9775 31.966 46.8301 31.8636 46.6559 31.8636H43.0044C42.7632 31.8636 42.5756 32.0492 42.5756 32.2732C42.5756 32.2988 42.5756 32.3308 42.589 32.3564C43.5873 36.1068 47.1383 38.878 51.366 38.878C56.3642 38.878 60.4244 34.9996 60.4244 30.2124C60.4244 25.4252 56.3642 21.5596 51.366 21.5596Z" fill="#7893B0"/>
<path fill-rule="evenodd" clip-rule="evenodd" d="M49.2085 30.2258C49.2085 29.0866 50.1733 28.165 51.3659 28.165C52.5585 28.165 53.5233 29.0866 53.5233 30.2258C53.5233 31.365 52.5585 32.293 51.3659 32.293C50.1733 32.293 49.2085 31.3714 49.2085 30.2258Z" fill="#7893B0"/>
</svg>
