<svg width="100" height="100" viewBox="0 0 100 100" fill="none" xmlns="http://www.w3.org/2000/svg">
<g clip-path="url(#clip0_4848_12832)">
<path d="M39.7516 49.5389C39.7516 44.2168 44.0716 39.9053 49.3853 39.9053C54.6989 39.9053 59.0189 44.2253 59.0189 49.5389C59.0189 54.8526 54.6989 59.1726 49.3853 59.1726C44.0632 59.2484 39.7516 54.8526 39.7516 49.5389ZM49.3853 9C30.4211 9 14.5474 21.9516 10.0758 39.5179C10.0758 39.6695 10 39.7453 10 39.9053C10 40.9832 10.8505 41.8337 11.9284 41.8337H28.2653C29.04 41.8337 29.7305 41.3705 30.0421 40.68C33.4358 33.3621 40.7537 28.2674 49.3853 28.2674C61.0989 28.2674 70.6568 37.8253 70.6568 49.5389C70.6568 61.2526 61.0989 70.8105 49.3853 70.8105C40.8295 70.8105 33.4274 65.7242 30.0421 58.3979C29.7305 57.7074 29.04 57.2442 28.2653 57.2442H11.9284C10.8505 57.2442 10 58.0947 10 59.1726C10 59.3242 10 59.4 10.0758 59.56C14.5474 77.1347 30.4211 90.0779 49.3853 90.0779C71.8105 90.0779 90 71.8884 90 49.4632C90 27.0379 71.8105 9 49.3853 9Z" fill="#7993B0"/>
</g>
<defs>
<clipPath id="clip0_4848_12832">
<rect width="100" height="100" fill="white"/>
</clipPath>
</defs>
</svg>
