<svg width="80" height="30" viewBox="0 0 80 30" fill="none" xmlns="http://www.w3.org/2000/svg">
<path d="M6.03952 9.14587C5.887 9.14587 5.84687 9.06559 5.91911 8.95321L6.73789 7.90164C6.81816 7.78123 7.01081 7.70898 7.16333 7.70898H21.0666C21.2191 7.70898 21.2593 7.82939 21.187 7.94178L20.5288 8.95321C20.4485 9.07362 20.2559 9.186 20.1355 9.186L6.03148 9.14587H6.03952Z" fill="#00ACD7"/>
<path d="M0.155257 12.7345C0.00273837 12.7345 -0.0374177 12.6542 0.034828 12.5418L0.853628 11.4903C0.933901 11.3699 1.12656 11.2976 1.27907 11.2976H19.0435C19.196 11.2976 19.2763 11.418 19.2361 11.5304L18.9231 12.4616C18.8829 12.6141 18.7304 12.6944 18.5699 12.6944L0.147222 12.7345H0.155257Z" fill="#00ACD7"/>
<path d="M9.58739 16.3143C9.43487 16.3143 9.39471 16.1939 9.46696 16.0815L10.0128 15.1102C10.0931 14.9898 10.2456 14.8774 10.4062 14.8774H18.1927C18.3452 14.8774 18.4254 14.9978 18.4254 15.1504L18.3451 16.0815C18.3451 16.2341 18.1926 16.3545 18.0722 16.3545L9.57935 16.3143H9.58739Z" fill="#00ACD7"/>
<path d="M50.0127 8.44775C47.5564 9.07387 45.8867 9.53946 43.4705 10.1576C42.8845 10.3101 42.8444 10.3502 42.3386 9.76422C41.7526 9.10598 41.3272 8.67251 40.5084 8.2872C38.0521 7.08311 35.676 7.42828 33.4605 8.87319C30.8114 10.583 29.4468 13.1196 29.4869 16.2744C29.5271 19.389 31.6704 21.9577 34.7448 22.3912C37.3938 22.7444 39.6174 21.8052 41.3673 19.8224C41.7205 19.397 42.0256 18.9234 42.4189 18.3775H34.9054C34.0866 18.3775 33.8939 17.8718 34.1669 17.2055C34.6726 16.0014 35.6118 13.9705 36.1496 12.9591C36.27 12.7263 36.5429 12.333 37.1209 12.333H51.2971C51.2168 13.3845 51.2168 14.4361 51.0643 15.4877C50.6389 18.2892 49.5873 20.866 47.8694 23.1216C45.0679 26.8222 41.4075 29.118 36.7677 29.7442C32.9467 30.2499 29.4067 29.5114 26.2921 27.1754C23.4103 24.992 21.7727 22.1102 21.3473 18.53C20.8415 14.2836 22.0858 10.4706 24.6545 7.11521C27.4239 3.4949 31.0844 1.19107 35.5636 0.380309C39.224 -0.277929 42.732 0.147519 45.8867 2.29081C47.9497 3.65545 49.4348 5.52581 50.4061 7.78148C50.6389 8.13468 50.4863 8.32733 50.0127 8.43972V8.44775Z" fill="#00ACD7"/>
<path d="M62.9044 29.9851C59.3563 29.9048 56.1293 28.8934 53.4 26.5574C51.1042 24.5747 49.6593 22.0381 49.1937 19.0439C48.4954 14.6449 49.6995 10.7437 52.3485 7.28389C55.1901 3.54317 58.6178 1.60057 63.2576 0.781781C67.2311 0.0834056 70.9718 0.468717 74.3593 2.76452C77.4338 4.86768 79.3443 7.70934 79.85 11.4501C80.5082 16.7079 78.9911 20.9945 75.3707 24.655C72.802 27.2638 69.6473 28.9014 66.0189 29.6399C64.9674 29.8326 63.9158 29.8727 62.9044 29.9931V29.9851ZM72.1759 14.2516C72.1358 13.7459 72.1357 13.3525 72.0555 12.9672C71.3571 9.11411 67.809 6.93069 64.1084 7.78961C60.4881 8.6084 58.1522 10.9042 57.2933 14.5647C56.5949 17.599 58.0719 20.6815 60.8734 21.9257C63.0167 22.8569 65.16 22.7445 67.223 21.6929C70.2975 20.0955 71.9752 17.607 72.1679 14.2516H72.1759Z" fill="#00ACD7"/>
</svg>
