<svg width="66" height="39" viewBox="0 0 66 39" fill="none" xmlns="http://www.w3.org/2000/svg">
<path d="M54.3304 0.709676L54.2613 0.689941C41.3082 0.689941 42.3053 7.17636 42.3053 7.17636V31.7991C42.3053 31.7991 42.2955 38.1769 48.2488 38.1769H48.2883C54.1231 38.1769 54.1132 31.7991 54.1132 31.7991V20.6428H61.0142C65.9506 20.6428 65.9506 17.4835 65.9506 17.4835V6.08047C65.9506 6.08047 66.7207 0.719559 54.3205 0.719559L54.3304 0.709676ZM62.9197 6.60373C62.8901 7.77859 61.9226 8.69676 60.7477 8.67702C59.5728 8.6474 58.6547 7.67988 58.6744 6.50502C58.6942 5.33016 59.6716 4.41199 60.8464 4.43173L60.7872 4.45147C61.9621 4.45147 62.9098 5.39925 62.9098 6.57411V6.61361L62.9197 6.60373Z" fill="url(#paint0_linear_6801_22793)"/>
<path d="M33.4888 38.1672H33.4493C27.5059 38.1672 27.5059 29.8444 27.5059 29.8444V9.46702C27.5059 9.46702 27.4861 1.27261 33.4493 1.28248H33.4888C39.3137 1.28248 39.3137 9.46702 39.3137 9.46702V29.8444C39.3137 29.8444 39.3137 38.1672 33.4888 38.1672ZM35.6904 32.826C35.6608 31.6512 34.6834 30.733 33.5184 30.7626C32.3435 30.7922 31.4254 31.7696 31.455 32.9346C31.4846 34.1095 32.462 35.0276 33.627 34.998L33.5678 34.9783C34.7426 34.9783 35.6904 34.0305 35.6904 32.8556V32.8161V32.826Z" fill="url(#paint1_linear_6801_22793)"/>
<path d="M13.0027 0.709793L12.9337 0.680176C-0.019424 0.680176 0.977711 7.1666 0.977711 7.1666V31.7893C0.977711 31.7893 0.957985 38.177 6.92114 38.177H6.96061C12.7954 38.177 12.7855 31.7992 12.7855 31.7992V20.6331H19.6866C24.6329 20.6331 24.6131 17.4738 24.6131 17.4738V6.07074C24.6131 6.07074 25.3931 0.709793 12.9929 0.709793H13.0027ZM21.5921 6.60384C21.5625 7.77871 20.585 8.6969 19.4201 8.66728C18.2551 8.63766 17.327 7.66025 17.3566 6.49526C17.3863 5.3204 18.3637 4.40223 19.5287 4.43185C19.5287 4.43185 19.5287 4.43185 19.5386 4.43185L19.4793 4.45159C20.6542 4.45159 21.602 5.39937 21.602 6.57423V6.61373L21.5921 6.60384Z" fill="url(#paint2_linear_6801_22793)"/>
<defs>
<linearGradient id="paint0_linear_6801_22793" x1="42.2955" y1="19.4285" x2="65.9704" y2="19.4285" gradientUnits="userSpaceOnUse">
<stop stop-color="#387EB8"/>
<stop offset="1" stop-color="#366994"/>
</linearGradient>
<linearGradient id="paint1_linear_6801_22793" x1="27.5059" y1="19.7248" x2="39.3137" y2="19.7248" gradientUnits="userSpaceOnUse">
<stop stop-color="#FFE052"/>
<stop offset="1" stop-color="#FFC331"/>
</linearGradient>
<linearGradient id="paint2_linear_6801_22793" x1="0.967839" y1="19.4286" x2="24.6329" y2="19.4286" gradientUnits="userSpaceOnUse">
<stop stop-color="#387EB8"/>
<stop offset="1" stop-color="#366994"/>
</linearGradient>
</defs>
</svg>
