<svg width="200" height="44" viewBox="0 0 200 44" fill="none" xmlns="http://www.w3.org/2000/svg">
<g clip-path="url(#clip0_10861_26509)">
<path fill-rule="evenodd" clip-rule="evenodd" d="M125.205 38.6384L129.892 32.5715H110.546C109.901 32.5715 109.249 32.526 108.612 32.435C107.998 32.344 107.391 32.1999 106.8 32.0179C106.239 31.8359 105.685 31.6084 105.162 31.3354C104.661 31.0775 104.183 30.7666 103.736 30.4178C103.304 30.0765 102.909 29.6897 102.553 29.2575C102.212 28.8328 101.908 28.3626 101.673 27.8697C101.431 27.3692 101.241 26.8383 101.12 26.2923C100.998 25.7311 100.938 25.1623 100.938 24.586C100.938 24.002 100.998 23.4257 101.127 22.8569C101.256 22.3033 101.446 21.7649 101.704 21.2644C102.196 20.2709 102.894 19.3912 103.751 18.6859C104.191 18.3219 104.661 18.0034 105.162 17.738C105.685 17.4574 106.231 17.2223 106.792 17.0403C107.384 16.8431 107.99 16.699 108.612 16.6005C109.257 16.5019 109.901 16.4488 110.546 16.4564H124.667V13.385H130.802V10.3137H133.873V13.385H130.802V16.4564H134.048L143.125 29.8414L143.792 30.8273L144.475 29.8566L158.315 10.2985H192.737L187.997 16.4336H162.896L162.645 16.7749L152.294 31.434L148.987 36.113C148.692 36.515 148.365 36.8941 148.001 37.2354C147.607 37.607 147.19 37.9483 146.758 38.2592C146.341 38.5474 145.886 38.7673 145.393 38.9038C144.824 39.0631 144.24 39.1389 143.648 39.1313C143.072 39.1313 142.503 39.0631 141.942 38.919C141.464 38.79 141.009 38.5853 140.607 38.3047C140.183 38.0165 139.781 37.6904 139.417 37.3188C139.045 36.9472 138.711 36.5453 138.416 36.1206L125.031 16.7976L124.78 16.4564H127.753V10.2833H110.554C109.333 10.2833 108.119 10.3667 106.913 10.5412C105.784 10.7004 104.669 10.9583 103.584 11.2995C102.568 11.618 101.575 12.0276 100.634 12.5205C99.7546 12.9831 98.9128 13.5367 98.1393 14.1661C97.3961 14.7652 96.7211 15.4402 96.122 16.1834C95.5305 16.919 95.0148 17.7228 94.5902 18.5722C94.1655 19.4216 93.8394 20.3164 93.6346 21.2416C93.4147 22.2047 93.3085 23.1982 93.3161 24.1916C93.3161 25.1851 93.4223 26.1709 93.6346 27.1341C93.847 28.082 94.1731 28.992 94.5977 29.8642C95.0224 30.7363 95.5381 31.5629 96.1296 32.3288C96.7287 33.1024 97.4037 33.8076 98.1469 34.4371C98.9204 35.0968 99.7622 35.6732 100.649 36.1661C101.597 36.6894 102.583 37.1368 103.599 37.4933C104.676 37.8724 105.791 38.153 106.921 38.3274C108.119 38.517 109.333 38.6156 110.546 38.608H125.213V38.6308L125.205 38.6384ZM136.982 10.2985V13.3698H140.054V10.2985H136.982ZM177.441 21.6815H164.139V38.6384H188.134L192.82 32.5715H171.814V26.8459H187.019L191.061 21.6739H177.441V21.6815Z" fill="url(#paint0_linear_10861_26509)"/>
<path d="M196.87 10.4198C197.249 10.4198 197.621 10.5184 197.985 10.7156C198.349 10.9127 198.629 11.1857 198.827 11.5498C199.031 11.9138 199.13 12.2929 199.13 12.6873C199.13 13.0816 199.031 13.4532 198.834 13.8097C198.637 14.1661 198.356 14.4467 198 14.6439C197.644 14.841 197.264 14.9396 196.878 14.9396C196.491 14.9396 196.112 14.841 195.755 14.6439C195.399 14.4467 195.118 14.1661 194.921 13.8097C194.724 13.4532 194.618 13.0741 194.618 12.6873C194.618 12.3005 194.716 11.9138 194.921 11.5498C195.126 11.1857 195.406 10.9051 195.77 10.7156C196.134 10.5184 196.506 10.4198 196.885 10.4198H196.87ZM196.87 10.799C196.551 10.799 196.241 10.8824 195.945 11.0417C195.641 11.2009 195.406 11.436 195.24 11.7393C195.073 12.0427 194.982 12.3612 194.982 12.6873C194.982 13.0134 195.065 13.3243 195.232 13.6201C195.399 13.9158 195.634 14.1509 195.93 14.3178C196.233 14.4846 196.544 14.568 196.87 14.568C197.196 14.568 197.507 14.4846 197.81 14.3178C198.114 14.1509 198.341 13.9158 198.508 13.6201C198.675 13.3243 198.758 13.0058 198.758 12.6873C198.758 12.3688 198.675 12.0427 198.508 11.7393C198.341 11.436 198.106 11.2009 197.803 11.0417C197.499 10.8748 197.188 10.799 196.878 10.799H196.87ZM195.884 13.931V11.4967H196.718C197.006 11.4967 197.211 11.5194 197.34 11.5649C197.469 11.6104 197.568 11.6863 197.644 11.8C197.719 11.9138 197.757 12.0275 197.757 12.1564C197.757 12.3309 197.697 12.4901 197.568 12.619C197.439 12.748 197.272 12.8238 197.06 12.839C197.143 12.8769 197.211 12.9148 197.264 12.9679C197.363 13.0665 197.484 13.2257 197.621 13.4532L197.917 13.931H197.439L197.226 13.5442C197.06 13.2409 196.923 13.0513 196.817 12.9755C196.749 12.9224 196.642 12.8921 196.498 12.8921H196.271V13.9234H195.877L195.884 13.931ZM196.271 12.566H196.749C196.976 12.566 197.135 12.5356 197.211 12.4674C197.287 12.3991 197.333 12.3081 197.333 12.1944C197.333 12.1261 197.31 12.0579 197.272 12.0048C197.234 11.9441 197.173 11.9062 197.105 11.8758C197.037 11.8455 196.9 11.8303 196.711 11.8303H196.263V12.566H196.271Z" fill="#FF940E"/>
<path d="M26.9976 5.1947C17.9883 5.1947 10.6322 12.2854 10.2075 21.1885H16.7749L10.9507 27.0127C13.0817 33.8455 19.4595 38.8052 26.9976 38.8052C36.2799 38.8052 43.8028 31.2823 43.8028 21.9999C43.8028 12.7176 36.2799 5.1947 26.9976 5.1947ZM32.655 29.8338L27.9 25.0789C27.6119 25.1623 27.3085 25.2078 26.9976 25.2078C25.2306 25.2078 23.7897 23.7745 23.7897 21.9999C23.7897 20.7866 24.4647 19.7324 25.4581 19.1864V8.28122H28.5295V19.1864C29.5229 19.7324 30.1979 20.7866 30.1979 21.9999C30.1979 22.3109 30.1524 22.6142 30.0689 22.9024L34.8239 27.6573L32.655 29.8262V29.8338Z" fill="#7894B0"/>
<path d="M44.182 4.8156C44.4702 5.10378 44.7508 5.39954 45.0238 5.6953C45.6911 3.92832 46.495 2.3661 47.4202 1.08447C45.6684 1.60016 44.0152 2.34335 42.4833 3.26096C43.0748 3.74631 43.6436 4.26958 44.1896 4.8156H44.182Z" fill="#7894B0"/>
<path d="M49.7256 13.3699H61.2299C59.9786 5.61944 57.0134 0.182007 53.5553 0.182007C50.9238 0.182007 48.5805 3.33678 47.0486 8.26612C48.1482 9.85867 49.0431 11.5726 49.7256 13.3699Z" fill="#7894B0"/>
<path d="M61.5939 27.2479C61.7759 25.4657 61.8821 23.6229 61.8821 21.6967C61.8821 19.7705 61.7759 17.9201 61.5939 16.1455H50.5977C51.0603 18.0414 51.303 19.998 51.303 22C51.303 23.7898 51.1134 25.5492 50.7342 27.2555H61.5939V27.2479Z" fill="#7894B0"/>
<path d="M73.4016 13.3699C70.9217 7.47744 65.8938 2.9197 59.6904 1.08447C61.8063 4.01932 63.2623 8.43297 64.0282 13.3699H73.4016Z" fill="#7894B0"/>
<path d="M59.6981 42.3164C65.8939 40.4736 70.9294 35.9235 73.4092 30.031H64.0359C63.2699 34.9679 61.8139 39.3816 59.6981 42.3164Z" fill="#7894B0"/>
<path d="M74.3267 16.1455H64.3771C64.5591 17.9656 64.6652 19.8311 64.6652 21.6967C64.6652 23.5623 64.5591 25.4278 64.3771 27.2479H74.3192C74.7969 25.4657 75.0624 23.6229 75.0624 21.6967C75.0624 19.7705 74.7969 17.9201 74.3267 16.1455Z" fill="#7894B0"/>
<path d="M44.182 39.1844C43.7649 39.6015 43.3402 39.9958 42.9004 40.3826C44.3185 41.1941 45.8277 41.8462 47.4278 42.3164C46.5784 41.1334 45.8352 39.7153 45.1982 38.1151C44.8721 38.4791 44.5384 38.8431 44.1896 39.192L44.182 39.1844Z" fill="#7894B0"/>
<path d="M49.9455 30.031C49.2706 31.9724 48.3378 33.8228 47.1851 35.5443C48.7094 40.2385 50.9997 43.2189 53.5553 43.2189C57.0059 43.2189 59.9786 37.7814 61.2375 30.031H49.9455Z" fill="#7894B0"/>
<path d="M42.5515 6.44605C38.3957 2.29024 32.8673 0 26.9976 0C21.1279 0 15.5994 2.29024 11.4436 6.44605C7.28783 10.6019 4.99759 16.1227 4.99759 22V22.728H0L6.52947 29.2575L13.0589 22.728H8.06136V22C8.06136 11.565 16.555 3.07135 26.99 3.07135C37.425 3.07135 45.9186 11.565 45.9186 22C45.9186 32.435 37.425 40.9286 26.99 40.9286C21.9317 40.9286 17.1844 38.9569 13.605 35.385L11.4361 37.5539C15.5919 41.7098 21.1127 44 26.99 44C32.8673 44 38.3881 41.7098 42.5439 37.5539C46.6998 33.3981 48.99 27.8773 48.99 22C48.99 16.1227 46.6998 10.6019 42.5439 6.44605H42.5515Z" fill="#7894B0"/>
</g>
<defs>
<linearGradient id="paint0_linear_10861_26509" x1="143.072" y1="39.1313" x2="143.072" y2="10.2985" gradientUnits="userSpaceOnUse">
<stop stop-color="#F68826"/>
<stop offset="0.45" stop-color="#FAA227"/>
<stop offset="1" stop-color="#FDB714"/>
</linearGradient>
<clipPath id="clip0_10861_26509">
<rect width="199.138" height="44" fill="white"/>
</clipPath>
</defs>
</svg>
