<svg width="180" height="44" viewBox="0 0 180 44" fill="none" xmlns="http://www.w3.org/2000/svg">
<g clip-path="url(#clip0_10861_26491)">
<path fill-rule="evenodd" clip-rule="evenodd" d="M113.27 36.618L117.467 31.1851H100.143C99.5654 31.1851 98.9813 31.1443 98.4109 31.0628C97.8608 30.9813 97.3175 30.8523 96.7878 30.6893C96.2852 30.5263 95.7895 30.3226 95.3209 30.0781C94.8727 29.8472 94.4448 29.5688 94.0441 29.2564C93.657 28.9508 93.3039 28.6044 92.9847 28.2173C92.6791 27.837 92.4075 27.416 92.1969 26.9746C91.9796 26.5263 91.8099 26.051 91.7012 25.562C91.5925 25.0594 91.5382 24.5501 91.5382 24.034C91.5382 23.5111 91.5925 22.9949 91.708 22.4856C91.8234 21.9898 91.9932 21.5077 92.2241 21.0594C92.6655 20.1698 93.2903 19.382 94.0577 18.7504C94.4516 18.4245 94.8727 18.1392 95.3209 17.9016C95.7895 17.6503 96.2784 17.4398 96.781 17.2768C97.3107 17.1002 97.854 16.9712 98.4109 16.8829C98.9881 16.7946 99.5654 16.7471 100.143 16.7538H112.788V14.0034H118.282V11.253H121.032V14.0034H118.282V16.7538H121.188L129.317 28.7403L129.915 29.6231L130.526 28.7538L142.92 11.2394H173.745L169.501 16.7335H147.022L146.798 17.0391L137.528 30.1664L134.567 34.3566C134.302 34.7165 134.01 35.0561 133.684 35.3617C133.331 35.6944 132.958 36 132.57 36.2785C132.197 36.5365 131.789 36.7335 131.348 36.8557C130.839 36.9983 130.316 37.0662 129.786 37.0594C129.27 37.0594 128.761 36.9983 128.258 36.8693C127.83 36.7538 127.423 36.5705 127.063 36.3192C126.683 36.0611 126.323 35.7691 125.997 35.4364C125.664 35.1036 125.365 34.7437 125.1 34.3634L113.114 17.0594L112.89 16.7538H115.552V11.2258H100.149C99.056 11.2258 97.9694 11.3005 96.8896 11.4567C95.8778 11.5993 94.8795 11.8302 93.9083 12.1358C92.9983 12.4211 92.1087 12.7878 91.2666 13.2292C90.4788 13.6435 89.725 14.1392 89.0323 14.7029C88.3667 15.2394 87.7623 15.8438 87.2258 16.5094C86.6961 17.1681 86.2343 17.888 85.854 18.6486C85.4737 19.4092 85.1817 20.2105 84.9983 21.0391C84.8014 21.9016 84.7063 22.7912 84.7131 23.6808C84.7131 24.5705 84.8082 25.4533 84.9983 26.3158C85.1885 27.1647 85.4805 27.9796 85.8608 28.7606C86.2411 29.5416 86.7029 30.2819 87.2326 30.9678C87.7691 31.6605 88.3735 32.292 89.0391 32.8557C89.7318 33.4465 90.4856 33.9627 91.2801 34.4041C92.129 34.8727 93.0119 35.2734 93.9219 35.5926C94.8863 35.9321 95.8846 36.1834 96.8964 36.3396C97.9694 36.5094 99.056 36.5976 100.143 36.5909H113.277V36.6112L113.27 36.618ZM123.817 11.2326V13.983H126.567V11.2326H123.817ZM160.048 21.4262H148.136V36.6112H169.623L173.82 31.1783H155.008V26.051H168.625L172.244 21.4194H160.048V21.4262Z" fill="url(#paint0_linear_10861_26491)"/>
<path d="M177.453 11.3413C177.793 11.3413 178.126 11.4296 178.452 11.6062C178.778 11.7827 179.029 12.0272 179.205 12.3532C179.389 12.6792 179.477 13.0187 179.477 13.3719C179.477 13.725 179.389 14.0578 179.212 14.377C179.036 14.6961 178.784 14.9474 178.465 15.124C178.146 15.3006 177.806 15.3888 177.46 15.3888C177.114 15.3888 176.774 15.3006 176.455 15.124C176.136 14.9474 175.885 14.6961 175.708 14.377C175.531 14.0578 175.436 13.7182 175.436 13.3719C175.436 13.0255 175.525 12.6792 175.708 12.3532C175.891 12.0272 176.143 11.7759 176.469 11.6062C176.795 11.4296 177.127 11.3413 177.467 11.3413H177.453ZM177.453 11.6809C177.168 11.6809 176.89 11.7556 176.625 11.8982C176.353 12.0408 176.143 12.2513 175.993 12.523C175.844 12.7946 175.762 13.0798 175.762 13.3719C175.762 13.6639 175.837 13.9423 175.986 14.2072C176.136 14.472 176.346 14.6826 176.611 14.832C176.883 14.9814 177.161 15.0561 177.453 15.0561C177.745 15.0561 178.024 14.9814 178.295 14.832C178.567 14.6826 178.771 14.472 178.92 14.2072C179.07 13.9423 179.144 13.6571 179.144 13.3719C179.144 13.0866 179.07 12.7946 178.92 12.523C178.771 12.2513 178.56 12.0408 178.289 11.8982C178.017 11.7488 177.739 11.6809 177.46 11.6809H177.453ZM176.564 14.4924V12.3124H177.311C177.569 12.3124 177.752 12.3328 177.868 12.3736C177.983 12.4143 178.071 12.4822 178.139 12.5841C178.207 12.686 178.241 12.7878 178.241 12.9033C178.241 13.0595 178.187 13.2021 178.071 13.3175C177.956 13.433 177.806 13.5009 177.616 13.5145C177.691 13.5484 177.752 13.5824 177.8 13.6299C177.888 13.7182 177.997 13.8608 178.119 14.0646L178.384 14.4924H177.956L177.766 14.1461C177.616 13.8744 177.494 13.7046 177.399 13.6367C177.338 13.5892 177.243 13.562 177.114 13.562H176.91V14.4856H176.557L176.564 14.4924ZM176.917 13.2632H177.345C177.548 13.2632 177.691 13.236 177.759 13.1749C177.827 13.1138 177.868 13.0323 177.868 12.9304C177.868 12.8693 177.847 12.8082 177.813 12.7607C177.779 12.7063 177.725 12.6724 177.664 12.6452C177.603 12.618 177.48 12.6045 177.311 12.6045H176.91V13.2632H176.917Z" fill="#FF940E"/>
<path d="M35.1647 12.0747H35.2801C35.2394 12.0339 35.2054 11.9932 35.1647 11.9592V12.0747Z" fill="#021C35"/>
<path d="M35.1647 23.7962C35.2054 23.7555 35.2462 23.7215 35.2801 23.6808H35.1647V23.7962Z" fill="#021C35"/>
<path d="M23.5586 11.9592C23.5178 12 23.4839 12.0339 23.4431 12.0747H23.5586V11.9592Z" fill="#021C35"/>
<path d="M38.5671 37.2292C38.5263 37.1952 38.4924 37.1545 38.4584 37.1137C35.6469 38.4448 32.5637 39.1375 29.365 39.1375C18.7029 39.1375 9.8472 31.2462 8.32598 20.9983C3.54499 22.2003 0 26.5127 0 31.6672C0 37.7453 4.93039 42.6757 11.0085 42.6757H44.0204L38.5603 37.2224L38.5671 37.2292Z" fill="#021C35"/>
<path d="M23.5586 23.7962V23.6808H23.4431C23.4839 23.7215 23.5178 23.7623 23.5586 23.7962Z" fill="#021C35"/>
<path d="M61.0798 20.6655C61.0798 20.6655 61.0458 20.6655 61.0323 20.6655C60.5025 15.0764 55.8031 10.7029 50.0713 10.7029C49.8472 10.7029 49.6231 10.7165 49.399 10.73C50.2003 12.9643 50.635 15.3684 50.635 17.8744C50.635 21.073 49.9423 24.1494 48.6112 26.9677C48.652 27.0017 57.2903 35.6469 57.2903 35.6469C59.1919 37.5688 59.3752 40.5637 57.8608 42.6893H61.0866C67.1647 42.6893 72.0951 37.7589 72.0951 31.6808C72.0951 25.6027 67.1647 20.6723 61.0866 20.6723L61.0798 20.6655Z" fill="#021C35"/>
<path d="M52.455 43.3956C51.6469 44.2037 50.343 44.2037 49.5416 43.3956L40.9643 34.8251C40.5772 34.438 40.3599 33.9151 40.3599 33.365V31.966C37.3243 34.3362 33.5144 35.7487 29.3582 35.7487C19.4839 35.7487 11.4839 27.7487 11.4839 17.8744C11.4839 8 19.4907 0 29.365 0C39.2394 0 47.2394 8 47.2394 17.8744C47.2394 22.0238 45.8268 25.8404 43.4567 28.8761H44.8557C45.4058 28.8761 45.9287 29.0934 46.3158 29.4805L54.8862 38.0509C55.6876 38.8591 55.6876 40.163 54.8862 40.9711L52.455 43.4024V43.3956ZM29.365 6.18676C22.8998 6.18676 17.6774 11.4092 17.6774 17.8744C17.6774 24.3396 22.8998 29.562 29.365 29.562C35.8302 29.562 41.0526 24.3396 41.0526 17.8744C41.0526 11.4092 35.8302 6.18676 29.365 6.18676Z" fill="#021C35"/>
<path d="M35.1647 12.0747H35.2801C35.2394 12.0339 35.2054 11.9932 35.1647 11.9592V12.0747Z" fill="#7894B0"/>
<path d="M35.1647 23.7962C35.2054 23.7555 35.2462 23.7215 35.2801 23.6808H35.1647V23.7962Z" fill="#7894B0"/>
<path d="M23.5586 11.9592C23.5178 12 23.4839 12.0339 23.4431 12.0747H23.5586V11.9592Z" fill="#7894B0"/>
<path d="M38.5671 37.2292C38.5263 37.1952 38.4924 37.1545 38.4584 37.1137C35.6469 38.4448 32.5637 39.1375 29.365 39.1375C18.7029 39.1375 9.8472 31.2462 8.32598 20.9983C3.54499 22.2003 0 26.5127 0 31.6672C0 37.7453 4.93039 42.6757 11.0085 42.6757H44.0204L38.5603 37.2224L38.5671 37.2292Z" fill="#7894B0"/>
<path d="M23.5586 23.7962V23.6808H23.4431C23.4839 23.7215 23.5178 23.7623 23.5586 23.7962Z" fill="#7894B0"/>
<path d="M61.0798 20.6655C61.0798 20.6655 61.0458 20.6655 61.0323 20.6655C60.5025 15.0764 55.8031 10.7029 50.0713 10.7029C49.8472 10.7029 49.6231 10.7165 49.399 10.73C50.2003 12.9643 50.635 15.3684 50.635 17.8744C50.635 21.073 49.9423 24.1494 48.6112 26.9677C48.652 27.0017 57.2903 35.6469 57.2903 35.6469C59.1919 37.5688 59.3752 40.5637 57.8608 42.6893H61.0866C67.1647 42.6893 72.0951 37.7589 72.0951 31.6808C72.0951 25.6027 67.1647 20.6723 61.0866 20.6723L61.0798 20.6655Z" fill="#7894B0"/>
<path d="M52.455 43.3956C51.6469 44.2037 50.343 44.2037 49.5416 43.3956L40.9643 34.8251C40.5772 34.438 40.3599 33.9151 40.3599 33.365V31.966C37.3243 34.3362 33.5144 35.7487 29.3582 35.7487C19.4839 35.7487 11.4839 27.7487 11.4839 17.8744C11.4839 8 19.4907 0 29.365 0C39.2394 0 47.2394 8 47.2394 17.8744C47.2394 22.0238 45.8268 25.8404 43.4567 28.8761H44.8557C45.4058 28.8761 45.9287 29.0934 46.3158 29.4805L54.8862 38.0509C55.6876 38.8591 55.6876 40.163 54.8862 40.9711L52.455 43.4024V43.3956ZM29.365 6.18676C22.8998 6.18676 17.6774 11.4092 17.6774 17.8744C17.6774 24.3396 22.8998 29.562 29.365 29.562C35.8302 29.562 41.0526 24.3396 41.0526 17.8744C41.0526 11.4092 35.8302 6.18676 29.365 6.18676Z" fill="#7894B0"/>
</g>
<defs>
<linearGradient id="paint0_linear_10861_26491" x1="129.27" y1="37.0594" x2="129.27" y2="11.2326" gradientUnits="userSpaceOnUse">
<stop stop-color="#F68826"/>
<stop offset="0.45" stop-color="#FAA227"/>
<stop offset="1" stop-color="#FDB714"/>
</linearGradient>
<clipPath id="clip0_10861_26491">
<rect width="179.477" height="44" fill="white"/>
</clipPath>
</defs>
</svg>
