 <svg
          width="33"
          height="30"
          viewBox="0 0 33 30"
          fill="none"
          xmlns="http://www.w3.org/2000/svg"
        >
          <path
            d="M32.64 24.17C32.64 27.43 30 30.07 26.74 30.07C23.48 30.07 20.84 27.43 20.84 24.17C20.84 20.91 23.48 18.27 26.74 18.27C30 18.27 32.64 20.91 32.64 24.17ZM26.74 21.73C25.39 21.73 24.3 22.82 24.3 24.17C24.3 25.52 25.39 26.61 26.74 26.61C28.09 26.61 29.18 25.52 29.18 24.17C29.18 22.82 28.09 21.73 26.74 21.73Z"
            fill="#41576D"
          />
          <path
            d="M26.74 21.72C25.69 21.72 24.84 20.87 24.84 19.82V14.69C24.84 13.45 24.46 11 23.04 9.72999C22.4 9.15999 21.59 8.42999 20.8 7.69999V9.52999C20.8 10.58 19.95 11.43 18.9 11.43C17.85 11.43 17 10.58 17 9.52999V3.37999C17 2.88999 17.18 2.45999 17.47 2.12999C17.55 2.03999 17.63 1.95999 17.73 1.88999C18.02 1.65999 18.39 1.50999 18.78 1.48999C18.82 1.48999 18.87 1.48999 18.91 1.48999H25.48C26.53 1.48999 27.38 2.33999 27.38 3.38999C27.38 4.43999 26.53 5.28999 25.48 5.28999H23.78C24.42 5.86999 25.05 6.43999 25.57 6.89999C28.49 9.50999 28.64 13.85 28.64 14.69V19.82C28.64 20.87 27.79 21.72 26.74 21.72Z"
            fill="#41576D"
          />
          <path
            d="M0.640015 6.25001C0.640015 2.99001 3.28002 0.350006 6.54002 0.350006C9.80002 0.350006 12.44 2.99001 12.44 6.25001C12.44 9.51001 9.80002 12.15 6.54002 12.15C3.28002 12.15 0.640015 9.51001 0.640015 6.25001ZM6.54002 8.69C7.89002 8.69 8.98001 7.60001 8.98001 6.25001C8.98001 4.90001 7.89002 3.81001 6.54002 3.81001C5.19002 3.81001 4.10002 4.90001 4.10002 6.25001C4.10002 7.60001 5.19002 8.69 6.54002 8.69Z"
            fill="#41576D"
          />
          <path
            d="M14.39 28.93H7.80001C6.75001 28.93 5.90001 28.08 5.90001 27.03C5.90001 25.98 6.75001 25.13 7.80001 25.13H9.50002C8.86002 24.55 8.23001 23.98 7.71001 23.52C4.79001 20.91 4.64001 16.57 4.64001 15.73V10.6C4.64001 9.55001 5.49002 8.70001 6.54002 8.70001C7.59002 8.70001 8.44002 9.55001 8.44002 10.6V15.73C8.44002 16.97 8.82001 19.42 10.24 20.69C10.88 21.26 11.69 21.99 12.48 22.72V20.89C12.48 19.84 13.33 18.99 14.38 18.99C15.43 18.99 16.28 19.84 16.28 20.89V27.04C16.28 27.52 16.1 27.96 15.81 28.29C15.73 28.38 15.64 28.46 15.55 28.54C15.25 28.77 14.89 28.92 14.49 28.94C14.45 28.94 14.42 28.94 14.38 28.94L14.39 28.93Z"
            fill="#41576D"
          />
        </svg>