    <svg
              width="38"
              height="30"
              viewBox="0 0 38 30"
              fill="none"
              xmlns="http://www.w3.org/2000/svg"
            >
              <path
                d="M23.15 13.12H0V8.43C0 6.93 1.31 5.62 2.81 5.62H7.5V2.81C7.5 1.31 8.81 0 10.31 0H19.69C21.19 0 22.5 1.31 22.5 2.81V5.62H27.19C28.69 5.62 30 6.93 30 8.43V11.29C29.69 11.26 29.38 11.24 29.06 11.24C26.86 11.24 24.82 11.94 23.15 13.12ZM18.75 21.56C18.75 23.25 19.17 24.84 19.89 26.25H2.81C1.31 26.25 0 24.94 0 23.44V15H11.25V17.81C11.25 18.33 11.67 18.75 12.19 18.75H19.15C18.89 19.65 18.75 20.59 18.75 21.56ZM18.75 3.75H11.25V5.63H18.75V3.75ZM37.5 21.56C37.5 26.22 33.73 30 29.06 30C24.39 30 20.62 26.23 20.62 21.56C20.62 16.89 24.39 13.12 29.06 13.12C33.73 13.12 37.5 16.89 37.5 21.56ZM32.81 21.19C32.81 20.88 32.55 20.62 32.24 20.62H30V17.44C30 17.13 29.74 16.87 29.43 16.87H28.69C28.38 16.87 28.12 17.13 28.12 17.44V21.93C28.12 22.24 28.38 22.5 28.69 22.5H32.24C32.55 22.5 32.81 22.24 32.81 21.93V21.19Z"
                fill= "#41576D"
              />
            </svg>