 <svg
          width="31"
          height="31"
          viewBox="0 0 31 31"
          fill="none"
          xmlns="http://www.w3.org/2000/svg"
        >
          <path
            d="M15.8201 30.04C12.2501 30.04 8.97009 28.8 6.40009 26.72C5.73009 26.18 5.6801 25.17 6.2901 24.57L6.97009 23.89C7.49009 23.37 8.32009 23.31 8.90009 23.77C10.8001 25.28 13.2001 26.18 15.8201 26.18C21.9701 26.18 26.9501 21.2 26.9501 15.05C26.9501 8.9 21.9701 3.92 15.8201 3.92C12.8701 3.92 10.1901 5.07 8.2001 6.94L11.2701 10.01C11.8801 10.62 11.4501 11.66 10.5901 11.66H1.80008C1.27008 11.66 0.830078 11.23 0.830078 10.69V1.9C0.830078 1.04 1.8701 0.609997 2.4801 1.22L5.47009 4.21C8.16009 1.64 11.8101 0.0599976 15.8301 0.0599976C24.1001 0.0599976 30.8101 6.76 30.8301 15.03C30.8501 23.29 24.1101 30.05 15.8401 30.06L15.8201 30.04ZM17.8301 20.03L13.8701 16.95V8.74C13.8701 7.94 14.5201 7.29 15.3201 7.29H16.2901C17.0901 7.29 17.7401 7.94 17.7401 8.74V15.05L20.2001 16.96C20.8301 17.45 20.9501 18.36 20.4501 19L19.8601 19.76C19.3701 20.39 18.4601 20.51 17.8201 20.02L17.8301 20.03Z"
            fill="#41576D"
          />
        </svg>