<svg width="27" height="24" viewBox="0 0 27 24" fill="none" xmlns="http://www.w3.org/2000/svg">
<path d="M24.1728 23.4231H2.19946C0.513475 23.4231 -0.542582 21.5889 0.291146 20.1253L11.2964 1.09774C12.1486 -0.365914 14.2607 -0.365914 15.0945 1.09774L26.0811 20.1438C26.9334 21.6075 25.8588 23.4417 24.1728 23.4417V23.4231ZM11.0926 18.2911C11.0926 19.4583 12.0375 20.4032 13.2047 20.4032C14.3719 20.4032 15.3168 19.4583 15.3168 18.2911C15.3168 17.1239 14.3719 16.179 13.2047 16.179C12.0375 16.179 11.0926 17.1239 11.0926 18.2911ZM11.5372 14.845C11.5372 15.1414 11.7966 15.3638 12.093 15.3638H14.3163C14.6127 15.3638 14.8536 15.1414 14.8721 14.845L15.2056 8.61982C15.2056 8.30486 14.9648 8.04548 14.6498 8.04548H11.741C11.4261 8.04548 11.1667 8.30486 11.1852 8.61982L11.5187 14.845H11.5372Z" fill="#7993B0"/>
</svg>
