<svg width="24" height="24" viewBox="0 0 24 24" fill="none" xmlns="http://www.w3.org/2000/svg">
<path d="M17.24 20.7C16.15 21.2 14.96 21.46 13.73 21.46C11.28 21.46 9.08 20.41 7.53 18.75H3.38C3.17 18.75 3 18.58 3 18.37V17.62C3 17.41 3.17 17.24 3.38 17.24H6.42C5.68 15.98 5.25 14.53 5.25 12.97C5.25 12.89 5.25 12.82 5.26 12.74H3.45C3.2 12.74 3 12.57 3 12.36V11.61C3 11.4 3.2 11.23 3.45 11.23H5.42C5.79 9.47 6.71 7.91 7.99 6.73H3.38C3.17 6.73 3 6.56 3 6.35V5.6C3 5.39 3.17 5.22 3.38 5.22H10.13C10.13 5.22 10.19 5.23 10.23 5.24C10.9 4.93 11.62 4.71 12.38 4.59C12.49 4.52 12.62 4.47 12.76 4.47H14.26C14.32 4.47 14.38 4.49 14.43 4.51C15.73 4.62 16.94 5.02 18.01 5.64V1.12C18.01 0.5 17.51 0 16.89 0H1.12C0.5 0 0 0.5 0 1.12V22.87C0 23.49 0.5 23.99 1.12 23.99H16.87C17.49 23.99 17.99 23.49 17.99 22.87V21.46L17.23 20.7H17.24Z" fill="#7893B0"/>
<path d="M23.6902 21.9998L22.7402 22.9498C22.4302 23.2698 21.9202 23.2698 21.6002 22.9498L18.2502 19.6098C18.1002 19.4598 18.0102 19.2498 18.0102 19.0398V18.4898C16.8302 19.4198 15.3402 19.9698 13.7202 19.9698C9.87023 19.9698 6.74023 16.8498 6.74023 12.9898C6.74023 9.12977 9.86023 6.00977 13.7202 6.00977C17.5802 6.00977 20.7002 9.12977 20.7002 12.9898C20.7002 14.6098 20.1502 16.0998 19.2202 17.2798H19.7702C19.9802 17.2798 20.1902 17.3598 20.3402 17.5098L23.6902 20.8598C24.0002 21.1798 24.0002 21.6898 23.6902 21.9998ZM18.8802 12.9898C18.8802 10.1398 16.5702 7.82977 13.7202 7.82977C10.8702 7.82977 8.56024 10.1398 8.56024 12.9898C8.56024 15.8398 10.8702 18.1498 13.7202 18.1498C16.5702 18.1498 18.8802 15.8398 18.8802 12.9898Z" fill="#7893B0"/>
<path d="M9.74012 13.83C9.58012 13.67 9.58012 13.41 9.74012 13.25L10.3201 12.67C10.4801 12.51 10.7401 12.51 10.9001 12.67L12.7001 14.47L16.5501 10.62C16.7101 10.46 16.9701 10.46 17.1301 10.62L17.7101 11.2C17.8701 11.36 17.8701 11.62 17.7101 11.78L12.9901 16.5C12.8301 16.66 12.5701 16.66 12.4101 16.5L9.74012 13.83Z" fill="#7893B0"/>
</svg>
