<svg width="30" height="24" viewBox="0 0 30 24" fill="none" xmlns="http://www.w3.org/2000/svg">
<path d="M10.5 12C12.45 12 14.17 11.07 15.27 9.63C15.38 9.41 15.52 9.2 15.68 9.01C16.2 8.12 16.5 7.1 16.5 6C16.5 2.69 13.81 0 10.5 0C7.19 0 4.5 2.69 4.5 6C4.5 9.31 7.19 12 10.5 12Z" fill="#7893B0"/>
<path d="M15.29 13.56C15.19 13.56 15.09 13.54 14.99 13.53L12.75 22.5L11.25 16.12L12.75 13.5H8.25L9.75 16.12L8.25 22.5L6.01 13.53C2.67 13.69 0 16.42 0 19.8V21.75C0 22.99 1.01 24 2.25 24H18.75C19.99 24 21 22.99 21 21.75V21.66C18.49 20.23 16.09 17.4 15.29 13.56Z" fill="#7893B0"/>
<path d="M30 10.8102C30 16.6502 26.17 19.9002 23.77 20.8402C23.57 20.9202 23.18 21.0102 22.73 20.8402C19.72 19.6602 16.5 16.0502 16.5 10.8102C16.5 10.3002 16.83 9.84021 17.33 9.64021L22.73 7.53021C23.18 7.36021 23.58 7.45021 23.77 7.53021L29.17 9.64021C29.67 9.84021 30 10.3002 30 10.8102ZM27.73 11.4902L23.25 9.74021V18.6002C24.87 17.8302 27.46 15.5702 27.73 11.4802V11.4902Z" fill="#7893B0"/>
</svg>
