<svg width="28" height="23" viewBox="0 0 28 23" fill="none" xmlns="http://www.w3.org/2000/svg">
<path d="M28 18.9V19.6C28 21.14 26.74 22.4 25.2 22.4H2.8C1.26 22.4 0 21.14 0 19.6V18.9C0 18.5173 0.317333 18.2 0.7 18.2H11.1627C11.1533 18.8347 11.7787 19.6 12.6 19.6H15.26C16.0533 19.6 16.66 19.068 16.688 18.2H27.3C27.6827 18.2 28 18.5173 28 18.9ZM25.2 16.8H2.8V2.1C2.8 0.942667 3.74267 0 4.9 0H23.1C24.2573 0 25.2 0.942667 25.2 2.1V16.8ZM19.6933 12.124L14.84 3.71467C14.4667 3.07067 13.5333 3.07067 13.16 3.71467L8.30667 12.124C7.93333 12.768 8.4 13.58 9.14667 13.58H18.844C19.5907 13.58 20.0573 12.768 19.684 12.124H19.6933ZM13.076 11.312C13.076 11.8253 13.496 12.2453 14.0093 12.2453C14.5227 12.2453 14.9427 11.8253 14.9427 11.312C14.9427 10.7987 14.5227 10.3787 14.0093 10.3787C13.496 10.3787 13.076 10.7987 13.076 11.312ZM13.272 9.79067C13.272 9.92133 13.384 10.024 13.5147 10.024H14.4947C14.6253 10.024 14.728 9.92133 14.7373 9.79067L14.8867 7.03733C14.8867 6.89733 14.784 6.78533 14.644 6.78533H13.3653C13.2253 6.78533 13.1133 6.89733 13.1227 7.03733L13.272 9.79067Z" fill="#7893B0"/>
</svg>
