<svg width="28" height="19" viewBox="0 0 28 19" fill="none" xmlns="http://www.w3.org/2000/svg">
<path fill-rule="evenodd" clip-rule="evenodd" d="M20.6401 8.52252H26.8106C27.4634 8.52252 27.9911 7.99489 27.9911 7.35101V1.17151C27.9911 0.518684 27.4634 0 26.8106 0H20.6401C19.9872 0 19.4596 0.527627 19.4596 1.17151V2.96008H12.0907V8.15586H8.52252V6.40307C8.52252 5.75024 7.99489 5.23156 7.34206 5.23156H1.18045C0.527627 5.23156 0 5.75918 0 6.40307V12.5736C0 13.2264 0.527627 13.7451 1.18045 13.7451H7.35101C8.00383 13.7451 8.53146 13.2175 8.53146 12.5736V10.8208H12.0996V16.0256H19.4685V17.8052C19.4685 18.458 19.9962 18.9767 20.649 18.9767H26.8195C27.4724 18.9767 28 18.4491 28 17.8052V11.6346C28 10.9818 27.4724 10.4631 26.8195 10.4631H20.649C19.9962 10.4631 19.4685 10.9907 19.4685 11.6346V13.4142H14.711V5.58033H19.4685V7.35101C19.4685 8.00383 19.9962 8.52252 20.649 8.52252H20.6401ZM21.8205 2.35196H25.6391V6.17055H21.8205V2.35196ZM6.17055 11.4021H2.35196V7.58352H6.17055V11.4021ZM21.8116 12.8061H25.6301V16.6247H21.8116V12.8061Z" fill="#7993B0"/>
</svg>
