<svg width="28" height="19" viewBox="0 0 28 19" fill="none" xmlns="http://www.w3.org/2000/svg">
<path d="M28 3.66333C28 3.93167 27.9183 4.17667 27.7667 4.39833C27.895 4.445 28 4.55 28 4.70167V15.89C28 17.3367 26.8217 18.515 25.375 18.515H2.625C1.17833 18.515 0 17.3367 0 15.89V4.70167C0 4.55 0.105 4.43333 0.233333 4.39833C0.0816667 4.18833 0 3.93167 0 3.66333V2.625C0 1.17833 1.17833 0 2.625 0H25.375C26.8217 0 28 1.17833 28 2.625V3.66333ZM10.2783 10.1267H9.82333C9.21667 10.4067 8.54 10.57 7.82833 10.57C7.11667 10.57 6.44 10.4067 5.83333 10.1267H5.37833C3.34833 10.1267 1.70333 11.7717 1.70333 13.8017V14.9333C1.70333 15.6567 2.28667 16.24 3.01 16.24H12.635C13.3583 16.24 13.9417 15.6567 13.9417 14.9333V13.8017C13.9417 11.7717 12.2967 10.1267 10.2667 10.1267H10.2783ZM13.9533 6.07833H24.535V2.66H13.9533V6.07833ZM13.9533 11.165H24.535V7.74667H13.9533V11.165ZM16.2867 16.2517H24.535V12.8333H16.2867V16.2517ZM7.82833 9.25167C9.765 9.25167 11.3283 7.68833 11.3283 5.75167C11.3283 3.815 9.765 2.25167 7.82833 2.25167C5.89167 2.25167 4.32833 3.815 4.32833 5.75167C4.32833 7.68833 5.89167 9.25167 7.82833 9.25167Z" fill="#7893B0"/>
</svg>
