<svg width="27" height="27" viewBox="0 0 27 27" fill="none" xmlns="http://www.w3.org/2000/svg">
<path d="M13.19 1.56C15.06 1.56 16.66 4.5 17.34 8.68H9.04C9.72 4.49 11.32 1.56 13.19 1.56ZM16.5 2.05C19.85 3.04 22.57 5.51 23.91 8.69H18.85C18.44 6.02 17.65 3.64 16.51 2.05M9.88 2.05C8.74 3.63 7.95 6.02 7.54 8.69H2.47C3.81 5.51 6.52 3.05 9.87 2.05M24.41 10.19C24.66 11.15 24.81 12.15 24.81 13.19C24.81 14.23 24.66 15.23 24.41 16.19H19.04C19.14 15.21 19.19 14.2 19.19 13.19C19.19 12.18 19.13 11.17 19.04 10.19H24.42M17.54 10.19C17.64 11.15 17.69 12.15 17.69 13.19C17.69 14.23 17.63 15.23 17.54 16.19H8.85C8.75 15.23 8.7 14.23 8.7 13.19C8.7 12.15 8.76 11.15 8.85 10.19H17.54ZM7.35 10.19C7.25 11.17 7.2 12.18 7.2 13.19C7.2 14.2 7.26 15.21 7.35 16.19H1.97C1.72 15.23 1.57 14.23 1.57 13.19C1.57 12.15 1.72 11.15 1.97 10.19H7.35ZM23.92 17.69C22.58 20.87 19.86 23.33 16.51 24.33C17.65 22.75 18.44 20.36 18.85 17.69H23.91M17.33 17.69C16.65 21.88 15.05 24.81 13.18 24.81C11.31 24.81 9.71 21.87 9.03 17.69H17.33ZM7.52 17.69C7.93 20.36 8.72 22.74 9.86 24.33C6.51 23.34 3.79 20.87 2.45 17.69H7.51M13.19 0C5.9 0 0 5.9 0 13.19C0 20.48 5.9 26.38 13.19 26.38C20.48 26.38 26.38 20.48 26.38 13.19C26.38 5.9 20.47 0 13.19 0Z" fill="#7893B0"/>
</svg>
