<svg width="24" height="22" viewBox="0 0 24 22" fill="none" xmlns="http://www.w3.org/2000/svg">
<path d="M13.3333 12V12.8C12.2667 13.6 12.4 13.6 8.53333 16.4C8.13333 16.5333 7.33333 17.3333 6.66667 17.3333C6 17.3333 5.2 16.5333 4.8 16.2667C0.933334 13.4667 1.06667 13.4667 0 12.6667V12C0 11.2622 0.595556 10.6667 1.33333 10.6667H12C12.7378 10.6667 13.3333 11.2622 13.3333 12ZM9.33333 17.3333C12 15.4667 12.8 14.8 13.3333 14.4V20C13.3333 20.7378 12.7378 21.3333 12 21.3333H1.33333C0.595556 21.3333 0 20.7378 0 20V14.4C0.533333 14.8 1.33333 15.4667 4 17.3333C4.53333 17.7333 5.6 18.6667 6.66667 18.6667C7.73333 18.6667 8.8 17.7333 9.33333 17.3333ZM6.66667 9.33333H2.66667V1.33333C2.66667 0.595556 3.26222 0 4 0H17.3333C18.0711 0 18.6667 0.595556 18.6667 1.33333V5.33333H9.33333C7.86667 5.33333 6.66667 6.53333 6.66667 8V9.33333ZM24 8V16C24 16.7378 23.4044 17.3333 22.6667 17.3333H14.6667V11.7333H14.6578C14.5244 10.3911 13.3867 9.33333 12 9.33333H8V8C8 7.26222 8.59556 6.66667 9.33333 6.66667H22.6667C23.4044 6.66667 24 7.26222 24 8ZM21.3333 9.33333H18.6667V12H21.3333V9.33333Z" fill="#7893B0"/>
</svg>
