<?xml version="1.0" encoding="utf-8"?>
<svg version="1.1" xmlns="http://www.w3.org/2000/svg" xmlns:xlink="http://www.w3.org/1999/xlink" x="0px" y="0px"
	 width="16px" height="16px" viewBox="0 0 16 16" enable-background="new 0 0 16 16" xml:space="preserve">
<g>
	<path fill="#FD8C00" d="M9.3,2.63L7.4,4.79l0.19,0.65C7.72,5.42,7.86,5.4,8,5.4c1.43,0,2.59,1.16,2.59,2.59
		c0,0.08-0.02,0.15-0.02,0.23l1.87,0.08l1.69,2.89l1.21,0.04c0.12-0.28,0.23-0.56,0.32-0.85c0.05-0.18-0.02-0.36-0.18-0.46
		l-1.38-0.8c0.14-0.75,0.14-1.52,0-2.27l1.38-0.8c0.16-0.09,0.23-0.28,0.18-0.45c-0.36-1.15-0.97-2.19-1.77-3.06
		c-0.12-0.13-0.32-0.16-0.48-0.07l-1.38,0.8c-0.58-0.5-1.24-0.88-1.97-1.13V0.54c0-0.18-0.13-0.34-0.3-0.38
		C9.36,0.07,8.96,0.03,8.55,0L9.3,2.63z"/>
	<path fill="#FD8C00" d="M14.01,11.88l-1.79-2.07l-2.3-0.13C9.45,10.22,8.77,10.57,8,10.57c-1.42,0-2.59-1.16-2.59-2.59
		c0-1.15,0.76-2.11,1.79-2.45L6.8,4.89L8,2.87L7.22,0.01C6.89,0.04,6.56,0.09,6.23,0.16c-0.18,0.04-0.3,0.2-0.3,0.38v1.59
		C5.21,2.39,4.55,2.77,3.96,3.27l-1.37-0.8C2.43,2.38,2.24,2.41,2.11,2.55C1.32,3.41,0.7,4.45,0.35,5.6
		C0.29,5.78,0.36,5.97,0.52,6.06l1.38,0.8c-0.14,0.75-0.14,1.52,0,2.27L0.52,9.91c-0.16,0.09-0.23,0.28-0.18,0.45
		c0.36,1.15,0.97,2.19,1.77,3.06c0.12,0.13,0.32,0.16,0.48,0.07l1.38-0.8c0.58,0.5,1.24,0.88,1.96,1.13v1.59
		c0,0.18,0.13,0.34,0.3,0.38c1.19,0.26,2.4,0.25,3.53,0c0.18-0.04,0.3-0.2,0.3-0.38v-1.59c0.72-0.26,1.38-0.64,1.96-1.13l1.38,0.8
		c0.16,0.09,0.36,0.06,0.48-0.07c0.5-0.54,0.91-1.15,1.25-1.82L14.01,11.88z"/>
</g>
</svg>
