<?xml version="1.0" encoding="utf-8"?>
<svg version="1.1" xmlns="http://www.w3.org/2000/svg" xmlns:xlink="http://www.w3.org/1999/xlink" x="0px" y="0px"
	 width="16px" height="16px" viewBox="0 0 16 16" enable-background="new 0 0 16 16" xml:space="preserve">
<g>
	<path fill="#DC0000" d="M16,8c0,4.42-3.58,8-8,8s-8-3.58-8-8s3.58-8,8-8S16,3.58,16,8z M13.94,8c0-3.28-2.66-5.94-5.94-5.94
		C4.72,2.06,2.06,4.72,2.06,8c0,3.28,2.66,5.94,5.94,5.94C11.28,13.94,13.94,11.28,13.94,8z M12.13,8c0,2.28-1.85,4.13-4.13,4.13
		S3.87,10.28,3.87,8S5.72,3.87,8,3.87S12.13,5.72,12.13,8z M10.06,8c0-1.14-0.93-2.06-2.06-2.06S5.94,6.86,5.94,8
		S6.86,10.06,8,10.06S10.06,9.14,10.06,8z"/>
</g>
</svg>
