<svg width="801" height="407" viewBox="0 0 801 407" fill="none" xmlns="http://www.w3.org/2000/svg">
<g clip-path="url(#clip0_6405_24033)">
<path d="M650.29 241.561H524.5V290.881H650.29V241.561Z" stroke="#3B4F62" stroke-width="1.57" stroke-linecap="round" stroke-linejoin="round"/>
<path d="M591.09 241.161V181.971" stroke="#3B4F62" stroke-width="1.57" stroke-linecap="round" stroke-linejoin="round"/>
<path d="M654.03 356.359H525.72V405.679H654.03V356.359Z" stroke="#3B4F62" stroke-width="1.57" stroke-linecap="round" stroke-linejoin="round"/>
<path d="M799.34 241.359H671.03V290.679H799.34V241.359Z" stroke="#3B4F62" stroke-width="1.57" stroke-linecap="round" stroke-linejoin="round"/>
<path d="M799.34 356.359H671.03V405.679H799.34V356.359Z" stroke="#3B4F62" stroke-width="1.57" stroke-linecap="round" stroke-linejoin="round"/>
<path d="M592.771 350.96V291.77" stroke="#3B4F62" stroke-width="1.57" stroke-linecap="round" stroke-linejoin="round"/>
<path d="M733.771 350.96V291.77" stroke="#3B4F62" stroke-width="1.57" stroke-linecap="round" stroke-linejoin="round"/>
<path d="M733.771 241.93V205.77" stroke="#3B4F62" stroke-width="1.57" stroke-linecap="round" stroke-linejoin="round"/>
<path d="M175.31 76.6999V29.9199H671.03V114.19" stroke="#3B4F62" stroke-width="1.57" stroke-miterlimit="10"/>
<path d="M591.09 160.959V114.189H733.46V179.219" stroke="#3B4F62" stroke-width="1.57" stroke-miterlimit="10"/>
<path d="M652.6 157.311H524.5V206.631H652.6V157.311Z" fill="#76C9EC"/>
<path d="M799.34 157.311H671.03V206.631H799.34V157.311Z" fill="#A0ABB6"/>
<path d="M437.92 0H45.0799C39.5957 0 35.1499 4.44581 35.1499 9.93V265.74C35.1499 271.224 39.5957 275.67 45.0799 275.67H437.92C443.404 275.67 447.85 271.224 447.85 265.74V9.93C447.85 4.44581 443.404 0 437.92 0Z" fill="#23394F"/>
<path d="M442.8 263.411V12.2708C442.8 8.28329 439.567 5.05078 435.58 5.05078L47.4098 5.05078C43.4223 5.05078 40.1898 8.28329 40.1898 12.2708V263.411C40.1898 267.398 43.4223 270.631 47.4098 270.631H435.58C439.567 270.631 442.8 267.398 442.8 263.411Z" fill="#52667A"/>
<path d="M432.3 260.121V15.5508L50.6998 15.5508V260.121H432.3Z" fill="#1D344B"/>
<path d="M1.71 275.67H481.28C482.22 275.67 482.99 276.44 482.99 277.38V294.13C482.99 301.71 476.83 307.87 469.25 307.87H13.74C6.16 307.87 0 301.71 0 294.13V277.38C0 276.44 0.77 275.67 1.71 275.67Z" fill="#23394F"/>
<path d="M202.79 275.67H280.21V281.79C280.21 285.68 277.05 288.84 273.16 288.84H209.84C205.95 288.84 202.79 285.68 202.79 281.79V275.67Z" fill="#52667A"/>
<path d="M111.43 268.699H75.6401V275.409H111.43V268.699Z" fill="#52667A"/>
<path d="M371.56 275.42H407.35V268.71H371.56V275.42Z" fill="#52667A"/>
<path d="M326.61 135.02C326.61 92.2501 295.3 56.8801 254.37 50.3301L264.94 60.9001L252.61 73.2301C281.69 78.7801 303.68 104.32 303.68 135.02C303.68 165.72 280.43 192.59 250.16 197.15V188.16L229.18 209.14L250.16 230.12V220.31C293.14 215.61 326.61 179.26 326.61 135.03V135.02Z" fill="#29ABE2"/>
<path d="M252.91 60.8999L231.93 39.9199V49.6899C188.65 54.1099 154.86 90.5699 154.86 135.01C154.86 179.45 186.54 213.57 227.83 219.81L217.15 209.13L229.4 196.88C200.06 191.54 177.79 165.9 177.79 135.01C177.79 104.12 201.35 77.0699 231.93 72.7699V81.8599L252.91 60.8799V60.8999Z" fill="#7893B0"/>
<path d="M235.18 133.829L196.68 115.369V161.829L235.18 180.279V133.829Z" fill="#29ABE2"/>
<path d="M246.29 133.829L284.79 115.369V161.829L246.29 180.279V133.829Z" fill="#7893B0"/>
<path d="M203.35 108.22L241.85 89.7598L278.75 107.87L240.25 126.33L203.35 108.22Z" fill="#29ABE2"/>
</g>
<defs>
<clipPath id="clip0_6405_24033">
<rect width="800.13" height="406.46" fill="white"/>
</clipPath>
</defs>
</svg>
