<svg width="24" height="27" viewBox="0 0 24 27" fill="none" xmlns="http://www.w3.org/2000/svg">
<path d="M24.0001 13.2909C24.0001 7.31094 19.6201 2.37094 13.9001 1.46094L15.3801 2.94094L13.6601 4.66094C17.7201 5.44094 20.8001 9.00094 20.8001 13.2909C20.8001 17.5809 17.5501 21.3409 13.3201 21.9709V20.7109L10.3901 23.6409L13.3201 26.5709V25.2009C19.3301 24.5409 24.0001 19.4609 24.0001 13.2809V13.2909Z" fill="#7893B0"/>
<path d="M13.7 2.93L10.77 0V1.37C4.72 1.99 0 7.08 0 13.29C0 19.5 4.43 24.27 10.2 25.14L8.71 23.65L10.42 21.94C6.32 21.19 3.21 17.61 3.21 13.29C3.21 8.97 6.5 5.19 10.78 4.59V5.86L13.71 2.93H13.7Z" fill="#7893B0"/>
<path d="M11.1213 17.6183C10.9813 17.8683 10.6813 17.9683 10.4113 17.8683C9.8613 17.6583 9.3513 17.3683 8.9113 16.9983C8.6913 16.8183 8.6413 16.5083 8.7813 16.2583L9.1613 15.5883C8.8413 15.2083 8.5813 14.7783 8.4113 14.3083H7.6413C7.3613 14.3083 7.1213 14.1083 7.0713 13.8283C6.9813 13.2683 6.9713 12.6783 7.0713 12.0883C7.1213 11.8083 7.3613 11.5983 7.6413 11.5983H8.4113C8.5813 11.1283 8.8313 10.6883 9.1613 10.3183L8.7813 9.64832C8.6413 9.40832 8.6913 9.08832 8.9113 8.90832C9.3613 8.53832 9.8713 8.23832 10.4113 8.03832C10.6813 7.93832 10.9813 8.03832 11.1213 8.28832L11.5013 8.95832C11.9913 8.86832 12.4913 8.86832 12.9913 8.95832L13.3713 8.28832C13.5113 8.03832 13.8113 7.93832 14.0813 8.03832C14.6313 8.24832 15.1413 8.53832 15.5813 8.90832C15.8013 9.08832 15.8513 9.39832 15.7113 9.64832L15.3313 10.3183C15.6513 10.6983 15.9113 11.1283 16.0813 11.5983H16.8513C17.1313 11.5983 17.3713 11.7983 17.4213 12.0783C17.5113 12.6383 17.5213 13.2283 17.4213 13.8183C17.3713 14.0983 17.1313 14.3083 16.8513 14.3083H16.0813C15.9113 14.7783 15.6613 15.2183 15.3313 15.5883L15.7113 16.2583C15.8513 16.4983 15.8013 16.8183 15.5813 16.9983C15.1313 17.3683 14.6213 17.6683 14.0813 17.8683C13.8113 17.9683 13.5113 17.8683 13.3713 17.6183L12.9913 16.9483C12.5013 17.0383 12.0013 17.0383 11.5013 16.9483L11.1213 17.6183ZM13.4913 11.7183C11.6913 10.3283 9.6313 12.3883 11.0213 14.1983C12.8213 15.5883 14.8813 13.5283 13.4913 11.7183Z" fill="#7893B0"/>
</svg>
