<svg width="32" height="24" viewBox="0 0 32 24" fill="none" xmlns="http://www.w3.org/2000/svg">
<path d="M18.7355 15.0757C18.2855 15.0757 17.8355 15.0357 17.4055 14.9557L16.4355 16.0457C16.2755 16.2257 15.9555 16.3757 15.7055 16.3757H14.1955V17.9957C14.1955 18.5357 13.7655 18.9657 13.2255 18.9657H11.6055V20.5857C11.6055 21.1257 11.1755 21.5557 10.6355 21.5557H6.11551C5.57551 21.5557 5.14551 21.1257 5.14551 20.5857V17.4257C5.14551 17.1657 5.24551 16.9157 5.42551 16.7357L11.9755 10.1957C11.7455 9.4957 11.6155 8.7457 11.6155 7.9657C11.6155 4.0357 14.8055 0.845703 18.7355 0.845703C22.6655 0.845703 25.8555 4.0257 25.8555 7.9657C25.8555 11.9057 22.6655 15.0857 18.7355 15.0857V15.0757ZM20.6755 7.9557C21.7455 7.9557 22.6155 7.0857 22.6155 6.0157C22.6155 4.9457 21.7455 4.0757 20.6755 4.0757C19.6055 4.0757 18.7355 4.9457 18.7355 6.0157C18.7355 7.0857 19.6055 7.9557 20.6755 7.9557Z" stroke="#7893B0" stroke-miterlimit="10"/>
<path d="M26.8554 17.3452C26.8554 20.5552 24.2554 23.1552 21.0454 23.1552C17.8354 23.1552 15.2354 20.5552 15.2354 17.3452C15.2354 14.1352 17.8354 11.5352 21.0454 11.5352C24.2554 11.5352 26.8554 14.1352 26.8554 17.3452Z" fill="#FF0000"/>
<path d="M22.355 17.3466L23.895 15.8266C24.005 15.7166 24.005 15.5366 23.895 15.4266L22.965 14.4966C22.855 14.3866 22.675 14.3866 22.565 14.4966L21.035 16.0366L19.515 14.4966C19.405 14.3866 19.225 14.3866 19.115 14.4966L18.185 15.4266C18.075 15.5366 18.075 15.7166 18.185 15.8266L19.725 17.3566L18.185 18.8766C18.075 18.9866 18.075 19.1666 18.185 19.2766L19.115 20.2066C19.225 20.3166 19.405 20.3166 19.515 20.2066L21.045 18.6666L22.565 20.2066C22.675 20.3166 22.855 20.3166 22.965 20.2066L23.895 19.2766C24.005 19.1666 24.005 18.9866 23.895 18.8766L22.355 17.3466Z" fill="white"/>
</svg>
