<svg width="32" height="20" viewBox="0 0 32 20" fill="none" xmlns="http://www.w3.org/2000/svg">
<path d="M30 1.31445H2V18.6845H30V1.31445Z" stroke="#7893B0" stroke-miterlimit="10"/>
<path d="M5.62012 3.6543V16.3443" stroke="#7893B0" stroke-miterlimit="10"/>
<path d="M9.08008 3.6543V16.3443" stroke="#7893B0" stroke-miterlimit="10"/>
<path d="M12.54 3.6543V16.3443" stroke="#7893B0" stroke-miterlimit="10"/>
<path d="M20.6898 13.0352L20.5898 13.5152C20.5398 13.7452 20.6898 13.9752 20.8898 13.9752H23.2198C23.4198 13.9752 23.5698 13.7452 23.5198 13.5152L23.4198 13.0352C24.1898 12.6252 24.7098 11.8752 24.7098 11.0152C24.7098 9.71524 23.5198 8.65524 22.0498 8.65524C20.5798 8.65524 19.3898 9.71524 19.3898 11.0152C19.3898 11.8752 19.9098 12.6152 20.6798 13.0352H20.6898ZM20.4298 11.3152C20.4298 11.6452 20.6898 11.9052 21.0198 11.9052C21.3498 11.9052 21.6098 11.6452 21.6098 11.3152C21.6098 10.9852 21.3398 10.7252 21.0198 10.7252C20.6998 10.7252 20.4298 10.9952 20.4298 11.3152ZM22.4998 11.3152C22.4998 11.6452 22.7698 11.9052 23.0898 11.9052C23.4098 11.9052 23.6798 11.6452 23.6798 11.3152C23.6798 10.9852 23.4198 10.7252 23.0898 10.7252C22.7598 10.7252 22.4998 10.9952 22.4998 11.3152ZM27.1998 15.4952H16.9098C16.1198 15.4952 15.6198 14.6352 16.0198 13.9552L21.1698 5.03524C21.5698 4.34524 22.5598 4.35524 22.9498 5.03524L28.0998 13.9552C28.4998 14.6452 27.9998 15.4952 27.2098 15.4952H27.1998Z" fill="#F7931E"/>
</svg>
